<svg width="104" height="101" viewBox="0 0 104 101" fill="none" xmlns="http://www.w3.org/2000/svg">
<g id="Frame" clip-path="url(#clip0_405_12817)">
<g id="Group">
<g id="Layer_1">
<path id="Vector" d="M103.505 11.5503H31.2651V76.6703H103.505V11.5503Z" fill="#FF7500"/>
<path id="Vector_2" d="M93.3351 0.870117H67.3851H41.4451L31.2651 11.5501H67.3851H103.505L93.3351 0.870117Z" fill="#FFA970"/>
<path id="Vector_3" d="M72.2752 7.95996H67.3852H62.4952L60.5752 11.55H67.3852H74.1952L72.2752 7.95996Z" fill="white"/>
<path id="Vector_4" d="M101.195 58.0503H84.4053V72.9903H101.195V58.0503Z" fill="white"/>
<path id="Vector_5" d="M86.6552 59.3101H85.8052V71.7401H86.6552V59.3101Z" fill="#403036"/>
<path id="Vector_6" d="M89.7551 59.3101H88.5151V71.7401H89.7551V59.3101Z" fill="#403036"/>
<path id="Vector_7" d="M88.1453 59.3101H86.9053V71.7401H88.1453V59.3101Z" fill="#403036"/>
<path id="Vector_8" d="M93.7549 59.3101H92.5249V71.7401H93.7549V59.3101Z" fill="#403036"/>
<path id="Vector_9" d="M91.225 59.3101H90.375V71.7401H91.225V59.3101Z" fill="#403036"/>
<path id="Vector_10" d="M91.225 59.3101H90.375V71.7401H91.225V59.3101Z" fill="#403036"/>
<path id="Vector_11" d="M98.2051 59.3101H96.9751V71.7401H98.2051V59.3101Z" fill="#403036"/>
<path id="Vector_12" d="M99.9253 59.3101H98.6953V71.7401H99.9253V59.3101Z" fill="#403036"/>
<path id="Vector_13" d="M95.1752 59.3101H94.3252V71.7401H95.1752V59.3101Z" fill="#403036"/>
<path id="Vector_14" d="M96.7152 59.3101H95.8652V71.7401H96.7152V59.3101Z" fill="#403036"/>
<path id="Vector_15" d="M93.0949 21.3001C93.0949 18.5901 90.8949 16.3901 88.1849 16.3901C85.4749 16.3901 83.2749 18.5901 83.2749 21.3001H87.4149V25.4101C87.1249 25.7301 86.6949 26.0701 86.4249 26.0501C86.2449 26.0301 86.0149 25.7701 85.8049 25.3501L84.2349 26.1101C84.8649 27.4101 85.6949 27.7401 86.2749 27.7901C86.3349 27.7901 86.3949 27.8001 86.4549 27.8001C87.8249 27.8001 88.8749 26.4101 88.9949 26.2401L89.1549 26.0101V21.3101H93.0849L93.0949 21.3001Z" fill="#735A62"/>
<path id="Vector_16" d="M98.0553 26.3903V21.7803C100.405 21.2803 100.965 18.7503 100.965 16.5103H93.4053C93.4053 18.7503 93.9753 21.2803 96.3153 21.7803V26.3903C94.6853 26.5403 94.2753 27.1403 94.2753 27.6703H100.105C100.105 27.1403 99.6953 26.5503 98.0653 26.3903H98.0553Z" fill="#735A62"/>
<path id="Vector_17" d="M103.505 39.4302H31.2651V48.9002H103.505V39.4302Z" fill="#FFA970"/>
<path id="Vector_18" d="M74.1952 11.5503H60.5752V18.7803H74.1952V11.5503Z" fill="white"/>
<g id="Group_2" style="mix-blend-mode:multiply">
<path id="Vector_19" d="M74.1952 11.5503H60.5752V18.7803H74.1952V11.5503Z" fill="#F7EAD7"/>
</g>
<g id="Group_3" style="mix-blend-mode:multiply">
<path id="Vector_20" d="M31.2651 11.5501V76.6701H67.3851V0.870117H41.4451L31.2651 11.5501Z" fill="#F7EAD7"/>
</g>
<path id="Vector_21" d="M1.99512 45.5599V95.0599L20.6551 89.5299L41.7651 97.9299L59.3451 90.9899L78.8051 96.7699V45.5599L59.3451 41.4699L41.7651 47.9499L20.7751 41.1299L1.99512 45.5599Z" fill="#735A62"/>
<path id="Vector_22" d="M41.7651 99.5403L20.5851 91.1203L0.495117 97.0703V44.3803L20.8351 39.5703L41.7351 46.3703L59.2351 39.9203L80.3051 44.3503V98.7803L59.4151 92.5803L41.7651 99.5503V99.5403ZM20.7251 87.9503L41.7651 96.3203L59.2751 89.4103L77.3051 94.7603V46.7803L59.4551 43.0203L41.7951 49.5303L20.7051 42.6703L3.49512 46.7403V93.0403L20.7251 87.9403V87.9503Z" fill="#403036"/>
<g id="Group_4" style="mix-blend-mode:multiply">
<path id="Vector_23" d="M59.3452 39.3403V93.1903L59.4352 93.1603L80.7552 99.4903H80.8552V44.0103L59.3452 39.3403Z" fill="#E3D8DB"/>
</g>
<g id="Group_5" style="mix-blend-mode:multiply">
<path id="Vector_24" d="M41.7449 60.3503L34.5649 59.2704L20.2649 46.1404L13.8649 44.8604L7.50492 46.3703L18.9649 48.6604L29.3849 58.2203L19.5649 56.2403L4.04492 60.4903V63.3204L19.6649 59.0504L41.7849 63.1404L59.2849 55.1104L68.9049 60.2403L57.6549 68.0504L41.5449 77.6304L20.6049 78.5003L20.9049 81.2103L41.9849 80.2704L59.0649 70.3903L72.2049 61.5403L76.7549 63.6303V60.6104L59.4049 52.2803L41.7449 60.3503Z" fill="#E3D8DB"/>
</g>
<g id="Group_6" style="mix-blend-mode:multiply">
<path id="Vector_25" d="M4.04492 82.8604V85.5204L4.43492 85.5404L11.9149 89.9904L15.3649 88.9704L4.87492 82.9004L4.04492 82.8604Z" fill="#E3D8DB"/>
</g>
<g id="Group_7" style="mix-blend-mode:multiply">
<path id="Vector_26" d="M76.7551 80.2202L59.2151 80.7002L42.5151 95.4302L49.7551 92.5802L60.0251 83.4202L74.1651 83.0202L65.7351 88.4402L64.5751 90.4102L67.2751 91.2102L67.7551 90.3802L76.7551 84.6102V80.2202Z" fill="#E3D8DB"/>
</g>
<path id="Vector_27" d="M76.7549 55.8803V53.0903L58.6949 56.7103L44.3949 69.8403L41.7849 70.3603L20.5949 65.4903L4.04492 70.8503V73.7203L7.48492 72.6003L19.8949 80.9603L41.2349 89.8603L53.3849 91.1403L58.8649 88.9803L42.1049 87.2603L21.3049 78.6203L10.7849 71.5403L20.7149 68.3103L41.7449 73.1603L59.2949 69.6103L76.7549 74.3903V71.5603L59.3949 66.8103L49.5749 68.7903L59.9949 59.2203L76.7549 55.8803Z" fill="#403036"/>
<g id="Group_8" style="mix-blend-mode:multiply">
<path id="Vector_28" d="M20.6553 91.74L41.7653 100.13V45.77L41.7253 45.79L20.7353 38.96L20.6553 38.99V91.74Z" fill="#E3D8DB"/>
</g>
<path id="Vector_29" d="M35.7952 73.3203C35.7952 73.3203 31.0652 73.3203 31.2252 77.7303C31.3752 82.1503 35.7952 86.3303 35.7952 86.3303C35.7952 86.3303 40.2152 82.1503 40.3652 77.7303C40.5152 73.3203 35.7952 73.3203 35.7952 73.3203ZM35.7952 79.9703C34.6852 79.9703 33.7952 79.0703 33.7952 77.9703C33.7952 76.8703 34.6952 75.9603 35.7952 75.9603C36.8952 75.9603 37.7952 76.8603 37.7952 77.9703C37.7952 79.0803 36.8952 79.9703 35.7952 79.9703Z" fill="#FF7500"/>
<g id="Group_9" style="mix-blend-mode:multiply">
<path id="Vector_30" d="M35.7951 74.8799C34.0851 74.8799 32.7051 76.2599 32.7051 77.9699C32.7051 79.6799 34.0851 81.0499 35.7951 81.0499C37.5051 81.0499 38.8851 79.6699 38.8851 77.9699C38.8851 76.2699 37.5051 74.8799 35.7951 74.8799ZM35.7951 79.9699C34.6851 79.9699 33.7951 79.0699 33.7951 77.9699C33.7951 76.8699 34.6951 75.9599 35.7951 75.9599C36.8951 75.9599 37.7951 76.8599 37.7951 77.9699C37.7951 79.0799 36.8951 79.9699 35.7951 79.9699Z" fill="#E3D8DB"/>
</g>
<g id="Group_10" style="mix-blend-mode:multiply">
<path id="Vector_31" d="M33.7849 77.9703C33.7849 76.8603 34.6849 75.9603 35.7849 75.9603V73.3203C35.7849 73.3203 31.0549 73.3203 31.2149 77.7303C31.3649 82.1503 35.7849 86.3303 35.7849 86.3303V79.9703C34.6749 79.9703 33.7849 79.0703 33.7849 77.9703Z" fill="#E3D8DB"/>
</g>
<path id="Vector_32" d="M57.0749 55.04C57.0749 55.04 52.3449 55.04 52.5049 59.46C52.6649 63.88 57.0749 68.06 57.0749 68.06C57.0749 68.06 61.4949 63.88 61.6449 59.46C61.8049 55.04 57.0749 55.04 57.0749 55.04ZM57.0749 61.69C55.9649 61.69 55.0649 60.79 55.0649 59.69C55.0649 58.59 55.9649 57.68 57.0749 57.68C58.1849 57.68 59.0749 58.58 59.0749 59.69C59.0749 60.8 58.1849 61.69 57.0749 61.69Z" fill="white"/>
<g id="Group_11" style="mix-blend-mode:multiply">
<path id="Vector_33" d="M57.0754 56.6001C55.3654 56.6001 53.9854 57.9801 53.9854 59.6901C53.9854 61.4001 55.3654 62.7701 57.0754 62.7701C58.7854 62.7701 60.1653 61.3901 60.1653 59.6901C60.1653 57.9901 58.7854 56.6001 57.0754 56.6001ZM57.0754 61.6901C55.9654 61.6901 55.0653 60.7901 55.0653 59.6901C55.0653 58.5901 55.9654 57.6801 57.0754 57.6801C58.1854 57.6801 59.0754 58.5801 59.0754 59.6901C59.0754 60.8001 58.1854 61.6901 57.0754 61.6901Z" fill="#E3D8DB"/>
</g>
<g id="Group_12" style="mix-blend-mode:multiply">
<path id="Vector_34" d="M55.0649 59.69C55.0649 58.58 55.9649 57.68 57.0749 57.68V55.04C57.0749 55.04 52.3449 55.04 52.5049 59.46C52.6649 63.88 57.0749 68.06 57.0749 68.06V61.7C55.9649 61.7 55.0649 60.8 55.0649 59.7V59.69Z" fill="#E3D8DB"/>
</g>
<path id="Vector_35" d="M14.7852 52.2803C14.7852 52.2803 8.99524 52.2803 9.18524 57.6803C9.37524 63.0903 14.7852 68.2103 14.7852 68.2103C14.7852 68.2103 20.1952 63.0903 20.3852 57.6803C20.5752 52.2803 14.7852 52.2803 14.7852 52.2803ZM14.7852 60.4203C13.4352 60.4203 12.3352 59.3203 12.3352 57.9703C12.3352 56.6203 13.4352 55.5103 14.7852 55.5103C16.1352 55.5103 17.2352 56.6103 17.2352 57.9703C17.2352 59.3303 16.1352 60.4203 14.7852 60.4203Z" fill="white"/>
<g id="Group_13" style="mix-blend-mode:multiply">
<path id="Vector_36" d="M14.7849 54.1899C12.6949 54.1899 11.0049 55.8799 11.0049 57.9699C11.0049 60.0599 12.6949 61.7499 14.7849 61.7499C16.8749 61.7499 18.5649 60.0599 18.5649 57.9699C18.5649 55.8799 16.8749 54.1899 14.7849 54.1899ZM14.7849 60.4199C13.4349 60.4199 12.3349 59.3199 12.3349 57.9699C12.3349 56.6199 13.4349 55.5099 14.7849 55.5099C16.1349 55.5099 17.2349 56.6099 17.2349 57.9699C17.2349 59.3299 16.1349 60.4199 14.7849 60.4199Z" fill="#E3D8DB"/>
</g>
<g id="Group_14" style="mix-blend-mode:multiply">
<path id="Vector_37" d="M12.3352 57.9703C12.3352 56.6103 13.4352 55.5103 14.7852 55.5103V52.2803C14.7852 52.2803 8.99524 52.2803 9.18524 57.6803C9.37524 63.0903 14.7852 68.2103 14.7852 68.2103V60.4203C13.4352 60.4203 12.3352 59.3203 12.3352 57.9703Z" fill="#E3D8DB"/>
</g>
</g>
</g>
</g>
<defs>
<clipPath id="clip0_405_12817">
<rect width="103.01" height="99.26" fill="white" transform="translate(0.495117 0.870117)"/>
</clipPath>
</defs>
</svg>
