<svg xmlns="http://www.w3.org/2000/svg" width="214" height="208" viewBox="0 0 214 208" fill="none">
  <path d="M31.2525 71.1228C31.2525 71.1228 22.3825 95.2928 27.0825 110.723C27.0825 110.723 37.7225 81.2428 31.2525 71.1228Z" fill="#E4556B"/>
  <path d="M18.9119 15.5727C18.9119 15.5727 2.08187 72.8327 0.851874 91.7327C-0.378126 110.633 50.8619 106.063 50.6419 104.313C50.4219 102.553 47.0119 75.0727 47.0119 75.0727L25.4119 73.7327L29.8619 21.9927L18.9119 15.5627V15.5727Z" fill="#F5AD90"/>
  <path d="M18.5119 29.3528C19.7019 26.1028 18.2419 19.4628 18.5219 18.7428C18.9119 17.7528 19.0319 12.7828 19.2019 9.74281C19.2919 8.20281 19.8219 6.83281 20.5119 5.73281C21.1819 4.67281 21.4419 3.68281 22.1519 3.20281C23.6019 2.21281 25.2919 3.30281 25.2919 3.30281C26.2319 1.32281 28.7219 2.61281 28.7219 2.61281C29.8119 0.0928129 32.6019 1.73281 32.6019 1.73281C33.3719 0.232813 35.8319 0.752813 36.3319 1.28281C36.8319 1.81281 36.3919 6.01281 36.3919 6.01281C36.3919 6.01281 37.4119 5.71281 37.9719 5.96281C38.5319 6.21281 40.1419 10.6828 40.1419 10.6828C40.1419 10.6828 40.2919 12.3628 39.5819 13.6328C38.8719 14.9028 34.4619 17.0328 32.2819 18.8728C30.1019 20.7128 29.4219 23.5828 29.4219 23.5828L26.7619 30.1328C22.9519 30.3428 22.5019 30.6028 18.5019 29.3628L18.5119 29.3528Z" fill="#F5AD90"/>
  <path d="M34.802 9.98285C34.802 9.98285 34.812 9.91285 34.842 9.89285C34.892 9.84285 34.972 9.84285 35.022 9.89285C35.982 10.8828 37.742 11.1528 37.762 11.1628C37.832 11.1728 37.882 11.2428 37.872 11.3128C37.862 11.3828 37.792 11.4328 37.722 11.4228C37.642 11.4128 35.852 11.1428 34.832 10.0828C34.802 10.0528 34.792 10.0228 34.792 9.98285H34.802Z" fill="#ED7163"/>
  <path d="M32.4717 1.72277C32.4717 1.65277 32.5317 1.60277 32.6017 1.59277C32.6717 1.59277 32.7317 1.65277 32.7317 1.72277L32.8417 6.99277C32.8417 7.06277 32.7817 7.12277 32.7117 7.12277C32.6417 7.12277 32.5817 7.06277 32.5817 6.99277L32.4717 1.72277Z" fill="#ED7163"/>
  <path d="M32.3223 10.7028C32.3223 10.6328 32.3823 10.5828 32.4523 10.5728C32.5223 10.5728 32.5823 10.6228 32.5823 10.7028C32.6023 11.4328 32.7923 12.6128 33.2123 12.7128C33.2523 12.7128 33.2923 12.7328 33.3323 12.7428C34.0223 12.9028 35.3123 13.2128 36.0723 10.7928C36.0923 10.7228 36.1623 10.6828 36.2323 10.7028C36.3023 10.7228 36.3423 10.7928 36.3223 10.8628C35.9723 11.9928 35.4423 12.7128 34.7623 12.9828C34.1823 13.2128 33.6323 13.0828 33.2723 12.9928C33.2323 12.9928 33.1923 12.9728 33.1623 12.9628C32.4023 12.7928 32.3323 10.9228 32.3223 10.7128V10.7028Z" fill="#ED7163"/>
  <path d="M28.6016 2.60278C28.6016 2.53278 28.6616 2.48278 28.7316 2.47278C28.8016 2.47278 28.8616 2.53278 28.8616 2.60278L29.1016 12.8028C29.2516 12.9428 29.9016 13.4628 31.2916 13.1928C32.0316 13.0528 32.5516 12.1028 32.5516 12.0928C32.5816 12.0328 32.6616 12.0028 32.7316 12.0428C32.7916 12.0728 32.8216 12.1528 32.7816 12.2228C32.7616 12.2628 32.2016 13.2928 31.3416 13.4628C29.6216 13.7928 28.9016 12.9928 28.8716 12.9628L28.8416 12.9228L28.6016 2.62278V2.60278Z" fill="#ED7163"/>
  <path d="M25.1721 3.30285C25.1721 3.23285 25.2321 3.18285 25.3021 3.17285C25.3721 3.17285 25.4321 3.23285 25.4321 3.30285L25.6621 12.8329C25.7321 12.9829 26.1721 13.8329 27.3321 13.7629C28.5721 13.6929 28.8321 12.8629 28.8421 12.8229C28.8621 12.7529 28.9321 12.7129 29.0021 12.7329C29.0721 12.7529 29.1121 12.8229 29.0921 12.8929C29.0821 12.9329 28.7721 13.9429 27.3421 14.0229C25.9121 14.1029 25.4121 12.9229 25.4021 12.9029V12.8829L25.1621 3.30285H25.1721Z" fill="#ED7163"/>
  <path d="M21.2717 6.50274C21.2717 6.44274 21.3117 6.39274 21.3717 6.38274C21.4417 6.36274 21.5117 6.41274 21.5317 6.48274C21.5317 6.52274 22.4217 10.2227 22.6317 11.4027C22.8317 12.5227 23.2817 13.0427 24.0517 13.0327C24.8217 13.0327 25.1917 12.9127 25.3517 12.2627C25.3717 12.1927 25.4417 12.1527 25.5117 12.1727C25.5817 12.1927 25.6217 12.2627 25.6017 12.3327C25.3717 13.2127 24.7617 13.2927 24.0417 13.2927C23.1317 13.2927 22.5817 12.6927 22.3617 11.4427C22.1517 10.2727 21.2717 6.57274 21.2617 6.54274C21.2617 6.53274 21.2617 6.52274 21.2617 6.51274L21.2717 6.50274Z" fill="#ED7163"/>
  <path d="M20.4319 8.77276C20.4319 8.77276 20.4419 8.71276 20.4719 8.68276C20.5219 8.63276 20.6019 8.63276 20.6519 8.68276C21.1819 9.21276 21.9319 9.09276 21.9419 9.09276C22.0119 9.08276 22.0819 9.13276 22.0919 9.20276C22.1019 9.27276 22.0519 9.34276 21.9819 9.35276C21.9419 9.35276 21.0919 9.49276 20.4619 8.87276C20.4319 8.84276 20.4219 8.81276 20.4219 8.77276H20.4319Z" fill="#ED7163"/>
  <g opacity="0.5">
    <path d="M32.3221 7.05285C32.3221 7.10285 32.6021 8.15285 32.3921 8.36285C32.1821 8.58285 29.4521 9.06285 29.1221 7.91285L29.4621 7.45285C29.4621 7.45285 31.3021 7.14285 31.3921 7.13285C31.4821 7.12285 32.3221 7.04285 32.3221 7.04285V7.05285Z" fill="#F6B49D"/>
  </g>
  <path d="M28.9117 7.95277C28.9117 7.84277 28.9417 7.73277 29.0217 7.62277C29.2717 7.27277 29.9917 7.08277 31.3417 7.00277C34.1617 6.84277 36.3217 5.89277 36.3417 5.88277H36.3617C36.3617 5.88277 37.4317 5.56277 38.0317 5.83277C38.3917 5.99277 39.0717 7.42277 40.0717 10.0828C40.2417 10.5228 40.3117 10.9828 40.2817 11.4528C40.2517 12.0628 40.1217 12.9428 39.7017 13.6928C39.2817 14.4428 37.6717 15.4528 35.9617 16.5228C34.6617 17.3328 33.3117 18.1828 32.3817 18.9728C30.2617 20.7628 29.5717 23.5828 29.5617 23.6128C29.5417 23.6828 29.4717 23.7228 29.4017 23.7128C29.3317 23.6928 29.2917 23.6228 29.3017 23.5528C29.3017 23.5228 30.0217 20.6228 32.2117 18.7728C33.1617 17.9728 34.5117 17.1228 35.8217 16.3028C37.5017 15.2528 39.0917 14.2628 39.4717 13.5728C39.8617 12.8728 39.9817 12.0328 40.0217 11.4528C40.0417 11.0228 39.9817 10.6028 39.8217 10.1928C38.7417 7.31277 38.1217 6.18277 37.9217 6.09277C37.4317 5.87277 36.5317 6.12277 36.4417 6.15277C36.2917 6.22277 34.1317 7.13277 31.3617 7.29277C30.1317 7.36277 29.4317 7.53277 29.2417 7.80277C29.1417 7.95277 29.1817 8.13277 29.2417 8.34277C29.2617 8.41277 29.2817 8.49277 29.2917 8.56277C29.3817 9.07277 30.5717 10.5628 32.3217 10.5928C34.0417 10.6228 36.3017 9.08277 36.3217 9.07277C36.3817 9.03277 36.4617 9.04277 36.5017 9.10277C36.5417 9.16277 36.5317 9.24277 36.4717 9.28277C36.3717 9.35277 34.1217 10.8828 32.3217 10.8528C30.4517 10.8228 29.1517 9.24277 29.0317 8.60277C29.0217 8.53277 29.0017 8.47277 28.9817 8.40277C28.9417 8.26277 28.9017 8.12277 28.9117 7.97277V7.95277Z" fill="#ED7163"/>
  <path d="M134.072 125.283L154.062 74.9928L167.692 81.3028C167.692 81.3028 161.802 148.633 146.802 154.133C135.422 158.303 125.262 151.073 134.072 125.273V125.283Z" fill="#F5AD90"/>
  <path d="M149.492 138.753L144.302 106.303L124.972 108.733L119.632 134.393C119.632 134.393 135.622 146.683 143.652 146.363C151.682 146.043 149.492 138.753 149.492 138.753Z" fill="#F5AD90"/>
  <path d="M163.962 66.8528L169.962 67.1228C171.012 66.8828 173.092 66.2528 175.552 65.6628C176.182 67.7128 176.712 69.2728 176.972 69.2328L177.052 69.6928C177.072 69.8128 177.142 69.9128 177.232 69.9728C177.622 72.1128 178.052 74.8528 178.562 77.1228C178.922 78.7328 179.332 78.4728 178.272 79.6528C177.652 80.3428 174.152 82.9628 172.722 83.2628L163.372 86.0528C162.842 83.2128 153.642 75.5628 154.022 75.0328L163.962 66.8628V66.8528Z" fill="#F5AD90"/>
  <path d="M150.472 41.9028C150.472 41.9028 139.242 46.3128 143.662 57.1128C147.782 67.1828 157.252 62.7028 159.682 61.5828C162.122 60.4528 150.472 41.9028 150.472 41.9028Z" fill="#EF8239"/>
  <path d="M162.492 62.9628C162.492 62.9628 167.192 71.4728 168.192 78.7128C169.122 85.4628 170.322 86.3428 172.722 85.5528C175.132 84.7628 180.742 81.8928 180.282 79.5128C179.832 77.1328 175.882 65.2828 170.222 59.7528C164.562 54.2228 162.482 62.9528 162.482 62.9528L162.492 62.9628Z" fill="black"/>
  <path d="M180.472 11.5128C180.472 11.5128 164.502 30.0828 159.272 35.7928L156.902 42.0728L163.212 57.2628L170.162 58.8628L202.022 57.7028L200.512 54.4528L191.372 40.4228L184.442 23.6328L181.092 13.0928L180.472 11.4928V11.5128Z" fill="#ED751A"/>
  <path d="M159.272 35.8028C159.272 35.8028 159.882 49.8028 170.172 58.8728C170.172 58.8728 170.842 59.7828 170.052 60.6328L164.652 63.4528C164.652 63.4528 162.212 65.0228 159.062 61.7228C155.912 58.4228 149.922 50.7628 150.032 40.7328C150.032 40.7328 150.002 38.0328 153.022 36.8228L157.012 35.0528C157.012 35.0528 158.802 34.3228 159.272 35.8028Z" fill="white"/>
  <path d="M180.472 11.5128C180.472 11.5128 184.612 6.63284 187.532 6.03284C190.452 5.43284 194.252 8.59284 196.882 11.3028C199.502 14.0028 207.352 25.1828 209.782 33.4028C212.212 41.6228 214.932 53.5128 211.192 55.8828C207.452 58.2528 202.032 57.7128 202.032 57.7128C202.032 57.7128 194.112 53.6028 186.132 36.9028C178.142 20.2028 180.482 11.5128 180.482 11.5128H180.472Z" fill="white"/>
  <path d="M208.422 57.0428C208.422 57.0428 211.672 49.8428 205.412 33.9628C195.552 8.95283 185.142 7.27283 185.142 7.27283C185.142 7.27283 179.382 14.2728 191.982 37.7228C202.362 57.0428 208.422 57.0528 208.422 57.0528V57.0428Z" fill="#D06614"/>
  <path d="M172.262 85.8028C171.492 85.9828 170.912 85.9228 170.432 85.6228C169.332 84.9328 168.652 82.9328 168.072 78.7228C167.282 72.9928 164.192 66.5128 162.872 63.9328C161.612 63.8528 160.352 63.1928 159.122 61.9628C155.082 63.7728 151.652 64.1328 148.902 63.0428C146.572 62.1128 144.772 60.1328 143.552 57.1528C141.882 53.0628 142.212 49.4128 144.552 46.3028C146.362 43.8928 148.862 42.5228 149.932 42.0128C149.912 41.5828 149.912 41.1528 149.912 40.7328C149.912 40.7028 149.912 37.9428 152.982 36.7128L156.972 34.9428C156.972 34.9428 157.942 34.5528 158.672 34.9028C158.962 35.0428 159.182 35.2728 159.322 35.5828C164.622 29.7828 180.232 11.6228 180.392 11.4428C180.562 11.2428 184.592 6.52279 187.522 5.92279C190.492 5.31279 194.302 8.46279 196.972 11.2228C199.632 13.9628 207.462 25.1228 209.902 33.3728C212.572 42.3928 214.972 53.6328 211.262 55.9928C207.602 58.3228 202.282 57.8628 202.032 57.8328L170.372 58.9828C170.472 59.1828 170.592 59.5128 170.542 59.9028C173.512 62.9228 175.902 67.5428 177.382 70.8928C179.072 74.7328 180.172 78.2328 180.412 79.4828C180.672 80.8528 179.052 82.2728 177.652 83.2228C175.992 84.3428 174.002 85.2528 172.772 85.6628C172.602 85.7228 172.432 85.7628 172.272 85.8028H172.262ZM159.182 61.6828L159.242 61.7428C160.472 62.9928 161.712 63.6528 162.962 63.7028H163.032L163.062 63.7628C164.372 66.3128 167.522 72.8828 168.312 78.6928C168.872 82.7728 169.552 84.7928 170.572 85.4228C171.092 85.7528 171.732 85.7528 172.702 85.4328C175.012 84.6828 180.622 81.8128 180.192 79.5228C179.952 78.2828 178.862 74.8028 177.182 70.9828C175.702 67.6328 173.322 63.0028 170.352 60.0128L170.312 59.9728V59.9128C170.422 59.3828 170.102 58.9428 170.102 58.9328L169.972 58.7528H170.192L202.062 57.5828C202.112 57.5828 207.492 58.1028 211.152 55.7728C212.772 54.7428 213.302 51.7328 212.712 46.8328C212.282 43.2328 211.262 38.7228 209.692 33.4128C207.262 25.1928 199.472 14.0928 196.822 11.3628C194.192 8.65279 190.442 5.53279 187.582 6.13279C187.552 6.13279 187.522 6.14279 187.492 6.15279C184.652 6.82279 180.622 11.5228 180.582 11.5728C180.422 11.7628 164.552 30.2128 159.382 35.8628L159.242 36.0128L159.182 35.8228C159.072 35.4728 158.872 35.2328 158.582 35.0928C157.942 34.7928 157.082 35.1328 157.072 35.1428L153.082 36.9128C150.172 38.0828 150.162 40.6128 150.162 40.7128C150.162 41.1528 150.162 41.6128 150.182 42.0628V42.1428L150.112 42.1728C148.372 42.9928 139.892 47.5428 143.782 57.0428C144.972 59.9628 146.732 61.8928 149.002 62.8028C151.702 63.8828 155.102 63.5028 159.112 61.6928L159.182 61.6628V61.6828Z" fill="#1D1D1B"/>
  <path d="M159.072 61.9028C154.352 57.1528 152.112 52.0128 151.072 48.5428C149.942 44.7828 149.932 42.1028 149.932 42.0728H150.162C150.162 42.0728 150.172 44.7528 151.292 48.4828C152.322 51.9228 154.542 57.0128 159.232 61.7328L159.062 61.9028H159.072Z" fill="#1D1D1B"/>
  <path d="M170.092 58.9628C167.622 56.6828 165.502 54.0428 163.812 51.1228C162.452 48.7828 161.362 46.2728 160.562 43.6328C159.202 39.1528 159.162 35.8428 159.162 35.8028H159.392C159.392 35.8028 159.432 39.1128 160.782 43.5728C162.032 47.6828 164.692 53.6528 170.242 58.7928L170.082 58.9628H170.092Z" fill="#1D1D1B"/>
  <path d="M163.852 63.7528C163.352 63.8728 163.012 63.9228 162.962 63.9328L162.922 63.7028C162.972 63.7028 168.322 62.8028 170.312 59.8728L170.502 60.0028C168.942 62.3028 165.482 63.3628 163.842 63.7528H163.852Z" fill="#1D1D1B"/>
  <path d="M208.362 57.1828C208.022 57.2628 206.912 57.3228 204.802 55.6128C202.512 53.7628 198.512 49.3428 192.472 38.8428C189.482 33.6528 187.232 28.7528 185.782 24.3028C184.622 20.7328 183.962 17.4428 183.832 14.5028C183.612 9.48276 184.982 7.29276 185.042 7.20276L185.242 7.33276C185.242 7.33276 183.842 9.57276 184.072 14.5228C184.282 19.1028 185.942 27.0228 192.672 38.7228C198.642 49.1028 202.602 53.5028 204.872 55.3628C207.322 57.3728 208.372 56.9328 208.382 56.9328L208.482 57.1428C208.482 57.1428 208.432 57.1628 208.372 57.1828H208.362Z" fill="#1D1D1B"/>
  <path d="M156.102 41.5128L153.942 44.5928L154.132 44.7228L156.292 41.6428L156.102 41.5128Z" fill="#1D1D1B"/>
  <path d="M154.612 40.1828L152.452 43.2628L152.642 43.3928L154.802 40.3128L154.612 40.1828Z" fill="#1D1D1B"/>
  <path d="M212.332 33.0428L210.182 36.1228L210.372 36.2528L212.522 33.1728L212.332 33.0428Z" fill="#1D1D1B"/>
  <path d="M210.852 31.7128L208.702 34.7928L208.892 34.9228L211.042 31.8428L210.852 31.7128Z" fill="#1D1D1B"/>
  <path d="M163.652 69.8828L170.102 70.3928L170.362 71.9628L170.732 73.3228L170.122 74.2928L165.822 74.5828L163.292 72.9728L163.652 69.8828Z" fill="#F5AD90"/>
  <path d="M162.442 75.2628C162.322 75.2128 162.232 75.0528 162.242 74.8728C162.242 74.6628 162.382 74.5028 162.532 74.5228L169.472 73.9628C170.122 74.0128 170.702 73.3928 170.772 72.5428C170.812 72.0828 170.722 71.6428 170.502 71.2928C170.292 70.9428 169.992 70.7328 169.652 70.7028L163.292 70.1928C163.142 70.1828 163.022 70.0028 163.032 69.7928C163.032 69.5828 163.172 69.4228 163.322 69.4328L169.682 69.9428C170.162 69.9828 170.612 70.2928 170.922 70.8028C171.232 71.3128 171.372 71.9628 171.312 72.6328C171.202 73.8828 170.372 74.7928 169.422 74.7228L162.482 75.2928C162.482 75.2928 162.442 75.2928 162.422 75.2828L162.442 75.2628Z" fill="#ED7163"/>
  <path d="M178.362 68.8928C178.822 70.0128 178.332 70.8728 178.152 70.9528L172.492 73.5128C171.802 73.8228 170.912 73.3728 170.472 72.4428C169.992 71.4228 170.222 70.2928 170.962 69.9628L176.592 67.4228C176.592 67.4228 177.902 67.7828 178.362 68.9028V68.8928Z" fill="#F5AD90"/>
  <path d="M179.732 72.0728C180.212 73.1828 180.042 74.2928 179.862 74.3828L173.832 77.3028C173.152 77.6328 172.252 77.2028 171.802 76.2828C171.302 75.2728 171.522 74.1328 172.252 73.7728L178.442 70.7828C178.442 70.7828 179.262 70.9728 179.742 72.0728H179.732Z" fill="#F5AD90"/>
  <path d="M178.762 71.0428C178.852 70.9628 178.882 70.7928 178.812 70.6228C178.732 70.4328 178.562 70.3328 178.432 70.4028L172.352 73.1828C171.782 73.4428 171.052 73.0628 170.702 72.3228C170.512 71.9228 170.452 71.4928 170.532 71.1028C170.612 70.7128 170.812 70.4328 171.102 70.3028L176.682 67.7828C176.812 67.7228 176.862 67.5228 176.782 67.3328C176.702 67.1428 176.532 67.0428 176.402 67.1028L170.822 69.6228C170.402 69.8128 170.092 70.2428 169.982 70.7928C169.872 71.3528 169.962 71.9828 170.232 72.5728C170.752 73.6628 171.802 74.2228 172.632 73.8428L178.712 71.0628C178.712 71.0628 178.742 71.0428 178.762 71.0328V71.0428Z" fill="#ED7163"/>
  <path d="M176.352 65.2028C176.852 66.3028 176.652 67.4228 176.472 67.5128L170.422 70.3628C169.752 70.6728 168.872 70.2828 168.412 69.3828C167.882 68.3528 168.102 67.1828 168.852 66.8328L174.502 64.1728C175.132 63.8728 176.072 64.5728 176.362 65.2128L176.352 65.2028Z" fill="#F5AD90"/>
  <path d="M176.642 67.7828C176.732 67.7028 176.762 67.5228 176.692 67.3628C176.612 67.1828 176.442 67.0828 176.312 67.1428L170.272 70.0328C169.702 70.3028 168.972 69.9328 168.622 69.1928C168.432 68.7928 168.362 68.3628 168.432 67.9728C168.502 67.5828 168.702 67.2928 168.992 67.1628L174.532 64.5528C174.662 64.4928 174.712 64.2928 174.632 64.1028C174.552 63.9228 174.382 63.8228 174.252 63.8828L168.712 66.4928C168.292 66.6928 167.992 67.1228 167.892 67.6828C167.782 68.2528 167.882 68.8828 168.162 69.4628C168.682 70.5428 169.742 71.0928 170.562 70.7028L176.602 67.8128C176.602 67.8128 176.632 67.7928 176.652 67.7828H176.642Z" fill="#ED7163"/>
  <path d="M179.782 74.5928C179.882 74.5128 179.902 74.3328 179.832 74.1628C179.752 73.9828 179.582 73.8828 179.442 73.9528L173.612 76.9128C173.042 77.1928 172.392 76.8728 172.032 76.1428C171.842 75.7528 171.772 75.3128 171.842 74.9328C171.912 74.5428 172.112 74.2528 172.402 74.1128L178.592 71.1228C178.722 71.0628 178.762 70.8528 178.682 70.6728C178.602 70.4928 178.432 70.3928 178.302 70.4528L172.112 73.4428C171.692 73.6428 171.402 74.0828 171.302 74.6428C171.202 75.2128 171.302 75.8428 171.582 76.4228C172.112 77.4928 173.092 77.9828 173.912 77.5928L179.742 74.6328C179.742 74.6328 179.772 74.6128 179.782 74.6028V74.5928Z" fill="#ED7163"/>
  <path d="M180.672 75.8528C181.122 76.8828 180.982 77.9228 180.812 78.0028L175.232 80.8128C174.602 81.1328 173.762 80.7428 173.332 79.8928C172.862 78.9528 173.052 77.8828 173.732 77.5428L179.452 74.6628C179.452 74.6628 180.212 74.8228 180.672 75.8528Z" fill="#F5AD90"/>
  <path d="M180.852 78.1028C180.952 78.0228 180.972 77.8428 180.902 77.6828C180.822 77.5028 180.652 77.4028 180.512 77.4728L174.932 80.2828C174.412 80.5428 173.752 80.2228 173.412 79.5528C173.232 79.1928 173.162 78.7928 173.222 78.4428C173.282 78.0828 173.462 77.8128 173.722 77.6828L179.442 74.8028C179.572 74.7428 179.612 74.5328 179.532 74.3528C179.452 74.1728 179.282 74.0728 179.142 74.1428L173.422 77.0228C173.032 77.2228 172.762 77.6328 172.672 78.1628C172.582 78.7028 172.672 79.2928 172.952 79.8328C173.462 80.8428 174.462 81.3328 175.222 80.9528L180.802 78.1428C180.802 78.1428 180.832 78.1228 180.842 78.1128L180.852 78.1028Z" fill="#ED7163"/>
  <path d="M115.422 21.2228C107.682 17.8628 98.4225 20.9528 98.4225 20.9528C98.4225 20.9528 94.8525 25.4628 94.4925 26.0028C94.1325 26.5328 98.1625 25.0128 98.1625 25.0128L121.842 37.4228L122.222 32.6628C122.612 27.7928 119.892 23.1728 115.412 21.2228H115.422Z" fill="#F39D75"/>
  <path d="M94.412 46.7628L94.132 53.0928C94.132 53.0928 89.632 75.4328 90.022 78.1728C90.402 80.9128 95.552 76.9628 102.722 77.5328C104.982 77.7128 107.012 77.4828 108.722 77.0828C112.222 76.2728 114.622 73.0328 114.472 69.4428L114.062 59.7828C120.412 59.3828 120.682 52.1828 120.682 52.1828L122.272 32.1028L97.172 22.3428L94.412 46.7528V46.7628Z" fill="#F5AD90"/>
  <path d="M98.4516 20.6428C98.4516 20.6428 90.8816 19.6728 88.4316 26.1628C85.9816 32.6528 88.9816 36.4228 88.8916 38.4128C88.8016 40.4028 86.4016 53.6428 95.8516 53.3928L100.132 31.5428L97.5616 22.5028L98.4416 20.6428H98.4516Z" fill="#32182B"/>
  <path d="M97.8024 35.1928C94.8324 34.9528 92.2324 37.1728 91.9924 40.1428C91.7524 43.1128 93.9724 45.7128 96.9424 45.9528C99.9124 46.1928 102.512 43.9728 102.752 41.0028C102.992 38.0328 100.772 35.4328 97.8024 35.1928Z" fill="#F5AD90"/>
  <path d="M99.9818 52.5428C99.9818 52.5428 99.4518 64.5828 114.362 66.9228L114.062 59.7928C114.062 59.7928 104.182 60.9728 99.9918 52.5428H99.9818Z" fill="#ED7163"/>
  <path d="M121.372 21.2628C121.372 21.2628 122.982 13.7328 115.902 15.4428C108.822 17.1528 96.0522 15.8428 91.9522 21.9528C87.8522 28.0628 100.112 31.8528 100.112 31.8528C100.112 31.8528 123.072 32.3128 124.902 27.0728C126.732 21.8328 121.372 21.2628 121.372 21.2628Z" fill="#32182B"/>
  <path d="M99.0818 27.7028C98.8318 27.8028 94.0418 29.7928 94.6618 29.7328C95.2818 29.6828 99.7918 30.3828 99.7918 30.3828L99.4018 35.3128C99.4018 35.3128 101.082 38.3628 100.162 42.0028C100.162 42.0028 101.522 42.6228 101.852 41.4928C102.182 40.3528 101.362 32.2228 104.272 30.9828C107.182 29.7428 99.3418 27.5928 99.0918 27.6928L99.0818 27.7028Z" fill="#32182B"/>
  <path d="M134.292 69.7328C142.672 71.3228 145.042 79.0028 145.402 110.923L137.802 112.903L133.422 199.053C133.422 199.053 89.3123 219.423 44.3423 196.343L57.4523 108.913C57.4523 108.913 40.6223 110.033 27.0723 110.723C27.0723 110.723 31.7023 85.1028 31.2423 71.1228C31.2423 71.1228 52.2123 68.2228 74.0223 67.1628C100.962 65.8428 131.762 69.2528 134.292 69.7328Z" fill="#ED751A"/>
  <path d="M134.492 187.063L133.492 187.013L137.302 112.883C138.092 97.4528 134.762 81.6228 134.732 81.4728L135.702 81.2628C135.732 81.4228 139.092 97.3728 138.292 112.933L134.482 187.063H134.492Z" fill="#D06614"/>
  <path d="M86.9521 66.9928C86.9521 66.9928 92.0721 76.5228 102.422 77.0428C112.772 77.5628 116.252 68.0128 116.252 68.0128C116.252 68.0128 101.322 65.8528 86.9521 66.9928Z" fill="#F5AD90"/>
  <path d="M115.542 43.0928C115.902 43.9928 116.272 44.9028 116.332 45.8728C116.392 46.8428 116.102 47.8828 115.342 48.4828" stroke="#1D1D1B" stroke-width="0.69" stroke-miterlimit="10" stroke-linecap="round"/>
  <path d="M108.132 49.0828C109.512 51.7228 112.402 53.5028 115.382 53.5428" stroke="#1D1D1B" stroke-width="0.69" stroke-miterlimit="10" stroke-linecap="round"/>
  <path d="M118.062 40.5828L118.132 43.1728" stroke="#1D1D1B" stroke-width="0.69" stroke-miterlimit="10" stroke-linecap="round"/>
  <path d="M111.512 41.2128L111.582 43.8028" stroke="#1D1D1B" stroke-width="0.69" stroke-miterlimit="10" stroke-linecap="round"/>
  <path d="M108.182 39.0928C109.132 37.9528 110.362 37.0328 111.732 36.4428" stroke="#1D1D1B" stroke-width="0.69" stroke-miterlimit="10" stroke-linecap="round"/>
  <path d="M118.372 35.2728C119.942 35.6828 121.312 36.8028 122.012 38.2728" stroke="#1D1D1B" stroke-width="0.69" stroke-miterlimit="10" stroke-linecap="round"/>
  <path d="M81.392 98.8428C81.572 98.6928 81.752 98.7228 81.982 98.8828L82.172 98.9828C82.362 99.0828 82.562 99.1328 82.772 99.1328C82.982 99.1328 83.132 99.1028 83.262 99.0328C83.382 98.9628 83.452 98.8628 83.452 98.7328C83.452 98.6028 83.402 98.5128 83.292 98.4328C83.182 98.3628 83.022 98.2828 82.802 98.2128C82.582 98.1428 82.392 98.0728 82.232 97.9828C82.072 97.9028 81.932 97.8028 81.822 97.7028C81.712 97.5928 81.632 97.4728 81.582 97.3428C81.532 97.2028 81.502 97.0528 81.512 96.8628C81.512 96.6028 81.582 96.3828 81.702 96.1828C81.822 95.9828 81.982 95.8228 82.172 95.6828C82.362 95.5528 82.592 95.4528 82.852 95.3828C83.112 95.3228 83.382 95.2928 83.662 95.3028C84.022 95.3128 84.362 95.3828 84.672 95.5128C84.982 95.6428 85.232 95.8328 85.412 96.0728L84.782 96.5728C84.602 96.7228 84.432 96.7228 84.242 96.6028L84.092 96.5128C83.942 96.4228 83.762 96.3828 83.552 96.3728C83.392 96.3728 83.242 96.3928 83.102 96.4528C82.962 96.5128 82.892 96.6128 82.892 96.7628C82.892 96.8728 82.932 96.9528 83.032 97.0128C83.132 97.0728 83.282 97.1328 83.482 97.2028C83.912 97.3328 84.252 97.5128 84.502 97.7228C84.752 97.9428 84.862 98.2428 84.852 98.6428C84.852 98.9228 84.772 99.1628 84.642 99.3728C84.512 99.5828 84.352 99.7428 84.152 99.8728C83.952 100.003 83.722 100.093 83.472 100.153C83.222 100.213 82.962 100.233 82.702 100.223C82.272 100.213 81.892 100.123 81.562 99.9728C81.232 99.8228 80.962 99.6128 80.752 99.3628L81.392 98.8128V98.8428Z" fill="#1D1D1B"/>
  <path d="M87.7019 100.373C87.3619 100.363 87.0519 100.303 86.7619 100.203C86.4719 100.103 86.2319 99.9528 86.0219 99.7728C85.8219 99.5928 85.6619 99.3728 85.5419 99.1128C85.4319 98.8528 85.3719 98.5728 85.3819 98.2528C85.3919 97.8628 85.4719 97.5028 85.6119 97.1528C85.7519 96.8028 85.9519 96.5028 86.2019 96.2528C86.4519 96.0028 86.7619 95.8028 87.1119 95.6528C87.4619 95.5028 87.8619 95.4428 88.3119 95.4528C88.6519 95.4628 88.9719 95.5228 89.2619 95.6228C89.5519 95.7228 89.8019 95.8728 90.0119 96.0528C90.2219 96.2328 90.3819 96.4528 90.4919 96.7128C90.6019 96.9728 90.6619 97.2528 90.6519 97.5728C90.6419 97.9628 90.5619 98.3328 90.4219 98.6828C90.2819 99.0328 90.0819 99.3328 89.8219 99.5828C89.5619 99.8328 89.2519 100.033 88.9019 100.173C88.5419 100.313 88.1419 100.383 87.6919 100.363L87.7019 100.373ZM89.1819 97.6928C89.1819 97.4128 89.1119 97.1728 88.9419 96.9828C88.7719 96.7928 88.5419 96.6928 88.2219 96.6828C88.0219 96.6828 87.8419 96.7128 87.6719 96.7828C87.5119 96.8628 87.3619 96.9628 87.2519 97.1028C87.1319 97.2328 87.0419 97.3928 86.9719 97.5728C86.9019 97.7528 86.8719 97.9428 86.8619 98.1428C86.8619 98.4228 86.9319 98.6628 87.0919 98.8428C87.2519 99.0328 87.4919 99.1328 87.8019 99.1428C88.0019 99.1428 88.1819 99.1128 88.3519 99.0428C88.5119 98.9728 88.6619 98.8628 88.7819 98.7328C88.9019 98.6028 88.9919 98.4428 89.0619 98.2628C89.1319 98.0828 89.1719 97.8928 89.1719 97.6928H89.1819Z" fill="#1D1D1B"/>
  <path d="M93.4818 100.753C93.3618 100.953 93.1518 101.283 93.0318 101.483C93.0318 101.483 92.9718 101.573 92.8318 101.763C92.6918 101.953 92.5418 102.113 92.3818 102.233C92.2218 102.363 92.0318 102.453 91.8218 102.513C91.6118 102.573 91.3718 102.603 91.1018 102.593C90.8118 102.593 90.5518 102.543 90.3418 102.463L90.5118 101.653C90.5618 101.423 90.7318 101.273 90.8818 101.323H91.0418C91.2618 101.333 91.4318 101.283 91.5618 101.183C91.6818 101.073 91.8118 100.923 91.9218 100.733C92.0518 100.523 92.1118 100.163 92.0618 99.9328L91.2918 96.0928C91.2418 95.8628 91.4018 95.6828 91.6318 95.6828L92.4118 95.7028C92.6518 95.7028 92.8618 95.9028 92.8918 96.1428L93.1618 98.3628C93.1918 98.5928 93.2218 98.7828 93.2218 98.7828C93.2218 98.7828 93.3218 98.6128 93.4318 98.4028L94.6618 96.1528C94.7718 95.9428 95.0618 95.7828 95.2918 95.7928L96.0318 95.8128C96.2718 95.8128 96.3618 95.9928 96.2318 96.1928L93.4618 100.733L93.4818 100.753Z" fill="#1D1D1B"/>
  <path d="M100.622 93.9728C100.672 93.7428 100.902 93.5628 101.132 93.5628L101.772 93.5828C102.012 93.5828 102.162 93.7828 102.112 94.0128L100.812 100.213C100.762 100.443 100.532 100.623 100.302 100.623L99.7822 100.603C99.5422 100.603 99.3822 100.443 99.4222 100.273C99.4622 100.103 99.4822 99.9528 99.4722 99.9528C99.4722 99.9528 99.3222 100.093 99.1622 100.263C99.1622 100.263 99.0622 100.363 98.7822 100.483C98.5022 100.603 98.1922 100.663 97.8522 100.653C97.5522 100.653 97.2822 100.583 97.0422 100.483C96.8022 100.373 96.6022 100.233 96.4422 100.053C96.2822 99.8728 96.1622 99.6528 96.0822 99.4128C96.0022 99.1628 95.9622 98.8928 95.9722 98.6028C95.9822 98.2028 96.0622 97.8328 96.2022 97.4828C96.3422 97.1328 96.5322 96.8328 96.7622 96.5828C97.0022 96.3228 97.2722 96.1328 97.5922 95.9828C97.9122 95.8428 98.2622 95.7728 98.6322 95.7828C98.9722 95.7928 99.2722 95.8728 99.5122 96.0028C99.7622 96.1428 99.9422 96.3228 100.062 96.5428C100.062 96.5428 100.122 96.3528 100.162 96.1228L100.602 93.9628L100.622 93.9728ZM97.4822 98.4528C97.4822 98.7328 97.5522 98.9728 97.7022 99.1628C97.8622 99.3528 98.0922 99.4528 98.4122 99.4628C98.6022 99.4628 98.7722 99.4328 98.9422 99.3628C99.1022 99.2928 99.2522 99.1828 99.3722 99.0528C99.4922 98.9228 99.5922 98.7628 99.6622 98.5828C99.7322 98.4028 99.7722 98.2128 99.7822 98.0128C99.7822 97.7228 99.7122 97.4828 99.5422 97.3028C99.3722 97.1128 99.1422 97.0128 98.8422 97.0028C98.6422 97.0028 98.4622 97.0328 98.2922 97.1028C98.1322 97.1728 97.9822 97.2728 97.8722 97.4128C97.7522 97.5428 97.6622 97.7028 97.5922 97.8728C97.5222 98.0528 97.4822 98.2428 97.4822 98.4528Z" fill="#1D1D1B"/>
  <path d="M103.732 98.8028C103.492 98.8028 103.302 98.8128 103.292 98.8428V98.8728C103.292 99.0028 103.312 99.1228 103.372 99.2228C103.432 99.3228 103.502 99.4128 103.602 99.4928C103.692 99.5628 103.802 99.6228 103.922 99.6628C104.042 99.7028 104.172 99.7228 104.302 99.7328C104.542 99.7328 104.752 99.7028 104.932 99.6228C105.112 99.5428 105.282 99.4228 105.432 99.2828L106.022 99.7728C106.202 99.9228 106.202 100.173 106.022 100.313C106.022 100.313 105.702 100.573 105.332 100.703C104.962 100.833 104.562 100.893 104.132 100.873C103.812 100.873 103.512 100.813 103.232 100.713C102.952 100.613 102.722 100.473 102.522 100.293C102.322 100.113 102.162 99.8828 102.052 99.6228C101.942 99.3528 101.892 99.0528 101.902 98.7228C101.912 98.3228 101.992 97.9528 102.142 97.6128C102.292 97.2728 102.492 96.9728 102.752 96.7228C103.002 96.4728 103.312 96.2828 103.652 96.1428C104.002 96.0028 104.382 95.9428 104.792 95.9528C105.102 95.9528 105.372 96.0128 105.622 96.1128C105.872 96.2128 106.082 96.3428 106.262 96.5128C106.442 96.6828 106.572 96.8928 106.662 97.1428C106.752 97.3928 106.792 97.6728 106.782 97.9928C106.782 98.1028 106.762 98.2428 106.732 98.4128C106.702 98.5828 106.672 98.7428 106.632 98.8928L103.722 98.8028H103.732ZM105.022 97.9228C105.262 97.9228 105.452 97.9128 105.462 97.8728V97.8428C105.462 97.8428 105.462 97.7828 105.462 97.7528C105.462 97.5428 105.402 97.3728 105.262 97.2328C105.122 97.0928 104.912 97.0128 104.632 97.0028C104.462 97.0028 104.312 97.0228 104.172 97.0828C104.032 97.1428 103.912 97.2128 103.812 97.2928C103.712 97.3728 103.622 97.4728 103.562 97.5728C103.492 97.6728 103.452 97.7828 103.422 97.8728L105.012 97.9228H105.022Z" fill="#1D1D1B"/>
  <path d="M107.432 100.843C107.192 100.843 107.042 100.643 107.092 100.413L108.382 94.2128C108.432 93.9828 108.662 93.8028 108.892 93.8028L109.562 93.8228C109.802 93.8228 109.952 94.0228 109.902 94.2528L108.602 100.453C108.552 100.683 108.322 100.863 108.092 100.863L107.432 100.843Z" fill="#1D1D1B"/>
  <path d="M109.972 100.923C109.732 100.923 109.582 100.723 109.632 100.493L110.412 96.6928C110.462 96.4628 110.692 96.2828 110.922 96.2828L111.572 96.3028C111.812 96.3028 111.962 96.5028 111.912 96.7328L111.112 100.533C111.062 100.763 110.832 100.943 110.592 100.943L109.962 100.923H109.972ZM112.372 94.7628C112.372 94.8828 112.342 95.0028 112.292 95.1028C112.242 95.2028 112.182 95.3028 112.102 95.3828C112.022 95.4628 111.932 95.5228 111.822 95.5728C111.712 95.6128 111.602 95.6328 111.472 95.6328C111.232 95.6328 111.042 95.5528 110.892 95.4028C110.742 95.2528 110.672 95.0728 110.682 94.8528C110.682 94.5928 110.782 94.3828 110.962 94.2228C111.142 94.0528 111.352 93.9728 111.602 93.9828C111.832 93.9828 112.022 94.0628 112.162 94.2128C112.312 94.3628 112.372 94.5428 112.372 94.7528V94.7628Z" fill="#1D1D1B"/>
  <path d="M114.932 100.703C114.802 100.903 114.512 101.063 114.272 101.053L113.502 101.033C113.262 101.033 113.042 100.833 113.012 100.593L112.422 96.7528C112.382 96.5228 112.552 96.3328 112.782 96.3428L113.512 96.3628C113.752 96.3628 113.962 96.5628 113.982 96.8028L114.192 99.0228C114.212 99.2528 114.242 99.4528 114.242 99.4528C114.242 99.4528 114.352 99.2828 114.472 99.0828L115.762 96.8128C115.882 96.6128 116.162 96.4428 116.402 96.4528L117.172 96.4728C117.412 96.4728 117.492 96.6528 117.372 96.8428L114.932 100.693V100.703Z" fill="#1D1D1B"/>
  <path d="M118.982 99.2628C118.742 99.2628 118.552 99.2728 118.542 99.3028V99.3328C118.542 99.4628 118.562 99.5828 118.622 99.6828C118.682 99.7828 118.752 99.8728 118.852 99.9528C118.942 100.023 119.052 100.083 119.172 100.123C119.292 100.163 119.422 100.183 119.552 100.193C119.792 100.193 120.002 100.163 120.182 100.083C120.362 100.003 120.532 99.8828 120.682 99.7428L121.272 100.233C121.452 100.383 121.452 100.633 121.272 100.773C121.272 100.773 120.952 101.033 120.582 101.163C120.212 101.293 119.812 101.353 119.382 101.333C119.062 101.333 118.762 101.273 118.482 101.173C118.202 101.073 117.972 100.933 117.772 100.753C117.572 100.573 117.412 100.343 117.302 100.083C117.192 99.8128 117.142 99.5128 117.152 99.1828C117.162 98.7828 117.242 98.4128 117.392 98.0728C117.542 97.7328 117.742 97.4328 118.002 97.1828C118.252 96.9328 118.562 96.7428 118.902 96.6028C119.252 96.4628 119.632 96.4028 120.042 96.4128C120.352 96.4128 120.622 96.4728 120.872 96.5728C121.122 96.6728 121.332 96.8028 121.512 96.9728C121.692 97.1428 121.822 97.3528 121.912 97.6028C122.002 97.8528 122.042 98.1328 122.032 98.4528C122.032 98.5628 122.012 98.7028 121.982 98.8728C121.952 99.0428 121.922 99.2028 121.882 99.3528L118.972 99.2628H118.982ZM120.282 98.3828C120.522 98.3828 120.712 98.3728 120.722 98.3328V98.3028C120.722 98.3028 120.722 98.2428 120.722 98.2128C120.722 98.0028 120.662 97.8328 120.522 97.6928C120.382 97.5528 120.172 97.4728 119.892 97.4628C119.722 97.4628 119.572 97.4828 119.432 97.5428C119.292 97.6028 119.172 97.6728 119.072 97.7528C118.972 97.8328 118.882 97.9328 118.822 98.0328C118.752 98.1328 118.712 98.2428 118.682 98.3328L120.272 98.3828H120.282Z" fill="#1D1D1B"/>
  <path d="M124.332 97.3728C124.332 97.3728 124.472 97.2228 124.622 97.0428C124.622 97.0428 124.692 96.9528 124.912 96.8128C125.122 96.6728 125.382 96.6028 125.672 96.6128C125.732 96.6128 125.782 96.6128 125.842 96.6228C125.902 96.6228 125.952 96.6428 125.982 96.6528L125.792 97.5528C125.742 97.7828 125.642 97.9528 125.572 97.9328H125.512C125.452 97.9128 125.392 97.9128 125.332 97.9128C125.112 97.9128 124.932 97.9428 124.772 98.0128C124.622 98.0828 124.492 98.1728 124.392 98.2728C124.292 98.3828 124.212 98.4928 124.162 98.6128C124.112 98.7328 124.072 98.8428 124.052 98.9328L123.642 100.893C123.592 101.123 123.362 101.303 123.132 101.303L122.492 101.283C122.252 101.283 122.102 101.083 122.152 100.853L122.752 98.0128C122.802 97.7828 122.872 97.4728 122.902 97.3228L122.932 97.1328C122.962 96.9428 122.992 96.7828 123.012 96.6328L124.012 96.6628C124.252 96.6628 124.432 96.7128 124.432 96.7528V96.8128C124.412 96.8728 124.402 96.9328 124.392 97.0028C124.382 97.0728 124.372 97.1328 124.362 97.2028C124.352 97.2728 124.342 97.3228 124.332 97.3628V97.3728Z" fill="#1D1D1B"/>
  <path d="M128.662 101.823C128.542 102.023 128.332 102.353 128.212 102.553C128.212 102.553 128.152 102.643 128.012 102.833C127.872 103.023 127.722 103.183 127.562 103.303C127.402 103.433 127.212 103.523 127.002 103.583C126.792 103.643 126.552 103.673 126.282 103.663C125.992 103.663 125.732 103.613 125.522 103.533L125.692 102.723C125.742 102.493 125.912 102.343 126.062 102.393H126.222C126.442 102.403 126.612 102.353 126.742 102.253C126.862 102.143 126.992 101.993 127.102 101.803C127.222 101.593 127.292 101.233 127.242 101.003L126.472 97.1628C126.422 96.9328 126.582 96.7528 126.812 96.7528L127.592 96.7728C127.832 96.7728 128.042 96.9728 128.072 97.2128L128.342 99.4328C128.372 99.6628 128.402 99.8528 128.402 99.8528C128.402 99.8528 128.502 99.6828 128.612 99.4728L129.842 97.2228C129.952 97.0128 130.242 96.8528 130.472 96.8628L131.212 96.8828C131.452 96.8828 131.542 97.0628 131.412 97.2628L128.642 101.803L128.662 101.823Z" fill="#1D1D1B"/>
  <path d="M130.772 100.653C131.122 100.663 131.392 100.963 131.382 101.303C131.372 101.643 131.082 101.933 130.732 101.913C130.382 101.893 130.102 101.613 130.112 101.263C130.122 100.913 130.422 100.633 130.772 100.643V100.653ZM130.732 101.823C131.022 101.823 131.262 101.603 131.272 101.303C131.282 101.003 131.052 100.763 130.762 100.753C130.472 100.743 130.222 100.973 130.212 101.263C130.202 101.553 130.432 101.803 130.732 101.813V101.823ZM131.042 101.183C131.042 101.293 130.982 101.363 130.892 101.373L131.012 101.583C131.012 101.583 131.022 101.623 130.992 101.623H130.942C130.942 101.623 130.912 101.623 130.902 101.593L130.792 101.373H130.592V101.583C130.592 101.603 130.592 101.603 130.562 101.603H130.512C130.512 101.603 130.482 101.603 130.482 101.573L130.502 100.973C130.502 100.973 130.502 100.943 130.542 100.943H130.832C130.972 100.953 131.062 101.033 131.052 101.173L131.042 101.183ZM130.812 101.293C130.892 101.293 130.942 101.253 130.942 101.173C130.942 101.093 130.892 101.053 130.812 101.053H130.592V101.293H130.812Z" fill="#1D1D1B"/>
  <path d="M74.062 91.4228C71.842 91.3628 70.002 92.9928 69.952 95.0628C69.862 98.5528 73.152 101.823 73.152 101.823C73.502 102.173 74.082 102.173 74.432 101.823C74.432 101.823 77.902 98.4528 77.982 95.2628C78.032 93.1928 76.272 91.4728 74.062 91.4128V91.4228ZM73.622 97.5928C73.622 97.6928 73.512 97.7528 73.422 97.7028L71.972 96.8028C71.842 96.7228 71.762 96.5728 71.762 96.4228L71.812 94.9028C71.812 94.8128 71.912 94.7628 71.992 94.8028L73.492 95.7528C73.602 95.8228 73.672 95.9528 73.672 96.0828L73.622 97.5828V97.5928ZM73.832 95.2428L72.222 94.2328C72.132 94.1728 72.132 94.0328 72.222 93.9828L73.892 93.0928C73.992 93.0428 74.112 93.0428 74.202 93.1028L75.802 94.0928C75.892 94.1528 75.892 94.2828 75.802 94.3428L74.152 95.2528C74.052 95.3128 73.922 95.3028 73.832 95.2528V95.2428ZM76.102 96.5528C76.102 96.7128 76.012 96.8528 75.872 96.9228L74.372 97.7328C74.282 97.7828 74.172 97.7128 74.182 97.6128L74.232 96.1128C74.232 95.9828 74.312 95.8628 74.432 95.7928L75.982 94.9328C76.062 94.8928 76.162 94.9528 76.152 95.0428L76.102 96.5628V96.5528Z" fill="#1D1D1B"/>
  <path d="M188.632 30.8428C189.752 33.3128 191.192 36.0928 193.052 39.2128C193.982 40.7728 194.872 42.1828 195.722 43.4528C197.942 41.9028 201.322 38.6228 198.082 33.6628C195.072 29.0728 190.882 29.9228 188.642 30.8528L188.632 30.8428Z" fill="white"/>
</svg>