<svg width="300" height="235" viewBox="0 0 300 235" fill="none" xmlns="http://www.w3.org/2000/svg">
<path d="M294 99.7463C267.213 178.746 228.186 216.746 147 216.746C65.8141 216.746 0 164.364 0 99.7463C0 35.129 46.5 -15.2538 134.5 4.24632C240 36.7462 323.5 12.7462 294 99.7463Z" fill="white"/>
<path d="M74.2525 82.1228C74.2525 82.1228 65.3825 106.293 70.0825 121.723C70.0825 121.723 80.7225 92.2428 74.2525 82.1228Z" fill="#E4556B"/>
<path d="M61.9119 26.5727C61.9119 26.5727 45.0819 83.8327 43.8519 102.733C42.6219 121.633 93.8619 117.063 93.6419 115.313C93.4219 113.553 90.0119 86.0727 90.0119 86.0727L68.4119 84.7327L72.8619 32.9927L61.9119 26.5627V26.5727Z" fill="#F5AD90"/>
<path d="M61.5119 40.3528C62.7019 37.1028 61.2419 30.4628 61.5219 29.7428C61.9119 28.7528 62.0319 23.7828 62.2019 20.7428C62.2919 19.2028 62.8219 17.8328 63.5119 16.7328C64.1819 15.6728 64.4419 14.6828 65.1519 14.2028C66.6019 13.2128 68.2919 14.3028 68.2919 14.3028C69.2319 12.3228 71.7219 13.6128 71.7219 13.6128C72.8119 11.0928 75.6019 12.7328 75.6019 12.7328C76.3719 11.2328 78.8319 11.7528 79.3319 12.2828C79.8319 12.8128 79.3919 17.0128 79.3919 17.0128C79.3919 17.0128 80.4119 16.7128 80.9719 16.9628C81.5319 17.2128 83.1419 21.6828 83.1419 21.6828C83.1419 21.6828 83.2919 23.3628 82.5819 24.6328C81.8719 25.9028 77.4619 28.0328 75.2819 29.8728C73.1019 31.7128 72.4219 34.5828 72.4219 34.5828L69.7619 41.1328C65.9519 41.3428 65.5019 41.6028 61.5019 40.3628L61.5119 40.3528Z" fill="#F5AD90"/>
<path d="M77.802 20.9828C77.802 20.9828 77.812 20.9128 77.842 20.8928C77.892 20.8428 77.972 20.8428 78.022 20.8928C78.982 21.8828 80.742 22.1528 80.762 22.1628C80.832 22.1728 80.882 22.2428 80.872 22.3128C80.862 22.3828 80.792 22.4328 80.722 22.4228C80.642 22.4128 78.852 22.1428 77.832 21.0828C77.802 21.0528 77.792 21.0228 77.792 20.9828H77.802Z" fill="#ED7163"/>
<path d="M75.4717 12.7228C75.4717 12.6528 75.5317 12.6028 75.6017 12.5928C75.6717 12.5928 75.7317 12.6528 75.7317 12.7228L75.8417 17.9928C75.8417 18.0628 75.7817 18.1228 75.7117 18.1228C75.6417 18.1228 75.5817 18.0628 75.5817 17.9928L75.4717 12.7228Z" fill="#ED7163"/>
<path d="M75.3223 21.7028C75.3223 21.6328 75.3823 21.5828 75.4523 21.5728C75.5223 21.5728 75.5823 21.6228 75.5823 21.7028C75.6023 22.4328 75.7923 23.6128 76.2123 23.7128C76.2523 23.7128 76.2923 23.7328 76.3323 23.7428C77.0223 23.9028 78.3123 24.2128 79.0723 21.7928C79.0923 21.7228 79.1623 21.6828 79.2323 21.7028C79.3023 21.7228 79.3423 21.7928 79.3223 21.8628C78.9723 22.9928 78.4423 23.7128 77.7623 23.9828C77.1823 24.2128 76.6323 24.0828 76.2723 23.9928C76.2323 23.9928 76.1923 23.9728 76.1623 23.9628C75.4023 23.7928 75.3323 21.9228 75.3223 21.7128V21.7028Z" fill="#ED7163"/>
<path d="M71.6016 13.6028C71.6016 13.5328 71.6616 13.4828 71.7316 13.4728C71.8016 13.4728 71.8616 13.5328 71.8616 13.6028L72.1016 23.8028C72.2516 23.9428 72.9016 24.4628 74.2916 24.1928C75.0316 24.0528 75.5516 23.1028 75.5516 23.0928C75.5816 23.0328 75.6616 23.0028 75.7316 23.0428C75.7916 23.0728 75.8216 23.1528 75.7816 23.2228C75.7616 23.2628 75.2016 24.2928 74.3416 24.4628C72.6216 24.7928 71.9016 23.9928 71.8716 23.9628L71.8416 23.9228L71.6016 13.6228V13.6028Z" fill="#ED7163"/>
<path d="M68.1721 14.3029C68.1721 14.2329 68.2321 14.1829 68.3021 14.1729C68.3721 14.1729 68.4321 14.2329 68.4321 14.3029L68.6621 23.8329C68.7321 23.9829 69.1721 24.8329 70.3321 24.7629C71.5721 24.6929 71.8321 23.8629 71.8421 23.8229C71.8621 23.7529 71.9321 23.7129 72.0021 23.7329C72.0721 23.7529 72.1121 23.8229 72.0921 23.8929C72.0821 23.9329 71.7721 24.9429 70.3421 25.0229C68.9121 25.1029 68.4121 23.9229 68.4021 23.9029V23.8829L68.1621 14.3029H68.1721Z" fill="#ED7163"/>
<path d="M64.2717 17.5027C64.2717 17.4427 64.3117 17.3927 64.3717 17.3827C64.4417 17.3627 64.5117 17.4127 64.5317 17.4827C64.5317 17.5227 65.4217 21.2227 65.6317 22.4027C65.8317 23.5227 66.2817 24.0427 67.0517 24.0327C67.8217 24.0327 68.1917 23.9127 68.3517 23.2627C68.3717 23.1927 68.4417 23.1527 68.5117 23.1727C68.5817 23.1927 68.6217 23.2627 68.6017 23.3327C68.3717 24.2127 67.7617 24.2927 67.0417 24.2927C66.1317 24.2927 65.5817 23.6927 65.3617 22.4427C65.1517 21.2727 64.2717 17.5727 64.2617 17.5427C64.2617 17.5327 64.2617 17.5227 64.2617 17.5127L64.2717 17.5027Z" fill="#ED7163"/>
<path d="M63.4319 19.7728C63.4319 19.7728 63.4419 19.7128 63.4719 19.6828C63.5219 19.6328 63.6019 19.6328 63.6519 19.6828C64.1819 20.2128 64.9319 20.0928 64.9419 20.0928C65.0119 20.0828 65.0819 20.1328 65.0919 20.2028C65.1019 20.2728 65.0519 20.3428 64.9819 20.3528C64.9419 20.3528 64.0919 20.4928 63.4619 19.8728C63.4319 19.8428 63.4219 19.8128 63.4219 19.7728H63.4319Z" fill="#ED7163"/>
<g opacity="0.5">
<path d="M75.3221 18.0528C75.3221 18.1028 75.6021 19.1528 75.3921 19.3628C75.1821 19.5828 72.4521 20.0628 72.1221 18.9128L72.4621 18.4528C72.4621 18.4528 74.3021 18.1428 74.3921 18.1328C74.4821 18.1228 75.3221 18.0428 75.3221 18.0428V18.0528Z" fill="#F6B49D"/>
</g>
<path d="M71.9117 18.9528C71.9117 18.8428 71.9417 18.7328 72.0217 18.6228C72.2717 18.2728 72.9917 18.0828 74.3417 18.0028C77.1617 17.8428 79.3217 16.8928 79.3417 16.8828H79.3617C79.3617 16.8828 80.4317 16.5628 81.0317 16.8328C81.3917 16.9928 82.0717 18.4228 83.0717 21.0828C83.2417 21.5228 83.3117 21.9828 83.2817 22.4528C83.2517 23.0628 83.1217 23.9428 82.7017 24.6928C82.2817 25.4428 80.6717 26.4528 78.9617 27.5228C77.6617 28.3328 76.3117 29.1828 75.3817 29.9728C73.2617 31.7628 72.5717 34.5828 72.5617 34.6128C72.5417 34.6828 72.4717 34.7228 72.4017 34.7128C72.3317 34.6928 72.2917 34.6228 72.3017 34.5528C72.3017 34.5228 73.0217 31.6228 75.2117 29.7728C76.1617 28.9728 77.5117 28.1228 78.8217 27.3028C80.5017 26.2528 82.0917 25.2628 82.4717 24.5728C82.8617 23.8728 82.9817 23.0328 83.0217 22.4528C83.0417 22.0228 82.9817 21.6028 82.8217 21.1928C81.7417 18.3128 81.1217 17.1828 80.9217 17.0928C80.4317 16.8728 79.5317 17.1228 79.4417 17.1528C79.2917 17.2228 77.1317 18.1328 74.3617 18.2928C73.1317 18.3628 72.4317 18.5328 72.2417 18.8028C72.1417 18.9528 72.1817 19.1328 72.2417 19.3428C72.2617 19.4128 72.2817 19.4928 72.2917 19.5628C72.3817 20.0728 73.5717 21.5628 75.3217 21.5928C77.0417 21.6228 79.3017 20.0828 79.3217 20.0728C79.3817 20.0328 79.4617 20.0428 79.5017 20.1028C79.5417 20.1628 79.5317 20.2428 79.4717 20.2828C79.3717 20.3528 77.1217 21.8828 75.3217 21.8528C73.4517 21.8228 72.1517 20.2428 72.0317 19.6028C72.0217 19.5328 72.0017 19.4728 71.9817 19.4028C71.9417 19.2628 71.9017 19.1228 71.9117 18.9728V18.9528Z" fill="#ED7163"/>
<path d="M177.072 136.283L197.062 85.9928L210.692 92.3028C210.692 92.3028 204.802 159.633 189.802 165.133C178.422 169.303 168.262 162.073 177.072 136.273V136.283Z" fill="#F5AD90"/>
<path d="M192.492 149.753L187.302 117.303L167.972 119.733L162.632 145.393C162.632 145.393 178.622 157.683 186.652 157.363C194.682 157.043 192.492 149.753 192.492 149.753Z" fill="#F5AD90"/>
<path d="M206.962 77.8528L212.962 78.1228C214.012 77.8828 216.092 77.2528 218.552 76.6628C219.182 78.7128 219.712 80.2728 219.972 80.2328L220.052 80.6928C220.072 80.8128 220.142 80.9128 220.232 80.9728C220.622 83.1128 221.052 85.8528 221.562 88.1228C221.922 89.7328 222.332 89.4728 221.272 90.6528C220.652 91.3428 217.152 93.9628 215.722 94.2628L206.372 97.0528C205.842 94.2128 196.642 86.5628 197.022 86.0328L206.962 77.8628V77.8528Z" fill="#F5AD90"/>
<path d="M193.472 52.9028C193.472 52.9028 182.242 57.3128 186.662 68.1128C190.782 78.1828 200.252 73.7028 202.682 72.5828C205.122 71.4528 193.472 52.9028 193.472 52.9028Z" fill="#EF8239"/>
<path d="M205.492 73.9628C205.492 73.9628 210.192 82.4728 211.192 89.7128C212.122 96.4628 213.322 97.3428 215.722 96.5528C218.132 95.7628 223.742 92.8928 223.282 90.5128C222.832 88.1328 218.882 76.2828 213.222 70.7528C207.562 65.2228 205.482 73.9528 205.482 73.9528L205.492 73.9628Z" fill="black"/>
<path d="M223.472 22.5128C223.472 22.5128 207.502 41.0828 202.272 46.7928L199.902 53.0728L206.212 68.2628L213.162 69.8628L245.022 68.7028L243.512 65.4528L234.372 51.4228L227.442 34.6328L224.092 24.0928L223.472 22.4928V22.5128Z" fill="#ED751A"/>
<path d="M202.272 46.8028C202.272 46.8028 202.882 60.8028 213.172 69.8728C213.172 69.8728 213.842 70.7828 213.052 71.6328L207.652 74.4528C207.652 74.4528 205.212 76.0228 202.062 72.7228C198.912 69.4228 192.922 61.7628 193.032 51.7328C193.032 51.7328 193.002 49.0328 196.022 47.8228L200.012 46.0528C200.012 46.0528 201.802 45.3228 202.272 46.8028Z" fill="white"/>
<path d="M223.472 22.5128C223.472 22.5128 227.612 17.6328 230.532 17.0328C233.452 16.4328 237.252 19.5928 239.882 22.3028C242.502 25.0028 250.352 36.1828 252.782 44.4028C255.212 52.6228 257.932 64.5128 254.192 66.8828C250.452 69.2528 245.032 68.7128 245.032 68.7128C245.032 68.7128 237.112 64.6028 229.132 47.9028C221.142 31.2028 223.482 22.5128 223.482 22.5128H223.472Z" fill="white"/>
<path d="M251.422 68.0428C251.422 68.0428 254.672 60.8428 248.412 44.9628C238.552 19.9528 228.142 18.2728 228.142 18.2728C228.142 18.2728 222.382 25.2728 234.982 48.7228C245.362 68.0428 251.422 68.0528 251.422 68.0528V68.0428Z" fill="#D06614"/>
<path d="M215.262 96.8028C214.492 96.9828 213.912 96.9228 213.432 96.6228C212.332 95.9328 211.652 93.9328 211.072 89.7228C210.282 83.9928 207.192 77.5128 205.872 74.9328C204.612 74.8528 203.352 74.1928 202.122 72.9628C198.082 74.7728 194.652 75.1328 191.902 74.0428C189.572 73.1128 187.772 71.1328 186.552 68.1528C184.882 64.0628 185.212 60.4128 187.552 57.3028C189.362 54.8928 191.862 53.5228 192.932 53.0128C192.912 52.5828 192.912 52.1528 192.912 51.7328C192.912 51.7028 192.912 48.9428 195.982 47.7128L199.972 45.9428C199.972 45.9428 200.942 45.5528 201.672 45.9028C201.962 46.0428 202.182 46.2728 202.322 46.5828C207.622 40.7828 223.232 22.6228 223.392 22.4428C223.562 22.2428 227.592 17.5228 230.522 16.9228C233.492 16.3128 237.302 19.4628 239.972 22.2228C242.632 24.9628 250.462 36.1228 252.902 44.3728C255.572 53.3928 257.972 64.6328 254.262 66.9928C250.602 69.3228 245.282 68.8628 245.032 68.8328L213.372 69.9828C213.472 70.1828 213.592 70.5128 213.542 70.9028C216.512 73.9228 218.902 78.5428 220.382 81.8928C222.072 85.7328 223.172 89.2328 223.412 90.4828C223.672 91.8528 222.052 93.2728 220.652 94.2228C218.992 95.3428 217.002 96.2528 215.772 96.6628C215.602 96.7228 215.432 96.7628 215.272 96.8028H215.262ZM202.182 72.6828L202.242 72.7428C203.472 73.9928 204.712 74.6528 205.962 74.7028H206.032L206.062 74.7628C207.372 77.3128 210.522 83.8828 211.312 89.6928C211.872 93.7728 212.552 95.7928 213.572 96.4228C214.092 96.7528 214.732 96.7528 215.702 96.4328C218.012 95.6828 223.622 92.8128 223.192 90.5228C222.952 89.2828 221.862 85.8028 220.182 81.9828C218.702 78.6328 216.322 74.0028 213.352 71.0128L213.312 70.9728V70.9128C213.422 70.3828 213.102 69.9428 213.102 69.9328L212.972 69.7528H213.192L245.062 68.5828C245.112 68.5828 250.492 69.1028 254.152 66.7728C255.772 65.7428 256.302 62.7328 255.712 57.8328C255.282 54.2328 254.262 49.7228 252.692 44.4128C250.262 36.1928 242.472 25.0928 239.822 22.3628C237.192 19.6528 233.442 16.5328 230.582 17.1328C230.552 17.1328 230.522 17.1428 230.492 17.1528C227.652 17.8228 223.622 22.5228 223.582 22.5728C223.422 22.7628 207.552 41.2128 202.382 46.8628L202.242 47.0128L202.182 46.8228C202.072 46.4728 201.872 46.2328 201.582 46.0928C200.942 45.7928 200.082 46.1328 200.072 46.1428L196.082 47.9128C193.172 49.0828 193.162 51.6128 193.162 51.7128C193.162 52.1528 193.162 52.6128 193.182 53.0628V53.1428L193.112 53.1728C191.372 53.9928 182.892 58.5428 186.782 68.0428C187.972 70.9628 189.732 72.8928 192.002 73.8028C194.702 74.8828 198.102 74.5028 202.112 72.6928L202.182 72.6628V72.6828Z" fill="#1D1D1B"/>
<path d="M202.072 72.9028C197.352 68.1528 195.112 63.0128 194.072 59.5428C192.942 55.7828 192.932 53.1028 192.932 53.0728H193.162C193.162 53.0728 193.172 55.7528 194.292 59.4828C195.322 62.9228 197.542 68.0128 202.232 72.7328L202.062 72.9028H202.072Z" fill="#1D1D1B"/>
<path d="M213.092 69.9628C210.622 67.6828 208.502 65.0428 206.812 62.1228C205.452 59.7828 204.362 57.2728 203.562 54.6328C202.202 50.1528 202.162 46.8428 202.162 46.8028H202.392C202.392 46.8028 202.432 50.1128 203.782 54.5728C205.032 58.6828 207.692 64.6528 213.242 69.7928L213.082 69.9628H213.092Z" fill="#1D1D1B"/>
<path d="M206.852 74.7528C206.352 74.8728 206.012 74.9228 205.962 74.9328L205.922 74.7028C205.972 74.7028 211.322 73.8028 213.312 70.8728L213.502 71.0028C211.942 73.3028 208.482 74.3628 206.842 74.7528H206.852Z" fill="#1D1D1B"/>
<path d="M251.362 68.1828C251.022 68.2628 249.912 68.3228 247.802 66.6128C245.512 64.7628 241.512 60.3428 235.472 49.8428C232.482 44.6528 230.232 39.7528 228.782 35.3028C227.622 31.7328 226.962 28.4428 226.832 25.5028C226.612 20.4828 227.982 18.2928 228.042 18.2028L228.242 18.3328C228.242 18.3328 226.842 20.5728 227.072 25.5228C227.282 30.1028 228.942 38.0228 235.672 49.7228C241.642 60.1028 245.602 64.5028 247.872 66.3628C250.322 68.3728 251.372 67.9328 251.382 67.9328L251.482 68.1428C251.482 68.1428 251.432 68.1628 251.372 68.1828H251.362Z" fill="#1D1D1B"/>
<path d="M199.102 52.5128L196.942 55.5928L197.132 55.7228L199.292 52.6428L199.102 52.5128Z" fill="#1D1D1B"/>
<path d="M197.612 51.1828L195.452 54.2628L195.642 54.3928L197.802 51.3128L197.612 51.1828Z" fill="#1D1D1B"/>
<path d="M255.332 44.0428L253.182 47.1228L253.372 47.2528L255.522 44.1728L255.332 44.0428Z" fill="#1D1D1B"/>
<path d="M253.852 42.7128L251.702 45.7928L251.892 45.9228L254.042 42.8428L253.852 42.7128Z" fill="#1D1D1B"/>
<path d="M206.652 80.8828L213.102 81.3928L213.362 82.9628L213.732 84.3228L213.122 85.2928L208.822 85.5828L206.292 83.9728L206.652 80.8828Z" fill="#F5AD90"/>
<path d="M205.442 86.2628C205.322 86.2128 205.232 86.0528 205.242 85.8728C205.242 85.6628 205.382 85.5028 205.532 85.5228L212.472 84.9628C213.122 85.0128 213.702 84.3928 213.772 83.5428C213.812 83.0828 213.722 82.6428 213.502 82.2928C213.292 81.9428 212.992 81.7328 212.652 81.7028L206.292 81.1928C206.142 81.1828 206.022 81.0028 206.032 80.7928C206.032 80.5828 206.172 80.4228 206.322 80.4328L212.682 80.9428C213.162 80.9828 213.612 81.2928 213.922 81.8028C214.232 82.3128 214.372 82.9628 214.312 83.6328C214.202 84.8828 213.372 85.7928 212.422 85.7228L205.482 86.2928C205.482 86.2928 205.442 86.2928 205.422 86.2828L205.442 86.2628Z" fill="#ED7163"/>
<path d="M221.362 79.8928C221.822 81.0128 221.332 81.8728 221.152 81.9528L215.492 84.5128C214.802 84.8228 213.912 84.3728 213.472 83.4428C212.992 82.4228 213.222 81.2928 213.962 80.9628L219.592 78.4228C219.592 78.4228 220.902 78.7828 221.362 79.9028V79.8928Z" fill="#F5AD90"/>
<path d="M222.732 83.0728C223.212 84.1828 223.042 85.2928 222.862 85.3828L216.832 88.3028C216.152 88.6328 215.252 88.2028 214.802 87.2828C214.302 86.2728 214.522 85.1328 215.252 84.7728L221.442 81.7828C221.442 81.7828 222.262 81.9728 222.742 83.0728H222.732Z" fill="#F5AD90"/>
<path d="M221.762 82.0428C221.852 81.9628 221.882 81.7928 221.812 81.6228C221.732 81.4328 221.562 81.3328 221.432 81.4028L215.352 84.1828C214.782 84.4428 214.052 84.0628 213.702 83.3228C213.512 82.9228 213.452 82.4928 213.532 82.1028C213.612 81.7128 213.812 81.4328 214.102 81.3028L219.682 78.7828C219.812 78.7228 219.862 78.5228 219.782 78.3328C219.702 78.1428 219.532 78.0428 219.402 78.1028L213.822 80.6228C213.402 80.8128 213.092 81.2428 212.982 81.7928C212.872 82.3528 212.962 82.9828 213.232 83.5728C213.752 84.6628 214.802 85.2228 215.632 84.8428L221.712 82.0628C221.712 82.0628 221.742 82.0428 221.762 82.0328V82.0428Z" fill="#ED7163"/>
<path d="M219.352 76.2028C219.852 77.3028 219.652 78.4228 219.472 78.5128L213.422 81.3628C212.752 81.6728 211.872 81.2828 211.412 80.3828C210.882 79.3528 211.102 78.1828 211.852 77.8328L217.502 75.1728C218.132 74.8728 219.072 75.5728 219.362 76.2128L219.352 76.2028Z" fill="#F5AD90"/>
<path d="M219.642 78.7828C219.732 78.7028 219.762 78.5228 219.692 78.3628C219.612 78.1828 219.442 78.0828 219.312 78.1428L213.272 81.0328C212.702 81.3028 211.972 80.9328 211.622 80.1928C211.432 79.7928 211.362 79.3628 211.432 78.9728C211.502 78.5828 211.702 78.2928 211.992 78.1628L217.532 75.5528C217.662 75.4928 217.712 75.2928 217.632 75.1028C217.552 74.9228 217.382 74.8228 217.252 74.8828L211.712 77.4928C211.292 77.6928 210.992 78.1228 210.892 78.6828C210.782 79.2528 210.882 79.8828 211.162 80.4628C211.682 81.5428 212.742 82.0928 213.562 81.7028L219.602 78.8128C219.602 78.8128 219.632 78.7928 219.652 78.7828H219.642Z" fill="#ED7163"/>
<path d="M222.782 85.5928C222.882 85.5128 222.902 85.3328 222.832 85.1628C222.752 84.9828 222.582 84.8828 222.442 84.9528L216.612 87.9128C216.042 88.1928 215.392 87.8728 215.032 87.1428C214.842 86.7528 214.772 86.3128 214.842 85.9328C214.912 85.5428 215.112 85.2528 215.402 85.1128L221.592 82.1228C221.722 82.0628 221.762 81.8528 221.682 81.6728C221.602 81.4928 221.432 81.3928 221.302 81.4528L215.112 84.4428C214.692 84.6428 214.402 85.0828 214.302 85.6428C214.202 86.2128 214.302 86.8428 214.582 87.4228C215.112 88.4928 216.092 88.9828 216.912 88.5928L222.742 85.6328C222.742 85.6328 222.772 85.6128 222.782 85.6028V85.5928Z" fill="#ED7163"/>
<path d="M223.672 86.8528C224.122 87.8828 223.982 88.9228 223.812 89.0028L218.232 91.8128C217.602 92.1328 216.762 91.7428 216.332 90.8928C215.862 89.9528 216.052 88.8828 216.732 88.5428L222.452 85.6628C222.452 85.6628 223.212 85.8228 223.672 86.8528Z" fill="#F5AD90"/>
<path d="M223.852 89.1028C223.952 89.0228 223.972 88.8428 223.902 88.6828C223.822 88.5028 223.652 88.4028 223.512 88.4728L217.932 91.2828C217.412 91.5428 216.752 91.2228 216.412 90.5528C216.232 90.1928 216.162 89.7928 216.222 89.4428C216.282 89.0828 216.462 88.8128 216.722 88.6828L222.442 85.8028C222.572 85.7428 222.612 85.5328 222.532 85.3528C222.452 85.1728 222.282 85.0728 222.142 85.1428L216.422 88.0228C216.032 88.2228 215.762 88.6328 215.672 89.1628C215.582 89.7028 215.672 90.2928 215.952 90.8328C216.462 91.8428 217.462 92.3328 218.222 91.9528L223.802 89.1428C223.802 89.1428 223.832 89.1228 223.842 89.1128L223.852 89.1028Z" fill="#ED7163"/>
<path d="M158.422 32.2228C150.682 28.8628 141.422 31.9528 141.422 31.9528C141.422 31.9528 137.852 36.4628 137.492 37.0028C137.132 37.5328 141.162 36.0128 141.162 36.0128L164.842 48.4228L165.222 43.6628C165.612 38.7928 162.892 34.1728 158.412 32.2228H158.422Z" fill="#F39D75"/>
<path d="M137.412 57.7628L137.132 64.0928C137.132 64.0928 132.632 86.4328 133.022 89.1728C133.402 91.9128 138.552 87.9628 145.722 88.5328C147.982 88.7128 150.012 88.4828 151.722 88.0828C155.222 87.2728 157.622 84.0328 157.472 80.4428L157.062 70.7828C163.412 70.3828 163.682 63.1828 163.682 63.1828L165.272 43.1028L140.172 33.3428L137.412 57.7528V57.7628Z" fill="#F5AD90"/>
<path d="M141.452 31.6428C141.452 31.6428 133.882 30.6728 131.432 37.1628C128.982 43.6528 131.982 47.4228 131.892 49.4128C131.802 51.4028 129.402 64.6428 138.852 64.3928L143.132 42.5428L140.562 33.5028L141.442 31.6428H141.452Z" fill="#32182B"/>
<path d="M140.802 46.1928C137.832 45.9528 135.232 48.1728 134.992 51.1428C134.752 54.1128 136.972 56.7128 139.942 56.9528C142.912 57.1928 145.512 54.9728 145.752 52.0028C145.992 49.0328 143.772 46.4328 140.802 46.1928Z" fill="#F5AD90"/>
<path d="M142.982 63.5428C142.982 63.5428 142.452 75.5828 157.362 77.9228L157.062 70.7928C157.062 70.7928 147.182 71.9728 142.992 63.5428H142.982Z" fill="#ED7163"/>
<path d="M164.372 32.2628C164.372 32.2628 165.982 24.7328 158.902 26.4428C151.822 28.1528 139.052 26.8428 134.952 32.9528C130.852 39.0628 143.112 42.8528 143.112 42.8528C143.112 42.8528 166.072 43.3128 167.902 38.0728C169.732 32.8328 164.372 32.2628 164.372 32.2628Z" fill="#32182B"/>
<path d="M142.082 38.7028C141.832 38.8028 137.042 40.7928 137.662 40.7328C138.282 40.6828 142.792 41.3828 142.792 41.3828L142.402 46.3128C142.402 46.3128 144.082 49.3628 143.162 53.0028C143.162 53.0028 144.522 53.6228 144.852 52.4928C145.182 51.3528 144.362 43.2228 147.272 41.9828C150.182 40.7428 142.342 38.5928 142.092 38.6928L142.082 38.7028Z" fill="#32182B"/>
<path d="M177.292 80.7328C185.672 82.3228 188.042 90.0028 188.402 121.923L180.802 123.903L176.422 210.053C176.422 210.053 132.312 230.423 87.3423 207.343L100.452 119.913C100.452 119.913 83.6223 121.033 70.0723 121.723C70.0723 121.723 74.7023 96.1028 74.2423 82.1228C74.2423 82.1228 95.2123 79.2228 117.022 78.1628C143.962 76.8428 174.762 80.2528 177.292 80.7328Z" fill="#ED751A"/>
<path d="M177.492 198.063L176.492 198.013L180.302 123.883C181.092 108.453 177.762 92.6228 177.732 92.4728L178.702 92.2628C178.732 92.4228 182.092 108.373 181.292 123.933L177.482 198.063H177.492Z" fill="#D06614"/>
<path d="M129.952 77.9928C129.952 77.9928 135.072 87.5228 145.422 88.0428C155.772 88.5628 159.252 79.0128 159.252 79.0128C159.252 79.0128 144.322 76.8528 129.952 77.9928Z" fill="#F5AD90"/>
<path d="M158.542 54.0928C158.902 54.9928 159.272 55.9028 159.332 56.8728C159.392 57.8428 159.102 58.8828 158.342 59.4828" stroke="#1D1D1B" stroke-width="0.69" stroke-miterlimit="10" stroke-linecap="round"/>
<path d="M151.132 60.0828C152.512 62.7228 155.402 64.5028 158.382 64.5428" stroke="#1D1D1B" stroke-width="0.69" stroke-miterlimit="10" stroke-linecap="round"/>
<path d="M161.062 51.5828L161.132 54.1728" stroke="#1D1D1B" stroke-width="0.69" stroke-miterlimit="10" stroke-linecap="round"/>
<path d="M154.512 52.2128L154.582 54.8028" stroke="#1D1D1B" stroke-width="0.69" stroke-miterlimit="10" stroke-linecap="round"/>
<path d="M151.182 50.0928C152.132 48.9528 153.362 48.0328 154.732 47.4428" stroke="#1D1D1B" stroke-width="0.69" stroke-miterlimit="10" stroke-linecap="round"/>
<path d="M161.372 46.2728C162.942 46.6828 164.312 47.8028 165.012 49.2728" stroke="#1D1D1B" stroke-width="0.69" stroke-miterlimit="10" stroke-linecap="round"/>
<path d="M124.392 109.843C124.572 109.693 124.752 109.723 124.982 109.883L125.172 109.983C125.362 110.083 125.562 110.133 125.772 110.133C125.982 110.133 126.132 110.103 126.262 110.033C126.382 109.963 126.452 109.863 126.452 109.733C126.452 109.603 126.402 109.513 126.292 109.433C126.182 109.363 126.022 109.283 125.802 109.213C125.582 109.143 125.392 109.073 125.232 108.983C125.072 108.903 124.932 108.803 124.822 108.703C124.712 108.593 124.632 108.473 124.582 108.343C124.532 108.203 124.502 108.053 124.512 107.863C124.512 107.603 124.582 107.383 124.702 107.183C124.822 106.983 124.982 106.823 125.172 106.683C125.362 106.553 125.592 106.453 125.852 106.383C126.112 106.323 126.382 106.293 126.662 106.303C127.022 106.313 127.362 106.383 127.672 106.513C127.982 106.643 128.232 106.833 128.412 107.073L127.782 107.573C127.602 107.723 127.432 107.723 127.242 107.603L127.092 107.513C126.942 107.423 126.762 107.383 126.552 107.373C126.392 107.373 126.242 107.393 126.102 107.453C125.962 107.513 125.892 107.613 125.892 107.763C125.892 107.873 125.932 107.953 126.032 108.013C126.132 108.073 126.282 108.133 126.482 108.203C126.912 108.333 127.252 108.513 127.502 108.723C127.752 108.943 127.862 109.243 127.852 109.643C127.852 109.923 127.772 110.163 127.642 110.373C127.512 110.583 127.352 110.743 127.152 110.873C126.952 111.003 126.722 111.093 126.472 111.153C126.222 111.213 125.962 111.233 125.702 111.223C125.272 111.213 124.892 111.123 124.562 110.973C124.232 110.823 123.962 110.613 123.752 110.363L124.392 109.813V109.843Z" fill="#1D1D1B"/>
<path d="M130.702 111.373C130.362 111.363 130.052 111.303 129.762 111.203C129.472 111.103 129.232 110.953 129.022 110.773C128.822 110.593 128.662 110.373 128.542 110.113C128.432 109.853 128.372 109.573 128.382 109.253C128.392 108.863 128.472 108.503 128.612 108.153C128.752 107.803 128.952 107.503 129.202 107.253C129.452 107.003 129.762 106.803 130.112 106.653C130.462 106.503 130.862 106.443 131.312 106.453C131.652 106.463 131.972 106.523 132.262 106.623C132.552 106.723 132.802 106.873 133.012 107.053C133.222 107.233 133.382 107.453 133.492 107.713C133.602 107.973 133.662 108.253 133.652 108.573C133.642 108.963 133.562 109.333 133.422 109.683C133.282 110.033 133.082 110.333 132.822 110.583C132.562 110.833 132.252 111.033 131.902 111.173C131.542 111.313 131.142 111.383 130.692 111.363L130.702 111.373ZM132.182 108.693C132.182 108.413 132.112 108.173 131.942 107.983C131.772 107.793 131.542 107.693 131.222 107.683C131.022 107.683 130.842 107.713 130.672 107.783C130.512 107.863 130.362 107.963 130.252 108.103C130.132 108.233 130.042 108.393 129.972 108.573C129.902 108.753 129.872 108.943 129.862 109.143C129.862 109.423 129.932 109.663 130.092 109.843C130.252 110.033 130.492 110.133 130.802 110.143C131.002 110.143 131.182 110.113 131.352 110.043C131.512 109.973 131.662 109.863 131.782 109.733C131.902 109.603 131.992 109.443 132.062 109.263C132.132 109.083 132.172 108.893 132.172 108.693H132.182Z" fill="#1D1D1B"/>
<path d="M136.482 111.753C136.362 111.953 136.152 112.283 136.032 112.483C136.032 112.483 135.972 112.573 135.832 112.763C135.692 112.953 135.542 113.113 135.382 113.233C135.222 113.363 135.032 113.453 134.822 113.513C134.612 113.573 134.372 113.603 134.102 113.593C133.812 113.593 133.552 113.543 133.342 113.463L133.512 112.653C133.562 112.423 133.732 112.273 133.882 112.323H134.042C134.262 112.333 134.432 112.283 134.562 112.183C134.682 112.073 134.812 111.923 134.922 111.733C135.052 111.523 135.112 111.163 135.062 110.933L134.292 107.093C134.242 106.863 134.402 106.683 134.632 106.683L135.412 106.703C135.652 106.703 135.862 106.903 135.892 107.143L136.162 109.363C136.192 109.593 136.222 109.783 136.222 109.783C136.222 109.783 136.322 109.613 136.432 109.403L137.662 107.153C137.772 106.943 138.062 106.783 138.292 106.793L139.032 106.813C139.272 106.813 139.362 106.993 139.232 107.193L136.462 111.733L136.482 111.753Z" fill="#1D1D1B"/>
<path d="M143.622 104.973C143.672 104.743 143.902 104.563 144.132 104.563L144.772 104.583C145.012 104.583 145.162 104.783 145.112 105.013L143.812 111.213C143.762 111.443 143.532 111.623 143.302 111.623L142.782 111.603C142.542 111.603 142.382 111.443 142.422 111.273C142.462 111.103 142.482 110.953 142.472 110.953C142.472 110.953 142.322 111.093 142.162 111.263C142.162 111.263 142.062 111.363 141.782 111.483C141.502 111.603 141.192 111.663 140.852 111.653C140.552 111.653 140.282 111.583 140.042 111.483C139.802 111.373 139.602 111.233 139.442 111.053C139.282 110.873 139.162 110.653 139.082 110.413C139.002 110.163 138.962 109.893 138.972 109.603C138.982 109.203 139.062 108.833 139.202 108.483C139.342 108.133 139.532 107.833 139.762 107.583C140.002 107.323 140.272 107.133 140.592 106.983C140.912 106.843 141.262 106.773 141.632 106.783C141.972 106.793 142.272 106.873 142.512 107.003C142.762 107.143 142.942 107.323 143.062 107.543C143.062 107.543 143.122 107.353 143.162 107.123L143.602 104.963L143.622 104.973ZM140.482 109.453C140.482 109.733 140.552 109.973 140.702 110.163C140.862 110.353 141.092 110.453 141.412 110.463C141.602 110.463 141.772 110.433 141.942 110.363C142.102 110.293 142.252 110.183 142.372 110.053C142.492 109.923 142.592 109.763 142.662 109.583C142.732 109.403 142.772 109.213 142.782 109.013C142.782 108.723 142.712 108.483 142.542 108.303C142.372 108.113 142.142 108.013 141.842 108.003C141.642 108.003 141.462 108.033 141.292 108.103C141.132 108.173 140.982 108.273 140.872 108.413C140.752 108.543 140.662 108.703 140.592 108.873C140.522 109.053 140.482 109.243 140.482 109.453Z" fill="#1D1D1B"/>
<path d="M146.732 109.803C146.492 109.803 146.302 109.813 146.292 109.843V109.873C146.292 110.003 146.312 110.123 146.372 110.223C146.432 110.323 146.502 110.413 146.602 110.493C146.692 110.563 146.802 110.623 146.922 110.663C147.042 110.703 147.172 110.723 147.302 110.733C147.542 110.733 147.752 110.703 147.932 110.623C148.112 110.543 148.282 110.423 148.432 110.283L149.022 110.773C149.202 110.923 149.202 111.173 149.022 111.313C149.022 111.313 148.702 111.573 148.332 111.703C147.962 111.833 147.562 111.893 147.132 111.873C146.812 111.873 146.512 111.813 146.232 111.713C145.952 111.613 145.722 111.473 145.522 111.293C145.322 111.113 145.162 110.883 145.052 110.623C144.942 110.353 144.892 110.053 144.902 109.723C144.912 109.323 144.992 108.953 145.142 108.613C145.292 108.273 145.492 107.973 145.752 107.723C146.002 107.473 146.312 107.283 146.652 107.143C147.002 107.003 147.382 106.943 147.792 106.953C148.102 106.953 148.372 107.013 148.622 107.113C148.872 107.213 149.082 107.343 149.262 107.513C149.442 107.683 149.572 107.893 149.662 108.143C149.752 108.393 149.792 108.673 149.782 108.993C149.782 109.103 149.762 109.243 149.732 109.413C149.702 109.583 149.672 109.743 149.632 109.893L146.722 109.803H146.732ZM148.022 108.923C148.262 108.923 148.452 108.913 148.462 108.873V108.843C148.462 108.843 148.462 108.783 148.462 108.753C148.462 108.543 148.402 108.373 148.262 108.233C148.122 108.093 147.912 108.013 147.632 108.003C147.462 108.003 147.312 108.023 147.172 108.083C147.032 108.143 146.912 108.213 146.812 108.293C146.712 108.373 146.622 108.473 146.562 108.573C146.492 108.673 146.452 108.783 146.422 108.873L148.012 108.923H148.022Z" fill="#1D1D1B"/>
<path d="M150.432 111.843C150.192 111.843 150.042 111.643 150.092 111.413L151.382 105.213C151.432 104.983 151.662 104.803 151.892 104.803L152.562 104.823C152.802 104.823 152.952 105.023 152.902 105.253L151.602 111.453C151.552 111.683 151.322 111.863 151.092 111.863L150.432 111.843Z" fill="#1D1D1B"/>
<path d="M152.972 111.923C152.732 111.923 152.582 111.723 152.632 111.493L153.412 107.693C153.462 107.463 153.692 107.283 153.922 107.283L154.572 107.303C154.812 107.303 154.962 107.503 154.912 107.733L154.112 111.533C154.062 111.763 153.832 111.943 153.592 111.943L152.962 111.923H152.972ZM155.372 105.763C155.372 105.883 155.342 106.003 155.292 106.103C155.242 106.203 155.182 106.303 155.102 106.383C155.022 106.463 154.932 106.523 154.822 106.573C154.712 106.613 154.602 106.633 154.472 106.633C154.232 106.633 154.042 106.553 153.892 106.403C153.742 106.253 153.672 106.073 153.682 105.853C153.682 105.593 153.782 105.383 153.962 105.223C154.142 105.053 154.352 104.973 154.602 104.983C154.832 104.983 155.022 105.063 155.162 105.213C155.312 105.363 155.372 105.543 155.372 105.753V105.763Z" fill="#1D1D1B"/>
<path d="M157.932 111.703C157.802 111.903 157.512 112.063 157.272 112.053L156.502 112.033C156.262 112.033 156.042 111.833 156.012 111.593L155.422 107.753C155.382 107.523 155.552 107.333 155.782 107.343L156.512 107.363C156.752 107.363 156.962 107.563 156.982 107.803L157.192 110.023C157.212 110.253 157.242 110.453 157.242 110.453C157.242 110.453 157.352 110.283 157.472 110.083L158.762 107.813C158.882 107.613 159.162 107.443 159.402 107.453L160.172 107.473C160.412 107.473 160.492 107.653 160.372 107.843L157.932 111.693V111.703Z" fill="#1D1D1B"/>
<path d="M161.982 110.263C161.742 110.263 161.552 110.273 161.542 110.303V110.333C161.542 110.463 161.562 110.583 161.622 110.683C161.682 110.783 161.752 110.873 161.852 110.953C161.942 111.023 162.052 111.083 162.172 111.123C162.292 111.163 162.422 111.183 162.552 111.193C162.792 111.193 163.002 111.163 163.182 111.083C163.362 111.003 163.532 110.883 163.682 110.743L164.272 111.233C164.452 111.383 164.452 111.633 164.272 111.773C164.272 111.773 163.952 112.033 163.582 112.163C163.212 112.293 162.812 112.353 162.382 112.333C162.062 112.333 161.762 112.273 161.482 112.173C161.202 112.073 160.972 111.933 160.772 111.753C160.572 111.573 160.412 111.343 160.302 111.083C160.192 110.813 160.142 110.513 160.152 110.183C160.162 109.783 160.242 109.413 160.392 109.073C160.542 108.733 160.742 108.433 161.002 108.183C161.252 107.933 161.562 107.743 161.902 107.603C162.252 107.463 162.632 107.403 163.042 107.413C163.352 107.413 163.622 107.473 163.872 107.573C164.122 107.673 164.332 107.803 164.512 107.973C164.692 108.143 164.822 108.353 164.912 108.603C165.002 108.853 165.042 109.133 165.032 109.453C165.032 109.563 165.012 109.703 164.982 109.873C164.952 110.043 164.922 110.203 164.882 110.353L161.972 110.263H161.982ZM163.282 109.383C163.522 109.383 163.712 109.373 163.722 109.333V109.303C163.722 109.303 163.722 109.243 163.722 109.213C163.722 109.003 163.662 108.833 163.522 108.693C163.382 108.553 163.172 108.473 162.892 108.463C162.722 108.463 162.572 108.483 162.432 108.543C162.292 108.603 162.172 108.673 162.072 108.753C161.972 108.833 161.882 108.933 161.822 109.033C161.752 109.133 161.712 109.243 161.682 109.333L163.272 109.383H163.282Z" fill="#1D1D1B"/>
<path d="M167.332 108.373C167.332 108.373 167.472 108.223 167.622 108.043C167.622 108.043 167.692 107.953 167.912 107.813C168.122 107.673 168.382 107.603 168.672 107.613C168.732 107.613 168.782 107.613 168.842 107.623C168.902 107.623 168.952 107.643 168.982 107.653L168.792 108.553C168.742 108.783 168.642 108.953 168.572 108.933H168.512C168.452 108.913 168.392 108.913 168.332 108.913C168.112 108.913 167.932 108.943 167.772 109.013C167.622 109.083 167.492 109.173 167.392 109.273C167.292 109.383 167.212 109.493 167.162 109.613C167.112 109.733 167.072 109.843 167.052 109.933L166.642 111.893C166.592 112.123 166.362 112.303 166.132 112.303L165.492 112.283C165.252 112.283 165.102 112.083 165.152 111.853L165.752 109.013C165.802 108.783 165.872 108.473 165.902 108.323L165.932 108.133C165.962 107.943 165.992 107.783 166.012 107.633L167.012 107.663C167.252 107.663 167.432 107.713 167.432 107.753V107.813C167.412 107.873 167.402 107.933 167.392 108.003C167.382 108.073 167.372 108.133 167.362 108.203C167.352 108.273 167.342 108.323 167.332 108.363V108.373Z" fill="#1D1D1B"/>
<path d="M171.662 112.823C171.542 113.023 171.332 113.353 171.212 113.553C171.212 113.553 171.152 113.643 171.012 113.833C170.872 114.023 170.722 114.183 170.562 114.303C170.402 114.433 170.212 114.523 170.002 114.583C169.792 114.643 169.552 114.673 169.282 114.663C168.992 114.663 168.732 114.613 168.522 114.533L168.692 113.723C168.742 113.493 168.912 113.343 169.062 113.393H169.222C169.442 113.403 169.612 113.353 169.742 113.253C169.862 113.143 169.992 112.993 170.102 112.803C170.222 112.593 170.292 112.233 170.242 112.003L169.472 108.163C169.422 107.933 169.582 107.753 169.812 107.753L170.592 107.773C170.832 107.773 171.042 107.973 171.072 108.213L171.342 110.433C171.372 110.663 171.402 110.853 171.402 110.853C171.402 110.853 171.502 110.683 171.612 110.473L172.842 108.223C172.952 108.013 173.242 107.853 173.472 107.863L174.212 107.883C174.452 107.883 174.542 108.063 174.412 108.263L171.642 112.803L171.662 112.823Z" fill="#1D1D1B"/>
<path d="M173.772 111.653C174.122 111.663 174.392 111.963 174.382 112.303C174.372 112.643 174.082 112.933 173.732 112.913C173.382 112.893 173.102 112.613 173.112 112.263C173.122 111.913 173.422 111.633 173.772 111.643V111.653ZM173.732 112.823C174.022 112.823 174.262 112.603 174.272 112.303C174.282 112.003 174.052 111.763 173.762 111.753C173.472 111.743 173.222 111.973 173.212 112.263C173.202 112.553 173.432 112.803 173.732 112.813V112.823ZM174.042 112.183C174.042 112.293 173.982 112.363 173.892 112.373L174.012 112.583C174.012 112.583 174.022 112.623 173.992 112.623H173.942C173.942 112.623 173.912 112.623 173.902 112.593L173.792 112.373H173.592V112.583C173.592 112.603 173.592 112.603 173.562 112.603H173.512C173.512 112.603 173.482 112.603 173.482 112.573L173.502 111.973C173.502 111.973 173.502 111.943 173.542 111.943H173.832C173.972 111.953 174.062 112.033 174.052 112.173L174.042 112.183ZM173.812 112.293C173.892 112.293 173.942 112.253 173.942 112.173C173.942 112.093 173.892 112.053 173.812 112.053H173.592V112.293H173.812Z" fill="#1D1D1B"/>
<path d="M117.062 102.423C114.842 102.363 113.002 103.993 112.952 106.063C112.862 109.553 116.152 112.823 116.152 112.823C116.502 113.173 117.082 113.173 117.432 112.823C117.432 112.823 120.902 109.453 120.982 106.263C121.032 104.193 119.272 102.473 117.062 102.413V102.423ZM116.622 108.593C116.622 108.693 116.512 108.753 116.422 108.703L114.972 107.803C114.842 107.723 114.762 107.573 114.762 107.423L114.812 105.903C114.812 105.813 114.912 105.763 114.992 105.803L116.492 106.753C116.602 106.823 116.672 106.953 116.672 107.083L116.622 108.583V108.593ZM116.832 106.243L115.222 105.233C115.132 105.173 115.132 105.033 115.222 104.983L116.892 104.093C116.992 104.043 117.112 104.043 117.202 104.103L118.802 105.093C118.892 105.153 118.892 105.283 118.802 105.343L117.152 106.253C117.052 106.313 116.922 106.303 116.832 106.253V106.243ZM119.102 107.553C119.102 107.713 119.012 107.853 118.872 107.923L117.372 108.733C117.282 108.783 117.172 108.713 117.182 108.613L117.232 107.113C117.232 106.983 117.312 106.863 117.432 106.793L118.982 105.933C119.062 105.893 119.162 105.953 119.152 106.043L119.102 107.563V107.553Z" fill="#1D1D1B"/>
<path d="M231.632 41.8428C232.752 44.3128 234.192 47.0928 236.052 50.2128C236.982 51.7728 237.872 53.1828 238.722 54.4528C240.942 52.9028 244.322 49.6228 241.082 44.6628C238.072 40.0728 233.882 40.9228 231.642 41.8528L231.632 41.8428Z" fill="white"/>
</svg>
