<svg width="102" height="73" viewBox="0 0 102 73" fill="none" xmlns="http://www.w3.org/2000/svg">
<g id="Frame" clip-path="url(#clip0_405_13070)">
<g id="Group">
<g id="Layer_1">
<path id="Vector" d="M89.96 28.07C86.17 18.21 80.09 18.21 80.09 18.21H65.73V45.12H95.28C95.28 45.12 93.76 37.95 89.96 28.07Z" fill="white"/>
<path id="Vector_2" d="M65.7299 0.27002H0.649902V60.36H65.7299V0.27002Z" fill="#FF7500"/>
<path id="Vector_3" d="M89.96 28.07C86.17 18.21 80.09 18.21 80.09 18.21H65.73V45.12H95.28C95.28 45.12 93.76 37.95 89.96 28.07ZM70.38 39.73V23.59H80.54C80.2 23.63 82.8 24.56 85.07 30.47C86.38 33.86 87.45 36.99 88.34 39.73H70.37H70.38Z" fill="#403036"/>
<path id="Vector_4" d="M101.35 53.19C101.35 57.15 98.6297 60.37 95.2697 60.37H71.7997C68.4397 60.37 65.7197 57.16 65.7197 53.19V46.91C65.7197 42.94 68.4397 39.73 71.7997 39.73H95.2697C98.6297 39.73 101.35 42.94 101.35 46.91V53.19Z" fill="#403036"/>
<path id="Vector_5" d="M101.35 52.29H0.649902V63.05H101.35V52.29Z" fill="#735A62"/>
<path id="Vector_6" d="M101.35 55.4102H0.649902V57.9802H101.35V55.4102Z" fill="white"/>
<path id="Vector_7" d="M101.35 59.3701H0.649902V60.0301H101.35V59.3701Z" fill="white"/>
<path id="Vector_8" d="M91.0001 63.0501C91.0001 68.4001 86.8401 72.7301 81.6801 72.7301C76.5201 72.7301 72.3501 68.4001 72.3501 63.0501C72.3501 57.7001 76.5201 53.3701 81.6801 53.3701C86.8401 53.3701 91.0001 57.6901 91.0001 63.0501Z" fill="#403036"/>
<path id="Vector_9" d="M87.5401 63.05C87.5401 66.42 84.9201 69.15 81.6801 69.15C78.4401 69.15 75.8101 66.42 75.8101 63.05C75.8101 59.68 78.4301 56.96 81.6801 56.96C84.9301 56.96 87.5401 59.69 87.5401 63.05Z" fill="#FF7500"/>
<path id="Vector_10" d="M49.5899 25.7399C49.6399 34.5099 42.5899 41.6699 33.8199 41.7299C25.0499 41.7899 17.8999 34.7299 17.8299 25.9599C17.7799 17.1899 24.8299 10.0499 33.5999 9.97987C42.3699 9.91987 49.5299 16.9699 49.5999 25.7399H49.5899Z" fill="#735A62"/>
<path id="Vector_11" d="M54.9697 17.1198C52.0197 9.85982 45.1097 4.45982 37.3697 3.28982C37.2797 3.27982 37.1897 3.26982 37.1097 3.24982C36.9597 3.22982 36.8197 3.19982 36.6697 3.17982C36.6097 3.17982 36.5597 3.17982 36.4997 3.16982C30.2897 2.39982 23.7597 4.18982 18.9497 8.24982C17.4797 9.47982 17.0597 11.1598 17.7597 11.7498C18.4797 12.3598 19.9097 11.8698 21.1197 10.8598C26.3697 6.42982 34.0397 5.13982 40.4497 7.60982C46.8997 9.95982 51.8397 15.9598 52.8797 22.7598C54.0497 29.5398 51.3097 36.7798 45.9297 41.0798C41.9797 44.3498 36.6897 45.8598 31.5997 45.3598C31.5597 45.3598 31.5197 45.3598 31.4797 45.3498C31.2897 45.3298 31.0997 45.2998 30.8997 45.2698C24.3397 44.3298 18.4597 39.7798 15.8697 33.6898C16.1597 33.6298 16.4397 33.5898 16.6997 33.5798L17.7397 33.4898C19.1997 33.3098 19.4397 32.6698 18.3697 31.9598C16.7297 30.8398 15.2097 29.2898 13.9397 27.3898C13.1497 26.1398 11.9397 26.0398 11.2897 27.5798C10.3397 29.9098 9.74967 32.5398 9.64967 35.3598C9.61967 37.2398 10.4997 37.7198 11.4197 36.4698L12.0997 35.6298C12.2797 35.4198 12.5097 35.2298 12.7497 35.0398C14.9897 40.3198 19.3097 44.5998 24.5297 46.9298C24.7797 47.0798 25.0497 47.2198 25.3497 47.3398C27.0297 47.9998 28.7897 48.4298 30.5797 48.6598C30.6297 48.6598 30.6797 48.6798 30.7297 48.6898C30.7797 48.6898 30.8297 48.6998 30.8797 48.7098C31.0497 48.7298 31.2197 48.7498 31.3897 48.7598C39.1697 49.6398 47.2797 46.1898 51.9897 39.9298C56.9797 33.5798 58.1597 24.5498 54.9797 17.1298L54.9697 17.1198Z" fill="#403036"/>
<path id="Vector_12" d="M27.4798 22.0998C27.4798 22.7798 27.3798 23.4698 27.1898 24.1798C26.9898 24.8898 26.7398 25.5898 26.4398 26.2698C26.1298 26.9498 25.7998 27.5898 25.4298 28.2098C25.0698 28.8198 24.7098 29.3698 24.3498 29.8398L23.4898 30.6398V30.7398L24.6598 30.4498H27.6998V32.5298H20.8298V31.1798C21.0998 30.8398 21.3998 30.4498 21.7198 30.0098C22.0398 29.5698 22.3598 29.1098 22.6798 28.6198C22.9998 28.1298 23.3098 27.6198 23.6098 27.0898C23.9098 26.5598 24.1698 26.0298 24.3998 25.4998C24.6298 24.9698 24.8098 24.4498 24.9498 23.9398C25.0898 23.4298 25.1598 22.9598 25.1598 22.5098C25.1598 21.9598 25.0298 21.5198 24.7698 21.1798C24.5098 20.8398 24.0998 20.6698 23.5598 20.6698C23.2198 20.6698 22.8798 20.7498 22.5398 20.8998C22.1998 21.0498 21.9198 21.2298 21.6798 21.4398L20.7998 19.7398C21.2198 19.3698 21.6998 19.0798 22.2498 18.8698C22.7998 18.6598 23.4498 18.5498 24.1898 18.5498C24.6598 18.5498 25.0998 18.6298 25.4998 18.7798C25.8998 18.9298 26.2498 19.1598 26.5498 19.4598C26.8398 19.7598 27.0798 20.1298 27.2398 20.5798C27.4098 21.0198 27.4898 21.5398 27.4898 22.1298L27.4798 22.0998Z" fill="white"/>
<path id="Vector_13" d="M38.0798 28.7H36.3498V32.52H34.1398V28.7H29.2998V27.25L34.3098 18.71H36.3498V26.7H38.0798V28.7ZM34.1398 23.67L34.3598 21.91H34.2798L33.6898 23.5L32.1398 26.12L31.3498 26.86L32.3498 26.7H34.1298V23.66L34.1398 23.67Z" fill="white"/>
<path id="Vector_14" d="M44.0297 32.5201V26.6101C44.0297 25.9101 43.9497 25.4001 43.7897 25.0801C43.6297 24.7701 43.3297 24.6101 42.8997 24.6101C42.5897 24.6101 42.2997 24.7201 42.0397 24.9401C41.7797 25.1601 41.5997 25.4401 41.5097 25.7801V32.5201H39.1797V18.8101H41.5097V23.6101H41.5697C41.8297 23.2701 42.1497 23.0001 42.5197 22.7901C42.8897 22.5801 43.3597 22.4801 43.9197 22.4801C44.3197 22.4801 44.6797 22.5401 44.9797 22.6601C45.2797 22.7801 45.5297 22.9701 45.7497 23.2501C45.9597 23.5301 46.1197 23.8901 46.2197 24.3601C46.3197 24.8301 46.3797 25.4101 46.3797 26.1101V32.5301H44.0497L44.0297 32.5201Z" fill="white"/>
<g id="Group_2" style="mix-blend-mode:multiply">
<path id="Vector_15" d="M36.4899 0.27002H0.649902V52.29V60.36V63.05H36.4899V0.27002Z" fill="#E3D8DB"/>
</g>
<path id="Vector_16" d="M29.6397 63.0501C29.6397 68.4001 25.4697 72.7301 20.3197 72.7301C15.1697 72.7301 10.9897 68.4001 10.9897 63.0501C10.9897 57.7001 15.1597 53.3701 20.3197 53.3701C25.4797 53.3701 29.6397 57.6901 29.6397 63.0501Z" fill="#403036"/>
<path id="Vector_17" d="M26.1897 63.05C26.1897 66.42 23.5697 69.15 20.3197 69.15C17.0697 69.15 14.4497 66.42 14.4497 63.05C14.4497 59.68 17.0697 56.96 20.3197 56.96C23.5697 56.96 26.1897 59.69 26.1897 63.05Z" fill="#FF7500"/>
<g id="Group_3" style="mix-blend-mode:multiply">
<path id="Vector_18" d="M70.3799 23.5898L88.3399 39.7298H70.3799V23.5898Z" fill="#E3D8DB"/>
</g>
<path id="Vector_19" d="M96.06 39.8C95.57 39.76 95.28 39.73 95.28 39.73C95.28 39.73 93.93 45.69 101.36 49.2V46.91C101.36 43.26 99.05 40.25 96.06 39.8Z" fill="#FF7500"/>
<g id="Group_4" style="mix-blend-mode:multiply">
<path id="Vector_20" d="M101.35 49.0898H65.73V52.3998H101.35V49.0898Z" fill="#E3D8DB"/>
</g>
</g>
</g>
</g>
<defs>
<clipPath id="clip0_405_13070">
<rect width="100.7" height="72.46" fill="white" transform="translate(0.649902 0.27002)"/>
</clipPath>
</defs>
</svg>
