<svg width="243" height="160" viewBox="0 0 243 160" fill="none" xmlns="http://www.w3.org/2000/svg">
<g id="Layer_1" clip-path="url(#clip0_247_3818)">
<path id="Vector" d="M87.165 136.086C71.6369 144.572 31.9059 145.545 7.19201 107.054C-17.5219 68.5621 24.8726 -14.9597 82.6656 10.944C114.55 25.2332 125.874 33.4376 162.142 27.9656C198.633 22.4575 218.668 43.1415 220.324 69.9319C223.462 120.694 191.204 136.165 147.398 127.175C112.966 120.11 98.1577 130.081 87.1578 136.086H87.165Z" fill="#FFE5CF"/>
<path id="Vector_2" d="M60.3707 135.762C60.3707 135.762 52.8694 156.244 57.4839 159.654C62.0985 163.064 74.7974 139.857 74.7974 139.857L60.3707 135.762Z" fill="#2F3F5C"/>
<path id="Vector_3" d="M73.6667 139.539C70.7655 144.6 61.0901 160.743 57.1883 157.852C56.6412 157.448 56.2669 156.792 56.0293 155.97C56.1517 157.664 56.5836 158.991 57.4907 159.654C62.1052 163.071 74.8041 139.857 74.8041 139.857L73.6667 139.532V139.539Z" fill="white"/>
<path id="Vector_4" d="M72.0971 142.106C72.0971 142.106 69.5847 149.106 72.0971 149.69C74.6095 150.274 123.836 160.779 86.1638 142.106H72.0971Z" fill="#2F3F5C"/>
<path id="Vector_5" d="M72.0973 147.744C71.4854 147.6 71.1758 147.081 71.0535 146.374C70.8663 147.96 71.0031 149.431 72.0973 149.69C74.0626 150.145 104.579 156.669 99.7988 150.563C96.1418 152.92 73.7747 148.133 72.0973 147.744Z" fill="white"/>
<path id="Vector_6" d="M85.9052 73.0752C85.9052 73.0752 101.26 89.1235 88.6408 142.603L71.4785 144.442L74.6388 87.97L85.9052 73.0752Z" fill="#FFC330"/>
<path id="Vector_7" d="M68.1375 62.9963C68.1375 62.9963 57.7422 80.9768 60.449 90.0031C62.5367 96.9602 68.8142 109.18 68.8142 109.18C68.8142 109.18 59.6931 117.024 56.9863 140.268L71.485 144.608C71.485 144.608 81.8514 113.917 82.5281 110.536C83.2048 107.154 79.8213 85.7134 79.8213 85.7134L88.6616 79.8377L84.6374 65.8729L68.1303 62.9963H68.1375Z" fill="#FFC330"/>
<path id="Vector_8" d="M79.9805 44.6554L84.6886 9.94897L90.3109 11.6216L86.6467 49.666L79.9805 44.6626V44.6554Z" fill="#FFC1B7"/>
<path id="Vector_9" d="M90.1375 12.2993C90.1375 12.2993 92.2899 8.03847 92.4987 5.15467C92.7003 2.27088 91.9876 1.25434 91.4765 1.17504C90.9653 1.09574 90.3462 2.88369 90.3462 2.88369C90.3462 2.88369 90.447 0.165712 89.324 0.0071038C88.1937 -0.151505 87.7834 2.22762 87.7834 2.22762C87.7834 2.22762 87.3731 0.281064 86.4516 0.627119C85.5301 0.973174 85.2206 5.38538 85.2206 5.38538C85.2206 5.38538 84.5007 3.18649 83.788 3.44603C83.0681 3.70557 82.557 6.93541 83.0681 8.11777C83.5792 9.30012 84.911 10.7348 84.911 10.7348L90.1375 12.2993Z" fill="#FFC1B7"/>
<path id="Vector_10" d="M87.2724 9.92739C87.3372 9.92018 87.3948 9.86972 87.402 9.81204C87.7188 7.76455 85.7319 5.73869 85.6527 5.65217C85.5951 5.5945 85.4943 5.58729 85.4223 5.63775C85.3503 5.68822 85.3431 5.77473 85.4007 5.83241C85.4223 5.85404 87.3732 7.84385 87.0781 9.77599C87.0637 9.8553 87.1284 9.92018 87.222 9.9346C87.2364 9.9346 87.258 9.9346 87.2724 9.9346V9.92739Z" fill="black"/>
<path id="Vector_11" d="M91.2179 6.08485C91.2754 6.07764 91.3258 6.04159 91.3474 5.99113C91.3762 5.91903 91.3258 5.83973 91.2395 5.8181L85.9626 4.48435C85.8763 4.46272 85.7827 4.50598 85.7611 4.57807C85.7323 4.65016 85.7827 4.72947 85.869 4.7511L91.1459 6.08485C91.1459 6.08485 91.1963 6.09206 91.2179 6.08485Z" fill="black"/>
<path id="Vector_12" d="M71.6726 25.3701C71.6726 25.3701 69.0378 21.6428 64.8696 24.1877C60.7014 26.7327 63.4154 32.7237 58.6065 34.4036C53.7904 36.0834 54.3088 49.5363 64.2865 48.3755C70.6215 47.6329 72.8748 41.8509 72.8748 41.8509L71.6726 25.3701Z" fill="#7A8DB5"/>
<path id="Vector_13" d="M71.0035 25.9757C71.0035 25.9757 71.8313 22.6809 74.9269 23.3947C79.2534 24.3968 78.7711 28.3692 82.5793 29.393C86.3804 30.4095 87.9282 35.7589 84.0767 40.0486C81.082 43.3794 83.9831 44.3959 81.5859 48.0439C78.8359 52.2254 70.2764 47.5464 70.2764 47.5464L71.0107 25.9757H71.0035Z" fill="#7A8DB5"/>
<path id="Vector_14" d="M74.991 38.9167L75.2501 43.7903L79.1232 44.3599L74.6238 49.3704L65.1572 47.2653L65.9995 44.9727L68.8215 44.5473L68.0368 36.689L75.0054 38.9167H74.991Z" fill="#FFC1B7"/>
<path id="Vector_15" opacity="0.1" d="M74.991 38.9169L75.2501 43.7905L79.1232 44.36L74.6238 49.3706L65.1572 47.2655L65.9995 44.9728L68.8215 44.5475L68.0152 36.9919L75.0054 38.9169H74.991Z" fill="#1F2D42"/>
<path id="Vector_16" d="M44.8924 14.4407C44.8924 14.4407 41.8833 10.5764 41.077 7.76469C40.2707 4.95299 40.7675 3.84994 41.257 3.69854C41.7465 3.53993 42.7256 5.20532 42.7256 5.20532C42.7256 5.20532 42.0561 2.55223 43.1359 2.22059C44.2157 1.89617 45.1156 4.17436 45.1156 4.17436C45.1156 4.17436 45.1156 2.19897 46.0947 2.40083C47.0737 2.6027 48.2975 6.89955 48.2975 6.89955C48.2975 6.89955 48.5423 4.62856 49.3054 4.77275C50.0685 4.92415 51.2419 8.01702 50.9899 9.26426C50.7308 10.5043 49.7157 12.112 49.7157 12.112L44.8996 14.4407H44.8924Z" fill="#FFC1B7"/>
<path id="Vector_17" d="M47.2178 11.6794C47.1458 11.6794 47.081 11.6434 47.0595 11.5857C46.318 9.6175 47.8513 7.32488 47.9161 7.23116C47.9593 7.16628 48.0601 7.14465 48.1393 7.1807C48.2185 7.21674 48.2473 7.30326 48.1969 7.36814C48.1825 7.38977 46.6707 9.64634 47.369 11.4992C47.3978 11.5713 47.3474 11.6506 47.261 11.6722C47.2466 11.6722 47.225 11.6722 47.2106 11.6722L47.2178 11.6794Z" fill="black"/>
<path id="Vector_18" d="M42.5316 8.49279C42.474 8.49279 42.4164 8.46395 42.3876 8.41349C42.3444 8.3486 42.3804 8.26209 42.4596 8.22604L47.3765 6.11366C47.4557 6.07762 47.5565 6.10645 47.5924 6.17855C47.6356 6.24343 47.5996 6.32995 47.5205 6.366L42.6036 8.47837C42.6036 8.47837 42.5532 8.49279 42.5316 8.49279Z" fill="black"/>
<path id="Vector_19" d="M52.7323 44.9871L45.3174 13.9791L50.335 11.946L62.9836 41.6635L52.7323 44.9871Z" fill="#FFC1B7"/>
<path id="Vector_20" d="M52.1631 43.6606L62.4504 40.4812C62.4504 40.4812 63.6454 42.644 64.8116 43.1487C65.9778 43.6534 67.9791 43.6606 67.9791 43.6606C67.9791 43.6606 73.3639 48.7793 76.9778 43.6606L83.4784 40.4812L87.8122 41.1517C88.5321 45.1025 86.4444 62.9892 86.4444 62.9892L90.0295 72.2678C90.0295 72.2678 81.8587 79.6503 59.4484 74.2288L61.7881 63.4218C61.7881 63.4218 55.741 53.1699 52.1631 43.6606Z" fill="white"/>
<path id="Vector_21" d="M67.2524 34.6559C67.4539 35.9176 66.8996 37.0494 66.0214 37.1936C65.1359 37.3378 64.2576 36.4294 64.056 35.1678C63.8545 33.9061 64.4088 32.7742 65.2871 32.63C66.1725 32.4858 67.0508 33.3942 67.2524 34.6559Z" fill="#FFC1B7"/>
<path id="Vector_22" d="M72.0041 26.6103C72.0041 26.6103 76.6042 26.4445 77.5329 33.5674C78.2672 39.1908 76.2227 41.3176 72.7744 41.1662C66.9577 40.9067 64.6396 35.9826 65.5107 32.4139C66.3817 28.8452 66.4753 25.2838 72.0041 26.6103Z" fill="#FFC1B7"/>
<path id="Vector_23" d="M72.0033 26.6102C72.0033 26.6102 67.9359 27.5691 67.4752 30.2438C67.0144 32.9185 68.0727 34.2955 63.9189 34.8723C59.7651 35.4491 60.5138 39.2629 62.1911 40.2506C63.8685 41.2383 63.9909 41.7646 61.9896 41.606C59.9883 41.4473 58.5125 36.3791 61.644 34.62C64.7756 32.8609 64.2284 30.1573 64.1709 27.8503C64.1133 25.5432 70.7291 21.542 72.0033 26.603V26.6102Z" fill="#8297C4"/>
<path id="Vector_24" d="M65.417 34.5984C65.417 34.5984 66.0505 36.8982 66.648 36.6242C67.2455 36.3503 66.5976 34.0144 66.5976 34.0144L65.417 34.5984Z" fill="#7A8DB5"/>
<path id="Vector_25" d="M73.429 26.2426C73.429 26.2426 73.2562 26.3075 72.9466 26.4228C72.6443 26.5382 72.2195 26.704 71.73 26.9275C71.2477 27.1582 70.6934 27.4394 70.1966 27.8215C69.9447 28.0089 69.7143 28.2252 69.5271 28.4631C69.34 28.701 69.1888 28.9606 69.0952 29.2417C69.0448 29.3859 69.016 29.5085 68.9872 29.7103L68.9368 29.9771L68.9008 30.2222C68.8504 30.5466 68.8216 30.8999 68.7929 31.2243C68.7713 31.5632 68.7497 31.8948 68.7281 32.2048C68.7065 32.522 68.6705 32.832 68.6129 33.1204C68.5697 33.4088 68.4617 33.6828 68.3537 33.899C68.2817 34.0072 68.2241 34.1081 68.145 34.1874C68.0658 34.2595 68.001 34.3388 67.9218 34.3821C67.8498 34.4325 67.785 34.4686 67.7274 34.4974C67.6626 34.5191 67.6122 34.5407 67.569 34.5551C67.4826 34.5839 67.4395 34.5984 67.4395 34.5984C67.4395 34.5984 67.4754 34.5623 67.5402 34.5046C67.569 34.4758 67.6122 34.4398 67.6554 34.3965C67.6914 34.346 67.7346 34.2956 67.7778 34.2307C67.8642 34.1081 67.9362 33.9423 67.9866 33.7549C68.0226 33.553 68.037 33.3295 68.0226 33.07C68.001 32.5509 67.9002 31.9164 67.8786 31.2027C67.8714 30.8422 67.8714 30.4818 67.9146 30.0924C67.9362 29.8978 67.9506 29.6959 67.9866 29.5229L68.037 29.2345C68.0658 29.1264 68.0874 29.0182 68.1233 28.9173C68.2673 28.4991 68.4977 28.117 68.7785 27.8142C69.0592 27.5042 69.376 27.2591 69.6999 27.0645C70.3478 26.6824 71.0029 26.4805 71.5572 26.3651C72.1188 26.2498 72.5867 26.2209 72.9178 26.2209C73.249 26.2209 73.4362 26.2426 73.4362 26.2426H73.429Z" fill="#7A8DB5"/>
<path id="Vector_26" d="M67.9296 33.7116C68.0016 34.9805 69.0958 35.9465 70.3628 35.8744C71.6298 35.8023 72.5945 34.7065 72.5225 33.4376C72.4505 32.1688 71.3563 31.2027 70.0892 31.2748C68.8222 31.3469 67.8576 32.4427 67.9296 33.7116Z" fill="#C1EEE6" stroke="#2F3F5C" stroke-width="0.38" stroke-miterlimit="10"/>
<path id="Vector_27" d="M72.457 33.5458C72.457 33.5458 73.1481 32.5581 74.084 33.3655" stroke="#2F3F5C" stroke-width="0.37" stroke-miterlimit="10"/>
<path id="Vector_28" d="M77.6401 33.971C78.4608 33.0698 78.3888 31.6712 77.4817 30.8493C76.5746 30.0274 75.1852 30.0995 74.3646 31.0079C73.5439 31.9163 73.6159 33.3077 74.5229 34.1296C75.4228 34.9515 76.8194 34.8794 77.6401 33.971Z" fill="#C1EEE6" stroke="#2F3F5C" stroke-width="0.37" stroke-miterlimit="10"/>
<path id="Vector_29" d="M66.1943 33.9135L67.9581 33.8918" stroke="#2F3F5C" stroke-width="0.36" stroke-miterlimit="10"/>
<path id="Vector_30" d="M69.4486 34.6991C69.3262 33.5673 69.9525 32.183 71.3347 33.8196M74.5958 33.4375C74.4735 32.3056 75.3517 31.0439 76.6043 33.0626M73.7176 33.8124C74.4734 34.6919 75.0998 35.1966 74.2215 36.451M71.4571 38.2174C73.7176 39.6016 75.7261 38.2174 75.978 37.0855" stroke="black" stroke-width="0.35" stroke-linecap="round"/>
<path id="Vector_31" d="M40.5663 42.5142L39.7817 47.1716L43.3163 48.5197L38.0107 52.3047L29.5088 48.3179L30.783 46.328L33.533 46.5227L34.908 40.5244L40.552 42.507L40.5663 42.5142Z" fill="#DE7356"/>
<path id="Vector_32" opacity="0.1" d="M40.5663 42.5142L39.7817 47.1716L43.3163 48.5197L38.0107 52.3047L29.5088 48.3179L30.783 46.328L33.533 46.5227L34.908 40.5244L40.552 42.507L40.5663 42.5142Z" fill="#1F2D42"/>
<path id="Vector_33" d="M32.1287 36.3142C32.1287 36.3142 30.7609 37.4533 33.8708 40.265C35.6201 41.8439 32.1287 36.3142 32.1287 36.3142Z" fill="#FFC330"/>
<path id="Vector_34" d="M35.9806 35.6003C35.6711 37.208 34.0945 38.2534 32.4603 37.9434C30.8262 37.6262 29.7535 36.0689 30.0559 34.4612C30.3654 32.8535 31.942 31.8081 33.5762 32.1182C35.2103 32.4354 36.283 33.9926 35.9806 35.6003Z" fill="#DE7356"/>
<path id="Vector_35" d="M43.9349 27.5115C43.9349 27.5115 48.5854 30.0709 48.175 36.7252C47.7287 43.9924 44.446 47.5106 40.1698 46.3499C32.9565 44.4033 31.3511 36.1485 33.4388 31.9165C35.5265 27.6917 37.391 24.3033 43.9421 27.5043L43.9349 27.5115Z" fill="#DE7356"/>
<path id="Vector_36" d="M32.8847 32.2913C32.8847 32.2913 33.9429 33.6611 33.187 36.0114C33.187 36.0114 35.4619 36.9991 35.3107 31.0729C35.3107 31.0729 37.2832 30.4673 37.5064 28.4919C37.5064 28.4919 39.3997 31.9813 43.3447 32.7455L42.2865 30.3159C42.2865 30.3159 46.0011 32.8969 50.2485 33.4304C50.2485 33.4304 52.221 26.4444 46.2315 23.4092C46.2315 23.4092 51.0116 26.4444 52.0698 28.9533C52.0698 28.9533 51.5371 21.131 42.8192 21.2824C34.1013 21.4338 32.6615 26.5237 32.6615 26.5237L37.2832 24.9304C37.2832 24.9304 37.5136 22.0466 34.1013 22.6522C30.689 23.2578 28.6445 28.4991 30.4586 33.279C30.4586 33.279 31.8264 32.0678 32.8847 32.2913Z" fill="#FFC330"/>
<g id="Group" opacity="0.8">
<path id="Vector_37" d="M43.4811 35.4778C43.6107 35.8166 43.7259 36.1555 43.8267 36.5015C43.9275 36.8476 44.0211 37.1936 44.1002 37.5397C44.1866 37.8858 44.2514 38.239 44.3234 38.5851C44.3882 38.9383 44.453 39.2844 44.5034 39.6377L44.525 39.7963L44.4026 39.8684C44.1434 40.0198 43.8843 40.1567 43.6179 40.2865C43.3516 40.4163 43.078 40.5388 42.79 40.6398C42.9988 40.4235 43.222 40.2216 43.4595 40.0342C43.6899 39.8467 43.9275 39.6665 44.165 39.4935L44.0643 39.7242C43.9779 39.3781 43.9131 39.0248 43.8411 38.6788C43.7763 38.3255 43.7115 37.9795 43.6683 37.6262C43.6107 37.2729 43.5747 36.9197 43.5387 36.5592C43.5027 36.2059 43.4811 35.8455 43.4811 35.485V35.4778Z" fill="#C15A42"/>
</g>
<path id="Vector_38" d="M44.7126 41.8655L38.7734 41.3896C38.7734 41.3896 41.869 44.4465 44.7126 41.8655Z" fill="white"/>
<path id="Vector_39" d="M40.7962 35.521C40.7962 35.521 40.7674 35.8454 40.6162 36.314C40.537 36.5447 40.4362 36.8187 40.2635 37.0855C40.1771 37.2224 40.0763 37.3522 39.9395 37.4676C39.8027 37.5829 39.6228 37.6838 39.414 37.6983C39.2052 37.7055 39.0108 37.6262 38.8669 37.5108C38.7157 37.4027 38.6149 37.2729 38.5141 37.1503C38.4205 37.0206 38.3413 36.8908 38.2765 36.7682C38.2046 36.6457 38.1614 36.5159 38.111 36.4078C37.931 35.9536 37.8662 35.6291 37.8662 35.6291C37.8662 35.6291 37.9094 35.7012 37.9814 35.8238C38.0462 35.9464 38.1542 36.1194 38.2765 36.3212C38.3413 36.4222 38.4061 36.5303 38.4853 36.6385C38.5573 36.7538 38.6437 36.862 38.7373 36.9701C38.7805 37.0206 38.8381 37.071 38.8813 37.1215C38.9389 37.1648 38.9892 37.2152 39.0396 37.2513C39.1476 37.3378 39.27 37.3738 39.3852 37.3666C39.5004 37.3666 39.6156 37.3089 39.7235 37.2224C39.8315 37.1359 39.9323 37.035 40.0115 36.9196C40.1843 36.6889 40.3138 36.451 40.429 36.2419C40.537 36.0329 40.6306 35.8526 40.6882 35.7229C40.7458 35.5931 40.7818 35.521 40.7818 35.521H40.7962Z" fill="#2F3F5C"/>
<path id="Vector_40" d="M47.095 35.8383C47.095 35.8383 47.0662 36.1627 46.915 36.6313C46.8358 36.862 46.7351 37.136 46.5623 37.4027C46.4759 37.5397 46.3751 37.6695 46.2383 37.7848C46.1016 37.9002 45.9216 38.0011 45.7128 38.0155C45.504 38.0227 45.3097 37.9434 45.1657 37.8281C45.0145 37.7199 44.9137 37.5902 44.8129 37.4676C44.7194 37.3378 44.6402 37.2081 44.5754 37.0783C44.5034 36.9557 44.4602 36.826 44.4098 36.7178C44.2298 36.2636 44.165 35.9392 44.165 35.9392C44.165 35.9392 44.2082 36.0113 44.2802 36.1339C44.345 36.2564 44.453 36.4294 44.5754 36.6313C44.6402 36.7322 44.705 36.8404 44.7841 36.9485C44.8561 37.0639 44.9425 37.172 45.0361 37.2802C45.0793 37.3306 45.1369 37.3811 45.1801 37.4316C45.2377 37.4748 45.2881 37.5253 45.3385 37.5613C45.4464 37.6478 45.5688 37.6839 45.684 37.6767C45.7992 37.6767 45.9144 37.619 46.0224 37.5325C46.1303 37.446 46.2311 37.345 46.3103 37.2297C46.4831 36.999 46.6127 36.7611 46.7279 36.552C46.8358 36.3429 46.9294 36.1627 46.987 36.0329C47.0446 35.9031 47.0806 35.8311 47.0806 35.8311L47.095 35.8383Z" fill="#2F3F5C"/>
<path id="Vector_41" d="M41.9623 33.452C41.9623 33.452 41.8831 33.4159 41.7391 33.3583C41.5952 33.3006 41.4008 33.2213 41.1632 33.142C41.048 33.0987 40.9113 33.0627 40.7817 33.0194C40.6449 32.9834 40.5009 32.9545 40.3569 32.9113C40.2058 32.8824 40.0546 32.8536 39.8962 32.8392C39.7378 32.8175 39.5795 32.8031 39.4211 32.7959C39.2627 32.7743 39.1043 32.7959 38.9459 32.7959C38.7876 32.8031 38.6364 32.8248 38.4852 32.832C38.334 32.8536 38.1901 32.8824 38.0533 32.9041C37.9093 32.9185 37.7869 32.9689 37.6645 32.9906C37.5422 33.0194 37.427 33.041 37.3262 33.0771C37.2254 33.1131 37.139 33.1348 37.0598 33.1564C36.9087 33.1924 36.8223 33.2141 36.8223 33.2141C36.8223 33.2141 36.8799 33.1492 36.995 33.041C37.0526 32.9906 37.1246 32.9257 37.211 32.8536C37.2902 32.7743 37.3982 32.7166 37.5134 32.6445C37.6285 32.5796 37.7509 32.4859 37.9021 32.4354C38.0461 32.3778 38.1973 32.3057 38.37 32.2624C38.5356 32.2264 38.7156 32.1759 38.8956 32.1543C39.0755 32.1471 39.2627 32.1182 39.4499 32.1326C39.637 32.1399 39.8242 32.1543 40.0042 32.2047C40.1842 32.2336 40.3569 32.2985 40.5153 32.3489C40.6809 32.4066 40.8249 32.4787 40.9689 32.558C41.1056 32.6301 41.2352 32.7094 41.3432 32.7959C41.5664 32.9545 41.7247 33.1203 41.8255 33.2429C41.9263 33.3655 41.9695 33.4448 41.9695 33.4448L41.9623 33.452Z" fill="#2F3F5C"/>
<path id="Vector_42" d="M48.1967 34.2018C48.1967 34.2018 48.1247 34.1585 48.0023 34.1009C47.88 34.036 47.7 33.9495 47.4984 33.8557C47.3976 33.8125 47.2824 33.762 47.1601 33.7188C47.0449 33.6683 46.9153 33.6395 46.7857 33.589C46.6561 33.5602 46.5194 33.5169 46.3826 33.4953C46.3178 33.4808 46.2458 33.4736 46.181 33.4592C46.109 33.452 46.0442 33.4448 45.9722 33.4448C45.8355 33.4232 45.6987 33.4448 45.5547 33.4304C45.4179 33.4304 45.2811 33.452 45.1516 33.4664C45.022 33.4881 44.8924 33.5169 44.77 33.5385C44.6476 33.5602 44.5325 33.6106 44.4245 33.6322C44.3165 33.6683 44.2085 33.6827 44.1221 33.726C44.0357 33.762 43.9565 33.7836 43.8918 33.8125C43.755 33.8557 43.6758 33.8774 43.6758 33.8774C43.6758 33.8774 43.7262 33.8125 43.8198 33.7043C43.8702 33.6539 43.9277 33.5818 43.9997 33.5169C44.0645 33.4376 44.1581 33.3727 44.2589 33.3006C44.3597 33.2357 44.4677 33.1348 44.6044 33.0843C44.734 33.0266 44.8708 32.9473 45.0292 32.9041C45.1876 32.868 45.3459 32.8104 45.5187 32.7959C45.6915 32.7815 45.8643 32.7671 46.037 32.7959C46.1234 32.8032 46.2098 32.8104 46.2962 32.8248L46.5482 32.8897C46.7137 32.9257 46.8649 33.0122 47.0089 33.0627C47.1529 33.1348 47.2824 33.2141 47.3976 33.3006C47.52 33.3799 47.6208 33.4736 47.7072 33.5601C47.8872 33.7332 48.0167 33.899 48.0887 34.0216C48.1679 34.1441 48.1967 34.2234 48.1967 34.2234V34.2018Z" fill="#2F3F5C"/>
<path id="Vector_43" d="M52.2423 63.0326C52.2423 63.0326 51.7168 73.2052 42.5454 77.2713C40.3641 78.2374 38.4564 65.5992 39.4426 62.9244C39.673 62.2972 44.4819 69.2327 44.7554 68.656C45.7201 66.5796 46.7711 64.9647 46.7711 64.9647L52.2495 63.0326H52.2423Z" fill="#DE7356"/>
<path id="Vector_44" opacity="0.1" d="M39.4354 62.9244C39.6658 62.2972 44.4747 69.2327 44.7482 68.656C45.7129 66.5796 46.7639 64.9647 46.7639 64.9647L47.3326 64.7629C47.5198 66.4715 47.9158 68.1657 48.4197 69.8095C48.5997 70.4007 48.866 71.0495 49.154 71.7272C47.7142 73.8468 45.6193 75.9015 42.5454 77.2641C40.3641 78.2302 38.4564 65.5919 39.4426 62.9172L39.4354 62.9244Z" fill="#1F2D42"/>
<path id="Vector_45" d="M37.9674 136.13L39.1049 151.81C39.1049 151.81 8.99892 153.814 8.66777 150.707C8.33662 147.6 25.6645 144.327 25.6645 144.327L24.6494 132.424L37.9674 136.122V136.13Z" fill="#DE7356"/>
<path id="Vector_46" opacity="0.2" d="M38.3778 141.825L37.9674 136.129L24.6494 132.431L25.4197 141.45C29.7391 141.746 34.0656 141.969 38.385 141.825H38.3778Z" fill="#2F3F5C"/>
<path id="Vector_47" d="M16.9468 152.38C16.9468 152.38 17.0116 152.38 17.0404 152.38C17.3931 152.394 17.7531 152.401 18.113 152.409C18.1562 152.409 18.2066 152.409 18.2498 152.409C18.6097 152.416 18.9769 152.423 19.344 152.43C19.3944 152.43 19.4376 152.43 19.488 152.43C19.8623 152.43 20.2367 152.43 20.6182 152.437H20.7334C29.2282 152.459 39.0907 151.803 39.0907 151.803L38.9539 149.936C37.4133 150.037 28.789 150.563 21.1509 150.556C20.3519 148.84 19.3656 147.247 18.401 145.97C14.8231 146.915 10.9501 148.162 9.37349 149.46C9.25111 149.561 9.14313 149.669 9.04954 149.77C8.95596 149.871 8.87677 149.972 8.81918 150.073C8.80478 150.094 8.79758 150.123 8.79038 150.145C8.74719 150.224 8.70399 150.303 8.6896 150.383C8.6608 150.484 8.6536 150.592 8.6608 150.693C8.668 150.772 8.70399 150.851 8.75439 150.931C8.75439 150.938 8.76159 150.945 8.76878 150.952C8.81918 151.024 8.89117 151.089 8.97755 151.154C8.99195 151.161 9.00635 151.176 9.02075 151.183C9.10713 151.248 9.21512 151.305 9.3375 151.363C9.3591 151.37 9.38069 151.385 9.40229 151.392C9.53187 151.45 9.66865 151.5 9.81983 151.551C9.84143 151.558 9.86302 151.565 9.89182 151.572C10.0574 151.623 10.2374 151.673 10.4245 151.724C10.4389 151.724 10.4461 151.724 10.4605 151.731C10.6621 151.774 10.8709 151.825 11.1012 151.861C11.1156 151.861 11.13 151.861 11.1444 151.868C11.3676 151.911 11.6124 151.947 11.8643 151.983C11.9003 151.983 11.9291 151.99 11.9651 151.998C12.2099 152.034 12.469 152.062 12.7354 152.091C12.7786 152.091 12.8218 152.099 12.865 152.106C13.1385 152.135 13.4121 152.163 13.7001 152.185C13.7432 152.185 13.7864 152.192 13.8296 152.192C14.132 152.214 14.4343 152.235 14.7511 152.257C14.7799 152.257 14.8015 152.257 14.8303 152.257C15.4998 152.3 16.2053 152.329 16.9396 152.358L16.9468 152.38Z" fill="white"/>
<path id="Vector_48" d="M32.0928 145.732C32.0208 146.958 32.9566 148.018 34.1804 148.09C35.4043 148.162 36.4625 147.225 36.5273 145.999C36.5993 144.773 35.6634 143.721 34.4396 143.642C33.2158 143.569 32.1647 144.507 32.0928 145.732Z" fill="white"/>
<path id="Vector_49" d="M20.9922 145.415L22.7847 147.708" stroke="white" stroke-width="1.05" stroke-miterlimit="10" stroke-linecap="round"/>
<path id="Vector_50" d="M23.375 144.752L25.1675 147.045" stroke="white" stroke-width="1.05" stroke-miterlimit="10" stroke-linecap="round"/>
<path id="Vector_51" d="M25.5996 144.305L27.3921 146.598" stroke="white" stroke-width="1.05" stroke-miterlimit="10" stroke-linecap="round"/>
<path id="Vector_52" d="M41.2567 136.584L40.6592 152.293C40.6592 152.293 70.8155 153.259 71.0387 150.145C71.2618 147.03 53.8332 144.355 53.8332 144.355L54.4379 132.431L41.2495 136.584H41.2567Z" fill="#DE7356"/>
<path id="Vector_53" opacity="0.2" d="M41.0342 142.286L41.2501 136.576L54.4386 132.424L53.9779 141.465C49.6729 141.912 45.3607 142.279 41.0342 142.286Z" fill="#2F3F5C"/>
<path id="Vector_54" d="M62.8175 152.106C62.8175 152.106 62.7527 152.106 62.7239 152.106C62.3712 152.127 62.0112 152.149 61.6513 152.17C61.6081 152.17 61.5577 152.17 61.5145 152.178C61.1545 152.199 60.7874 152.214 60.4203 152.235C60.3699 152.235 60.3267 152.235 60.2763 152.235C59.9019 152.25 59.5276 152.271 59.146 152.286C59.1101 152.286 59.0669 152.286 59.0309 152.286C50.5433 152.596 40.6592 152.286 40.6592 152.286L40.7312 150.419C42.2717 150.462 50.9105 150.693 58.5485 150.426C59.29 148.681 60.2187 147.059 61.1401 145.747C64.7468 146.561 68.663 147.679 70.2828 148.926C70.4052 149.027 70.5204 149.121 70.6211 149.222C70.7147 149.323 70.8011 149.424 70.8659 149.517C70.8803 149.539 70.8875 149.561 70.9019 149.589C70.9451 149.669 70.9883 149.748 71.0171 149.82C71.0459 149.921 71.0603 150.029 71.0531 150.13C71.0531 150.209 71.0171 150.289 70.9667 150.368C70.9667 150.375 70.9595 150.383 70.9523 150.397C70.9019 150.469 70.8371 150.541 70.7507 150.606C70.7363 150.613 70.7219 150.628 70.7075 150.642C70.6211 150.707 70.5204 150.772 70.398 150.83C70.3764 150.837 70.3548 150.851 70.3332 150.858C70.2108 150.916 70.074 150.974 69.9156 151.031C69.8941 151.039 69.8725 151.046 69.8437 151.053C69.6781 151.111 69.5053 151.168 69.3109 151.219C69.2965 151.219 69.2893 151.219 69.2749 151.226C69.0806 151.276 68.8646 151.327 68.6414 151.377C68.627 151.377 68.6126 151.377 68.5982 151.385C68.3751 151.435 68.1303 151.478 67.8855 151.522C67.8496 151.522 67.8208 151.536 67.7848 151.536C67.54 151.579 67.2808 151.615 67.0145 151.659C66.9713 151.659 66.9281 151.673 66.8849 151.68C66.6185 151.716 66.3378 151.752 66.0498 151.788C66.0066 151.788 65.9634 151.796 65.9202 151.803C65.6251 151.839 65.3155 151.868 65.006 151.904C64.9772 151.904 64.9556 151.904 64.9268 151.911C64.2573 151.976 63.5518 152.033 62.8175 152.084V152.106Z" fill="white"/>
<path id="Vector_55" d="M47.4558 145.977C47.571 147.203 46.6711 148.284 45.4473 148.4C44.2235 148.515 43.1437 147.614 43.0285 146.388C42.9133 145.163 43.8132 144.081 45.037 143.966C46.2608 143.851 47.3406 144.752 47.4558 145.977Z" fill="white"/>
<path id="Vector_56" d="M58.5346 145.285L56.8213 147.643" stroke="white" stroke-width="1.05" stroke-miterlimit="10" stroke-linecap="round"/>
<path id="Vector_57" d="M56.1372 144.701L54.4238 147.052" stroke="white" stroke-width="1.05" stroke-miterlimit="10" stroke-linecap="round"/>
<path id="Vector_58" d="M53.8911 144.334L52.1777 146.684" stroke="white" stroke-width="1.05" stroke-miterlimit="10" stroke-linecap="round"/>
<path id="Vector_59" d="M23.764 68.9802C23.764 68.9802 16.234 76.8962 15.0677 85.216C13.9015 93.5357 23.3249 143.771 23.3249 143.771L39.1554 145.617L32.3308 96.2897L40.9911 143.44L55.6553 141.104C55.6553 141.104 48.586 90.861 44.137 82.5196C41.9198 75.7643 40.1128 70.3933 40.1128 70.3933L23.7712 68.9802H23.764Z" fill="#7A8DB5"/>
<path id="Vector_60" d="M21.9932 144.774L39.5586 146.677V141.601L21.9932 140.599V144.774Z" fill="#93A9D1"/>
<path id="Vector_61" d="M56.9871 144.608L40.3936 146.713V141.767L56.6559 140.268L56.9871 144.608Z" fill="#93A9D1"/>
<path id="Vector_62" d="M22.4971 88.8713C22.4971 88.8713 29.8256 92.8726 31.9925 92.8726C34.1593 92.8726 40.1561 89.3688 40.1561 89.3688" stroke="#526999" stroke-width="0.46"/>
<path id="Vector_63" d="M24.8574 49.0461C25.8149 46.8833 28.5505 46.1047 31.7972 46.0398C32.7115 47.6836 34.4104 48.8875 36.3685 49.385C38.6362 49.9618 41.3646 49.5869 42.5092 47.5538C44.5249 48.0729 46.1159 48.6064 46.8214 48.9092C49.6002 50.1131 47.4405 58.7501 47.4405 58.7501C53.1421 66.5508 44.7121 68.6199 44.7121 68.6199L43.1283 75.7861C29.328 77.3073 20.5381 70.1699 20.5381 70.1699C20.5381 70.1699 22.2082 55.0661 24.8718 49.0389L24.8574 49.0461Z" fill="#FFC1B7"/>
<path id="Vector_64" d="M51.2423 62.571C50.472 61.9798 34.1088 65.9378 33.6553 65.9955C33.2809 66.046 33.2809 59.2907 33.2953 56.9548C30.6533 57.2216 27.3274 57.8632 24.7718 58.4832C24.7502 62.5854 25.8948 70.5087 29.5807 72.4192C34.5407 75.0002 51.523 65.7216 51.523 65.7216C51.523 65.7216 52.0126 63.155 51.2423 62.5638V62.571Z" fill="#DE7356"/>
<path id="Vector_65" opacity="0.1" d="M33.295 57.957C33.295 57.5748 33.295 57.236 33.295 56.9548C30.653 57.2216 27.3271 57.8632 24.7715 58.4832C24.7715 58.8509 24.7715 59.2475 24.7931 59.6656C27.6079 58.9951 30.437 58.4111 33.2878 57.957H33.295Z" fill="#1F2D42"/>
<path id="Vector_66" d="M48.5714 69.3263C48.377 69.8381 47.8083 70.0977 47.2971 69.9102L42.1859 67.9925C41.6748 67.7979 41.4156 67.2283 41.6028 66.7164L46.0661 54.9073C46.2605 54.3954 46.8292 54.1359 47.3403 54.3233L52.4516 56.2411C52.9627 56.4357 53.2219 57.0053 53.0347 57.5171L48.5714 69.3263Z" fill="#7A8DB5"/>
<path id="Vector_67" opacity="0.5" d="M48.5714 69.3264C48.3771 69.8383 47.8515 70.1194 47.3836 69.9464L42.7835 68.2233C42.3228 68.0503 42.0996 67.4952 42.294 66.9761L46.7573 55.167C46.9517 54.6551 47.4772 54.3739 47.9451 54.547L52.5452 56.27C53.006 56.443 53.2291 56.9982 53.0348 57.5173L48.5714 69.3264Z" fill="#1F2D42"/>
<path id="Vector_68" d="M52.2428 63.0324C52.2428 63.0324 49.0825 55.7292 50.9614 62.4124C50.9614 62.4124 46.3829 57.3585 50.8246 63.775C50.8246 63.775 45.6918 59.6295 50.5151 64.7266C50.5151 64.7266 45.9581 61.4607 49.3776 65.3899C51.8972 68.2881 52.2428 63.0324 52.2428 63.0324Z" fill="#DE7356"/>
<path id="Vector_69" d="M84.3064 83.1975L79.8071 85.865L82.6363 106.225C82.917 107.501 82.9386 111.199 80.8005 115.734C78.6696 120.276 71.917 143.267 71.4707 144.601" stroke="#B99131" stroke-width="0.46"/>
<path id="Vector_70" d="M82.9754 45.9894C82.9754 47.835 81.406 49.3274 79.4767 49.3274C77.5474 49.3274 78.8072 47.9936 75.978 45.9894C73.8112 43.4877 76.3092 39.4792 82.9754 40.1497C84.9047 40.1497 82.9754 44.1438 82.9754 45.9894Z" fill="#7A8DB5"/>
<path id="Vector_71" d="M168.009 131.962C168.009 131.962 155.454 136.418 143.972 131.869C132.489 127.319 155.008 124.991 148.953 121.278C142.906 117.565 127.738 116.822 127.839 110.283C127.99 100.341 139.919 112.951 142.582 107.868C145.246 102.785 120.129 97.6595 122.404 91.9136C124.671 86.1676 137.097 96.2681 136.463 92.1515C135.83 88.0276 119.805 76.8962 127.983 72.4263C140.077 65.8152 139.552 90.2338 144.641 87.1337C149.731 84.0336 145.332 77.1558 149.457 78.0786C156.289 79.6142 148.968 101.481 155 100.435C161.033 99.3898 157.081 87.9628 161.048 90.1184C165.014 92.274 156.685 117.615 160.069 115.885C163.452 114.155 164.525 105.157 168.045 106.405C171.565 107.652 168.023 131.962 168.023 131.962H168.009Z" fill="#67DFAE"/>
<path id="Vector_72" d="M130.956 75.7932C130.956 75.7932 160.133 124.385 164.625 130.182" stroke="#C1EEE6" stroke-width="0.9" stroke-miterlimit="10" stroke-linecap="round"/>
<path id="Vector_73" d="M130.704 95.6409L146.419 101.279L149.997 82.9739" stroke="#C1EEE6" stroke-width="0.9" stroke-miterlimit="10" stroke-linecap="round"/>
<path id="Vector_74" d="M136.708 113.138L154.972 115.474" stroke="#C1EEE6" stroke-width="0.9" stroke-miterlimit="10" stroke-linecap="round"/>
<path id="Vector_75" d="M145.426 129.302L161.789 126.288L167.505 113.282" stroke="#C1EEE6" stroke-width="0.9" stroke-miterlimit="10" stroke-linecap="round"/>
<path id="Vector_76" d="M129.66 79.0807L134.39 81.3229L134.887 75.4543" stroke="#C1EEE6" stroke-width="0.9" stroke-miterlimit="10" stroke-linecap="round"/>
<path id="Vector_77" d="M157.952 137.737C157.952 137.737 158.484 129.035 154.698 127.536C150.911 126.036 154.712 139.907 149.846 129.807C146.333 122.518 144.965 119.512 142.848 120.896C140.739 122.28 144.785 131.883 139.659 127.226C134.541 122.561 129.444 122.273 128.501 124.825C127.558 127.377 128.479 130.917 137.226 132.366C146.016 133.822 133.583 135.221 133.641 138.862C133.699 142.503 143.057 141.565 148.888 139.95C154.719 138.336 139.789 150.202 155.684 144.168C162.854 141.443 157.945 137.744 157.945 137.744L157.952 137.737Z" fill="#74C1BD"/>
<path id="Vector_78" d="M130.113 126.836C130.113 126.836 152.509 135.56 158.571 139.078" stroke="#C1EEE6" stroke-width="0.45" stroke-miterlimit="10" stroke-linecap="round"/>
<path id="Vector_79" d="M132.993 125.301L136.629 129.353L132.432 129.201" stroke="#C1EEE6" stroke-width="0.45" stroke-miterlimit="10" stroke-linecap="round"/>
<path id="Vector_80" d="M139.998 138.105C143.259 137.175 148.27 134.305 148.27 134.305L145.448 126.606" stroke="#C1EEE6" stroke-width="0.45" stroke-miterlimit="10" stroke-linecap="round"/>
<path id="Vector_81" d="M137.118 137.456L140.099 138.112L137.212 139.907" stroke="#C1EEE6" stroke-width="0.45" stroke-miterlimit="10" stroke-linecap="round"/>
<path id="Vector_82" d="M143.064 124.861L145.526 126.671L144.965 123.318" stroke="#C1EEE6" stroke-width="0.45" stroke-miterlimit="10" stroke-linecap="round"/>
<path id="Vector_83" d="M154.899 130.802L155.684 137.679" stroke="#C1EEE6" stroke-width="0.45" stroke-miterlimit="10" stroke-linecap="round"/>
<path id="Vector_84" d="M156.829 139.129L150.544 143.707" stroke="#C1EEE6" stroke-width="0.45" stroke-miterlimit="10" stroke-linecap="round"/>
<path id="Vector_85" d="M125.37 108.207C125.37 108.207 128.501 104.891 125.845 101.596C125.845 101.596 121.691 106.397 125.37 108.207Z" fill="#09B770"/>
<path id="Vector_86" d="M123.714 108.784C123.714 108.784 125.255 104.754 119.179 104.292C119.179 104.292 120.489 111.365 123.714 108.784Z" fill="#09B770"/>
<path id="Vector_87" d="M128.329 107.169C128.329 107.169 125.355 104.97 129.596 100.233C129.596 100.233 132.95 105.547 128.329 107.169Z" fill="#09B770"/>
<path id="Vector_88" d="M127.04 116.368C127.04 116.368 125.254 110.94 119.085 112.814C119.085 112.814 123.347 120.052 127.04 116.368Z" fill="#09B770"/>
<path id="Vector_89" d="M130.733 114.559C130.733 114.559 127.011 113.657 132.144 107.609C132.144 107.609 134.8 112.785 130.733 114.559Z" fill="#09B770"/>
<path id="Vector_90" d="M138.356 116.642C138.356 116.642 134.642 117.623 134.116 111.437C134.116 111.437 140.502 113.218 138.356 116.642Z" fill="#09B770"/>
<path id="Vector_91" d="M135.887 121.689C135.887 121.689 134.829 117.904 128.249 120.132C128.249 120.132 132.72 126.591 135.887 121.689Z" fill="#09B770"/>
<path id="Vector_92" d="M147.312 119.771C147.312 119.771 141.466 120.557 140.977 114.667C140.977 114.667 148.089 115.006 147.312 119.771Z" fill="#09B770"/>
<path id="Vector_93" d="M144.857 124.969C144.857 124.969 144.101 120.615 138.738 123.527C138.738 123.527 144.008 129.136 144.857 124.969Z" fill="#09B770"/>
<path id="Vector_94" d="M125.305 104.862C125.305 104.862 124.736 116.909 133.389 118.452C142.035 119.995 152.243 121.35 154.885 132.892" stroke="#129761" stroke-width="0.82" stroke-miterlimit="10" stroke-linecap="round"/>
<path id="Vector_95" d="M128.854 103.413C128.854 103.413 128.912 106.686 126.176 110.183C126.176 110.183 123.966 109.663 121.619 107.01" stroke="#129761" stroke-width="0.82" stroke-miterlimit="10" stroke-linecap="round"/>
<path id="Vector_96" d="M123.951 115.085C123.951 115.085 127.457 117.032 130.178 117.154C130.178 117.154 130.769 114.595 130.985 111.747" stroke="#129761" stroke-width="0.82" stroke-miterlimit="10" stroke-linecap="round"/>
<path id="Vector_97" d="M135.902 113.174C135.902 113.174 138.393 115.128 140.077 119.67C140.077 119.67 137.068 122.749 131.611 121.494" stroke="#129761" stroke-width="0.82" stroke-miterlimit="10" stroke-linecap="round"/>
<path id="Vector_98" d="M144.447 116.656C144.447 116.656 148.586 120.11 149.22 123.419C149.22 123.419 146.196 125.481 142.129 124.508" stroke="#129761" stroke-width="0.82" stroke-miterlimit="10" stroke-linecap="round"/>
<path id="Vector_99" d="M203.096 121.53C203.096 121.53 229.013 109.49 229.97 103.507C230.927 97.5227 222.015 103.809 220.475 99.7793C218.934 95.7492 233.303 90.8756 233.699 85.728C234.102 80.5805 224.995 86.2399 224.398 81.8782C223.8 77.5092 236.118 62.1386 224.751 60.9779C213.384 59.8171 222.965 76.9541 217.422 81.7051C211.879 86.449 211.85 76.8315 207.804 80.4074C203.759 83.9833 213.016 94.0622 208.474 98.0202C203.931 101.985 195.379 84.8845 203.104 121.538L203.096 121.53Z" fill="#67DFAE"/>
<path id="Vector_100" d="M200.973 123.455L203.104 121.523C203.104 121.523 218.927 94.365 223.635 68.072" stroke="#C1EEE6" stroke-width="0.78" stroke-miterlimit="10" stroke-linecap="round"/>
<path id="Vector_101" d="M220.863 66.075L223.117 71.4028L226.378 67.0771" stroke="#C1EEE6" stroke-width="0.78" stroke-miterlimit="10" stroke-linecap="round"/>
<path id="Vector_102" d="M210.201 83.7598L215.413 96.3187L227.378 88.0206" stroke="#C1EEE6" stroke-width="0.78" stroke-miterlimit="10" stroke-linecap="round"/>
<path id="Vector_103" d="M202.909 101.373L207.488 113.369L224.124 105.273" stroke="#C1EEE6" stroke-width="0.78" stroke-miterlimit="10" stroke-linecap="round"/>
<path id="Vector_104" d="M206.422 135.452C206.422 135.452 201.26 123.434 205.846 119.389C210.432 115.345 212.095 136.865 213.851 120.132C215.118 108.056 215.529 103.11 219.214 103.99C222.9 104.869 222.051 120.492 226.925 111.307C231.791 102.122 238.839 99.116 241.459 102.245C244.08 105.374 244.576 110.839 232.957 117.327C221.281 123.852 239.544 119.504 241.315 124.674C243.086 129.843 229.387 133.274 220.338 133.959C211.288 134.644 238.385 143.815 212.879 143.375C201.376 143.18 206.429 135.459 206.429 135.459L206.422 135.452Z" fill="#09B770"/>
<path id="Vector_105" d="M240.207 105.9C240.207 105.9 213.002 129.605 206.221 137.651" stroke="#C1EEE6" stroke-width="0.67" stroke-miterlimit="10" stroke-linecap="round"/>
<path id="Vector_106" d="M235.362 105.186L232.288 112.756L238.134 110.413" stroke="#C1EEE6" stroke-width="0.67" stroke-miterlimit="10" stroke-linecap="round"/>
<path id="Vector_107" d="M231.964 126.829C226.889 127.175 218.351 125.668 218.351 125.668L218.437 113.362" stroke="#C1EEE6" stroke-width="0.67" stroke-miterlimit="10" stroke-linecap="round"/>
<path id="Vector_108" d="M235.701 124.45L231.82 126.894L236.802 127.961" stroke="#C1EEE6" stroke-width="0.67" stroke-miterlimit="10" stroke-linecap="round"/>
<path id="Vector_109" d="M220.921 109.692L218.365 113.499L217.458 108.474" stroke="#C1EEE6" stroke-width="0.67" stroke-miterlimit="10" stroke-linecap="round"/>
<path id="Vector_110" d="M207.214 124.097L209.59 134.212" stroke="#C1EEE6" stroke-width="0.67" stroke-miterlimit="10" stroke-linecap="round"/>
<path id="Vector_111" d="M208.704 136.836L219.898 140.102" stroke="#C1EEE6" stroke-width="0.67" stroke-miterlimit="10" stroke-linecap="round"/>
<path id="Vector_112" d="M221.95 129.086C221.95 129.086 220.403 123.981 228.552 122.157C228.552 122.157 228.401 131.061 221.95 129.086Z" fill="#7A8DB5"/>
<path id="Vector_113" d="M221.771 133.649C221.771 133.649 222.073 129.504 228.379 130.744C228.379 130.744 224.485 136.886 221.771 133.649Z" fill="#7A8DB5"/>
<path id="Vector_114" d="M218.286 127.903C218.286 127.903 221.792 128.242 222.029 122.828C222.029 122.828 216.5 122.28 218.286 127.903Z" fill="#7A8DB5"/>
<path id="Vector_115" d="M226.881 124.472C226.881 124.472 211.389 142.899 190.714 128.35" stroke="#4B6590" stroke-width="0.82" stroke-miterlimit="10" stroke-linecap="round"/>
<path id="Vector_116" d="M224.794 132.842C224.794 132.842 219.647 135.452 215.457 132.294C215.457 132.294 218.322 126.635 220.748 124.594" stroke="#4B6590" stroke-width="0.82" stroke-miterlimit="10" stroke-linecap="round"/>
<path id="Vector_117" d="M234.858 84.8484C234.858 84.8484 231.121 82.2314 233.058 78.468C233.058 78.468 238.097 82.3251 234.858 84.8484Z" fill="#09B770"/>
<path id="Vector_118" d="M236.6 85.0791C236.6 85.0791 234.275 81.4456 240.128 79.7585C240.128 79.7585 240.272 86.9464 236.6 85.0791Z" fill="#09B770"/>
<path id="Vector_119" d="M231.756 84.4376C231.756 84.4376 234.225 81.6835 229.114 77.9058C229.114 77.9058 226.903 83.7887 231.756 84.4376Z" fill="#09B770"/>
<path id="Vector_120" d="M234.88 93.1753C234.88 93.1753 235.535 87.4942 241.949 88.0854C241.949 88.0854 239.235 96.0374 234.88 93.1753Z" fill="#09B770"/>
<path id="Vector_121" d="M230.899 92.1587C230.899 92.1587 234.361 90.5222 228.113 85.6414C228.113 85.6414 226.558 91.2503 230.899 92.1587Z" fill="#09B770"/>
<path id="Vector_122" d="M223.851 95.7491C223.851 95.7491 227.688 95.9582 226.954 89.7869C226.954 89.7869 221.065 92.8293 223.851 95.7491Z" fill="#09B770"/>
<path id="Vector_123" d="M227.292 100.19C227.292 100.19 227.566 96.2681 234.455 97.1188C234.455 97.1188 231.381 104.35 227.292 100.19Z" fill="#09B770"/>
<path id="Vector_124" d="M234.254 81.5608C234.254 81.5608 237.249 93.2402 229.092 96.506C220.936 99.7719 211.217 103.175 210.958 115.013" stroke="#129761" stroke-width="0.82" stroke-miterlimit="10" stroke-linecap="round"/>
<path id="Vector_125" d="M230.488 80.8616C230.488 80.8616 231.093 84.077 234.476 86.9464C234.476 86.9464 236.535 85.9875 238.299 82.9163" stroke="#129761" stroke-width="0.82" stroke-miterlimit="10" stroke-linecap="round"/>
<path id="Vector_126" d="M237.644 91.3009C237.644 91.3009 234.599 93.918 231.964 94.5885C231.964 94.5885 230.87 92.2021 230.078 89.4553" stroke="#129761" stroke-width="0.82" stroke-miterlimit="10" stroke-linecap="round"/>
<path id="Vector_127" d="M225.55 91.856C225.55 91.856 223.505 94.2783 222.778 99.0654C222.778 99.0654 226.349 101.466 231.439 99.1303" stroke="#129761" stroke-width="0.82" stroke-miterlimit="10" stroke-linecap="round"/>
<path id="Vector_128" opacity="0.1" d="M173.149 157.332C199.562 157.332 220.971 155.689 220.971 153.663C220.971 151.637 199.562 149.993 173.149 149.993C146.736 149.993 125.326 151.637 125.326 153.663C125.326 155.689 146.736 157.332 173.149 157.332Z" fill="#2F3F5C"/>
<path id="Vector_129" d="M225.291 35.5283C225.824 31.6712 223.138 28.117 219.287 27.5834L170.867 20.857C167.015 20.3235 163.466 23.0126 162.934 26.8697L162.451 30.3519C161.796 30.5033 161.263 31.044 161.17 31.7577L160.839 34.1369C160.738 34.8434 161.105 35.5067 161.695 35.8383L160.824 42.125C160.169 42.2764 159.637 42.8171 159.543 43.5308L158.823 48.7433C158.722 49.4498 159.089 50.1131 159.68 50.4447L159.269 53.4006C158.614 53.552 158.082 54.0927 157.988 54.8064L157.268 60.0189C157.167 60.7254 157.534 61.3887 158.125 61.7203L147.535 138.184C147.002 142.041 149.688 145.595 153.539 146.129L201.959 152.855C205.811 153.389 209.36 150.7 209.892 146.843L225.298 35.5499L225.291 35.5283Z" fill="#2F3F5C"/>
<path id="Vector_130" d="M159.457 49.0244C159.327 49.9472 158.485 50.5889 157.563 50.4591C156.642 50.3293 156.001 49.4858 156.131 48.563L156.851 43.3505C156.98 42.4277 157.823 41.7861 158.744 41.9158C159.666 42.0456 160.306 42.8891 160.177 43.8119L159.457 49.0244Z" fill="#4B6590"/>
<path id="Vector_131" d="M157.894 60.293C157.765 61.2158 156.922 61.8574 156.001 61.7276C155.08 61.5979 154.439 60.7544 154.568 59.8315L155.288 54.6191C155.418 53.6963 156.26 53.0546 157.182 53.1844C158.103 53.3142 158.744 54.1577 158.614 55.0805L157.894 60.293Z" fill="#4B6590"/>
<path id="Vector_132" d="M207.192 146.655C206.659 150.512 203.11 153.201 199.259 152.668L150.839 145.942C146.987 145.408 144.302 141.847 144.835 137.997L160.241 26.7039C160.773 22.8469 164.322 20.1577 168.174 20.6912L216.594 27.4177C220.445 27.9512 223.131 31.5055 222.598 35.3625L207.192 146.655Z" fill="#5D77A6"/>
<path id="Vector_133" d="M162.249 30.5393L148.571 129.381L205.94 137.348L219.618 38.5058L162.249 30.5393Z" fill="#FFF8F1"/>
<path id="Vector_134" opacity="0.8" d="M196.754 30.3232C196.689 30.7702 196.286 31.073 195.84 31.0153L187.82 29.905C187.374 29.8401 187.072 29.4364 187.129 28.9894C187.194 28.5424 187.597 28.2396 188.043 28.2973L196.063 29.4076C196.502 29.4653 196.812 29.8762 196.754 30.3232Z" fill="#7A8DB5"/>
<path id="Vector_135" opacity="0.8" d="M181.637 141.522C181.248 144.334 178.656 146.295 175.856 145.905C173.048 145.516 171.09 142.921 171.479 140.116C171.868 137.305 174.459 135.344 177.26 135.733C180.067 136.122 182.025 138.718 181.637 141.522Z" fill="#7A8DB5" stroke="#5D77A6" stroke-width="1.5" stroke-miterlimit="10"/>
<path id="Vector_136" d="M184.091 95.2949C184.091 95.2949 198.777 98.6113 206.473 98.6113C214.168 98.6113 205.983 110.312 205.983 110.312C205.983 110.312 179.21 114.061 179.153 106.902C179.102 99.7432 184.091 95.2949 184.091 95.2949Z" fill="#936055"/>
<path id="Vector_137" d="M159.874 109.973C159.874 109.973 150.27 125.445 147.708 132.712C145.145 139.979 136.967 128.084 136.967 128.084C136.967 128.084 144.799 98.6401 152.171 97.7677C159.269 96.9242 159.874 109.973 159.874 109.973Z" fill="#936055"/>
<path id="Vector_138" d="M205.976 110.312L211.915 110.478L212.987 98.2292L206.465 98.6113L205.976 110.312Z" fill="#FFA143"/>
<path id="Vector_139" d="M218.61 96.5565L222.562 96.3474L225.434 96.196L230.61 128.999C230.61 128.999 229.336 129.252 227.731 129.122C225.845 128.97 223.512 128.293 222.281 126.058C218.07 118.401 212.843 112.316 211.699 111.473C211.18 111.091 210.864 110.449 210.856 109.771L211.087 99.3322C211.087 98.3877 211.67 97.5947 212.498 97.4361L215.197 96.9026C216.313 96.6863 217.451 96.5637 218.595 96.5493L218.61 96.5565Z" fill="#12897B"/>
<path id="Vector_140" d="M222.562 96.3546L225.435 96.2032L225.456 96.333L227.587 95.9941L228.192 99.808L226.061 100.147L226.601 103.571L228.732 103.232L229.344 107.09L227.213 107.428L227.71 110.572L229.841 110.233L230.453 114.09L228.322 114.429L228.854 117.788L230.985 117.45L231.597 121.307L229.466 121.645L230.028 125.2L232.159 124.861L232.763 128.675L230.632 129.014C230.632 129.014 229.358 129.266 227.753 129.136L222.577 96.3546H222.562Z" fill="#FF7500"/>
<path id="Vector_141" d="M217.782 118.884C217.869 118.884 217.948 118.834 217.984 118.747L219.409 114.652C219.445 114.544 219.388 114.422 219.28 114.386C219.172 114.35 219.049 114.407 219.013 114.515L217.588 118.61C217.552 118.719 217.609 118.841 217.717 118.877C217.739 118.884 217.761 118.892 217.789 118.892L217.782 118.884Z" fill="#FF7500"/>
<path id="Vector_142" d="M215.86 116.354C215.947 116.354 216.026 116.303 216.062 116.217L217.487 112.122C217.523 112.014 217.466 111.891 217.358 111.855C217.25 111.819 217.127 111.877 217.091 111.985L215.666 116.08C215.63 116.188 215.688 116.31 215.796 116.346C215.817 116.354 215.839 116.361 215.868 116.361L215.86 116.354Z" fill="#FF7500"/>
<path id="Vector_143" d="M212.973 121.278C213.146 121.278 213.319 121.242 213.492 121.184C215.183 120.542 216.033 116.851 216.069 116.7C216.098 116.584 216.026 116.476 215.911 116.448C215.795 116.419 215.687 116.491 215.659 116.606C215.651 116.642 214.823 120.232 213.341 120.795C212.959 120.939 212.57 120.86 212.145 120.55C211.75 120.261 211.577 119.944 211.606 119.584C211.706 118.279 214.384 116.635 215.414 116.109C215.443 116.094 215.464 116.08 215.486 116.051C215.529 115.979 215.536 115.943 215.529 115.9C215.515 115.82 215.479 115.763 215.428 115.734C215.313 115.669 212.628 114.112 211.188 114.523C210.842 114.616 210.591 114.818 210.439 115.107C210.259 115.453 210.339 115.691 210.439 115.835C210.9 116.491 212.959 116.397 214.298 116.26C213.132 116.974 211.296 118.293 211.195 119.548C211.152 120.059 211.397 120.514 211.908 120.889C212.268 121.148 212.628 121.285 212.981 121.285L212.973 121.278ZM214.651 115.791C213.053 115.979 211.094 116.029 210.778 115.59C210.756 115.561 210.706 115.489 210.806 115.301C210.907 115.114 211.066 114.984 211.303 114.919C212.21 114.66 213.801 115.359 214.651 115.791Z" fill="#FF7500"/>
<path id="Vector_144" d="M136.96 128.084L134.692 133.585L145.743 138.948L147.708 132.712L136.967 128.084H136.96Z" fill="#FFA143"/>
<path id="Vector_145" d="M209.518 94.4443V114.58C202.643 116.109 187.143 116.145 178.426 112.468C169.031 108.51 164.776 99.6496 164.776 99.6496L177.065 82.1089C177.065 82.1089 183.53 89.8951 193.284 92.4761C193.702 92.5843 209.086 94.3434 209.518 94.4443Z" fill="#50539E"/>
<path id="Vector_146" d="M145.296 144.802L144.079 148.573L143.194 151.313L110.741 144.485C110.741 144.485 110.964 143.202 111.648 141.746C112.462 140.037 113.923 138.09 116.443 137.737C125.089 136.519 132.626 133.794 133.821 133.022C134.361 132.676 135.074 132.604 135.707 132.842L145.368 136.778C146.246 137.11 146.779 137.946 146.635 138.775L146.167 141.486C145.973 142.611 145.678 143.721 145.289 144.795L145.296 144.802Z" fill="#12897B"/>
<path id="Vector_147" d="M144.086 148.573L143.201 151.313L143.071 151.284L142.625 153.396L138.853 152.603L139.299 150.491L135.916 149.777L135.469 151.889L131.654 151.089L132.1 148.977L128.99 148.321L128.544 150.433L124.728 149.633L125.175 147.52L121.856 146.821L121.41 148.933L117.594 148.133L118.041 146.021L114.52 145.278L114.074 147.391L110.302 146.598L110.748 144.485C110.748 144.485 110.971 143.202 111.655 141.746L144.086 148.566V148.573Z" fill="#FF7500"/>
<path id="Vector_148" d="M128.27 139.157C128.328 139.157 128.393 139.136 128.429 139.085C128.501 138.999 128.493 138.862 128.4 138.79L125.088 136C125.002 135.928 124.865 135.935 124.793 136.029C124.721 136.115 124.728 136.252 124.815 136.324L128.126 139.114C128.17 139.15 128.213 139.165 128.263 139.165L128.27 139.157Z" fill="#FF7500"/>
<path id="Vector_149" d="M131.316 138.249C131.374 138.249 131.439 138.22 131.475 138.177C131.547 138.09 131.539 137.953 131.453 137.881L128.141 135.091C128.055 135.019 127.918 135.026 127.846 135.12C127.774 135.207 127.781 135.344 127.875 135.416L131.187 138.206C131.223 138.242 131.273 138.256 131.323 138.256L131.316 138.249Z" fill="#FF7500"/>
<path id="Vector_150" d="M127.529 135.293C127.594 135.293 127.666 135.257 127.702 135.199C127.767 135.106 127.738 134.969 127.644 134.904C127.615 134.882 124.556 132.835 124.563 131.249C124.563 130.838 124.779 130.499 125.218 130.218C125.628 129.951 125.981 129.9 126.312 130.059C127.493 130.621 128.076 133.714 128.199 134.861C128.199 134.889 128.213 134.918 128.227 134.947C128.227 134.961 128.242 134.969 128.256 134.983C128.285 135.012 128.314 135.034 128.35 135.048C128.429 135.062 128.494 135.048 128.544 135.012C128.645 134.925 131.056 132.972 131.186 131.472C131.215 131.119 131.121 130.809 130.905 130.564C130.646 130.268 130.394 130.261 130.229 130.304C129.451 130.506 128.81 132.46 128.458 133.765C128.206 132.424 127.63 130.232 126.492 129.691C126.024 129.468 125.521 129.533 124.988 129.879C124.433 130.239 124.146 130.708 124.146 131.263C124.146 133.073 127.284 135.185 127.414 135.272C127.45 135.293 127.486 135.308 127.529 135.308V135.293ZM130.365 130.693C130.409 130.693 130.481 130.715 130.581 130.83C130.718 130.996 130.783 131.191 130.761 131.429C130.675 132.366 129.458 133.613 128.76 134.255C129.156 132.691 129.804 130.838 130.329 130.708C130.337 130.708 130.351 130.708 130.373 130.708L130.365 130.693Z" fill="#FF7500"/>
<path id="Vector_151" d="M134.692 129.756L149.501 136.151C149.501 136.151 168.045 108.488 172.436 101.098C178.779 90.4212 183.897 82.3971 182.241 73.2194C180.982 66.2046 157.729 76.8818 157.729 76.8818C157.729 76.8818 142.352 104.35 134.692 129.756Z" fill="#50539E"/>
<path id="Vector_152" d="M183.177 45.7296C183.177 45.7296 188.836 47.8997 193.652 52.4489C198.612 57.135 200.807 67.8123 200.807 67.8123L194.35 70.934C194.35 70.934 189.887 63.8254 185.711 61.4968C181.536 59.1681 178.016 57.856 178.016 57.856L183.17 45.7224L183.177 45.7296Z" fill="#936055"/>
<path id="Vector_153" d="M151.789 61.7564C151.789 61.7564 145.425 64.8132 138.629 61.1003C132.086 57.5244 126.845 47.1644 126.845 47.1644L131.106 41.9231C131.106 41.9231 138.953 47.9286 143.517 49.3561C148.074 50.7835 151.789 51.3531 151.789 51.3531V61.7564Z" fill="#936055"/>
<path id="Vector_154" d="M132.914 44.5834C132.914 44.5834 132.648 40.5893 132.216 39.6449C131.777 38.7004 129.703 37.7488 129.703 37.7488C129.703 37.7488 126.32 35.4345 125.341 35.759C124.355 36.0762 124.139 37.9074 124.139 37.9074C124.139 37.9074 120.489 41.0219 120.316 43.7759C120.143 46.5299 128.652 49.8319 128.652 49.8319L132.914 47.7772V44.5906V44.5834Z" fill="#936055"/>
<path id="Vector_155" d="M146.664 64.6545V49.94C146.664 49.94 151.725 45.398 164.762 43.091C178.015 40.7479 192.111 48.8081 192.111 48.8081L186.15 62.4268L181.939 60.8551L183.155 75.5841L155.519 78.1507L153.906 64.2724L146.664 64.6473V64.6545Z" fill="#FF7500"/>
<path id="Vector_156" d="M169.146 39.0682L169.247 43.7039C169.247 43.7039 168.44 45.0521 165.734 45.3333C163.718 45.5424 162.998 45.0954 162.998 45.0954L163.228 42.7379L163.459 40.4453L168.325 39.2629L169.146 39.061V39.0682Z" fill="#936055"/>
<path id="Vector_157" d="M168.332 39.27C168.325 39.3998 168.282 39.544 168.21 39.717C167.224 42.0529 164.402 42.6152 163.235 42.745L163.466 40.4524L168.332 39.27Z" fill="black"/>
<path id="Vector_158" d="M162.206 29.9048C162.206 29.9048 159.902 35.7733 160.925 38.9815C161.954 42.1898 164.884 41.5698 166.626 40.8776C168.368 40.1855 169.146 39.0681 169.146 39.0681C169.146 39.0681 170.816 39.5655 171.86 37.9938C172.904 36.415 172.162 34.6775 171.205 34.3098C170.247 33.9421 169.153 34.6631 169.153 34.6631L169.967 32.9544C169.967 32.9544 165.964 24.5626 162.199 29.9048H162.206Z" fill="#936055"/>
<path id="Vector_159" d="M169.513 37.3813C169.571 37.3813 169.628 37.3596 169.672 37.3092L171.162 35.5789C171.241 35.4924 171.226 35.3554 171.14 35.2833C171.054 35.204 170.917 35.2184 170.845 35.3049L169.355 37.0352C169.276 37.1217 169.29 37.2587 169.376 37.3308C169.42 37.3668 169.463 37.3813 169.513 37.3813Z" fill="black"/>
<path id="Vector_160" d="M162.739 37.2515C162.739 37.2515 162.79 37.2515 162.811 37.2371C162.919 37.201 162.977 37.0784 162.941 36.9703C162.574 35.9321 163.308 34.7642 163.315 34.7498C163.38 34.6489 163.351 34.5191 163.25 34.4614C163.157 34.3965 163.02 34.4254 162.962 34.5263C162.926 34.584 162.106 35.8817 162.545 37.1145C162.574 37.201 162.66 37.2515 162.747 37.2515H162.739Z" fill="black"/>
<path id="Vector_161" d="M166.166 32.8824C166.166 32.8824 166.238 32.8752 166.267 32.8536C166.368 32.7959 166.404 32.6661 166.346 32.5652C165.914 31.8082 164.942 32.0461 164.899 32.0605C164.784 32.0894 164.719 32.2047 164.748 32.3129C164.777 32.4282 164.892 32.4931 165.007 32.4643C165.036 32.4643 165.713 32.2912 165.986 32.7671C166.022 32.8319 166.094 32.8752 166.166 32.8752V32.8824Z" fill="black"/>
<path id="Vector_162" d="M163.294 39.0177C163.373 39.0033 164.337 38.8014 164.748 38.0732C164.805 37.9723 164.769 37.8425 164.669 37.7848C164.568 37.7272 164.438 37.7632 164.381 37.8642C164.064 38.4265 163.258 38.5995 163.25 38.5995C163.135 38.6212 163.063 38.7365 163.085 38.8446C163.106 38.9456 163.193 39.0105 163.294 39.0105V39.0177Z" fill="black"/>
<path id="Vector_163" d="M161.94 34.6056C162.041 34.6056 162.128 34.5335 162.149 34.4326L162.336 33.4232C162.358 33.3079 162.279 33.1997 162.171 33.1781C162.056 33.1637 161.948 33.2358 161.926 33.3439L161.739 34.3532C161.717 34.4686 161.797 34.5767 161.904 34.5984C161.919 34.5984 161.933 34.5984 161.94 34.5984V34.6056Z" fill="black"/>
<path id="Vector_164" d="M161.695 32.4138C161.745 32.4138 161.796 32.3922 161.839 32.3561C161.933 32.2624 162.235 32.0317 162.509 32.0605C162.638 32.075 162.753 32.1399 162.854 32.2768C162.926 32.3706 163.056 32.3922 163.149 32.3201C163.243 32.248 163.264 32.1182 163.192 32.0245C163.02 31.7938 162.797 31.664 162.545 31.6424C162.033 31.5919 161.573 32.0389 161.551 32.0605C161.465 32.1399 161.465 32.2768 161.551 32.3561C161.594 32.3994 161.645 32.421 161.702 32.421L161.695 32.4138Z" fill="black"/>
<path id="Vector_165" d="M164.762 34.8146C164.863 34.8146 164.949 34.7425 164.971 34.6416L165.158 33.6322C165.179 33.5169 165.1 33.4087 164.992 33.3871C164.877 33.3655 164.769 33.4448 164.747 33.5529L164.56 34.5623C164.539 34.6776 164.618 34.7858 164.726 34.8074C164.74 34.8074 164.755 34.8074 164.762 34.8074V34.8146Z" fill="black"/>
<path id="Vector_166" d="M171.155 36.8693C171.263 36.8693 171.349 36.79 171.364 36.6819C171.378 36.5665 171.292 36.4656 171.176 36.4512L170.089 36.3358C169.974 36.3214 169.873 36.4079 169.859 36.5232C169.845 36.6386 169.931 36.7395 170.046 36.7539L171.133 36.8693C171.133 36.8693 171.148 36.8693 171.155 36.8693Z" fill="black"/>
<path id="Vector_167" d="M120.985 45.3043C120.985 45.3043 123.98 48.8658 125.557 47.5609C127.126 46.256 128.983 43.4515 128.983 43.4515L125.074 39.1763L120.993 45.3043H120.985Z" fill="#936055"/>
<path id="Vector_168" d="M169.096 34.7785C169.096 34.7785 167.85 34.555 167.087 33.2068C166.324 31.8515 166.166 29.9193 166.166 29.9193C166.166 29.9193 165.388 30.8998 163.732 30.8421C162.084 30.7917 162.221 30.0779 162.221 30.0779L161.933 30.5465C161.933 30.5465 161.45 27.7493 163.919 27.2879C166.389 26.8264 166.158 26.5525 166.158 26.5525C166.158 26.5525 170.211 26.7471 172.018 29.4507C173.832 32.1543 171.975 34.9876 171.975 34.9876C171.975 34.9876 170.845 33.8485 169.088 34.7785H169.096Z" fill="black"/>
<path id="Vector_169" d="M126.089 39.8539C126.146 39.8539 126.204 39.8323 126.247 39.7818C126.326 39.6953 126.319 39.5655 126.233 39.4862L124.282 37.7415C124.196 37.6622 124.066 37.6694 123.987 37.7559C123.908 37.8424 123.915 37.9722 124.001 38.0515L125.952 39.7962C125.995 39.8323 126.038 39.8467 126.089 39.8467V39.8539Z" fill="black"/>
<path id="Vector_170" d="M131.625 38.9384C131.625 38.9384 125.981 38.4986 126.089 40.2938C126.197 42.089 128.854 42.0169 128.854 42.0169C128.854 42.0169 128.544 46.2344 131.229 46.6093L131.618 38.9384H131.625Z" fill="#936055"/>
<path id="Vector_171" d="M131.23 46.8184C131.331 46.8184 131.424 46.7391 131.439 46.6382C131.453 46.5228 131.374 46.4147 131.259 46.4003C128.797 46.0542 129.063 42.0746 129.063 42.0313C129.063 41.9736 129.049 41.916 129.005 41.8727C128.962 41.8295 128.89 41.815 128.847 41.8078C128.825 41.8078 126.392 41.8511 126.299 40.2794C126.291 40.1064 126.349 39.9622 126.486 39.8252C127.314 39.0105 130.467 39.061 131.604 39.1475C131.719 39.1691 131.82 39.0682 131.827 38.9529C131.835 38.8375 131.748 38.7366 131.633 38.7294C131.46 38.715 127.321 38.4122 126.183 39.5296C125.96 39.7531 125.852 40.0127 125.874 40.3082C125.96 41.7718 127.602 42.1971 128.631 42.226C128.602 43.1416 128.689 46.4651 131.201 46.8184C131.208 46.8184 131.223 46.8184 131.23 46.8184Z" fill="black"/>
<path id="Vector_172" d="M124.83 45.7586C124.83 45.7586 126.471 45.3333 126.608 44.4249C126.752 43.5093 122.454 40.4092 122.454 40.4092L124.823 45.7658L124.83 45.7586Z" fill="#936055"/>
<path id="Vector_173" d="M124.83 45.9677C124.83 45.9677 124.866 45.9677 124.88 45.9677C124.952 45.9461 126.658 45.4991 126.816 44.4609C126.968 43.4949 123.613 40.986 122.583 40.2434C122.49 40.1713 122.36 40.1929 122.288 40.2938C122.224 40.3876 122.238 40.5173 122.339 40.5894C124.354 42.0458 126.478 43.9202 126.406 44.4033C126.305 45.0377 125.197 45.463 124.779 45.5712C124.664 45.6 124.599 45.7154 124.628 45.8307C124.657 45.9245 124.743 45.9893 124.837 45.9893L124.83 45.9677Z" fill="black"/>
<path id="Vector_174" d="M123.958 47.5611C123.958 47.5611 125.413 46.7176 124.837 45.7515C124.254 44.7854 120.812 43.3291 120.812 43.3291L123.966 47.5611H123.958Z" fill="#936055"/>
<path id="Vector_175" d="M123.958 47.7701C123.994 47.7701 124.03 47.7629 124.066 47.7412C124.102 47.7196 124.959 47.2149 125.146 46.494C125.225 46.1984 125.175 45.91 125.017 45.6433C124.419 44.6484 121.251 43.2858 120.892 43.1344C120.784 43.0911 120.661 43.1344 120.618 43.2497C120.575 43.3579 120.618 43.4804 120.733 43.5237C121.676 43.9202 124.21 45.117 124.657 45.8596C124.757 46.0326 124.786 46.2056 124.743 46.3858C124.599 46.9338 123.865 47.3663 123.858 47.3735C123.757 47.4312 123.721 47.561 123.778 47.6619C123.814 47.7268 123.886 47.7701 123.958 47.7701Z" fill="black"/>
<path id="Vector_176" d="M126.795 44.2517C127.097 44.2517 127.544 44.1868 127.86 43.8552C128.249 43.4515 128.343 42.7882 128.127 41.8798C128.098 41.7645 127.99 41.6924 127.875 41.7212C127.76 41.75 127.695 41.8582 127.716 41.9735C127.889 42.7233 127.839 43.2712 127.558 43.5596C127.198 43.9273 126.543 43.812 126.536 43.812C126.421 43.7903 126.313 43.8624 126.291 43.9778C126.269 44.0931 126.341 44.2013 126.457 44.2229C126.471 44.2229 126.608 44.2517 126.795 44.2517Z" fill="black"/>
<path id="Vector_177" d="M172.22 34.7785C172.22 34.7785 159.06 29.5588 158.311 28.3548C157.555 27.1436 161.882 28.5062 161.882 28.5062C161.882 28.5062 164.546 23.2001 170.391 26.1992C175.718 28.9316 172.227 34.7785 172.227 34.7785H172.22Z" fill="#FF7500"/>
<path id="Vector_178" d="M169.514 43.5813C169.514 43.5813 169.78 41.1734 169.197 41.4329C168.614 41.6924 166.627 42.608 165.554 42.745C164.482 42.882 163.056 41.815 162.869 42.2332C162.682 42.6513 162.617 45.3837 162.617 45.3837C162.617 45.3837 166.137 47.8565 169.514 43.5741V43.5813Z" fill="#FF7500"/>
<path id="Vector_179" d="M161.242 50.3007C161.285 50.2646 161.321 50.2718 161.379 50.3007L161.422 50.3223C161.465 50.3439 161.515 50.3511 161.559 50.3511C161.602 50.3511 161.638 50.3439 161.667 50.3223C161.695 50.3079 161.71 50.279 161.71 50.2502C161.71 50.2213 161.695 50.1997 161.674 50.1853C161.645 50.1709 161.609 50.1565 161.559 50.1348C161.508 50.1204 161.465 50.106 161.429 50.0844C161.393 50.07 161.357 50.0483 161.335 50.0195C161.307 49.9979 161.292 49.969 161.278 49.9402C161.263 49.9113 161.256 49.8753 161.256 49.832C161.256 49.7744 161.271 49.7239 161.299 49.6734C161.328 49.6302 161.357 49.5869 161.4 49.5581C161.443 49.5292 161.494 49.5004 161.551 49.486C161.609 49.4716 161.674 49.4644 161.731 49.4644C161.811 49.4644 161.89 49.4788 161.962 49.5076C162.034 49.5364 162.091 49.5725 162.135 49.6302L161.998 49.7455C161.955 49.7816 161.919 49.7816 161.875 49.7527L161.839 49.7311C161.839 49.7311 161.76 49.7023 161.717 49.7023C161.681 49.7023 161.645 49.7095 161.616 49.7239C161.587 49.7383 161.573 49.7599 161.573 49.796C161.573 49.8176 161.587 49.8392 161.609 49.8537C161.631 49.8681 161.667 49.8825 161.71 49.8897C161.811 49.9186 161.89 49.9546 161.947 50.0051C162.005 50.0555 162.034 50.1204 162.034 50.2141C162.034 50.279 162.019 50.3367 161.991 50.38C161.962 50.4304 161.926 50.4665 161.883 50.4953C161.839 50.5241 161.789 50.5458 161.731 50.5602C161.674 50.5746 161.616 50.5818 161.559 50.5818C161.458 50.5818 161.371 50.5674 161.299 50.5314C161.22 50.4953 161.163 50.4521 161.112 50.3944L161.256 50.2646L161.242 50.3007Z" fill="black"/>
<path id="Vector_180" d="M162.689 50.6033C162.61 50.6033 162.538 50.5961 162.473 50.5745C162.408 50.5528 162.35 50.524 162.3 50.4807C162.25 50.4375 162.214 50.3942 162.185 50.3366C162.156 50.2789 162.142 50.214 162.142 50.1419C162.142 50.0554 162.156 49.9689 162.185 49.8896C162.214 49.8103 162.257 49.7382 162.314 49.6805C162.372 49.6228 162.437 49.5724 162.516 49.5363C162.595 49.5003 162.689 49.4858 162.782 49.4858C162.861 49.4858 162.933 49.493 162.998 49.5147C163.063 49.5363 163.121 49.5651 163.171 49.6084C163.221 49.6517 163.257 49.6949 163.286 49.7526C163.315 49.8103 163.329 49.8752 163.329 49.9472C163.329 50.0338 163.315 50.1203 163.286 50.1996C163.257 50.2789 163.214 50.351 163.157 50.4087C163.099 50.4663 163.034 50.5168 162.948 50.5528C162.869 50.5889 162.775 50.6033 162.674 50.6033H162.689ZM163.005 49.9833C163.005 49.9184 162.984 49.8679 162.948 49.8247C162.912 49.7814 162.854 49.7598 162.782 49.7598C162.739 49.7598 162.696 49.767 162.66 49.7886C162.624 49.8103 162.595 49.8319 162.566 49.8607C162.538 49.8896 162.523 49.9256 162.509 49.9689C162.494 50.0121 162.487 50.0554 162.487 50.0986C162.487 50.1635 162.509 50.214 162.545 50.2573C162.581 50.3005 162.638 50.3221 162.71 50.3221C162.754 50.3221 162.797 50.3149 162.833 50.2933C162.869 50.2789 162.905 50.25 162.926 50.2212C162.955 50.1924 162.969 50.1563 162.984 50.1131C162.998 50.0698 163.005 50.0266 163.005 49.9833Z" fill="black"/>
<path id="Vector_181" d="M163.998 50.6465C163.97 50.6898 163.926 50.7691 163.898 50.8124C163.898 50.8124 163.883 50.834 163.854 50.8773C163.826 50.9205 163.79 50.9566 163.754 50.9854C163.718 51.0142 163.675 51.0359 163.631 51.0503C163.581 51.0647 163.531 51.0719 163.466 51.0719C163.401 51.0719 163.343 51.0647 163.293 51.0503L163.329 50.8628C163.336 50.8124 163.372 50.7763 163.408 50.7835H163.444C163.495 50.7835 163.531 50.7691 163.559 50.7475C163.588 50.7259 163.61 50.6898 163.639 50.6393C163.667 50.5889 163.675 50.5096 163.667 50.4591L163.466 49.594C163.451 49.5435 163.487 49.5002 163.538 49.5002H163.718C163.768 49.5002 163.818 49.5435 163.833 49.594L163.912 50.0986C163.919 50.1491 163.926 50.1924 163.926 50.1924C163.926 50.1924 163.948 50.1563 163.97 50.1058L164.236 49.5868C164.258 49.5363 164.322 49.5002 164.38 49.5002H164.546C164.596 49.5002 164.625 49.5363 164.596 49.5868L163.998 50.6393V50.6465Z" fill="black"/>
<path id="Vector_182" d="M165.575 49.0532C165.582 49.0027 165.633 48.9595 165.69 48.9595H165.834C165.885 48.9595 165.921 49.0027 165.913 49.0532L165.661 50.4735C165.654 50.5239 165.604 50.5672 165.546 50.5672H165.431C165.381 50.5672 165.337 50.5383 165.345 50.4951C165.345 50.4518 165.359 50.423 165.352 50.423C165.345 50.423 165.316 50.459 165.287 50.4951C165.287 50.4951 165.265 50.5167 165.201 50.5456C165.136 50.5744 165.071 50.5888 164.992 50.5888C164.927 50.5888 164.862 50.5744 164.805 50.5528C164.747 50.5311 164.704 50.4951 164.668 50.459C164.632 50.4158 164.603 50.3725 164.582 50.3149C164.56 50.2572 164.553 50.1995 164.553 50.1346C164.553 50.0409 164.567 49.9616 164.596 49.8823C164.625 49.803 164.668 49.7309 164.718 49.6732C164.769 49.6155 164.833 49.5651 164.905 49.529C164.977 49.493 165.057 49.4786 165.143 49.4786C165.222 49.4786 165.287 49.493 165.345 49.5218C165.402 49.5506 165.445 49.5939 165.474 49.6444C165.474 49.6444 165.489 49.6011 165.496 49.5506L165.582 49.0532H165.575ZM164.891 50.0986C164.891 50.1635 164.913 50.2139 164.949 50.2572C164.985 50.3004 165.042 50.3221 165.114 50.3221C165.157 50.3221 165.193 50.3149 165.237 50.2932C165.273 50.2788 165.309 50.25 165.33 50.2211C165.359 50.1923 165.381 50.1562 165.395 50.113C165.409 50.0697 165.417 50.0265 165.417 49.9832C165.417 49.9183 165.395 49.8679 165.359 49.8246C165.316 49.7814 165.265 49.7597 165.201 49.7597C165.157 49.7597 165.114 49.7669 165.078 49.7886C165.042 49.803 165.013 49.8318 164.985 49.8607C164.956 49.8895 164.941 49.9255 164.927 49.9688C164.913 50.0121 164.905 50.0553 164.905 50.0986H164.891Z" fill="black"/>
<path id="Vector_183" d="M166.31 50.1347C166.259 50.1347 166.209 50.1347 166.209 50.1491C166.209 50.1852 166.209 50.214 166.23 50.2356C166.245 50.2573 166.259 50.2789 166.281 50.2933C166.302 50.3077 166.331 50.3221 166.353 50.3293C166.381 50.3366 166.41 50.3438 166.439 50.3438C166.489 50.3438 166.54 50.3366 166.583 50.3149C166.626 50.2933 166.662 50.2645 166.691 50.2356L166.828 50.3438C166.871 50.3798 166.871 50.4303 166.828 50.4663C166.828 50.4663 166.756 50.524 166.677 50.5601C166.59 50.5889 166.504 50.6105 166.41 50.6105C166.338 50.6105 166.266 50.6033 166.202 50.5817C166.137 50.5601 166.086 50.5312 166.036 50.488C165.993 50.4447 165.95 50.3942 165.928 50.3366C165.899 50.2789 165.885 50.2068 165.885 50.1347C165.885 50.041 165.899 49.9617 165.935 49.8824C165.964 49.8031 166.014 49.7382 166.065 49.6733C166.122 49.6156 166.187 49.5724 166.266 49.5363C166.346 49.5003 166.432 49.4858 166.525 49.4858C166.597 49.4858 166.655 49.493 166.713 49.5147C166.77 49.5363 166.821 49.5651 166.864 49.6012C166.907 49.6372 166.936 49.6877 166.957 49.7382C166.979 49.7958 166.993 49.8607 166.993 49.9328C166.993 49.9617 166.993 49.9905 166.986 50.0266C166.986 50.0626 166.972 50.1059 166.965 50.1347H166.302H166.31ZM166.605 49.9256C166.655 49.9256 166.705 49.9256 166.705 49.9112V49.8824C166.705 49.8391 166.691 49.7958 166.655 49.767C166.619 49.7382 166.576 49.7165 166.511 49.7165C166.475 49.7165 166.439 49.7165 166.41 49.7382C166.381 49.7526 166.353 49.767 166.331 49.7886C166.31 49.8103 166.288 49.8319 166.274 49.8535C166.259 49.8752 166.252 49.904 166.245 49.9256H166.605Z" fill="black"/>
<path id="Vector_184" d="M167.166 50.5672C167.116 50.5672 167.08 50.5239 167.087 50.4735L167.339 49.0532C167.346 49.0027 167.396 48.9595 167.454 48.9595H167.605C167.656 48.9595 167.692 49.0027 167.684 49.0532L167.432 50.4735C167.425 50.5239 167.375 50.5672 167.317 50.5672H167.166Z" fill="black"/>
<path id="Vector_185" d="M167.742 50.5673C167.692 50.5673 167.656 50.524 167.663 50.4736L167.814 49.6084C167.821 49.558 167.872 49.5147 167.929 49.5147H168.081C168.131 49.5147 168.167 49.558 168.16 49.6084L168.001 50.4808C167.994 50.5312 167.944 50.5745 167.886 50.5745H167.742V50.5673ZM168.246 49.1542C168.246 49.1542 168.246 49.2119 168.232 49.2335C168.225 49.2552 168.21 49.2768 168.189 49.2984C168.174 49.32 168.153 49.3345 168.124 49.3417C168.102 49.3489 168.073 49.3561 168.045 49.3561C167.994 49.3561 167.944 49.3417 167.915 49.3056C167.879 49.2768 167.865 49.2335 167.865 49.1831C167.865 49.1254 167.886 49.0749 167.922 49.0389C167.958 49.0028 168.009 48.9812 168.066 48.9812C168.117 48.9812 168.16 48.9956 168.196 49.0317C168.232 49.0677 168.246 49.1038 168.246 49.1542Z" fill="black"/>
<path id="Vector_186" d="M168.866 50.4881C168.837 50.5313 168.772 50.5746 168.722 50.5746H168.549C168.499 50.5746 168.441 50.5313 168.434 50.4808L168.275 49.6085C168.268 49.558 168.304 49.5148 168.355 49.5148H168.52C168.57 49.5148 168.621 49.558 168.628 49.6085L168.693 50.1132C168.693 50.1636 168.707 50.2069 168.707 50.2069C168.707 50.2069 168.729 50.1708 168.758 50.1204L169.038 49.5941C169.06 49.5436 169.125 49.5076 169.182 49.5076H169.355C169.406 49.5076 169.427 49.5436 169.406 49.5941L168.88 50.4881H168.866Z" fill="black"/>
<path id="Vector_187" d="M169.779 50.1347C169.729 50.1347 169.678 50.1347 169.678 50.1491C169.678 50.1852 169.678 50.214 169.7 50.2356C169.714 50.2573 169.729 50.2789 169.75 50.2933C169.772 50.3077 169.801 50.3221 169.822 50.3293C169.851 50.3366 169.88 50.3438 169.909 50.3438C169.959 50.3438 170.01 50.3366 170.053 50.3149C170.096 50.2933 170.132 50.2645 170.161 50.2356L170.298 50.3438C170.341 50.3798 170.341 50.4303 170.298 50.4663C170.298 50.4663 170.226 50.524 170.146 50.5601C170.06 50.5889 169.974 50.6105 169.88 50.6105C169.808 50.6105 169.736 50.6033 169.671 50.5817C169.606 50.5601 169.556 50.5312 169.506 50.488C169.462 50.4447 169.419 50.3942 169.398 50.3366C169.369 50.2789 169.354 50.2068 169.354 50.1347C169.354 50.041 169.369 49.9617 169.405 49.8824C169.434 49.8031 169.484 49.7382 169.534 49.6733C169.592 49.6156 169.657 49.5724 169.736 49.5363C169.815 49.5003 169.902 49.4858 169.995 49.4858C170.067 49.4858 170.125 49.493 170.182 49.5147C170.24 49.5363 170.29 49.5651 170.334 49.6012C170.377 49.6372 170.406 49.6877 170.427 49.7382C170.449 49.7958 170.463 49.8607 170.463 49.9328C170.463 49.9617 170.463 49.9905 170.456 50.0266C170.456 50.0626 170.442 50.1059 170.434 50.1347H169.772H169.779ZM170.067 49.9256C170.118 49.9256 170.168 49.9256 170.168 49.9112V49.8824C170.168 49.8391 170.154 49.7958 170.118 49.767C170.082 49.7382 170.038 49.7165 169.974 49.7165C169.938 49.7165 169.902 49.7165 169.873 49.7382C169.844 49.7526 169.815 49.767 169.794 49.7886C169.772 49.8103 169.75 49.8319 169.736 49.8535C169.722 49.8752 169.714 49.904 169.707 49.9256H170.067Z" fill="black"/>
<path id="Vector_188" d="M170.982 49.6662C170.982 49.6662 171.01 49.6302 171.046 49.5869C171.046 49.5869 171.061 49.5653 171.111 49.5292C171.162 49.4932 171.219 49.4788 171.284 49.4788C171.298 49.4788 171.313 49.4788 171.32 49.4788C171.334 49.4788 171.341 49.4788 171.356 49.4788L171.32 49.6878C171.313 49.7383 171.291 49.7816 171.27 49.7744H171.255C171.255 49.7744 171.226 49.7744 171.212 49.7744C171.162 49.7744 171.118 49.7816 171.09 49.8032C171.054 49.8176 171.025 49.8392 171.003 49.8681C170.982 49.8897 170.967 49.9185 170.953 49.9474C170.946 49.9762 170.931 49.9978 170.931 50.0195L170.852 50.4665C170.845 50.5169 170.794 50.5602 170.737 50.5602H170.593C170.542 50.5602 170.506 50.5169 170.514 50.4665L170.629 49.8176C170.636 49.7671 170.65 49.695 170.658 49.659V49.6157C170.672 49.5725 170.672 49.5364 170.679 49.5004H170.902C170.953 49.5004 170.996 49.5076 170.996 49.5148V49.5292C170.996 49.5292 170.996 49.5581 170.996 49.5725C170.996 49.5869 170.996 49.6013 170.996 49.6157C170.996 49.6302 170.996 49.6446 170.996 49.6518L170.982 49.6662Z" fill="black"/>
<path id="Vector_189" d="M171.99 50.6465C171.961 50.6898 171.918 50.7691 171.889 50.8124C171.889 50.8124 171.875 50.834 171.846 50.8773C171.817 50.9205 171.781 50.9566 171.745 50.9854C171.709 51.0142 171.666 51.0359 171.623 51.0503C171.579 51.0647 171.522 51.0719 171.457 51.0719C171.392 51.0719 171.335 51.0647 171.284 51.0503L171.32 50.8628C171.327 50.8124 171.363 50.7763 171.399 50.7835H171.435C171.486 50.7835 171.522 50.7691 171.551 50.7475C171.579 50.7259 171.601 50.6898 171.63 50.6393C171.659 50.5889 171.666 50.5096 171.659 50.4591L171.457 49.594C171.443 49.5435 171.479 49.5002 171.529 49.5002H171.709C171.759 49.5002 171.81 49.5435 171.824 49.594L171.903 50.0986C171.91 50.1491 171.918 50.1924 171.918 50.1924C171.918 50.1924 171.939 50.1563 171.961 50.1058L172.227 49.5868C172.249 49.5363 172.314 49.5002 172.371 49.5002H172.537C172.587 49.5002 172.609 49.5363 172.587 49.5868L171.99 50.6393V50.6465Z" fill="black"/>
<path id="Vector_190" d="M172.465 50.3655C172.544 50.3655 172.609 50.4304 172.609 50.5097C172.609 50.589 172.544 50.6539 172.465 50.6539C172.386 50.6539 172.321 50.589 172.321 50.5097C172.321 50.4304 172.386 50.3655 172.465 50.3655ZM172.465 50.6322C172.53 50.6322 172.588 50.5818 172.588 50.5097C172.588 50.4376 172.537 50.3871 172.465 50.3871C172.393 50.3871 172.343 50.4376 172.343 50.5097C172.343 50.5818 172.393 50.6322 172.465 50.6322ZM172.53 50.4808C172.53 50.4808 172.516 50.5241 172.494 50.5241L172.523 50.5746V50.5818H172.516H172.508L172.48 50.5313H172.436V50.5818H172.429V50.4448C172.429 50.4448 172.429 50.4376 172.436 50.4376H172.501C172.501 50.4376 172.552 50.452 172.552 50.488L172.53 50.4808ZM172.48 50.5097C172.48 50.5097 172.508 50.5025 172.508 50.4808C172.508 50.4664 172.494 50.452 172.48 50.452H172.429V50.5097H172.48Z" fill="black"/>
<path id="Vector_191" d="M159.528 48.6567C159.024 48.6567 158.614 49.0461 158.621 49.5147C158.621 50.3077 159.391 51.0287 159.391 51.0287C159.471 51.108 159.607 51.1008 159.687 51.0287C159.687 51.0287 160.45 50.2356 160.45 49.5147C160.45 49.0461 160.039 48.6639 159.535 48.6639L159.528 48.6567ZM159.471 50.0626C159.471 50.0626 159.449 50.0986 159.427 50.0914L159.096 49.8968C159.096 49.8968 159.046 49.8463 159.046 49.8103V49.4642C159.046 49.4642 159.068 49.4282 159.089 49.4426L159.435 49.6517C159.435 49.6517 159.478 49.6949 159.478 49.7237V50.0626H159.471ZM159.499 49.5291L159.125 49.3128C159.125 49.3128 159.104 49.2695 159.125 49.2551L159.499 49.0388C159.499 49.0388 159.55 49.0244 159.571 49.0388L159.939 49.2551C159.939 49.2551 159.96 49.2984 159.939 49.3128L159.571 49.5291C159.571 49.5291 159.521 49.5435 159.499 49.5291ZM160.025 49.8103C160.025 49.8103 160.003 49.8751 159.975 49.8968L159.643 50.0914C159.643 50.0914 159.6 50.0914 159.6 50.0626V49.7237C159.6 49.7237 159.615 49.6661 159.643 49.6517L159.989 49.4426C159.989 49.4426 160.032 49.4426 160.032 49.4642V49.8103H160.025Z" fill="black"/>
<path id="Vector_192" d="M167.85 51.4253C167.85 51.4253 167.836 51.4325 167.829 51.4325C167.821 51.4325 167.807 51.4325 167.807 51.4253C167.807 51.4253 167.8 51.4108 167.8 51.4036C167.8 51.3964 167.8 51.382 167.807 51.3748C167.807 51.3748 167.821 51.3676 167.829 51.3676C167.836 51.3676 167.843 51.3676 167.85 51.3748C167.85 51.3748 167.857 51.3892 167.857 51.4036C167.857 51.4181 167.857 51.4181 167.85 51.4253ZM168.045 51.4397C168.001 51.4397 167.973 51.4253 167.958 51.3964C167.937 51.3748 167.929 51.346 167.929 51.3099C167.929 51.2955 167.929 51.2811 167.929 51.2739C167.944 51.2162 167.965 51.1729 167.994 51.1513C168.023 51.1225 168.066 51.108 168.109 51.108C168.153 51.108 168.181 51.1225 168.196 51.1513C168.196 51.1513 168.196 51.1513 168.196 51.1585C168.196 51.1585 168.196 51.1657 168.189 51.1729L168.167 51.1873C168.167 51.1873 168.167 51.1873 168.16 51.1873H168.153C168.138 51.1657 168.124 51.1585 168.095 51.1585C168.066 51.1585 168.052 51.1657 168.03 51.1873C168.009 51.209 167.994 51.2378 167.98 51.2811C167.98 51.2955 167.98 51.3099 167.98 51.3243C167.98 51.346 167.98 51.3604 167.994 51.3748C168.009 51.3964 168.023 51.4036 168.052 51.4036C168.081 51.4036 168.095 51.3964 168.117 51.3748C168.117 51.3748 168.124 51.3748 168.131 51.3748C168.131 51.3748 168.131 51.3748 168.138 51.3748L168.153 51.3964C168.153 51.3964 168.153 51.3964 168.153 51.4036C168.153 51.4036 168.153 51.4108 168.153 51.418C168.124 51.4397 168.088 51.4541 168.045 51.4541V51.4397ZM168.34 51.4397C168.297 51.4397 168.268 51.4253 168.246 51.3964C168.232 51.3748 168.217 51.346 168.217 51.3099C168.217 51.2955 168.217 51.2739 168.217 51.2522C168.232 51.2018 168.253 51.1657 168.282 51.1441C168.318 51.1153 168.347 51.1008 168.39 51.1008C168.433 51.1008 168.462 51.1153 168.484 51.1441C168.498 51.1657 168.513 51.1946 168.513 51.2306C168.513 51.245 168.513 51.2666 168.505 51.2883C168.491 51.3387 168.477 51.3748 168.441 51.3964C168.412 51.4253 168.376 51.4397 168.333 51.4397H168.34ZM168.34 51.3892C168.34 51.3892 168.383 51.382 168.405 51.3604C168.426 51.3387 168.441 51.3099 168.448 51.2667C168.448 51.2522 168.448 51.2378 168.448 51.2234C168.448 51.2018 168.448 51.1873 168.433 51.1729C168.419 51.1513 168.405 51.1441 168.383 51.1441C168.361 51.1441 168.34 51.1513 168.318 51.1729C168.297 51.1946 168.282 51.2234 168.268 51.2667C168.268 51.2811 168.268 51.2955 168.268 51.3099C168.268 51.3315 168.268 51.346 168.282 51.3604C168.297 51.382 168.311 51.3892 168.34 51.3892ZM168.577 51.4325C168.577 51.4325 168.563 51.4325 168.563 51.4253L168.628 51.1297C168.628 51.1297 168.635 51.1153 168.642 51.1153H168.664C168.664 51.1153 168.678 51.1153 168.678 51.1225C168.678 51.1225 168.721 51.1008 168.75 51.1008C168.786 51.1008 168.808 51.108 168.829 51.1297C168.829 51.1297 168.829 51.1297 168.829 51.1441C168.851 51.1153 168.887 51.1008 168.93 51.1008C168.966 51.1008 168.988 51.108 169.009 51.1297C169.024 51.1441 169.031 51.1657 169.031 51.1873C169.031 51.1946 169.031 51.2018 169.031 51.2162L168.988 51.4108C168.988 51.4108 168.98 51.4253 168.973 51.4253H168.952C168.952 51.4253 168.937 51.4253 168.937 51.418L168.98 51.2234C168.98 51.2234 168.98 51.209 168.98 51.2018C168.98 51.1873 168.98 51.1801 168.973 51.1657C168.966 51.1513 168.944 51.1441 168.923 51.1441C168.894 51.1441 168.872 51.1585 168.851 51.1801C168.851 51.1946 168.851 51.2018 168.851 51.2162L168.808 51.4108C168.808 51.4108 168.8 51.4253 168.793 51.4253H168.772C168.772 51.4253 168.757 51.4253 168.757 51.418L168.8 51.2234C168.8 51.2234 168.8 51.209 168.8 51.2018C168.8 51.1873 168.8 51.1801 168.793 51.1657C168.786 51.1513 168.764 51.1441 168.743 51.1441C168.714 51.1441 168.692 51.1513 168.671 51.1729L168.62 51.4108C168.62 51.4108 168.613 51.4253 168.606 51.4253H168.584L168.577 51.4325ZM169.139 51.4253C169.139 51.4253 169.124 51.4325 169.117 51.4325C169.11 51.4325 169.096 51.4325 169.096 51.4253C169.096 51.4253 169.088 51.4108 169.088 51.4036C169.088 51.3964 169.088 51.382 169.096 51.3748C169.096 51.3748 169.11 51.3676 169.117 51.3676C169.124 51.3676 169.132 51.3676 169.139 51.3748C169.139 51.3748 169.146 51.3892 169.146 51.4036C169.146 51.4181 169.146 51.4181 169.139 51.4253ZM169.427 51.4325H169.405C169.405 51.4325 169.391 51.4325 169.391 51.4253C169.391 51.4253 169.348 51.4469 169.319 51.4469C169.283 51.4469 169.261 51.4397 169.24 51.418C169.225 51.4036 169.218 51.382 169.218 51.3604C169.218 51.3532 169.218 51.346 169.218 51.3315L169.261 51.1369C169.261 51.1369 169.268 51.1225 169.276 51.1225H169.297C169.297 51.1225 169.312 51.1225 169.312 51.1297L169.268 51.3243C169.268 51.3243 169.268 51.3387 169.268 51.346C169.268 51.3604 169.268 51.3676 169.276 51.382C169.283 51.3964 169.304 51.4036 169.326 51.4036C169.355 51.4036 169.376 51.3964 169.398 51.3748L169.448 51.1369C169.448 51.1369 169.456 51.1225 169.463 51.1225H169.484C169.484 51.1225 169.499 51.1225 169.499 51.1297L169.434 51.4253C169.434 51.4253 169.427 51.4397 169.42 51.4397L169.427 51.4325ZM169.679 51.4397C169.643 51.4397 169.614 51.4325 169.6 51.4108C169.585 51.3892 169.578 51.3676 169.578 51.346C169.578 51.3387 169.578 51.3315 169.578 51.3243L169.621 51.1297C169.621 51.1297 169.628 51.1153 169.636 51.1153H169.657C169.657 51.1153 169.672 51.1153 169.672 51.1225L169.628 51.3171C169.628 51.3171 169.628 51.3315 169.628 51.3387C169.628 51.3532 169.628 51.3604 169.636 51.3748C169.643 51.3892 169.664 51.3964 169.686 51.3964C169.715 51.3964 169.736 51.3892 169.758 51.3676L169.808 51.1297C169.808 51.1297 169.816 51.1153 169.823 51.1153H169.844C169.844 51.1153 169.859 51.1153 169.859 51.1225L169.794 51.4325C169.787 51.4757 169.772 51.5046 169.751 51.519C169.722 51.5406 169.693 51.5478 169.657 51.5478H169.592C169.592 51.5478 169.578 51.5478 169.578 51.5406V51.5262C169.578 51.5262 169.592 51.5118 169.6 51.5118H169.657C169.657 51.5118 169.693 51.5118 169.708 51.4974C169.722 51.4829 169.729 51.4685 169.736 51.4469V51.418C169.736 51.418 169.7 51.4469 169.672 51.4469L169.679 51.4397Z" fill="black"/>
<path id="Vector_193" d="M153.913 64.4888C154.05 64.4744 154.136 64.3735 154.122 64.2581L153.632 59.4422C153.618 59.3268 153.517 59.2403 153.402 59.2547C153.286 59.2692 153.2 59.3701 153.214 59.4854L153.704 64.3014C153.718 64.4095 153.805 64.4888 153.913 64.4888Z" fill="#D46100"/>
<path id="Vector_194" d="M170.06 105.612C170.132 105.612 170.204 105.576 170.24 105.504L179.851 88.2153C179.909 88.1144 179.873 87.9846 179.772 87.9269C179.671 87.8693 179.541 87.9053 179.484 88.0062L169.873 105.295C169.816 105.396 169.852 105.525 169.952 105.583C169.988 105.597 170.017 105.612 170.053 105.612H170.06Z" fill="#3A3D74"/>
<path id="Vector_195" d="M152.351 132.099C152.43 132.099 152.51 132.049 152.546 131.97C152.589 131.861 152.546 131.739 152.43 131.696L136.262 124.883C136.154 124.839 136.031 124.883 135.988 124.998C135.945 125.106 135.988 125.229 136.103 125.272L152.265 132.085C152.265 132.085 152.322 132.099 152.344 132.099H152.351Z" fill="#3A3D74"/>
<path id="Vector_196" d="M204.968 114.789C205.083 114.789 205.176 114.696 205.176 114.58V94.5956C205.176 94.4802 205.083 94.3865 204.968 94.3865C204.852 94.3865 204.759 94.4802 204.759 94.5956V114.58C204.759 114.696 204.852 114.789 204.968 114.789Z" fill="#FF9E3E"/>
<path id="Vector_197" d="M189.44 97.9336C189.714 97.9336 189.973 97.8255 190.196 97.6092C191.434 96.4124 191.478 92.0435 191.478 91.856C191.478 91.7623 191.413 91.683 191.326 91.6542C191.24 91.6253 191.139 91.6614 191.089 91.7407C190.786 92.2165 188.18 96.4124 188.807 97.5804C188.886 97.7318 189.059 97.9192 189.411 97.9264C189.426 97.9264 189.433 97.9264 189.447 97.9264L189.44 97.9336ZM191.031 92.6491C190.959 93.9612 190.722 96.5133 189.908 97.3064C189.757 97.4506 189.599 97.5227 189.426 97.5155C189.26 97.5155 189.21 97.4434 189.181 97.3929C188.843 96.7585 190.016 94.3865 191.031 92.6563V92.6491Z" fill="#3A3D74"/>
<path id="Vector_198" d="M198.467 99.9234C198.51 99.9234 198.554 99.9234 198.604 99.9018C198.82 99.8297 198.942 99.5845 198.863 99.3683C198.813 99.2097 193.579 83.6011 197.279 76.7737C198.1 75.2598 199.324 74.2865 200.915 73.8828C207.221 72.275 217.307 91.856 217.408 92.0506C217.516 92.2597 217.768 92.339 217.976 92.2309C218.185 92.1227 218.264 91.8704 218.156 91.6613C217.732 90.8322 207.66 71.2945 200.713 73.0609C198.885 73.5223 197.481 74.6397 196.545 76.37C192.672 83.529 197.848 98.9862 198.071 99.6422C198.129 99.8153 198.294 99.9306 198.467 99.9306V99.9234Z" fill="#A0463A"/>
<path id="Vector_199" d="M204.939 123.059L232.36 114.53L220.122 89.2605L200.721 95.2948L204.939 123.066V123.059Z" fill="#EF8E35"/>
<path id="Vector_200" d="M202.909 123.693L230.33 115.164L218.092 89.895L198.69 95.9294L202.909 123.7V123.693Z" fill="#FFA85A"/>
<path id="Vector_201" d="M190.656 98.6545C190.88 98.6545 191.06 98.4815 191.074 98.258C191.088 98.0561 192.312 78.1147 199.223 73.9404C200.836 72.9671 202.592 72.9383 204.601 73.8539C210.504 76.5503 206.098 96.4629 206.048 96.6647C205.997 96.8882 206.141 97.1189 206.364 97.1694C206.595 97.2198 206.818 97.0757 206.868 96.8522C207.056 96.0086 211.469 76.0672 204.946 73.0897C202.7 72.066 200.627 72.1092 198.784 73.2195C191.499 77.6245 190.275 97.3712 190.224 98.2075C190.21 98.4382 190.39 98.6401 190.62 98.6545C190.628 98.6545 190.635 98.6545 190.642 98.6545H190.656Z" fill="#A0463A"/>
<path id="Vector_202" d="M187.389 124.392L216.033 122.41L209.936 94.9922L189.671 96.3908L187.389 124.385V124.392Z" fill="#FF9E3E"/>
<path id="Vector_203" d="M185.265 124.544L213.909 122.568L207.812 95.1506L187.547 96.5493L185.265 124.544Z" fill="#FCB465"/>
<path id="Vector_204" d="M194.343 71.0277C194.343 71.0277 193.241 75.8581 193.241 76.4709C193.241 77.0837 193.788 78.9077 193.788 78.9077H195.682C195.682 78.9077 197.208 84.149 198.129 83.2189C199.044 82.2889 199.202 80.2991 199.655 80.1405C200.109 79.9819 205.299 78.6553 205.919 77.1774C206.538 75.6995 201.03 66.0532 198.892 65.4404C196.754 64.8276 194.335 71.0205 194.335 71.0205L194.343 71.0277Z" fill="#936055"/>
<path id="Vector_205" d="M195.696 79.1241C195.696 79.1241 195.725 79.1241 195.747 79.1241C195.862 79.0953 195.926 78.9872 195.905 78.8718L195.243 76.0241C195.214 75.9087 195.106 75.8438 194.991 75.8655C194.875 75.8943 194.811 76.0024 194.832 76.1178L195.495 78.9655C195.516 79.0665 195.603 79.1314 195.696 79.1314V79.1241Z" fill="black"/>
<path id="Vector_206" d="M166.188 45.5639C168.679 45.5639 169.658 43.7615 169.701 43.6822C169.751 43.5813 169.715 43.4515 169.614 43.4011C169.514 43.3506 169.384 43.3866 169.334 43.4876C169.29 43.5669 168.311 45.3476 165.763 45.1241C165.648 45.1097 165.547 45.1962 165.533 45.3188C165.525 45.4341 165.612 45.5351 165.727 45.5495C165.885 45.5639 166.044 45.5711 166.195 45.5711L166.188 45.5639Z" fill="#D46100"/>
</g>
<defs>
<clipPath id="clip0_247_3818">
<rect width="243" height="160" fill="white"/>
</clipPath>
</defs>
</svg>
