<svg width="252" height="44" viewBox="0 0 252 44" fill="none" xmlns="http://www.w3.org/2000/svg">
<g id="Group">
<g id="Group_2">
<g id="Group_3">
<path id="Vector" d="M47.1192 29.3701C47.8299 28.7245 48.5719 28.8338 49.5378 29.4508C49.5378 29.4508 49.5378 29.4508 50.3396 29.8192C51.1415 30.189 51.9628 30.3725 52.8037 30.3725C53.6185 30.3725 54.2733 30.2216 54.7705 29.9143C55.2679 29.6097 55.5164 29.1892 55.5164 28.6543C55.5164 28.144 55.2861 27.751 54.8278 27.4697C54.3697 27.1898 53.6941 26.91 52.8037 26.6288C51.912 26.375 51.1284 26.0886 50.4542 25.7698C49.7786 25.4522 49.2123 25.0812 48.7542 24.6619C48.2959 24.2416 47.9523 23.7573 47.7231 23.2105C47.4929 22.6612 47.3795 22.0196 47.3795 21.2815C47.3795 20.2363 47.6138 19.3081 48.0863 18.492C48.5562 17.6771 49.1811 16.9833 49.9582 16.4105C50.7339 15.8391 51.6451 15.4056 52.6891 15.1114C53.733 14.8198 54.8278 14.6729 55.9747 14.6729C57.4507 14.6729 58.8331 14.9201 60.1192 15.4161C61.4053 15.9133 62.431 16.645 63.1939 17.6134L60.6711 19.7365C59.9369 20.3561 59.2756 20.3834 58.4881 19.9317C58.4881 19.9317 58.4881 19.9317 57.8645 19.5997C57.241 19.2692 56.4951 19.1038 55.6296 19.1038C54.9671 19.1038 54.363 19.2327 53.8162 19.4852C53.2683 19.7404 52.9935 20.1725 52.9935 20.7856C52.9935 21.2177 53.1979 21.5549 53.6053 21.7984C54.0127 22.0404 54.6375 22.2747 55.4772 22.5039C57.2605 22.9869 58.6677 23.6559 59.6985 24.5096C60.7294 25.3637 61.2462 26.604 61.2462 28.2338C61.2462 29.3793 60.9976 30.379 60.5004 31.2316C60.0044 32.0855 59.3549 32.7858 58.5519 33.3339C57.75 33.8805 56.8336 34.2881 55.8014 34.5561C54.7704 34.8228 53.72 34.9558 52.6513 34.9558C50.8928 34.9558 49.3281 34.6629 47.9521 34.0772C46.5763 33.4913 45.4568 32.6907 44.5898 31.6716L47.1192 29.3701Z" fill="white"/>
</g>
<g id="Group_4">
<path id="Vector_2" d="M73.0113 34.8048C71.6355 34.8048 70.3558 34.6134 69.1727 34.2307C67.9882 33.8493 66.969 33.2961 66.1164 32.5698C65.2623 31.8434 64.5881 30.9648 64.0922 29.934C63.595 28.9018 63.3477 27.7366 63.3477 26.4388C63.3477 24.8599 63.6146 23.3563 64.1495 21.9298C64.6845 20.5045 65.4538 19.2561 66.46 18.1861C67.4649 17.1173 68.6819 16.2636 70.1086 15.627C71.5339 14.9905 73.1507 14.6729 74.9586 14.6729C76.3605 14.6729 77.6596 14.8628 78.856 15.2455C80.0535 15.627 81.0844 16.1801 81.9501 16.9064C82.8158 17.6329 83.4977 18.5114 83.9938 19.5438C84.4909 20.5747 84.7383 21.7383 84.7383 23.0374C84.7383 24.6425 84.4714 26.1588 83.9364 27.5843C83.4014 29.0097 82.6243 30.2579 81.6065 31.328C80.5872 32.3967 79.3584 33.2441 77.9199 33.8676C76.4803 34.491 74.8455 34.8048 73.0113 34.8048ZM78.7037 23.6872C78.7037 22.5417 78.3522 21.5862 77.652 20.8234C76.9528 20.0594 75.9649 19.6779 74.6931 19.6779C73.877 19.6779 73.1376 19.8419 72.4763 20.1725C71.8139 20.5045 71.2541 20.9495 70.7958 21.5093C70.3364 22.0716 69.981 22.7199 69.7259 23.4593C69.4707 24.1975 69.3443 24.9745 69.3443 25.7893C69.3443 26.9348 69.688 27.8837 70.3754 28.6349C71.0626 29.3859 72.0428 29.7621 73.3172 29.7621C74.132 29.7621 74.8688 29.6033 75.5326 29.2845C76.1952 28.9656 76.7615 28.5268 77.2327 27.9659C77.7026 27.4062 78.0657 26.7566 78.3209 26.0186C78.5762 25.2803 78.7037 24.5033 78.7037 23.6872Z" fill="white"/>
</g>
<g id="Group_5">
<path id="Vector_3" d="M96.6427 35.6168C96.1676 36.4526 95.3788 37.8103 94.8907 38.6368C94.8907 38.6368 94.6641 39.0182 94.1174 39.8083C93.5694 40.5971 92.9718 41.261 92.3224 41.7947C91.6714 42.3283 90.9269 42.7359 90.0875 43.0169C89.2478 43.2969 88.2651 43.4372 87.1455 43.4372C85.948 43.4372 84.9054 43.2967 84.0137 43.0169L84.6176 39.6911C84.7894 38.7474 85.4507 38.129 86.0886 38.3177C86.0886 38.3177 86.0886 38.3177 86.7265 38.3177C87.6167 38.3177 88.3106 38.0951 88.8079 37.6487C89.304 37.2035 89.7816 36.5734 90.2398 35.7586L90.275 35.6987C90.7604 34.8695 90.9792 33.4285 90.7631 32.4926L87.1573 16.9452C86.9413 16.0079 87.5492 15.2451 88.5086 15.2451H91.7042C92.6637 15.2451 93.567 16.021 93.7141 16.9699L95.0938 25.9737C95.2396 26.9226 95.3762 27.6985 95.3972 27.6985C95.418 27.6985 95.7902 26.9981 96.2238 26.1418L100.95 16.8021C101.385 15.9456 102.524 15.2453 103.483 15.2453H106.488C107.448 15.2453 107.844 15.9275 107.37 16.7617L96.6427 35.6168Z" fill="white"/>
</g>
<g id="Group_6">
<path id="Vector_4" d="M124.9 7.10954C125.061 6.16442 125.978 5.38867 126.938 5.38867H129.56C130.52 5.38867 131.167 6.16327 131.001 7.10839L126.491 32.5512C126.324 33.4963 125.401 34.2695 124.442 34.2695H122.316C121.357 34.2695 120.673 33.6851 120.8 32.9704C120.926 32.2558 121.004 31.6713 120.971 31.6713C120.941 31.6713 120.388 32.2544 119.745 32.9665C119.745 32.9665 119.361 33.3907 118.24 33.9245C117.12 34.4595 115.858 34.7264 114.458 34.7264C113.237 34.7264 112.134 34.5233 111.154 34.1159C110.174 33.7098 109.347 33.1435 108.671 32.4172C107.996 31.6895 107.481 30.8316 107.124 29.8371C106.767 28.8453 106.589 27.7505 106.589 26.5528C106.589 24.9231 106.85 23.3962 107.373 21.967C107.894 20.543 108.62 19.2945 109.55 18.2246C110.478 17.1546 111.587 16.3085 112.873 15.6836C114.159 15.0615 115.567 14.7478 117.095 14.7478C118.495 14.7478 119.703 15.016 120.723 15.5508C121.742 16.0859 122.506 16.7993 123.015 17.6909C123.058 17.6909 123.224 16.9151 123.386 15.97L124.9 7.10954ZM112.663 25.7499C112.663 26.8954 112.994 27.8509 113.657 28.6148C114.318 29.3789 115.3 29.7617 116.598 29.7617C117.363 29.7617 118.075 29.6028 118.736 29.284C119.399 28.9651 119.973 28.5263 120.456 27.9654C120.94 27.4057 121.316 26.7561 121.584 26.0181C121.851 25.28 121.984 24.5029 121.984 23.6868C121.984 22.5165 121.627 21.5545 120.914 20.8035C120.201 20.0523 119.234 19.6774 118.011 19.6774C117.196 19.6774 116.457 19.8362 115.796 20.1539C115.133 20.4726 114.574 20.9049 114.114 21.453C113.657 22.0009 113.299 22.6439 113.045 23.382C112.79 24.1201 112.663 24.9089 112.663 25.7499Z" fill="white"/>
</g>
<g id="Group_7">
<path id="Vector_5" d="M138.168 26.3989C137.208 26.3989 136.405 26.4966 136.385 26.6162C136.385 26.6162 136.385 26.6162 136.385 26.7425C136.385 27.2775 136.505 27.7566 136.748 28.1756C136.989 28.596 137.306 28.9527 137.702 29.2457C138.097 29.5385 138.543 29.7612 139.039 29.9134C139.536 30.0672 140.05 30.1426 140.587 30.1426C141.554 30.1426 142.406 29.9656 143.146 29.6089C143.884 29.251 144.547 28.7668 145.132 28.1549L147.616 30.0983C148.371 30.6905 148.397 31.6878 147.67 32.3151C147.67 32.3151 146.405 33.4085 144.903 33.9812C143.4 34.5553 141.783 34.8416 140.05 34.8416C138.727 34.8416 137.498 34.6567 136.365 34.2871C135.232 33.9186 134.245 33.3707 133.404 32.6444C132.563 31.9192 131.902 31.0212 131.418 29.9511C130.935 28.8824 130.692 27.6602 130.692 26.2855C130.692 24.6546 130.979 23.1328 131.552 21.7193C132.124 20.307 132.913 19.0767 133.921 18.0327C134.926 16.9901 136.13 16.1688 137.53 15.5687C138.931 14.9713 140.471 14.6719 142.152 14.6719C143.399 14.6719 144.54 14.8502 145.571 15.2069C146.603 15.5636 147.487 16.0777 148.226 16.7533C148.964 17.4288 149.537 18.2633 149.946 19.2551C150.352 20.2484 150.556 21.3952 150.556 22.6943C150.556 23.1525 150.512 23.7305 150.422 24.4306C150.334 25.1323 150.214 25.7883 150.06 26.3989H138.168ZM143.349 22.6553C144.31 22.6553 145.112 22.5408 145.132 22.4002C145.132 22.4002 145.132 22.4002 145.132 22.2739C145.132 22.1463 145.132 22.0188 145.132 21.8912C145.132 21.0515 144.833 20.3499 144.236 19.7915C143.635 19.2318 142.776 18.9493 141.655 18.9493C140.968 18.9493 140.351 19.0704 139.803 19.3124C139.255 19.5558 138.778 19.854 138.371 20.2106C137.964 20.5673 137.632 20.963 137.378 21.3952C137.123 21.8286 136.945 22.2479 136.843 22.6552L143.349 22.6553Z" fill="white"/>
</g>
<g id="Group_8">
<path id="Vector_6" d="M153.524 34.2693C152.564 34.2693 151.914 33.4962 152.081 32.5499L156.557 7.10839C156.723 6.16327 157.645 5.38867 158.605 5.38867H161.342C162.302 5.38867 162.949 6.16327 162.782 7.10839L158.27 32.5512C158.105 33.4963 157.182 34.2695 156.223 34.2695H153.524V34.2693Z" fill="white"/>
</g>
<g id="Group_9">
<path id="Vector_7" d="M163.876 34.2694C162.916 34.2694 162.267 33.495 162.432 32.55L165.155 16.9648C165.319 16.0184 166.239 15.2452 167.2 15.2452H169.861C170.82 15.2452 171.467 16.0185 171.298 16.9622L168.512 32.5513C168.343 33.4964 167.42 34.2696 166.461 34.2696H163.876V34.2694ZM172.904 8.86685C172.904 9.37583 172.813 9.84573 172.636 10.2791C172.459 10.7127 172.209 11.1006 171.893 11.4428C171.572 11.7878 171.197 12.0546 170.764 12.2459C170.331 12.4373 169.861 12.5337 169.35 12.5337C168.383 12.5337 167.587 12.2459 166.963 11.6733C166.34 11.1006 166.027 10.3678 166.027 9.47739C166.027 8.43344 166.377 7.56 167.079 6.86097C167.778 6.15935 168.637 5.81055 169.657 5.81055C170.599 5.81055 171.376 6.10217 171.988 6.68915C172.6 7.27369 172.904 7.99988 172.904 8.86685Z" fill="white"/>
</g>
<g id="Group_10">
<path id="Vector_8" d="M184.066 32.7647C183.579 33.5926 182.393 34.2693 181.434 34.2693H178.277C177.318 34.2693 176.39 33.4975 176.214 32.5538L173.335 16.9608C173.162 16.017 173.803 15.2451 174.763 15.2451H177.728C178.689 15.2451 179.573 16.0236 179.691 16.9765L180.824 26.005C180.942 26.9579 181.066 27.7362 181.097 27.7362C181.129 27.7362 181.521 27.0424 181.97 26.1938L186.948 16.7878C187.396 15.9391 188.549 15.2453 189.508 15.2453H192.666C193.626 15.2453 194.011 15.9223 193.523 16.7475L184.066 32.7647Z" fill="white"/>
</g>
<g id="Group_11">
<path id="Vector_9" d="M200.432 26.3989C199.473 26.3989 198.67 26.4966 198.65 26.6162C198.65 26.6162 198.65 26.6162 198.65 26.7425C198.65 27.2775 198.77 27.7566 199.012 28.1756C199.256 28.596 199.572 28.9527 199.968 29.2457C200.362 29.5385 200.809 29.7612 201.304 29.9134C201.802 30.0672 202.317 30.1426 202.852 30.1426C203.819 30.1426 204.673 29.9656 205.41 29.6089C206.149 29.251 206.811 28.7668 207.398 28.1549L209.881 30.0983C210.636 30.6905 210.662 31.6878 209.935 32.3151C209.935 32.3151 208.671 33.4085 207.169 33.9812C205.665 34.5553 204.05 34.8416 202.317 34.8416C200.993 34.8416 199.763 34.6567 198.631 34.2871C197.497 33.9186 196.511 33.3707 195.67 32.6444C194.83 31.9192 194.167 31.0212 193.684 29.9511C193.2 28.8824 192.958 27.6602 192.958 26.2855C192.958 24.6546 193.244 23.1328 193.817 21.7193C194.39 20.307 195.18 19.0767 196.186 18.0327C197.193 16.9901 198.395 16.1688 199.796 15.5687C201.196 14.9713 202.738 14.6719 204.418 14.6719C205.665 14.6719 206.805 14.8502 207.836 15.2069C208.868 15.5636 209.752 16.0777 210.49 16.7533C211.228 17.4288 211.804 18.2633 212.211 19.2551C212.619 20.2484 212.822 21.3952 212.822 22.6943C212.822 23.1525 212.777 23.7305 212.688 24.4306C212.598 25.1323 212.478 25.7883 212.325 26.3989H200.432ZM205.615 22.6553C206.574 22.6553 207.376 22.5408 207.398 22.4002C207.398 22.4002 207.398 22.4002 207.398 22.2739C207.398 22.1463 207.398 22.0188 207.398 21.8912C207.398 21.0515 207.099 20.3499 206.501 19.7915C205.902 19.2318 205.043 18.9493 203.921 18.9493C203.234 18.9493 202.617 19.0704 202.069 19.3124C201.522 19.5558 201.043 19.854 200.636 20.2106C200.228 20.5673 199.897 20.963 199.644 21.3952C199.389 21.8286 199.209 22.2479 199.109 22.6552L205.615 22.6553Z" fill="white"/>
</g>
<g id="Group_12">
<path id="Vector_10" d="M222.003 18.0335C222.046 18.0335 222.557 17.41 223.139 16.6472C223.139 16.6472 223.423 16.2763 224.277 15.6657C225.129 15.0539 226.154 14.748 227.351 14.748C227.582 14.748 227.816 14.7611 228.06 14.7871C228.301 14.8131 228.498 14.8509 228.651 14.9005L227.971 18.6103C227.799 19.5539 227.411 20.2686 227.109 20.1984C227.109 20.1984 227.109 20.1984 226.855 20.1722C226.6 20.1475 226.358 20.1345 226.129 20.1345C225.237 20.1345 224.488 20.2869 223.876 20.5927C223.265 20.8986 222.762 21.2748 222.367 21.72C221.972 22.1665 221.679 22.6442 221.489 23.1533C221.297 23.6635 221.163 24.1087 221.088 24.49L219.67 32.55C219.504 33.4963 218.583 34.2695 217.623 34.2695H215C214.04 34.2695 213.395 33.4963 213.564 32.5512L215.66 20.8971C215.83 19.9535 216.063 18.6804 216.178 18.0711C216.178 18.0711 216.178 18.0711 216.294 17.3083C216.407 16.5443 216.49 15.8569 216.541 15.2451H220.604C221.564 15.2451 222.341 15.3857 222.335 15.5563C222.335 15.5563 222.335 15.5563 222.31 15.7998C222.284 16.0418 222.252 16.2957 222.214 16.5624C222.175 16.8292 222.138 17.0974 222.099 17.3643C222.063 17.6327 222.029 17.8565 222.003 18.0335Z" fill="white"/>
</g>
<g id="Group_13">
<path id="Vector_11" d="M240.197 35.6168C239.721 36.4526 238.934 37.8103 238.444 38.6368C238.444 38.6368 238.219 39.0182 237.671 39.8083C237.124 40.5971 236.524 41.261 235.876 41.7947C235.225 42.3283 234.482 42.7359 233.642 43.0169C232.801 43.2969 231.82 43.4372 230.7 43.4372C229.504 43.4372 228.46 43.2967 227.567 43.0169L228.171 39.6911C228.344 38.7474 229.006 38.129 229.642 38.3177C229.642 38.3177 229.642 38.3177 230.279 38.3177C231.172 38.3177 231.866 38.0951 232.363 37.6487C232.859 37.2035 233.337 36.5734 233.795 35.7586L233.83 35.6987C234.314 34.8695 234.533 33.4285 234.317 32.4926L230.712 16.9452C230.495 16.0079 231.103 15.2451 232.064 15.2451H235.258C236.219 15.2451 237.122 16.021 237.266 16.9699L238.649 25.9737C238.795 26.9226 238.931 27.6985 238.952 27.6985C238.972 27.6985 239.344 26.9981 239.777 26.1418L244.505 16.8021C244.937 15.9456 246.076 15.2453 247.038 15.2453H250.042C251.002 15.2453 251.398 15.9275 250.925 16.7617L240.197 35.6168Z" fill="white"/>
</g>
<g id="Group_14">
<path id="Vector_12" d="M248.638 30.5977C250.053 30.5977 251.212 31.7784 251.212 33.192C251.212 34.6173 250.053 35.7797 248.638 35.7797C247.21 35.7797 246.037 34.6172 246.037 33.192C246.037 31.7784 247.21 30.5977 248.638 30.5977ZM248.65 35.3619C249.828 35.3619 250.784 34.3896 250.784 33.192C250.784 31.9865 249.828 31.0246 248.65 31.0246C247.435 31.0246 246.473 31.9865 246.473 33.192C246.473 34.3896 247.435 35.3619 248.65 35.3619ZM249.838 32.7235C249.838 33.1621 249.612 33.4446 249.235 33.537L249.746 34.3898C249.796 34.4731 249.796 34.5395 249.652 34.5395H249.467C249.344 34.5395 249.333 34.5094 249.293 34.4431L248.799 33.5761H247.987V34.4431C247.987 34.5094 247.971 34.5395 247.879 34.5395H247.693C247.61 34.5395 247.585 34.5094 247.585 34.4431V31.9776C247.585 31.8709 247.61 31.8449 247.729 31.8449H248.907C249.478 31.8447 249.838 32.1624 249.838 32.7235ZM248.89 33.218C249.225 33.218 249.425 33.0436 249.425 32.7235C249.425 32.4162 249.225 32.23 248.89 32.23H247.987V33.218H248.89Z" fill="white"/>
</g>
</g>
<path id="Vector_13" d="M16.314 0.000196739C7.25877 0.0424319 -0.0454698 6.92159 0.000213123 15.362C0.0767823 29.5971 13.8829 42.5069 13.8829 42.5069C15.3609 43.8885 17.7186 43.8351 19.1228 42.388C19.1228 42.388 32.8656 28.2202 32.7948 15.208C32.7497 6.7673 25.3703 -0.0421821 16.314 0.000196739ZM15.2714 25.2193C15.2714 25.6328 14.8236 25.8911 14.4658 25.684L8.455 22.2074C7.90422 21.8888 7.56505 21.3008 7.56505 20.6645V14.4761C7.56505 14.1066 7.96714 13.8775 8.28506 14.0658L14.516 17.7588C14.9844 18.0363 15.2715 18.5404 15.2715 19.0847L15.2714 25.2193ZM15.8279 15.6308L9.14341 11.7036C8.75611 11.4761 8.75884 10.9151 9.14843 10.6914L15.8558 6.84028C16.2477 6.61531 16.7298 6.61632 17.1207 6.8433L23.7532 10.6929C24.1396 10.9171 24.1423 11.4742 23.7582 11.7023L17.1484 15.6279C16.7417 15.8693 16.2358 15.8704 15.8279 15.6308ZM25.2303 20.6644C25.2303 21.3006 24.8911 21.8888 24.3403 22.2073L18.3294 25.6839C17.9716 25.8909 17.5238 25.6326 17.5238 25.2192V19.0846C17.5238 18.5401 17.8109 18.0362 18.2793 17.7586L24.5101 14.0656C24.828 13.8773 25.2301 14.1063 25.2301 14.4759V20.6644H25.2303Z" fill="white"/>
</g>
</svg>
