<svg width="444" height="295" viewBox="0 0 444 295" fill="none" xmlns="http://www.w3.org/2000/svg">
<path d="M267.141 0H150V20.5967H267.141V0Z" fill="#EBEBEB"/>
<path d="M261.241 19.9529H155.89V25.2293H261.241V19.9529Z" fill="#DBDBDB"/>
<path d="M155.89 25.2292V103.275H261.241V25.2292H155.89ZM184.725 99.8366H168.419V67.5341H184.725V99.8366ZM184.725 62.0084H168.419V29.7059H184.725V62.0084ZM206.057 99.8366H189.751V67.5341H206.057V99.8366ZM206.057 62.0084H189.751V29.7059H206.057V62.0084ZM227.39 99.8366H211.083V67.5341H227.39V99.8366ZM227.39 62.0084H211.083V29.7059H227.39V62.0084ZM248.722 99.8366H232.416V67.5341H248.722V99.8366ZM248.722 62.0084H232.416V29.7059H248.722V62.0084Z" fill="#EBEBEB"/>
<path d="M251.896 26.3198V187.718H165.245V26.3198H155.89V187.718V197.056H165.245H251.896H261.251V187.718V26.3198H251.896Z" fill="#EBEBEB"/>
<path d="M414.181 0H297.04V20.5967H414.181V0Z" fill="#EBEBEB"/>
<path d="M408.28 19.9529H302.929V25.2293H408.28V19.9529Z" fill="#DBDBDB"/>
<path d="M302.929 25.2292V103.275H408.28V25.2292H302.929ZM331.764 99.8366H315.458V67.5341H331.764V99.8366ZM331.764 62.0084H315.458V29.7059H331.764V62.0084ZM353.097 99.8366H336.791V67.5341H353.097V99.8366ZM353.097 62.0084H336.791V29.7059H353.097V62.0084ZM374.429 99.8366H358.123V67.5341H374.429V99.8366ZM374.429 62.0084H358.123V29.7059H374.429V62.0084ZM395.772 99.8366H379.466V67.5341H395.772V99.8366ZM395.772 62.0084H379.466V29.7059H395.772V62.0084Z" fill="#EBEBEB"/>
<path d="M398.936 26.3198V187.718H312.284V26.3198H302.929V187.718V197.056H312.284H398.936H408.291V187.718V26.3198H398.936Z" fill="#EBEBEB"/>
<path d="M405.44 230.231C405.44 230.231 390.559 235.486 376.958 230.116C363.347 224.747 390.039 221.984 382.869 217.6C375.699 213.217 357.717 212.334 357.842 204.617C358.019 192.87 372.161 207.764 375.314 201.761C378.467 195.757 348.706 189.702 351.401 182.919C354.096 176.127 368.81 188.071 368.061 183.2C367.312 178.329 348.321 165.179 358.009 159.903C372.338 152.102 371.724 180.936 377.759 177.279C383.795 173.623 378.582 165.491 383.462 166.592C391.558 168.409 382.89 194.241 390.028 193.005C397.167 191.769 392.494 178.277 397.188 180.821C401.881 183.366 392.016 213.3 396.022 211.254C400.028 209.208 401.298 198.583 405.471 200.057C409.644 201.532 405.44 230.251 405.44 230.251V230.231Z" fill="#67DFAE"/>
<path d="M361.526 163.881C361.526 163.881 396.105 221.277 401.433 228.132" stroke="#C7F9E4" stroke-width="1.34" stroke-miterlimit="10" stroke-linecap="round"/>
<path d="M361.234 187.323L379.861 193.981L384.107 172.356" stroke="#C7F9E4" stroke-width="1.34" stroke-miterlimit="10" stroke-linecap="round"/>
<path d="M368.342 208.003L389.986 210.766" stroke="#C7F9E4" stroke-width="1.34" stroke-miterlimit="10" stroke-linecap="round"/>
<path d="M378.675 227.094L398.072 223.531L404.846 208.169" stroke="#C7F9E4" stroke-width="1.34" stroke-miterlimit="10" stroke-linecap="round"/>
<path d="M359.986 167.765L365.595 170.414L366.177 163.486" stroke="#C7F9E4" stroke-width="1.34" stroke-miterlimit="10" stroke-linecap="round"/>
<path d="M392.848 221.277C392.848 221.277 376.438 211.462 378.415 202.758C380.402 194.043 400.798 218.099 388.561 196.785C379.726 181.403 375.99 175.202 381.12 173.083C386.251 170.975 398.613 190.19 396.532 175.15C394.451 160.11 400.247 150.523 406.043 151.988C411.839 153.442 417.105 159.497 408.853 177.113C400.559 194.822 418.541 174.049 425.076 178.661C431.6 183.272 418.27 199.05 408.103 207.598C397.937 216.146 437.979 203.828 407.302 225.131C393.462 234.738 392.858 221.277 392.858 221.277H392.848Z" fill="#09B770"/>
<path d="M407.697 157.379C407.697 157.379 395.668 208.72 394.502 224.051" stroke="#C7F9E4" stroke-width="1.46" stroke-miterlimit="10" stroke-linecap="round"/>
<path d="M401.329 160.692L404.16 172.283L409.102 164.504" stroke="#C7F9E4" stroke-width="1.46" stroke-miterlimit="10" stroke-linecap="round"/>
<path d="M415.814 189.214C410.081 193.971 398.644 199.486 398.644 199.486L388.207 184.841" stroke="#C7F9E4" stroke-width="1.46" stroke-miterlimit="10" stroke-linecap="round"/>
<path d="M418.218 183.21L415.7 189.421L422.537 186.42" stroke="#C7F9E4" stroke-width="1.46" stroke-miterlimit="10" stroke-linecap="round"/>
<path d="M388.03 178.37L388.249 185.07L382.869 179.897" stroke="#C7F9E4" stroke-width="1.46" stroke-miterlimit="10" stroke-linecap="round"/>
<path d="M384.076 207.151L395.564 217.091" stroke="#C7F9E4" stroke-width="1.46" stroke-miterlimit="10" stroke-linecap="round"/>
<path d="M396.75 220.955L412.849 215.243" stroke="#C7F9E4" stroke-width="1.46" stroke-miterlimit="10" stroke-linecap="round"/>
<path d="M403.452 234.842C403.452 234.842 394.856 226.865 393.722 216.063C392.588 205.261 403.587 221.869 404.014 215.637C404.44 209.416 398.832 197.284 403.972 194.698C411.798 190.772 406.823 205.199 411.87 205.209C416.917 205.209 410.674 183.553 416.085 182.982C421.496 182.41 418.686 196.214 421.642 194.043C424.597 191.873 426.741 174.849 433.567 179.409C443.661 186.15 424.399 195.674 428.895 198.385C433.39 201.096 436.959 194.864 437.917 198.458C439.509 204.409 419.456 207.598 422.734 211.877C426.012 216.157 433.317 208.429 433.255 212.397C433.192 216.364 410.028 220.176 412.755 222.108C415.481 224.04 422.942 221.215 423.4 224.466C423.869 227.717 403.452 234.842 403.452 234.842Z" fill="#67DFAE"/>
<path d="M432.141 183.106C432.141 183.106 406.136 225.619 403.452 231.487" stroke="#C7F9E4" stroke-width="1.34" stroke-miterlimit="10" stroke-linecap="round"/>
<path d="M416.563 190.979L418.582 205.531L434.327 200.878" stroke="#C7F9E4" stroke-width="1.34" stroke-miterlimit="10" stroke-linecap="round"/>
<path d="M405.356 202.779L410.986 217.974" stroke="#C7F9E4" stroke-width="1.34" stroke-miterlimit="10" stroke-linecap="round"/>
<path d="M396.313 216.146L405.346 227.675L417.823 226.844" stroke="#C7F9E4" stroke-width="1.34" stroke-miterlimit="10" stroke-linecap="round"/>
<path d="M429.051 183.428L429.238 188.03L434.014 186.025" stroke="#C7F9E4" stroke-width="1.34" stroke-miterlimit="10" stroke-linecap="round"/>
<path d="M419.925 292H378.592L374.429 239.111H424.087L419.925 292Z" fill="#37474F"/>
<path d="M427.938 225.962H370.902V239.111H427.938V225.962Z" fill="#37474F"/>
<path d="M423.692 244.232L424.087 239.111H374.429L374.835 244.232H423.692Z" fill="#263238"/>
<path d="M126.057 2H13.943C9.55619 2 6 5.55737 6 9.9456V283.054C6 287.443 9.55619 291 13.943 291H126.057C130.444 291 134 287.443 134 283.054V9.9456C134 5.55737 130.444 2 126.057 2Z" fill="#EAE6ED"/>
<path d="M119.726 9H24.2736C20.2565 9 17 12.2542 17 16.2685V283.732C17 287.746 20.2565 291 24.2736 291H119.726C123.744 291 127 287.746 127 283.732V16.2685C127 12.2542 123.744 9 119.726 9Z" fill="#DCDAE0"/>
<path d="M274.152 195.398L241.175 268.751L224.679 261.542L245.228 188.962L274.152 195.398Z" fill="#F48462"/>
<path d="M307.903 188.878L302.908 268.852L285.217 267.642L279.046 192.608L307.903 188.878Z" fill="#F48462"/>
<path d="M254.864 123.877C254.864 123.877 212.436 240.788 212.739 242.72C213.042 244.653 254.342 259.777 254.342 259.777L279.533 184.71V141.202L254.864 123.86V123.877Z" fill="#50539E"/>
<path d="M300.688 118.617C300.688 118.617 305.262 137.069 306.994 148.966C308.726 160.864 314.948 256.937 314.948 258.282C314.948 259.626 272 260.668 272 260.668C272 260.668 268.805 151.201 268.082 150.126C267.358 149.05 255.083 138.648 255.083 138.648L263.037 127.86L300.688 118.6V118.617Z" fill="#50539E"/>
<path d="M316.395 285.976C315.991 284.934 315.554 283.959 315.234 283.237C314.915 282.497 314.545 281.808 314.091 281.186C312.981 279.657 310.812 276.531 310.257 274.918C309.533 272.75 308.39 268.079 307.65 265.911C306.91 263.743 303.379 261.542 303.379 261.542C303.379 261.542 285.738 260.617 284.242 261.878C282.745 263.104 280.525 274.599 280.525 276.162V277.725C280.525 279.304 279.315 282.632 278.676 285.119C278.575 285.438 278.507 285.741 278.457 286.026C278.373 286.547 278.306 286.984 278.306 287.354C278.306 287.354 286.209 289.471 298.401 289.471C307.953 289.471 316.428 286.009 316.428 286.009L316.395 285.976Z" fill="#F7C537"/>
<path d="M316.395 285.976C318.598 285.102 314.831 292.748 304.707 293.622C294.113 294.546 281.989 293.219 280.509 292.597C279.012 291.992 278.289 289.505 278.289 287.32C278.289 287.32 298.939 292.95 316.412 285.959L316.395 285.976Z" fill="#FF7500"/>
<path d="M237.392 286.094C240.788 279.993 244.253 267.978 246.607 260.702C246.607 260.702 229.555 250.635 227.47 250.568C225.368 250.501 200.581 252.988 200.581 252.988C200.581 252.988 193.03 251.156 188.456 253.223C187.111 253.828 186.035 254.719 185.228 255.677" fill="#F7C537"/>
<path d="M237.392 286.093C235.525 289.454 234.029 291.673 233.423 291.757C231.725 291.992 183.496 262.516 183.008 261.508C182.655 260.819 183.227 257.996 185.211 255.677L237.375 286.093H237.392Z" fill="#FF7500"/>
<path d="M251.265 69.261C251.265 69.261 234.853 84.9567 219.953 90.0989C205.323 95.1572 226.243 117.39 226.243 117.39C226.243 117.39 250.694 121.944 254.427 112.533C258.16 103.139 251.248 69.261 251.248 69.261H251.265Z" fill="#FF7500"/>
<path d="M270.133 62.5896C270.133 62.5896 255.049 63.9171 249.399 71.1936C243.732 78.4701 251.215 124.078 251.619 124.717C252.022 125.355 262.532 129.994 280.828 129.59C299.141 129.187 301.882 127.17 302.488 126.196C303.093 125.221 306.271 72.3363 298.906 67.6646C293.642 64.3372 281.165 61.2284 270.116 62.5727L270.133 62.5896Z" fill="#FF7500"/>
<path d="M279.113 54.7083L278.894 64.5055C278.894 64.5055 277.061 67.2782 271.31 67.6311C267.022 67.8832 265.542 66.8917 265.542 66.8917L266.248 61.9343L266.938 57.1113L277.347 55.0612L279.096 54.7083H279.113Z" fill="#F4A88E"/>
<path d="M277.364 55.061C277.33 55.3299 277.229 55.6492 277.061 56.0021C274.757 60.8419 268.737 61.7662 266.265 61.9342L266.955 57.1112L277.364 55.061Z" fill="black"/>
<path d="M265.256 34.7104C265.256 34.7104 259.841 46.8939 261.708 53.767C263.574 60.6402 269.847 59.5983 273.597 58.3043C277.347 57.0103 279.096 54.7249 279.096 54.7249C279.096 54.7249 282.577 55.9348 284.948 52.7083C287.319 49.4818 285.89 45.7343 283.905 44.8605C281.921 43.9866 279.533 45.415 279.533 45.415L281.417 41.886C281.417 41.886 273.715 23.8041 265.256 34.7272V34.7104Z" fill="#F4A88E"/>
<path d="M303.547 109.223L305.229 130.851L255.486 133.321L269.208 123.877L303.547 109.223Z" fill="#FF7500"/>
<path d="M265.727 50.2718C265.542 50.2718 265.374 50.1541 265.324 49.9693C264.516 47.3477 266.366 44.6758 266.433 44.5581C266.568 44.3733 266.837 44.3229 267.022 44.4573C267.207 44.5917 267.257 44.8438 267.123 45.0455C267.106 45.0623 265.441 47.499 266.131 49.7172C266.198 49.9357 266.08 50.1709 265.862 50.2382C265.828 50.2382 265.778 50.255 265.744 50.255L265.727 50.2718Z" fill="black"/>
<path d="M280.055 51.1624C279.954 51.1624 279.853 51.1288 279.769 51.0448C279.601 50.8935 279.601 50.6246 279.752 50.4566L283.065 46.9444C283.216 46.7763 283.485 46.7763 283.653 46.9444C283.822 47.1124 283.822 47.3645 283.67 47.5326L280.357 51.0448C280.273 51.1288 280.156 51.1792 280.055 51.1792V51.1624Z" fill="black"/>
<path d="M283.57 50.2213L281.215 49.8684C280.98 49.8348 280.828 49.6163 280.862 49.3978C280.896 49.1626 281.114 49.0113 281.333 49.0449L283.637 49.3978C283.872 49.4315 284.024 49.6499 283.99 49.8684C283.956 50.07 283.788 50.2213 283.57 50.2213Z" fill="black"/>
<path d="M269.578 54.0192C268.317 54.0192 267.291 52.9941 267.24 52.9437C267.14 52.8429 267.106 52.6916 267.14 52.5572C267.173 52.4228 267.274 52.3051 267.409 52.2547L272.184 50.6751C272.336 50.6246 272.504 50.6751 272.605 50.7759C272.723 50.8767 272.756 51.0448 272.723 51.196C272.706 51.2632 272.184 52.9941 270.604 53.7839C270.251 53.952 269.914 54.036 269.578 54.036V54.0192ZM268.434 52.8093C268.905 53.0949 269.578 53.3638 270.234 53.0277C270.856 52.7252 271.276 52.2043 271.545 51.7674L268.434 52.7925V52.8093Z" fill="black"/>
<path d="M271.26 45.7176C270.974 45.684 270.806 45.4823 270.839 45.247L271.125 42.9784C271.159 42.7431 271.377 42.5919 271.596 42.6087C271.831 42.6423 271.983 42.844 271.966 43.0792L271.68 45.3479C271.646 45.5663 271.478 45.7176 271.26 45.7176Z" fill="black"/>
<path d="M264.5 45.1631C264.214 45.1295 264.046 44.911 264.079 44.6758L264.416 42.4071C264.449 42.1719 264.668 42.0206 264.887 42.0542C265.122 42.0878 265.273 42.3063 265.24 42.5248L264.903 44.7934C264.87 44.9951 264.685 45.1463 264.483 45.1463L264.5 45.1631Z" fill="black"/>
<path d="M273.378 42.0541C273.227 42.0541 273.076 41.97 273.008 41.8188C272.47 40.7601 271.007 41.0626 270.94 41.0626C270.721 41.113 270.486 40.9617 270.436 40.7433C270.385 40.5248 270.536 40.2896 270.755 40.2391C270.839 40.2223 272.908 39.8022 273.748 41.4323C273.849 41.6339 273.782 41.886 273.563 42.0036C273.496 42.0373 273.429 42.0541 273.378 42.0541Z" fill="black"/>
<path d="M266.232 40.2897C266.097 40.2897 265.962 40.2225 265.878 40.1049C265.677 39.8024 265.441 39.6343 265.155 39.6007C264.584 39.5335 263.911 39.9872 263.692 40.1721C263.524 40.3233 263.255 40.3065 263.104 40.1385C262.952 39.9704 262.969 39.7016 263.137 39.5503C263.171 39.5167 264.18 38.626 265.256 38.7773C265.794 38.8445 266.232 39.1302 266.585 39.6343C266.719 39.8192 266.669 40.0881 266.467 40.2225C266.4 40.2729 266.316 40.2897 266.232 40.2897Z" fill="black"/>
<path d="M262.465 86.822V123.003C262.465 125.389 260.514 127.338 258.126 127.338H203.524C201.136 127.338 199.185 125.389 199.185 123.003V86.822C199.185 84.4357 201.136 82.5032 203.524 82.5032H258.126C260.514 82.5032 262.465 84.4357 262.465 86.822Z" fill="#FFA143"/>
<path d="M235.155 86.822V123.003C235.155 125.389 233.928 127.338 232.431 127.338H198.109C196.612 127.338 195.385 125.389 195.385 123.003V86.822C195.385 84.4357 196.612 82.5032 198.109 82.5032H232.431C233.928 82.5032 235.155 84.4357 235.155 86.822Z" fill="#FCB465"/>
<path d="M193.115 113.189C193.115 113.189 185.127 111.744 187.851 108.215C190.558 104.686 205.222 103.845 206.5 108.299C207.778 112.735 193.131 113.206 193.131 113.206L193.115 113.189Z" fill="#F4A88E"/>
<rect x="199" y="105" width="11" height="22" fill="#D9D9D9"/>
<path d="M193.569 119.877C193.569 119.877 185.581 118.432 188.305 114.903C191.013 111.374 205.676 110.534 206.954 114.987C208.232 119.423 193.585 119.894 193.585 119.894L193.569 119.877Z" fill="#F4A88E"/>
<path d="M195.839 126.213C195.839 126.213 188.658 126.162 190.491 122.667C192.324 119.171 204.987 116.247 206.753 119.928C208.535 123.608 195.822 126.213 195.822 126.213H195.839Z" fill="#F4A88E"/>
<path d="M191.08 113.071C190.861 113.071 190.676 112.903 190.659 112.685C190.659 112.449 190.827 112.248 191.046 112.231L200.631 111.609C200.867 111.576 201.068 111.76 201.085 111.996C201.085 112.231 200.917 112.433 200.698 112.449L191.113 113.071C191.113 113.071 191.096 113.071 191.08 113.071Z" fill="black"/>
<path d="M194.511 120.247C194.309 120.247 194.141 120.113 194.09 119.894C194.056 119.659 194.208 119.44 194.426 119.407L203.053 117.827C203.272 117.777 203.507 117.928 203.541 118.163C203.575 118.398 203.423 118.617 203.205 118.651L194.578 120.23C194.578 120.23 194.527 120.23 194.494 120.23L194.511 120.247Z" fill="black"/>
<path d="M278.44 46.7428C278.44 46.7428 280.374 40.4074 276.271 38.8277C272.151 37.2649 267.443 37.9707 267.56 33.1981C267.678 28.4255 269.006 28.9465 269.006 28.9465C269.006 28.9465 270.217 27.6861 274.724 28.2575C279.231 28.8289 278.39 29.2322 278.39 29.2322C278.39 29.2322 282.022 29.0641 284.41 31.1983C286.798 33.3494 285.755 37.9371 285.755 37.9371C285.755 37.9371 286.109 37.6178 285.638 40.4242C285.167 43.2306 284.276 44.8102 284.276 44.8102C284.276 44.8102 283.082 44.659 278.457 46.7596L278.44 46.7428Z" fill="black"/>
<path d="M292.297 92.6534C292.297 92.6534 273.984 115.827 259.001 119.037C244.018 122.247 261.742 132.699 261.742 132.699C261.742 132.699 305.027 128.683 309.769 104.215C312.712 88.9564 292.297 92.6534 292.297 92.6534Z" fill="#F4A88E"/>
<path d="M291.305 64.5222C291.305 64.5222 306.153 65.7322 310.055 86.1164C313.384 103.593 305.027 118.247 305.027 118.247L277.499 100.804L291.305 64.5222Z" fill="#FF7500"/>
<path d="M255.553 120.146C255.553 120.146 246.355 114.415 245.211 115.911C244.068 117.407 248.961 123.809 248.961 123.809L245.043 127.338H232.431L233.541 129.624C233.541 129.624 230.379 129.54 230.766 131.54C231.153 133.539 240.621 137.841 248.659 139.001C256.697 140.144 268.081 129.036 268.081 129.036L255.537 120.146H255.553Z" fill="#F4A88E"/>
<path d="M243.496 130.044H233.541C233.306 130.044 233.121 129.859 233.121 129.624C233.121 129.389 233.306 129.204 233.541 129.204H243.261L244.673 127.103C244.808 126.918 245.06 126.868 245.262 126.986C245.447 127.12 245.514 127.372 245.38 127.574L243.849 129.859C243.765 129.977 243.648 130.044 243.496 130.044Z" fill="black"/>
<path d="M269.948 213.833C269.73 213.833 269.545 213.665 269.528 213.43L266.383 147.235L255.368 141.202C255.167 141.085 255.083 140.833 255.2 140.631C255.318 140.429 255.57 140.362 255.772 140.463L267.005 146.614C267.14 146.681 267.224 146.815 267.224 146.967L270.385 213.396C270.385 213.631 270.217 213.816 269.982 213.833H269.965H269.948Z" fill="white"/>
<path d="M300.402 142.143C293.239 142.143 288.244 134.985 288.026 134.665C287.891 134.48 287.942 134.212 288.127 134.077C288.328 133.943 288.581 133.993 288.715 134.178C288.766 134.262 294.214 142.059 301.546 141.236C301.765 141.202 301.983 141.37 302.017 141.606C302.05 141.841 301.882 142.043 301.647 142.076C301.226 142.127 300.806 142.143 300.402 142.143Z" fill="white"/>
<path d="M249.516 255.189C249.516 255.189 249.432 255.189 249.382 255.173C249.163 255.105 249.045 254.853 249.129 254.635L268.821 197.717C268.888 197.499 269.141 197.381 269.359 197.465C269.578 197.532 269.696 197.784 269.612 198.003L249.92 254.921C249.852 255.089 249.701 255.206 249.516 255.206V255.189Z" fill="white"/>
<path d="M307.902 258.181C307.684 258.181 307.499 258.013 307.482 257.794C307.431 257.072 302.672 185.769 301.159 172.342C299.645 158.915 297.14 141.959 297.106 141.791C297.073 141.555 297.224 141.354 297.459 141.32C297.678 141.286 297.897 141.438 297.93 141.673C297.964 141.841 300.469 158.814 301.983 172.258C303.496 185.702 308.255 257.038 308.306 257.744C308.306 257.979 308.138 258.181 307.919 258.197C307.919 258.197 307.902 258.197 307.885 258.197L307.902 258.181Z" fill="white"/>
<path d="M301.596 274.095H288.379C288.194 274.095 288.025 273.96 287.975 273.776C287.925 273.591 288.009 273.406 288.177 273.305L297.224 268.112C297.426 267.995 297.678 268.062 297.796 268.264C297.913 268.465 297.846 268.717 297.644 268.835L289.959 273.255H301.613C301.848 273.255 302.033 273.439 302.033 273.675C302.033 273.91 301.848 274.095 301.613 274.095H301.596Z" fill="#AD4D40"/>
<path d="M221.248 258.601C221.248 258.601 221.113 258.601 221.046 258.55L209.88 252.417C209.678 252.299 209.594 252.047 209.712 251.845C209.83 251.644 210.082 251.56 210.284 251.677L220.424 257.24L218.087 251.408C218.002 251.19 218.103 250.955 218.322 250.854C218.541 250.77 218.776 250.871 218.877 251.089L221.652 258.013C221.719 258.181 221.668 258.365 221.534 258.483C221.45 258.55 221.349 258.584 221.248 258.584V258.601Z" fill="#AD4D40"/>
<path d="M285.621 46.7428C285.621 46.7428 258.563 35.097 257.016 32.6267C255.469 30.1564 264.331 32.9124 264.331 32.9124C264.331 32.9124 269.729 22.0397 281.736 28.1231C292.667 33.6686 285.621 46.7428 285.621 46.7428Z" fill="#FF7500"/>
<path d="M304.203 118.113C304.203 118.113 304.052 118.096 303.984 118.045L278.827 102.282C278.642 102.165 278.575 101.93 278.676 101.728L282.056 95.1236C282.157 94.9219 282.409 94.8379 282.628 94.9387C282.829 95.0396 282.913 95.2916 282.813 95.5101L279.601 101.778L304.438 117.34C304.64 117.457 304.691 117.726 304.573 117.911C304.489 118.045 304.354 118.113 304.22 118.113H304.203Z" fill="#CE5800"/>
<path d="M264.499 64.4718C264.499 64.4718 264.819 62.6064 265.542 62.2703C266.265 61.9342 270.015 63.85 272.117 63.6987C274.236 63.5307 279.163 59.3463 280.055 60.0353C280.946 60.7243 280.34 65.6313 280.34 65.6313L274.135 69.4292H268.064L264.466 67.8159V64.4718H264.499Z" fill="#FF7500"/>
<path d="M275.481 68.2192C275.363 68.2192 275.245 68.1688 275.161 68.0679C275.01 67.8831 275.044 67.631 275.229 67.4798L280.29 63.3626C280.475 63.2113 280.727 63.2449 280.879 63.4298C281.03 63.6147 280.996 63.8667 280.811 64.018L275.75 68.1351C275.75 68.1351 275.582 68.236 275.481 68.236V68.2192Z" fill="#CE5800"/>
<path d="M104.123 68.6898C104.123 68.6898 98.0357 71.5466 94.2856 67.8663C90.6365 64.2701 92.234 59.5647 92.234 59.5647C92.234 59.5647 88.5513 57.8843 87.7441 53.7335C86.9369 49.5659 89.0894 46.0369 89.0894 46.0369C89.0894 46.0369 86.9201 40.5249 89.5098 37.0631C91.9986 33.7358 94.3529 33.6517 94.3529 33.6517C94.3529 33.6517 93.2766 29.5178 97.6152 26.5097C100.558 24.4595 104.09 25.7703 104.09 25.7703C104.09 25.7703 105.098 21.233 112.447 20.0735C119.14 19.0148 121.023 22.4597 121.023 22.4597C121.023 22.4597 125.967 19.7878 129.415 22.006C132.862 24.2242 132.593 27.8709 132.593 27.8709C132.593 27.8709 136.108 29.2657 136.898 32.8619C137.688 36.4413 137.184 38.2395 137.184 38.2395C137.184 38.2395 139.723 41.4828 139.774 45.0118C139.824 48.524 138.428 50.3221 138.428 50.3221C138.428 50.3221 140.984 53.7671 140.413 56.792C139.841 59.8168 138.395 60.6403 138.395 60.6403C138.395 60.6403 138.462 66.1354 133.098 68.7066C129.078 70.6391 104.106 68.7066 104.106 68.7066L104.123 68.6898Z" fill="black"/>
<path d="M80.0251 199.28C80.0251 199.902 79.5542 200.406 78.9657 200.406C78.3771 200.406 77.9062 199.902 77.9062 199.28C77.9062 198.658 78.3771 198.154 78.9657 198.154C79.5542 198.154 80.0251 198.658 80.0251 199.28Z" fill="white"/>
<path d="M140.782 255.257L139.336 274.397L119.695 272.801V256.013L140.782 255.257Z" fill="#8E4B47"/>
<path d="M68.4387 216.017L50.4453 215.16L51.2525 194.171L66.9757 193.566L68.4387 216.017Z" fill="#8E4B47"/>
<path d="M147.206 127.019C147.206 127.019 159.885 162.729 159.616 194.978C159.364 227.226 150.603 262.13 150.603 262.13L112.144 262.936C112.144 262.936 118.601 228.688 119.156 220.807C119.711 212.925 121.158 162.998 121.158 162.998L121.578 129.069L147.206 127.002V127.019Z" fill="#B56A4D"/>
<path d="M98.6574 127.019C98.6574 127.019 97.4635 147 97.1103 157.268C96.7572 167.536 86.1629 181.332 77.553 184.475C68.9431 187.617 60.5518 186.424 60.5518 186.424L59.4419 223.697C59.4419 223.697 88.5172 232.385 108.949 218.135C129.381 203.868 128.052 174.157 128.052 174.157L129.566 126.229L98.6574 127.036V127.019Z" fill="#B56A4D"/>
<path d="M120.183 208.237C120.099 208.237 120.014 208.203 119.947 208.153C119.762 208.018 119.729 207.766 119.863 207.582C138.294 182.694 129.617 146.11 129.532 145.74C129.499 145.622 129.532 145.505 129.6 145.404C129.667 145.303 129.768 145.253 129.886 145.236L141.556 144.026C141.775 143.992 141.976 144.16 142.01 144.395C142.027 144.614 141.876 144.816 141.64 144.832L130.424 145.992C131.365 150.311 138.058 184.374 120.519 208.052C120.435 208.153 120.317 208.22 120.199 208.22L120.183 208.237Z" fill="#A0463A"/>
<path d="M102.155 145.824C102.021 145.824 101.87 145.824 101.735 145.824C101.516 145.824 101.331 145.622 101.348 145.404C101.348 145.185 101.533 145.034 101.769 145.017C108.68 145.269 109.302 139.892 109.319 139.673C109.336 139.455 109.538 139.303 109.756 139.303C109.975 139.32 110.143 139.522 110.126 139.757C110.126 139.824 109.437 145.841 102.172 145.841L102.155 145.824Z" fill="#A0463A"/>
<path d="M35.0078 189.583C33.7971 190.155 34.0998 198.624 33.8475 199.33C33.5953 200.036 37.9675 202.574 37.1603 203.867C36.3531 205.161 34.0661 206.623 32.9058 208.539C31.8128 210.321 29.1726 241.275 29.3912 247.341C29.408 247.846 29.8453 248.232 30.3497 248.182C31.611 248.081 34.0661 247.812 36.5549 247.056C38.7915 246.367 41.0953 245.291 42.5583 243.577C46.4261 239.141 48.6795 229.226 51.3028 225.815C53.9093 222.386 59.795 218.874 58.9542 216.589C58.0966 214.303 53.6907 209.699 54.9015 203.834C56.1123 197.969 57.7266 195.364 56.5158 193.633C55.7423 192.541 47.8555 190.995 41.8521 190.138C38.3375 189.634 35.4619 189.365 35.0247 189.583H35.0078Z" fill="#507849"/>
<path d="M95.7991 185.735C95.3787 185.735 94.9919 185.601 94.6051 185.332C92.1836 183.601 91.2755 176.476 91.2419 176.173C91.225 176.005 91.3091 175.82 91.4773 175.753C91.6455 175.686 91.8304 175.719 91.9481 175.854C92.9571 176.963 97.9684 182.626 97.2453 184.828C97.1444 185.147 96.8753 185.55 96.2027 185.702C96.0681 185.735 95.9336 185.735 95.7991 185.735ZM92.2508 177.45C92.6712 179.87 93.6298 183.635 95.076 184.676C95.3955 184.895 95.6982 184.979 96.0345 184.912C96.354 184.844 96.4381 184.71 96.4717 184.592C96.8585 183.416 94.3697 179.954 92.2677 177.467L92.2508 177.45Z" fill="#A0463A"/>
<path d="M116.819 291.79C117.475 293.017 125.345 291.858 126.018 292.059C126.707 292.261 128.624 287.354 129.919 288.093C131.214 288.816 132.795 291.101 134.695 292.16C136.461 293.135 165.603 292.899 171.237 292.059C171.708 291.992 172.01 291.488 171.926 290.967C171.708 289.639 171.22 287.051 170.261 284.497C169.404 282.178 168.176 279.859 166.427 278.464C161.904 274.801 152.436 273.372 149.006 270.936C145.558 268.499 141.707 262.6 139.639 263.726C137.587 264.852 133.736 269.994 128.137 269.272C122.554 268.566 119.964 267.104 118.45 268.566C117.509 269.49 116.836 278.027 116.634 284.48C116.517 288.261 116.55 291.337 116.786 291.79H116.819Z" fill="#507849"/>
<path d="M116.819 291.79C117.475 293.017 125.345 291.858 126.018 292.059C126.707 292.261 128.624 287.354 129.919 288.093C131.214 288.816 132.795 291.101 134.695 292.16C136.46 293.135 165.603 292.899 171.237 292.059C171.707 291.992 172.01 291.488 171.926 290.967C171.707 289.639 171.22 287.051 170.261 284.497H116.651C116.533 288.278 116.567 291.353 116.802 291.807L116.819 291.79Z" fill="#F7C537"/>
<path d="M35.0248 189.416C33.8141 189.987 34.0495 198.507 33.7973 199.213C33.545 199.919 37.9004 202.49 37.0764 203.8C36.2692 205.111 33.9654 206.556 32.7883 208.472C31.6952 210.27 28.8196 241.41 29.0046 247.51C29.0214 248.014 29.4418 248.4 29.9631 248.367C31.2244 248.283 33.6795 248.031 36.1852 247.274L41.8522 190.004C38.3376 189.466 35.4621 189.197 35.0248 189.399V189.416Z" fill="#F7C537"/>
<path d="M142.145 83.2258L125.228 100.451C125.228 100.451 133.249 108.971 154.992 112.365C170.077 114.718 182.453 113.508 182.453 113.508C182.453 113.508 189.785 115.424 196.764 114.466C201.826 113.777 206.938 109.878 209.359 107.778C209.982 107.24 209.696 106.248 208.888 106.097L206.416 105.643C206.416 105.643 209.275 104.753 209.813 103.14C210.351 101.526 204.079 102.787 204.079 102.787C204.079 102.787 206.938 100.82 204.079 100.636C201.22 100.451 195.671 101.879 191.904 101.711L188.154 101.526C188.154 101.526 193.703 98.8207 192.442 96.6865C191.198 94.5523 185.817 97.5939 184.034 98.3165C182.251 99.0391 180.284 100.468 180.284 100.468C180.284 100.468 154.421 96.6361 142.111 83.2426L142.145 83.2258Z" fill="#8E4B47"/>
<path d="M130.895 66.001C130.895 66.001 137.419 72.4876 143.372 77.966C150.385 84.4358 155.127 89.1916 155.127 89.1916L138.731 111.223L133.837 107.29L130.895 66.001Z" fill="#FFB255"/>
<path d="M103.787 64.4045C103.787 64.4045 89.2574 70.219 88.6688 85.5282C88.0802 100.837 97.4133 129.355 97.4133 129.355C97.4133 129.355 122.537 133.103 130.911 131.909C139.269 130.716 124.639 85.5282 124.639 85.5282L103.787 64.4045Z" fill="#FFB255"/>
<path d="M146.248 128.717C146.248 128.717 145.491 77.0754 130.978 65.9842C116.466 54.9098 101.079 65.9842 101.079 65.9842L102.963 127.187C102.963 127.187 128.305 136.766 146.248 128.717Z" fill="#FFB255"/>
<path d="M126.253 101.947L110.732 120.886C110.732 120.886 121.612 128.784 135.485 131.17C144.785 132.767 162.644 134.565 170.514 133.203C176.013 132.262 179.998 129.305 181.898 127.624C182.537 127.07 182.386 126.045 181.629 125.675L180.318 125.02C180.318 125.02 180.637 125.171 181.074 123.574C181.528 121.961 176.315 123.221 176.315 123.221C176.315 123.221 178.703 121.255 176.315 121.07C173.927 120.886 169.32 122.314 166.192 122.146L163.064 121.961C163.064 121.961 167.184 118.617 166.629 117.121C166.057 115.575 161.13 118.029 159.634 118.751C158.154 119.474 156.506 120.902 156.506 120.902C156.506 120.902 136.444 115.357 126.203 101.963L126.253 101.947Z" fill="#8E4B47"/>
<path d="M109.639 52.9773L109.79 62.7241C109.79 62.7241 111.589 65.4969 117.307 65.8666C121.561 66.1523 123.041 65.1608 123.041 65.1608L122.369 60.237L121.713 55.4308L111.388 53.3302L109.655 52.9773H109.639Z" fill="#8E4B47"/>
<path d="M167.554 126.095C167.352 126.095 167.167 125.927 167.15 125.725C167.133 125.507 167.301 125.305 167.52 125.288C167.57 125.288 173.271 124.818 176.113 122.868C176.298 122.734 176.55 122.784 176.685 122.969C176.819 123.154 176.769 123.406 176.584 123.541C173.557 125.624 167.84 126.078 167.587 126.095C167.587 126.095 167.57 126.095 167.554 126.095Z" fill="black"/>
<path d="M169.185 129.758C168.966 129.758 168.781 129.574 168.781 129.355C168.781 129.137 168.949 128.952 169.185 128.935C169.252 128.935 176.012 128.767 180.065 124.717C180.216 124.566 180.485 124.566 180.637 124.717C180.788 124.868 180.788 125.137 180.637 125.288C176.332 129.557 169.488 129.742 169.185 129.742V129.758Z" fill="black"/>
<path d="M92.1667 87.0069C92.1667 87.0069 91.8808 104.333 100.205 114.079C108.529 123.826 110.53 124.28 110.53 124.28L129.331 100.787C129.331 100.787 114.331 83.6627 111.707 77.2265C109.084 70.7902 107.083 66.8579 107.083 66.8579L92.1667 87.0069Z" fill="#FFB255"/>
<path d="M197.924 109.458C197.823 109.458 197.739 109.425 197.655 109.357L191.669 104.131C191.5 103.98 191.484 103.728 191.635 103.56C191.786 103.392 192.039 103.375 192.207 103.526L198.025 108.618C199.001 108.399 203.272 107.391 205.357 106.097C205.542 105.98 205.794 106.03 205.912 106.232C206.03 106.416 205.979 106.669 205.777 106.786C203.305 108.315 198.21 109.408 197.992 109.458C197.958 109.458 197.941 109.458 197.907 109.458H197.924Z" fill="black"/>
<path d="M195.149 105.896C194.678 105.896 194.191 105.862 193.703 105.812C193.485 105.778 193.316 105.576 193.35 105.358C193.384 105.139 193.585 104.955 193.804 105.005C198.765 105.61 203.843 102.467 203.894 102.434C204.079 102.316 204.331 102.367 204.449 102.568C204.566 102.753 204.516 103.005 204.314 103.123C204.112 103.24 199.841 105.896 195.133 105.896H195.149Z" fill="black"/>
<path d="M110.53 124.683C110.446 124.683 110.345 124.65 110.261 124.599C110.076 124.448 110.059 124.196 110.194 124.011L128.776 100.787L121.309 91.8636C121.158 91.6787 121.192 91.4267 121.36 91.2754C121.528 91.1242 121.797 91.141 121.948 91.3258L129.633 100.518C129.768 100.669 129.768 100.888 129.633 101.056L110.833 124.549C110.749 124.65 110.631 124.7 110.496 124.7L110.53 124.683Z" fill="white"/>
<path d="M111.371 53.3301C111.404 53.599 111.505 53.9014 111.673 54.2711C113.927 59.1109 119.913 60.052 122.368 60.2369L121.713 55.4307L111.387 53.3301H111.371Z" fill="black"/>
<path d="M123.529 33.1979C123.529 33.1979 128.843 45.331 126.926 52.1538C125.009 58.9765 118.803 57.901 115.087 56.5902C111.371 55.2794 109.638 52.994 109.638 52.994C109.638 52.994 106.158 54.1703 103.837 50.9438C101.516 47.7173 102.946 44.0034 104.93 43.1632C106.914 42.3061 109.269 43.7514 109.269 43.7514L107.419 40.2223C107.419 40.2223 115.188 22.2916 123.529 33.2147V33.1979Z" fill="#8E4B47"/>
<path d="M122.974 48.5911C122.974 48.5911 122.906 48.5911 122.856 48.5743C122.671 48.5071 122.553 48.3054 122.621 48.1206C123.327 45.8855 121.662 43.4488 121.645 43.432C121.527 43.264 121.578 43.0455 121.746 42.9279C121.914 42.8102 122.133 42.8607 122.251 43.0287C122.335 43.1463 124.134 45.7847 123.31 48.3558C123.26 48.5071 123.108 48.6079 122.957 48.6079L122.974 48.5911Z" fill="black"/>
<path d="M108.714 49.381C108.613 49.381 108.512 49.3473 108.444 49.2633L105.165 45.7511C105.031 45.5999 105.031 45.3646 105.182 45.2302C105.333 45.0957 105.569 45.0957 105.703 45.247L108.983 48.7592C109.117 48.9104 109.117 49.1457 108.966 49.2801C108.899 49.3473 108.798 49.381 108.714 49.381Z" fill="black"/>
<path d="M105.233 48.4232C105.048 48.4232 104.896 48.2888 104.863 48.1039C104.829 47.9022 104.98 47.7174 105.165 47.6838L107.452 47.3477C107.654 47.2973 107.839 47.4653 107.873 47.6502C107.906 47.8518 107.755 48.0367 107.57 48.0703L105.283 48.4064C105.283 48.4064 105.249 48.4064 105.233 48.4064V48.4232Z" fill="black"/>
<path d="M119.123 52.2883C118.804 52.2883 118.451 52.2211 118.114 52.0362C116.567 51.2464 116.063 49.5491 116.046 49.4819C116.012 49.3475 116.046 49.213 116.147 49.1122C116.248 49.0114 116.382 48.9946 116.517 49.0282L121.259 50.6414C121.377 50.6751 121.461 50.7759 121.494 50.9103C121.528 51.028 121.494 51.1624 121.393 51.2464C121.343 51.2968 120.351 52.2883 119.123 52.2883ZM117.072 50.0029C117.341 50.4734 117.778 51.0448 118.451 51.3977C119.157 51.7506 119.914 51.4313 120.384 51.1288L117.072 50.0029Z" fill="black"/>
<path d="M115.424 39.6847C115.424 39.6847 115.306 39.6847 115.255 39.6343C115.07 39.5335 115.003 39.315 115.104 39.147C115.911 37.6009 118.467 37.769 118.568 37.7858C118.77 37.7858 118.921 37.9706 118.904 38.1723C118.904 38.374 118.703 38.4916 118.518 38.5084C117.912 38.4748 116.231 38.5588 115.743 39.4831C115.676 39.6007 115.558 39.6847 115.424 39.6847Z" fill="black"/>
<path d="M124.79 38.3404C124.689 38.3404 124.588 38.29 124.504 38.2059C124.437 38.1219 123.764 37.4161 122.705 38.0715C122.537 38.1723 122.301 38.1219 122.2 37.9539C122.099 37.7858 122.15 37.5506 122.318 37.4497C123.63 36.6431 124.689 37.2817 125.076 37.7354C125.21 37.8866 125.194 38.1219 125.025 38.2564C124.958 38.3068 124.874 38.3404 124.79 38.3404Z" fill="black"/>
<path d="M117.509 44.0204C117.324 44.0204 117.172 43.8859 117.139 43.7011L116.87 41.4324C116.87 41.3484 116.87 41.2476 116.937 41.1635L117.862 39.9032C117.979 39.7351 118.215 39.7015 118.366 39.8192C118.534 39.9368 118.568 40.1721 118.45 40.3401L117.61 41.4828L117.862 43.6002C117.879 43.8019 117.744 43.9867 117.542 44.0035C117.542 44.0035 117.509 44.0035 117.492 44.0035L117.509 44.0204Z" fill="black"/>
<path d="M124.218 43.533C124.033 43.533 123.882 43.3985 123.848 43.2137L123.529 40.9618C123.529 40.8778 123.529 40.7938 123.579 40.7098L124.37 39.4494C124.471 39.2813 124.706 39.2309 124.874 39.3318C125.042 39.4326 125.093 39.6679 124.992 39.8359L124.269 40.9786L124.571 43.1128C124.605 43.3145 124.454 43.4994 124.252 43.533C124.235 43.533 124.218 43.533 124.201 43.533H124.218Z" fill="black"/>
<path d="M120.149 32.7779C120.149 32.7779 119.459 36.5422 117.038 37.7858C114.616 39.0293 112.077 38.9789 112.077 38.9789C112.077 38.9789 113.523 40.861 112.245 42.2054C110.984 43.5498 109.269 43.7347 109.269 43.7347L104.795 39.9032L110.849 30.0556L121.965 27.8037L125.748 34.2904L126.034 39.6007C126.034 39.6007 124.1 32.7443 120.149 32.8115V32.7779Z" fill="black"/>
<path d="M117.879 66.4042C117.694 66.4042 117.509 66.4042 117.324 66.4042C111.875 66.2698 108.832 62.6904 108.714 62.5391C108.562 62.3543 108.596 62.1022 108.764 61.951C108.932 61.7997 109.202 61.8165 109.353 62.0014C109.386 62.035 112.296 65.4464 117.341 65.564C122.301 65.6984 123.563 64.1692 123.563 64.1524C123.697 63.9675 123.966 63.9339 124.151 64.0852C124.336 64.2196 124.37 64.4885 124.235 64.6565C124.185 64.7238 122.89 66.4042 117.862 66.4042H117.879Z" fill="white"/>
<path d="M141.59 96.9219C141.354 96.9219 141.169 96.7371 141.169 96.5018C141.186 80.2852 131.584 75.3446 131.483 75.2941C131.281 75.1933 131.197 74.9412 131.298 74.7396C131.399 74.5379 131.651 74.4371 131.853 74.5547C131.954 74.6051 142.027 79.7474 142.01 96.5186C142.01 96.7539 141.825 96.9387 141.59 96.9387V96.9219Z" fill="white"/>
<path d="M97.9026 294.983L10.0974 291.611C6.17694 291.611 3 288.441 3 284.529V10.4538C3 6.54207 6.17694 3.3722 10.0974 3.3722L97.9026 0C101.823 0 105 3.16987 105 7.08162V287.918C105 291.83 101.823 295 97.9026 295V294.983Z" fill="#CCC5D1"/>
<path d="M84.5 157C82.5725 157 81 155.47 81 153.595V125.405C81 123.53 82.5725 122 84.5 122C86.4275 122 88 123.53 88 125.405V153.595C88 155.47 86.4275 157 84.5 157Z" fill="#EAE6ED"/>
<path d="M84 147C87.3137 147 90 143.642 90 139.5C90 135.358 87.3137 132 84 132C80.6863 132 78 135.358 78 139.5C78 143.642 80.6863 147 84 147Z" fill="#B1A7B7"/>
<path d="M2.5 51C1.11635 51 0 49.8027 0 48.3187V23.6813C0 22.1973 1.11635 21 2.5 21C3.88365 21 5 22.1973 5 23.6813V48.3187C5 49.8027 3.88365 51 2.5 51Z" fill="#DFDCE2"/>
<path d="M3 271C1.33962 271 0 269.803 0 268.319V243.681C0 242.197 1.33962 241 3 241C4.66038 241 6 242.197 6 243.681V268.319C6 269.803 4.66038 271 3 271Z" fill="#DFDCE2"/>
<path d="M86 150.5C86 151.325 85.3232 152 84.5 152C83.6768 152 83 151.325 83 150.5C83 149.675 83.6768 149 84.5 149C85.3232 149 86 149.675 86 150.5Z" fill="#998EA0"/>
<path d="M84.2465 151L83 155H86L84.2465 151Z" fill="#998EA0"/>
</svg>
