<svg width="31" height="31" viewBox="0 0 31 31" fill="none" xmlns="http://www.w3.org/2000/svg">
<path id="Insta" fill-rule="evenodd" clip-rule="evenodd" d="M9.72509 0.59C11.3246 0.516364 11.8346 0.5 15.9092 0.5C19.9837 0.5 20.4937 0.517727 22.0919 0.59C23.6901 0.662273 24.781 0.917273 25.7355 1.28682C26.7351 1.66455 27.6419 2.255 28.3919 3.01864C29.1555 3.76727 29.7446 4.67273 30.121 5.67364C30.4919 6.62818 30.7455 7.71909 30.8192 9.31455C30.8928 10.9168 30.9092 11.4268 30.9092 15.5C30.9092 19.5745 30.8915 20.0845 30.8192 21.6841C30.7469 23.2795 30.4919 24.3705 30.121 25.325C29.7446 26.326 29.1546 27.233 28.3919 27.9827C27.6419 28.7464 26.7351 29.3355 25.7355 29.7118C24.781 30.0827 23.6901 30.3364 22.0946 30.41C20.4937 30.4836 19.9837 30.5 15.9092 30.5C11.8346 30.5 11.3246 30.4823 9.72509 30.41C8.12963 30.3377 7.03873 30.0827 6.08418 29.7118C5.08316 29.3354 4.17621 28.7453 3.42645 27.9827C2.66333 27.2336 2.07279 26.3271 1.696 25.3264C1.32645 24.3718 1.07282 23.2809 0.99918 21.6855C0.925543 20.0832 0.90918 19.5732 0.90918 15.5C0.90918 11.4255 0.926907 10.9155 0.99918 9.31727C1.07145 7.71909 1.32645 6.62818 1.696 5.67364C2.07335 4.67284 2.66434 3.76634 3.42782 3.01727C4.17651 2.25432 5.08255 1.66379 6.08282 1.28682C7.03736 0.917273 8.12827 0.663636 9.72373 0.59H9.72509ZM21.9705 3.29C20.3887 3.21773 19.9142 3.20273 15.9092 3.20273C11.9042 3.20273 11.4296 3.21773 9.84782 3.29C8.38463 3.35682 7.591 3.60091 7.06191 3.80682C6.36236 4.07955 5.86191 4.40273 5.33691 4.92773C4.83924 5.41189 4.45624 6.00129 4.216 6.65273C4.01009 7.18182 3.766 7.97546 3.69918 9.43864C3.62691 11.0205 3.61191 11.495 3.61191 15.5C3.61191 19.505 3.62691 19.9795 3.69918 21.5614C3.766 23.0245 4.01009 23.8182 4.216 24.3473C4.456 24.9977 4.83918 25.5882 5.33691 26.0723C5.821 26.57 6.41145 26.9532 7.06191 27.1932C7.591 27.3991 8.38463 27.6432 9.84782 27.71C11.4296 27.7823 11.9028 27.7973 15.9092 27.7973C19.9155 27.7973 20.3887 27.7823 21.9705 27.71C23.4337 27.6432 24.2274 27.3991 24.7565 27.1932C25.456 26.9205 25.9565 26.5973 26.4815 26.0723C26.9792 25.5882 27.3624 24.9977 27.6024 24.3473C27.8083 23.8182 28.0524 23.0245 28.1192 21.5614C28.1915 19.9795 28.2065 19.505 28.2065 15.5C28.2065 11.495 28.1915 11.0205 28.1192 9.43864C28.0524 7.97546 27.8083 7.18182 27.6024 6.65273C27.3296 5.95318 27.0065 5.45273 26.4815 4.92773C25.9973 4.4301 25.4079 4.04711 24.7565 3.80682C24.2274 3.60091 23.4337 3.35682 21.9705 3.29ZM13.9933 20.1241C15.0633 20.5695 16.2547 20.6296 17.3641 20.2942C18.4735 19.9587 19.432 19.2485 20.0759 18.2849C20.7199 17.3212 21.0093 16.1639 20.8947 15.0106C20.7801 13.8573 20.2687 12.7795 19.4478 11.9614C18.9245 11.4384 18.2917 11.0379 17.5951 10.7888C16.8984 10.5397 16.1552 10.4482 15.4189 10.5208C14.6827 10.5935 13.9717 10.8284 13.3371 11.2088C12.7025 11.5892 12.1602 12.1056 11.7491 12.7207C11.3381 13.3359 11.0685 14.0345 10.9599 14.7663C10.8512 15.4981 10.9062 16.2449 11.1208 16.953C11.3354 17.661 11.7044 18.3127 12.2011 18.861C12.6978 19.4093 13.3098 19.8407 13.9933 20.1241ZM10.4574 10.0482C11.1733 9.33224 12.0233 8.76432 12.9587 8.37686C13.8941 7.98939 14.8967 7.78997 15.9092 7.78997C16.9217 7.78997 17.9243 7.98939 18.8597 8.37686C19.7951 8.76432 20.6451 9.33224 21.361 10.0482C22.0769 10.7641 22.6449 11.6141 23.0323 12.5495C23.4198 13.4849 23.6192 14.4875 23.6192 15.5C23.6192 16.5125 23.4198 17.5151 23.0323 18.4505C22.6449 19.3859 22.0769 20.2359 21.361 20.9518C19.9151 22.3977 17.954 23.21 15.9092 23.21C13.8644 23.21 11.9033 22.3977 10.4574 20.9518C9.01145 19.5059 8.19914 17.5448 8.19914 15.5C8.19914 13.4552 9.01145 11.4941 10.4574 10.0482ZM25.3292 8.93818C25.5066 8.77082 25.6486 8.56957 25.7469 8.34633C25.8451 8.12309 25.8976 7.88241 25.9011 7.63854C25.9047 7.39467 25.8593 7.15257 25.7676 6.92656C25.6759 6.70055 25.5398 6.49524 25.3673 6.32278C25.1948 6.15032 24.9895 6.01421 24.7635 5.92252C24.5375 5.83083 24.2954 5.78542 24.0515 5.78898C23.8077 5.79253 23.567 5.84498 23.3438 5.94322C23.1205 6.04146 22.9193 6.18349 22.7519 6.36091C22.4264 6.70595 22.2482 7.16426 22.2551 7.63854C22.2621 8.11283 22.4535 8.56574 22.7889 8.90115C23.1243 9.23656 23.5773 9.42804 24.0515 9.43495C24.5258 9.44187 24.9841 9.26367 25.3292 8.93818Z" fill="white"/>
</svg>
