<svg width="31" height="31" viewBox="0 0 31 31" fill="none" xmlns="http://www.w3.org/2000/svg">
<path id="linkedin" fill-rule="evenodd" clip-rule="evenodd" d="M0.90918 3.00748C0.90918 2.34246 1.17336 1.70467 1.6436 1.23443C2.11385 0.764183 2.75163 0.500003 3.41666 0.500003H28.4123C28.7419 0.499465 29.0683 0.563936 29.3729 0.689724C29.6775 0.815512 29.9544 1.00015 30.1875 1.23306C30.4207 1.46597 30.6056 1.74259 30.7317 2.04707C30.8579 2.35155 30.9227 2.67791 30.9225 3.00748V28.0031C30.9229 28.3328 30.8582 28.6592 30.7323 28.9638C30.6063 29.2685 30.4216 29.5453 30.1886 29.7784C29.9555 30.0116 29.6788 30.1965 29.3743 30.3226C29.0697 30.4487 28.7433 30.5135 28.4137 30.5133H3.41666C3.08726 30.5133 2.76108 30.4484 2.45677 30.3223C2.15246 30.1962 1.87598 30.0114 1.64312 29.7784C1.41026 29.5454 1.22559 29.2689 1.09966 28.9645C0.973726 28.6601 0.909001 28.3339 0.90918 28.0045V3.00748ZM12.789 11.9433H16.8531V13.9842C17.4397 12.8109 18.9404 11.755 21.1955 11.755C25.5187 11.755 26.5433 14.0919 26.5433 18.3798V26.3224H22.1682V19.3566C22.1682 16.9146 21.5815 15.5367 20.0918 15.5367C18.025 15.5367 17.1655 17.0223 17.1655 19.3566V26.3224H12.789V11.9433ZM5.28567 26.1355H9.66216V11.755H5.28567V26.1341V26.1355ZM10.2883 7.06474C10.2966 7.43946 10.2299 7.81205 10.0922 8.16065C9.95452 8.50925 9.74858 8.82684 9.48649 9.09477C9.22439 9.36271 8.91141 9.57559 8.56593 9.72092C8.22044 9.86626 7.84941 9.94113 7.4746 9.94113C7.09978 9.94113 6.72875 9.86626 6.38326 9.72092C6.03778 9.57559 5.7248 9.36271 5.4627 9.09477C5.20061 8.82684 4.99467 8.50925 4.85697 8.16065C4.71927 7.81205 4.65259 7.43946 4.66085 7.06474C4.67704 6.32921 4.9806 5.62927 5.50652 5.11481C6.03244 4.60034 6.73889 4.31227 7.4746 4.31227C8.2103 4.31227 8.91675 4.60034 9.44267 5.11481C9.96859 5.62927 10.2721 6.32921 10.2883 7.06474Z" fill="white"/>
</svg>
