<svg width="252" height="60" viewBox="0 0 252 60" fill="none" xmlns="http://www.w3.org/2000/svg">
<path d="M47.545 30.2531C48.2557 29.6075 48.9977 29.7168 49.9636 30.3338C49.9636 30.3338 49.9636 30.3338 50.7654 30.7021C51.5672 31.0719 52.3885 31.2555 53.2295 31.2555C54.0443 31.2555 54.6991 31.1045 55.1963 30.7972C55.6937 30.4927 55.9422 30.0722 55.9422 29.5372C55.9422 29.027 55.7119 28.6339 55.2536 28.3526C54.7955 28.0728 54.1199 27.7929 53.2295 27.5118C52.3378 27.258 51.5542 26.9715 50.88 26.6527C50.2044 26.3351 49.6381 25.9642 49.18 25.5449C48.7217 25.1245 48.3781 24.6403 48.1489 24.0935C47.9186 23.5441 47.8053 22.9026 47.8053 22.1645C47.8053 21.1192 48.0396 20.1911 48.5121 19.3749C48.982 18.5601 49.6069 17.8663 50.3839 17.2935C51.1597 16.722 52.0709 16.2886 53.1149 15.9944C54.1588 15.7028 55.2536 15.5558 56.4004 15.5558C57.8765 15.5558 59.2589 15.803 60.5449 16.2991C61.8311 16.7963 62.8568 17.5279 63.6196 18.4963L61.0969 20.6194C60.3626 21.239 59.7014 21.2663 58.9139 20.8147C58.9139 20.8147 58.9139 20.8147 58.2902 20.4827C57.6668 20.1521 56.9209 19.9868 56.0554 19.9868C55.3928 19.9868 54.7888 20.1156 54.242 20.3682C53.6941 20.6233 53.4193 21.0554 53.4193 21.6686C53.4193 22.1007 53.6237 22.4378 54.0311 22.6813C54.4385 22.9234 55.0633 23.1577 55.903 23.3868C57.6863 23.8698 59.0934 24.5388 60.1243 25.3926C61.1552 26.2466 61.6719 27.487 61.6719 29.1167C61.6719 30.2623 61.4234 31.262 60.9262 32.1146C60.4302 32.9685 59.7807 33.6688 58.9776 34.2169C58.1758 34.7635 57.2594 35.171 56.2272 35.4391C55.1962 35.7057 54.1457 35.8387 53.0771 35.8387C51.3186 35.8387 49.7539 35.5458 48.3779 34.9601C47.0021 34.3743 45.8826 33.5737 45.0156 32.5546L47.545 30.2531Z" fill="white"/>
<path d="M73.4369 35.6876C72.0611 35.6876 70.7814 35.4963 69.5982 35.1136C68.4138 34.7321 67.3945 34.1789 66.5419 33.4526C65.6879 32.7263 65.0137 31.8477 64.5178 30.8168C64.0206 29.7846 63.7732 28.6194 63.7732 27.3216C63.7732 25.7427 64.0401 24.2392 64.5751 22.8126C65.1101 21.3873 65.8794 20.1389 66.8855 19.0689C67.8904 18.0001 69.1075 17.1464 70.5342 16.5098C71.9595 15.8733 73.5762 15.5557 75.3842 15.5557C76.7861 15.5557 78.0852 15.7456 79.2816 16.1283C80.4791 16.5098 81.51 17.0629 82.3757 17.7892C83.2413 18.5157 83.9233 19.3942 84.4193 20.4266C84.9165 21.4575 85.1639 22.6211 85.1639 23.9202C85.1639 25.5253 84.897 27.0416 84.362 28.4671C83.827 29.8925 83.0498 31.1407 82.032 32.2108C81.0128 33.2795 79.7839 34.1269 78.3455 34.7504C76.9059 35.3739 75.2711 35.6876 73.4369 35.6876ZM79.1293 24.57C79.1293 23.4245 78.7778 22.469 78.0776 21.7062C77.3784 20.9422 76.3905 20.5607 75.1187 20.5607C74.3026 20.5607 73.5632 20.7247 72.9019 21.0553C72.2395 21.3873 71.6797 21.8323 71.2214 22.3922C70.762 22.9544 70.4066 23.6028 70.1514 24.3422C69.8963 25.0803 69.7699 25.8573 69.7699 26.6721C69.7699 27.8176 70.1135 28.7665 70.8009 29.5177C71.4882 30.2687 72.4683 30.645 73.7427 30.645C74.5576 30.645 75.2944 30.4861 75.9582 30.1673C76.6208 29.8484 77.187 29.4097 77.6582 28.8487C78.1281 28.289 78.4913 27.6394 78.7464 26.9014C79.0017 26.1631 79.1293 25.3861 79.1293 24.57Z" fill="white"/>
<path d="M97.068 36.4998C96.5929 37.3356 95.8041 38.6933 95.3159 39.5198C95.3159 39.5198 95.0894 39.9012 94.5426 40.6913C93.9947 41.4801 93.3971 42.144 92.7476 42.6777C92.0967 43.2113 91.3521 43.6189 90.5127 43.8999C89.6731 44.1799 88.6903 44.3202 87.5708 44.3202C86.3733 44.3202 85.3306 44.1797 84.4389 43.8999L85.0429 40.5741C85.2147 39.6304 85.8759 39.012 86.5139 39.2007C86.5139 39.2007 86.5139 39.2007 87.1517 39.2007C88.042 39.2007 88.7359 38.9781 89.2332 38.5317C89.7292 38.0865 90.2069 37.4564 90.665 36.6416L90.7002 36.5817C91.1856 35.7525 91.4044 34.3115 91.1884 33.3756L87.5826 17.8281C87.3665 16.8909 87.9745 16.1281 88.9338 16.1281H92.1295C93.089 16.1281 93.9923 16.904 94.1394 17.8529L95.5191 26.8567C95.6649 27.8056 95.8015 28.5815 95.8225 28.5815C95.8433 28.5815 96.2155 27.8811 96.6491 27.0248L101.376 17.6851C101.81 16.8286 102.949 16.1283 103.909 16.1283H106.913C107.874 16.1283 108.269 16.8105 107.795 17.6447L97.068 36.4998Z" fill="white"/>
<path d="M125.325 7.99269C125.486 7.04757 126.403 6.27182 127.363 6.27182H129.985C130.946 6.27182 131.593 7.04642 131.426 7.99154L126.916 33.4343C126.749 34.3794 125.826 35.1526 124.867 35.1526H122.741C121.782 35.1526 121.098 34.5682 121.225 33.8535C121.351 33.139 121.429 32.5544 121.397 32.5544C121.367 32.5544 120.814 33.1375 120.171 33.8496C120.171 33.8496 119.787 34.2739 118.666 34.8077C117.545 35.3427 116.283 35.6096 114.883 35.6096C113.662 35.6096 112.559 35.4065 111.579 34.999C110.599 34.5929 109.773 34.0266 109.097 33.3003C108.421 32.5727 107.906 31.7148 107.549 30.7202C107.192 29.7284 107.014 28.6336 107.014 27.4359C107.014 25.8063 107.276 24.2794 107.798 22.8501C108.32 21.4262 109.045 20.1777 109.976 19.1077C110.904 18.0378 112.013 17.1916 113.299 16.5667C114.585 15.9447 115.992 15.6309 117.52 15.6309C118.921 15.6309 120.129 15.8991 121.148 16.434C122.167 16.9691 122.931 17.6825 123.44 18.574C123.483 18.574 123.65 17.7983 123.811 16.8532L125.325 7.99269ZM113.088 26.633C113.088 27.7786 113.42 28.734 114.082 29.498C114.744 30.2621 115.725 30.6448 117.023 30.6448C117.788 30.6448 118.5 30.4859 119.162 30.1671C119.824 29.8482 120.398 29.4095 120.881 28.8485C121.365 28.2888 121.742 27.6392 122.01 26.9012C122.277 26.1631 122.409 25.3861 122.409 24.57C122.409 23.3996 122.053 22.4377 121.339 21.6866C120.626 20.9355 119.659 20.5605 118.437 20.5605C117.622 20.5605 116.882 20.7194 116.221 21.037C115.559 21.3558 114.999 21.7881 114.539 22.3361C114.082 22.884 113.724 23.527 113.471 24.2651C113.215 25.0032 113.088 25.7921 113.088 26.633Z" fill="white"/>
<path d="M138.594 27.2825C137.634 27.2825 136.831 27.3802 136.811 27.4999C136.811 27.4999 136.811 27.4999 136.811 27.6261C136.811 28.1611 136.931 28.6402 137.174 29.0593C137.415 29.4796 137.733 29.8363 138.128 30.1294C138.523 30.4221 138.969 30.6448 139.465 30.7971C139.963 30.9508 140.477 31.0262 141.013 31.0262C141.98 31.0262 142.833 30.8492 143.572 30.4925C144.31 30.1347 144.973 29.6504 145.558 29.0386L148.042 30.982C148.797 31.5741 148.823 32.5714 148.097 33.1987C148.097 33.1987 146.831 34.2921 145.329 34.8649C143.826 35.4389 142.209 35.7252 140.477 35.7252C139.153 35.7252 137.924 35.5403 136.791 35.1707C135.658 34.8022 134.671 34.2543 133.83 33.528C132.989 32.8028 132.328 31.9048 131.844 30.8347C131.361 29.7661 131.119 28.5438 131.119 27.1692C131.119 25.5382 131.405 24.0165 131.978 22.6029C132.55 21.1906 133.339 19.9603 134.347 18.9164C135.352 17.8737 136.556 17.0524 137.956 16.4524C139.357 15.8549 140.897 15.5555 142.579 15.5555C143.826 15.5555 144.966 15.7338 145.997 16.0905C147.029 16.4472 147.913 16.9613 148.652 17.637C149.39 18.3124 149.963 19.1469 150.372 20.1387C150.778 21.132 150.982 22.2788 150.982 23.5779C150.982 24.0362 150.938 24.6141 150.848 25.3143C150.76 26.0159 150.64 26.672 150.487 27.2825H138.594ZM143.775 23.539C144.736 23.539 145.538 23.4245 145.559 23.2838C145.559 23.2838 145.559 23.2838 145.559 23.1575C145.559 23.03 145.559 22.9024 145.559 22.7748C145.559 21.9352 145.259 21.2336 144.662 20.6752C144.062 20.1155 143.203 19.8329 142.082 19.8329C141.394 19.8329 140.777 19.954 140.229 20.1961C139.682 20.4394 139.204 20.7376 138.798 21.0942C138.39 21.4509 138.058 21.8467 137.804 22.2788C137.549 22.7122 137.371 23.1315 137.269 23.5388L143.775 23.539Z" fill="white"/>
<path d="M153.951 35.1526C152.99 35.1526 152.34 34.3795 152.507 33.4332L156.983 7.99169C157.149 7.04657 158.072 6.27197 159.031 6.27197H161.769C162.728 6.27197 163.375 7.04657 163.208 7.99169L158.697 33.4345C158.531 34.3796 157.608 35.1528 156.649 35.1528H153.951V35.1526Z" fill="white"/>
<path d="M164.302 35.1527C163.342 35.1527 162.693 34.3783 162.858 33.4333L165.581 17.8481C165.745 16.9017 166.666 16.1285 167.626 16.1285H170.287C171.246 16.1285 171.893 16.9018 171.724 17.8455L168.938 33.4346C168.769 34.3797 167.846 35.1529 166.887 35.1529H164.302V35.1527ZM173.33 9.75015C173.33 10.2591 173.239 10.729 173.062 11.1624C172.885 11.596 172.635 11.9839 172.319 12.3261C171.999 12.6711 171.624 12.9379 171.19 13.1292C170.757 13.3206 170.287 13.417 169.777 13.417C168.809 13.417 168.013 13.1293 167.389 12.5566C166.766 11.9839 166.453 11.2511 166.453 10.3607C166.453 9.31674 166.803 8.4433 167.505 7.74427C168.204 7.04265 169.063 6.69385 170.084 6.69385C171.025 6.69385 171.802 6.98547 172.414 7.57245C173.026 8.15699 173.33 8.88318 173.33 9.75015Z" fill="white"/>
<path d="M184.492 33.648C184.005 34.4759 182.82 35.1526 181.86 35.1526H178.703C177.744 35.1526 176.816 34.3808 176.64 33.4371L173.761 17.8441C173.588 16.9003 174.23 16.1284 175.189 16.1284H178.154C179.115 16.1284 179.999 16.9069 180.117 17.8598L181.25 26.8883C181.368 27.8412 181.492 28.6195 181.523 28.6195C181.555 28.6195 181.947 27.9257 182.396 27.0771L187.374 17.6711C187.822 16.8224 188.975 16.1286 189.934 16.1286H193.092C194.052 16.1286 194.437 16.8056 193.949 17.6308L184.492 33.648Z" fill="white"/>
<path d="M200.858 27.2825C199.899 27.2825 199.096 27.3802 199.076 27.4999C199.076 27.4999 199.076 27.4999 199.076 27.6261C199.076 28.1611 199.196 28.6402 199.438 29.0593C199.681 29.4796 199.998 29.8363 200.394 30.1294C200.788 30.4221 201.235 30.6448 201.73 30.7971C202.228 30.9508 202.743 31.0262 203.278 31.0262C204.245 31.0262 205.099 30.8492 205.836 30.4925C206.575 30.1347 207.237 29.6504 207.824 29.0386L210.307 30.982C211.062 31.5741 211.088 32.5714 210.361 33.1987C210.361 33.1987 209.097 34.2921 207.594 34.8649C206.091 35.4389 204.476 35.7252 202.743 35.7252C201.419 35.7252 200.189 35.5403 199.057 35.1707C197.923 34.8022 196.936 34.2543 196.095 33.528C195.256 32.8028 194.593 31.9048 194.11 30.8347C193.626 29.7661 193.384 28.5438 193.384 27.1692C193.384 25.5382 193.67 24.0165 194.243 22.6029C194.816 21.1906 195.606 19.9603 196.612 18.9164C197.618 17.8737 198.821 17.0524 200.222 16.4524C201.622 15.8549 203.163 15.5555 204.844 15.5555C206.091 15.5555 207.231 15.7338 208.262 16.0905C209.294 16.4472 210.178 16.9613 210.916 17.637C211.654 18.3124 212.23 19.1469 212.637 20.1387C213.044 21.132 213.248 22.2788 213.248 23.5779C213.248 24.0362 213.203 24.6141 213.114 25.3143C213.024 26.0159 212.904 26.672 212.75 27.2825H200.858ZM206.04 23.539C207 23.539 207.802 23.4245 207.824 23.2838C207.824 23.2838 207.824 23.2838 207.824 23.1575C207.824 23.03 207.824 22.9024 207.824 22.7748C207.824 21.9352 207.524 21.2336 206.927 20.6752C206.328 20.1155 205.469 19.8329 204.347 19.8329C203.66 19.8329 203.043 19.954 202.495 20.1961C201.948 20.4394 201.469 20.7376 201.061 21.0942C200.654 21.4509 200.323 21.8467 200.069 22.2788C199.814 22.7122 199.635 23.1315 199.535 23.5388L206.04 23.539Z" fill="white"/>
<path d="M222.429 18.9165C222.472 18.9165 222.983 18.293 223.565 17.5302C223.565 17.5302 223.849 17.1593 224.703 16.5487C225.556 15.9369 226.58 15.631 227.777 15.631C228.008 15.631 228.242 15.6441 228.486 15.6701C228.727 15.6961 228.924 15.7339 229.077 15.7835L228.397 19.4933C228.225 20.4369 227.838 21.1516 227.535 21.0814C227.535 21.0814 227.535 21.0814 227.282 21.0552C227.026 21.0305 226.784 21.0175 226.555 21.0175C225.664 21.0175 224.914 21.1699 224.302 21.4757C223.691 21.7816 223.188 22.1578 222.793 22.603C222.398 23.0495 222.105 23.5271 221.915 24.0363C221.723 24.5465 221.589 24.9917 221.514 25.373L220.096 33.433C219.93 34.3793 219.009 35.1524 218.049 35.1524H215.426C214.466 35.1524 213.821 34.3793 213.99 33.4342L216.086 21.7801C216.256 20.8365 216.489 19.5634 216.604 18.9541C216.604 18.9541 216.604 18.9541 216.72 18.1913C216.833 17.4273 216.916 16.7399 216.967 16.1281H221.03C221.99 16.1281 222.767 16.2687 222.761 16.4393C222.761 16.4393 222.761 16.4393 222.736 16.6828C222.71 16.9248 222.678 17.1787 222.64 17.4454C222.601 17.7122 222.564 17.9804 222.525 18.2473C222.489 18.5157 222.455 18.7395 222.429 18.9165Z" fill="white"/>
<path d="M240.622 36.4998C240.147 37.3356 239.36 38.6933 238.87 39.5198C238.87 39.5198 238.645 39.9012 238.097 40.6913C237.55 41.4801 236.95 42.144 236.302 42.6777C235.651 43.2113 234.908 43.6189 234.068 43.8999C233.227 44.1799 232.246 44.3202 231.126 44.3202C229.93 44.3202 228.886 44.1797 227.993 43.8999L228.597 40.5741C228.77 39.6304 229.432 39.012 230.068 39.2007C230.068 39.2007 230.068 39.2007 230.705 39.2007C231.598 39.2007 232.291 38.9781 232.789 38.5317C233.285 38.0865 233.762 37.4564 234.221 36.6416L234.256 36.5817C234.74 35.7525 234.959 34.3115 234.743 33.3756L231.138 17.8281C230.921 16.8909 231.529 16.1281 232.489 16.1281H235.684C236.644 16.1281 237.548 16.904 237.692 17.8529L239.075 26.8567C239.22 27.8056 239.357 28.5815 239.378 28.5815C239.397 28.5815 239.77 27.8811 240.203 27.0248L244.931 17.6851C245.363 16.8286 246.502 16.1283 247.464 16.1283H250.468C251.428 16.1283 251.824 16.8105 251.351 17.6447L240.622 36.4998Z" fill="white"/>
<path d="M249.064 31.4806C250.479 31.4806 251.639 32.6613 251.639 34.0749C251.639 35.5002 250.479 36.6626 249.064 36.6626C247.636 36.6626 246.463 35.5001 246.463 34.0749C246.463 32.6613 247.636 31.4806 249.064 31.4806ZM249.076 36.2448C250.254 36.2448 251.211 35.2725 251.211 34.0749C251.211 32.8694 250.254 31.9075 249.076 31.9075C247.861 31.9075 246.899 32.8694 246.899 34.0749C246.899 35.2725 247.861 36.2448 249.076 36.2448ZM250.264 33.6064C250.264 34.045 250.038 34.3276 249.662 34.4199L250.172 35.2727C250.223 35.356 250.223 35.4224 250.078 35.4224H249.893C249.77 35.4224 249.759 35.3923 249.719 35.326L249.226 34.459H248.413V35.326C248.413 35.3923 248.398 35.4224 248.305 35.4224H248.119C248.036 35.4224 248.011 35.3923 248.011 35.326V32.8605C248.011 32.7538 248.036 32.7278 248.156 32.7278H249.334C249.904 32.7276 250.264 33.0453 250.264 33.6064ZM249.317 34.1009C249.651 34.1009 249.852 33.9265 249.852 33.6064C249.852 33.2991 249.651 33.1129 249.317 33.1129H248.413V34.1009H249.317Z" fill="white"/>
<path d="M16.7397 0.883528C7.68443 0.925763 0.380189 7.80492 0.425872 16.2453C0.502441 30.4805 14.3086 43.3902 14.3086 43.3902C15.7865 44.7719 18.1442 44.7184 19.5485 43.2714C19.5485 43.2714 33.2913 29.1035 33.2205 16.0913C33.1754 7.65063 25.796 0.841149 16.7397 0.883528ZM15.697 26.1026C15.697 26.5161 15.2493 26.7744 14.8914 26.5674L8.88066 23.0907C8.32988 22.7721 7.99071 22.1841 7.99071 21.5479V15.3594C7.99071 14.9899 8.3928 14.7608 8.71071 14.9491L14.9417 18.6421C15.41 18.9197 15.6972 19.4237 15.6972 19.9681L15.697 26.1026ZM16.2536 16.5141L9.56907 12.587C9.18177 12.3594 9.18449 11.7984 9.57409 11.5748L16.2814 7.72361C16.6733 7.49864 17.1554 7.49965 17.5463 7.72663L24.1788 11.5762C24.5653 11.8005 24.568 12.3576 24.1839 12.5857L17.5741 16.5112C17.1674 16.7526 16.6614 16.7537 16.2536 16.5141ZM25.6559 21.5477C25.6559 22.184 25.3167 22.7721 24.766 23.0906L18.7551 26.5672C18.3972 26.7742 17.9494 26.5159 17.9494 26.1025V19.9679C17.9494 19.4235 18.2366 18.9195 18.7049 18.642L24.9358 14.949C25.2537 14.7606 25.6558 14.9896 25.6558 15.3593V21.5477H25.6559Z" fill="white"/>
<path d="M166.477 51.5479C166.332 51.6973 166.156 51.7721 165.948 51.7721C165.74 51.7721 165.564 51.6973 165.419 51.5479C165.273 51.3984 165.201 51.2199 165.201 51.0123C165.201 50.8005 165.273 50.6199 165.419 50.4705C165.564 50.321 165.74 50.2463 165.948 50.2463C166.156 50.2463 166.332 50.321 166.477 50.4705C166.623 50.6199 166.695 50.8005 166.695 51.0123C166.695 51.2199 166.623 51.3984 166.477 51.5479ZM170.6 51.7721C169.753 51.7721 169.122 51.4835 168.707 50.9064C168.325 50.375 168.134 49.7564 168.134 49.0505C168.134 48.7848 168.163 48.5087 168.221 48.2223C168.466 47.0224 168.933 46.1318 169.622 45.5506C170.316 44.9652 171.119 44.6725 172.032 44.6725C172.9 44.6725 173.533 44.9714 173.932 45.5693C173.965 45.6191 173.982 45.6772 173.982 45.7436C173.982 45.8267 173.926 45.9139 173.814 46.0052L173.421 46.329C173.351 46.3872 173.282 46.4162 173.216 46.4162C173.12 46.4162 173.045 46.3747 172.991 46.2917C172.722 45.8765 172.335 45.6689 171.833 45.6689C171.331 45.6689 170.866 45.864 170.438 46.2543C169.936 46.7152 169.597 47.3711 169.423 48.2223C169.357 48.5461 169.323 48.8388 169.323 49.1004C169.323 49.528 169.413 49.8788 169.591 50.1529C169.861 50.568 170.247 50.7756 170.749 50.7756C171.26 50.7756 171.733 50.568 172.169 50.1529C172.257 50.0698 172.348 50.0283 172.443 50.0283C172.51 50.0283 172.566 50.0574 172.612 50.1155L172.942 50.5327C172.987 50.5909 173.01 50.6531 173.01 50.7196C173.01 50.8026 172.964 50.8856 172.873 50.9687C172.25 51.5043 171.493 51.7721 170.6 51.7721ZM176.927 51.7721C176.031 51.7721 175.368 51.4835 174.941 50.9064C174.575 50.4165 174.393 49.8207 174.393 49.1191C174.393 48.7454 174.445 48.3447 174.548 47.9171C174.798 46.8792 175.244 46.0903 175.887 45.5506C176.581 44.9652 177.347 44.6725 178.185 44.6725C179.082 44.6725 179.744 44.961 180.172 45.5381C180.537 46.028 180.72 46.6238 180.72 47.3255C180.72 47.6991 180.668 48.0998 180.564 48.5274C180.315 49.5654 179.869 50.3542 179.225 50.894C178.532 51.4794 177.766 51.7721 176.927 51.7721ZM177.015 50.7756C177.509 50.7756 177.982 50.568 178.434 50.1529C178.916 49.7128 179.246 49.0692 179.425 48.2223C179.491 47.9026 179.524 47.6099 179.524 47.3442C179.524 46.8999 179.431 46.5366 179.244 46.2543C178.987 45.864 178.603 45.6689 178.092 45.6689C177.585 45.6689 177.123 45.864 176.703 46.2543C176.209 46.7069 175.871 47.3628 175.688 48.2223C175.622 48.5461 175.588 48.8388 175.588 49.1004C175.588 49.528 175.678 49.8788 175.856 50.1529C176.139 50.568 176.525 50.7756 177.015 50.7756ZM182.078 51.6475C181.903 51.6475 181.816 51.5769 181.816 51.4358C181.816 51.4067 181.82 51.3756 181.829 51.3423L183.155 45.1022C183.197 44.8987 183.323 44.797 183.535 44.797H184.033C184.203 44.797 184.289 44.8676 184.289 45.0088C184.289 45.0378 184.284 45.069 184.276 45.1022L184.251 45.2205C184.646 44.8551 185.148 44.6725 185.758 44.6725C186.497 44.6725 187.062 44.8925 187.452 45.3326C187.51 45.4032 187.562 45.48 187.608 45.563C188.127 44.9693 188.86 44.6725 189.806 44.6725C190.516 44.6725 191.081 44.8925 191.5 45.3326C191.828 45.6855 191.992 46.1152 191.992 46.6217C191.992 46.8086 191.969 47.0058 191.924 47.2134L191.046 51.3423C191.004 51.5458 190.88 51.6475 190.672 51.6475H190.174C189.999 51.6475 189.912 51.5769 189.912 51.4358C189.912 51.4067 189.916 51.3756 189.925 51.3423L190.803 47.2134C190.836 47.0639 190.853 46.9227 190.853 46.7899C190.848 46.5159 190.776 46.2834 190.635 46.0924C190.427 45.8101 190.07 45.6689 189.563 45.6689C188.961 45.6689 188.426 45.9263 187.957 46.4411C187.957 46.7027 187.93 46.9601 187.876 47.2134L186.998 51.3423C186.956 51.5458 186.832 51.6475 186.624 51.6475H186.126C185.951 51.6475 185.864 51.5769 185.864 51.4358C185.864 51.4067 185.868 51.3756 185.877 51.3423L186.755 47.2134C186.788 47.0639 186.805 46.9227 186.805 46.7899C186.8 46.5159 186.728 46.2834 186.587 46.0924C186.379 45.8101 186.022 45.6689 185.515 45.6689C184.893 45.6689 184.394 45.8869 184.021 46.3228L182.95 51.3423C182.908 51.5458 182.784 51.6475 182.576 51.6475H182.078ZM193.954 51.5479C193.809 51.6973 193.632 51.7721 193.425 51.7721C193.217 51.7721 193.041 51.6973 192.895 51.5479C192.75 51.3984 192.677 51.2199 192.677 51.0123C192.677 50.8005 192.75 50.6199 192.895 50.4705C193.041 50.321 193.217 50.2463 193.425 50.2463C193.632 50.2463 193.809 50.321 193.954 50.4705C194.099 50.6199 194.172 50.8005 194.172 51.0123C194.172 51.2199 194.099 51.3984 193.954 51.5479ZM200.138 51.6475H199.64C199.465 51.6475 199.378 51.5769 199.378 51.4358C199.378 51.4067 199.382 51.3756 199.391 51.3423L199.416 51.224C199.038 51.5894 198.535 51.7721 197.909 51.7721C197.194 51.7721 196.63 51.552 196.215 51.1119C195.887 50.759 195.723 50.3293 195.723 49.8228C195.723 49.636 195.745 49.4387 195.791 49.2312L196.669 45.1022C196.711 44.8987 196.835 44.797 197.043 44.797H197.541C197.716 44.797 197.803 44.8676 197.803 45.0088C197.803 45.0378 197.799 45.069 197.79 45.1022L196.912 49.2312C196.879 49.3806 196.862 49.5218 196.862 49.6546C196.866 49.9287 196.939 50.1612 197.08 50.3521C197.288 50.6345 197.645 50.7756 198.151 50.7756C198.774 50.7756 199.272 50.5577 199.646 50.1217L200.717 45.1022C200.759 44.8987 200.885 44.797 201.097 44.797H201.595C201.766 44.797 201.851 44.8655 201.851 45.0025C201.851 45.0316 201.847 45.0648 201.838 45.1022L200.512 51.3423C200.47 51.5458 200.346 51.6475 200.138 51.6475ZM205.575 51.7721C204.765 51.7721 204.18 51.552 203.819 51.1119C203.491 50.7133 203.327 50.265 203.327 49.7667C203.327 49.5924 203.347 49.4138 203.389 49.2312L204.267 45.1022C204.309 44.8987 204.435 44.797 204.647 44.797H205.145C205.315 44.797 205.401 44.8655 205.401 45.0025C205.401 45.0316 205.396 45.0648 205.388 45.1022L204.51 49.2312C204.477 49.3806 204.46 49.5197 204.46 49.6484C204.46 49.9266 204.533 50.1612 204.678 50.3521C204.89 50.6345 205.249 50.7756 205.755 50.7756C206.378 50.7756 206.876 50.5577 207.25 50.1217L208.315 45.1022C208.357 44.8987 208.483 44.797 208.695 44.797H209.193C209.363 44.797 209.449 44.8655 209.449 45.0025C209.449 45.0316 209.444 45.0648 209.436 45.1022L208.047 51.66C207.865 52.5277 207.537 53.1546 207.063 53.5407C206.515 53.9808 205.843 54.2009 205.046 54.2009H203.644C203.47 54.2009 203.383 54.1303 203.383 53.9891C203.383 53.9601 203.387 53.9289 203.395 53.8957L203.476 53.5096C203.518 53.3062 203.644 53.2044 203.856 53.2044H205.133C205.565 53.2044 205.942 53.0799 206.266 52.8308C206.594 52.5775 206.804 52.2329 206.895 51.797L207.013 51.224C206.619 51.5894 206.14 51.7721 205.575 51.7721Z" fill="white"/>
</svg>
