<svg width="252" height="45" viewBox="0 0 252 45" fill="none" xmlns="http://www.w3.org/2000/svg">
<g id="Group">
<g id="Group_2">
<g id="Group_3">
<path id="Vector" d="M47.545 29.9772C48.2557 29.3316 48.9977 29.4409 49.9636 30.0579C49.9636 30.0579 49.9636 30.0579 50.7654 30.4263C51.5672 30.796 52.3885 30.9796 53.2295 30.9796C54.0443 30.9796 54.6991 30.8286 55.1963 30.5214C55.6937 30.2168 55.9422 29.7963 55.9422 29.2613C55.9422 28.7511 55.7119 28.358 55.2536 28.0767C54.7955 27.7969 54.1199 27.5171 53.2295 27.2359C52.3378 26.9821 51.5542 26.6956 50.88 26.3768C50.2044 26.0592 49.6381 25.6883 49.18 25.269C48.7217 24.8486 48.3781 24.3644 48.1489 23.8176C47.9186 23.2683 47.8053 22.6267 47.8053 21.8886C47.8053 20.8433 48.0396 19.9152 48.5121 19.099C48.982 18.2842 49.6069 17.5904 50.3839 17.0176C51.1597 16.4461 52.0709 16.0127 53.1149 15.7185C54.1588 15.4269 55.2536 15.2799 56.4004 15.2799C57.8765 15.2799 59.2589 15.5272 60.5449 16.0232C61.8311 16.5204 62.8568 17.252 63.6196 18.2204L61.0969 20.3435C60.3626 20.9631 59.7014 20.9904 58.9139 20.5388C58.9139 20.5388 58.9139 20.5388 58.2902 20.2068C57.6668 19.8762 56.9209 19.7109 56.0554 19.7109C55.3928 19.7109 54.7888 19.8397 54.242 20.0923C53.6941 20.3474 53.4193 20.7795 53.4193 21.3927C53.4193 21.8248 53.6237 22.162 54.0311 22.4055C54.4385 22.6475 55.0633 22.8818 55.903 23.111C57.6863 23.5939 59.0934 24.2629 60.1243 25.1167C61.1552 25.9707 61.6719 27.2111 61.6719 28.8409C61.6719 29.9864 61.4234 30.9861 60.9262 31.8387C60.4302 32.6926 59.7807 33.3929 58.9776 33.941C58.1758 34.4876 57.2594 34.8951 56.2272 35.1632C55.1962 35.4298 54.1457 35.5629 53.0771 35.5629C51.3186 35.5629 49.7539 35.2699 48.3779 34.6842C47.0021 34.0984 45.8826 33.2978 45.0156 32.2787L47.545 29.9772Z" fill="white"/>
</g>
<g id="Group_4">
<path id="Vector_2" d="M73.4369 35.4117C72.0611 35.4117 70.7814 35.2204 69.5982 34.8377C68.4138 34.4563 67.3945 33.903 66.5419 33.1767C65.6879 32.4504 65.0137 31.5718 64.5178 30.5409C64.0206 29.5087 63.7732 28.3435 63.7732 27.0457C63.7732 25.4668 64.0401 23.9633 64.5751 22.5368C65.1101 21.1114 65.8794 19.863 66.8855 18.7931C67.8904 17.7242 69.1075 16.8705 70.5342 16.2339C71.9595 15.5974 73.5762 15.2798 75.3842 15.2798C76.7861 15.2798 78.0852 15.4697 79.2816 15.8524C80.4791 16.2339 81.51 16.787 82.3757 17.5134C83.2413 18.2398 83.9233 19.1183 84.4193 20.1508C84.9165 21.1816 85.1639 22.3453 85.1639 23.6443C85.1639 25.2494 84.897 26.7657 84.362 28.1912C83.827 29.6166 83.0498 30.8648 82.032 31.9349C81.0128 33.0036 79.7839 33.851 78.3455 34.4745C76.9059 35.098 75.2711 35.4117 73.4369 35.4117ZM79.1293 24.2941C79.1293 23.1486 78.7778 22.1931 78.0776 21.4303C77.3784 20.6663 76.3905 20.2848 75.1187 20.2848C74.3026 20.2848 73.5632 20.4488 72.9019 20.7794C72.2395 21.1114 71.6797 21.5564 71.2214 22.1163C70.762 22.6785 70.4066 23.3269 70.1514 24.0663C69.8963 24.8044 69.7699 25.5814 69.7699 26.3962C69.7699 27.5418 70.1135 28.4906 70.8009 29.2418C71.4882 29.9928 72.4683 30.3691 73.7427 30.3691C74.5576 30.3691 75.2944 30.2102 75.9582 29.8914C76.6208 29.5725 77.187 29.1338 77.6582 28.5728C78.1281 28.0131 78.4913 27.3635 78.7464 26.6255C79.0017 25.8873 79.1293 25.1102 79.1293 24.2941Z" fill="white"/>
</g>
<g id="Group_5">
<path id="Vector_3" d="M97.068 36.224C96.5929 37.0597 95.8041 38.4175 95.3159 39.2439C95.3159 39.2439 95.0894 39.6253 94.5426 40.4154C93.9947 41.2043 93.3971 41.8681 92.7476 42.4018C92.0967 42.9355 91.3521 43.343 90.5127 43.624C89.6731 43.904 88.6903 44.0444 87.5708 44.0444C86.3733 44.0444 85.3306 43.9039 84.4389 43.624L85.0429 40.2982C85.2147 39.3545 85.8759 38.7361 86.5139 38.9248C86.5139 38.9248 86.5139 38.9248 87.1517 38.9248C88.042 38.9248 88.7359 38.7022 89.2332 38.2558C89.7292 37.8106 90.2069 37.1806 90.665 36.3657L90.7002 36.3058C91.1856 35.4766 91.4044 34.0356 91.1884 33.0997L87.5826 17.5523C87.3665 16.6151 87.9745 15.8522 88.9338 15.8522H92.1295C93.089 15.8522 93.9923 16.6281 94.1394 17.577L95.5191 26.5808C95.6649 27.5297 95.8015 28.3056 95.8225 28.3056C95.8433 28.3056 96.2155 27.6053 96.6491 26.7489L101.376 17.4092C101.81 16.5527 102.949 15.8524 103.909 15.8524H106.913C107.874 15.8524 108.269 16.5346 107.795 17.3688L97.068 36.224Z" fill="white"/>
</g>
<g id="Group_6">
<path id="Vector_4" d="M125.325 7.71681C125.486 6.77169 126.403 5.99594 127.363 5.99594H129.985C130.946 5.99594 131.593 6.77054 131.426 7.71566L126.916 33.1585C126.749 34.1036 125.826 34.8767 124.867 34.8767H122.741C121.782 34.8767 121.098 34.2923 121.225 33.5776C121.351 32.8631 121.429 32.2786 121.397 32.2786C121.367 32.2786 120.814 32.8617 120.171 33.5738C120.171 33.5738 119.787 33.998 118.666 34.5318C117.545 35.0668 116.283 35.3337 114.883 35.3337C113.662 35.3337 112.559 35.1306 111.579 34.7232C110.599 34.317 109.773 33.7507 109.097 33.0244C108.421 32.2968 107.906 31.4389 107.549 30.4443C107.192 29.4525 107.014 28.3577 107.014 27.1601C107.014 25.5304 107.276 24.0035 107.798 22.5742C108.32 21.1503 109.045 19.9018 109.976 18.8318C110.904 17.7619 112.013 16.9157 113.299 16.2908C114.585 15.6688 115.992 15.355 117.52 15.355C118.921 15.355 120.129 15.6233 121.148 16.1581C122.167 16.6932 122.931 17.4066 123.44 18.2981C123.483 18.2981 123.65 17.5224 123.811 16.5773L125.325 7.71681ZM113.088 26.3572C113.088 27.5027 113.42 28.4581 114.082 29.2221C114.744 29.9862 115.725 30.3689 117.023 30.3689C117.788 30.3689 118.5 30.21 119.162 29.8913C119.824 29.5723 120.398 29.1336 120.881 28.5726C121.365 28.0129 121.742 27.3633 122.01 26.6254C122.277 25.8873 122.409 25.1102 122.409 24.2941C122.409 23.1237 122.053 22.1618 121.339 21.4108C120.626 20.6596 119.659 20.2846 118.437 20.2846C117.622 20.2846 116.882 20.4435 116.221 20.7611C115.559 21.0799 114.999 21.5122 114.539 22.0602C114.082 22.6081 113.724 23.2512 113.471 23.9893C113.215 24.7274 113.088 25.5162 113.088 26.3572Z" fill="white"/>
</g>
<g id="Group_7">
<path id="Vector_5" d="M138.594 27.0066C137.634 27.0066 136.831 27.1043 136.811 27.224C136.811 27.224 136.811 27.224 136.811 27.3503C136.811 27.8852 136.931 28.3643 137.174 28.7834C137.415 29.2037 137.733 29.5604 138.128 29.8535C138.523 30.1463 138.969 30.3689 139.465 30.5212C139.963 30.6749 140.477 30.7503 141.013 30.7503C141.98 30.7503 142.833 30.5733 143.572 30.2166C144.31 29.8588 144.973 29.3745 145.558 28.7627L148.042 30.7061C148.797 31.2982 148.823 32.2955 148.097 32.9229C148.097 32.9229 146.831 34.0162 145.329 34.589C143.826 35.163 142.209 35.4494 140.477 35.4494C139.153 35.4494 137.924 35.2645 136.791 34.8948C135.658 34.5264 134.671 33.9784 133.83 33.2521C132.989 32.5269 132.328 31.6289 131.844 30.5588C131.361 29.4902 131.119 28.2679 131.119 26.8933C131.119 25.2623 131.405 23.7406 131.978 22.327C132.55 20.9147 133.339 19.6844 134.347 18.6405C135.352 17.5978 136.556 16.7765 137.956 16.1765C139.357 15.579 140.897 15.2796 142.579 15.2796C143.826 15.2796 144.966 15.4579 145.997 15.8146C147.029 16.1713 147.913 16.6855 148.652 17.3611C149.39 18.0365 149.963 18.871 150.372 19.8629C150.778 20.8561 150.982 22.0029 150.982 23.302C150.982 23.7603 150.938 24.3382 150.848 25.0384C150.76 25.74 150.64 26.3961 150.487 27.0066H138.594ZM143.775 23.2631C144.736 23.2631 145.538 23.1486 145.559 23.0079C145.559 23.0079 145.559 23.0079 145.559 22.8817C145.559 22.7541 145.559 22.6265 145.559 22.499C145.559 21.6593 145.259 20.9577 144.662 20.3993C144.062 19.8396 143.203 19.557 142.082 19.557C141.394 19.557 140.777 19.6781 140.229 19.9202C139.682 20.1635 139.204 20.4618 138.798 20.8183C138.39 21.175 138.058 21.5708 137.804 22.0029C137.549 22.4363 137.371 22.8557 137.269 23.2629L143.775 23.2631Z" fill="white"/>
</g>
<g id="Group_8">
<path id="Vector_6" d="M153.951 34.8767C152.99 34.8767 152.34 34.1036 152.507 33.1573L156.983 7.71581C157.149 6.77069 158.072 5.99609 159.031 5.99609H161.769C162.728 5.99609 163.375 6.77069 163.208 7.71581L158.697 33.1586C158.531 34.1037 157.608 34.8769 156.649 34.8769H153.951V34.8767Z" fill="white"/>
</g>
<g id="Group_9">
<path id="Vector_7" d="M164.302 34.8768C163.342 34.8768 162.693 34.1024 162.858 33.1574L165.581 17.5722C165.745 16.6258 166.666 15.8526 167.626 15.8526H170.287C171.246 15.8526 171.893 16.6259 171.724 17.5696L168.938 33.1587C168.769 34.1038 167.846 34.877 166.887 34.877H164.302V34.8768ZM173.33 9.47426C173.33 9.98323 173.239 10.4531 173.062 10.8865C172.885 11.3201 172.635 11.708 172.319 12.0502C171.999 12.3952 171.624 12.662 171.19 12.8534C170.757 13.0447 170.287 13.1411 169.777 13.1411C168.809 13.1411 168.013 12.8534 167.389 12.2807C166.766 11.708 166.453 10.9752 166.453 10.0848C166.453 9.04084 166.803 8.16741 167.505 7.46837C168.204 6.76675 169.063 6.41795 170.084 6.41795C171.025 6.41795 171.802 6.70958 172.414 7.29656C173.026 7.8811 173.33 8.60729 173.33 9.47426Z" fill="white"/>
</g>
<g id="Group_10">
<path id="Vector_8" d="M184.492 33.3721C184.005 34.2 182.82 34.8767 181.86 34.8767H178.703C177.744 34.8767 176.816 34.1049 176.64 33.1612L173.761 17.5682C173.588 16.6244 174.23 15.8525 175.189 15.8525H178.154C179.115 15.8525 179.999 16.631 180.117 17.5839L181.25 26.6124C181.368 27.5653 181.492 28.3437 181.523 28.3437C181.555 28.3437 181.947 27.6498 182.396 26.8012L187.374 17.3953C187.822 16.5465 188.975 15.8527 189.934 15.8527H193.092C194.052 15.8527 194.437 16.5297 193.949 17.3549L184.492 33.3721Z" fill="white"/>
</g>
<g id="Group_11">
<path id="Vector_9" d="M200.858 27.0066C199.899 27.0066 199.096 27.1043 199.076 27.224C199.076 27.224 199.076 27.224 199.076 27.3503C199.076 27.8852 199.196 28.3643 199.438 28.7834C199.681 29.2037 199.998 29.5604 200.394 29.8535C200.788 30.1463 201.235 30.3689 201.73 30.5212C202.228 30.6749 202.743 30.7503 203.278 30.7503C204.245 30.7503 205.099 30.5733 205.836 30.2166C206.575 29.8588 207.237 29.3745 207.824 28.7627L210.307 30.7061C211.062 31.2982 211.088 32.2955 210.361 32.9229C210.361 32.9229 209.097 34.0162 207.594 34.589C206.091 35.163 204.476 35.4494 202.743 35.4494C201.419 35.4494 200.189 35.2645 199.057 34.8948C197.923 34.5264 196.936 33.9784 196.095 33.2521C195.256 32.5269 194.593 31.6289 194.11 30.5588C193.626 29.4902 193.384 28.2679 193.384 26.8933C193.384 25.2623 193.67 23.7406 194.243 22.327C194.816 20.9147 195.606 19.6844 196.612 18.6405C197.618 17.5978 198.821 16.7765 200.222 16.1765C201.622 15.579 203.163 15.2796 204.844 15.2796C206.091 15.2796 207.231 15.4579 208.262 15.8146C209.294 16.1713 210.178 16.6855 210.916 17.3611C211.654 18.0365 212.23 18.871 212.637 19.8629C213.044 20.8561 213.248 22.0029 213.248 23.302C213.248 23.7603 213.203 24.3382 213.114 25.0384C213.024 25.74 212.904 26.3961 212.75 27.0066H200.858ZM206.04 23.2631C207 23.2631 207.802 23.1486 207.824 23.0079C207.824 23.0079 207.824 23.0079 207.824 22.8817C207.824 22.7541 207.824 22.6265 207.824 22.499C207.824 21.6593 207.524 20.9577 206.927 20.3993C206.328 19.8396 205.469 19.557 204.347 19.557C203.66 19.557 203.043 19.6781 202.495 19.9202C201.948 20.1635 201.469 20.4618 201.061 20.8183C200.654 21.175 200.323 21.5708 200.069 22.0029C199.814 22.4363 199.635 22.8557 199.535 23.2629L206.04 23.2631Z" fill="white"/>
</g>
<g id="Group_12">
<path id="Vector_10" d="M222.429 18.6406C222.472 18.6406 222.983 18.0171 223.565 17.2543C223.565 17.2543 223.849 16.8834 224.703 16.2728C225.556 15.661 226.58 15.3551 227.777 15.3551C228.008 15.3551 228.242 15.3682 228.486 15.3942C228.727 15.4202 228.924 15.458 229.077 15.5076L228.397 19.2174C228.225 20.1611 227.838 20.8757 227.535 20.8055C227.535 20.8055 227.535 20.8055 227.282 20.7794C227.026 20.7546 226.784 20.7416 226.555 20.7416C225.664 20.7416 224.914 20.894 224.302 21.1998C223.691 21.5057 223.188 21.8819 222.793 22.3271C222.398 22.7736 222.105 23.2513 221.915 23.7604C221.723 24.2706 221.589 24.7158 221.514 25.0971L220.096 33.1571C219.93 34.1034 219.009 34.8766 218.049 34.8766H215.426C214.466 34.8766 213.821 34.1034 213.99 33.1583L216.086 21.5042C216.256 20.5606 216.489 19.2875 216.604 18.6782C216.604 18.6782 216.604 18.6782 216.72 17.9154C216.833 17.1514 216.916 16.464 216.967 15.8522H221.03C221.99 15.8522 222.767 15.9928 222.761 16.1634C222.761 16.1634 222.761 16.1634 222.736 16.4069C222.71 16.6489 222.678 16.9028 222.64 17.1695C222.601 17.4363 222.564 17.7045 222.525 17.9714C222.489 18.2398 222.455 18.4636 222.429 18.6406Z" fill="white"/>
</g>
<g id="Group_13">
<path id="Vector_11" d="M240.622 36.224C240.147 37.0597 239.36 38.4175 238.87 39.2439C238.87 39.2439 238.645 39.6253 238.097 40.4154C237.55 41.2043 236.95 41.8681 236.302 42.4018C235.651 42.9355 234.908 43.343 234.068 43.624C233.227 43.904 232.246 44.0444 231.126 44.0444C229.93 44.0444 228.886 43.9039 227.993 43.624L228.597 40.2982C228.77 39.3545 229.432 38.7361 230.068 38.9248C230.068 38.9248 230.068 38.9248 230.705 38.9248C231.598 38.9248 232.291 38.7022 232.789 38.2558C233.285 37.8106 233.762 37.1806 234.221 36.3657L234.256 36.3058C234.74 35.4766 234.959 34.0356 234.743 33.0997L231.138 17.5523C230.921 16.6151 231.529 15.8522 232.489 15.8522H235.684C236.644 15.8522 237.548 16.6281 237.692 17.577L239.075 26.5808C239.22 27.5297 239.357 28.3056 239.378 28.3056C239.397 28.3056 239.77 27.6053 240.203 26.7489L244.931 17.4092C245.363 16.5527 246.502 15.8524 247.464 15.8524H250.468C251.428 15.8524 251.824 16.5346 251.351 17.3688L240.622 36.224Z" fill="white"/>
</g>
<g id="Group_14">
<path id="Vector_12" d="M249.064 31.2047C250.479 31.2047 251.639 32.3854 251.639 33.799C251.639 35.2243 250.479 36.3867 249.064 36.3867C247.636 36.3867 246.463 35.2242 246.463 33.799C246.463 32.3854 247.636 31.2047 249.064 31.2047ZM249.076 35.9689C250.254 35.9689 251.211 34.9967 251.211 33.799C251.211 32.5936 250.254 31.6316 249.076 31.6316C247.861 31.6316 246.899 32.5936 246.899 33.799C246.899 34.9967 247.861 35.9689 249.076 35.9689ZM250.264 33.3305C250.264 33.7691 250.038 34.0517 249.662 34.144L250.172 34.9968C250.223 35.0801 250.223 35.1465 250.078 35.1465H249.893C249.77 35.1465 249.759 35.1165 249.719 35.0501L249.226 34.1831H248.413V35.0501C248.413 35.1165 248.398 35.1465 248.305 35.1465H248.119C248.036 35.1465 248.011 35.1165 248.011 35.0501V32.5847C248.011 32.4779 248.036 32.4519 248.156 32.4519H249.334C249.904 32.4518 250.264 32.7694 250.264 33.3305ZM249.317 33.825C249.651 33.825 249.852 33.6506 249.852 33.3305C249.852 33.0232 249.651 32.8371 249.317 32.8371H248.413V33.825H249.317Z" fill="white"/>
</g>
</g>
<path id="Vector_13" d="M16.7397 0.607649C7.68443 0.649884 0.380189 7.52904 0.425872 15.9695C0.502441 30.2046 14.3086 43.1143 14.3086 43.1143C15.7865 44.496 18.1442 44.4426 19.5485 42.9955C19.5485 42.9955 33.2913 28.8276 33.2205 15.8155C33.1754 7.37475 25.796 0.56527 16.7397 0.607649ZM15.697 25.8268C15.697 26.2402 15.2493 26.4985 14.8914 26.2915L8.88066 22.8149C8.32988 22.4962 7.99071 21.9082 7.99071 21.272V15.0835C7.99071 14.714 8.3928 14.4849 8.71071 14.6732L14.9417 18.3662C15.41 18.6438 15.6972 19.1479 15.6972 19.6922L15.697 25.8268ZM16.2536 16.2382L9.56907 12.3111C9.18177 12.0835 9.18449 11.5226 9.57409 11.2989L16.2814 7.44773C16.6733 7.22276 17.1554 7.22377 17.5463 7.45075L24.1788 11.3003C24.5653 11.5246 24.568 12.0817 24.1839 12.3098L17.5741 16.2354C17.1674 16.4767 16.6614 16.4779 16.2536 16.2382ZM25.6559 21.2718C25.6559 21.9081 25.3167 22.4962 24.766 22.8147L18.7551 26.2914C18.3972 26.4984 17.9494 26.2401 17.9494 25.8266V19.692C17.9494 19.1476 18.2366 18.6436 18.7049 18.3661L24.9358 14.6731C25.2537 14.4848 25.6558 14.7138 25.6558 15.0834V21.2718H25.6559Z" fill="white"/>
</g>
</svg>
