<svg width="252" height="44" viewBox="0 0 252 44" fill="none" xmlns="http://www.w3.org/2000/svg">
<g id="Group">
<g id="Group_2">
<g id="Group_3">
<path id="Vector" d="M47.3322 29.4025C48.0428 28.7569 48.7848 28.8662 49.7508 29.4832C49.7508 29.4832 49.7508 29.4832 50.5525 29.8516C51.3544 30.2213 52.1757 30.4049 53.0167 30.4049C53.8315 30.4049 54.4863 30.2539 54.9835 29.9467C55.4808 29.6421 55.7293 29.2216 55.7293 28.6866C55.7293 28.1764 55.4991 27.7833 55.0408 27.502C54.5827 27.2222 53.9071 26.9424 53.0167 26.6612C52.125 26.4074 51.3413 26.1209 50.6672 25.8021C49.9915 25.4845 49.4252 25.1136 48.9671 24.6943C48.5089 24.2739 48.1652 23.7897 47.9361 23.2429C47.7058 22.6936 47.5925 22.052 47.5925 21.3139C47.5925 20.2686 47.8268 19.3405 48.2993 18.5243C48.7692 17.7095 49.3941 17.0157 50.1711 16.4429C50.9469 15.8714 51.8581 15.438 52.902 15.1438C53.946 14.8522 55.0408 14.7052 56.1876 14.7052C57.6637 14.7052 59.0461 14.9525 60.3321 15.4485C61.6183 15.9457 62.644 16.6773 63.4068 17.6457L60.884 19.7688C60.1498 20.3884 59.4886 20.4157 58.701 19.9641C58.701 19.9641 58.701 19.9641 58.0774 19.6321C57.4539 19.3015 56.7081 19.1362 55.8426 19.1362C55.18 19.1362 54.5759 19.265 54.0292 19.5176C53.4813 19.7727 53.2064 20.2048 53.2064 20.818C53.2064 21.2501 53.4109 21.5873 53.8183 21.8308C54.2257 22.0728 54.8505 22.3071 55.6901 22.5363C57.4735 23.0192 58.8806 23.6882 59.9115 24.542C60.9424 25.396 61.4591 26.6364 61.4591 28.2662C61.4591 29.4117 61.2106 30.4114 60.7134 31.264C60.2173 32.1179 59.5679 32.8182 58.7648 33.3663C57.9629 33.9129 57.0465 34.3204 56.0144 34.5885C54.9833 34.8551 53.9329 34.9882 52.8643 34.9882C51.1057 34.9882 49.541 34.6952 48.1651 34.1095C46.7893 33.5237 45.6698 32.7231 44.8028 31.704L47.3322 29.4025Z" fill="#414141"/>
</g>
<g id="Group_4">
<path id="Vector_2" d="M73.224 34.837C71.8482 34.837 70.5685 34.6457 69.3854 34.263C68.2009 33.8816 67.1817 33.3283 66.3291 32.602C65.475 31.8757 64.8009 30.9971 64.305 29.9662C63.8078 28.934 63.5604 27.7688 63.5604 26.471C63.5604 24.8921 63.8273 23.3886 64.3623 21.962C64.8973 20.5367 65.6665 19.2883 66.6727 18.2183C67.6776 17.1495 68.8946 16.2958 70.3213 15.6592C71.7467 15.0227 73.3634 14.7051 75.1713 14.7051C76.5733 14.7051 77.8723 14.895 79.0687 15.2777C80.2662 15.6592 81.2971 16.2123 82.1628 16.9387C83.0285 17.6651 83.7104 18.5436 84.2065 19.5761C84.7037 20.6069 84.951 21.7706 84.951 23.0696C84.951 24.6747 84.6841 26.191 84.1492 27.6165C83.6142 29.0419 82.837 30.2901 81.8192 31.3602C80.7999 32.4289 79.5711 33.2763 78.1327 33.8998C76.6931 34.5233 75.0583 34.837 73.224 34.837ZM78.9164 23.7194C78.9164 22.5739 78.5649 21.6184 77.8647 20.8556C77.1656 20.0916 76.1776 19.7101 74.9058 19.7101C74.0897 19.7101 73.3503 19.8741 72.6891 20.2047C72.0267 20.5367 71.4668 20.9817 71.0086 21.5416C70.5491 22.1038 70.1937 22.7522 69.9386 23.4916C69.6835 24.2297 69.557 25.0067 69.557 25.8215C69.557 26.9671 69.9007 27.9159 70.5881 28.6671C71.2753 29.4181 72.2555 29.7944 73.5299 29.7944C74.3447 29.7944 75.0815 29.6355 75.7454 29.3167C76.4079 28.9978 76.9742 28.5591 77.4454 27.9981C77.9153 27.4384 78.2785 26.7888 78.5336 26.0508C78.7889 25.3126 78.9164 24.5355 78.9164 23.7194Z" fill="#414141"/>
</g>
<g id="Group_5">
<path id="Vector_3" d="M96.8552 35.6493C96.3801 36.485 95.5913 37.8427 95.1031 38.6692C95.1031 38.6692 94.8766 39.0506 94.3298 39.8407C93.7819 40.6296 93.1843 41.2934 92.5348 41.8271C91.8839 42.3608 91.1393 42.7683 90.2999 43.0493C89.4603 43.3293 88.4775 43.4696 87.358 43.4696C86.1605 43.4696 85.1178 43.3292 84.2261 43.0493L84.8301 39.7235C85.0019 38.7798 85.6631 38.1614 86.3011 38.3501C86.3011 38.3501 86.3011 38.3501 86.9389 38.3501C87.8292 38.3501 88.523 38.1275 89.0204 37.6811C89.5164 37.2359 89.9941 36.6059 90.4522 35.791L90.4874 35.7311C90.9728 34.9019 91.1916 33.4609 90.9756 32.525L87.3698 16.9776C87.1537 16.0404 87.7617 15.2775 88.721 15.2775H91.9167C92.8761 15.2775 93.7794 16.0534 93.9266 17.0023L95.3062 26.0061C95.452 26.955 95.5887 27.7309 95.6096 27.7309C95.6305 27.7309 96.0027 27.0305 96.4362 26.1742L101.163 16.8345C101.597 15.978 102.736 15.2777 103.696 15.2777H106.7C107.661 15.2777 108.056 15.9599 107.583 16.7941L96.8552 35.6493Z" fill="#414141"/>
</g>
<g id="Group_6">
<path id="Vector_4" d="M125.112 7.14211C125.274 6.19699 126.19 5.42124 127.151 5.42124H129.772C130.733 5.42124 131.38 6.19584 131.213 7.14096L126.703 32.5838C126.536 33.5289 125.613 34.302 124.654 34.302H122.528C121.569 34.302 120.886 33.7176 121.012 33.0029C121.138 32.2884 121.216 31.7039 121.184 31.7039C121.154 31.7039 120.601 32.287 119.958 32.9991C119.958 32.9991 119.574 33.4233 118.453 33.9571C117.332 34.4921 116.071 34.759 114.67 34.759C113.449 34.759 112.347 34.5559 111.366 34.1485C110.386 33.7423 109.56 33.176 108.884 32.4497C108.208 31.7221 107.693 30.8642 107.336 29.8696C106.98 28.8778 106.801 27.783 106.801 26.5854C106.801 24.9557 107.063 23.4288 107.585 21.9995C108.107 20.5756 108.832 19.3271 109.763 18.2571C110.691 17.1872 111.8 16.341 113.086 15.7161C114.372 15.0941 115.779 14.7803 117.307 14.7803C118.708 14.7803 119.916 15.0486 120.935 15.5834C121.954 16.1185 122.718 16.8319 123.227 17.7234C123.27 17.7234 123.437 16.9477 123.598 16.0026L125.112 7.14211ZM112.875 25.7825C112.875 26.928 113.207 27.8834 113.87 28.6474C114.531 29.4115 115.512 29.7942 116.81 29.7942C117.575 29.7942 118.287 29.6353 118.949 29.3166C119.611 28.9976 120.186 28.5589 120.668 27.9979C121.153 27.4382 121.529 26.7886 121.797 26.0507C122.064 25.3126 122.196 24.5355 122.196 23.7194C122.196 22.549 121.84 21.5871 121.127 20.8361C120.413 20.0849 119.446 19.7099 118.224 19.7099C117.409 19.7099 116.67 19.8688 116.008 20.1864C115.346 20.5052 114.786 20.9375 114.326 21.4855C113.87 22.0334 113.512 22.6765 113.258 23.4146C113.003 24.1527 112.875 24.9415 112.875 25.7825Z" fill="#414141"/>
</g>
<g id="Group_7">
<path id="Vector_5" d="M138.382 26.4319C137.421 26.4319 136.618 26.5296 136.598 26.6493C136.598 26.6493 136.598 26.6493 136.598 26.7756C136.598 27.3105 136.718 27.7896 136.961 28.2087C137.202 28.629 137.52 28.9857 137.916 29.2788C138.31 29.5716 138.757 29.7942 139.252 29.9465C139.75 30.1002 140.264 30.1756 140.8 30.1756C141.767 30.1756 142.62 29.9986 143.359 29.6419C144.097 29.2841 144.76 28.7998 145.346 28.188L147.829 30.1314C148.584 30.7235 148.61 31.7208 147.884 32.3482C147.884 32.3482 146.619 33.4415 145.117 34.0143C143.613 34.5883 141.996 34.8747 140.264 34.8747C138.94 34.8747 137.711 34.6898 136.579 34.3201C135.445 33.9517 134.458 33.4037 133.617 32.6774C132.776 31.9522 132.115 31.0542 131.631 29.9841C131.148 28.9155 130.906 27.6932 130.906 26.3186C130.906 24.6876 131.192 23.1659 131.765 21.7523C132.338 20.34 133.126 19.1097 134.134 18.0658C135.139 17.0231 136.343 16.2018 137.744 15.6018C139.144 15.0043 140.684 14.7049 142.366 14.7049C143.613 14.7049 144.753 14.8832 145.784 15.2399C146.816 15.5966 147.7 16.1108 148.44 16.7864C149.178 17.4618 149.75 18.2963 150.159 19.2882C150.565 20.2814 150.77 21.4282 150.77 22.7273C150.77 23.1856 150.725 23.7635 150.636 24.4637C150.547 25.1653 150.427 25.8214 150.274 26.4319H138.382ZM143.562 22.6884C144.523 22.6884 145.325 22.5739 145.346 22.4332C145.346 22.4332 145.346 22.4332 145.346 22.307C145.346 22.1794 145.346 22.0518 145.346 21.9243C145.346 21.0846 145.046 20.383 144.449 19.8246C143.849 19.2649 142.99 18.9823 141.869 18.9823C141.182 18.9823 140.565 19.1034 140.017 19.3455C139.469 19.5888 138.991 19.8871 138.585 20.2436C138.177 20.6003 137.845 20.9961 137.592 21.4282C137.336 21.8616 137.158 22.281 137.057 22.6882L143.562 22.6884Z" fill="#414141"/>
</g>
<g id="Group_8">
<path id="Vector_6" d="M153.738 34.302C152.777 34.302 152.128 33.5289 152.294 32.5826L156.771 7.14111C156.936 6.19599 157.859 5.42139 158.818 5.42139H161.556C162.515 5.42139 163.162 6.19599 162.995 7.14111L158.484 32.5839C158.318 33.529 157.396 34.3022 156.436 34.3022H153.738V34.302Z" fill="#414141"/>
</g>
<g id="Group_9">
<path id="Vector_7" d="M164.089 34.3021C163.13 34.3021 162.48 33.5277 162.645 32.5827L165.368 16.9975C165.532 16.0511 166.453 15.2779 167.413 15.2779H170.074C171.033 15.2779 171.68 16.0512 171.511 16.9949L168.726 32.584C168.556 33.5291 167.633 34.3023 166.674 34.3023H164.089V34.3021ZM173.117 8.89956C173.117 9.40853 173.026 9.87844 172.849 10.3118C172.672 10.7454 172.422 11.1333 172.106 11.4755C171.786 11.8205 171.411 12.0873 170.977 12.2787C170.544 12.47 170.074 12.5664 169.564 12.5664C168.597 12.5664 167.8 12.2787 167.176 11.706C166.553 11.1333 166.24 10.4005 166.24 9.5101C166.24 8.46614 166.591 7.59271 167.292 6.89367C167.991 6.19205 168.85 5.84325 169.871 5.84325C170.812 5.84325 171.589 6.13488 172.201 6.72186C172.813 7.3064 173.117 8.03259 173.117 8.89956Z" fill="#414141"/>
</g>
<g id="Group_10">
<path id="Vector_8" d="M184.279 32.7974C183.793 33.6253 182.607 34.302 181.647 34.302H178.491C177.531 34.302 176.603 33.5302 176.428 32.5865L173.548 16.9935C173.375 16.0497 174.017 15.2778 174.976 15.2778H177.941C178.902 15.2778 179.786 16.0563 179.904 17.0092L181.037 26.0377C181.155 26.9906 181.279 27.769 181.31 27.769C181.343 27.769 181.734 27.0751 182.183 26.2265L187.161 16.8206C187.609 15.9718 188.762 15.278 189.722 15.278H192.88C193.839 15.278 194.224 15.955 193.736 16.7802L184.279 32.7974Z" fill="#414141"/>
</g>
<g id="Group_11">
<path id="Vector_9" d="M200.645 26.4319C199.686 26.4319 198.883 26.5296 198.863 26.6493C198.863 26.6493 198.863 26.6493 198.863 26.7756C198.863 27.3105 198.983 27.7896 199.225 28.2087C199.469 28.629 199.785 28.9857 200.181 29.2788C200.575 29.5716 201.022 29.7942 201.517 29.9465C202.015 30.1002 202.53 30.1756 203.065 30.1756C204.032 30.1756 204.886 29.9986 205.623 29.6419C206.362 29.2841 207.024 28.7998 207.611 28.188L210.094 30.1314C210.849 30.7235 210.875 31.7208 210.148 32.3482C210.148 32.3482 208.884 33.4415 207.382 34.0143C205.878 34.5883 204.263 34.8747 202.53 34.8747C201.206 34.8747 199.976 34.6898 198.844 34.3201C197.71 33.9517 196.723 33.4037 195.883 32.6774C195.043 31.9522 194.38 31.0542 193.897 29.9841C193.413 28.9155 193.171 27.6932 193.171 26.3186C193.171 24.6876 193.457 23.1659 194.03 21.7523C194.603 20.34 195.393 19.1097 196.399 18.0658C197.406 17.0231 198.608 16.2018 200.009 15.6018C201.409 15.0043 202.951 14.7049 204.631 14.7049C205.878 14.7049 207.018 14.8832 208.049 15.2399C209.081 15.5966 209.965 16.1108 210.703 16.7864C211.441 17.4618 212.017 18.2963 212.424 19.2882C212.832 20.2814 213.035 21.4282 213.035 22.7273C213.035 23.1856 212.99 23.7635 212.901 24.4637C212.811 25.1653 212.691 25.8214 212.538 26.4319H200.645ZM205.828 22.6884C206.787 22.6884 207.589 22.5739 207.611 22.4332C207.611 22.4332 207.611 22.4332 207.611 22.307C207.611 22.1794 207.611 22.0518 207.611 21.9243C207.611 21.0846 207.312 20.383 206.714 19.8246C206.115 19.2649 205.256 18.9823 204.134 18.9823C203.447 18.9823 202.83 19.1034 202.282 19.3455C201.735 19.5888 201.256 19.8871 200.849 20.2436C200.441 20.6003 200.11 20.9961 199.857 21.4282C199.602 21.8616 199.422 22.281 199.322 22.6882L205.828 22.6884Z" fill="#414141"/>
</g>
<g id="Group_12">
<path id="Vector_10" d="M222.216 18.0659C222.259 18.0659 222.771 17.4424 223.352 16.6796C223.352 16.6796 223.636 16.3087 224.49 15.6981C225.343 15.0863 226.367 14.7804 227.565 14.7804C227.795 14.7804 228.029 14.7935 228.273 14.8195C228.514 14.8455 228.712 14.8833 228.864 14.9329L228.184 18.6427C228.013 19.5864 227.625 20.301 227.323 20.2308C227.323 20.2308 227.323 20.2308 227.069 20.2047C226.814 20.1799 226.571 20.1669 226.342 20.1669C225.451 20.1669 224.701 20.3193 224.089 20.6251C223.479 20.931 222.975 21.3072 222.581 21.7524C222.185 22.1989 221.892 22.6766 221.702 23.1857C221.511 23.6959 221.377 24.1411 221.301 24.5224L219.884 32.5824C219.717 33.5287 218.797 34.3019 217.836 34.3019H215.213C214.254 34.3019 213.608 33.5287 213.777 32.5836L215.873 20.9295C216.044 19.9859 216.277 18.7128 216.391 18.1035C216.391 18.1035 216.391 18.1035 216.507 17.3407C216.62 16.5767 216.704 15.8893 216.754 15.2775H220.817C221.778 15.2775 222.555 15.4181 222.548 15.5887C222.548 15.5887 222.548 15.5887 222.523 15.8322C222.497 16.0742 222.465 16.3281 222.427 16.5948C222.388 16.8616 222.351 17.1298 222.312 17.3967C222.276 17.6651 222.242 17.8889 222.216 18.0659Z" fill="#414141"/>
</g>
<g id="Group_13">
<path id="Vector_11" d="M240.41 35.6493C239.934 36.485 239.147 37.8427 238.657 38.6692C238.657 38.6692 238.432 39.0506 237.884 39.8407C237.338 40.6296 236.737 41.2934 236.089 41.8271C235.438 42.3608 234.695 42.7683 233.855 43.0493C233.014 43.3293 232.033 43.4696 230.913 43.4696C229.717 43.4696 228.673 43.3292 227.78 43.0493L228.384 39.7235C228.557 38.7798 229.219 38.1614 229.855 38.3501C229.855 38.3501 229.855 38.3501 230.492 38.3501C231.385 38.3501 232.079 38.1275 232.576 37.6811C233.072 37.2359 233.55 36.6059 234.008 35.791L234.043 35.7311C234.527 34.9019 234.746 33.4609 234.53 32.525L230.925 16.9776C230.708 16.0404 231.316 15.2775 232.277 15.2775H235.471C236.432 15.2775 237.335 16.0534 237.479 17.0023L238.862 26.0061C239.008 26.955 239.144 27.7309 239.165 27.7309C239.185 27.7309 239.557 27.0305 239.99 26.1742L244.718 16.8345C245.15 15.978 246.289 15.2777 247.251 15.2777H250.256C251.215 15.2777 251.611 15.9599 251.138 16.7941L240.41 35.6493Z" fill="#414141"/>
</g>
<g id="Group_14">
<path id="Vector_12" d="M248.851 30.63C250.266 30.63 251.426 31.8107 251.426 33.2243C251.426 34.6496 250.266 35.812 248.851 35.812C247.423 35.812 246.25 34.6495 246.25 33.2243C246.25 31.8107 247.423 30.63 248.851 30.63ZM248.863 35.3942C250.041 35.3942 250.998 34.422 250.998 33.2243C250.998 32.0189 250.041 31.0569 248.863 31.0569C247.648 31.0569 246.687 32.0189 246.687 33.2243C246.687 34.422 247.648 35.3942 248.863 35.3942ZM250.051 32.7558C250.051 33.1944 249.825 33.477 249.449 33.5693L249.959 34.4221C250.01 34.5054 250.01 34.5718 249.865 34.5718H249.68C249.557 34.5718 249.547 34.5418 249.506 34.4754L249.013 33.6084H248.2V34.4754C248.2 34.5418 248.185 34.5718 248.092 34.5718H247.906C247.823 34.5718 247.798 34.5418 247.798 34.4754V32.01C247.798 31.9032 247.823 31.8772 247.943 31.8772H249.121C249.691 31.8771 250.051 32.1947 250.051 32.7558ZM249.104 33.2503C249.438 33.2503 249.639 33.0759 249.639 32.7558C249.639 32.4485 249.438 32.2624 249.104 32.2624H248.2V33.2503H249.104Z" fill="#414141"/>
</g>
</g>
<path id="Vector_13" d="M16.5269 0.0329421C7.4716 0.0751772 0.16736 6.95433 0.213043 15.3948C0.289612 29.6299 14.0958 42.5396 14.0958 42.5396C15.5737 43.9213 17.9314 43.8678 19.3357 42.4208C19.3357 42.4208 33.0785 28.2529 33.0076 15.2408C32.9625 6.80005 25.5832 -0.0094367 16.5269 0.0329421ZM15.4842 25.2521C15.4842 25.6655 15.0364 25.9238 14.6786 25.7168L8.66783 22.2402C8.11705 21.9215 7.77788 21.3335 7.77788 20.6973V14.5088C7.77788 14.1393 8.17997 13.9102 8.49788 14.0985L14.7289 17.7915C15.1972 18.0691 15.4844 18.5732 15.4844 19.1175L15.4842 25.2521ZM16.0407 15.6635L9.35624 11.7364C8.96894 11.5088 8.97167 10.9479 9.36126 10.7242L16.0686 6.87302C16.4605 6.64806 16.9426 6.64906 17.3335 6.87604L23.966 10.7256C24.3524 10.9499 24.3552 11.507 23.971 11.7351L17.3612 15.6607C16.9545 15.902 16.4486 15.9032 16.0407 15.6635ZM25.4431 20.6971C25.4431 21.3334 25.1039 21.9215 24.5531 22.24L18.5422 25.7167C18.1844 25.9237 17.7366 25.6654 17.7366 25.2519V19.1173C17.7366 18.5729 18.0238 18.0689 18.4921 17.7914L24.7229 14.0984C25.0408 13.9101 25.4429 14.139 25.4429 14.5087V20.6971H25.4431Z" fill="#414141"/>
</g>
</svg>
