<svg width="252" height="45" viewBox="0 0 252 45" fill="none" xmlns="http://www.w3.org/2000/svg">
<g id="Group">
<g id="Group_2">
<g id="Group_3">
<path id="Vector" d="M47.3322 30.2531C48.0428 29.6075 48.7848 29.7168 49.7508 30.3338C49.7508 30.3338 49.7508 30.3338 50.5525 30.7021C51.3544 31.0719 52.1757 31.2555 53.0167 31.2555C53.8315 31.2555 54.4863 31.1045 54.9835 30.7972C55.4808 30.4927 55.7293 30.0722 55.7293 29.5372C55.7293 29.027 55.4991 28.6339 55.0408 28.3526C54.5827 28.0728 53.9071 27.7929 53.0167 27.5118C52.125 27.258 51.3413 26.9715 50.6672 26.6527C49.9915 26.3351 49.4252 25.9642 48.9671 25.5449C48.5089 25.1245 48.1652 24.6403 47.9361 24.0935C47.7058 23.5441 47.5925 22.9026 47.5925 22.1645C47.5925 21.1192 47.8268 20.1911 48.2993 19.3749C48.7692 18.5601 49.3941 17.8663 50.1711 17.2935C50.9469 16.722 51.8581 16.2886 52.902 15.9944C53.946 15.7028 55.0408 15.5558 56.1876 15.5558C57.6637 15.5558 59.0461 15.803 60.3321 16.2991C61.6183 16.7963 62.644 17.5279 63.4068 18.4963L60.884 20.6194C60.1498 21.239 59.4886 21.2663 58.701 20.8147C58.701 20.8147 58.701 20.8147 58.0774 20.4827C57.4539 20.1521 56.7081 19.9868 55.8426 19.9868C55.18 19.9868 54.5759 20.1156 54.0292 20.3682C53.4813 20.6233 53.2064 21.0554 53.2064 21.6686C53.2064 22.1007 53.4109 22.4378 53.8183 22.6813C54.2257 22.9234 54.8505 23.1577 55.6901 23.3868C57.4735 23.8698 58.8806 24.5388 59.9115 25.3926C60.9424 26.2466 61.4591 27.487 61.4591 29.1167C61.4591 30.2623 61.2106 31.262 60.7134 32.1146C60.2173 32.9685 59.5679 33.6688 58.7648 34.2169C57.9629 34.7635 57.0465 35.171 56.0144 35.4391C54.9833 35.7057 53.9329 35.8387 52.8643 35.8387C51.1057 35.8387 49.541 35.5458 48.1651 34.9601C46.7893 34.3743 45.6698 33.5737 44.8028 32.5546L47.3322 30.2531Z" fill="#414141"/>
</g>
<g id="Group_4">
<path id="Vector_2" d="M73.224 35.6876C71.8482 35.6876 70.5685 35.4963 69.3854 35.1136C68.2009 34.7321 67.1817 34.1789 66.3291 33.4526C65.475 32.7263 64.8009 31.8477 64.305 30.8168C63.8078 29.7846 63.5604 28.6194 63.5604 27.3216C63.5604 25.7427 63.8273 24.2392 64.3623 22.8126C64.8973 21.3873 65.6665 20.1389 66.6727 19.0689C67.6776 18.0001 68.8946 17.1464 70.3213 16.5098C71.7467 15.8733 73.3634 15.5557 75.1713 15.5557C76.5733 15.5557 77.8723 15.7456 79.0687 16.1283C80.2662 16.5098 81.2971 17.0629 82.1628 17.7892C83.0285 18.5157 83.7104 19.3942 84.2065 20.4266C84.7037 21.4575 84.951 22.6211 84.951 23.9202C84.951 25.5253 84.6841 27.0416 84.1492 28.4671C83.6142 29.8925 82.837 31.1407 81.8192 32.2108C80.7999 33.2795 79.5711 34.1269 78.1327 34.7504C76.6931 35.3739 75.0583 35.6876 73.224 35.6876ZM78.9164 24.57C78.9164 23.4245 78.5649 22.469 77.8647 21.7062C77.1656 20.9422 76.1776 20.5607 74.9058 20.5607C74.0897 20.5607 73.3503 20.7247 72.6891 21.0553C72.0267 21.3873 71.4668 21.8323 71.0086 22.3922C70.5491 22.9544 70.1937 23.6028 69.9386 24.3422C69.6835 25.0803 69.557 25.8573 69.557 26.6721C69.557 27.8176 69.9007 28.7665 70.5881 29.5177C71.2753 30.2687 72.2555 30.645 73.5299 30.645C74.3447 30.645 75.0815 30.4861 75.7454 30.1673C76.4079 29.8484 76.9742 29.4097 77.4454 28.8487C77.9153 28.289 78.2785 27.6394 78.5336 26.9014C78.7889 26.1631 78.9164 25.3861 78.9164 24.57Z" fill="#414141"/>
</g>
<g id="Group_5">
<path id="Vector_3" d="M96.8552 36.4998C96.3801 37.3356 95.5913 38.6933 95.1031 39.5198C95.1031 39.5198 94.8766 39.9012 94.3298 40.6913C93.7819 41.4801 93.1843 42.144 92.5348 42.6777C91.8839 43.2113 91.1393 43.6189 90.2999 43.8999C89.4603 44.1799 88.4775 44.3202 87.358 44.3202C86.1605 44.3202 85.1178 44.1797 84.2261 43.8999L84.8301 40.5741C85.0019 39.6304 85.6631 39.012 86.3011 39.2007C86.3011 39.2007 86.3011 39.2007 86.9389 39.2007C87.8292 39.2007 88.523 38.9781 89.0204 38.5317C89.5164 38.0865 89.9941 37.4564 90.4522 36.6416L90.4874 36.5817C90.9728 35.7525 91.1916 34.3115 90.9756 33.3756L87.3698 17.8281C87.1537 16.8909 87.7617 16.1281 88.721 16.1281H91.9167C92.8761 16.1281 93.7794 16.904 93.9266 17.8529L95.3062 26.8567C95.452 27.8056 95.5887 28.5815 95.6096 28.5815C95.6305 28.5815 96.0027 27.8811 96.4362 27.0248L101.163 17.6851C101.597 16.8286 102.736 16.1283 103.696 16.1283H106.7C107.661 16.1283 108.056 16.8105 107.583 17.6447L96.8552 36.4998Z" fill="#414141"/>
</g>
<g id="Group_6">
<path id="Vector_4" d="M125.112 7.99269C125.274 7.04757 126.19 6.27182 127.151 6.27182H129.772C130.733 6.27182 131.38 7.04642 131.213 7.99154L126.703 33.4343C126.536 34.3794 125.613 35.1526 124.654 35.1526H122.528C121.569 35.1526 120.886 34.5682 121.012 33.8535C121.138 33.139 121.216 32.5544 121.184 32.5544C121.154 32.5544 120.601 33.1375 119.958 33.8496C119.958 33.8496 119.574 34.2739 118.453 34.8077C117.332 35.3427 116.071 35.6096 114.67 35.6096C113.449 35.6096 112.347 35.4065 111.366 34.999C110.386 34.5929 109.56 34.0266 108.884 33.3003C108.208 32.5727 107.693 31.7148 107.336 30.7202C106.98 29.7284 106.801 28.6336 106.801 27.4359C106.801 25.8063 107.063 24.2794 107.585 22.8501C108.107 21.4262 108.832 20.1777 109.763 19.1077C110.691 18.0378 111.8 17.1916 113.086 16.5667C114.372 15.9447 115.779 15.6309 117.307 15.6309C118.708 15.6309 119.916 15.8991 120.935 16.434C121.954 16.9691 122.718 17.6825 123.227 18.574C123.27 18.574 123.437 17.7983 123.598 16.8532L125.112 7.99269ZM112.875 26.633C112.875 27.7786 113.207 28.734 113.87 29.498C114.531 30.2621 115.512 30.6448 116.81 30.6448C117.575 30.6448 118.287 30.4859 118.949 30.1671C119.611 29.8482 120.186 29.4095 120.668 28.8485C121.153 28.2888 121.529 27.6392 121.797 26.9012C122.064 26.1631 122.196 25.3861 122.196 24.57C122.196 23.3996 121.84 22.4377 121.127 21.6866C120.413 20.9355 119.446 20.5605 118.224 20.5605C117.409 20.5605 116.67 20.7194 116.008 21.037C115.346 21.3558 114.786 21.7881 114.326 22.3361C113.87 22.884 113.512 23.527 113.258 24.2651C113.003 25.0032 112.875 25.7921 112.875 26.633Z" fill="#414141"/>
</g>
<g id="Group_7">
<path id="Vector_5" d="M138.382 27.2825C137.421 27.2825 136.618 27.3802 136.598 27.4999C136.598 27.4999 136.598 27.4999 136.598 27.6261C136.598 28.1611 136.718 28.6402 136.961 29.0593C137.202 29.4796 137.52 29.8363 137.916 30.1294C138.31 30.4221 138.757 30.6448 139.252 30.7971C139.75 30.9508 140.264 31.0262 140.8 31.0262C141.767 31.0262 142.62 30.8492 143.359 30.4925C144.097 30.1347 144.76 29.6504 145.346 29.0386L147.829 30.982C148.584 31.5741 148.61 32.5714 147.884 33.1987C147.884 33.1987 146.619 34.2921 145.117 34.8649C143.613 35.4389 141.996 35.7252 140.264 35.7252C138.94 35.7252 137.711 35.5403 136.579 35.1707C135.445 34.8022 134.458 34.2543 133.617 33.528C132.776 32.8028 132.115 31.9048 131.631 30.8347C131.148 29.7661 130.906 28.5438 130.906 27.1692C130.906 25.5382 131.192 24.0165 131.765 22.6029C132.338 21.1906 133.126 19.9603 134.134 18.9164C135.139 17.8737 136.343 17.0524 137.744 16.4524C139.144 15.8549 140.684 15.5555 142.366 15.5555C143.613 15.5555 144.753 15.7338 145.784 16.0905C146.816 16.4472 147.7 16.9613 148.44 17.637C149.178 18.3124 149.75 19.1469 150.159 20.1387C150.565 21.132 150.77 22.2788 150.77 23.5779C150.77 24.0362 150.725 24.6141 150.636 25.3143C150.547 26.0159 150.427 26.672 150.274 27.2825H138.382ZM143.562 23.539C144.523 23.539 145.325 23.4245 145.346 23.2838C145.346 23.2838 145.346 23.2838 145.346 23.1575C145.346 23.03 145.346 22.9024 145.346 22.7748C145.346 21.9352 145.046 21.2336 144.449 20.6752C143.849 20.1155 142.99 19.8329 141.869 19.8329C141.182 19.8329 140.565 19.954 140.017 20.1961C139.469 20.4394 138.991 20.7376 138.585 21.0942C138.177 21.4509 137.845 21.8467 137.592 22.2788C137.336 22.7122 137.158 23.1315 137.057 23.5388L143.562 23.539Z" fill="#414141"/>
</g>
<g id="Group_8">
<path id="Vector_6" d="M153.738 35.1526C152.777 35.1526 152.128 34.3795 152.294 33.4332L156.771 7.99169C156.936 7.04657 157.859 6.27197 158.818 6.27197H161.556C162.515 6.27197 163.162 7.04657 162.995 7.99169L158.484 33.4345C158.318 34.3796 157.396 35.1528 156.436 35.1528H153.738V35.1526Z" fill="#414141"/>
</g>
<g id="Group_9">
<path id="Vector_7" d="M164.089 35.1527C163.13 35.1527 162.48 34.3783 162.645 33.4333L165.368 17.8481C165.532 16.9017 166.453 16.1285 167.413 16.1285H170.074C171.033 16.1285 171.68 16.9018 171.511 17.8455L168.726 33.4346C168.556 34.3797 167.633 35.1529 166.674 35.1529H164.089V35.1527ZM173.117 9.75015C173.117 10.2591 173.026 10.729 172.849 11.1624C172.672 11.596 172.422 11.9839 172.106 12.3261C171.786 12.6711 171.411 12.9379 170.977 13.1292C170.544 13.3206 170.074 13.417 169.564 13.417C168.597 13.417 167.8 13.1293 167.176 12.5566C166.553 11.9839 166.24 11.2511 166.24 10.3607C166.24 9.31674 166.591 8.4433 167.292 7.74427C167.991 7.04265 168.85 6.69385 169.871 6.69385C170.812 6.69385 171.589 6.98547 172.201 7.57245C172.813 8.15699 173.117 8.88318 173.117 9.75015Z" fill="#414141"/>
</g>
<g id="Group_10">
<path id="Vector_8" d="M184.279 33.648C183.793 34.4759 182.607 35.1526 181.647 35.1526H178.491C177.531 35.1526 176.603 34.3808 176.428 33.4371L173.548 17.8441C173.375 16.9003 174.017 16.1284 174.976 16.1284H177.941C178.902 16.1284 179.786 16.9069 179.904 17.8598L181.037 26.8883C181.155 27.8412 181.279 28.6195 181.31 28.6195C181.343 28.6195 181.734 27.9257 182.183 27.0771L187.161 17.6711C187.609 16.8224 188.762 16.1286 189.722 16.1286H192.88C193.839 16.1286 194.224 16.8056 193.736 17.6308L184.279 33.648Z" fill="#414141"/>
</g>
<g id="Group_11">
<path id="Vector_9" d="M200.645 27.2825C199.686 27.2825 198.883 27.3802 198.863 27.4999C198.863 27.4999 198.863 27.4999 198.863 27.6261C198.863 28.1611 198.983 28.6402 199.225 29.0593C199.469 29.4796 199.785 29.8363 200.181 30.1294C200.575 30.4221 201.022 30.6448 201.517 30.7971C202.015 30.9508 202.53 31.0262 203.065 31.0262C204.032 31.0262 204.886 30.8492 205.623 30.4925C206.362 30.1347 207.024 29.6504 207.611 29.0386L210.094 30.982C210.849 31.5741 210.875 32.5714 210.148 33.1987C210.148 33.1987 208.884 34.2921 207.382 34.8649C205.878 35.4389 204.263 35.7252 202.53 35.7252C201.206 35.7252 199.976 35.5403 198.844 35.1707C197.71 34.8022 196.723 34.2543 195.883 33.528C195.043 32.8028 194.38 31.9048 193.897 30.8347C193.413 29.7661 193.171 28.5438 193.171 27.1692C193.171 25.5382 193.457 24.0165 194.03 22.6029C194.603 21.1906 195.393 19.9603 196.399 18.9164C197.406 17.8737 198.608 17.0524 200.009 16.4524C201.409 15.8549 202.951 15.5555 204.631 15.5555C205.878 15.5555 207.018 15.7338 208.049 16.0905C209.081 16.4472 209.965 16.9613 210.703 17.637C211.441 18.3124 212.017 19.1469 212.424 20.1387C212.832 21.132 213.035 22.2788 213.035 23.5779C213.035 24.0362 212.99 24.6141 212.901 25.3143C212.811 26.0159 212.691 26.672 212.538 27.2825H200.645ZM205.828 23.539C206.787 23.539 207.589 23.4245 207.611 23.2838C207.611 23.2838 207.611 23.2838 207.611 23.1575C207.611 23.03 207.611 22.9024 207.611 22.7748C207.611 21.9352 207.312 21.2336 206.714 20.6752C206.115 20.1155 205.256 19.8329 204.134 19.8329C203.447 19.8329 202.83 19.954 202.282 20.1961C201.735 20.4394 201.256 20.7376 200.849 21.0942C200.441 21.4509 200.11 21.8467 199.857 22.2788C199.602 22.7122 199.422 23.1315 199.322 23.5388L205.828 23.539Z" fill="#414141"/>
</g>
<g id="Group_12">
<path id="Vector_10" d="M222.216 18.9165C222.259 18.9165 222.771 18.293 223.352 17.5302C223.352 17.5302 223.636 17.1593 224.49 16.5487C225.343 15.9369 226.367 15.631 227.565 15.631C227.795 15.631 228.029 15.6441 228.273 15.6701C228.514 15.6961 228.712 15.7339 228.864 15.7835L228.184 19.4933C228.013 20.4369 227.625 21.1516 227.323 21.0814C227.323 21.0814 227.323 21.0814 227.069 21.0552C226.814 21.0305 226.571 21.0175 226.342 21.0175C225.451 21.0175 224.701 21.1699 224.089 21.4757C223.479 21.7816 222.975 22.1578 222.581 22.603C222.185 23.0495 221.892 23.5271 221.702 24.0363C221.511 24.5465 221.377 24.9917 221.301 25.373L219.884 33.433C219.717 34.3793 218.797 35.1524 217.836 35.1524H215.213C214.254 35.1524 213.608 34.3793 213.777 33.4342L215.873 21.7801C216.044 20.8365 216.277 19.5634 216.391 18.9541C216.391 18.9541 216.391 18.9541 216.507 18.1913C216.62 17.4273 216.704 16.7399 216.754 16.1281H220.817C221.778 16.1281 222.555 16.2687 222.548 16.4393C222.548 16.4393 222.548 16.4393 222.523 16.6828C222.497 16.9248 222.465 17.1787 222.427 17.4454C222.388 17.7122 222.351 17.9804 222.312 18.2473C222.276 18.5157 222.242 18.7395 222.216 18.9165Z" fill="#414141"/>
</g>
<g id="Group_13">
<path id="Vector_11" d="M240.41 36.4998C239.934 37.3356 239.147 38.6933 238.657 39.5198C238.657 39.5198 238.432 39.9012 237.884 40.6913C237.338 41.4801 236.737 42.144 236.089 42.6777C235.438 43.2113 234.695 43.6189 233.855 43.8999C233.014 44.1799 232.033 44.3202 230.913 44.3202C229.717 44.3202 228.673 44.1797 227.78 43.8999L228.384 40.5741C228.557 39.6304 229.219 39.012 229.855 39.2007C229.855 39.2007 229.855 39.2007 230.492 39.2007C231.385 39.2007 232.079 38.9781 232.576 38.5317C233.072 38.0865 233.55 37.4564 234.008 36.6416L234.043 36.5817C234.527 35.7525 234.746 34.3115 234.53 33.3756L230.925 17.8281C230.708 16.8909 231.316 16.1281 232.277 16.1281H235.471C236.432 16.1281 237.335 16.904 237.479 17.8529L238.862 26.8567C239.008 27.8056 239.144 28.5815 239.165 28.5815C239.185 28.5815 239.557 27.8811 239.99 27.0248L244.718 17.6851C245.15 16.8286 246.289 16.1283 247.251 16.1283H250.256C251.215 16.1283 251.611 16.8105 251.138 17.6447L240.41 36.4998Z" fill="#414141"/>
</g>
<g id="Group_14">
<path id="Vector_12" d="M248.851 31.4806C250.266 31.4806 251.426 32.6613 251.426 34.0749C251.426 35.5002 250.266 36.6626 248.851 36.6626C247.423 36.6626 246.25 35.5001 246.25 34.0749C246.25 32.6613 247.423 31.4806 248.851 31.4806ZM248.863 36.2448C250.041 36.2448 250.998 35.2725 250.998 34.0749C250.998 32.8694 250.041 31.9075 248.863 31.9075C247.648 31.9075 246.687 32.8694 246.687 34.0749C246.687 35.2725 247.648 36.2448 248.863 36.2448ZM250.051 33.6064C250.051 34.045 249.825 34.3276 249.449 34.4199L249.959 35.2727C250.01 35.356 250.01 35.4224 249.865 35.4224H249.68C249.557 35.4224 249.547 35.3923 249.506 35.326L249.013 34.459H248.2V35.326C248.2 35.3923 248.185 35.4224 248.092 35.4224H247.906C247.823 35.4224 247.798 35.3923 247.798 35.326V32.8605C247.798 32.7538 247.823 32.7278 247.943 32.7278H249.121C249.691 32.7276 250.051 33.0453 250.051 33.6064ZM249.104 34.1009C249.438 34.1009 249.639 33.9265 249.639 33.6064C249.639 33.2991 249.438 33.1129 249.104 33.1129H248.2V34.1009H249.104Z" fill="#414141"/>
</g>
</g>
<path id="Vector_13" d="M16.5269 0.883528C7.4716 0.925763 0.16736 7.80492 0.213043 16.2453C0.289612 30.4805 14.0958 43.3902 14.0958 43.3902C15.5737 44.7719 17.9314 44.7184 19.3357 43.2714C19.3357 43.2714 33.0785 29.1035 33.0076 16.0913C32.9625 7.65063 25.5832 0.841149 16.5269 0.883528ZM15.4842 26.1026C15.4842 26.5161 15.0364 26.7744 14.6786 26.5674L8.66783 23.0907C8.11705 22.7721 7.77788 22.1841 7.77788 21.5479V15.3594C7.77788 14.9899 8.17997 14.7608 8.49788 14.9491L14.7289 18.6421C15.1972 18.9197 15.4844 19.4237 15.4844 19.9681L15.4842 26.1026ZM16.0407 16.5141L9.35624 12.587C8.96894 12.3594 8.97167 11.7984 9.36126 11.5748L16.0686 7.72361C16.4605 7.49864 16.9426 7.49965 17.3335 7.72663L23.966 11.5762C24.3524 11.8005 24.3552 12.3576 23.971 12.5857L17.3612 16.5112C16.9545 16.7526 16.4486 16.7537 16.0407 16.5141ZM25.4431 21.5477C25.4431 22.184 25.1039 22.7721 24.5531 23.0906L18.5422 26.5672C18.1844 26.7742 17.7366 26.5159 17.7366 26.1025V19.9679C17.7366 19.4235 18.0238 18.9195 18.4921 18.642L24.7229 14.949C25.0408 14.7606 25.4429 14.9896 25.4429 15.3593V21.5477H25.4431Z" fill="#414141"/>
</g>
</svg>
