<svg width="252" height="44" viewBox="0 0 252 44" fill="none" xmlns="http://www.w3.org/2000/svg">
<g id="Group">
<g id="Group_2">
<g id="Group_3">
<path id="Vector" d="M47.1193 29.8278C47.8299 29.1822 48.5719 29.2915 49.5379 29.9085C49.5379 29.9085 49.5379 29.9085 50.3396 30.2768C51.1415 30.6466 51.9628 30.8302 52.8038 30.8302C53.6186 30.8302 54.2734 30.6792 54.7706 30.3719C55.2679 30.0674 55.5165 29.6469 55.5165 29.1119C55.5165 28.6017 55.2862 28.2086 54.8279 27.9273C54.3698 27.6475 53.6942 27.3676 52.8038 27.0865C51.9121 26.8327 51.1285 26.5462 50.4543 26.2274C49.7787 25.9098 49.2124 25.5389 48.7542 25.1196C48.296 24.6992 47.9523 24.2149 47.7232 23.6682C47.4929 23.1188 47.3796 22.4773 47.3796 21.7392C47.3796 20.6939 47.6139 19.7657 48.0864 18.9496C48.5563 18.1348 49.1812 17.4409 49.9582 16.8682C50.734 16.2967 51.6452 15.8633 52.6891 15.5691C53.7331 15.2775 54.8279 15.1305 55.9747 15.1305C57.4508 15.1305 58.8332 15.3777 60.1192 15.8738C61.4054 16.371 62.4311 17.1026 63.1939 18.071L60.6712 20.1941C59.9369 20.8137 59.2757 20.841 58.4881 20.3894C58.4881 20.3894 58.4881 20.3894 57.8645 20.0574C57.2411 19.7268 56.4952 19.5615 55.6297 19.5615C54.9671 19.5615 54.363 19.6903 53.8163 19.9429C53.2684 20.198 52.9936 20.6301 52.9936 21.2433C52.9936 21.6754 53.198 22.0125 53.6054 22.256C54.0128 22.4981 54.6376 22.7324 55.4772 22.9615C57.2606 23.4445 58.6677 24.1135 59.6986 24.9673C60.7295 25.8213 61.2462 27.0617 61.2462 28.6914C61.2462 29.837 60.9977 30.8367 60.5005 31.6893C60.0044 32.5432 59.355 33.2435 58.5519 33.7915C57.75 34.3382 56.8336 34.7457 55.8015 35.0138C54.7704 35.2804 53.72 35.4134 52.6514 35.4134C50.8929 35.4134 49.3281 35.1205 47.9522 34.5348C46.5764 33.949 45.4569 33.1484 44.5899 32.1293L47.1193 29.8278Z" fill="#FF7500"/>
</g>
<g id="Group_4">
<path id="Vector_2" d="M73.0112 35.2623C71.6354 35.2623 70.3557 35.0709 69.1725 34.6882C67.9881 34.3068 66.9688 33.7536 66.1162 33.0273C65.2622 32.301 64.588 31.4223 64.0921 30.3915C63.5949 29.3593 63.3475 28.1941 63.3475 26.8963C63.3475 25.3174 63.6144 23.8138 64.1494 22.3873C64.6844 20.962 65.4537 19.7136 66.4599 18.6436C67.4647 17.5748 68.6818 16.7211 70.1085 16.0845C71.5338 15.448 73.1505 15.1304 74.9585 15.1304C76.3604 15.1304 77.6595 15.3203 78.8559 15.703C80.0534 16.0845 81.0843 16.6376 81.95 17.3639C82.8156 18.0904 83.4976 18.9689 83.9936 20.0013C84.4908 21.0322 84.7382 22.1958 84.7382 23.4949C84.7382 25.1 84.4713 26.6163 83.9363 28.0418C83.4013 29.4672 82.6241 30.7154 81.6063 31.7855C80.5871 32.8542 79.3582 33.7016 77.9198 34.3251C76.4802 34.9485 74.8454 35.2623 73.0112 35.2623ZM78.7036 24.1447C78.7036 22.9992 78.3521 22.0437 77.6519 21.2809C76.9527 20.5169 75.9648 20.1354 74.693 20.1354C73.8769 20.1354 73.1375 20.2994 72.4762 20.63C71.8138 20.962 71.254 21.407 70.7957 21.9668C70.3363 22.5291 69.9809 23.1774 69.7258 23.9168C69.4706 24.655 69.3442 25.432 69.3442 26.2468C69.3442 27.3923 69.6878 28.3412 70.3752 29.0924C71.0625 29.8434 72.0427 30.2197 73.317 30.2197C74.1319 30.2197 74.8687 30.0608 75.5325 29.742C76.1951 29.4231 76.7614 28.9843 77.2326 28.4234C77.7025 27.8637 78.0656 27.2141 78.3208 26.4761C78.576 25.7378 78.7036 24.9608 78.7036 24.1447Z" fill="#FF7500"/>
</g>
<g id="Group_5">
<path id="Vector_3" d="M96.6423 36.0745C96.1672 36.9103 95.3784 38.268 94.8902 39.0945C94.8902 39.0945 94.6637 39.4759 94.1169 40.266C93.569 41.0548 92.9714 41.7187 92.3219 42.2524C91.671 42.786 90.9264 43.1936 90.0871 43.4746C89.2474 43.7546 88.2646 43.8949 87.1451 43.8949C85.9476 43.8949 84.9049 43.7544 84.0132 43.4746L84.6172 40.1488C84.789 39.2051 85.4502 38.5867 86.0882 38.7754C86.0882 38.7754 86.0882 38.7754 86.7261 38.7754C87.6163 38.7754 88.3102 38.5528 88.8075 38.1064C89.3036 37.6612 89.7812 37.0311 90.2393 36.2163L90.2745 36.1564C90.7599 35.3272 90.9787 33.8862 90.7627 32.9503L87.1569 17.4029C86.9408 16.4656 87.5488 15.7028 88.5081 15.7028H91.7038C92.6633 15.7028 93.5666 16.4787 93.7137 17.4276L95.0934 26.4314C95.2392 27.3803 95.3758 28.1562 95.3968 28.1562C95.4176 28.1562 95.7898 27.4558 96.2234 26.5995L100.95 17.2598C101.385 16.4033 102.523 15.703 103.483 15.703H106.487C107.448 15.703 107.843 16.3852 107.37 17.2194L96.6423 36.0745Z" fill="#FF7500"/>
</g>
<g id="Group_6">
<path id="Vector_4" d="M124.899 7.56739C125.061 6.62227 125.977 5.84653 126.938 5.84653H129.559C130.52 5.84653 131.167 6.62113 131 7.56624L126.49 33.009C126.323 33.9542 125.401 34.7273 124.441 34.7273H122.316C121.356 34.7273 120.673 34.1429 120.799 33.4282C120.925 32.7137 121.003 32.1291 120.971 32.1291C120.941 32.1291 120.388 32.7122 119.745 33.4244C119.745 33.4244 119.361 33.8486 118.24 34.3824C117.119 34.9174 115.858 35.1843 114.457 35.1843C113.236 35.1843 112.134 34.9812 111.153 34.5737C110.173 34.1676 109.347 33.6013 108.671 32.875C107.996 32.1474 107.48 31.2895 107.123 30.2949C106.767 29.3031 106.588 28.2083 106.588 27.0106C106.588 25.381 106.85 23.8541 107.372 22.4248C107.894 21.0009 108.619 19.7524 109.55 18.6824C110.478 17.6125 111.587 16.7663 112.873 16.1414C114.159 15.5194 115.566 15.2056 117.094 15.2056C118.495 15.2056 119.703 15.4738 120.722 16.0087C121.741 16.5438 122.506 17.2572 123.014 18.1487C123.057 18.1487 123.224 17.373 123.385 16.4279L124.899 7.56739ZM112.662 26.2077C112.662 27.3533 112.994 28.3087 113.657 29.0727C114.318 29.8368 115.299 30.2195 116.597 30.2195C117.363 30.2195 118.075 30.0606 118.736 29.7418C119.399 29.4229 119.973 28.9842 120.456 28.4232C120.94 27.8635 121.316 27.2139 121.584 26.476C121.851 25.7378 121.984 24.9608 121.984 24.1447C121.984 22.9743 121.627 22.0124 120.914 21.2613C120.2 20.5102 119.233 20.1352 118.011 20.1352C117.196 20.1352 116.457 20.2941 115.795 20.6117C115.133 20.9305 114.573 21.3628 114.114 21.9108C113.657 22.4587 113.299 23.1017 113.045 23.8398C112.79 24.578 112.662 25.3668 112.662 26.2077Z" fill="#FF7500"/>
</g>
<g id="Group_7">
<path id="Vector_5" d="M138.169 26.8572C137.208 26.8572 136.405 26.9549 136.385 27.0746C136.385 27.0746 136.385 27.0746 136.385 27.2009C136.385 27.7358 136.505 28.2149 136.749 28.634C136.989 29.0543 137.307 29.411 137.703 29.7041C138.097 29.9968 138.544 30.2195 139.039 30.3718C139.537 30.5255 140.051 30.6009 140.587 30.6009C141.554 30.6009 142.407 30.4239 143.146 30.0672C143.884 29.7094 144.547 29.2251 145.133 28.6133L147.616 30.5567C148.371 31.1488 148.397 32.1461 147.671 32.7734C147.671 32.7734 146.406 33.8668 144.904 34.4396C143.4 35.0136 141.783 35.2999 140.051 35.2999C138.727 35.2999 137.498 35.1151 136.366 34.7454C135.232 34.3769 134.245 33.829 133.404 33.1027C132.563 32.3775 131.902 31.4795 131.418 30.4094C130.935 29.3408 130.693 28.1185 130.693 26.7439C130.693 25.1129 130.979 23.5912 131.552 22.1776C132.125 20.7653 132.914 19.535 133.921 18.4911C134.926 17.4484 136.13 16.6271 137.531 16.0271C138.931 15.4296 140.471 15.1302 142.153 15.1302C143.4 15.1302 144.54 15.3085 145.571 15.6652C146.603 16.0219 147.487 16.536 148.227 17.2117C148.965 17.8871 149.538 18.7216 149.946 19.7135C150.352 20.7067 150.557 21.8535 150.557 23.1526C150.557 23.6109 150.513 24.1888 150.423 24.889C150.334 25.5906 150.214 26.2467 150.061 26.8572H138.169ZM143.349 23.1137C144.31 23.1137 145.112 22.9992 145.133 22.8585C145.133 22.8585 145.133 22.8585 145.133 22.7323C145.133 22.6047 145.133 22.4771 145.133 22.3496C145.133 21.5099 144.833 20.8083 144.236 20.2499C143.636 19.6902 142.777 19.4076 141.656 19.4076C140.969 19.4076 140.352 19.5287 139.804 19.7708C139.256 20.0141 138.778 20.3124 138.372 20.6689C137.965 21.0256 137.633 21.4214 137.379 21.8535C137.124 22.2869 136.945 22.7063 136.844 23.1135L143.349 23.1137Z" fill="#FF7500"/>
</g>
<g id="Group_8">
<path id="Vector_6" d="M153.525 34.7273C152.564 34.7273 151.915 33.9542 152.081 33.0079L156.558 7.5664C156.723 6.62128 157.646 5.84668 158.605 5.84668H161.343C162.302 5.84668 162.949 6.62128 162.782 7.5664L158.271 33.0092C158.106 33.9543 157.183 34.7275 156.223 34.7275H153.525V34.7273Z" fill="#FF7500"/>
</g>
<g id="Group_9">
<path id="Vector_7" d="M163.876 34.7274C162.917 34.7274 162.267 33.953 162.432 33.008L165.156 17.4228C165.32 16.4764 166.24 15.7032 167.2 15.7032H169.861C170.82 15.7032 171.468 16.4765 171.298 17.4202L168.513 33.0093C168.343 33.9544 167.42 34.7276 166.461 34.7276H163.876V34.7274ZM172.905 9.32484C172.905 9.83382 172.813 10.3037 172.636 10.7371C172.459 11.1707 172.209 11.5586 171.893 11.9008C171.573 12.2458 171.198 12.5126 170.764 12.7039C170.331 12.8953 169.861 12.9917 169.351 12.9917C168.384 12.9917 167.587 12.7039 166.964 12.1313C166.34 11.5586 166.028 10.8258 166.028 9.93538C166.028 8.89143 166.378 8.01799 167.079 7.31896C167.778 6.61734 168.637 6.26854 169.658 6.26854C170.599 6.26854 171.376 6.56016 171.988 7.14715C172.6 7.73169 172.905 8.45787 172.905 9.32484Z" fill="#FF7500"/>
</g>
<g id="Group_10">
<path id="Vector_8" d="M184.067 33.2227C183.58 34.0506 182.394 34.7273 181.434 34.7273H178.278C177.318 34.7273 176.39 33.9555 176.215 33.0118L173.335 17.4188C173.162 16.475 173.804 15.7031 174.763 15.7031H177.728C178.689 15.7031 179.573 16.4816 179.691 17.4345L180.824 26.463C180.942 27.4159 181.066 28.1942 181.097 28.1942C181.13 28.1942 181.522 27.5004 181.971 26.6518L186.948 17.2459C187.396 16.3971 188.55 15.7033 189.509 15.7033H192.667C193.626 15.7033 194.011 16.3803 193.523 17.2055L184.067 33.2227Z" fill="#FF7500"/>
</g>
<g id="Group_11">
<path id="Vector_9" d="M200.433 26.8572C199.473 26.8572 198.67 26.9549 198.651 27.0746C198.651 27.0746 198.651 27.0746 198.651 27.2009C198.651 27.7358 198.77 28.2149 199.012 28.634C199.256 29.0543 199.572 29.411 199.968 29.7041C200.362 29.9968 200.809 30.2195 201.305 30.3718C201.802 30.5255 202.317 30.6009 202.852 30.6009C203.82 30.6009 204.673 30.4239 205.41 30.0672C206.15 29.7094 206.811 29.2251 207.398 28.6133L209.881 30.5567C210.636 31.1488 210.662 32.1461 209.935 32.7734C209.935 32.7734 208.671 33.8668 207.169 34.4396C205.665 35.0136 204.05 35.2999 202.317 35.2999C200.994 35.2999 199.763 35.1151 198.631 34.7454C197.497 34.3769 196.511 33.829 195.67 33.1027C194.83 32.3775 194.167 31.4795 193.684 30.4094C193.2 29.3408 192.958 28.1185 192.958 26.7439C192.958 25.1129 193.245 23.5912 193.817 22.1776C194.39 20.7653 195.18 19.535 196.186 18.4911C197.193 17.4484 198.395 16.6271 199.796 16.0271C201.197 15.4296 202.738 15.1302 204.418 15.1302C205.665 15.1302 206.806 15.3085 207.836 15.6652C208.869 16.0219 209.752 16.536 210.49 17.2117C211.229 17.8871 211.804 18.7216 212.211 19.7135C212.619 20.7067 212.822 21.8535 212.822 23.1526C212.822 23.6109 212.778 24.1888 212.688 24.889C212.598 25.5906 212.478 26.2467 212.325 26.8572H200.433ZM205.615 23.1137C206.574 23.1137 207.376 22.9992 207.398 22.8585C207.398 22.8585 207.398 22.8585 207.398 22.7323C207.398 22.6047 207.398 22.4771 207.398 22.3496C207.398 21.5099 207.099 20.8083 206.501 20.2499C205.902 19.6902 205.043 19.4076 203.921 19.4076C203.234 19.4076 202.617 19.5287 202.069 19.7708C201.522 20.0141 201.043 20.3124 200.636 20.6689C200.228 21.0256 199.898 21.4214 199.644 21.8535C199.389 22.2869 199.209 22.7063 199.109 23.1135L205.615 23.1137Z" fill="#FF7500"/>
</g>
<g id="Group_12">
<path id="Vector_10" d="M222.003 18.4912C222.046 18.4912 222.558 17.8677 223.14 17.1049C223.14 17.1049 223.423 16.734 224.277 16.1234C225.13 15.5116 226.154 15.2057 227.352 15.2057C227.582 15.2057 227.816 15.2188 228.06 15.2448C228.301 15.2708 228.499 15.3086 228.651 15.3582L227.971 19.068C227.8 20.0116 227.412 20.7263 227.11 20.6561C227.11 20.6561 227.11 20.6561 226.856 20.6299C226.601 20.6052 226.359 20.5922 226.13 20.5922C225.238 20.5922 224.488 20.7446 223.876 21.0504C223.266 21.3563 222.762 21.7325 222.368 22.1777C221.972 22.6242 221.679 23.1018 221.489 23.611C221.298 24.1212 221.164 24.5664 221.088 24.9477L219.671 33.0077C219.504 33.954 218.584 34.7271 217.623 34.7271H215C214.041 34.7271 213.395 33.954 213.564 33.0089L215.66 21.3548C215.831 20.4111 216.064 19.1381 216.178 18.5288C216.178 18.5288 216.178 18.5288 216.294 17.766C216.407 17.002 216.491 16.3146 216.541 15.7028H220.604C221.565 15.7028 222.342 15.8434 222.335 16.0139C222.335 16.0139 222.335 16.0139 222.31 16.2574C222.284 16.4995 222.252 16.7534 222.214 17.0201C222.175 17.2869 222.139 17.5551 222.1 17.822C222.063 18.0904 222.029 18.3142 222.003 18.4912Z" fill="#FF7500"/>
</g>
<g id="Group_13">
<path id="Vector_11" d="M240.197 36.0745C239.722 36.9103 238.934 38.268 238.445 39.0945C238.445 39.0945 238.219 39.4759 237.671 40.266C237.125 41.0548 236.525 41.7187 235.876 42.2524C235.225 42.786 234.482 43.1936 233.643 43.4746C232.802 43.7546 231.82 43.8949 230.701 43.8949C229.504 43.8949 228.46 43.7544 227.568 43.4746L228.171 40.1488C228.345 39.2051 229.006 38.5867 229.642 38.7754C229.642 38.7754 229.642 38.7754 230.279 38.7754C231.172 38.7754 231.866 38.5528 232.363 38.1064C232.859 37.6612 233.337 37.0311 233.795 36.2163L233.83 36.1564C234.314 35.3272 234.533 33.8862 234.317 32.9503L230.712 17.4029C230.495 16.4656 231.103 15.7028 232.064 15.7028H235.258C236.219 15.7028 237.122 16.4787 237.267 17.4276L238.649 26.4314C238.795 27.3803 238.931 28.1562 238.952 28.1562C238.972 28.1562 239.344 27.4558 239.778 26.5995L244.505 17.2598C244.937 16.4033 246.076 15.703 247.038 15.703H250.043C251.002 15.703 251.398 16.3852 250.925 17.2194L240.197 36.0745Z" fill="#FF7500"/>
</g>
<g id="Group_14">
<path id="Vector_12" d="M248.638 31.0553C250.053 31.0553 251.213 32.236 251.213 33.6496C251.213 35.0749 250.053 36.2373 248.638 36.2373C247.21 36.2373 246.038 35.0748 246.038 33.6496C246.038 32.236 247.21 31.0553 248.638 31.0553ZM248.65 35.8195C249.828 35.8195 250.785 34.8472 250.785 33.6496C250.785 32.4441 249.828 31.4822 248.65 31.4822C247.436 31.4822 246.474 32.4441 246.474 33.6496C246.474 34.8472 247.436 35.8195 248.65 35.8195ZM249.839 33.1811C249.839 33.6197 249.612 33.9023 249.236 33.9946L249.746 34.8474C249.797 34.9307 249.797 34.9971 249.652 34.9971H249.468C249.344 34.9971 249.334 34.967 249.293 34.9007L248.8 34.0337H247.988V34.9007C247.988 34.967 247.972 34.9971 247.879 34.9971H247.693C247.61 34.9971 247.585 34.967 247.585 34.9007V32.4352C247.585 32.3285 247.61 32.3025 247.73 32.3025H248.908C249.478 32.3024 249.839 32.62 249.839 33.1811ZM248.891 33.6756C249.225 33.6756 249.426 33.5012 249.426 33.1811C249.426 32.8738 249.225 32.6876 248.891 32.6876H247.988V33.6756H248.891Z" fill="#FF7500"/>
</g>
</g>
<path id="Vector_13" d="M16.314 0.458235C7.25877 0.50047 -0.0454698 7.37963 0.000213123 15.82C0.0767823 30.0552 13.8829 42.9649 13.8829 42.9649C15.3609 44.3466 17.7186 44.2931 19.1228 42.8461C19.1228 42.8461 32.8656 28.6782 32.7948 15.666C32.7497 7.22534 25.3703 0.415856 16.314 0.458235ZM15.2714 25.6774C15.2714 26.0908 14.8236 26.3491 14.4658 26.1421L8.455 22.6654C7.90422 22.3468 7.56505 21.7588 7.56505 21.1226V14.9341C7.56505 14.5646 7.96714 14.3355 8.28506 14.5238L14.516 18.2168C14.9844 18.4944 15.2715 18.9985 15.2715 19.5428L15.2714 25.6774ZM15.8279 16.0888L9.14341 12.1617C8.75611 11.9341 8.75884 11.3731 9.14843 11.1495L15.8558 7.29832C16.2477 7.07335 16.7298 7.07436 17.1207 7.30133L23.7532 11.1509C24.1396 11.3752 24.1423 11.9323 23.7582 12.1604L17.1484 16.086C16.7417 16.3273 16.2358 16.3284 15.8279 16.0888ZM25.2303 21.1224C25.2303 21.7587 24.8911 22.3468 24.3403 22.6653L18.3294 26.1419C17.9716 26.349 17.5238 26.0907 17.5238 25.6772V19.5426C17.5238 18.9982 17.8109 18.4942 18.2793 18.2167L24.5101 14.5237C24.828 14.3354 25.2301 14.5643 25.2301 14.934V21.1224H25.2303Z" fill="#FF7500"/>
</g>
</svg>
