<svg width="252" height="45" viewBox="0 0 252 45" fill="none" xmlns="http://www.w3.org/2000/svg">
<g id="Group">
<g id="Group_2">
<g id="Group_3">
<path id="Vector" d="M47.3322 29.9772C48.0428 29.3316 48.7848 29.4409 49.7508 30.0579C49.7508 30.0579 49.7508 30.0579 50.5525 30.4263C51.3544 30.796 52.1757 30.9796 53.0167 30.9796C53.8315 30.9796 54.4863 30.8286 54.9835 30.5214C55.4808 30.2168 55.7293 29.7963 55.7293 29.2613C55.7293 28.7511 55.4991 28.358 55.0408 28.0767C54.5827 27.7969 53.9071 27.5171 53.0167 27.2359C52.125 26.9821 51.3413 26.6956 50.6672 26.3768C49.9915 26.0592 49.4252 25.6883 48.9671 25.269C48.5089 24.8486 48.1652 24.3644 47.9361 23.8176C47.7058 23.2683 47.5925 22.6267 47.5925 21.8886C47.5925 20.8433 47.8268 19.9152 48.2993 19.099C48.7692 18.2842 49.3941 17.5904 50.1711 17.0176C50.9469 16.4461 51.8581 16.0127 52.902 15.7185C53.946 15.4269 55.0408 15.2799 56.1876 15.2799C57.6637 15.2799 59.0461 15.5272 60.3321 16.0232C61.6183 16.5204 62.644 17.252 63.4068 18.2204L60.884 20.3435C60.1498 20.9631 59.4886 20.9904 58.701 20.5388C58.701 20.5388 58.701 20.5388 58.0774 20.2068C57.4539 19.8762 56.7081 19.7109 55.8426 19.7109C55.18 19.7109 54.5759 19.8397 54.0292 20.0923C53.4813 20.3474 53.2064 20.7795 53.2064 21.3927C53.2064 21.8248 53.4109 22.162 53.8183 22.4055C54.2257 22.6475 54.8505 22.8818 55.6901 23.111C57.4735 23.5939 58.8806 24.2629 59.9115 25.1167C60.9424 25.9707 61.4591 27.2111 61.4591 28.8409C61.4591 29.9864 61.2106 30.9861 60.7134 31.8387C60.2173 32.6926 59.5679 33.3929 58.7648 33.941C57.9629 34.4876 57.0465 34.8951 56.0144 35.1632C54.9833 35.4298 53.9329 35.5629 52.8643 35.5629C51.1057 35.5629 49.541 35.2699 48.1651 34.6842C46.7893 34.0984 45.6698 33.2978 44.8028 32.2787L47.3322 29.9772Z" fill="#414141"/>
</g>
<g id="Group_4">
<path id="Vector_2" d="M73.224 35.4117C71.8482 35.4117 70.5685 35.2204 69.3854 34.8377C68.2009 34.4563 67.1817 33.903 66.3291 33.1767C65.475 32.4504 64.8009 31.5718 64.305 30.5409C63.8078 29.5087 63.5604 28.3435 63.5604 27.0457C63.5604 25.4668 63.8273 23.9633 64.3623 22.5368C64.8973 21.1114 65.6665 19.863 66.6727 18.7931C67.6776 17.7242 68.8946 16.8705 70.3213 16.2339C71.7467 15.5974 73.3634 15.2798 75.1713 15.2798C76.5733 15.2798 77.8723 15.4697 79.0687 15.8524C80.2662 16.2339 81.2971 16.787 82.1628 17.5134C83.0285 18.2398 83.7104 19.1183 84.2065 20.1508C84.7037 21.1816 84.951 22.3453 84.951 23.6443C84.951 25.2494 84.6841 26.7657 84.1492 28.1912C83.6142 29.6166 82.837 30.8648 81.8192 31.9349C80.7999 33.0036 79.5711 33.851 78.1327 34.4745C76.6931 35.098 75.0583 35.4117 73.224 35.4117ZM78.9164 24.2941C78.9164 23.1486 78.5649 22.1931 77.8647 21.4303C77.1656 20.6663 76.1776 20.2848 74.9058 20.2848C74.0897 20.2848 73.3503 20.4488 72.6891 20.7794C72.0267 21.1114 71.4668 21.5564 71.0086 22.1163C70.5491 22.6785 70.1937 23.3269 69.9386 24.0663C69.6835 24.8044 69.557 25.5814 69.557 26.3962C69.557 27.5418 69.9007 28.4906 70.5881 29.2418C71.2753 29.9928 72.2555 30.3691 73.5299 30.3691C74.3447 30.3691 75.0815 30.2102 75.7454 29.8914C76.4079 29.5725 76.9742 29.1338 77.4454 28.5728C77.9153 28.0131 78.2785 27.3635 78.5336 26.6255C78.7889 25.8873 78.9164 25.1102 78.9164 24.2941Z" fill="#414141"/>
</g>
<g id="Group_5">
<path id="Vector_3" d="M96.8552 36.224C96.3801 37.0597 95.5913 38.4175 95.1031 39.2439C95.1031 39.2439 94.8766 39.6253 94.3298 40.4154C93.7819 41.2043 93.1843 41.8681 92.5348 42.4018C91.8839 42.9355 91.1393 43.343 90.2999 43.624C89.4603 43.904 88.4775 44.0444 87.358 44.0444C86.1605 44.0444 85.1178 43.9039 84.2261 43.624L84.8301 40.2982C85.0019 39.3545 85.6631 38.7361 86.3011 38.9248C86.3011 38.9248 86.3011 38.9248 86.9389 38.9248C87.8292 38.9248 88.523 38.7022 89.0204 38.2558C89.5164 37.8106 89.9941 37.1806 90.4522 36.3657L90.4874 36.3058C90.9728 35.4766 91.1916 34.0356 90.9756 33.0997L87.3698 17.5523C87.1537 16.6151 87.7617 15.8522 88.721 15.8522H91.9167C92.8761 15.8522 93.7794 16.6281 93.9266 17.577L95.3062 26.5808C95.452 27.5297 95.5887 28.3056 95.6096 28.3056C95.6305 28.3056 96.0027 27.6053 96.4362 26.7489L101.163 17.4092C101.597 16.5527 102.736 15.8524 103.696 15.8524H106.7C107.661 15.8524 108.056 16.5346 107.583 17.3688L96.8552 36.224Z" fill="#414141"/>
</g>
<g id="Group_6">
<path id="Vector_4" d="M125.112 7.71681C125.274 6.77169 126.19 5.99594 127.151 5.99594H129.772C130.733 5.99594 131.38 6.77054 131.213 7.71566L126.703 33.1585C126.536 34.1036 125.613 34.8767 124.654 34.8767H122.528C121.569 34.8767 120.886 34.2923 121.012 33.5776C121.138 32.8631 121.216 32.2786 121.184 32.2786C121.154 32.2786 120.601 32.8617 119.958 33.5738C119.958 33.5738 119.574 33.998 118.453 34.5318C117.332 35.0668 116.071 35.3337 114.67 35.3337C113.449 35.3337 112.347 35.1306 111.366 34.7232C110.386 34.317 109.56 33.7507 108.884 33.0244C108.208 32.2968 107.693 31.4389 107.336 30.4443C106.98 29.4525 106.801 28.3577 106.801 27.1601C106.801 25.5304 107.063 24.0035 107.585 22.5742C108.107 21.1503 108.832 19.9018 109.763 18.8318C110.691 17.7619 111.8 16.9157 113.086 16.2908C114.372 15.6688 115.779 15.355 117.307 15.355C118.708 15.355 119.916 15.6233 120.935 16.1581C121.954 16.6932 122.718 17.4066 123.227 18.2981C123.27 18.2981 123.437 17.5224 123.598 16.5773L125.112 7.71681ZM112.875 26.3572C112.875 27.5027 113.207 28.4581 113.87 29.2221C114.531 29.9862 115.512 30.3689 116.81 30.3689C117.575 30.3689 118.287 30.21 118.949 29.8913C119.611 29.5723 120.186 29.1336 120.668 28.5726C121.153 28.0129 121.529 27.3633 121.797 26.6254C122.064 25.8873 122.196 25.1102 122.196 24.2941C122.196 23.1237 121.84 22.1618 121.127 21.4108C120.413 20.6596 119.446 20.2846 118.224 20.2846C117.409 20.2846 116.67 20.4435 116.008 20.7611C115.346 21.0799 114.786 21.5122 114.326 22.0602C113.87 22.6081 113.512 23.2512 113.258 23.9893C113.003 24.7274 112.875 25.5162 112.875 26.3572Z" fill="#414141"/>
</g>
<g id="Group_7">
<path id="Vector_5" d="M138.382 27.0066C137.421 27.0066 136.618 27.1043 136.598 27.224C136.598 27.224 136.598 27.224 136.598 27.3503C136.598 27.8852 136.718 28.3643 136.961 28.7834C137.202 29.2037 137.52 29.5604 137.916 29.8535C138.31 30.1463 138.757 30.3689 139.252 30.5212C139.75 30.6749 140.264 30.7503 140.8 30.7503C141.767 30.7503 142.62 30.5733 143.359 30.2166C144.097 29.8588 144.76 29.3745 145.346 28.7627L147.829 30.7061C148.584 31.2982 148.61 32.2955 147.884 32.9229C147.884 32.9229 146.619 34.0162 145.117 34.589C143.613 35.163 141.996 35.4494 140.264 35.4494C138.94 35.4494 137.711 35.2645 136.579 34.8948C135.445 34.5264 134.458 33.9784 133.617 33.2521C132.776 32.5269 132.115 31.6289 131.631 30.5588C131.148 29.4902 130.906 28.2679 130.906 26.8933C130.906 25.2623 131.192 23.7406 131.765 22.327C132.338 20.9147 133.126 19.6844 134.134 18.6405C135.139 17.5978 136.343 16.7765 137.744 16.1765C139.144 15.579 140.684 15.2796 142.366 15.2796C143.613 15.2796 144.753 15.4579 145.784 15.8146C146.816 16.1713 147.7 16.6855 148.44 17.3611C149.178 18.0365 149.75 18.871 150.159 19.8629C150.565 20.8561 150.77 22.0029 150.77 23.302C150.77 23.7603 150.725 24.3382 150.636 25.0384C150.547 25.74 150.427 26.3961 150.274 27.0066H138.382ZM143.562 23.2631C144.523 23.2631 145.325 23.1486 145.346 23.0079C145.346 23.0079 145.346 23.0079 145.346 22.8817C145.346 22.7541 145.346 22.6265 145.346 22.499C145.346 21.6593 145.046 20.9577 144.449 20.3993C143.849 19.8396 142.99 19.557 141.869 19.557C141.182 19.557 140.565 19.6781 140.017 19.9202C139.469 20.1635 138.991 20.4618 138.585 20.8183C138.177 21.175 137.845 21.5708 137.592 22.0029C137.336 22.4363 137.158 22.8557 137.057 23.2629L143.562 23.2631Z" fill="#414141"/>
</g>
<g id="Group_8">
<path id="Vector_6" d="M153.738 34.8767C152.777 34.8767 152.128 34.1036 152.294 33.1573L156.771 7.71581C156.936 6.77069 157.859 5.99609 158.818 5.99609H161.556C162.515 5.99609 163.162 6.77069 162.995 7.71581L158.484 33.1586C158.318 34.1037 157.396 34.8769 156.436 34.8769H153.738V34.8767Z" fill="#414141"/>
</g>
<g id="Group_9">
<path id="Vector_7" d="M164.089 34.8768C163.13 34.8768 162.48 34.1024 162.645 33.1574L165.368 17.5722C165.532 16.6258 166.453 15.8526 167.413 15.8526H170.074C171.033 15.8526 171.68 16.6259 171.511 17.5696L168.726 33.1587C168.556 34.1038 167.633 34.877 166.674 34.877H164.089V34.8768ZM173.117 9.47426C173.117 9.98323 173.026 10.4531 172.849 10.8865C172.672 11.3201 172.422 11.708 172.106 12.0502C171.786 12.3952 171.411 12.662 170.977 12.8534C170.544 13.0447 170.074 13.1411 169.564 13.1411C168.597 13.1411 167.8 12.8534 167.176 12.2807C166.553 11.708 166.24 10.9752 166.24 10.0848C166.24 9.04084 166.591 8.16741 167.292 7.46837C167.991 6.76675 168.85 6.41795 169.871 6.41795C170.812 6.41795 171.589 6.70958 172.201 7.29656C172.813 7.8811 173.117 8.60729 173.117 9.47426Z" fill="#414141"/>
</g>
<g id="Group_10">
<path id="Vector_8" d="M184.279 33.3721C183.793 34.2 182.607 34.8767 181.647 34.8767H178.491C177.531 34.8767 176.603 34.1049 176.428 33.1612L173.548 17.5682C173.375 16.6244 174.017 15.8525 174.976 15.8525H177.941C178.902 15.8525 179.786 16.631 179.904 17.5839L181.037 26.6124C181.155 27.5653 181.279 28.3437 181.31 28.3437C181.343 28.3437 181.734 27.6498 182.183 26.8012L187.161 17.3953C187.609 16.5465 188.762 15.8527 189.722 15.8527H192.88C193.839 15.8527 194.224 16.5297 193.736 17.3549L184.279 33.3721Z" fill="#414141"/>
</g>
<g id="Group_11">
<path id="Vector_9" d="M200.645 27.0066C199.686 27.0066 198.883 27.1043 198.863 27.224C198.863 27.224 198.863 27.224 198.863 27.3503C198.863 27.8852 198.983 28.3643 199.225 28.7834C199.469 29.2037 199.785 29.5604 200.181 29.8535C200.575 30.1463 201.022 30.3689 201.517 30.5212C202.015 30.6749 202.53 30.7503 203.065 30.7503C204.032 30.7503 204.886 30.5733 205.623 30.2166C206.362 29.8588 207.024 29.3745 207.611 28.7627L210.094 30.7061C210.849 31.2982 210.875 32.2955 210.148 32.9229C210.148 32.9229 208.884 34.0162 207.382 34.589C205.878 35.163 204.263 35.4494 202.53 35.4494C201.206 35.4494 199.976 35.2645 198.844 34.8948C197.71 34.5264 196.723 33.9784 195.883 33.2521C195.043 32.5269 194.38 31.6289 193.897 30.5588C193.413 29.4902 193.171 28.2679 193.171 26.8933C193.171 25.2623 193.457 23.7406 194.03 22.327C194.603 20.9147 195.393 19.6844 196.399 18.6405C197.406 17.5978 198.608 16.7765 200.009 16.1765C201.409 15.579 202.951 15.2796 204.631 15.2796C205.878 15.2796 207.018 15.4579 208.049 15.8146C209.081 16.1713 209.965 16.6855 210.703 17.3611C211.441 18.0365 212.017 18.871 212.424 19.8629C212.832 20.8561 213.035 22.0029 213.035 23.302C213.035 23.7603 212.99 24.3382 212.901 25.0384C212.811 25.74 212.691 26.3961 212.538 27.0066H200.645ZM205.828 23.2631C206.787 23.2631 207.589 23.1486 207.611 23.0079C207.611 23.0079 207.611 23.0079 207.611 22.8817C207.611 22.7541 207.611 22.6265 207.611 22.499C207.611 21.6593 207.312 20.9577 206.714 20.3993C206.115 19.8396 205.256 19.557 204.134 19.557C203.447 19.557 202.83 19.6781 202.282 19.9202C201.735 20.1635 201.256 20.4618 200.849 20.8183C200.441 21.175 200.11 21.5708 199.857 22.0029C199.602 22.4363 199.422 22.8557 199.322 23.2629L205.828 23.2631Z" fill="#414141"/>
</g>
<g id="Group_12">
<path id="Vector_10" d="M222.216 18.6406C222.259 18.6406 222.771 18.0171 223.352 17.2543C223.352 17.2543 223.636 16.8834 224.49 16.2728C225.343 15.661 226.367 15.3551 227.565 15.3551C227.795 15.3551 228.029 15.3682 228.273 15.3942C228.514 15.4202 228.712 15.458 228.864 15.5076L228.184 19.2174C228.013 20.1611 227.625 20.8757 227.323 20.8055C227.323 20.8055 227.323 20.8055 227.069 20.7794C226.814 20.7546 226.571 20.7416 226.342 20.7416C225.451 20.7416 224.701 20.894 224.089 21.1998C223.479 21.5057 222.975 21.8819 222.581 22.3271C222.185 22.7736 221.892 23.2513 221.702 23.7604C221.511 24.2706 221.377 24.7158 221.301 25.0971L219.884 33.1571C219.717 34.1034 218.797 34.8766 217.836 34.8766H215.213C214.254 34.8766 213.608 34.1034 213.777 33.1583L215.873 21.5042C216.044 20.5606 216.277 19.2875 216.391 18.6782C216.391 18.6782 216.391 18.6782 216.507 17.9154C216.62 17.1514 216.704 16.464 216.754 15.8522H220.817C221.778 15.8522 222.555 15.9928 222.548 16.1634C222.548 16.1634 222.548 16.1634 222.523 16.4069C222.497 16.6489 222.465 16.9028 222.427 17.1695C222.388 17.4363 222.351 17.7045 222.312 17.9714C222.276 18.2398 222.242 18.4636 222.216 18.6406Z" fill="#414141"/>
</g>
<g id="Group_13">
<path id="Vector_11" d="M240.41 36.224C239.934 37.0597 239.147 38.4175 238.657 39.2439C238.657 39.2439 238.432 39.6253 237.884 40.4154C237.338 41.2043 236.737 41.8681 236.089 42.4018C235.438 42.9355 234.695 43.343 233.855 43.624C233.014 43.904 232.033 44.0444 230.913 44.0444C229.717 44.0444 228.673 43.9039 227.78 43.624L228.384 40.2982C228.557 39.3545 229.219 38.7361 229.855 38.9248C229.855 38.9248 229.855 38.9248 230.492 38.9248C231.385 38.9248 232.079 38.7022 232.576 38.2558C233.072 37.8106 233.55 37.1806 234.008 36.3657L234.043 36.3058C234.527 35.4766 234.746 34.0356 234.53 33.0997L230.925 17.5523C230.708 16.6151 231.316 15.8522 232.277 15.8522H235.471C236.432 15.8522 237.335 16.6281 237.479 17.577L238.862 26.5808C239.008 27.5297 239.144 28.3056 239.165 28.3056C239.185 28.3056 239.557 27.6053 239.99 26.7489L244.718 17.4092C245.15 16.5527 246.289 15.8524 247.251 15.8524H250.256C251.215 15.8524 251.611 16.5346 251.138 17.3688L240.41 36.224Z" fill="#414141"/>
</g>
<g id="Group_14">
<path id="Vector_12" d="M248.851 31.2047C250.266 31.2047 251.426 32.3854 251.426 33.799C251.426 35.2243 250.266 36.3867 248.851 36.3867C247.423 36.3867 246.25 35.2242 246.25 33.799C246.25 32.3854 247.423 31.2047 248.851 31.2047ZM248.863 35.9689C250.041 35.9689 250.998 34.9967 250.998 33.799C250.998 32.5936 250.041 31.6316 248.863 31.6316C247.648 31.6316 246.687 32.5936 246.687 33.799C246.687 34.9967 247.648 35.9689 248.863 35.9689ZM250.051 33.3305C250.051 33.7691 249.825 34.0517 249.449 34.144L249.959 34.9968C250.01 35.0801 250.01 35.1465 249.865 35.1465H249.68C249.557 35.1465 249.547 35.1165 249.506 35.0501L249.013 34.1831H248.2V35.0501C248.2 35.1165 248.185 35.1465 248.092 35.1465H247.906C247.823 35.1465 247.798 35.1165 247.798 35.0501V32.5847C247.798 32.4779 247.823 32.4519 247.943 32.4519H249.121C249.691 32.4518 250.051 32.7694 250.051 33.3305ZM249.104 33.825C249.438 33.825 249.639 33.6506 249.639 33.3305C249.639 33.0232 249.438 32.8371 249.104 32.8371H248.2V33.825H249.104Z" fill="#414141"/>
</g>
</g>
<path id="Vector_13" d="M16.5269 0.607649C7.4716 0.649884 0.16736 7.52904 0.213043 15.9695C0.289612 30.2046 14.0958 43.1143 14.0958 43.1143C15.5737 44.496 17.9314 44.4426 19.3357 42.9955C19.3357 42.9955 33.0785 28.8276 33.0076 15.8155C32.9625 7.37475 25.5832 0.56527 16.5269 0.607649ZM15.4842 25.8268C15.4842 26.2402 15.0364 26.4985 14.6786 26.2915L8.66783 22.8149C8.11705 22.4962 7.77788 21.9082 7.77788 21.272V15.0835C7.77788 14.714 8.17997 14.4849 8.49788 14.6732L14.7289 18.3662C15.1972 18.6438 15.4844 19.1479 15.4844 19.6922L15.4842 25.8268ZM16.0407 16.2382L9.35624 12.3111C8.96894 12.0835 8.97167 11.5226 9.36126 11.2989L16.0686 7.44773C16.4605 7.22276 16.9426 7.22377 17.3335 7.45075L23.966 11.3003C24.3524 11.5246 24.3552 12.0817 23.971 12.3098L17.3612 16.2354C16.9545 16.4767 16.4486 16.4779 16.0407 16.2382ZM25.4431 21.2718C25.4431 21.9081 25.1039 22.4962 24.5531 22.8147L18.5422 26.2914C18.1844 26.4984 17.7366 26.2401 17.7366 25.8266V19.692C17.7366 19.1476 18.0238 18.6436 18.4921 18.3661L24.7229 14.6731C25.0408 14.4848 25.4429 14.7138 25.4429 15.0834V21.2718H25.4431Z" fill="#414141"/>
</g>
</svg>
