<svg width="252" height="45" viewBox="0 0 252 45" fill="none" xmlns="http://www.w3.org/2000/svg">
<g id="Group">
<g id="Group_2">
<g id="Group_3">
<path id="Vector" d="M47.1193 30.2531C47.8299 29.6075 48.5719 29.7168 49.5379 30.3338C49.5379 30.3338 49.5379 30.3338 50.3396 30.7021C51.1415 31.0719 51.9628 31.2555 52.8038 31.2555C53.6186 31.2555 54.2734 31.1045 54.7706 30.7972C55.2679 30.4927 55.5165 30.0722 55.5165 29.5372C55.5165 29.027 55.2862 28.6339 54.8279 28.3526C54.3698 28.0728 53.6942 27.7929 52.8038 27.5118C51.9121 27.258 51.1285 26.9715 50.4543 26.6527C49.7787 26.3351 49.2124 25.9642 48.7542 25.5449C48.296 25.1245 47.9523 24.6403 47.7232 24.0935C47.4929 23.5441 47.3796 22.9026 47.3796 22.1645C47.3796 21.1192 47.6139 20.1911 48.0864 19.3749C48.5563 18.5601 49.1812 17.8663 49.9582 17.2935C50.734 16.722 51.6452 16.2886 52.6891 15.9944C53.7331 15.7028 54.8279 15.5558 55.9747 15.5558C57.4508 15.5558 58.8332 15.803 60.1192 16.2991C61.4054 16.7963 62.4311 17.5279 63.1939 18.4963L60.6712 20.6194C59.9369 21.239 59.2757 21.2663 58.4881 20.8147C58.4881 20.8147 58.4881 20.8147 57.8645 20.4827C57.2411 20.1521 56.4952 19.9868 55.6297 19.9868C54.9671 19.9868 54.363 20.1156 53.8163 20.3682C53.2684 20.6233 52.9936 21.0554 52.9936 21.6686C52.9936 22.1007 53.198 22.4378 53.6054 22.6813C54.0128 22.9234 54.6376 23.1577 55.4772 23.3868C57.2606 23.8698 58.6677 24.5388 59.6986 25.3926C60.7295 26.2466 61.2462 27.487 61.2462 29.1167C61.2462 30.2623 60.9977 31.262 60.5005 32.1146C60.0044 32.9685 59.355 33.6688 58.5519 34.2169C57.75 34.7635 56.8336 35.171 55.8015 35.4391C54.7704 35.7057 53.72 35.8387 52.6514 35.8387C50.8929 35.8387 49.3281 35.5458 47.9522 34.9601C46.5764 34.3743 45.4569 33.5737 44.5899 32.5546L47.1193 30.2531Z" fill="#FF7500"/>
</g>
<g id="Group_4">
<path id="Vector_2" d="M73.0112 35.6876C71.6354 35.6876 70.3557 35.4963 69.1725 35.1136C67.9881 34.7321 66.9688 34.1789 66.1162 33.4526C65.2622 32.7263 64.588 31.8477 64.0921 30.8168C63.5949 29.7846 63.3475 28.6194 63.3475 27.3216C63.3475 25.7427 63.6144 24.2392 64.1494 22.8126C64.6844 21.3873 65.4537 20.1389 66.4599 19.0689C67.4647 18.0001 68.6818 17.1464 70.1085 16.5098C71.5338 15.8733 73.1505 15.5557 74.9585 15.5557C76.3604 15.5557 77.6595 15.7456 78.8559 16.1283C80.0534 16.5098 81.0843 17.0629 81.95 17.7892C82.8156 18.5157 83.4976 19.3942 83.9936 20.4266C84.4908 21.4575 84.7382 22.6211 84.7382 23.9202C84.7382 25.5253 84.4713 27.0416 83.9363 28.4671C83.4013 29.8925 82.6241 31.1407 81.6063 32.2108C80.5871 33.2795 79.3582 34.1269 77.9198 34.7504C76.4802 35.3739 74.8454 35.6876 73.0112 35.6876ZM78.7036 24.57C78.7036 23.4245 78.3521 22.469 77.6519 21.7062C76.9527 20.9422 75.9648 20.5607 74.693 20.5607C73.8769 20.5607 73.1375 20.7247 72.4762 21.0553C71.8138 21.3873 71.254 21.8323 70.7957 22.3922C70.3363 22.9544 69.9809 23.6028 69.7258 24.3422C69.4706 25.0803 69.3442 25.8573 69.3442 26.6721C69.3442 27.8176 69.6878 28.7665 70.3752 29.5177C71.0625 30.2687 72.0427 30.645 73.317 30.645C74.1319 30.645 74.8687 30.4861 75.5325 30.1673C76.1951 29.8484 76.7614 29.4097 77.2326 28.8487C77.7025 28.289 78.0656 27.6394 78.3208 26.9014C78.576 26.1631 78.7036 25.3861 78.7036 24.57Z" fill="#FF7500"/>
</g>
<g id="Group_5">
<path id="Vector_3" d="M96.6423 36.4998C96.1672 37.3356 95.3784 38.6933 94.8902 39.5198C94.8902 39.5198 94.6637 39.9012 94.1169 40.6913C93.569 41.4801 92.9714 42.144 92.3219 42.6777C91.671 43.2113 90.9264 43.6189 90.0871 43.8999C89.2474 44.1799 88.2646 44.3202 87.1451 44.3202C85.9476 44.3202 84.9049 44.1797 84.0132 43.8999L84.6172 40.5741C84.789 39.6304 85.4502 39.012 86.0882 39.2007C86.0882 39.2007 86.0882 39.2007 86.7261 39.2007C87.6163 39.2007 88.3102 38.9781 88.8075 38.5317C89.3036 38.0865 89.7812 37.4564 90.2393 36.6416L90.2745 36.5817C90.7599 35.7525 90.9787 34.3115 90.7627 33.3756L87.1569 17.8281C86.9408 16.8909 87.5488 16.1281 88.5081 16.1281H91.7038C92.6633 16.1281 93.5666 16.904 93.7137 17.8529L95.0934 26.8567C95.2392 27.8056 95.3758 28.5815 95.3968 28.5815C95.4176 28.5815 95.7898 27.8811 96.2234 27.0248L100.95 17.6851C101.385 16.8286 102.523 16.1283 103.483 16.1283H106.487C107.448 16.1283 107.843 16.8105 107.37 17.6447L96.6423 36.4998Z" fill="#FF7500"/>
</g>
<g id="Group_6">
<path id="Vector_4" d="M124.899 7.99269C125.061 7.04757 125.977 6.27182 126.938 6.27182H129.559C130.52 6.27182 131.167 7.04642 131 7.99154L126.49 33.4343C126.323 34.3794 125.401 35.1526 124.441 35.1526H122.316C121.356 35.1526 120.673 34.5682 120.799 33.8535C120.925 33.139 121.003 32.5544 120.971 32.5544C120.941 32.5544 120.388 33.1375 119.745 33.8496C119.745 33.8496 119.361 34.2739 118.24 34.8077C117.119 35.3427 115.858 35.6096 114.457 35.6096C113.236 35.6096 112.134 35.4065 111.153 34.999C110.173 34.5929 109.347 34.0266 108.671 33.3003C107.996 32.5727 107.48 31.7148 107.123 30.7202C106.767 29.7284 106.588 28.6336 106.588 27.4359C106.588 25.8063 106.85 24.2794 107.372 22.8501C107.894 21.4262 108.619 20.1777 109.55 19.1077C110.478 18.0378 111.587 17.1916 112.873 16.5667C114.159 15.9447 115.566 15.6309 117.094 15.6309C118.495 15.6309 119.703 15.8991 120.722 16.434C121.741 16.9691 122.506 17.6825 123.014 18.574C123.057 18.574 123.224 17.7983 123.385 16.8532L124.899 7.99269ZM112.662 26.633C112.662 27.7786 112.994 28.734 113.657 29.498C114.318 30.2621 115.299 30.6448 116.597 30.6448C117.363 30.6448 118.075 30.4859 118.736 30.1671C119.399 29.8482 119.973 29.4095 120.456 28.8485C120.94 28.2888 121.316 27.6392 121.584 26.9012C121.851 26.1631 121.984 25.3861 121.984 24.57C121.984 23.3996 121.627 22.4377 120.914 21.6866C120.2 20.9355 119.233 20.5605 118.011 20.5605C117.196 20.5605 116.457 20.7194 115.795 21.037C115.133 21.3558 114.573 21.7881 114.114 22.3361C113.657 22.884 113.299 23.527 113.045 24.2651C112.79 25.0032 112.662 25.7921 112.662 26.633Z" fill="#FF7500"/>
</g>
<g id="Group_7">
<path id="Vector_5" d="M138.169 27.2825C137.208 27.2825 136.405 27.3802 136.385 27.4999C136.385 27.4999 136.385 27.4999 136.385 27.6261C136.385 28.1611 136.505 28.6402 136.749 29.0593C136.989 29.4796 137.307 29.8363 137.703 30.1294C138.097 30.4221 138.544 30.6448 139.039 30.7971C139.537 30.9508 140.051 31.0262 140.587 31.0262C141.554 31.0262 142.407 30.8492 143.146 30.4925C143.884 30.1347 144.547 29.6504 145.133 29.0386L147.616 30.982C148.371 31.5741 148.397 32.5714 147.671 33.1987C147.671 33.1987 146.406 34.2921 144.904 34.8649C143.4 35.4389 141.783 35.7252 140.051 35.7252C138.727 35.7252 137.498 35.5403 136.366 35.1707C135.232 34.8022 134.245 34.2543 133.404 33.528C132.563 32.8028 131.902 31.9048 131.418 30.8347C130.935 29.7661 130.693 28.5438 130.693 27.1692C130.693 25.5382 130.979 24.0165 131.552 22.6029C132.125 21.1906 132.914 19.9603 133.921 18.9164C134.926 17.8737 136.13 17.0524 137.531 16.4524C138.931 15.8549 140.471 15.5555 142.153 15.5555C143.4 15.5555 144.54 15.7338 145.571 16.0905C146.603 16.4472 147.487 16.9613 148.227 17.637C148.965 18.3124 149.538 19.1469 149.946 20.1387C150.352 21.132 150.557 22.2788 150.557 23.5779C150.557 24.0362 150.513 24.6141 150.423 25.3143C150.334 26.0159 150.214 26.672 150.061 27.2825H138.169ZM143.349 23.539C144.31 23.539 145.112 23.4245 145.133 23.2838C145.133 23.2838 145.133 23.2838 145.133 23.1575C145.133 23.03 145.133 22.9024 145.133 22.7748C145.133 21.9352 144.833 21.2336 144.236 20.6752C143.636 20.1155 142.777 19.8329 141.656 19.8329C140.969 19.8329 140.352 19.954 139.804 20.1961C139.256 20.4394 138.778 20.7376 138.372 21.0942C137.965 21.4509 137.633 21.8467 137.379 22.2788C137.124 22.7122 136.945 23.1315 136.844 23.5388L143.349 23.539Z" fill="#FF7500"/>
</g>
<g id="Group_8">
<path id="Vector_6" d="M153.525 35.1526C152.564 35.1526 151.915 34.3795 152.081 33.4332L156.558 7.99169C156.723 7.04657 157.646 6.27197 158.605 6.27197H161.343C162.302 6.27197 162.949 7.04657 162.782 7.99169L158.271 33.4345C158.106 34.3796 157.183 35.1528 156.223 35.1528H153.525V35.1526Z" fill="#FF7500"/>
</g>
<g id="Group_9">
<path id="Vector_7" d="M163.876 35.1527C162.917 35.1527 162.267 34.3783 162.432 33.4333L165.156 17.8481C165.32 16.9017 166.24 16.1285 167.2 16.1285H169.861C170.82 16.1285 171.468 16.9018 171.298 17.8455L168.513 33.4346C168.343 34.3797 167.42 35.1529 166.461 35.1529H163.876V35.1527ZM172.905 9.75015C172.905 10.2591 172.813 10.729 172.636 11.1624C172.459 11.596 172.209 11.9839 171.893 12.3261C171.573 12.6711 171.198 12.9379 170.764 13.1292C170.331 13.3206 169.861 13.417 169.351 13.417C168.384 13.417 167.587 13.1293 166.964 12.5566C166.34 11.9839 166.028 11.2511 166.028 10.3607C166.028 9.31674 166.378 8.4433 167.079 7.74427C167.778 7.04265 168.637 6.69385 169.658 6.69385C170.599 6.69385 171.376 6.98547 171.988 7.57245C172.6 8.15699 172.905 8.88318 172.905 9.75015Z" fill="#FF7500"/>
</g>
<g id="Group_10">
<path id="Vector_8" d="M184.067 33.648C183.58 34.4759 182.394 35.1526 181.434 35.1526H178.278C177.318 35.1526 176.39 34.3808 176.215 33.4371L173.335 17.8441C173.162 16.9003 173.804 16.1284 174.763 16.1284H177.728C178.689 16.1284 179.573 16.9069 179.691 17.8598L180.824 26.8883C180.942 27.8412 181.066 28.6195 181.097 28.6195C181.13 28.6195 181.522 27.9257 181.971 27.0771L186.948 17.6711C187.396 16.8224 188.55 16.1286 189.509 16.1286H192.667C193.626 16.1286 194.011 16.8056 193.523 17.6308L184.067 33.648Z" fill="#FF7500"/>
</g>
<g id="Group_11">
<path id="Vector_9" d="M200.433 27.2825C199.473 27.2825 198.67 27.3802 198.651 27.4999C198.651 27.4999 198.651 27.4999 198.651 27.6261C198.651 28.1611 198.77 28.6402 199.012 29.0593C199.256 29.4796 199.572 29.8363 199.968 30.1294C200.362 30.4221 200.809 30.6448 201.305 30.7971C201.802 30.9508 202.317 31.0262 202.852 31.0262C203.82 31.0262 204.673 30.8492 205.41 30.4925C206.15 30.1347 206.811 29.6504 207.398 29.0386L209.881 30.982C210.636 31.5741 210.662 32.5714 209.935 33.1987C209.935 33.1987 208.671 34.2921 207.169 34.8649C205.665 35.4389 204.05 35.7252 202.317 35.7252C200.994 35.7252 199.763 35.5403 198.631 35.1707C197.497 34.8022 196.511 34.2543 195.67 33.528C194.83 32.8028 194.167 31.9048 193.684 30.8347C193.2 29.7661 192.958 28.5438 192.958 27.1692C192.958 25.5382 193.245 24.0165 193.817 22.6029C194.39 21.1906 195.18 19.9603 196.186 18.9164C197.193 17.8737 198.395 17.0524 199.796 16.4524C201.197 15.8549 202.738 15.5555 204.418 15.5555C205.665 15.5555 206.806 15.7338 207.836 16.0905C208.869 16.4472 209.752 16.9613 210.49 17.637C211.229 18.3124 211.804 19.1469 212.211 20.1387C212.619 21.132 212.822 22.2788 212.822 23.5779C212.822 24.0362 212.778 24.6141 212.688 25.3143C212.598 26.0159 212.478 26.672 212.325 27.2825H200.433ZM205.615 23.539C206.574 23.539 207.376 23.4245 207.398 23.2838C207.398 23.2838 207.398 23.2838 207.398 23.1575C207.398 23.03 207.398 22.9024 207.398 22.7748C207.398 21.9352 207.099 21.2336 206.501 20.6752C205.902 20.1155 205.043 19.8329 203.921 19.8329C203.234 19.8329 202.617 19.954 202.069 20.1961C201.522 20.4394 201.043 20.7376 200.636 21.0942C200.228 21.4509 199.898 21.8467 199.644 22.2788C199.389 22.7122 199.209 23.1315 199.109 23.5388L205.615 23.539Z" fill="#FF7500"/>
</g>
<g id="Group_12">
<path id="Vector_10" d="M222.003 18.9165C222.046 18.9165 222.558 18.293 223.14 17.5302C223.14 17.5302 223.423 17.1593 224.277 16.5487C225.13 15.9369 226.154 15.631 227.352 15.631C227.582 15.631 227.816 15.6441 228.06 15.6701C228.301 15.6961 228.499 15.7339 228.651 15.7835L227.971 19.4933C227.8 20.4369 227.412 21.1516 227.11 21.0814C227.11 21.0814 227.11 21.0814 226.856 21.0552C226.601 21.0305 226.359 21.0175 226.13 21.0175C225.238 21.0175 224.488 21.1699 223.876 21.4757C223.266 21.7816 222.762 22.1578 222.368 22.603C221.972 23.0495 221.679 23.5271 221.489 24.0363C221.298 24.5465 221.164 24.9917 221.088 25.373L219.671 33.433C219.504 34.3793 218.584 35.1524 217.623 35.1524H215C214.041 35.1524 213.395 34.3793 213.564 33.4342L215.66 21.7801C215.831 20.8365 216.064 19.5634 216.178 18.9541C216.178 18.9541 216.178 18.9541 216.294 18.1913C216.407 17.4273 216.491 16.7399 216.541 16.1281H220.604C221.565 16.1281 222.342 16.2687 222.335 16.4393C222.335 16.4393 222.335 16.4393 222.31 16.6828C222.284 16.9248 222.252 17.1787 222.214 17.4454C222.175 17.7122 222.139 17.9804 222.1 18.2473C222.063 18.5157 222.029 18.7395 222.003 18.9165Z" fill="#FF7500"/>
</g>
<g id="Group_13">
<path id="Vector_11" d="M240.197 36.4998C239.722 37.3356 238.934 38.6933 238.445 39.5198C238.445 39.5198 238.219 39.9012 237.671 40.6913C237.125 41.4801 236.525 42.144 235.876 42.6777C235.225 43.2113 234.482 43.6189 233.643 43.8999C232.802 44.1799 231.82 44.3202 230.701 44.3202C229.504 44.3202 228.46 44.1797 227.568 43.8999L228.171 40.5741C228.345 39.6304 229.006 39.012 229.642 39.2007C229.642 39.2007 229.642 39.2007 230.279 39.2007C231.172 39.2007 231.866 38.9781 232.363 38.5317C232.859 38.0865 233.337 37.4564 233.795 36.6416L233.83 36.5817C234.314 35.7525 234.533 34.3115 234.317 33.3756L230.712 17.8281C230.495 16.8909 231.103 16.1281 232.064 16.1281H235.258C236.219 16.1281 237.122 16.904 237.267 17.8529L238.649 26.8567C238.795 27.8056 238.931 28.5815 238.952 28.5815C238.972 28.5815 239.344 27.8811 239.778 27.0248L244.505 17.6851C244.937 16.8286 246.076 16.1283 247.038 16.1283H250.043C251.002 16.1283 251.398 16.8105 250.925 17.6447L240.197 36.4998Z" fill="#FF7500"/>
</g>
<g id="Group_14">
<path id="Vector_12" d="M248.638 31.4806C250.053 31.4806 251.213 32.6613 251.213 34.0749C251.213 35.5002 250.053 36.6626 248.638 36.6626C247.21 36.6626 246.038 35.5001 246.038 34.0749C246.038 32.6613 247.21 31.4806 248.638 31.4806ZM248.65 36.2448C249.828 36.2448 250.785 35.2725 250.785 34.0749C250.785 32.8694 249.828 31.9075 248.65 31.9075C247.436 31.9075 246.474 32.8694 246.474 34.0749C246.474 35.2725 247.436 36.2448 248.65 36.2448ZM249.839 33.6064C249.839 34.045 249.612 34.3276 249.236 34.4199L249.746 35.2727C249.797 35.356 249.797 35.4224 249.652 35.4224H249.468C249.344 35.4224 249.334 35.3923 249.293 35.326L248.8 34.459H247.988V35.326C247.988 35.3923 247.972 35.4224 247.879 35.4224H247.693C247.61 35.4224 247.585 35.3923 247.585 35.326V32.8605C247.585 32.7538 247.61 32.7278 247.73 32.7278H248.908C249.478 32.7276 249.839 33.0453 249.839 33.6064ZM248.891 34.1009C249.225 34.1009 249.426 33.9265 249.426 33.6064C249.426 33.2991 249.225 33.1129 248.891 33.1129H247.988V34.1009H248.891Z" fill="#FF7500"/>
</g>
</g>
<path id="Vector_13" d="M16.314 0.883528C7.25877 0.925763 -0.0454698 7.80492 0.000213123 16.2453C0.0767823 30.4805 13.8829 43.3902 13.8829 43.3902C15.3609 44.7719 17.7186 44.7184 19.1228 43.2714C19.1228 43.2714 32.8656 29.1035 32.7948 16.0913C32.7497 7.65063 25.3703 0.841149 16.314 0.883528ZM15.2714 26.1026C15.2714 26.5161 14.8236 26.7744 14.4658 26.5674L8.455 23.0907C7.90422 22.7721 7.56505 22.1841 7.56505 21.5479V15.3594C7.56505 14.9899 7.96714 14.7608 8.28506 14.9491L14.516 18.6421C14.9844 18.9197 15.2715 19.4237 15.2715 19.9681L15.2714 26.1026ZM15.8279 16.5141L9.14341 12.587C8.75611 12.3594 8.75884 11.7984 9.14843 11.5748L15.8558 7.72361C16.2477 7.49864 16.7298 7.49965 17.1207 7.72663L23.7532 11.5762C24.1396 11.8005 24.1423 12.3576 23.7582 12.5857L17.1484 16.5112C16.7417 16.7526 16.2358 16.7537 15.8279 16.5141ZM25.2303 21.5477C25.2303 22.184 24.8911 22.7721 24.3403 23.0906L18.3294 26.5672C17.9716 26.7742 17.5238 26.5159 17.5238 26.1025V19.9679C17.5238 19.4235 17.8109 18.9195 18.2793 18.642L24.5101 14.949C24.828 14.7606 25.2301 14.9896 25.2301 15.3593V21.5477H25.2303Z" fill="#FF7500"/>
</g>
</svg>
