<svg width="252" height="45" viewBox="0 0 252 45" fill="none" xmlns="http://www.w3.org/2000/svg">
<g id="Group">
<g id="Group_2">
<g id="Group_3">
<path id="Vector" d="M47.1193 29.9772C47.8299 29.3316 48.5719 29.4409 49.5379 30.0579C49.5379 30.0579 49.5379 30.0579 50.3396 30.4263C51.1415 30.796 51.9628 30.9796 52.8038 30.9796C53.6186 30.9796 54.2734 30.8286 54.7706 30.5214C55.2679 30.2168 55.5165 29.7963 55.5165 29.2613C55.5165 28.7511 55.2862 28.358 54.8279 28.0767C54.3698 27.7969 53.6942 27.5171 52.8038 27.2359C51.9121 26.9821 51.1285 26.6956 50.4543 26.3768C49.7787 26.0592 49.2124 25.6883 48.7542 25.269C48.296 24.8486 47.9523 24.3644 47.7232 23.8176C47.4929 23.2683 47.3796 22.6267 47.3796 21.8886C47.3796 20.8433 47.6139 19.9152 48.0864 19.099C48.5563 18.2842 49.1812 17.5904 49.9582 17.0176C50.734 16.4461 51.6452 16.0127 52.6891 15.7185C53.7331 15.4269 54.8279 15.2799 55.9747 15.2799C57.4508 15.2799 58.8332 15.5272 60.1192 16.0232C61.4054 16.5204 62.4311 17.252 63.1939 18.2204L60.6712 20.3435C59.9369 20.9631 59.2757 20.9904 58.4881 20.5388C58.4881 20.5388 58.4881 20.5388 57.8645 20.2068C57.2411 19.8762 56.4952 19.7109 55.6297 19.7109C54.9671 19.7109 54.363 19.8397 53.8163 20.0923C53.2684 20.3474 52.9936 20.7795 52.9936 21.3927C52.9936 21.8248 53.198 22.162 53.6054 22.4055C54.0128 22.6475 54.6376 22.8818 55.4772 23.111C57.2606 23.5939 58.6677 24.2629 59.6986 25.1167C60.7295 25.9707 61.2462 27.2111 61.2462 28.8409C61.2462 29.9864 60.9977 30.9861 60.5005 31.8387C60.0044 32.6926 59.355 33.3929 58.5519 33.941C57.75 34.4876 56.8336 34.8951 55.8015 35.1632C54.7704 35.4298 53.72 35.5629 52.6514 35.5629C50.8929 35.5629 49.3281 35.2699 47.9522 34.6842C46.5764 34.0984 45.4569 33.2978 44.5899 32.2787L47.1193 29.9772Z" fill="#FF7500"/>
</g>
<g id="Group_4">
<path id="Vector_2" d="M73.0112 35.4117C71.6354 35.4117 70.3557 35.2204 69.1725 34.8377C67.9881 34.4563 66.9688 33.903 66.1162 33.1767C65.2622 32.4504 64.588 31.5718 64.0921 30.5409C63.5949 29.5087 63.3475 28.3435 63.3475 27.0457C63.3475 25.4668 63.6144 23.9633 64.1494 22.5368C64.6844 21.1114 65.4537 19.863 66.4599 18.7931C67.4647 17.7242 68.6818 16.8705 70.1085 16.2339C71.5338 15.5974 73.1505 15.2798 74.9585 15.2798C76.3604 15.2798 77.6595 15.4697 78.8559 15.8524C80.0534 16.2339 81.0843 16.787 81.95 17.5134C82.8156 18.2398 83.4976 19.1183 83.9936 20.1508C84.4908 21.1816 84.7382 22.3453 84.7382 23.6443C84.7382 25.2494 84.4713 26.7657 83.9363 28.1912C83.4013 29.6166 82.6241 30.8648 81.6063 31.9349C80.5871 33.0036 79.3582 33.851 77.9198 34.4745C76.4802 35.098 74.8454 35.4117 73.0112 35.4117ZM78.7036 24.2941C78.7036 23.1486 78.3521 22.1931 77.6519 21.4303C76.9527 20.6663 75.9648 20.2848 74.693 20.2848C73.8769 20.2848 73.1375 20.4488 72.4762 20.7794C71.8138 21.1114 71.254 21.5564 70.7957 22.1163C70.3363 22.6785 69.9809 23.3269 69.7258 24.0663C69.4706 24.8044 69.3442 25.5814 69.3442 26.3962C69.3442 27.5418 69.6878 28.4906 70.3752 29.2418C71.0625 29.9928 72.0427 30.3691 73.317 30.3691C74.1319 30.3691 74.8687 30.2102 75.5325 29.8914C76.1951 29.5725 76.7614 29.1338 77.2326 28.5728C77.7025 28.0131 78.0656 27.3635 78.3208 26.6255C78.576 25.8873 78.7036 25.1102 78.7036 24.2941Z" fill="#FF7500"/>
</g>
<g id="Group_5">
<path id="Vector_3" d="M96.6423 36.224C96.1672 37.0597 95.3784 38.4175 94.8902 39.2439C94.8902 39.2439 94.6637 39.6253 94.1169 40.4154C93.569 41.2043 92.9714 41.8681 92.3219 42.4018C91.671 42.9355 90.9264 43.343 90.0871 43.624C89.2474 43.904 88.2646 44.0444 87.1451 44.0444C85.9476 44.0444 84.9049 43.9039 84.0132 43.624L84.6172 40.2982C84.789 39.3545 85.4502 38.7361 86.0882 38.9248C86.0882 38.9248 86.0882 38.9248 86.7261 38.9248C87.6163 38.9248 88.3102 38.7022 88.8075 38.2558C89.3036 37.8106 89.7812 37.1806 90.2393 36.3657L90.2745 36.3058C90.7599 35.4766 90.9787 34.0356 90.7627 33.0997L87.1569 17.5523C86.9408 16.6151 87.5488 15.8522 88.5081 15.8522H91.7038C92.6633 15.8522 93.5666 16.6281 93.7137 17.577L95.0934 26.5808C95.2392 27.5297 95.3758 28.3056 95.3968 28.3056C95.4176 28.3056 95.7898 27.6053 96.2234 26.7489L100.95 17.4092C101.385 16.5527 102.523 15.8524 103.483 15.8524H106.487C107.448 15.8524 107.843 16.5346 107.37 17.3688L96.6423 36.224Z" fill="#FF7500"/>
</g>
<g id="Group_6">
<path id="Vector_4" d="M124.899 7.71681C125.061 6.77169 125.977 5.99594 126.938 5.99594H129.559C130.52 5.99594 131.167 6.77054 131 7.71566L126.49 33.1585C126.323 34.1036 125.401 34.8767 124.441 34.8767H122.316C121.356 34.8767 120.673 34.2923 120.799 33.5776C120.925 32.8631 121.003 32.2786 120.971 32.2786C120.941 32.2786 120.388 32.8617 119.745 33.5738C119.745 33.5738 119.361 33.998 118.24 34.5318C117.119 35.0668 115.858 35.3337 114.457 35.3337C113.236 35.3337 112.134 35.1306 111.153 34.7232C110.173 34.317 109.347 33.7507 108.671 33.0244C107.996 32.2968 107.48 31.4389 107.123 30.4443C106.767 29.4525 106.588 28.3577 106.588 27.1601C106.588 25.5304 106.85 24.0035 107.372 22.5742C107.894 21.1503 108.619 19.9018 109.55 18.8318C110.478 17.7619 111.587 16.9157 112.873 16.2908C114.159 15.6688 115.566 15.355 117.094 15.355C118.495 15.355 119.703 15.6233 120.722 16.1581C121.741 16.6932 122.506 17.4066 123.014 18.2981C123.057 18.2981 123.224 17.5224 123.385 16.5773L124.899 7.71681ZM112.662 26.3572C112.662 27.5027 112.994 28.4581 113.657 29.2221C114.318 29.9862 115.299 30.3689 116.597 30.3689C117.363 30.3689 118.075 30.21 118.736 29.8913C119.399 29.5723 119.973 29.1336 120.456 28.5726C120.94 28.0129 121.316 27.3633 121.584 26.6254C121.851 25.8873 121.984 25.1102 121.984 24.2941C121.984 23.1237 121.627 22.1618 120.914 21.4108C120.2 20.6596 119.233 20.2846 118.011 20.2846C117.196 20.2846 116.457 20.4435 115.795 20.7611C115.133 21.0799 114.573 21.5122 114.114 22.0602C113.657 22.6081 113.299 23.2512 113.045 23.9893C112.79 24.7274 112.662 25.5162 112.662 26.3572Z" fill="#FF7500"/>
</g>
<g id="Group_7">
<path id="Vector_5" d="M138.169 27.0066C137.208 27.0066 136.405 27.1043 136.385 27.224C136.385 27.224 136.385 27.224 136.385 27.3503C136.385 27.8852 136.505 28.3643 136.749 28.7834C136.989 29.2037 137.307 29.5604 137.703 29.8535C138.097 30.1463 138.544 30.3689 139.039 30.5212C139.537 30.6749 140.051 30.7503 140.587 30.7503C141.554 30.7503 142.407 30.5733 143.146 30.2166C143.884 29.8588 144.547 29.3745 145.133 28.7627L147.616 30.7061C148.371 31.2982 148.397 32.2955 147.671 32.9229C147.671 32.9229 146.406 34.0162 144.904 34.589C143.4 35.163 141.783 35.4494 140.051 35.4494C138.727 35.4494 137.498 35.2645 136.366 34.8948C135.232 34.5264 134.245 33.9784 133.404 33.2521C132.563 32.5269 131.902 31.6289 131.418 30.5588C130.935 29.4902 130.693 28.2679 130.693 26.8933C130.693 25.2623 130.979 23.7406 131.552 22.327C132.125 20.9147 132.914 19.6844 133.921 18.6405C134.926 17.5978 136.13 16.7765 137.531 16.1765C138.931 15.579 140.471 15.2796 142.153 15.2796C143.4 15.2796 144.54 15.4579 145.571 15.8146C146.603 16.1713 147.487 16.6855 148.227 17.3611C148.965 18.0365 149.538 18.871 149.946 19.8629C150.352 20.8561 150.557 22.0029 150.557 23.302C150.557 23.7603 150.513 24.3382 150.423 25.0384C150.334 25.74 150.214 26.3961 150.061 27.0066H138.169ZM143.349 23.2631C144.31 23.2631 145.112 23.1486 145.133 23.0079C145.133 23.0079 145.133 23.0079 145.133 22.8817C145.133 22.7541 145.133 22.6265 145.133 22.499C145.133 21.6593 144.833 20.9577 144.236 20.3993C143.636 19.8396 142.777 19.557 141.656 19.557C140.969 19.557 140.352 19.6781 139.804 19.9202C139.256 20.1635 138.778 20.4618 138.372 20.8183C137.965 21.175 137.633 21.5708 137.379 22.0029C137.124 22.4363 136.945 22.8557 136.844 23.2629L143.349 23.2631Z" fill="#FF7500"/>
</g>
<g id="Group_8">
<path id="Vector_6" d="M153.525 34.8767C152.564 34.8767 151.915 34.1036 152.081 33.1573L156.558 7.71581C156.723 6.77069 157.646 5.99609 158.605 5.99609H161.343C162.302 5.99609 162.949 6.77069 162.782 7.71581L158.271 33.1586C158.106 34.1037 157.183 34.8769 156.223 34.8769H153.525V34.8767Z" fill="#FF7500"/>
</g>
<g id="Group_9">
<path id="Vector_7" d="M163.876 34.8768C162.917 34.8768 162.267 34.1024 162.432 33.1574L165.156 17.5722C165.32 16.6258 166.24 15.8526 167.2 15.8526H169.861C170.82 15.8526 171.468 16.6259 171.298 17.5696L168.513 33.1587C168.343 34.1038 167.42 34.877 166.461 34.877H163.876V34.8768ZM172.905 9.47426C172.905 9.98323 172.813 10.4531 172.636 10.8865C172.459 11.3201 172.209 11.708 171.893 12.0502C171.573 12.3952 171.198 12.662 170.764 12.8534C170.331 13.0447 169.861 13.1411 169.351 13.1411C168.384 13.1411 167.587 12.8534 166.964 12.2807C166.34 11.708 166.028 10.9752 166.028 10.0848C166.028 9.04084 166.378 8.16741 167.079 7.46837C167.778 6.76675 168.637 6.41795 169.658 6.41795C170.599 6.41795 171.376 6.70958 171.988 7.29656C172.6 7.8811 172.905 8.60729 172.905 9.47426Z" fill="#FF7500"/>
</g>
<g id="Group_10">
<path id="Vector_8" d="M184.067 33.3721C183.58 34.2 182.394 34.8767 181.434 34.8767H178.278C177.318 34.8767 176.39 34.1049 176.215 33.1612L173.335 17.5682C173.162 16.6244 173.804 15.8525 174.763 15.8525H177.728C178.689 15.8525 179.573 16.631 179.691 17.5839L180.824 26.6124C180.942 27.5653 181.066 28.3437 181.097 28.3437C181.13 28.3437 181.522 27.6498 181.971 26.8012L186.948 17.3953C187.396 16.5465 188.55 15.8527 189.509 15.8527H192.667C193.626 15.8527 194.011 16.5297 193.523 17.3549L184.067 33.3721Z" fill="#FF7500"/>
</g>
<g id="Group_11">
<path id="Vector_9" d="M200.433 27.0066C199.473 27.0066 198.67 27.1043 198.651 27.224C198.651 27.224 198.651 27.224 198.651 27.3503C198.651 27.8852 198.77 28.3643 199.012 28.7834C199.256 29.2037 199.572 29.5604 199.968 29.8535C200.362 30.1463 200.809 30.3689 201.305 30.5212C201.802 30.6749 202.317 30.7503 202.852 30.7503C203.82 30.7503 204.673 30.5733 205.41 30.2166C206.15 29.8588 206.811 29.3745 207.398 28.7627L209.881 30.7061C210.636 31.2982 210.662 32.2955 209.935 32.9229C209.935 32.9229 208.671 34.0162 207.169 34.589C205.665 35.163 204.05 35.4494 202.317 35.4494C200.994 35.4494 199.763 35.2645 198.631 34.8948C197.497 34.5264 196.511 33.9784 195.67 33.2521C194.83 32.5269 194.167 31.6289 193.684 30.5588C193.2 29.4902 192.958 28.2679 192.958 26.8933C192.958 25.2623 193.245 23.7406 193.817 22.327C194.39 20.9147 195.18 19.6844 196.186 18.6405C197.193 17.5978 198.395 16.7765 199.796 16.1765C201.197 15.579 202.738 15.2796 204.418 15.2796C205.665 15.2796 206.806 15.4579 207.836 15.8146C208.869 16.1713 209.752 16.6855 210.49 17.3611C211.229 18.0365 211.804 18.871 212.211 19.8629C212.619 20.8561 212.822 22.0029 212.822 23.302C212.822 23.7603 212.778 24.3382 212.688 25.0384C212.598 25.74 212.478 26.3961 212.325 27.0066H200.433ZM205.615 23.2631C206.574 23.2631 207.376 23.1486 207.398 23.0079C207.398 23.0079 207.398 23.0079 207.398 22.8817C207.398 22.7541 207.398 22.6265 207.398 22.499C207.398 21.6593 207.099 20.9577 206.501 20.3993C205.902 19.8396 205.043 19.557 203.921 19.557C203.234 19.557 202.617 19.6781 202.069 19.9202C201.522 20.1635 201.043 20.4618 200.636 20.8183C200.228 21.175 199.898 21.5708 199.644 22.0029C199.389 22.4363 199.209 22.8557 199.109 23.2629L205.615 23.2631Z" fill="#FF7500"/>
</g>
<g id="Group_12">
<path id="Vector_10" d="M222.003 18.6406C222.046 18.6406 222.558 18.0171 223.14 17.2543C223.14 17.2543 223.423 16.8834 224.277 16.2728C225.13 15.661 226.154 15.3551 227.352 15.3551C227.582 15.3551 227.816 15.3682 228.06 15.3942C228.301 15.4202 228.499 15.458 228.651 15.5076L227.971 19.2174C227.8 20.1611 227.412 20.8757 227.11 20.8055C227.11 20.8055 227.11 20.8055 226.856 20.7794C226.601 20.7546 226.359 20.7416 226.13 20.7416C225.238 20.7416 224.488 20.894 223.876 21.1998C223.266 21.5057 222.762 21.8819 222.368 22.3271C221.972 22.7736 221.679 23.2513 221.489 23.7604C221.298 24.2706 221.164 24.7158 221.088 25.0971L219.671 33.1571C219.504 34.1034 218.584 34.8766 217.623 34.8766H215C214.041 34.8766 213.395 34.1034 213.564 33.1583L215.66 21.5042C215.831 20.5606 216.064 19.2875 216.178 18.6782C216.178 18.6782 216.178 18.6782 216.294 17.9154C216.407 17.1514 216.491 16.464 216.541 15.8522H220.604C221.565 15.8522 222.342 15.9928 222.335 16.1634C222.335 16.1634 222.335 16.1634 222.31 16.4069C222.284 16.6489 222.252 16.9028 222.214 17.1695C222.175 17.4363 222.139 17.7045 222.1 17.9714C222.063 18.2398 222.029 18.4636 222.003 18.6406Z" fill="#FF7500"/>
</g>
<g id="Group_13">
<path id="Vector_11" d="M240.197 36.224C239.722 37.0597 238.934 38.4175 238.445 39.2439C238.445 39.2439 238.219 39.6253 237.671 40.4154C237.125 41.2043 236.525 41.8681 235.876 42.4018C235.225 42.9355 234.482 43.343 233.643 43.624C232.802 43.904 231.82 44.0444 230.701 44.0444C229.504 44.0444 228.46 43.9039 227.568 43.624L228.171 40.2982C228.345 39.3545 229.006 38.7361 229.642 38.9248C229.642 38.9248 229.642 38.9248 230.279 38.9248C231.172 38.9248 231.866 38.7022 232.363 38.2558C232.859 37.8106 233.337 37.1806 233.795 36.3657L233.83 36.3058C234.314 35.4766 234.533 34.0356 234.317 33.0997L230.712 17.5523C230.495 16.6151 231.103 15.8522 232.064 15.8522H235.258C236.219 15.8522 237.122 16.6281 237.267 17.577L238.649 26.5808C238.795 27.5297 238.931 28.3056 238.952 28.3056C238.972 28.3056 239.344 27.6053 239.778 26.7489L244.505 17.4092C244.937 16.5527 246.076 15.8524 247.038 15.8524H250.043C251.002 15.8524 251.398 16.5346 250.925 17.3688L240.197 36.224Z" fill="#FF7500"/>
</g>
<g id="Group_14">
<path id="Vector_12" d="M248.638 31.2047C250.053 31.2047 251.213 32.3854 251.213 33.799C251.213 35.2243 250.053 36.3867 248.638 36.3867C247.21 36.3867 246.038 35.2242 246.038 33.799C246.038 32.3854 247.21 31.2047 248.638 31.2047ZM248.65 35.9689C249.828 35.9689 250.785 34.9967 250.785 33.799C250.785 32.5936 249.828 31.6316 248.65 31.6316C247.436 31.6316 246.474 32.5936 246.474 33.799C246.474 34.9967 247.436 35.9689 248.65 35.9689ZM249.839 33.3305C249.839 33.7691 249.612 34.0517 249.236 34.144L249.746 34.9968C249.797 35.0801 249.797 35.1465 249.652 35.1465H249.468C249.344 35.1465 249.334 35.1165 249.293 35.0501L248.8 34.1831H247.988V35.0501C247.988 35.1165 247.972 35.1465 247.879 35.1465H247.693C247.61 35.1465 247.585 35.1165 247.585 35.0501V32.5847C247.585 32.4779 247.61 32.4519 247.73 32.4519H248.908C249.478 32.4518 249.839 32.7694 249.839 33.3305ZM248.891 33.825C249.225 33.825 249.426 33.6506 249.426 33.3305C249.426 33.0232 249.225 32.8371 248.891 32.8371H247.988V33.825H248.891Z" fill="#FF7500"/>
</g>
</g>
<path id="Vector_13" d="M16.314 0.607649C7.25877 0.649884 -0.0454698 7.52904 0.000213123 15.9695C0.0767823 30.2046 13.8829 43.1143 13.8829 43.1143C15.3609 44.496 17.7186 44.4426 19.1228 42.9955C19.1228 42.9955 32.8656 28.8276 32.7948 15.8155C32.7497 7.37475 25.3703 0.56527 16.314 0.607649ZM15.2714 25.8268C15.2714 26.2402 14.8236 26.4985 14.4658 26.2915L8.455 22.8149C7.90422 22.4962 7.56505 21.9082 7.56505 21.272V15.0835C7.56505 14.714 7.96714 14.4849 8.28506 14.6732L14.516 18.3662C14.9844 18.6438 15.2715 19.1479 15.2715 19.6922L15.2714 25.8268ZM15.8279 16.2382L9.14341 12.3111C8.75611 12.0835 8.75884 11.5226 9.14843 11.2989L15.8558 7.44773C16.2477 7.22276 16.7298 7.22377 17.1207 7.45075L23.7532 11.3003C24.1396 11.5246 24.1423 12.0817 23.7582 12.3098L17.1484 16.2354C16.7417 16.4767 16.2358 16.4779 15.8279 16.2382ZM25.2303 21.2718C25.2303 21.9081 24.8911 22.4962 24.3403 22.8147L18.3294 26.2914C17.9716 26.4984 17.5238 26.2401 17.5238 25.8266V19.692C17.5238 19.1476 17.8109 18.6436 18.2793 18.3661L24.5101 14.6731C24.828 14.4848 25.2301 14.7138 25.2301 15.0834V21.2718H25.2303Z" fill="#FF7500"/>
</g>
</svg>
