<svg width="252" height="44" viewBox="0 0 252 44" fill="none" xmlns="http://www.w3.org/2000/svg">
<g id="Group">
<g id="Group_2">
<g id="Group_3">
<path id="Vector" d="M47.1193 29.4025C47.8299 28.7569 48.5719 28.8662 49.5379 29.4832C49.5379 29.4832 49.5379 29.4832 50.3396 29.8516C51.1415 30.2213 51.9628 30.4049 52.8038 30.4049C53.6186 30.4049 54.2734 30.2539 54.7706 29.9467C55.2679 29.6421 55.5165 29.2216 55.5165 28.6866C55.5165 28.1764 55.2862 27.7833 54.8279 27.502C54.3698 27.2222 53.6942 26.9424 52.8038 26.6612C51.9121 26.4074 51.1285 26.1209 50.4543 25.8021C49.7787 25.4845 49.2124 25.1136 48.7542 24.6943C48.296 24.2739 47.9523 23.7897 47.7232 23.2429C47.4929 22.6936 47.3796 22.052 47.3796 21.3139C47.3796 20.2686 47.6139 19.3405 48.0864 18.5243C48.5563 17.7095 49.1812 17.0157 49.9582 16.4429C50.734 15.8714 51.6452 15.438 52.6891 15.1438C53.7331 14.8522 54.8279 14.7052 55.9747 14.7052C57.4508 14.7052 58.8332 14.9525 60.1192 15.4485C61.4054 15.9457 62.4311 16.6773 63.1939 17.6457L60.6712 19.7688C59.9369 20.3884 59.2757 20.4157 58.4881 19.9641C58.4881 19.9641 58.4881 19.9641 57.8645 19.6321C57.2411 19.3015 56.4952 19.1362 55.6297 19.1362C54.9671 19.1362 54.363 19.265 53.8163 19.5176C53.2684 19.7727 52.9936 20.2048 52.9936 20.818C52.9936 21.2501 53.198 21.5873 53.6054 21.8308C54.0128 22.0728 54.6376 22.3071 55.4772 22.5363C57.2606 23.0192 58.6677 23.6882 59.6986 24.542C60.7295 25.396 61.2462 26.6364 61.2462 28.2662C61.2462 29.4117 60.9977 30.4114 60.5005 31.264C60.0044 32.1179 59.355 32.8182 58.5519 33.3663C57.75 33.9129 56.8336 34.3204 55.8015 34.5885C54.7704 34.8551 53.72 34.9882 52.6514 34.9882C50.8929 34.9882 49.3281 34.6952 47.9522 34.1095C46.5764 33.5237 45.4569 32.7231 44.5899 31.704L47.1193 29.4025Z" fill="#FF7500"/>
</g>
<g id="Group_4">
<path id="Vector_2" d="M73.0112 34.837C71.6354 34.837 70.3557 34.6457 69.1725 34.263C67.9881 33.8816 66.9688 33.3283 66.1162 32.602C65.2622 31.8757 64.588 30.9971 64.0921 29.9662C63.5949 28.934 63.3475 27.7688 63.3475 26.471C63.3475 24.8921 63.6144 23.3886 64.1494 21.962C64.6844 20.5367 65.4537 19.2883 66.4599 18.2183C67.4647 17.1495 68.6818 16.2958 70.1085 15.6592C71.5338 15.0227 73.1505 14.7051 74.9585 14.7051C76.3604 14.7051 77.6595 14.895 78.8559 15.2777C80.0534 15.6592 81.0843 16.2123 81.95 16.9387C82.8156 17.6651 83.4976 18.5436 83.9936 19.5761C84.4908 20.6069 84.7382 21.7706 84.7382 23.0696C84.7382 24.6747 84.4713 26.191 83.9363 27.6165C83.4013 29.0419 82.6241 30.2901 81.6063 31.3602C80.5871 32.4289 79.3582 33.2763 77.9198 33.8998C76.4802 34.5233 74.8454 34.837 73.0112 34.837ZM78.7036 23.7194C78.7036 22.5739 78.3521 21.6184 77.6519 20.8556C76.9527 20.0916 75.9648 19.7101 74.693 19.7101C73.8769 19.7101 73.1375 19.8741 72.4762 20.2047C71.8138 20.5367 71.254 20.9817 70.7957 21.5416C70.3363 22.1038 69.9809 22.7522 69.7258 23.4916C69.4706 24.2297 69.3442 25.0067 69.3442 25.8215C69.3442 26.9671 69.6878 27.9159 70.3752 28.6671C71.0625 29.4181 72.0427 29.7944 73.317 29.7944C74.1319 29.7944 74.8687 29.6355 75.5325 29.3167C76.1951 28.9978 76.7614 28.5591 77.2326 27.9981C77.7025 27.4384 78.0656 26.7888 78.3208 26.0508C78.576 25.3126 78.7036 24.5355 78.7036 23.7194Z" fill="#FF7500"/>
</g>
<g id="Group_5">
<path id="Vector_3" d="M96.6423 35.6493C96.1672 36.485 95.3784 37.8427 94.8902 38.6692C94.8902 38.6692 94.6637 39.0506 94.1169 39.8407C93.569 40.6296 92.9714 41.2934 92.3219 41.8271C91.671 42.3608 90.9264 42.7683 90.0871 43.0493C89.2474 43.3293 88.2646 43.4696 87.1451 43.4696C85.9476 43.4696 84.9049 43.3292 84.0132 43.0493L84.6172 39.7235C84.789 38.7798 85.4502 38.1614 86.0882 38.3501C86.0882 38.3501 86.0882 38.3501 86.7261 38.3501C87.6163 38.3501 88.3102 38.1275 88.8075 37.6811C89.3036 37.2359 89.7812 36.6059 90.2393 35.791L90.2745 35.7311C90.7599 34.9019 90.9787 33.4609 90.7627 32.525L87.1569 16.9776C86.9408 16.0404 87.5488 15.2775 88.5081 15.2775H91.7038C92.6633 15.2775 93.5666 16.0534 93.7137 17.0023L95.0934 26.0061C95.2392 26.955 95.3758 27.7309 95.3968 27.7309C95.4176 27.7309 95.7898 27.0305 96.2234 26.1742L100.95 16.8345C101.385 15.978 102.523 15.2777 103.483 15.2777H106.487C107.448 15.2777 107.843 15.9599 107.37 16.7941L96.6423 35.6493Z" fill="#FF7500"/>
</g>
<g id="Group_6">
<path id="Vector_4" d="M124.899 7.14211C125.061 6.19699 125.977 5.42124 126.938 5.42124H129.559C130.52 5.42124 131.167 6.19584 131 7.14096L126.49 32.5838C126.323 33.5289 125.401 34.302 124.441 34.302H122.316C121.356 34.302 120.673 33.7176 120.799 33.0029C120.925 32.2884 121.003 31.7039 120.971 31.7039C120.941 31.7039 120.388 32.287 119.745 32.9991C119.745 32.9991 119.361 33.4233 118.24 33.9571C117.119 34.4921 115.858 34.759 114.457 34.759C113.236 34.759 112.134 34.5559 111.153 34.1485C110.173 33.7423 109.347 33.176 108.671 32.4497C107.996 31.7221 107.48 30.8642 107.123 29.8696C106.767 28.8778 106.588 27.783 106.588 26.5854C106.588 24.9557 106.85 23.4288 107.372 21.9995C107.894 20.5756 108.619 19.3271 109.55 18.2571C110.478 17.1872 111.587 16.341 112.873 15.7161C114.159 15.0941 115.566 14.7803 117.094 14.7803C118.495 14.7803 119.703 15.0486 120.722 15.5834C121.741 16.1185 122.506 16.8319 123.014 17.7234C123.057 17.7234 123.224 16.9477 123.385 16.0026L124.899 7.14211ZM112.662 25.7825C112.662 26.928 112.994 27.8834 113.657 28.6474C114.318 29.4115 115.299 29.7942 116.597 29.7942C117.363 29.7942 118.075 29.6353 118.736 29.3166C119.399 28.9976 119.973 28.5589 120.456 27.9979C120.94 27.4382 121.316 26.7886 121.584 26.0507C121.851 25.3126 121.984 24.5355 121.984 23.7194C121.984 22.549 121.627 21.5871 120.914 20.8361C120.2 20.0849 119.233 19.7099 118.011 19.7099C117.196 19.7099 116.457 19.8688 115.795 20.1864C115.133 20.5052 114.573 20.9375 114.114 21.4855C113.657 22.0334 113.299 22.6765 113.045 23.4146C112.79 24.1527 112.662 24.9415 112.662 25.7825Z" fill="#FF7500"/>
</g>
<g id="Group_7">
<path id="Vector_5" d="M138.169 26.4319C137.208 26.4319 136.405 26.5296 136.385 26.6493C136.385 26.6493 136.385 26.6493 136.385 26.7756C136.385 27.3105 136.505 27.7896 136.749 28.2087C136.989 28.629 137.307 28.9857 137.703 29.2788C138.097 29.5716 138.544 29.7942 139.039 29.9465C139.537 30.1002 140.051 30.1756 140.587 30.1756C141.554 30.1756 142.407 29.9986 143.146 29.6419C143.884 29.2841 144.547 28.7998 145.133 28.188L147.616 30.1314C148.371 30.7235 148.397 31.7208 147.671 32.3482C147.671 32.3482 146.406 33.4415 144.904 34.0143C143.4 34.5883 141.783 34.8747 140.051 34.8747C138.727 34.8747 137.498 34.6898 136.366 34.3201C135.232 33.9517 134.245 33.4037 133.404 32.6774C132.563 31.9522 131.902 31.0542 131.418 29.9841C130.935 28.9155 130.693 27.6932 130.693 26.3186C130.693 24.6876 130.979 23.1659 131.552 21.7523C132.125 20.34 132.914 19.1097 133.921 18.0658C134.926 17.0231 136.13 16.2018 137.531 15.6018C138.931 15.0043 140.471 14.7049 142.153 14.7049C143.4 14.7049 144.54 14.8832 145.571 15.2399C146.603 15.5966 147.487 16.1108 148.227 16.7864C148.965 17.4618 149.538 18.2963 149.946 19.2882C150.352 20.2814 150.557 21.4282 150.557 22.7273C150.557 23.1856 150.513 23.7635 150.423 24.4637C150.334 25.1653 150.214 25.8214 150.061 26.4319H138.169ZM143.349 22.6884C144.31 22.6884 145.112 22.5739 145.133 22.4332C145.133 22.4332 145.133 22.4332 145.133 22.307C145.133 22.1794 145.133 22.0518 145.133 21.9243C145.133 21.0846 144.833 20.383 144.236 19.8246C143.636 19.2649 142.777 18.9823 141.656 18.9823C140.969 18.9823 140.352 19.1034 139.804 19.3455C139.256 19.5888 138.778 19.8871 138.372 20.2436C137.965 20.6003 137.633 20.9961 137.379 21.4282C137.124 21.8616 136.945 22.281 136.844 22.6882L143.349 22.6884Z" fill="#FF7500"/>
</g>
<g id="Group_8">
<path id="Vector_6" d="M153.525 34.302C152.564 34.302 151.915 33.5289 152.081 32.5826L156.558 7.14111C156.723 6.19599 157.646 5.42139 158.605 5.42139H161.343C162.302 5.42139 162.949 6.19599 162.782 7.14111L158.271 32.5839C158.106 33.529 157.183 34.3022 156.223 34.3022H153.525V34.302Z" fill="#FF7500"/>
</g>
<g id="Group_9">
<path id="Vector_7" d="M163.876 34.3021C162.917 34.3021 162.267 33.5277 162.432 32.5827L165.156 16.9975C165.32 16.0511 166.24 15.2779 167.2 15.2779H169.861C170.82 15.2779 171.468 16.0512 171.298 16.9949L168.513 32.584C168.343 33.5291 167.42 34.3023 166.461 34.3023H163.876V34.3021ZM172.905 8.89956C172.905 9.40853 172.813 9.87844 172.636 10.3118C172.459 10.7454 172.209 11.1333 171.893 11.4755C171.573 11.8205 171.198 12.0873 170.764 12.2787C170.331 12.47 169.861 12.5664 169.351 12.5664C168.384 12.5664 167.587 12.2787 166.964 11.706C166.34 11.1333 166.028 10.4005 166.028 9.5101C166.028 8.46614 166.378 7.59271 167.079 6.89367C167.778 6.19205 168.637 5.84325 169.658 5.84325C170.599 5.84325 171.376 6.13488 171.988 6.72186C172.6 7.3064 172.905 8.03259 172.905 8.89956Z" fill="#FF7500"/>
</g>
<g id="Group_10">
<path id="Vector_8" d="M184.067 32.7974C183.58 33.6253 182.394 34.302 181.434 34.302H178.278C177.318 34.302 176.39 33.5302 176.215 32.5865L173.335 16.9935C173.162 16.0497 173.804 15.2778 174.763 15.2778H177.728C178.689 15.2778 179.573 16.0563 179.691 17.0092L180.824 26.0377C180.942 26.9906 181.066 27.769 181.097 27.769C181.13 27.769 181.522 27.0751 181.971 26.2265L186.948 16.8206C187.396 15.9718 188.55 15.278 189.509 15.278H192.667C193.626 15.278 194.011 15.955 193.523 16.7802L184.067 32.7974Z" fill="#FF7500"/>
</g>
<g id="Group_11">
<path id="Vector_9" d="M200.433 26.4319C199.473 26.4319 198.67 26.5296 198.651 26.6493C198.651 26.6493 198.651 26.6493 198.651 26.7756C198.651 27.3105 198.77 27.7896 199.012 28.2087C199.256 28.629 199.572 28.9857 199.968 29.2788C200.362 29.5716 200.809 29.7942 201.305 29.9465C201.802 30.1002 202.317 30.1756 202.852 30.1756C203.82 30.1756 204.673 29.9986 205.41 29.6419C206.15 29.2841 206.811 28.7998 207.398 28.188L209.881 30.1314C210.636 30.7235 210.662 31.7208 209.935 32.3482C209.935 32.3482 208.671 33.4415 207.169 34.0143C205.665 34.5883 204.05 34.8747 202.317 34.8747C200.994 34.8747 199.763 34.6898 198.631 34.3201C197.497 33.9517 196.511 33.4037 195.67 32.6774C194.83 31.9522 194.167 31.0542 193.684 29.9841C193.2 28.9155 192.958 27.6932 192.958 26.3186C192.958 24.6876 193.245 23.1659 193.817 21.7523C194.39 20.34 195.18 19.1097 196.186 18.0658C197.193 17.0231 198.395 16.2018 199.796 15.6018C201.197 15.0043 202.738 14.7049 204.418 14.7049C205.665 14.7049 206.806 14.8832 207.836 15.2399C208.869 15.5966 209.752 16.1108 210.49 16.7864C211.229 17.4618 211.804 18.2963 212.211 19.2882C212.619 20.2814 212.822 21.4282 212.822 22.7273C212.822 23.1856 212.778 23.7635 212.688 24.4637C212.598 25.1653 212.478 25.8214 212.325 26.4319H200.433ZM205.615 22.6884C206.574 22.6884 207.376 22.5739 207.398 22.4332C207.398 22.4332 207.398 22.4332 207.398 22.307C207.398 22.1794 207.398 22.0518 207.398 21.9243C207.398 21.0846 207.099 20.383 206.501 19.8246C205.902 19.2649 205.043 18.9823 203.921 18.9823C203.234 18.9823 202.617 19.1034 202.069 19.3455C201.522 19.5888 201.043 19.8871 200.636 20.2436C200.228 20.6003 199.898 20.9961 199.644 21.4282C199.389 21.8616 199.209 22.281 199.109 22.6882L205.615 22.6884Z" fill="#FF7500"/>
</g>
<g id="Group_12">
<path id="Vector_10" d="M222.003 18.0659C222.046 18.0659 222.558 17.4424 223.14 16.6796C223.14 16.6796 223.423 16.3087 224.277 15.6981C225.13 15.0863 226.154 14.7804 227.352 14.7804C227.582 14.7804 227.816 14.7935 228.06 14.8195C228.301 14.8455 228.499 14.8833 228.651 14.9329L227.971 18.6427C227.8 19.5864 227.412 20.301 227.11 20.2308C227.11 20.2308 227.11 20.2308 226.856 20.2047C226.601 20.1799 226.359 20.1669 226.13 20.1669C225.238 20.1669 224.488 20.3193 223.876 20.6251C223.266 20.931 222.762 21.3072 222.368 21.7524C221.972 22.1989 221.679 22.6766 221.489 23.1857C221.298 23.6959 221.164 24.1411 221.088 24.5224L219.671 32.5824C219.504 33.5287 218.584 34.3019 217.623 34.3019H215C214.041 34.3019 213.395 33.5287 213.564 32.5836L215.66 20.9295C215.831 19.9859 216.064 18.7128 216.178 18.1035C216.178 18.1035 216.178 18.1035 216.294 17.3407C216.407 16.5767 216.491 15.8893 216.541 15.2775H220.604C221.565 15.2775 222.342 15.4181 222.335 15.5887C222.335 15.5887 222.335 15.5887 222.31 15.8322C222.284 16.0742 222.252 16.3281 222.214 16.5948C222.175 16.8616 222.139 17.1298 222.1 17.3967C222.063 17.6651 222.029 17.8889 222.003 18.0659Z" fill="#FF7500"/>
</g>
<g id="Group_13">
<path id="Vector_11" d="M240.197 35.6493C239.722 36.485 238.934 37.8427 238.445 38.6692C238.445 38.6692 238.219 39.0506 237.671 39.8407C237.125 40.6296 236.525 41.2934 235.876 41.8271C235.225 42.3608 234.482 42.7683 233.643 43.0493C232.802 43.3293 231.82 43.4696 230.701 43.4696C229.504 43.4696 228.46 43.3292 227.568 43.0493L228.171 39.7235C228.345 38.7798 229.006 38.1614 229.642 38.3501C229.642 38.3501 229.642 38.3501 230.279 38.3501C231.172 38.3501 231.866 38.1275 232.363 37.6811C232.859 37.2359 233.337 36.6059 233.795 35.791L233.83 35.7311C234.314 34.9019 234.533 33.4609 234.317 32.525L230.712 16.9776C230.495 16.0404 231.103 15.2775 232.064 15.2775H235.258C236.219 15.2775 237.122 16.0534 237.267 17.0023L238.649 26.0061C238.795 26.955 238.931 27.7309 238.952 27.7309C238.972 27.7309 239.344 27.0305 239.778 26.1742L244.505 16.8345C244.937 15.978 246.076 15.2777 247.038 15.2777H250.043C251.002 15.2777 251.398 15.9599 250.925 16.7941L240.197 35.6493Z" fill="#FF7500"/>
</g>
<g id="Group_14">
<path id="Vector_12" d="M248.638 30.63C250.053 30.63 251.213 31.8107 251.213 33.2243C251.213 34.6496 250.053 35.812 248.638 35.812C247.21 35.812 246.038 34.6495 246.038 33.2243C246.038 31.8107 247.21 30.63 248.638 30.63ZM248.65 35.3942C249.828 35.3942 250.785 34.422 250.785 33.2243C250.785 32.0189 249.828 31.0569 248.65 31.0569C247.436 31.0569 246.474 32.0189 246.474 33.2243C246.474 34.422 247.436 35.3942 248.65 35.3942ZM249.839 32.7558C249.839 33.1944 249.612 33.477 249.236 33.5693L249.746 34.4221C249.797 34.5054 249.797 34.5718 249.652 34.5718H249.468C249.344 34.5718 249.334 34.5418 249.293 34.4754L248.8 33.6084H247.988V34.4754C247.988 34.5418 247.972 34.5718 247.879 34.5718H247.693C247.61 34.5718 247.585 34.5418 247.585 34.4754V32.01C247.585 31.9032 247.61 31.8772 247.73 31.8772H248.908C249.478 31.8771 249.839 32.1947 249.839 32.7558ZM248.891 33.2503C249.225 33.2503 249.426 33.0759 249.426 32.7558C249.426 32.4485 249.225 32.2624 248.891 32.2624H247.988V33.2503H248.891Z" fill="#FF7500"/>
</g>
</g>
<path id="Vector_13" d="M16.314 0.0329421C7.25877 0.0751772 -0.0454698 6.95433 0.000213123 15.3948C0.0767823 29.6299 13.8829 42.5396 13.8829 42.5396C15.3609 43.9213 17.7186 43.8678 19.1228 42.4208C19.1228 42.4208 32.8656 28.2529 32.7948 15.2408C32.7497 6.80005 25.3703 -0.0094367 16.314 0.0329421ZM15.2714 25.2521C15.2714 25.6655 14.8236 25.9238 14.4658 25.7168L8.455 22.2402C7.90422 21.9215 7.56505 21.3335 7.56505 20.6973V14.5088C7.56505 14.1393 7.96714 13.9102 8.28506 14.0985L14.516 17.7915C14.9844 18.0691 15.2715 18.5732 15.2715 19.1175L15.2714 25.2521ZM15.8279 15.6635L9.14341 11.7364C8.75611 11.5088 8.75884 10.9479 9.14843 10.7242L15.8558 6.87302C16.2477 6.64806 16.7298 6.64906 17.1207 6.87604L23.7532 10.7256C24.1396 10.9499 24.1423 11.507 23.7582 11.7351L17.1484 15.6607C16.7417 15.902 16.2358 15.9032 15.8279 15.6635ZM25.2303 20.6971C25.2303 21.3334 24.8911 21.9215 24.3403 22.24L18.3294 25.7167C17.9716 25.9237 17.5238 25.6654 17.5238 25.2519V19.1173C17.5238 18.5729 17.8109 18.0689 18.2793 17.7914L24.5101 14.0984C24.828 13.9101 25.2301 14.139 25.2301 14.5087V20.6971H25.2303Z" fill="#FF7500"/>
</g>
</svg>
