<svg width="252" height="44" viewBox="0 0 252 44" fill="none" xmlns="http://www.w3.org/2000/svg">
<g id="Group">
<g id="Group_2">
<g id="Group_3">
<path id="Vector" d="M47.3322 29.8278C48.0428 29.1822 48.7848 29.2915 49.7508 29.9085C49.7508 29.9085 49.7508 29.9085 50.5525 30.2768C51.3544 30.6466 52.1757 30.8302 53.0167 30.8302C53.8315 30.8302 54.4863 30.6792 54.9835 30.3719C55.4808 30.0674 55.7293 29.6469 55.7293 29.1119C55.7293 28.6017 55.4991 28.2086 55.0408 27.9273C54.5827 27.6475 53.9071 27.3676 53.0167 27.0865C52.125 26.8327 51.3413 26.5462 50.6672 26.2274C49.9915 25.9098 49.4252 25.5389 48.9671 25.1196C48.5089 24.6992 48.1652 24.2149 47.9361 23.6682C47.7058 23.1188 47.5925 22.4773 47.5925 21.7392C47.5925 20.6939 47.8268 19.7657 48.2993 18.9496C48.7692 18.1348 49.3941 17.4409 50.1711 16.8682C50.9469 16.2967 51.8581 15.8633 52.902 15.5691C53.946 15.2775 55.0408 15.1305 56.1876 15.1305C57.6637 15.1305 59.0461 15.3777 60.3321 15.8738C61.6183 16.371 62.644 17.1026 63.4068 18.071L60.884 20.1941C60.1498 20.8137 59.4886 20.841 58.701 20.3894C58.701 20.3894 58.701 20.3894 58.0774 20.0574C57.4539 19.7268 56.7081 19.5615 55.8426 19.5615C55.18 19.5615 54.5759 19.6903 54.0292 19.9429C53.4813 20.198 53.2064 20.6301 53.2064 21.2433C53.2064 21.6754 53.4109 22.0125 53.8183 22.256C54.2257 22.4981 54.8505 22.7324 55.6901 22.9615C57.4735 23.4445 58.8806 24.1135 59.9115 24.9673C60.9424 25.8213 61.4591 27.0617 61.4591 28.6914C61.4591 29.837 61.2106 30.8367 60.7134 31.6893C60.2173 32.5432 59.5679 33.2435 58.7648 33.7915C57.9629 34.3382 57.0465 34.7457 56.0144 35.0138C54.9833 35.2804 53.9329 35.4134 52.8643 35.4134C51.1057 35.4134 49.541 35.1205 48.1651 34.5348C46.7893 33.949 45.6698 33.1484 44.8028 32.1293L47.3322 29.8278Z" fill="#414141"/>
</g>
<g id="Group_4">
<path id="Vector_2" d="M73.224 35.2623C71.8482 35.2623 70.5685 35.0709 69.3854 34.6882C68.2009 34.3068 67.1817 33.7536 66.3291 33.0273C65.475 32.301 64.8009 31.4223 64.305 30.3915C63.8078 29.3593 63.5604 28.1941 63.5604 26.8963C63.5604 25.3174 63.8273 23.8138 64.3623 22.3873C64.8973 20.962 65.6665 19.7136 66.6727 18.6436C67.6776 17.5748 68.8946 16.7211 70.3213 16.0845C71.7467 15.448 73.3634 15.1304 75.1713 15.1304C76.5733 15.1304 77.8723 15.3203 79.0687 15.703C80.2662 16.0845 81.2971 16.6376 82.1628 17.3639C83.0285 18.0904 83.7104 18.9689 84.2065 20.0013C84.7037 21.0322 84.951 22.1958 84.951 23.4949C84.951 25.1 84.6841 26.6163 84.1492 28.0418C83.6142 29.4672 82.837 30.7154 81.8192 31.7855C80.7999 32.8542 79.5711 33.7016 78.1327 34.3251C76.6931 34.9485 75.0583 35.2623 73.224 35.2623ZM78.9164 24.1447C78.9164 22.9992 78.5649 22.0437 77.8647 21.2809C77.1656 20.5169 76.1776 20.1354 74.9058 20.1354C74.0897 20.1354 73.3503 20.2994 72.6891 20.63C72.0267 20.962 71.4668 21.407 71.0086 21.9668C70.5491 22.5291 70.1937 23.1774 69.9386 23.9168C69.6835 24.655 69.557 25.432 69.557 26.2468C69.557 27.3923 69.9007 28.3412 70.5881 29.0924C71.2753 29.8434 72.2555 30.2197 73.5299 30.2197C74.3447 30.2197 75.0815 30.0608 75.7454 29.742C76.4079 29.4231 76.9742 28.9843 77.4454 28.4234C77.9153 27.8637 78.2785 27.2141 78.5336 26.4761C78.7889 25.7378 78.9164 24.9608 78.9164 24.1447Z" fill="#414141"/>
</g>
<g id="Group_5">
<path id="Vector_3" d="M96.8552 36.0745C96.3801 36.9103 95.5913 38.268 95.1031 39.0945C95.1031 39.0945 94.8766 39.4759 94.3298 40.266C93.7819 41.0548 93.1843 41.7187 92.5348 42.2524C91.8839 42.786 91.1393 43.1936 90.2999 43.4746C89.4603 43.7546 88.4775 43.8949 87.358 43.8949C86.1605 43.8949 85.1178 43.7544 84.2261 43.4746L84.8301 40.1488C85.0019 39.2051 85.6631 38.5867 86.3011 38.7754C86.3011 38.7754 86.3011 38.7754 86.9389 38.7754C87.8292 38.7754 88.523 38.5528 89.0204 38.1064C89.5164 37.6612 89.9941 37.0311 90.4522 36.2163L90.4874 36.1564C90.9728 35.3272 91.1916 33.8862 90.9756 32.9503L87.3698 17.4029C87.1537 16.4656 87.7617 15.7028 88.721 15.7028H91.9167C92.8761 15.7028 93.7794 16.4787 93.9266 17.4276L95.3062 26.4314C95.452 27.3803 95.5887 28.1562 95.6096 28.1562C95.6305 28.1562 96.0027 27.4558 96.4362 26.5995L101.163 17.2598C101.597 16.4033 102.736 15.703 103.696 15.703H106.7C107.661 15.703 108.056 16.3852 107.583 17.2194L96.8552 36.0745Z" fill="#414141"/>
</g>
<g id="Group_6">
<path id="Vector_4" d="M125.112 7.56739C125.274 6.62227 126.19 5.84653 127.151 5.84653H129.772C130.733 5.84653 131.38 6.62113 131.213 7.56624L126.703 33.009C126.536 33.9542 125.613 34.7273 124.654 34.7273H122.528C121.569 34.7273 120.886 34.1429 121.012 33.4282C121.138 32.7137 121.216 32.1291 121.184 32.1291C121.154 32.1291 120.601 32.7122 119.958 33.4244C119.958 33.4244 119.574 33.8486 118.453 34.3824C117.332 34.9174 116.071 35.1843 114.67 35.1843C113.449 35.1843 112.347 34.9812 111.366 34.5737C110.386 34.1676 109.56 33.6013 108.884 32.875C108.208 32.1474 107.693 31.2895 107.336 30.2949C106.98 29.3031 106.801 28.2083 106.801 27.0106C106.801 25.381 107.063 23.8541 107.585 22.4248C108.107 21.0009 108.832 19.7524 109.763 18.6824C110.691 17.6125 111.8 16.7663 113.086 16.1414C114.372 15.5194 115.779 15.2056 117.307 15.2056C118.708 15.2056 119.916 15.4738 120.935 16.0087C121.954 16.5438 122.718 17.2572 123.227 18.1487C123.27 18.1487 123.437 17.373 123.598 16.4279L125.112 7.56739ZM112.875 26.2077C112.875 27.3533 113.207 28.3087 113.87 29.0727C114.531 29.8368 115.512 30.2195 116.81 30.2195C117.575 30.2195 118.287 30.0606 118.949 29.7418C119.611 29.4229 120.186 28.9842 120.668 28.4232C121.153 27.8635 121.529 27.2139 121.797 26.476C122.064 25.7378 122.196 24.9608 122.196 24.1447C122.196 22.9743 121.84 22.0124 121.127 21.2613C120.413 20.5102 119.446 20.1352 118.224 20.1352C117.409 20.1352 116.67 20.2941 116.008 20.6117C115.346 20.9305 114.786 21.3628 114.326 21.9108C113.87 22.4587 113.512 23.1017 113.258 23.8398C113.003 24.578 112.875 25.3668 112.875 26.2077Z" fill="#414141"/>
</g>
<g id="Group_7">
<path id="Vector_5" d="M138.382 26.8572C137.421 26.8572 136.618 26.9549 136.598 27.0746C136.598 27.0746 136.598 27.0746 136.598 27.2009C136.598 27.7358 136.718 28.2149 136.961 28.634C137.202 29.0543 137.52 29.411 137.916 29.7041C138.31 29.9968 138.757 30.2195 139.252 30.3718C139.75 30.5255 140.264 30.6009 140.8 30.6009C141.767 30.6009 142.62 30.4239 143.359 30.0672C144.097 29.7094 144.76 29.2251 145.346 28.6133L147.829 30.5567C148.584 31.1488 148.61 32.1461 147.884 32.7734C147.884 32.7734 146.619 33.8668 145.117 34.4396C143.613 35.0136 141.996 35.2999 140.264 35.2999C138.94 35.2999 137.711 35.1151 136.579 34.7454C135.445 34.3769 134.458 33.829 133.617 33.1027C132.776 32.3775 132.115 31.4795 131.631 30.4094C131.148 29.3408 130.906 28.1185 130.906 26.7439C130.906 25.1129 131.192 23.5912 131.765 22.1776C132.338 20.7653 133.126 19.535 134.134 18.4911C135.139 17.4484 136.343 16.6271 137.744 16.0271C139.144 15.4296 140.684 15.1302 142.366 15.1302C143.613 15.1302 144.753 15.3085 145.784 15.6652C146.816 16.0219 147.7 16.536 148.44 17.2117C149.178 17.8871 149.75 18.7216 150.159 19.7135C150.565 20.7067 150.77 21.8535 150.77 23.1526C150.77 23.6109 150.725 24.1888 150.636 24.889C150.547 25.5906 150.427 26.2467 150.274 26.8572H138.382ZM143.562 23.1137C144.523 23.1137 145.325 22.9992 145.346 22.8585C145.346 22.8585 145.346 22.8585 145.346 22.7323C145.346 22.6047 145.346 22.4771 145.346 22.3496C145.346 21.5099 145.046 20.8083 144.449 20.2499C143.849 19.6902 142.99 19.4076 141.869 19.4076C141.182 19.4076 140.565 19.5287 140.017 19.7708C139.469 20.0141 138.991 20.3124 138.585 20.6689C138.177 21.0256 137.845 21.4214 137.592 21.8535C137.336 22.2869 137.158 22.7063 137.057 23.1135L143.562 23.1137Z" fill="#414141"/>
</g>
<g id="Group_8">
<path id="Vector_6" d="M153.738 34.7273C152.777 34.7273 152.128 33.9542 152.294 33.0079L156.771 7.5664C156.936 6.62128 157.859 5.84668 158.818 5.84668H161.556C162.515 5.84668 163.162 6.62128 162.995 7.5664L158.484 33.0092C158.318 33.9543 157.396 34.7275 156.436 34.7275H153.738V34.7273Z" fill="#414141"/>
</g>
<g id="Group_9">
<path id="Vector_7" d="M164.089 34.7274C163.13 34.7274 162.48 33.953 162.645 33.008L165.368 17.4228C165.532 16.4764 166.453 15.7032 167.413 15.7032H170.074C171.033 15.7032 171.68 16.4765 171.511 17.4202L168.726 33.0093C168.556 33.9544 167.633 34.7276 166.674 34.7276H164.089V34.7274ZM173.117 9.32484C173.117 9.83382 173.026 10.3037 172.849 10.7371C172.672 11.1707 172.422 11.5586 172.106 11.9008C171.786 12.2458 171.411 12.5126 170.977 12.7039C170.544 12.8953 170.074 12.9917 169.564 12.9917C168.597 12.9917 167.8 12.7039 167.176 12.1313C166.553 11.5586 166.24 10.8258 166.24 9.93538C166.24 8.89143 166.591 8.01799 167.292 7.31896C167.991 6.61734 168.85 6.26854 169.871 6.26854C170.812 6.26854 171.589 6.56016 172.201 7.14715C172.813 7.73169 173.117 8.45787 173.117 9.32484Z" fill="#414141"/>
</g>
<g id="Group_10">
<path id="Vector_8" d="M184.279 33.2227C183.793 34.0506 182.607 34.7273 181.647 34.7273H178.491C177.531 34.7273 176.603 33.9555 176.428 33.0118L173.548 17.4188C173.375 16.475 174.017 15.7031 174.976 15.7031H177.941C178.902 15.7031 179.786 16.4816 179.904 17.4345L181.037 26.463C181.155 27.4159 181.279 28.1942 181.31 28.1942C181.343 28.1942 181.734 27.5004 182.183 26.6518L187.161 17.2459C187.609 16.3971 188.762 15.7033 189.722 15.7033H192.88C193.839 15.7033 194.224 16.3803 193.736 17.2055L184.279 33.2227Z" fill="#414141"/>
</g>
<g id="Group_11">
<path id="Vector_9" d="M200.645 26.8572C199.686 26.8572 198.883 26.9549 198.863 27.0746C198.863 27.0746 198.863 27.0746 198.863 27.2009C198.863 27.7358 198.983 28.2149 199.225 28.634C199.469 29.0543 199.785 29.411 200.181 29.7041C200.575 29.9968 201.022 30.2195 201.517 30.3718C202.015 30.5255 202.53 30.6009 203.065 30.6009C204.032 30.6009 204.886 30.4239 205.623 30.0672C206.362 29.7094 207.024 29.2251 207.611 28.6133L210.094 30.5567C210.849 31.1488 210.875 32.1461 210.148 32.7734C210.148 32.7734 208.884 33.8668 207.382 34.4396C205.878 35.0136 204.263 35.2999 202.53 35.2999C201.206 35.2999 199.976 35.1151 198.844 34.7454C197.71 34.3769 196.723 33.829 195.883 33.1027C195.043 32.3775 194.38 31.4795 193.897 30.4094C193.413 29.3408 193.171 28.1185 193.171 26.7439C193.171 25.1129 193.457 23.5912 194.03 22.1776C194.603 20.7653 195.393 19.535 196.399 18.4911C197.406 17.4484 198.608 16.6271 200.009 16.0271C201.409 15.4296 202.951 15.1302 204.631 15.1302C205.878 15.1302 207.018 15.3085 208.049 15.6652C209.081 16.0219 209.965 16.536 210.703 17.2117C211.441 17.8871 212.017 18.7216 212.424 19.7135C212.832 20.7067 213.035 21.8535 213.035 23.1526C213.035 23.6109 212.99 24.1888 212.901 24.889C212.811 25.5906 212.691 26.2467 212.538 26.8572H200.645ZM205.828 23.1137C206.787 23.1137 207.589 22.9992 207.611 22.8585C207.611 22.8585 207.611 22.8585 207.611 22.7323C207.611 22.6047 207.611 22.4771 207.611 22.3496C207.611 21.5099 207.312 20.8083 206.714 20.2499C206.115 19.6902 205.256 19.4076 204.134 19.4076C203.447 19.4076 202.83 19.5287 202.282 19.7708C201.735 20.0141 201.256 20.3124 200.849 20.6689C200.441 21.0256 200.11 21.4214 199.857 21.8535C199.602 22.2869 199.422 22.7063 199.322 23.1135L205.828 23.1137Z" fill="#414141"/>
</g>
<g id="Group_12">
<path id="Vector_10" d="M222.216 18.4912C222.259 18.4912 222.771 17.8677 223.352 17.1049C223.352 17.1049 223.636 16.734 224.49 16.1234C225.343 15.5116 226.367 15.2057 227.565 15.2057C227.795 15.2057 228.029 15.2188 228.273 15.2448C228.514 15.2708 228.712 15.3086 228.864 15.3582L228.184 19.068C228.013 20.0116 227.625 20.7263 227.323 20.6561C227.323 20.6561 227.323 20.6561 227.069 20.6299C226.814 20.6052 226.571 20.5922 226.342 20.5922C225.451 20.5922 224.701 20.7446 224.089 21.0504C223.479 21.3563 222.975 21.7325 222.581 22.1777C222.185 22.6242 221.892 23.1018 221.702 23.611C221.511 24.1212 221.377 24.5664 221.301 24.9477L219.884 33.0077C219.717 33.954 218.797 34.7271 217.836 34.7271H215.213C214.254 34.7271 213.608 33.954 213.777 33.0089L215.873 21.3548C216.044 20.4111 216.277 19.1381 216.391 18.5288C216.391 18.5288 216.391 18.5288 216.507 17.766C216.62 17.002 216.704 16.3146 216.754 15.7028H220.817C221.778 15.7028 222.555 15.8434 222.548 16.0139C222.548 16.0139 222.548 16.0139 222.523 16.2574C222.497 16.4995 222.465 16.7534 222.427 17.0201C222.388 17.2869 222.351 17.5551 222.312 17.822C222.276 18.0904 222.242 18.3142 222.216 18.4912Z" fill="#414141"/>
</g>
<g id="Group_13">
<path id="Vector_11" d="M240.41 36.0745C239.934 36.9103 239.147 38.268 238.657 39.0945C238.657 39.0945 238.432 39.4759 237.884 40.266C237.338 41.0548 236.737 41.7187 236.089 42.2524C235.438 42.786 234.695 43.1936 233.855 43.4746C233.014 43.7546 232.033 43.8949 230.913 43.8949C229.717 43.8949 228.673 43.7544 227.78 43.4746L228.384 40.1488C228.557 39.2051 229.219 38.5867 229.855 38.7754C229.855 38.7754 229.855 38.7754 230.492 38.7754C231.385 38.7754 232.079 38.5528 232.576 38.1064C233.072 37.6612 233.55 37.0311 234.008 36.2163L234.043 36.1564C234.527 35.3272 234.746 33.8862 234.53 32.9503L230.925 17.4029C230.708 16.4656 231.316 15.7028 232.277 15.7028H235.471C236.432 15.7028 237.335 16.4787 237.479 17.4276L238.862 26.4314C239.008 27.3803 239.144 28.1562 239.165 28.1562C239.185 28.1562 239.557 27.4558 239.99 26.5995L244.718 17.2598C245.15 16.4033 246.289 15.703 247.251 15.703H250.256C251.215 15.703 251.611 16.3852 251.138 17.2194L240.41 36.0745Z" fill="#414141"/>
</g>
<g id="Group_14">
<path id="Vector_12" d="M248.851 31.0553C250.266 31.0553 251.426 32.236 251.426 33.6496C251.426 35.0749 250.266 36.2373 248.851 36.2373C247.423 36.2373 246.25 35.0748 246.25 33.6496C246.25 32.236 247.423 31.0553 248.851 31.0553ZM248.863 35.8195C250.041 35.8195 250.998 34.8472 250.998 33.6496C250.998 32.4441 250.041 31.4822 248.863 31.4822C247.648 31.4822 246.687 32.4441 246.687 33.6496C246.687 34.8472 247.648 35.8195 248.863 35.8195ZM250.051 33.1811C250.051 33.6197 249.825 33.9023 249.449 33.9946L249.959 34.8474C250.01 34.9307 250.01 34.9971 249.865 34.9971H249.68C249.557 34.9971 249.547 34.967 249.506 34.9007L249.013 34.0337H248.2V34.9007C248.2 34.967 248.185 34.9971 248.092 34.9971H247.906C247.823 34.9971 247.798 34.967 247.798 34.9007V32.4352C247.798 32.3285 247.823 32.3025 247.943 32.3025H249.121C249.691 32.3024 250.051 32.62 250.051 33.1811ZM249.104 33.6756C249.438 33.6756 249.639 33.5012 249.639 33.1811C249.639 32.8738 249.438 32.6876 249.104 32.6876H248.2V33.6756H249.104Z" fill="#414141"/>
</g>
</g>
<path id="Vector_13" d="M16.5269 0.458235C7.4716 0.50047 0.16736 7.37963 0.213043 15.82C0.289612 30.0552 14.0958 42.9649 14.0958 42.9649C15.5737 44.3466 17.9314 44.2931 19.3357 42.8461C19.3357 42.8461 33.0785 28.6782 33.0076 15.666C32.9625 7.22534 25.5832 0.415856 16.5269 0.458235ZM15.4842 25.6774C15.4842 26.0908 15.0364 26.3491 14.6786 26.1421L8.66783 22.6654C8.11705 22.3468 7.77788 21.7588 7.77788 21.1226V14.9341C7.77788 14.5646 8.17997 14.3355 8.49788 14.5238L14.7289 18.2168C15.1972 18.4944 15.4844 18.9985 15.4844 19.5428L15.4842 25.6774ZM16.0407 16.0888L9.35624 12.1617C8.96894 11.9341 8.97167 11.3731 9.36126 11.1495L16.0686 7.29832C16.4605 7.07335 16.9426 7.07436 17.3335 7.30133L23.966 11.1509C24.3524 11.3752 24.3552 11.9323 23.971 12.1604L17.3612 16.086C16.9545 16.3273 16.4486 16.3284 16.0407 16.0888ZM25.4431 21.1224C25.4431 21.7587 25.1039 22.3468 24.5531 22.6653L18.5422 26.1419C18.1844 26.349 17.7366 26.0907 17.7366 25.6772V19.5426C17.7366 18.9982 18.0238 18.4942 18.4921 18.2167L24.7229 14.5237C25.0408 14.3354 25.4429 14.5643 25.4429 14.934V21.1224H25.4431Z" fill="#414141"/>
</g>
</svg>
