<svg width="20" height="19" viewBox="0 0 20 19" fill="none" xmlns="http://www.w3.org/2000/svg">
<g id="cajita">
<path id="Vector" d="M17.8222 17.2099L16.2577 15.6454M9.60836 16.4277C10.5843 16.4277 11.5507 16.2354 12.4523 15.862C13.3539 15.4885 14.1732 14.9411 14.8633 14.251C15.5534 13.5609 16.1008 12.7416 16.4743 11.84C16.8477 10.9384 17.04 9.97198 17.04 8.99605C17.04 8.02012 16.8477 7.05375 16.4743 6.1521C16.1008 5.25046 15.5534 4.43121 14.8633 3.74112C14.1732 3.05103 13.3539 2.50362 12.4523 2.13015C11.5507 1.75668 10.5843 1.56445 9.60836 1.56445C7.63737 1.56445 5.74712 2.34742 4.35342 3.74112C2.95973 5.13481 2.17676 7.02507 2.17676 8.99605C2.17676 10.967 2.95973 12.8573 4.35342 14.251C5.74712 15.6447 7.63737 16.4277 9.60836 16.4277Z" stroke="white" stroke-width="1.5" stroke-linecap="round" stroke-linejoin="round"/>
</g>
</svg>
