<svg width="18" height="17" viewBox="0 0 18 17" fill="none" xmlns="http://www.w3.org/2000/svg">
<path id="Ellipse 19" d="M17.1562 7.53052C17.1562 9.06936 16.3266 10.5268 14.8577 11.6285C13.3886 12.7303 11.3204 13.4368 9 13.4368C8.38352 13.4368 7.78383 13.3868 7.20777 13.2925C6.84278 13.2328 6.54646 13.3738 6.3804 13.4767C6.20425 13.5858 6.05301 13.7272 5.93375 13.8519C5.70422 14.0918 5.46966 14.4036 5.27464 14.6629L5.25293 14.6917C5.19439 14.7695 5.13921 14.8426 5.08703 14.9108C5.04816 14.7583 5.00901 14.5889 4.96765 14.4051C4.95873 14.3654 4.94968 14.3249 4.9405 14.2839C4.86581 13.95 4.78242 13.5772 4.68546 13.2656C4.63058 13.0893 4.56107 12.8975 4.4692 12.7242C4.38725 12.5696 4.23238 12.3214 3.95569 12.1627C1.9875 11.0331 0.84375 9.33195 0.84375 7.53052C0.84375 5.99168 1.67344 4.53419 3.14229 3.43255C4.6114 2.33071 6.67963 1.62427 9 1.62427C11.3204 1.62427 13.3886 2.33071 14.8577 3.43255C16.3266 4.53419 17.1562 5.99168 17.1562 7.53052Z" stroke="white" stroke-width="1.6875"/>
</svg>
