<svg width="17" height="15" viewBox="0 0 17 15" fill="none" xmlns="http://www.w3.org/2000/svg">
<g id="cajita">
<path id="Vector" d="M3.26676 3.83333H9.76676M3.26676 7H9.76676M3.26676 10H9.76676M13.1001 4.33333V10C13.1001 12 12.1001 13.3333 9.76676 13.3333H4.43343C2.1001 13.3333 1.1001 12 1.1001 10V4.33333C1.1001 2.33333 2.1001 1 4.43343 1H9.76676C12.1001 1 13.1001 2.33333 13.1001 4.33333Z" stroke="#FF7500" stroke-width="1.5" stroke-miterlimit="10" stroke-linecap="round" stroke-linejoin="round"/>
<circle id="Ellipse 997" cx="12.1001" cy="10" r="3.5" fill="white" stroke="#FF7500"/>
<path id="i" d="M11.1615 12C11.1444 12 11.1291 11.9929 11.1154 11.9786C11.1052 11.9678 11.1001 11.9517 11.1001 11.9303V11.5121C11.1001 11.4942 11.1052 11.4799 11.1154 11.4692C11.1291 11.4549 11.1444 11.4477 11.1615 11.4477H11.8571V9.79625H11.2536C11.2365 9.79625 11.2212 9.79088 11.2075 9.78016C11.1973 9.76586 11.1922 9.74799 11.1922 9.72654V9.30831C11.1922 9.29044 11.1973 9.27614 11.2075 9.26542C11.2212 9.25112 11.2365 9.24397 11.2536 9.24397H12.3482C12.3652 9.24397 12.3789 9.25112 12.3891 9.26542C12.4027 9.27614 12.4096 9.29044 12.4096 9.30831V11.4477H13.0387C13.0558 11.4477 13.0694 11.4549 13.0796 11.4692C13.0933 11.4799 13.1001 11.4942 13.1001 11.5121V11.9303C13.1001 11.9768 13.0796 12 13.0387 12H11.1615ZM12.0617 8.82038C11.9526 8.82038 11.8605 8.78105 11.7855 8.70241C11.7105 8.62377 11.673 8.52904 11.673 8.41823C11.673 8.30027 11.7105 8.20197 11.7855 8.12332C11.8605 8.04111 11.9526 8 12.0617 8C12.1743 8 12.268 8.04111 12.3431 8.12332C12.4215 8.20197 12.4607 8.30027 12.4607 8.41823C12.4607 8.52904 12.4215 8.62377 12.3431 8.70241C12.268 8.78105 12.1743 8.82038 12.0617 8.82038Z" fill="#FF7500"/>
</g>
</svg>
