<svg width="228" height="167" viewBox="0 0 228 167" fill="none" xmlns="http://www.w3.org/2000/svg">
<g filter="url(#filter0_d_247_4039)">
<path d="M190.833 85.4043C190.833 85.4043 196.572 85.0298 198.173 85.6636C199.775 86.2974 200.634 92.4278 199.769 92.4681C198.905 92.5027 198.415 91.1199 198.415 91.1199C198.415 91.1199 198.968 92.6006 198.208 92.7562C197.453 92.9117 196.226 91.575 196.226 91.575C196.226 91.575 189.75 94.0929 186.95 89.063C184.501 84.6668 190.827 85.4043 190.827 85.4043H190.833Z" fill="#F1B2AA"/>
<path d="M166.829 67.0476L166.408 70.5564C166.408 70.5564 166.921 71.6396 168.955 72.0545C170.47 72.3598 171.046 72.0775 171.046 72.0775V70.2741V68.5168L167.434 67.2608L166.829 67.0476Z" fill="#EE7D6E"/>
<path d="M167.434 67.2607C167.434 67.3587 167.457 67.4739 167.497 67.6122C168.073 69.4617 170.176 70.0897 171.046 70.2741V68.5168L167.434 67.2607Z" fill="black"/>
<path d="M172.781 60.6118C172.781 60.6118 174.1 65.2327 173.08 67.5892C172.061 69.9457 169.883 69.26 168.609 68.609C167.336 67.9522 166.829 67.0533 166.829 67.0533C166.829 67.0533 165.527 67.3069 164.847 66.0335C164.167 64.7602 164.864 63.4984 165.619 63.2852C166.374 63.0778 167.152 63.7058 167.152 63.7058L166.656 62.3461C166.656 62.3461 170.321 56.2791 172.781 60.6118Z" fill="#F6BAB3"/>
<path d="M171.853 66.149C171.853 66.149 171.807 66.149 171.784 66.1317C171.704 66.0972 171.669 65.9992 171.709 65.9243C172.067 65.1638 171.594 64.2189 171.588 64.2131C171.548 64.1382 171.583 64.0403 171.657 63.9999C171.738 63.9596 171.83 63.9942 171.871 64.0691C171.894 64.1152 172.418 65.1638 171.997 66.0626C171.969 66.1202 171.911 66.1548 171.853 66.1548V66.149Z" fill="black"/>
<path d="M166.691 65.7399C166.639 65.7399 166.593 65.7168 166.564 65.6765L165.556 64.2534C165.504 64.1843 165.522 64.0863 165.596 64.0344C165.666 63.9826 165.764 63.9999 165.815 64.0748L166.824 65.4979C166.876 65.567 166.858 65.665 166.783 65.7168C166.755 65.7341 166.726 65.7457 166.691 65.7457V65.7399Z" fill="black"/>
<path d="M165.487 65.2269C165.401 65.2269 165.332 65.1578 165.332 65.0713C165.332 64.9849 165.401 64.9158 165.487 64.91H166.323C166.409 64.9042 166.478 64.9734 166.484 65.0598C166.484 65.1462 166.415 65.2154 166.328 65.2211H165.493V65.2269H165.487Z" fill="black"/>
<path d="M170.384 67.3012C170.228 67.3012 170.061 67.2609 169.905 67.1514C169.381 66.7885 169.283 66.1431 169.277 66.1143C169.266 66.0567 169.295 65.9991 169.341 65.9645C169.387 65.93 169.45 65.9242 169.502 65.953L171.127 66.7596C171.173 66.7827 171.208 66.8288 171.213 66.8864C171.213 66.9383 171.196 66.9959 171.15 67.0247C171.133 67.042 170.787 67.3012 170.384 67.3012ZM169.692 66.3967C169.767 66.5637 169.888 66.7539 170.084 66.8922C170.291 67.0362 170.545 66.9844 170.724 66.9095L169.692 66.3967Z" fill="black"/>
<path d="M170.108 64.2416C170.022 64.2416 169.953 64.1667 169.953 64.0803L169.964 63.2564C169.964 63.17 170.033 63.1008 170.12 63.1008C170.206 63.1008 170.275 63.1757 170.275 63.2622L170.264 64.0861C170.264 64.1725 170.195 64.2416 170.108 64.2416Z" fill="black"/>
<path d="M172.545 64.3915C172.459 64.3915 172.39 64.3224 172.39 64.236V63.4063C172.39 63.3199 172.453 63.2507 172.539 63.2507C172.626 63.2507 172.695 63.3199 172.695 63.4063V64.236C172.695 64.3224 172.632 64.3915 172.545 64.3973V64.3915Z" fill="black"/>
<path d="M169.572 62.5767C169.543 62.5767 169.509 62.5652 169.48 62.5479C169.411 62.496 169.393 62.4038 169.445 62.3289C169.825 61.7873 170.546 62.0466 170.574 62.0581C170.655 62.0869 170.695 62.1791 170.667 62.254C170.638 62.3347 170.551 62.375 170.465 62.3462C170.442 62.3404 169.941 62.1618 169.693 62.5075C169.664 62.5479 169.612 62.5709 169.566 62.5709L169.572 62.5767Z" fill="black"/>
<path d="M173 62.5535C172.954 62.5535 172.914 62.5362 172.879 62.5016C172.816 62.4267 172.597 62.2251 172.389 62.2251C172.286 62.2251 172.199 62.2712 172.107 62.3634C172.05 62.4267 171.952 62.4325 171.882 62.3749C171.819 62.3173 171.813 62.2136 171.871 62.1502C172.021 61.9889 172.194 61.8967 172.389 61.9082C172.781 61.914 173.098 62.2769 173.11 62.2942C173.167 62.3576 173.156 62.4613 173.092 62.5132C173.064 62.5362 173.029 62.5535 172.989 62.5535H173Z" fill="black"/>
<path d="M167.146 63.7061C167.146 63.7061 166.899 64.4781 167.924 63.8156C168.944 63.153 169.065 62.064 169.664 60.7849C170.269 59.5059 171.375 58.7396 172.078 59.6729L172.781 60.6121L171.243 58.3305C171.243 58.3305 169.019 56.0834 166.501 57.9041C163.62 59.9898 164.381 61.4994 164.381 61.4994C164.381 61.4994 165.453 62.813 167.146 63.7061Z" fill="black"/>
<path d="M166.737 62.5823C166.737 62.5823 167.123 65.296 167.739 65.0943C168.356 64.8927 167.664 62.1501 167.664 62.1501L166.737 62.5823Z" fill="black"/>
<path d="M164.865 63.8326C164.865 63.8326 174.96 60.6349 175.582 59.7707C176.204 58.9064 172.909 59.6958 172.909 59.6958C172.909 59.6958 171.197 55.5992 166.68 57.5294C162.561 59.2867 164.865 63.8269 164.865 63.8269V63.8326Z" fill="#ED751B"/>
<path d="M171.738 74.2151C171.738 74.2151 175.466 82.2238 179.004 83.4798C181.147 84.2403 188.015 83.1168 188.015 83.1168L190.227 92.2778C190.227 92.2778 180.582 98.5983 173.259 94.3923C168.35 91.5749 166.236 86.6948 166.236 86.6948L171.738 74.2151Z" fill="#ED751B"/>
<path d="M176.572 86.8276C176.463 86.8276 176.371 86.7815 176.302 86.695C176.06 86.3954 175.979 86.0728 176.065 85.7271C176.371 84.471 178.837 83.3879 178.946 83.3418C179.01 83.3129 179.079 83.3302 179.125 83.3821C179.171 83.4339 179.177 83.5031 179.148 83.5665C178.854 84.1023 177.356 86.7642 176.613 86.8333C176.601 86.8333 176.59 86.8333 176.578 86.8333L176.572 86.8276ZM178.624 83.843C177.909 84.206 176.567 84.9896 176.371 85.802C176.307 86.0497 176.371 86.2802 176.544 86.4991C176.953 86.4819 177.921 85.053 178.624 83.8488V83.843Z" fill="#D26214"/>
<path d="M170.558 100.235C170.558 100.235 172.28 84.1253 172.493 80.4724C172.632 78.1332 172.626 74.4976 172.626 74.4976C172.626 74.4976 172.787 73.2531 172.689 72.7288C172.591 72.2045 166.305 68.3845 165.562 68.5055C164.819 68.6207 165.666 70.1764 165.666 70.1764C165.666 70.1764 158.666 69.992 154.69 79.0608C151.838 85.5657 151.008 98.2932 151.008 98.2932L170.558 100.235Z" fill="#E96D07"/>
<path d="M168.154 71.657C168.154 71.657 168.102 71.657 168.079 71.6397L165.59 70.3087C165.515 70.2684 165.486 70.1705 165.527 70.0956C165.567 70.0207 165.665 69.9918 165.74 70.0322L168.229 71.3631C168.304 71.4034 168.332 71.5014 168.292 71.5763C168.263 71.6281 168.211 71.657 168.154 71.657Z" fill="#D26214"/>
<path d="M172.28 83.7104C172.28 83.7104 173.824 77.7471 173.536 76.6524C173.248 75.5577 172.626 74.9988 172.626 74.9988L172.28 83.7046V83.7104Z" fill="#BA5717"/>
<path d="M186.828 88.3371C186.828 88.3371 191.708 85.2892 193.419 85.0933C195.131 84.8974 198.789 89.8869 198.046 90.3306C197.303 90.7742 196.219 89.7832 196.219 89.7832C196.219 89.7832 197.406 90.8261 196.813 91.3216C196.219 91.8171 194.508 91.2179 194.508 91.2179C194.508 91.2179 189.997 96.5013 185.146 93.3958C180.911 90.6821 186.834 88.3428 186.834 88.3428L186.828 88.3371Z" fill="#F6BAB3"/>
<path d="M187.583 86.1707L188.275 95.8387C188.275 95.8387 167.032 101.906 161.328 94.8938C155.624 87.8761 160.244 71.1904 165.511 72.7749C169.273 73.9042 170.218 83.0767 170.218 83.0767L187.583 86.1765V86.1707Z" fill="#ED751B"/>
<path d="M168.011 83.4454C167.365 83.4454 166.789 83.359 166.599 83.094C166.524 82.9903 166.467 82.8174 166.611 82.5639C167.296 81.3309 169.987 82.7713 170.292 82.9384C170.35 82.973 170.385 83.0363 170.373 83.0997C170.362 83.1631 170.31 83.215 170.246 83.2265C169.941 83.2783 168.91 83.4397 168.011 83.4397V83.4454ZM167.625 82.3795C167.291 82.3795 167.02 82.4717 166.887 82.7079C166.812 82.8405 166.847 82.8865 166.858 82.9038C167.077 83.215 168.529 83.1458 169.71 82.9845C169.111 82.7022 168.253 82.3738 167.619 82.3738L167.625 82.3795Z" fill="#D26214"/>
<path d="M25.7325 133.589C25.7325 128.219 27.1902 123.206 29.6907 118.885H1.90234V133.589H25.7267H25.7325Z" fill="#7F7873"/>
<path d="M193.541 133.589C193.541 128.219 192.083 123.206 189.571 118.885H217.411V126.588V133.589H193.541Z" fill="#7F7873"/>
<path d="M137.41 118.885H57.4102C59.7206 123.206 61.063 128.219 61.063 133.589H83.954H159.904C159.904 128.219 161.246 123.206 163.557 118.885H137.416H137.41Z" fill="#7F7873"/>
<path d="M217.348 100.396C217.331 100.217 217.308 100.05 217.285 99.8716C217.25 99.5547 217.216 99.2378 217.164 98.9267C217.129 98.7193 217.083 98.5176 217.043 98.316C216.991 98.0509 216.934 97.7801 216.87 97.5151C216.813 97.2962 216.749 97.0772 216.686 96.864C216.617 96.6278 216.547 96.3974 216.473 96.1669C216.392 95.9364 216.305 95.7175 216.219 95.4928C216.138 95.2911 216.058 95.0837 215.971 94.8878C215.868 94.6573 215.764 94.4269 215.649 94.2022C215.562 94.0293 215.476 93.8507 215.384 93.6836C215.257 93.4474 215.124 93.2169 214.986 92.9865C214.9 92.8424 214.807 92.6984 214.715 92.5601C214.56 92.3181 214.398 92.0877 214.231 91.8572C214.151 91.7477 214.064 91.6382 213.984 91.5345C213.793 91.2925 213.603 91.0506 213.396 90.8201C213.332 90.751 213.269 90.6818 213.206 90.6127C212.975 90.3592 212.739 90.1114 212.491 89.8809C212.474 89.8637 212.451 89.8464 212.428 89.8291C210.215 87.7837 207.438 86.5507 204.408 86.5507H201.423C199.591 80.1668 196.854 71.5301 193.028 61.5913C184.916 40.4922 171.906 40.4922 171.906 40.4922H141.185V2.10815H1.90918V118.885H28.4415C32.538 114.979 37.9886 112.582 43.9979 112.582C50.0073 112.582 55.4521 114.979 59.5428 118.885H159.749C163.846 114.979 169.296 112.582 175.306 112.582C181.315 112.582 186.76 114.979 190.851 118.885H217.406V101.905C217.406 101.393 217.383 100.891 217.343 100.396H217.348ZM77.9167 93.6202C75.4277 96.1899 71.2447 96.2821 68.6232 93.8334C68.6232 93.8334 44.1305 70.9309 43.9979 45.6777C43.9173 30.7032 56.8752 18.5 72.9387 18.4251C89.0021 18.3502 102.093 30.4324 102.173 45.4011C102.3 68.4822 77.9167 93.6202 77.9167 93.6202ZM154.178 86.5507H151.118V52.0097H172.869C172.131 52.0904 177.714 54.0839 182.571 66.7307C185.377 73.9788 187.67 80.6854 189.572 86.5507H154.178Z" fill="#EB6428"/>
<path d="M86.1262 37.3925L74.3609 30.5649C73.6695 30.1616 72.8111 30.1616 72.1197 30.5649L60.2219 37.3982C59.5305 37.7958 59.5247 38.7926 60.2104 39.1959L72.0678 46.1617C72.7938 46.5881 73.6868 46.5823 74.4128 46.1617L86.1377 39.1959C86.8176 38.7926 86.8118 37.8016 86.1262 37.404V37.3925Z" fill="#EB6428"/>
<path d="M69.7401 49.9299L58.6892 43.3789C58.1246 43.0447 57.4102 43.4538 57.4102 44.1049V55.0808C57.4102 56.2101 58.0094 57.2529 58.9888 57.8176L69.6536 63.9825C70.2874 64.3513 71.0825 63.8903 71.0825 63.1586V52.2749C71.0825 51.3069 70.5755 50.4139 69.7401 49.9241V49.9299Z" fill="#EB6428"/>
<path d="M87.4685 43.3788L76.4177 49.9298C75.588 50.4195 75.0752 51.3184 75.0752 52.2806V63.1643C75.0752 63.896 75.8703 64.3569 76.5041 63.9882L87.1689 57.8232C88.1484 57.2586 88.7476 56.2158 88.7476 55.0865V44.1105C88.7476 43.4537 88.0331 43.0504 87.4685 43.3846V43.3788Z" fill="#EB6428"/>
<path d="M175.558 156.457C187.946 156.457 197.989 146.218 197.989 133.589C197.989 120.959 187.946 110.721 175.558 110.721C163.171 110.721 153.128 120.959 153.128 133.589C153.128 146.218 163.171 156.457 175.558 156.457Z" fill="black"/>
<path d="M175.559 148.292C183.521 148.292 189.98 141.713 189.98 133.589C189.98 125.465 183.521 118.885 175.559 118.885C167.596 118.885 161.137 125.465 161.137 133.589C161.137 141.713 167.596 148.292 175.559 148.292Z" fill="#A7A7A7"/>
<path d="M171.571 43.2579C171.571 43.2579 178.497 42.8085 184.281 50.6501" stroke="white" stroke-width="0.443646" stroke-linecap="round" stroke-linejoin="round"/>
<path d="M213.805 100.309C215.97 99.3269 216.609 96.0691 215.232 93.0319C213.854 89.9947 210.983 88.3283 208.818 89.3099C206.653 90.2914 206.015 93.5493 207.392 96.5865C208.769 99.6237 211.64 101.29 213.805 100.309Z" fill="white"/>
<path d="M185.209 52.0097C185.361 52.0097 185.485 51.8858 185.485 51.7331C185.485 51.5804 185.361 51.4565 185.209 51.4565C185.056 51.4565 184.932 51.5804 184.932 51.7331C184.932 51.8858 185.056 52.0097 185.209 52.0097Z" fill="white"/>
<path d="M140.436 2.16016H2.16211V118.332H140.436V2.16016Z" fill="#ED751B"/>
<path d="M44.1122 156.457C56.4997 156.457 66.5422 146.218 66.5422 133.589C66.5422 120.959 56.4997 110.721 44.1122 110.721C31.7247 110.721 21.6821 120.959 21.6821 133.589C21.6821 146.218 31.7247 156.457 44.1122 156.457Z" fill="black"/>
<path d="M44.1128 148.292C52.0754 148.292 58.5342 141.713 58.5342 133.589C58.5342 125.465 52.0754 118.885 44.1128 118.885C36.1502 118.885 29.6914 125.465 29.6914 133.589C29.6914 141.713 36.1502 148.292 44.1128 148.292Z" fill="#A7A7A7"/>
<g clip-path="url(#clip0_247_4039)">
<path d="M31.9932 39.323C32.3334 39.0112 32.6924 39.0679 33.1554 39.3608L33.5381 39.5356C33.9208 39.7152 34.3177 39.8002 34.7192 39.8002C35.1208 39.8002 35.4232 39.7293 35.6642 39.5782C35.9051 39.4317 36.0232 39.2285 36.0232 38.9734C36.0232 38.7183 35.9146 38.5388 35.6925 38.4065C35.4705 38.2742 35.1492 38.1372 34.7192 38.0049C34.2893 37.882 33.9161 37.745 33.5901 37.5938C33.2641 37.4427 32.9948 37.2631 32.7727 37.06C32.5507 36.8568 32.39 36.6253 32.2767 36.3655C32.168 36.1009 32.1113 35.7938 32.1113 35.4395C32.1113 34.9387 32.2247 34.4945 32.4515 34.1024C32.6782 33.7103 32.9759 33.3796 33.3491 33.1055C33.7224 32.8315 34.157 32.6236 34.6578 32.4819C35.1586 32.3402 35.6831 32.2693 36.2358 32.2693C36.9445 32.2693 37.6059 32.3874 38.2249 32.6236C38.8438 32.8646 39.3351 33.2142 39.6989 33.6772L38.4894 34.6977C38.1351 34.9953 37.8185 35.0095 37.4406 34.7922L37.1429 34.6316C36.8453 34.4709 36.4862 34.3953 36.0705 34.3953C35.7539 34.3953 35.461 34.4568 35.2012 34.5796C34.9366 34.7024 34.8043 34.9103 34.8043 35.2032C34.8043 35.4111 34.9035 35.5717 35.0972 35.6899C35.2909 35.808 35.5933 35.9166 35.9949 36.03C36.85 36.2615 37.5256 36.5828 38.0217 36.9938C38.5178 37.4049 38.7635 38.0002 38.7635 38.7797C38.7635 39.3278 38.6453 39.8097 38.4044 40.216C38.1682 40.627 37.8563 40.9624 37.4689 41.227C37.0862 41.4916 36.6421 41.6853 36.1508 41.8129C35.6547 41.9404 35.1539 42.0066 34.6389 42.0066C33.7932 42.0066 33.042 41.8648 32.3853 41.5861C31.7239 41.3026 31.19 40.9199 30.7695 40.4333L31.9837 39.3278L31.9932 39.323Z" fill="white"/>
<path d="M44.4188 41.931C43.7574 41.931 43.1432 41.8412 42.5762 41.657C42.0093 41.4727 41.5179 41.2081 41.1116 40.8585C40.7006 40.5089 40.3793 40.0884 40.1384 39.5923C39.8974 39.0963 39.7793 38.5388 39.7793 37.9151C39.7793 37.1592 39.9069 36.4363 40.162 35.7513C40.4171 35.0662 40.7856 34.4662 41.2723 33.9559C41.7542 33.441 42.34 33.0347 43.0251 32.7276C43.7101 32.4205 44.4849 32.2693 45.3543 32.2693C46.0251 32.2693 46.6488 32.3591 47.2252 32.5433C47.8016 32.7276 48.2929 32.9921 48.7087 33.3418C49.1244 33.6914 49.4504 34.1119 49.6914 34.6079C49.9323 35.104 50.0505 35.6615 50.0505 36.2851C50.0505 37.0552 49.9229 37.7828 49.6678 38.4679C49.4126 39.1529 49.0394 39.753 48.5481 40.2632C48.0567 40.7782 47.4709 41.1845 46.7811 41.4821C46.0913 41.7798 45.307 41.931 44.4235 41.931H44.4188ZM47.1496 36.597C47.1496 36.0489 46.9795 35.5906 46.6441 35.2221C46.3086 34.8536 45.8362 34.6741 45.222 34.6741C44.8298 34.6741 44.4755 34.7544 44.159 34.9103C43.8424 35.0709 43.5731 35.2835 43.3511 35.5528C43.129 35.8221 42.9589 36.134 42.8361 36.4883C42.7132 36.8426 42.6518 37.2159 42.6518 37.608C42.6518 38.1561 42.8172 38.6143 43.1479 38.9734C43.4786 39.3325 43.9463 39.512 44.5605 39.512C44.9527 39.512 45.307 39.4364 45.6236 39.2805C45.9401 39.1293 46.2141 38.9167 46.4409 38.6474C46.6677 38.3781 46.8425 38.0663 46.9653 37.712C47.0882 37.3576 47.1496 36.9844 47.1496 36.5922V36.597Z" fill="white"/>
<path d="M55.7574 42.3232C55.5306 42.7248 55.1526 43.3767 54.9164 43.7736C54.9164 43.7736 54.8078 43.9579 54.5432 44.3358C54.2786 44.7138 53.9951 45.0351 53.6833 45.2902C53.3715 45.5453 53.0124 45.7437 52.6108 45.876C52.2093 46.0083 51.7368 46.0792 51.1982 46.0792C50.6218 46.0792 50.121 46.013 49.6958 45.876L49.984 44.2791C50.0643 43.8256 50.3856 43.5279 50.688 43.6224H50.9951C51.4203 43.6224 51.7557 43.5138 51.9919 43.3012C52.2282 43.0886 52.4597 42.7862 52.677 42.394L52.6959 42.3657C52.9274 41.9688 53.0361 41.2743 52.9321 40.8255L51.2029 33.3654C51.099 32.9166 51.3919 32.5481 51.8502 32.5481H53.3857C53.8439 32.5481 54.2786 32.9213 54.3495 33.3749L55.0109 37.6978C55.0818 38.1514 55.1479 38.5246 55.1574 38.5246C55.1668 38.5246 55.3464 38.1892 55.5542 37.7782L57.822 33.2946C58.0299 32.8835 58.5779 32.5481 59.0362 32.5481H60.4772C60.9402 32.5481 61.1292 32.8741 60.9024 33.2757L55.7527 42.3232H55.7574Z" fill="white"/>
<path d="M69.3168 28.6408C69.3924 28.1872 69.8318 27.814 70.2948 27.814H71.5515C72.0145 27.814 72.3216 28.1872 72.2413 28.6408L70.0774 40.849C69.9971 41.3025 69.553 41.6758 69.0947 41.6758H68.0742C67.616 41.6758 67.2852 41.397 67.3467 41.0521C67.4081 40.7072 67.4459 40.4285 67.427 40.4285C67.4128 40.4285 67.1482 40.7072 66.8364 41.0521C66.8364 41.0521 66.6521 41.2553 66.1135 41.5104C65.575 41.7655 64.9702 41.8931 64.2993 41.8931C63.7135 41.8931 63.1843 41.7939 62.7119 41.6002C62.2394 41.4065 61.8426 41.1325 61.5213 40.7828C61.1953 40.4332 60.9496 40.0222 60.7795 39.545C60.6095 39.0678 60.5244 38.5434 60.5244 37.967C60.5244 37.1827 60.652 36.4504 60.9024 35.7654C61.1528 35.0803 61.5024 34.485 61.9465 33.97C62.3906 33.4551 62.9245 33.0488 63.5434 32.7511C64.1623 32.4535 64.8379 32.3023 65.5702 32.3023C66.2411 32.3023 66.8222 32.4298 67.3089 32.6897C67.8002 32.9448 68.164 33.2897 68.4097 33.7149C68.4097 33.7149 68.5089 33.3417 68.5892 32.8881L69.3168 28.636V28.6408ZM63.4442 37.5843C63.4442 38.1324 63.6048 38.5906 63.9214 38.9592C64.2379 39.3277 64.7104 39.5072 65.334 39.5072C65.7025 39.5072 66.0427 39.4316 66.3592 39.2757C66.6758 39.1245 66.9545 38.9119 67.186 38.6426C67.4175 38.3733 67.5971 38.0615 67.7293 37.7072C67.8569 37.3528 67.9231 36.9796 67.9231 36.5874C67.9231 36.0252 67.753 35.5622 67.4081 35.2032C67.0679 34.8441 66.6002 34.6646 66.0143 34.6646C65.6222 34.6646 65.2679 34.7401 64.9513 34.8913C64.6348 35.0425 64.3655 35.2504 64.1434 35.515C63.9261 35.7795 63.7513 36.0866 63.6284 36.441C63.5056 36.7953 63.4442 37.1733 63.4442 37.5796V37.5843Z" fill="white"/>
<path d="M75.686 37.8962C75.223 37.8962 74.8403 37.9435 74.8309 38.0002V38.0616C74.8309 38.3167 74.8876 38.5482 75.0057 38.7514C75.1191 38.9545 75.275 39.1246 75.464 39.2663C75.653 39.4081 75.8656 39.512 76.1065 39.5876C76.3475 39.6632 76.5931 39.6963 76.8483 39.6963C77.3113 39.6963 77.7223 39.6112 78.0766 39.4411C78.431 39.2711 78.7475 39.0348 79.031 38.7419L80.2216 39.6726C80.5854 39.9561 80.5948 40.4333 80.2499 40.7357C80.2499 40.7357 79.6405 41.2601 78.9223 41.5341C78.1995 41.8081 77.4247 41.9452 76.5931 41.9452C75.96 41.9452 75.3695 41.8554 74.8262 41.6806C74.2828 41.5058 73.8104 41.2412 73.4041 40.8916C73.0025 40.542 72.6812 40.112 72.4497 39.5971C72.2182 39.0821 72.1001 38.4962 72.1001 37.8395C72.1001 37.0552 72.2371 36.3277 72.5111 35.6473C72.7852 34.9717 73.1631 34.3812 73.6497 33.8804C74.1317 33.3796 74.708 32.9874 75.3837 32.6992C76.0545 32.411 76.7963 32.2693 77.6042 32.2693C78.2042 32.2693 78.7475 32.3543 79.2436 32.5244C79.7397 32.6945 80.1649 32.9402 80.5192 33.2662C80.8736 33.5922 81.1476 33.989 81.346 34.4662C81.5397 34.9434 81.639 35.4914 81.639 36.1151C81.639 36.3371 81.6201 36.6111 81.5728 36.9466C81.5303 37.282 81.4736 37.5986 81.398 37.8915H75.6908L75.686 37.8962ZM78.1711 36.1009C78.6341 36.1009 79.0168 36.0442 79.0263 35.9781V35.7324C79.0263 35.3308 78.8845 34.9906 78.5963 34.726C78.3081 34.4568 77.8971 34.3197 77.3585 34.3197C77.0278 34.3197 76.7349 34.3764 76.4703 34.4945C76.2057 34.6127 75.9789 34.7544 75.7852 34.9245C75.5915 35.0946 75.4309 35.2835 75.3081 35.4914C75.1852 35.6993 75.1002 35.9025 75.0529 36.0962H78.1759L78.1711 36.1009Z" fill="white"/>
<path d="M83.0558 41.6758C82.5927 41.6758 82.2809 41.3025 82.3612 40.849L84.5109 28.6408C84.5912 28.1872 85.0353 27.814 85.4936 27.814H86.807C87.2653 27.814 87.5771 28.1872 87.4968 28.6408L85.333 40.849C85.2527 41.3025 84.8086 41.6758 84.3503 41.6758H83.0558Z" fill="white"/>
<path d="M88.0207 41.6757C87.5625 41.6757 87.2506 41.3025 87.3262 40.8489L88.6349 33.37C88.7153 32.9164 89.1546 32.5432 89.6176 32.5432H90.8933C91.3516 32.5432 91.6634 32.9164 91.5831 33.3653L90.246 40.8442C90.1657 41.2978 89.7216 41.671 89.2633 41.671H88.0207V41.6757ZM92.3532 29.4864C92.3532 29.7321 92.3106 29.9542 92.2256 30.162C92.1406 30.3699 92.0224 30.5542 91.8713 30.7195C91.7153 30.8849 91.5358 31.0124 91.3279 31.1069C91.12 31.1967 90.8933 31.244 90.6476 31.244C90.1846 31.244 89.8019 31.1069 89.5043 30.8329C89.2066 30.5589 89.0554 30.2046 89.0554 29.7793C89.0554 29.2785 89.2255 28.8581 89.561 28.5226C89.8964 28.1872 90.3074 28.0171 90.7988 28.0171C91.2523 28.0171 91.6256 28.1588 91.9185 28.4376C92.2114 28.7163 92.3579 29.0659 92.3579 29.4817L92.3532 29.4864Z" fill="white"/>
<path d="M97.7116 40.9531C97.4801 41.3499 96.9084 41.6759 96.4501 41.6759H94.9336C94.4753 41.6759 94.0265 41.3074 93.9414 40.8538L92.5618 33.3702C92.4768 32.9166 92.7886 32.5481 93.2469 32.5481H94.669C95.132 32.5481 95.5525 32.9213 95.6092 33.3796L96.1525 37.712C96.2092 38.1703 96.2706 38.5435 96.2848 38.5435C96.299 38.5435 96.4879 38.2128 96.7053 37.8018L99.0959 33.2898C99.3085 32.8835 99.866 32.5481 100.324 32.5481H101.841C102.299 32.5481 102.488 32.8741 102.252 33.271L97.7116 40.9578V40.9531Z" fill="white"/>
<path d="M105.563 37.8962C105.105 37.8962 104.718 37.9435 104.708 38.0002V38.0616C104.708 38.3167 104.765 38.5482 104.883 38.7514C105.001 38.9545 105.152 39.1246 105.341 39.2663C105.53 39.4081 105.743 39.512 105.984 39.5876C106.225 39.6632 106.47 39.6963 106.726 39.6963C107.189 39.6963 107.6 39.6112 107.954 39.4411C108.308 39.2711 108.625 39.0348 108.908 38.7419L110.099 39.6726C110.463 39.9561 110.472 40.4333 110.122 40.7357C110.122 40.7357 109.518 41.2601 108.795 41.5341C108.072 41.8081 107.297 41.9452 106.466 41.9452C105.833 41.9452 105.242 41.8554 104.699 41.6806C104.155 41.5058 103.683 41.2412 103.277 40.8916C102.875 40.542 102.554 40.112 102.322 39.5971C102.091 39.0821 101.973 38.4962 101.973 37.8395C101.973 37.0552 102.11 36.3277 102.384 35.6473C102.658 34.9717 103.036 34.3812 103.522 33.8804C104.004 33.3796 104.581 32.9874 105.256 32.6992C105.927 32.411 106.669 32.2693 107.477 32.2693C108.077 32.2693 108.62 32.3543 109.116 32.5244C109.612 32.6945 110.037 32.9402 110.392 33.2662C110.746 33.5922 111.02 33.989 111.219 34.4662C111.412 34.9434 111.512 35.4914 111.512 36.1151C111.512 36.3371 111.493 36.6111 111.445 36.9466C111.403 37.282 111.346 37.5986 111.271 37.8915H105.563V37.8962ZM108.053 36.1009C108.511 36.1009 108.899 36.0442 108.908 35.9781V35.7324C108.908 35.3308 108.767 34.9906 108.478 34.726C108.19 34.4568 107.779 34.3197 107.241 34.3197C106.91 34.3197 106.617 34.3764 106.352 34.4945C106.088 34.6127 105.861 34.7544 105.663 34.9245C105.469 35.0946 105.308 35.2835 105.185 35.4914C105.063 35.6993 104.977 35.9025 104.93 36.0962H108.053V36.1009Z" fill="white"/>
<path d="M115.915 33.8849C115.915 33.8849 116.18 33.5872 116.459 33.2187C116.459 33.2187 116.596 33.0392 117.007 32.7463C117.418 32.4533 117.909 32.3069 118.481 32.3069C118.589 32.3069 118.703 32.3116 118.821 32.3258C118.934 32.34 119.034 32.3541 119.104 32.3825L118.778 34.1636C118.698 34.6172 118.509 34.9574 118.363 34.9243L118.24 34.9101C118.117 34.8959 117.999 34.8912 117.89 34.8912C117.46 34.8912 117.101 34.9621 116.808 35.1133C116.515 35.2597 116.274 35.4393 116.085 35.6519C115.896 35.8645 115.755 36.096 115.665 36.3416C115.575 36.5873 115.509 36.7999 115.471 36.9842L114.791 40.8536C114.711 41.3071 114.271 41.6804 113.808 41.6804H112.552C112.093 41.6804 111.781 41.3071 111.862 40.8536L112.868 35.2597C112.948 34.8062 113.062 34.1967 113.118 33.9038L113.175 33.54C113.232 33.1715 113.27 32.8455 113.293 32.5478H115.245C115.708 32.5478 116.081 32.614 116.076 32.699L116.062 32.8171C116.048 32.9352 116.034 33.0534 116.015 33.1809C115.996 33.3085 115.977 33.4361 115.958 33.5636C115.939 33.6912 115.925 33.7998 115.911 33.8849H115.915Z" fill="white"/>
<path d="M124.646 42.3232C124.419 42.7248 124.041 43.3767 123.805 43.7736C123.805 43.7736 123.696 43.9579 123.432 44.3358C123.167 44.7138 122.884 45.0351 122.572 45.2902C122.26 45.5453 121.901 45.7437 121.5 45.876C121.098 46.0083 120.625 46.0792 120.087 46.0792C119.515 46.0792 119.01 46.013 118.584 45.876L118.873 44.2791C118.958 43.8256 119.274 43.5279 119.577 43.6224H119.884C120.314 43.6224 120.644 43.5138 120.885 43.3012C121.122 43.0886 121.353 42.7862 121.57 42.394L121.589 42.3657C121.821 41.9688 121.925 41.2743 121.821 40.8255L120.092 33.3654C119.988 32.9166 120.281 32.5481 120.739 32.5481H122.27C122.733 32.5481 123.163 32.9213 123.233 33.3749L123.895 37.6978C123.966 38.1514 124.032 38.5246 124.041 38.5246C124.051 38.5246 124.23 38.1892 124.438 37.7782L126.706 33.2946C126.914 32.8835 127.462 32.5481 127.92 32.5481H129.361C129.819 32.5481 130.013 32.8741 129.786 33.2757L124.637 42.3232H124.646Z" fill="white"/>
<path d="M128.699 39.9136C129.38 39.9136 129.937 40.4805 129.937 41.1609C129.937 41.8412 129.38 42.4034 128.699 42.4034C128.019 42.4034 127.452 41.8459 127.452 41.1609C127.452 40.4758 128.014 39.9136 128.699 39.9136ZM128.704 42.2003C129.271 42.2003 129.729 41.7325 129.729 41.1609C129.729 40.5892 129.271 40.1215 128.704 40.1215C128.137 40.1215 127.66 40.5845 127.66 41.1609C127.66 41.7372 128.123 42.2003 128.704 42.2003ZM129.276 40.9341C129.276 41.1467 129.167 41.279 128.988 41.3262L129.233 41.7372C129.257 41.775 129.257 41.8081 129.186 41.8081H129.096C129.035 41.8081 129.03 41.7939 129.011 41.7609L128.775 41.3451H128.383V41.7609C128.383 41.7939 128.373 41.8081 128.331 41.8081H128.241C128.203 41.8081 128.189 41.7939 128.189 41.7609V40.5797C128.189 40.5278 128.203 40.5183 128.26 40.5183H128.827C129.101 40.5183 129.276 40.6695 129.276 40.9388V40.9341ZM128.818 41.1703C128.978 41.1703 129.073 41.0853 129.073 40.9341C129.073 40.7829 128.978 40.6978 128.818 40.6978H128.383V41.1703H128.818Z" fill="white"/>
<path d="M17.2095 25.2296C12.863 25.2485 9.35736 28.5509 9.38098 32.5999C9.41877 39.4316 16.0426 45.6254 16.0426 45.6254C16.7513 46.2869 17.8852 46.2632 18.556 45.5687C18.556 45.5687 25.1515 38.7701 25.1184 32.5243C25.0948 28.4753 21.5561 25.2107 17.2095 25.2296ZM16.7087 37.3339C16.7087 37.5323 16.4961 37.6551 16.3213 37.5559L13.4346 35.8881C13.1701 35.737 13.0094 35.4535 13.0094 35.1464V32.1747C13.0094 31.9951 13.2031 31.8865 13.3543 31.9762L16.345 33.7479C16.5717 33.8802 16.7087 34.1212 16.7087 34.3857V37.3291V37.3339ZM16.978 32.7321L13.7701 30.8471C13.5858 30.7384 13.5858 30.4691 13.7701 30.3604L16.9875 28.5131C17.1765 28.4045 17.408 28.4045 17.5922 28.5131L20.7766 30.3604C20.9608 30.4691 20.9656 30.7337 20.7766 30.8471L17.6064 32.7321C17.4127 32.8503 17.167 32.8503 16.9733 32.7321H16.978ZM21.49 35.1464C21.49 35.4535 21.3293 35.7322 21.0648 35.8881L18.1781 37.5559C18.008 37.6551 17.7907 37.5323 17.7907 37.3339V34.3905C17.7907 34.1306 17.9277 33.8897 18.1545 33.7527L21.1451 31.9809C21.2963 31.8912 21.49 31.9998 21.49 32.1794V35.1511V35.1464Z" fill="white"/>
<path d="M89.0056 51.0944C88.941 51.1608 88.8626 51.194 88.7703 51.194C88.678 51.194 88.5996 51.1608 88.535 51.0944C88.4704 51.0279 88.4381 50.9486 88.4381 50.8563C88.4381 50.7622 88.4704 50.6819 88.535 50.6155C88.5996 50.549 88.678 50.5158 88.7703 50.5158C88.8626 50.5158 88.941 50.549 89.0056 50.6155C89.0702 50.6819 89.1025 50.7622 89.1025 50.8563C89.1025 50.9486 89.0702 51.0279 89.0056 51.0944ZM90.8382 51.194C90.4617 51.194 90.1812 51.0658 89.9966 50.8092C89.8268 50.573 89.7419 50.298 89.7419 49.9843C89.7419 49.8662 89.7549 49.7435 89.7807 49.6161C89.8896 49.0828 90.0972 48.6869 90.4036 48.4285C90.7118 48.1683 91.0689 48.0382 91.4749 48.0382C91.8606 48.0382 92.1421 48.1711 92.3192 48.4368C92.334 48.459 92.3414 48.4848 92.3414 48.5143C92.3414 48.5512 92.3165 48.59 92.2666 48.6306L92.0922 48.7746C92.0609 48.8004 92.0304 48.8133 92.0009 48.8133C91.9584 48.8133 91.9252 48.7949 91.9012 48.7579C91.7813 48.5734 91.6096 48.4811 91.3863 48.4811C91.163 48.4811 90.9563 48.5679 90.7662 48.7413C90.5429 48.9462 90.3925 49.2378 90.315 49.6161C90.2855 49.7601 90.2707 49.8902 90.2707 50.0064C90.2707 50.1965 90.3104 50.3525 90.3897 50.4743C90.5097 50.6588 90.6813 50.7511 90.9046 50.7511C91.1316 50.7511 91.342 50.6588 91.5358 50.4743C91.5746 50.4374 91.6152 50.4189 91.6576 50.4189C91.6871 50.4189 91.712 50.4318 91.7323 50.4577L91.8791 50.6431C91.8994 50.669 91.9095 50.6967 91.9095 50.7262C91.9095 50.7631 91.8892 50.8 91.8486 50.8369C91.5718 51.075 91.235 51.194 90.8382 51.194ZM93.6508 51.194C93.2521 51.194 92.9578 51.0658 92.7677 50.8092C92.6053 50.5915 92.5241 50.3266 92.5241 50.0147C92.5241 49.8487 92.5471 49.6706 92.5933 49.4805C92.704 49.0191 92.9024 48.6684 93.1885 48.4285C93.4967 48.1683 93.8372 48.0382 94.21 48.0382C94.6086 48.0382 94.903 48.1665 95.093 48.423C95.2555 48.6408 95.3367 48.9056 95.3367 49.2175C95.3367 49.3836 95.3136 49.5617 95.2675 49.7518C95.1567 50.2131 94.9583 50.5638 94.6723 50.8037C94.3641 51.0639 94.0236 51.194 93.6508 51.194ZM93.6895 50.7511C93.9091 50.7511 94.1195 50.6588 94.3207 50.4743C94.5348 50.2787 94.6815 49.9926 94.7609 49.6161C94.7904 49.474 94.8051 49.3439 94.8051 49.2258C94.8051 49.0283 94.7636 48.8668 94.6806 48.7413C94.5662 48.5679 94.3954 48.4811 94.1684 48.4811C93.9433 48.4811 93.7375 48.5679 93.5511 48.7413C93.3315 48.9425 93.1811 49.2341 93.0999 49.6161C93.0704 49.7601 93.0556 49.8902 93.0556 50.0064C93.0556 50.1965 93.0953 50.3525 93.1746 50.4743C93.3001 50.6588 93.4718 50.7511 93.6895 50.7511ZM95.9401 51.1387C95.8626 51.1387 95.8239 51.1073 95.8239 51.0446C95.8239 51.0316 95.8257 51.0178 95.8294 51.003L96.4191 48.2292C96.4375 48.1388 96.4938 48.0936 96.5879 48.0936H96.8094C96.8851 48.0936 96.9229 48.1249 96.9229 48.1877C96.9229 48.2006 96.921 48.2144 96.9173 48.2292L96.9063 48.2818C97.0816 48.1194 97.3049 48.0382 97.5762 48.0382C97.9047 48.0382 98.1557 48.136 98.3292 48.3316C98.355 48.363 98.3781 48.3971 98.3984 48.4341C98.6291 48.1701 98.9548 48.0382 99.3756 48.0382C99.6912 48.0382 99.9422 48.136 100.129 48.3316C100.274 48.4885 100.347 48.6795 100.347 48.9047C100.347 48.9877 100.337 49.0754 100.317 49.1677L99.9265 51.003C99.908 51.0935 99.8527 51.1387 99.7604 51.1387H99.5389C99.4614 51.1387 99.4226 51.1073 99.4226 51.0446C99.4226 51.0316 99.4245 51.0178 99.4282 51.003L99.8185 49.1677C99.8333 49.1012 99.8407 49.0385 99.8407 48.9794C99.8388 48.8576 99.8065 48.7543 99.7438 48.6694C99.6515 48.5439 99.4928 48.4811 99.2676 48.4811C99 48.4811 98.762 48.5955 98.5534 48.8244C98.5534 48.9407 98.5414 49.0551 98.5174 49.1677L98.1271 51.003C98.1086 51.0935 98.0533 51.1387 97.961 51.1387H97.7395C97.662 51.1387 97.6233 51.1073 97.6233 51.0446C97.6233 51.0316 97.6251 51.0178 97.6288 51.003L98.0191 49.1677C98.0339 49.1012 98.0413 49.0385 98.0413 48.9794C98.0394 48.8576 98.0071 48.7543 97.9444 48.6694C97.8521 48.5439 97.6934 48.4811 97.4682 48.4811C97.1914 48.4811 96.9699 48.578 96.8038 48.7718L96.3277 51.003C96.3092 51.0935 96.2539 51.1387 96.1616 51.1387H95.9401ZM101.219 51.0944C101.155 51.1608 101.076 51.194 100.984 51.194C100.892 51.194 100.813 51.1608 100.749 51.0944C100.684 51.0279 100.652 50.9486 100.652 50.8563C100.652 50.7622 100.684 50.6819 100.749 50.6155C100.813 50.549 100.892 50.5158 100.984 50.5158C101.076 50.5158 101.155 50.549 101.219 50.6155C101.284 50.6819 101.316 50.7622 101.316 50.8563C101.316 50.9486 101.284 51.0279 101.219 51.0944ZM103.968 51.1387H103.747C103.669 51.1387 103.63 51.1073 103.63 51.0446C103.63 51.0316 103.632 51.0178 103.636 51.003L103.647 50.9504C103.479 51.1128 103.256 51.194 102.977 51.194C102.66 51.194 102.409 51.0962 102.224 50.9006C102.078 50.7437 102.005 50.5527 102.005 50.3276C102.005 50.2445 102.016 50.1569 102.036 50.0646L102.426 48.2292C102.445 48.1388 102.5 48.0936 102.592 48.0936H102.814C102.891 48.0936 102.93 48.1249 102.93 48.1877C102.93 48.2006 102.928 48.2144 102.925 48.2292L102.534 50.0646C102.519 50.131 102.512 50.1938 102.512 50.2528C102.514 50.3746 102.546 50.478 102.609 50.5629C102.701 50.6884 102.86 50.7511 103.085 50.7511C103.362 50.7511 103.583 50.6542 103.749 50.4604L104.226 48.2292C104.244 48.1388 104.3 48.0936 104.394 48.0936H104.616C104.692 48.0936 104.729 48.124 104.729 48.1849C104.729 48.1978 104.728 48.2126 104.724 48.2292L104.134 51.003C104.116 51.0935 104.06 51.1387 103.968 51.1387ZM106.385 51.194C106.025 51.194 105.765 51.0962 105.604 50.9006C105.458 50.7234 105.386 50.5241 105.386 50.3026C105.386 50.2251 105.395 50.1458 105.413 50.0646L105.804 48.2292C105.822 48.1388 105.878 48.0936 105.972 48.0936H106.194C106.27 48.0936 106.307 48.124 106.307 48.1849C106.307 48.1978 106.306 48.2126 106.302 48.2292L105.912 50.0646C105.897 50.131 105.889 50.1928 105.889 50.2501C105.889 50.3737 105.922 50.478 105.986 50.5629C106.08 50.6884 106.24 50.7511 106.465 50.7511C106.742 50.7511 106.963 50.6542 107.13 50.4604L107.603 48.2292C107.621 48.1388 107.678 48.0936 107.772 48.0936H107.993C108.069 48.0936 108.107 48.124 108.107 48.1849C108.107 48.1978 108.105 48.2126 108.101 48.2292L107.484 51.1442C107.403 51.5299 107.257 51.8086 107.047 51.9802C106.803 52.1759 106.504 52.2737 106.15 52.2737H105.527C105.449 52.2737 105.41 52.2423 105.41 52.1795C105.41 52.1666 105.412 52.1528 105.416 52.138L105.452 51.9664C105.47 51.876 105.527 51.8307 105.621 51.8307H106.188C106.38 51.8307 106.548 51.7754 106.692 51.6646C106.838 51.5521 106.931 51.3989 106.972 51.2051L107.024 50.9504C106.849 51.1128 106.636 51.194 106.385 51.194Z" fill="white"/>
</g>
</g>
<defs>
<filter id="filter0_d_247_4039" x="0.20266" y="0.408471" width="226.848" height="165.688" filterUnits="userSpaceOnUse" color-interpolation-filters="sRGB">
<feFlood flood-opacity="0" result="BackgroundImageFix"/>
<feColorMatrix in="SourceAlpha" type="matrix" values="0 0 0 0 0 0 0 0 0 0 0 0 0 0 0 0 0 0 127 0" result="hardAlpha"/>
<feOffset dx="3.96977" dy="3.96977"/>
<feGaussianBlur stdDeviation="2.83473"/>
<feColorMatrix type="matrix" values="0 0 0 0 0.113725 0 0 0 0 0.113725 0 0 0 0 0.105882 0 0 0 0.75 0"/>
<feBlend mode="normal" in2="BackgroundImageFix" result="effect1_dropShadow_247_4039"/>
<feBlend mode="normal" in="SourceGraphic" in2="effect1_dropShadow_247_4039" result="shape"/>
</filter>
<clipPath id="clip0_247_4039">
<rect width="120.551" height="27.1425" fill="white" transform="translate(9.38086 25.2297)"/>
</clipPath>
</defs>
</svg>
