<svg width="375" height="358" viewBox="0 0 375 358" fill="none" xmlns="http://www.w3.org/2000/svg">
<g clip-path="url(#clip0_90_4026)">
<path d="M295.293 30.5776H76.7241V73.5087H295.293V30.5776Z" fill="white" stroke="black" stroke-width="0.862069" stroke-miterlimit="10"/>
<path d="M117.484 58.0648C116.236 58.0648 115.259 57.602 114.552 56.6765C114.466 56.5558 114.423 56.4293 114.423 56.2971C114.423 56.1074 114.552 55.9119 114.811 55.7107L115.544 55.1416C115.733 54.9921 115.894 54.9174 116.027 54.9174C116.222 54.9174 116.38 55.0065 116.501 55.1847C116.834 55.6733 117.32 55.9177 117.958 55.9177C118.458 55.9177 118.858 55.8084 119.157 55.59C119.421 55.4003 119.576 55.1933 119.622 54.9691C119.634 54.8944 119.64 54.8254 119.64 54.7622C119.64 54.446 119.476 54.2304 119.148 54.1154L118.001 53.7102C116.662 53.2388 115.992 52.4253 115.992 51.2698C115.992 51.1549 115.998 51.0399 116.009 50.9249C116.101 50.0626 116.498 49.39 117.199 48.9071C117.849 48.4587 118.628 48.2345 119.536 48.2345C120.789 48.2345 121.686 48.6628 122.227 49.5194C122.296 49.6286 122.33 49.7551 122.33 49.8988C122.33 50.1057 122.209 50.3012 121.968 50.4851L121.347 50.9594C121.152 51.1089 120.988 51.1836 120.855 51.1836C120.66 51.1836 120.505 51.0945 120.39 50.9163C120.125 50.5311 119.74 50.3385 119.234 50.3385C119.022 50.3385 118.838 50.3903 118.682 50.4938C118.498 50.626 118.407 50.8013 118.407 51.0198C118.407 51.2957 118.567 51.4912 118.889 51.6061L120.321 52.1235C121.54 52.5662 122.149 53.3509 122.149 54.4776C122.149 54.5811 122.143 54.6903 122.132 54.8053C122.045 55.7193 121.591 56.481 120.769 57.0904C119.918 57.74 118.823 58.0648 117.484 58.0648ZM127.374 58.0648C126.001 58.0648 124.963 57.6509 124.262 56.8231C123.623 56.07 123.304 55.1186 123.304 53.9688C123.304 53.7044 123.322 53.4313 123.356 53.1497C123.54 51.5573 124.175 50.3328 125.262 49.4762C126.314 48.6484 127.501 48.2345 128.823 48.2345C130.186 48.2345 131.223 48.6484 131.936 49.4762C132.609 50.2638 132.945 51.2296 132.945 52.3736C132.945 52.6208 132.928 52.8795 132.893 53.1497C132.721 54.6098 132.068 55.8343 130.936 56.8231C129.987 57.6509 128.8 58.0648 127.374 58.0648ZM127.59 55.6503C128.13 55.6503 128.636 55.4606 129.108 55.0812C129.7 54.6098 130.062 53.966 130.194 53.1497C130.24 52.8622 130.263 52.6007 130.263 52.365C130.263 51.8476 130.148 51.4509 129.918 51.175C129.614 50.8243 129.191 50.649 128.651 50.649C128.11 50.649 127.619 50.8243 127.176 51.175C126.567 51.6579 126.193 52.3161 126.055 53.1497C126.003 53.4371 125.978 53.6987 125.978 53.9344C125.978 54.4345 126.09 54.8168 126.314 55.0812C126.647 55.4606 127.073 55.6503 127.59 55.6503ZM137.3 61.4278H134.989C134.609 61.4278 134.42 61.2726 134.42 60.9621C134.42 60.9047 134.428 60.8328 134.445 60.7466L134.626 59.867C134.718 59.4129 134.997 59.1858 135.463 59.1858H137.515C137.998 59.1858 138.392 59.0766 138.697 58.8581C139.036 58.6109 139.246 58.2947 139.326 57.9096L139.421 57.4526C138.875 57.8607 138.242 58.0648 137.524 58.0648C136.506 58.0648 135.704 57.7457 135.118 57.1076C134.606 56.55 134.351 55.9062 134.351 55.1761C134.351 54.9404 134.379 54.6874 134.437 54.4172L135.566 49.0882C135.664 48.6341 135.943 48.407 136.403 48.407H137.61C137.989 48.407 138.179 48.5622 138.179 48.8726C138.179 48.9359 138.171 49.0077 138.153 49.0882L137.058 54.2362C137.029 54.3741 137.015 54.5006 137.015 54.6156C137.015 54.8858 137.093 55.1071 137.248 55.2796C137.472 55.5267 137.851 55.6503 138.386 55.6503C138.921 55.6503 139.418 55.4894 139.878 55.1675L141.171 49.0882C141.269 48.6341 141.548 48.407 142.008 48.407H143.215C143.594 48.407 143.784 48.5622 143.784 48.8726C143.784 48.9359 143.776 49.0077 143.758 49.0882L141.93 57.6854C141.66 58.9501 141.174 59.8699 140.473 60.4448C139.68 61.1001 138.622 61.4278 137.3 61.4278ZM148.691 58.0648C147.311 58.0648 146.256 57.6538 145.526 56.8317C144.899 56.1246 144.586 55.1789 144.586 53.9947C144.586 53.759 144.598 53.5147 144.621 53.2618C144.77 51.7154 145.448 50.4535 146.656 49.4762C147.679 48.6484 148.88 48.2345 150.26 48.2345C151.76 48.2345 152.807 48.6944 153.399 49.6142C153.663 50.0224 153.795 50.4535 153.795 50.9077C153.795 51.0744 153.775 51.2468 153.735 51.425C153.494 52.569 152.723 53.325 151.424 53.6929L147.389 54.8312C147.446 54.9749 147.529 55.1071 147.639 55.2278C147.903 55.5095 148.354 55.6503 148.992 55.6503C149.562 55.6503 150.047 55.4664 150.45 55.0985C150.639 54.9203 150.832 54.8312 151.027 54.8312C151.154 54.8312 151.286 54.9059 151.424 55.0554L152.14 55.8573C152.249 55.978 152.304 56.1189 152.304 56.2798C152.304 56.458 152.197 56.6391 151.985 56.8231C151.076 57.6509 149.978 58.0648 148.691 58.0648ZM147.371 52.96L150.312 52.1235C150.789 51.9855 151.062 51.7613 151.131 51.4509C151.142 51.3877 151.148 51.3273 151.148 51.2698C151.148 51.0974 151.085 50.9537 150.959 50.8387C150.746 50.6547 150.433 50.5627 150.019 50.5627C149.426 50.5627 148.929 50.7237 148.527 51.0456C147.929 51.5228 147.544 52.1609 147.371 52.96ZM155.649 57.8923H154.442C154.063 57.8923 153.873 57.7371 153.873 57.4267C153.873 57.3635 153.882 57.2916 153.899 57.2111L155.624 49.0882C155.721 48.6341 156 48.407 156.46 48.407H157.667C158.047 48.407 158.236 48.5536 158.236 48.8468C158.834 48.4386 159.507 48.2345 160.254 48.2345C161.237 48.2345 162.016 48.5708 162.591 49.2434C163.517 48.5708 164.511 48.2345 165.575 48.2345C166.701 48.2345 167.555 48.5536 168.136 49.1917C168.647 49.7551 168.903 50.4047 168.903 51.1405C168.903 51.3819 168.877 51.6291 168.825 51.8821L167.696 57.2111C167.598 57.6653 167.319 57.8923 166.859 57.8923H165.652C165.273 57.8923 165.083 57.7371 165.083 57.4267C165.083 57.3635 165.092 57.2916 165.109 57.2111L166.204 52.0632C166.233 51.9252 166.247 51.7987 166.247 51.6837C166.247 51.4136 166.17 51.1922 166.014 51.0198C165.79 50.7726 165.402 50.649 164.85 50.649C164.27 50.649 163.744 50.8444 163.272 51.2353C163.266 51.5458 163.238 51.8217 163.186 52.0632L162.091 57.2111C161.993 57.6653 161.714 57.8923 161.254 57.8923H160.047C159.668 57.8923 159.478 57.7371 159.478 57.4267C159.478 57.3635 159.487 57.2916 159.504 57.2111L160.599 52.0632C160.628 51.9252 160.642 51.7987 160.642 51.6837C160.642 51.4136 160.565 51.1922 160.409 51.0198C160.185 50.7726 159.797 50.649 159.245 50.649C158.699 50.649 158.21 50.8099 157.779 51.1319L156.486 57.2111C156.388 57.6653 156.109 57.8923 155.649 57.8923ZM170.938 61.4278H169.731C169.351 61.4278 169.162 61.2726 169.162 60.9621C169.162 60.8989 169.17 60.827 169.188 60.7466L171.662 49.0882C171.76 48.6341 172.039 48.407 172.499 48.407H173.706C174.086 48.407 174.275 48.5536 174.275 48.8468C174.793 48.4386 175.396 48.2345 176.086 48.2345C177.161 48.2345 177.992 48.5536 178.578 49.1917C179.268 49.9448 179.613 50.9278 179.613 52.1408C179.613 52.4627 179.59 52.799 179.544 53.1497C179.314 54.834 178.561 56.1534 177.285 57.1076C176.428 57.7457 175.505 58.0648 174.517 58.0648C173.614 58.0648 172.924 57.8607 172.447 57.4526L171.775 60.7466C171.683 61.2007 171.404 61.4278 170.938 61.4278ZM172.956 55.1933C173.249 55.498 173.657 55.6503 174.18 55.6503C174.709 55.6503 175.201 55.475 175.655 55.1243C176.213 54.6932 176.586 54.035 176.776 53.1497C176.839 52.8565 176.871 52.5892 176.871 52.3477C176.871 51.8763 176.753 51.4998 176.517 51.2181C176.195 50.8387 175.77 50.649 175.241 50.649C174.718 50.649 174.244 50.8042 173.818 51.1146L172.956 55.1933ZM182.174 57.8923H180.967C180.587 57.8923 180.398 57.7371 180.398 57.4267C180.398 57.3635 180.406 57.2916 180.423 57.2111L182.148 49.0882C182.246 48.6341 182.525 48.407 182.985 48.407H184.192C184.571 48.407 184.761 48.5536 184.761 48.8468C185.307 48.4386 185.939 48.2345 186.658 48.2345C187.698 48.2345 188.518 48.5737 189.115 49.252C189.202 49.3498 189.245 49.4676 189.245 49.6056C189.245 49.7953 189.118 49.9994 188.865 50.2178L187.882 51.0629C187.71 51.2123 187.549 51.2871 187.4 51.2871C187.25 51.2871 187.092 51.198 186.925 51.0198C186.701 50.7726 186.322 50.649 185.787 50.649C185.258 50.649 184.764 50.8099 184.304 51.1319L183.01 57.2111C182.913 57.6653 182.634 57.8923 182.174 57.8923ZM192.72 58.0648C191.34 58.0648 190.285 57.6538 189.555 56.8317C188.929 56.1246 188.615 55.1789 188.615 53.9947C188.615 53.759 188.627 53.5147 188.65 53.2618C188.799 51.7154 189.478 50.4535 190.685 49.4762C191.708 48.6484 192.91 48.2345 194.289 48.2345C195.79 48.2345 196.836 48.6944 197.428 49.6142C197.693 50.0224 197.825 50.4535 197.825 50.9077C197.825 51.0744 197.805 51.2468 197.764 51.425C197.523 52.569 196.753 53.325 195.453 53.6929L191.418 54.8312C191.475 54.9749 191.559 55.1071 191.668 55.2278C191.932 55.5095 192.384 55.6503 193.022 55.6503C193.591 55.6503 194.077 55.4664 194.479 55.0985C194.669 54.9203 194.861 54.8312 195.057 54.8312C195.183 54.8312 195.315 54.9059 195.453 55.0554L196.169 55.8573C196.278 55.978 196.333 56.1189 196.333 56.2798C196.333 56.458 196.227 56.6391 196.014 56.8231C195.106 57.6509 194.008 58.0648 192.72 58.0648ZM191.401 52.96L194.341 52.1235C194.818 51.9855 195.091 51.7613 195.16 51.4509C195.172 51.3877 195.177 51.3273 195.177 51.2698C195.177 51.0974 195.114 50.9537 194.988 50.8387C194.775 50.6547 194.462 50.5627 194.048 50.5627C193.456 50.5627 192.959 50.7237 192.556 51.0456C191.958 51.5228 191.573 52.1609 191.401 52.96ZM199.679 57.8923H198.472C198.092 57.8923 197.902 57.7371 197.902 57.4267C197.902 57.3635 197.911 57.2916 197.928 57.2111L199.653 49.0882C199.751 48.6341 200.029 48.407 200.489 48.407H201.697C202.076 48.407 202.266 48.5536 202.266 48.8468C202.812 48.4386 203.444 48.2345 204.163 48.2345C205.18 48.2345 205.982 48.5536 206.569 49.1917C207.08 49.7493 207.336 50.3932 207.336 51.1232C207.336 51.3589 207.307 51.6119 207.25 51.8821L206.12 57.2111C206.022 57.6653 205.744 57.8923 205.284 57.8923H204.076C203.697 57.8923 203.507 57.7371 203.507 57.4267C203.507 57.3635 203.516 57.2916 203.533 57.2111L204.628 52.0632C204.657 51.9252 204.671 51.7987 204.671 51.6837C204.671 51.4136 204.594 51.1922 204.439 51.0198C204.214 50.7726 203.835 50.649 203.3 50.649C202.766 50.649 202.269 50.8099 201.809 51.1319L200.515 57.2111C200.417 57.6653 200.139 57.8923 199.679 57.8923ZM215.769 57.8923H214.562C214.165 57.8923 213.967 57.7457 213.967 57.4526C213.45 57.8607 212.846 58.0648 212.156 58.0648C211.081 58.0648 210.251 57.7457 209.664 57.1076C208.974 56.3546 208.629 55.3715 208.629 54.1586C208.629 53.8366 208.652 53.5003 208.698 53.1497C208.928 51.4653 209.681 50.146 210.958 49.1917C211.814 48.5536 212.737 48.2345 213.726 48.2345C214.628 48.2345 215.318 48.4386 215.795 48.8468L216.494 45.5528C216.591 45.0986 216.87 44.8715 217.33 44.8715H218.537C218.917 44.8715 219.106 45.0267 219.106 45.3372C219.106 45.4004 219.098 45.4723 219.081 45.5528L216.606 57.2111C216.508 57.6653 216.229 57.8923 215.769 57.8923ZM215.286 51.106C214.993 50.8013 214.582 50.649 214.053 50.649C213.53 50.649 213.042 50.8243 212.587 51.175C212.03 51.6061 211.656 52.2644 211.466 53.1497C211.403 53.4428 211.372 53.7102 211.372 53.9516C211.372 54.423 211.489 54.7995 211.725 55.0812C212.047 55.4606 212.47 55.6503 212.993 55.6503C213.522 55.6503 213.999 55.4951 214.424 55.1847L215.286 51.106ZM223.263 58.0648C221.883 58.0648 220.828 57.6538 220.098 56.8317C219.471 56.1246 219.158 55.1789 219.158 53.9947C219.158 53.759 219.17 53.5147 219.193 53.2618C219.342 51.7154 220.02 50.4535 221.228 49.4762C222.251 48.6484 223.452 48.2345 224.832 48.2345C226.333 48.2345 227.379 48.6944 227.971 49.6142C228.235 50.0224 228.368 50.4535 228.368 50.9077C228.368 51.0744 228.347 51.2468 228.307 51.425C228.066 52.569 227.295 53.325 225.996 53.6929L221.961 54.8312C222.018 54.9749 222.102 55.1071 222.211 55.2278C222.475 55.5095 222.926 55.6503 223.565 55.6503C224.134 55.6503 224.619 55.4664 225.022 55.0985C225.212 54.9203 225.404 54.8312 225.6 54.8312C225.726 54.8312 225.858 54.9059 225.996 55.0554L226.712 55.8573C226.821 55.978 226.876 56.1189 226.876 56.2798C226.876 56.458 226.769 56.6391 226.557 56.8231C225.648 57.6509 224.55 58.0648 223.263 58.0648ZM221.943 52.96L224.884 52.1235C225.361 51.9855 225.634 51.7613 225.703 51.4509C225.715 51.3877 225.72 51.3273 225.72 51.2698C225.72 51.0974 225.657 50.9537 225.531 50.8387C225.318 50.6547 225.005 50.5627 224.591 50.5627C223.999 50.5627 223.501 50.7237 223.099 51.0456C222.501 51.5228 222.116 52.1609 221.943 52.96ZM235.965 57.8923H234.757C234.361 57.8923 234.162 57.7457 234.162 57.4526C233.645 57.8607 233.041 58.0648 232.351 58.0648C231.276 58.0648 230.446 57.7457 229.859 57.1076C229.17 56.3546 228.825 55.3715 228.825 54.1586C228.825 53.8366 228.848 53.5003 228.894 53.1497C229.124 51.4653 229.877 50.146 231.153 49.1917C232.009 48.5536 232.932 48.2345 233.921 48.2345C234.823 48.2345 235.513 48.4386 235.99 48.8468L236.689 45.5528C236.787 45.0986 237.065 44.8715 237.525 44.8715H238.733C239.112 44.8715 239.302 45.0267 239.302 45.3372C239.302 45.4004 239.293 45.4723 239.276 45.5528L236.801 57.2111C236.703 57.6653 236.424 57.8923 235.965 57.8923ZM235.482 51.106C235.188 50.8013 234.777 50.649 234.249 50.649C233.725 50.649 233.237 50.8243 232.783 51.175C232.225 51.6061 231.851 52.2644 231.662 53.1497C231.598 53.4428 231.567 53.7102 231.567 53.9516C231.567 54.423 231.685 54.7995 231.92 55.0812C232.242 55.4606 232.665 55.6503 233.188 55.6503C233.717 55.6503 234.194 55.4951 234.619 55.1847L235.482 51.106ZM243.492 58.0648C242.118 58.0648 241.081 57.6509 240.38 56.8231C239.741 56.07 239.422 55.1186 239.422 53.9688C239.422 53.7044 239.44 53.4313 239.474 53.1497C239.658 51.5573 240.293 50.3328 241.38 49.4762C242.432 48.6484 243.619 48.2345 244.941 48.2345C246.304 48.2345 247.341 48.6484 248.054 49.4762C248.727 50.2638 249.063 51.2296 249.063 52.3736C249.063 52.6208 249.046 52.8795 249.011 53.1497C248.839 54.6098 248.186 55.8343 247.054 56.8231C246.105 57.6509 244.918 58.0648 243.492 58.0648ZM243.708 55.6503C244.248 55.6503 244.754 55.4606 245.226 55.0812C245.818 54.6098 246.18 53.966 246.312 53.1497C246.358 52.8622 246.381 52.6007 246.381 52.365C246.381 51.8476 246.266 51.4509 246.036 51.175C245.732 50.8243 245.309 50.649 244.769 50.649C244.228 50.649 243.737 50.8243 243.294 51.175C242.685 51.6579 242.311 52.3161 242.173 53.1497C242.121 53.4371 242.095 53.6987 242.095 53.9344C242.095 54.4345 242.208 54.8168 242.432 55.0812C242.765 55.4606 243.191 55.6503 243.708 55.6503ZM251.71 57.8923H250.503C250.124 57.8923 249.934 57.7371 249.934 57.4267C249.934 57.3635 249.942 57.2916 249.96 57.2111L251.684 49.0882C251.782 48.6341 252.061 48.407 252.521 48.407H253.728C254.107 48.407 254.297 48.5536 254.297 48.8468C254.843 48.4386 255.476 48.2345 256.194 48.2345C257.235 48.2345 258.054 48.5737 258.652 49.252C258.738 49.3498 258.781 49.4676 258.781 49.6056C258.781 49.7953 258.655 49.9994 258.402 50.2178L257.419 51.0629C257.246 51.2123 257.085 51.2871 256.936 51.2871C256.786 51.2871 256.628 51.198 256.461 51.0198C256.237 50.7726 255.858 50.649 255.323 50.649C254.794 50.649 254.3 50.8099 253.84 51.1319L252.547 57.2111C252.449 57.6653 252.17 57.8923 251.71 57.8923Z" fill="black"/>
<path d="M99.7583 30.5776V0" stroke="black" stroke-width="0.862069" stroke-miterlimit="10"/>
<path d="M266.888 30.5776V0" stroke="black" stroke-width="0.862069" stroke-miterlimit="10"/>
<path d="M241.233 167.638H182.724C182.586 167.638 182.474 167.483 182.474 167.284V118.922C182.474 118.724 182.586 118.569 182.724 118.569H241.043C241.284 118.569 241.483 118.853 241.483 119.198V167.284C241.483 167.483 241.371 167.638 241.233 167.638Z" fill="#F5A461"/>
<path d="M263.406 167.638H241.569C241.518 167.638 241.475 167.483 241.475 167.284V118.922C241.475 118.724 241.518 118.569 241.569 118.569H263.337C263.432 118.569 263.5 118.853 263.5 119.198V167.284C263.5 167.483 263.457 167.638 263.406 167.638Z" fill="#EE8D35"/>
<path d="M205.095 163.035H186.285C185.819 163.035 185.44 162.655 185.44 162.19V153.535C185.44 153.069 185.819 152.69 186.285 152.69H205.095C205.561 152.69 205.94 153.069 205.94 153.535V162.19C205.94 162.655 205.561 163.035 205.095 163.035ZM186.285 153.319C186.164 153.319 186.061 153.414 186.061 153.543V162.198C186.061 162.319 186.155 162.422 186.285 162.422H205.095C205.216 162.422 205.319 162.328 205.319 162.198V153.543C205.319 153.422 205.224 153.319 205.095 153.319H186.285Z" fill="white"/>
<path d="M205.043 165.517C202.483 165.517 200.396 163.431 200.396 160.871C200.396 158.31 202.483 156.224 205.043 156.224C207.603 156.224 209.69 158.31 209.69 160.871C209.69 163.431 207.603 165.517 205.043 165.517ZM205.043 156.845C202.819 156.845 201.017 158.655 201.017 160.871C201.017 163.086 202.828 164.897 205.043 164.897C207.259 164.897 209.069 163.086 209.069 160.871C209.069 158.647 207.259 156.845 205.043 156.845Z" fill="white"/>
<path d="M198.707 156.164H188.371C188.198 156.164 188.061 156.026 188.061 155.853C188.061 155.681 188.198 155.543 188.371 155.543H198.707C198.88 155.543 199.017 155.681 199.017 155.853C199.017 156.026 198.88 156.164 198.707 156.164Z" fill="white"/>
<path d="M198.707 158.181H188.371C188.198 158.181 188.061 158.043 188.061 157.871C188.061 157.698 188.198 157.56 188.371 157.56H198.707C198.88 157.56 199.017 157.698 199.017 157.871C199.017 158.043 198.88 158.181 198.707 158.181Z" fill="white"/>
<path d="M343.483 68.6121H254.992C254.509 68.6121 254.121 69.0086 254.121 69.5V167.353C254.121 167.845 254.509 168.241 254.992 168.241H343.483C343.966 168.241 344.354 167.845 344.354 167.353V69.5C344.354 69.0086 343.966 68.6121 343.483 68.6121Z" fill="#F39439"/>
<path d="M254.121 153.448H271.931C272.181 153.448 272.388 153.241 272.388 152.983V122.5C272.388 122.241 272.181 122.034 271.931 122.034H254.121V153.448Z" fill="white"/>
<path d="M295.172 76.2671H258.827C258.655 76.2671 258.517 76.1205 258.517 75.9481C258.517 75.7757 258.655 75.6292 258.827 75.6292H295.172C295.345 75.6292 295.483 75.7757 295.483 75.9481C295.483 76.1205 295.345 76.2671 295.172 76.2671Z" fill="white"/>
<path d="M295.172 81.4397H258.827C258.655 81.4397 258.517 81.2931 258.517 81.1207C258.517 80.9483 258.655 80.8018 258.827 80.8018H295.172C295.345 80.8018 295.483 80.9483 295.483 81.1207C295.483 81.2931 295.345 81.4397 295.172 81.4397Z" fill="white"/>
<path d="M286.672 86.6206H258.827C258.655 86.6206 258.517 86.474 258.517 86.3016C258.517 86.1292 258.655 85.9827 258.827 85.9827H286.672C286.845 85.9827 286.983 86.1292 286.983 86.3016C286.983 86.474 286.845 86.6206 286.672 86.6206Z" fill="white"/>
<path d="M178.664 101.138H255.301C255.715 101.138 256.051 101.534 256.051 102.026V118.06C256.051 118.552 255.715 118.948 255.301 118.948H178.664C178.25 118.948 177.914 118.552 177.914 118.06V102.026C177.914 101.534 178.25 101.138 178.664 101.138Z" fill="#BE7D40"/>
<path d="M188.759 77.4482H239.276C239.759 77.4482 240.147 77.8448 240.147 78.3362V100.25C240.147 100.741 239.759 101.138 239.276 101.138H188.759C188.276 101.138 187.888 100.741 187.888 100.25V78.3362C187.888 77.8448 188.276 77.4482 188.759 77.4482Z" fill="white"/>
<path d="M239.276 101.457H188.759C188.104 101.457 187.578 100.914 187.578 100.25V78.336C187.578 77.6723 188.104 77.1292 188.759 77.1292H239.276C239.931 77.1292 240.457 77.6723 240.457 78.336V100.25C240.457 100.914 239.922 101.457 239.276 101.457ZM188.759 77.7585C188.448 77.7585 188.198 78.0171 188.198 78.336V100.25C188.198 100.569 188.448 100.827 188.759 100.827H239.276C239.586 100.827 239.836 100.569 239.836 100.25V78.336C239.836 78.0171 239.586 77.7585 239.276 77.7585H188.759Z" fill="#D26214"/>
<path d="M235.258 95.9826H216.491C216.319 95.9826 216.181 95.8447 216.181 95.6722V84.5516C216.181 84.3791 216.319 84.2412 216.491 84.2412H235.258C235.431 84.2412 235.569 84.3791 235.569 84.5516V95.6722C235.569 95.8447 235.431 95.9826 235.258 95.9826ZM216.801 95.3619H234.948V84.8619H216.801V95.3619Z" fill="#D7E2F4"/>
<path d="M256.06 119.267H183.189C183.017 119.267 182.879 119.121 182.879 118.948C182.879 118.776 183.017 118.629 183.189 118.629H256.06C256.232 118.629 256.37 118.776 256.37 118.948C256.37 119.121 256.232 119.267 256.06 119.267Z" fill="white"/>
<path d="M227.673 119.216C227.5 119.216 227.362 119.078 227.362 118.905V101.491C227.362 101.319 227.5 101.181 227.673 101.181C227.845 101.181 227.983 101.319 227.983 101.491V118.905C227.983 119.078 227.845 119.216 227.673 119.216Z" fill="white"/>
<path d="M265.879 127.31H254.129C253.957 127.31 253.819 127.164 253.819 126.991C253.819 126.819 253.957 126.672 254.129 126.672H265.879C266.052 126.672 266.19 126.819 266.19 126.991C266.19 127.164 266.052 127.31 265.879 127.31Z" fill="black"/>
<path d="M265.879 130.457H254.129C253.957 130.457 253.819 130.31 253.819 130.138C253.819 129.966 253.957 129.819 254.129 129.819H265.879C266.052 129.819 266.19 129.966 266.19 130.138C266.19 130.31 266.052 130.457 265.879 130.457Z" fill="black"/>
<path d="M265.879 133.595H254.129C253.957 133.595 253.819 133.448 253.819 133.276C253.819 133.103 253.957 132.957 254.129 132.957H265.879C266.052 132.957 266.19 133.103 266.19 133.276C266.19 133.448 266.052 133.595 265.879 133.595Z" fill="black"/>
<path d="M265.879 136.733H254.129C253.957 136.733 253.819 136.586 253.819 136.414C253.819 136.242 253.957 136.095 254.129 136.095H265.879C266.052 136.095 266.19 136.242 266.19 136.414C266.19 136.586 266.052 136.733 265.879 136.733Z" fill="black"/>
<path d="M358.406 167.784H57.2764V340.552H358.406V167.784Z" fill="#A0463A"/>
<path d="M75.3535 185.914V326.086" stroke="#B7746C" stroke-width="0.862069" stroke-miterlimit="10"/>
<path d="M96.1377 185.914V326.086" stroke="#B7746C" stroke-width="0.862069" stroke-miterlimit="10"/>
<path d="M120.525 185.914V326.086" stroke="#B7746C" stroke-width="0.862069" stroke-miterlimit="10"/>
<path d="M144.923 185.914V326.086" stroke="#B7746C" stroke-width="0.862069" stroke-miterlimit="10"/>
<path d="M169.311 185.914V326.086" stroke="#B7746C" stroke-width="0.862069" stroke-miterlimit="10"/>
<path d="M193.707 185.914V326.086" stroke="#B7746C" stroke-width="0.862069" stroke-miterlimit="10"/>
<path d="M218.104 185.914V326.086" stroke="#B7746C" stroke-width="0.862069" stroke-miterlimit="10"/>
<path d="M242.491 185.914V326.086" stroke="#B7746C" stroke-width="0.862069" stroke-miterlimit="10"/>
<path d="M266.888 185.914V326.086" stroke="#B7746C" stroke-width="0.862069" stroke-miterlimit="10"/>
<path d="M291.276 185.914V326.086" stroke="#B7746C" stroke-width="0.862069" stroke-miterlimit="10"/>
<path d="M315.672 185.914V326.086" stroke="#B7746C" stroke-width="0.862069" stroke-miterlimit="10"/>
<path d="M340.069 185.914V326.086" stroke="#B7746C" stroke-width="0.862069" stroke-miterlimit="10"/>
<path d="M358.406 167.784H57.2764V179.388H358.406V167.784Z" fill="#8E3C33"/>
<path d="M358.406 178.991H57.2764V183.034H358.406V178.991Z" fill="#663531"/>
<path d="M48.8279 124.31C48.8279 124.31 42.0434 120.534 24.621 123.767C10.4141 129.957 -5.32727 176.638 8.92273 190.638C23.1727 204.638 44.2245 198.198 44.2245 198.198L48.8279 124.31Z" fill="#D46100"/>
<path d="M108.5 163.647C108.5 163.647 121.147 166.388 129.216 165.371C137.285 164.353 139.794 162.181 139.802 160.965C139.819 159.75 134.63 159.259 134.63 159.259C134.63 159.259 142.182 158.095 142.173 155.422C142.164 152.75 135.414 153.043 135.414 153.043C135.414 153.043 140.638 151.095 139.302 149.164C137.966 147.224 125.638 148.802 125.638 148.802C125.638 148.802 131.432 146.026 130.423 144.509C129.414 143 120.276 143.491 117.216 145.276C114.147 147.06 110.733 150.853 110.733 150.853L108.509 163.647H108.5Z" fill="#FD8753"/>
<path d="M115.414 155.983C115.25 155.983 115.104 155.871 115.06 155.707C115.017 155.509 115.138 155.319 115.328 155.267C123.448 153.328 125.276 148.707 125.293 148.664C125.362 148.474 125.578 148.379 125.759 148.448C125.948 148.517 126.043 148.724 125.974 148.914C125.897 149.121 124.026 153.931 115.5 155.974C115.474 155.974 115.44 155.983 115.414 155.983Z" fill="black"/>
<path d="M126.267 162.25C126.026 162.224 125.879 162.043 125.905 161.845L127.535 148.508C127.56 148.31 127.741 148.164 127.94 148.189C128.138 148.215 128.276 148.396 128.259 148.595L126.629 161.931C126.612 162.112 126.448 162.25 126.267 162.25Z" fill="black"/>
<path d="M74.638 129.991C74.638 129.991 85.0001 143.629 91.3794 145.276C97.7587 146.931 112.698 145.276 112.698 145.276L115.414 173.422C115.414 173.422 100.767 179.026 85.6121 177.241C75.6638 176.069 69.8276 172.578 69.8276 172.578L74.638 129.991Z" fill="#FF7500"/>
<path d="M72.1123 305.836L74.1985 322.259L95.9399 320.672L98.4485 314.871L96.3623 298.724L72.1209 305.836H72.1123Z" fill="#FD8753"/>
<path d="M16.5175 302.276L15.1123 321.664L39.6209 322.474V297.526L16.5089 302.284L16.5175 302.276Z" fill="#FD8753"/>
<path d="M27.0173 184.664C27.0173 184.664 20.9053 209.448 14.4225 257.233C9.35355 294.603 8.15527 310.474 8.15527 310.474H49.2242C49.2242 310.474 52.9398 292.267 55.1811 271.017C57.1725 252.155 59.1811 242.5 59.1811 242.5C59.1811 242.5 61.957 263.138 63.9053 276.517C65.8449 289.897 66.2587 310.371 66.2587 310.371L106.397 308.655C106.397 308.655 103.888 263.56 95.9484 232.207C88.0087 200.853 72.1208 173.888 72.1208 173.888L27.026 184.664H27.0173Z" fill="#5774CD"/>
<path d="M15.6549 309.448C15.4222 309.431 15.2756 309.25 15.2929 309.052C15.3446 308.474 20.6894 250.793 33.2325 191.31C33.2756 191.112 33.4653 190.983 33.6636 191.026C33.8618 191.069 33.9825 191.259 33.948 191.457C21.4136 250.888 16.0687 308.535 16.017 309.112C15.9998 309.302 15.8446 309.44 15.6549 309.44V309.448Z" fill="#3A3D74"/>
<path d="M53.94 104.035C53.94 104.035 57.1987 103.198 58.7245 101.259C60.2504 99.3191 60.5004 94.5087 60.5004 94.5087C60.5004 94.5087 66.4055 97.6898 67.9573 97.3363C69.509 96.9829 72.5521 89.7846 70.5004 86.6812C68.4486 83.5691 64.3107 87.4225 64.3107 87.4225C64.3107 87.4225 63.4573 82.9829 58.9314 84.0174C53.6124 85.2329 52.2331 90.8277 52.2331 90.8277C52.2331 90.8277 51.8797 84.7588 48.1728 87.4225C44.4745 90.0863 45.8021 97.0432 45.8021 97.0432C45.8021 97.0432 42.8452 98.3708 43.4314 101.259C44.0262 104.147 48.0176 106.931 48.0176 106.931L53.9314 104.043L53.94 104.035Z" fill="#5E1DBB"/>
<path d="M53.6726 112.129L52.7847 121.784C52.7847 121.784 54.1467 124.681 59.345 125.543C63.2157 126.19 64.6812 125.336 64.6812 125.336L64.5864 120.405L64.4916 115.595L55.2329 112.621L53.6812 112.121L53.6726 112.129Z" fill="#FD8753"/>
<path d="M55.1121 113.259C55.1121 113.509 55.1811 113.81 55.2932 114.164C56.8966 118.896 62.3535 120.129 64.5863 120.526L64.5087 116.121L55.1035 113.259H55.1121Z" fill="black"/>
<path d="M68.2929 95.5001C68.2929 95.5001 72.1205 107.379 69.6894 113.595C67.2584 119.81 61.5343 118.216 58.1722 116.629C54.8101 115.043 53.405 112.741 53.405 112.741C53.405 112.741 50.0343 113.517 48.1636 110.276C46.2929 107.026 47.9825 103.69 49.9222 103.078C51.8619 102.466 53.9394 104.035 53.9394 104.035L52.5429 100.552C52.5429 100.552 61.517 84.4742 68.3015 95.5001H68.2929Z" fill="#FD8753"/>
<path d="M53.2065 108.94C53.1203 108.94 53.0427 108.914 52.9738 108.853L49.1031 105.535C48.9479 105.405 48.9307 105.172 49.06 105.026C49.1893 104.871 49.422 104.854 49.5686 104.983L53.4393 108.302C53.5944 108.431 53.6117 108.664 53.4824 108.81C53.4134 108.897 53.31 108.94 53.2065 108.94Z" fill="black"/>
<path d="M59.1811 242.862C59.1811 242.862 59.1466 242.862 59.1294 242.862C58.9311 242.836 58.7932 242.655 58.819 242.457C60.6035 229.621 60.4397 200.405 60.4397 200.112C60.4397 199.957 60.5432 199.81 60.6897 199.767L70.5777 196.509C70.7673 196.44 70.9742 196.552 71.0345 196.741C71.0949 196.931 70.9914 197.138 70.8018 197.198L61.1639 200.371C61.1725 203.336 61.2328 230.319 59.5345 242.552C59.5087 242.733 59.3535 242.862 59.1725 242.862H59.1811Z" fill="#3A3D74"/>
<path d="M49.4569 108.569C49.2845 108.569 49.1293 108.448 49.1034 108.267C49.069 108.069 49.2069 107.879 49.3965 107.853L52.1724 107.388C52.3621 107.353 52.5603 107.491 52.5862 107.681C52.6207 107.879 52.4828 108.069 52.2931 108.095L49.5172 108.56C49.5172 108.56 49.4741 108.56 49.4569 108.56V108.569Z" fill="black"/>
<path d="M60.2503 99.6723C60.164 99.6723 60.0778 99.6378 60.0089 99.5775C59.8623 99.4396 59.8537 99.2154 59.983 99.0689C61.3537 97.5689 62.983 97.9999 63.6554 98.4396C63.8192 98.5516 63.8709 98.7758 63.7589 98.9395C63.6468 99.1033 63.4227 99.1551 63.2589 99.043C63.1985 98.9999 61.8106 98.1465 60.5175 99.5516C60.4485 99.6292 60.3451 99.6723 60.2503 99.6723Z" fill="black"/>
<path d="M69.1633 100C69.0685 100 68.9823 99.9655 68.9133 99.8966C68.0168 99.0172 66.9564 99.5 66.9047 99.5172C66.7237 99.6035 66.5081 99.5172 66.4219 99.3448C66.3357 99.1638 66.4133 98.9483 66.5943 98.8621C66.6547 98.8362 68.1547 98.1379 69.4219 99.3707C69.5685 99.5086 69.5685 99.7414 69.4219 99.8793C69.353 99.9569 69.2581 99.9914 69.1633 99.9914V100Z" fill="black"/>
<path d="M66.8883 108.569C66.8366 108.569 66.7848 108.56 66.7331 108.534C66.5521 108.448 66.4745 108.233 66.5693 108.052C67.5176 106.095 65.5004 103.75 65.4831 103.724C65.3538 103.569 65.371 103.345 65.5176 103.216C65.6641 103.086 65.8969 103.103 66.0262 103.25C66.121 103.362 68.3797 105.983 67.2159 108.371C67.1555 108.5 67.0262 108.578 66.8883 108.578V108.569Z" fill="black"/>
<path d="M68.7502 104.388C68.5778 104.388 68.4226 104.267 68.3967 104.095L68.0002 101.948C67.9657 101.75 68.095 101.56 68.2933 101.526C68.4916 101.491 68.6812 101.621 68.7157 101.819L69.1123 103.965C69.1467 104.164 69.0174 104.353 68.8192 104.388C68.7933 104.388 68.7761 104.388 68.7502 104.388Z" fill="black"/>
<path d="M62.9484 104.008C62.776 104.008 62.6208 103.888 62.595 103.715L62.1984 101.569C62.1639 101.371 62.2933 101.181 62.4915 101.146C62.6898 101.112 62.8795 101.241 62.914 101.44L63.3105 103.586C63.345 103.784 63.2157 103.974 63.0174 104.008C62.9915 104.008 62.9743 104.008 62.9484 104.008Z" fill="black"/>
<path d="M64.2844 112.026C63.4482 112.026 61.7413 111.569 61.0947 109.836C61.0258 109.646 61.1206 109.44 61.3103 109.371C61.4999 109.302 61.7068 109.396 61.7758 109.586C62.4051 111.302 64.2327 111.31 64.3016 111.302C64.4999 111.302 64.6637 111.465 64.6637 111.664C64.6637 111.862 64.5085 112.026 64.3016 112.026H64.2758H64.2844Z" fill="black"/>
<path d="M53.9395 104.034C53.9395 104.034 57.4309 103.405 58.724 100.448C60.0171 97.4913 59.8274 94.8189 59.8274 94.8189C59.8274 94.8189 61.5946 96.8189 64.655 96.4827C67.7153 96.1465 68.5602 92.8878 68.5602 92.8878L65.7584 89.4827C65.7584 89.4827 54.2326 91.9999 53.9481 91.6292C53.6636 91.2585 49.4653 98.9999 49.4653 98.9999L53.9481 104.026L53.9395 104.034Z" fill="#5E1DBB"/>
<path d="M50.6902 123.25C50.6902 123.25 51.0351 118.052 52.3109 118.164C53.5868 118.276 56.6471 120.457 59.8971 120.733C63.1471 121.008 64.8885 120.707 65.5351 120.707C66.1816 120.707 66.3282 124.31 66.3282 124.31C66.3282 124.31 73.3196 126.776 75.8971 131.94C78.4747 137.103 77.5868 184.146 77.5868 184.146C77.5868 184.146 59.4489 190.457 45.8454 189.922C32.242 189.388 29.9058 185.543 29.9058 185.543C29.9058 185.543 36.2851 128.241 39.923 125.69C43.5696 123.138 50.6902 123.258 50.6902 123.258V123.25Z" fill="#FF7500"/>
<path d="M135.397 342.948C135.94 342.871 136.31 342.336 136.216 341.767C135.759 339.069 134.138 331.526 129.871 328.327C124.629 324.396 113.638 322.819 109.638 320.198C105.638 317.577 101.172 311.25 98.7846 312.448C96.3966 313.646 91.9053 319.155 85.4052 318.371C78.9139 317.586 74.1639 317.586 72.4139 319.155C70.6639 320.724 71.4139 341.181 72.1639 342.491C72.9139 343.802 82.0604 342.595 82.8535 342.802C83.6466 343.017 85.8966 337.767 87.3966 338.56C88.8966 339.345 90.7242 341.81 92.9311 342.94C94.9915 343.991 128.836 343.836 135.388 342.957L135.397 342.948Z" fill="#5E1DBB"/>
<path d="M64.1553 187.629C64.1553 187.629 64.095 187.629 64.0691 187.621L60.0778 186.586C59.8967 186.543 59.7847 186.353 59.8364 186.172C59.8795 185.991 60.0691 185.879 60.2502 185.931L64.2415 186.965C64.4226 187.008 64.5347 187.198 64.4829 187.379C64.4398 187.534 64.3019 187.638 64.1553 187.638V187.629Z" fill="black"/>
<path d="M13.3709 320.646C13.3709 320.646 20.9226 311.224 23.9398 312.086C26.9571 312.948 31.8709 318.827 33.3795 319.095C34.8881 319.371 38.1123 316.939 39.6209 317.983C41.1295 319.026 44.7071 336.155 43.9485 338.526C43.1898 340.888 27.3364 347.896 17.5174 346.853C7.69846 345.802 2.03467 341.448 2.03467 338.526C2.03467 335.603 13.3623 320.646 13.3623 320.646H13.3709Z" fill="#5E1DBB"/>
<path d="M100.121 323.784C99.9998 323.784 99.8878 323.724 99.8188 323.621C99.7067 323.457 99.7499 323.233 99.9223 323.121L106.991 318.422C107.155 318.31 107.379 318.353 107.491 318.526C107.603 318.69 107.56 318.914 107.388 319.026L100.319 323.724C100.258 323.767 100.19 323.784 100.121 323.784Z" fill="white"/>
<path d="M108.439 326.086C108.327 326.086 108.215 326.035 108.146 325.931C108.034 325.767 108.069 325.543 108.233 325.422L113.146 321.948C113.31 321.836 113.534 321.871 113.655 322.035C113.767 322.198 113.733 322.422 113.569 322.543L108.655 326.017C108.595 326.06 108.517 326.086 108.448 326.086H108.439Z" fill="white"/>
<path d="M27.3883 327.095H14.4314C14.2331 327.095 14.0693 326.931 14.0693 326.733C14.0693 326.534 14.2331 326.371 14.4314 326.371H27.3883C27.5866 326.371 27.7504 326.534 27.7504 326.733C27.7504 326.931 27.5866 327.095 27.3883 327.095Z" fill="white"/>
<path d="M27.3877 321.647C27.3877 321.647 27.3446 321.647 27.3274 321.647C22.8274 320.897 14.5429 321.647 14.4653 321.647C14.267 321.655 14.086 321.517 14.0688 321.319C14.0515 321.121 14.1981 320.94 14.3963 320.923C14.7412 320.888 22.8532 320.155 27.4481 320.923C27.6463 320.957 27.7757 321.138 27.7498 321.336C27.7239 321.517 27.5688 321.638 27.3877 321.638V321.647Z" fill="white"/>
<path d="M91.5862 154.802C91.5086 154.802 91.4224 154.802 91.3276 154.784C90.7327 154.707 90.2672 154.405 89.9655 153.897C88.5948 151.603 90.9396 145.414 91.0345 145.155C91.0862 145.017 91.2155 144.888 91.3793 144.922C91.5345 144.922 91.6638 145.026 91.7155 145.164C91.9741 145.905 94.1983 152.448 92.7069 154.284C92.5086 154.534 92.1551 154.802 91.5862 154.802ZM91.362 146.414C90.6638 148.526 89.75 152.129 90.5862 153.526C90.7758 153.845 91.0517 154.017 91.4224 154.069C91.8534 154.121 92.0431 153.957 92.1465 153.828C93.0431 152.724 92.0776 148.733 91.362 146.414Z" fill="#D46100"/>
<path d="M71.8445 204.603L56.2669 200.974C54.5859 200.457 53.6463 198.672 54.1635 196.991L62.7238 169.362C63.2411 167.681 65.0256 166.741 66.7066 167.258L82.2842 170.888C83.9652 171.405 84.9049 173.19 84.3876 174.871L75.8273 202.5C75.3101 204.181 73.5256 205.121 71.8445 204.603Z" fill="black"/>
<path d="M71.1615 197.247L71.6175 197.272C71.6578 197.489 71.6356 197.913 71.4852 198.411C71.1366 199.564 70.1479 200.205 68.8006 199.798C67.514 199.409 66.9146 198.281 67.298 197.013C67.4503 196.509 67.6586 196.214 67.7736 196.097L68.1641 196.36C68.0083 196.525 67.8493 196.788 67.7465 197.128C67.4567 198.087 67.877 198.91 68.9512 199.234C69.9586 199.539 70.7701 199.155 71.0691 198.166C71.1682 197.838 71.2005 197.49 71.1615 197.247ZM69.7257 193.386L71.8558 194.03C72.1653 194.123 72.4342 194.198 72.6703 194.25L72.5272 194.723L72.0386 194.608L72.0349 194.62C72.2312 194.825 72.4453 195.235 72.2876 195.757C72.1481 196.218 71.7202 196.691 70.6946 196.381L68.9771 195.862L69.1386 195.328L70.759 195.818C71.3173 195.986 71.7528 195.926 71.8977 195.447C72.006 195.089 71.8324 194.765 71.619 194.594C71.5553 194.542 71.4637 194.494 71.3606 194.463L69.5642 193.92L69.7257 193.386ZM74.132 193.752L70.952 192.791C70.5757 192.677 70.2686 192.598 69.9858 192.525L70.1289 192.052L70.6417 192.174L70.6454 192.162C70.3516 191.841 70.2516 191.427 70.3966 190.947C70.613 190.231 71.3753 189.879 72.2613 190.147C73.3173 190.466 73.6429 191.273 73.4338 191.965C73.3164 192.353 73.0437 192.642 72.6992 192.73L72.6955 192.742L74.2916 193.224L74.132 193.752ZM71.3847 192.346L71.8945 192.5C71.9733 192.524 72.048 192.539 72.1203 192.541C72.5198 192.556 72.8719 192.312 72.9875 191.929C73.1581 191.365 72.796 190.898 72.1223 190.694C71.5397 190.518 70.9425 190.675 70.7718 191.24C70.6618 191.604 70.8121 192.027 71.1833 192.245C71.2445 192.283 71.3179 192.325 71.3847 192.346ZM71.353 187.784C71.608 186.94 72.3934 186.555 73.2855 186.824C74.3718 187.153 74.6159 188.055 74.403 188.759C74.1646 189.547 73.3948 189.99 72.4663 189.71C71.4892 189.414 71.109 188.591 71.353 187.784ZM71.7499 187.917C71.5609 188.542 72.061 188.991 72.6132 189.158C73.2565 189.352 73.8521 189.135 74.0098 188.613C74.164 188.103 73.8001 187.576 73.1386 187.376C72.641 187.226 71.9407 187.286 71.7499 187.917ZM74.9818 186.603L72.8395 185.956C72.53 185.862 72.2854 185.795 72.0371 185.74L72.1802 185.266L72.6749 185.383L72.6786 185.37C72.4495 185.142 72.2791 184.72 72.4259 184.234C72.5488 183.828 72.9824 183.27 73.9898 183.575L75.7376 184.103L75.5762 184.637L73.883 184.125C73.4096 183.982 72.9619 184.039 72.8097 184.542C72.7051 184.888 72.8714 185.237 73.1394 185.424C73.1988 185.468 73.2862 185.508 73.3772 185.535L75.1432 186.069L74.9818 186.603ZM75.3415 180.462L74.7177 182.525C75.4436 182.731 75.8785 182.366 76.0418 181.826C76.1574 181.443 76.1622 181.187 76.1359 180.967L76.5476 180.985C76.5757 181.199 76.5798 181.558 76.4385 182.025C76.1652 182.929 75.4011 183.288 74.5151 183.02C73.629 182.752 73.095 182.021 73.3536 181.165C73.6453 180.201 74.558 180.205 75.0982 180.368C75.2074 180.401 75.2845 180.431 75.3415 180.462ZM74.3372 182.403L74.8087 180.844C74.4768 180.737 73.9048 180.723 73.7231 181.323C73.558 181.87 73.9799 182.249 74.3372 182.403ZM76.9185 180.197L74.8976 179.586C74.5516 179.481 74.2524 179.397 73.9738 179.333L74.1151 178.866L74.705 179.018L74.7105 178.999C74.3564 178.747 74.2067 178.344 74.3149 177.986C74.3314 177.931 74.3503 177.89 74.3711 177.844L74.8748 177.996C74.8461 178.047 74.8296 178.101 74.8076 178.174C74.6939 178.55 74.8923 178.902 75.2708 179.096C75.34 179.13 75.4292 179.164 75.5142 179.189L77.0799 179.663L76.9185 180.197ZM76.331 175.633L77.4295 175.965C77.6843 176.042 77.9368 176.105 78.1463 176.135L78.0013 176.614L77.6183 176.545L77.6128 176.563C77.7939 176.797 77.9048 177.175 77.7782 177.593C77.5984 178.188 77.088 178.365 76.6632 178.237C75.9531 178.022 75.7555 177.273 76.1046 176.14L76.044 176.122C75.8073 176.051 75.3441 175.983 75.1685 176.586C75.0841 176.865 75.0768 177.174 75.154 177.423L74.7593 177.436C74.6809 177.147 74.686 176.758 74.7979 176.388C75.0694 175.49 75.7484 175.456 76.331 175.633ZM76.9883 176.394L76.4785 176.24C76.2902 176.819 76.1934 177.512 76.7639 177.684C77.1159 177.791 77.3434 177.608 77.4241 177.341C77.5415 176.952 77.374 176.63 77.1509 176.47C77.0957 176.433 77.0368 176.409 76.9883 176.394Z" fill="white"/>
<path d="M57.5776 125.103C54.5862 125.103 50.7587 123.655 50.569 123.586C50.3793 123.517 50.2845 123.302 50.3621 123.121C50.4311 122.931 50.6466 122.845 50.8276 122.914C50.8793 122.931 56.1293 124.922 58.9224 124.25C59.1121 124.207 59.3104 124.319 59.3621 124.517C59.4052 124.715 59.2845 124.905 59.0949 124.957C58.638 125.069 58.1207 125.112 57.5776 125.112V125.103Z" fill="#D46100"/>
<path d="M76.1121 169.578C75.9138 169.578 75.75 169.414 75.75 169.216V149.862C75.75 149.664 75.9138 149.5 76.1121 149.5C76.3103 149.5 76.4741 149.664 76.4741 149.862V169.216C76.4741 169.414 76.3103 169.578 76.1121 169.578Z" fill="#D46100"/>
<path d="M59.8959 175.853L58.9132 179.017C58.9132 179.017 67.2149 182.621 67.189 184.379C67.1632 186.138 64.1459 187.284 64.1459 187.284C64.1459 187.284 64.8183 191.069 64.2235 192.302C63.6373 193.534 61.5511 199.586 57.9908 200.267C54.4304 200.948 42.0425 192.026 42.0425 192.026L44.258 178.103C44.258 178.103 58.3787 175.328 59.8959 175.845V175.853Z" fill="#FD8753"/>
<path d="M58.9136 179.379L52.6981 178.845C52.4998 178.828 52.3533 178.655 52.3705 178.448C52.3878 178.25 52.5688 178.104 52.7671 178.121L58.9567 178.655C59.155 178.672 59.3015 178.845 59.2843 179.052C59.2671 179.241 59.1119 179.379 58.9222 179.379H58.9136Z" fill="black"/>
<path d="M45.0951 123.759C45.0951 123.759 26.7158 127.5 11.8364 143.603C-3.03425 159.707 -4.41356 179.396 10.6209 187.284C25.6554 195.172 42.5692 196.828 42.5692 196.828L47.6554 174.784L31.9485 168.474L45.0864 123.767L45.0951 123.759Z" fill="#FF7500"/>
<path d="M44.8103 174C44.75 174 44.6896 173.983 44.6379 173.957C44.4913 173.879 29.9224 165.836 20.181 164.026C19.9827 163.991 19.8534 163.802 19.8879 163.603C19.9224 163.405 20.1034 163.276 20.3103 163.31C30.1724 165.138 44.8362 173.233 44.9827 173.319C45.1551 173.414 45.2241 173.638 45.1206 173.81C45.0517 173.931 44.931 174 44.8017 174H44.8103Z" fill="#D46100"/>
<path d="M29.9049 166.991C29.8359 166.991 29.7669 166.974 29.7066 166.931C28.879 166.405 21.6204 161.69 22.0859 159.259C22.2066 158.621 22.7669 158.198 23.7583 158.017C26.2583 157.56 29.5859 164.983 30.2324 166.483C30.2928 166.629 30.2583 166.802 30.1376 166.905C30.0687 166.966 29.9911 166.991 29.9049 166.991ZM24.0256 158.716C24.0256 158.716 23.9393 158.716 23.9049 158.724C23.2411 158.853 22.8704 159.078 22.81 159.397C22.56 160.698 26.1721 163.655 29.06 165.629C27.6118 162.552 25.3618 158.716 24.0256 158.716Z" fill="#D46100"/>
<path d="M74.9565 310.353C74.7668 310.353 74.603 310.207 74.5944 310.008C74.5858 309.81 73.4392 289.681 70.9306 269.629C68.4306 249.595 60.2668 222.026 60.1892 221.75C60.1289 221.56 60.241 221.353 60.4306 221.302C60.6203 221.241 60.8272 221.353 60.8789 221.543C60.9651 221.819 69.1375 249.448 71.6461 269.534C74.1548 289.612 75.3013 309.758 75.3099 309.965C75.3186 310.164 75.172 310.336 74.9651 310.345C74.9651 310.345 74.9565 310.345 74.9479 310.345L74.9565 310.353Z" fill="#3A3D74"/>
<path d="M46.673 123.879C46.673 123.879 43.5265 143.603 40.6816 155.06C38.5609 163.629 29.9058 166.621 29.9058 166.621L37.1471 126.31C37.1471 126.31 42.9402 122.345 46.6644 123.871L46.673 123.879Z" fill="#505050"/>
<g clip-path="url(#clip1_90_4026)">
<path d="M64.0944 175.063C63.719 176.743 64.685 178.387 66.2506 178.736C68.8912 179.324 71.8673 177.312 71.8673 177.312C72.1856 177.097 72.2754 176.658 72.0671 176.336C72.0671 176.336 70.0234 173.191 67.6089 172.653C66.0434 172.304 64.4698 173.384 64.0944 175.063ZM68.7233 176.323C68.7998 176.341 68.8291 176.435 68.7751 176.492L67.8767 177.459C67.7946 177.547 67.6708 177.585 67.5531 177.558L66.4065 177.297C66.3383 177.281 66.3124 177.196 66.3611 177.146L67.3088 176.148C67.3798 176.073 67.4855 176.041 67.5867 176.064L68.7233 176.323ZM66.9701 175.815L65.9597 176.887C65.9009 176.949 65.7975 176.925 65.7723 176.843L65.3423 175.437C65.3171 175.356 65.3375 175.266 65.3958 175.203L66.3894 174.137C66.4475 174.075 66.5506 174.098 66.5767 174.179L67.0242 175.569C67.0518 175.655 67.0304 175.749 66.9684 175.814L66.9701 175.815ZM68.3003 174.286C68.418 174.312 68.513 174.4 68.5486 174.516L68.9386 175.776C68.9616 175.851 68.895 175.924 68.8186 175.906L67.6819 175.647C67.5813 175.624 67.4999 175.549 67.468 175.45L67.0473 174.14C67.026 174.073 67.0854 174.008 67.1537 174.024L68.3003 174.286Z" fill="white"/>
</g>
<g clip-path="url(#clip2_90_4026)">
<path d="M51.3415 141.908C51.416 141.84 51.4936 141.852 51.5944 141.916L51.6782 141.955C51.762 141.994 51.8482 142.013 51.9358 142.013C52.0235 142.013 52.0894 141.998 52.1414 141.965C52.1934 141.933 52.2198 141.889 52.2198 141.833C52.2198 141.777 52.1957 141.739 52.1476 141.709C52.0995 141.68 52.0289 141.651 51.9358 141.622C51.8427 141.595 51.7605 141.565 51.6899 141.532C51.6193 141.498 51.5603 141.459 51.5122 141.416C51.4641 141.372 51.4284 141.321 51.4044 141.264C51.3803 141.206 51.3687 141.139 51.3687 141.062C51.3687 140.953 51.3935 140.856 51.4424 140.77C51.4913 140.685 51.5572 140.613 51.6379 140.552C51.7194 140.493 51.814 140.448 51.9234 140.417C52.0328 140.386 52.1469 140.371 52.2671 140.371C52.4215 140.371 52.5658 140.396 52.7008 140.448C52.8351 140.5 52.9429 140.577 53.022 140.678L52.7582 140.9C52.6814 140.965 52.6124 140.967 52.5301 140.92L52.465 140.885C52.3998 140.85 52.3214 140.833 52.2314 140.833C52.1624 140.833 52.0988 140.846 52.0421 140.873C51.9847 140.899 51.956 140.945 51.956 141.009C51.956 141.054 51.9777 141.089 52.0196 141.115C52.0623 141.141 52.1275 141.165 52.2151 141.189C52.4013 141.239 52.5488 141.309 52.6566 141.398C52.7644 141.487 52.8188 141.617 52.8188 141.788C52.8188 141.907 52.7924 142.012 52.7404 142.101C52.6884 142.19 52.6209 142.264 52.5363 142.321C52.4526 142.378 52.3563 142.421 52.2485 142.449C52.1407 142.477 52.0305 142.491 51.9188 142.491C51.7349 142.491 51.5712 142.46 51.4276 142.399C51.2841 142.338 51.1669 142.254 51.0762 142.148L51.3407 141.907L51.3415 141.908Z" fill="#211915"/>
<path d="M54.0487 142.477C53.9052 142.477 53.771 142.456 53.6476 142.417C53.5235 142.377 53.4172 142.319 53.328 142.243C53.2387 142.167 53.1681 142.075 53.1162 141.968C53.0642 141.86 53.0386 141.738 53.0386 141.602C53.0386 141.437 53.0665 141.279 53.1224 141.13C53.1782 140.981 53.2589 140.851 53.3637 140.739C53.4684 140.627 53.5964 140.538 53.7454 140.471C53.8944 140.404 54.0635 140.371 54.2528 140.371C54.3994 140.371 54.5352 140.391 54.6601 140.431C54.785 140.47 54.8929 140.528 54.9837 140.604C55.0744 140.68 55.1458 140.772 55.1978 140.881C55.2498 140.988 55.2754 141.11 55.2754 141.246C55.2754 141.414 55.2475 141.573 55.1916 141.722C55.1357 141.871 55.0543 142.001 54.948 142.113C54.8417 142.225 54.7129 142.314 54.5624 142.379C54.4118 142.444 54.2412 142.477 54.0487 142.477ZM54.6446 141.314C54.6446 141.194 54.6081 141.094 54.5344 141.014C54.4615 140.934 54.3583 140.895 54.2249 140.895C54.1395 140.895 54.0619 140.912 53.9929 140.947C53.9238 140.981 53.8649 141.028 53.8168 141.086C53.7687 141.145 53.7314 141.213 53.705 141.29C53.6787 141.367 53.6655 141.449 53.6655 141.534C53.6655 141.653 53.7012 141.753 53.7733 141.832C53.8455 141.91 53.9479 141.95 54.0813 141.95C54.1667 141.95 54.2435 141.933 54.3133 141.9C54.3824 141.867 54.4421 141.821 54.491 141.762C54.5399 141.704 54.5779 141.636 54.605 141.558C54.6314 141.481 54.6454 141.4 54.6454 141.314L54.6446 141.314Z" fill="#211915"/>
<path d="M56.5212 142.561C56.4715 142.649 56.3893 142.791 56.3381 142.877C56.3381 142.877 56.314 142.916 56.2574 143C56.2 143.082 56.1379 143.152 56.0696 143.207C56.0014 143.263 55.9238 143.306 55.8361 143.335C55.7484 143.365 55.6453 143.38 55.5281 143.38C55.4032 143.38 55.2938 143.365 55.2007 143.335L55.2635 142.988C55.2814 142.889 55.3504 142.824 55.4171 142.844H55.4839C55.577 142.844 55.6499 142.821 55.7019 142.774C55.7539 142.728 55.8035 142.662 55.8516 142.577L55.8555 142.57C55.9059 142.484 55.9292 142.333 55.9067 142.235L55.5296 140.609C55.5071 140.511 55.5708 140.431 55.6709 140.431H56.0053C56.1053 140.431 56.2 140.513 56.2155 140.612L56.3598 141.554C56.3753 141.653 56.3893 141.735 56.3916 141.735C56.394 141.735 56.4328 141.662 56.4778 141.572L56.972 140.595C57.0178 140.506 57.1365 140.432 57.2365 140.432H57.5508C57.6516 140.432 57.6928 140.504 57.6431 140.59L56.5212 142.563V142.561Z" fill="#211915"/>
<path d="M59.4766 139.579C59.4937 139.481 59.5891 139.399 59.69 139.399H59.9639C60.0647 139.399 60.1322 139.48 60.1144 139.579L59.6427 142.241C59.6256 142.339 59.5286 142.421 59.4285 142.421H59.2059C59.1058 142.421 59.0344 142.359 59.0476 142.285C59.0608 142.21 59.0693 142.149 59.0654 142.149C59.0623 142.149 59.0041 142.21 58.9374 142.285C58.9374 142.285 58.8971 142.329 58.7799 142.385C58.6628 142.441 58.5309 142.469 58.3842 142.469C58.2562 142.469 58.1414 142.448 58.039 142.405C57.9366 142.362 57.8497 142.303 57.7791 142.227C57.7084 142.151 57.6541 142.061 57.6169 141.957C57.5797 141.853 57.561 141.739 57.561 141.614C57.561 141.443 57.5882 141.283 57.6433 141.134C57.6976 140.985 57.7736 140.855 57.8714 140.743C57.9684 140.631 58.0847 140.543 58.219 140.477C58.3532 140.412 58.5006 140.379 58.6604 140.379C58.8071 140.379 58.9335 140.407 59.0398 140.463C59.1461 140.519 59.226 140.593 59.2796 140.687C59.2842 140.687 59.3013 140.605 59.3184 140.507L59.4766 139.58V139.579ZM58.1972 141.529C58.1972 141.649 58.2322 141.749 58.3012 141.829C58.3703 141.909 58.4727 141.949 58.6084 141.949C58.6884 141.949 58.7628 141.933 58.8319 141.899C58.9009 141.866 58.9615 141.82 59.0119 141.761C59.0623 141.703 59.1019 141.635 59.1298 141.557C59.1578 141.48 59.1717 141.399 59.1717 141.313C59.1717 141.191 59.1345 141.091 59.06 141.012C58.9855 140.933 58.8839 140.894 58.7566 140.894C58.6713 140.894 58.5937 140.91 58.5247 140.943C58.4556 140.977 58.3966 141.022 58.3485 141.079C58.3004 141.137 58.2632 141.204 58.2368 141.281C58.2104 141.358 58.1965 141.441 58.1965 141.528L58.1972 141.529Z" fill="#211915"/>
<path d="M60.8648 141.597C60.7639 141.597 60.6801 141.608 60.6786 141.62V141.633C60.6786 141.689 60.691 141.739 60.7166 141.783C60.7414 141.827 60.7748 141.864 60.8167 141.895C60.8578 141.925 60.9044 141.948 60.9563 141.964C61.0083 141.981 61.0619 141.989 61.1185 141.989C61.2194 141.989 61.3086 141.97 61.3862 141.933C61.463 141.895 61.5328 141.844 61.5941 141.781L61.854 141.984C61.9332 142.046 61.9355 142.15 61.8594 142.216C61.8594 142.216 61.7268 142.33 61.57 142.39C61.4125 142.45 61.2434 142.48 61.0626 142.48C60.9245 142.48 60.7957 142.461 60.677 142.422C60.5583 142.383 60.4551 142.326 60.3675 142.251C60.2798 142.175 60.21 142.081 60.1595 141.969C60.1091 141.857 60.0835 141.729 60.0835 141.586C60.0835 141.415 60.1138 141.256 60.1735 141.108C60.2332 140.961 60.3163 140.832 60.421 140.722C60.5257 140.613 60.6522 140.528 60.7988 140.465C60.9455 140.402 61.1061 140.371 61.2822 140.371C61.4125 140.371 61.532 140.389 61.6399 140.427C61.7477 140.464 61.84 140.517 61.9176 140.588C61.9944 140.659 62.055 140.746 62.0976 140.85C62.1403 140.954 62.1613 141.073 62.1613 141.21C62.1613 141.258 62.1566 141.318 62.1473 141.391C62.138 141.465 62.1256 141.533 62.1093 141.597H60.8656L60.8648 141.597ZM61.4071 141.206C61.508 141.206 61.5918 141.194 61.5933 141.179V141.126C61.5933 141.038 61.5623 140.964 61.4994 140.906C61.4366 140.848 61.3466 140.818 61.2294 140.818C61.1573 140.818 61.0929 140.83 61.0355 140.856C60.9781 140.881 60.9284 140.912 60.8857 140.95C60.8431 140.987 60.8082 141.028 60.7818 141.074C60.7554 141.119 60.7368 141.163 60.7259 141.206H61.4063H61.4071Z" fill="#211915"/>
<path d="M62.4708 142.421C62.37 142.421 62.3025 142.34 62.3195 142.241L62.7874 139.579C62.8044 139.481 62.9014 139.399 63.0015 139.399H63.2878C63.3879 139.399 63.4562 139.48 63.4383 139.579L62.9666 142.241C62.9495 142.339 62.8526 142.421 62.7525 142.421H62.4701H62.4708Z" fill="#211915"/>
<path d="M63.5533 142.421C63.4532 142.421 63.385 142.34 63.402 142.241L63.6868 140.611C63.7038 140.511 63.8 140.431 63.9009 140.431H64.1794C64.2795 140.431 64.3478 140.511 64.33 140.61L64.0382 142.241C64.0204 142.339 63.9242 142.421 63.8233 142.421H63.5533ZM64.4975 139.763C64.4975 139.817 64.4882 139.866 64.4696 139.911C64.451 139.956 64.4246 139.997 64.392 140.033C64.3587 140.069 64.3191 140.096 64.2741 140.116C64.2291 140.136 64.1794 140.147 64.1259 140.147C64.025 140.147 63.9413 140.116 63.8761 140.057C63.8109 139.997 63.7783 139.92 63.7783 139.827C63.7783 139.718 63.8148 139.627 63.8885 139.553C63.9614 139.479 64.0514 139.443 64.1585 139.443C64.257 139.443 64.3385 139.473 64.4021 139.534C64.4657 139.596 64.4983 139.672 64.4983 139.763L64.4975 139.763Z" fill="#211915"/>
<path d="M65.6656 142.263C65.6144 142.35 65.491 142.421 65.3902 142.421H65.0596C64.9596 142.421 64.8626 142.34 64.844 142.242L64.5429 140.611C64.5251 140.512 64.5918 140.431 64.6927 140.431H65.003C65.1039 140.431 65.1962 140.513 65.2086 140.612L65.3273 141.556C65.3397 141.656 65.3529 141.737 65.356 141.737C65.3591 141.737 65.4003 141.664 65.4476 141.576L65.9682 140.592C66.0147 140.504 66.1358 140.431 66.2359 140.431H66.5664C66.6665 140.431 66.7068 140.501 66.6556 140.588L65.6664 142.263H65.6656Z" fill="#211915"/>
<path d="M67.3775 141.597C67.2774 141.597 67.1928 141.608 67.1913 141.62V141.633C67.1913 141.689 67.2037 141.739 67.2293 141.783C67.2549 141.827 67.2875 141.864 67.3294 141.895C67.3705 141.925 67.4171 141.948 67.469 141.964C67.521 141.981 67.5753 141.989 67.6312 141.989C67.7321 141.989 67.8213 141.97 67.8989 141.933C67.9765 141.895 68.0455 141.844 68.1068 141.781L68.3667 141.984C68.4458 142.046 68.4482 142.15 68.3721 142.216C68.3721 142.216 68.2402 142.33 68.0827 142.39C67.9252 142.45 67.7569 142.48 67.5753 142.48C67.4372 142.48 67.3084 142.461 67.1897 142.422C67.071 142.383 66.9678 142.326 66.8802 142.251C66.7925 142.175 66.7227 142.081 66.6722 141.969C66.6218 141.857 66.5962 141.729 66.5962 141.586C66.5962 141.415 66.6265 141.256 66.6862 141.108C66.7459 140.961 66.829 140.832 66.9337 140.722C67.0392 140.613 67.1649 140.528 67.3115 140.465C67.4582 140.402 67.6196 140.371 67.7949 140.371C67.9252 140.371 68.0447 140.389 68.1526 140.427C68.2604 140.464 68.3527 140.517 68.4303 140.588C68.5071 140.659 68.5677 140.746 68.6103 140.85C68.653 140.954 68.6739 141.073 68.6739 141.21C68.6739 141.258 68.6693 141.318 68.66 141.391C68.6507 141.465 68.6383 141.533 68.622 141.597H67.3783L67.3775 141.597ZM67.919 141.206C68.0191 141.206 68.1029 141.194 68.1052 141.179V141.126C68.1052 141.038 68.0742 140.964 68.0114 140.906C67.9485 140.848 67.8585 140.818 67.7414 140.818C67.6692 140.818 67.6048 140.83 67.5474 140.856C67.49 140.881 67.4403 140.912 67.3977 140.95C67.355 140.987 67.3208 141.028 67.2937 141.074C67.2673 141.119 67.2479 141.163 67.2378 141.206H67.9183H67.919Z" fill="#211915"/>
<path d="M69.6334 140.722C69.6381 140.722 69.6916 140.657 69.7521 140.577C69.7521 140.577 69.7816 140.538 69.8708 140.475C69.9601 140.411 70.0671 140.379 70.192 140.379C70.2161 140.379 70.2409 140.38 70.2657 140.383C70.2906 140.386 70.3115 140.39 70.3278 140.394L70.2564 140.782C70.2386 140.881 70.1982 140.956 70.1664 140.948L70.1401 140.945C70.1137 140.943 70.0881 140.941 70.064 140.941C69.9709 140.941 69.8926 140.957 69.8282 140.989C69.7645 141.021 69.7118 141.061 69.6707 141.107C69.6295 141.154 69.5985 141.204 69.5791 141.257C69.5589 141.31 69.545 141.357 69.5372 141.397L69.389 142.24C69.372 142.339 69.275 142.42 69.1749 142.42H68.9002C68.8001 142.42 68.7326 142.339 68.7497 142.24L68.9693 141.021C68.9871 140.923 69.0112 140.789 69.0236 140.725L69.036 140.646C69.0476 140.566 69.057 140.493 69.0616 140.43H69.4868C69.5876 140.43 69.6683 140.445 69.6676 140.462L69.6652 140.488C69.6621 140.514 69.659 140.54 69.6551 140.568C69.6513 140.596 69.6474 140.624 69.6435 140.652C69.6396 140.68 69.6365 140.703 69.6334 140.722V140.722Z" fill="#211915"/>
<path d="M71.5358 142.561C71.4862 142.649 71.404 142.791 71.3527 142.877C71.3527 142.877 71.3295 142.916 71.2721 143C71.2146 143.082 71.1518 143.152 71.0843 143.207C71.016 143.263 70.9384 143.306 70.8508 143.335C70.7631 143.365 70.6599 143.38 70.5427 143.38C70.4178 143.38 70.3084 143.365 70.2153 143.335L70.2782 142.988C70.296 142.889 70.3651 142.824 70.4318 142.844H70.4985C70.5916 142.844 70.6646 142.821 70.7165 142.774C70.7685 142.728 70.8182 142.662 70.8663 142.577L70.8702 142.57C70.9206 142.484 70.9439 142.333 70.9214 142.235L70.5443 140.609C70.5218 140.511 70.5854 140.431 70.6855 140.431H71.0199C71.1208 140.431 71.2146 140.513 71.2302 140.612L71.3745 141.554C71.39 141.653 71.404 141.735 71.4063 141.735C71.4086 141.735 71.4474 141.662 71.4924 141.572L71.9866 140.595C72.0316 140.506 72.1511 140.432 72.2512 140.432H72.5654C72.6655 140.432 72.7074 140.504 72.6577 140.59L71.5358 142.563V142.561Z" fill="#211915"/>
<path d="M72.4188 142.037C72.567 142.037 72.688 142.16 72.688 142.308C72.688 142.456 72.567 142.579 72.4188 142.579C72.2706 142.579 72.1465 142.457 72.1465 142.308C72.1465 142.159 72.2691 142.037 72.4188 142.037ZM72.4204 142.535C72.5437 142.535 72.6438 142.433 72.6438 142.307C72.6438 142.182 72.5437 142.081 72.4204 142.081C72.297 142.081 72.193 142.182 72.193 142.307C72.193 142.433 72.2939 142.535 72.4204 142.535ZM72.5445 142.259C72.5445 142.304 72.5204 142.334 72.4817 142.344L72.5352 142.433C72.5406 142.442 72.5406 142.449 72.5251 142.449H72.5057C72.4925 142.449 72.4917 142.446 72.4871 142.439L72.4351 142.348H72.3498V142.439C72.3498 142.446 72.3482 142.449 72.3381 142.449H72.3187C72.3102 142.449 72.3071 142.446 72.3071 142.439V142.181C72.3071 142.17 72.3094 142.167 72.3218 142.167H72.4452C72.5049 142.167 72.5422 142.2 72.5422 142.259H72.5445ZM72.4452 142.311C72.4801 142.311 72.5011 142.292 72.5011 142.259C72.5011 142.225 72.4801 142.207 72.4452 142.207H72.3505V142.31H72.4452V142.311Z" fill="#211915"/>
<path d="M48.1192 138.836C47.1727 138.841 46.4085 139.56 46.4131 140.443C46.4209 141.932 47.8647 143.282 47.8647 143.282C48.0191 143.426 48.2659 143.421 48.4125 143.269C48.4125 143.269 49.8502 141.788 49.8424 140.427C49.8385 139.544 49.0666 138.832 48.1192 138.836ZM48.0106 141.474C48.0106 141.518 47.9641 141.545 47.926 141.523L47.2976 141.159C47.2402 141.126 47.2045 141.064 47.2045 140.998V140.351C47.2045 140.312 47.2464 140.288 47.2797 140.308L47.9315 140.694C47.9803 140.723 48.0106 140.776 48.0106 140.833V141.475V141.474ZM48.0688 140.471L47.3697 140.061C47.3294 140.036 47.3294 139.978 47.3697 139.955L48.0711 139.552C48.1122 139.529 48.1627 139.529 48.2038 139.552L48.8974 139.955C48.9378 139.978 48.9378 140.036 48.8974 140.061L48.2061 140.471C48.1635 140.497 48.1107 140.497 48.068 140.471H48.0688ZM49.0518 140.998C49.0518 141.064 49.0161 141.126 48.9587 141.159L48.3303 141.523C48.293 141.545 48.2457 141.518 48.2457 141.474V140.832C48.2457 140.776 48.276 140.723 48.3248 140.694L48.9766 140.307C49.0099 140.288 49.0518 140.311 49.0518 140.35V140.997V140.998Z" fill="#211915"/>
</g>
<path d="M188.56 157.56L149.051 157.509C148.362 157.509 147.793 158.069 147.793 158.759V167.215C147.784 167.905 148.344 168.465 149.034 168.474L188.543 168.526C189.232 168.526 189.793 167.965 189.801 167.276V158.819C189.81 158.129 189.249 157.569 188.56 157.56Z" fill="#D46100"/>
<path d="M190.63 168.819C190.535 168.793 190.466 168.698 190.466 168.595L190.681 157.465C190.681 157.336 190.793 157.233 190.914 157.241C191.043 157.241 191.147 157.353 191.138 157.474L190.923 168.603C190.923 168.733 190.811 168.836 190.69 168.827C190.664 168.827 190.647 168.827 190.63 168.819Z" fill="white"/>
<mask id="mask0_90_4026" style="mask-type:luminance" maskUnits="userSpaceOnUse" x="131" y="31" width="244" height="327">
<path d="M375 31.0603H131.896V357.784H375V31.0603Z" fill="white"/>
</mask>
<g mask="url(#mask0_90_4026)">
<path d="M309.543 159.836C309.543 159.836 317.914 158.983 325.026 162.776C330.388 165.638 331.224 169.224 331.31 170.81C331.336 171.276 331.009 171.681 330.552 171.767C329.879 171.888 329.198 171.577 328.845 170.991C328.431 170.302 327.715 169.302 326.534 168.19C324.198 166.776 318.629 169.224 314.138 169C306.974 168.638 303.819 164.155 303.819 164.155L309.543 159.836Z" fill="#F4A592"/>
<path d="M311.603 159.319C311.603 159.319 320.207 159.095 327.319 162.896C332.319 165.569 333.379 168.862 333.569 170.586C333.638 171.233 333.189 171.828 332.551 171.94C332.034 172.034 331.517 171.793 331.258 171.336C330.87 170.646 330.138 169.552 328.819 168.31C326.577 166.198 321.319 164.948 321.319 164.948L312.396 163.56L311.586 159.328L311.603 159.319Z" fill="#F4A592"/>
<path d="M310.362 160.992C310.362 160.992 319.664 158.414 328.172 161.371C334.819 163.681 336.353 168.276 336.698 170.173C336.784 170.664 336.534 171.147 336.095 171.362C335.37 171.707 334.508 171.492 334.026 170.862C333.431 170.086 332.448 169 330.931 167.888C328.06 165.785 322.095 165.586 322.095 165.586L312.12 166.199L310.362 161V160.992Z" fill="#F4A592"/>
<path d="M304.896 162.215C306.827 158.009 319.31 156.526 327.819 159.483C334.491 161.802 336.008 166.422 336.353 168.302C336.439 168.776 336.198 169.25 335.758 169.465C335.026 169.819 334.155 169.603 333.664 168.957C333.069 168.181 332.086 167.103 330.577 166C327.707 163.897 321.741 163.698 321.741 163.698L305.569 165.431C305.569 165.431 304.302 163.509 304.888 162.224L304.896 162.215Z" fill="#F4A592"/>
<path d="M336.594 168.56C336.594 168.466 336.594 168.362 336.577 168.267C336.551 168.147 336.439 168.06 336.31 168.086C336.189 168.112 336.103 168.224 336.129 168.354C336.198 168.724 336.008 169.104 335.663 169.267C335.034 169.569 334.275 169.379 333.844 168.828C333.284 168.086 332.275 166.966 330.715 165.819C330.06 165.336 329.198 164.922 328.155 164.569C328.034 164.526 327.905 164.595 327.862 164.716C327.818 164.836 327.887 164.966 328.008 165C329.008 165.336 329.827 165.733 330.439 166.181C331.956 167.293 332.93 168.379 333.474 169.095C334.025 169.819 335.025 170.06 335.844 169.673C336.284 169.466 336.56 169.026 336.586 168.56H336.594Z" fill="black"/>
<path d="M334.103 171.121C334.103 171.069 334.086 171.018 334.06 170.974C333.966 170.854 333.862 170.707 333.759 170.561C333.172 169.759 332.371 168.655 331.069 167.699C330.509 167.285 329.06 166.293 327.707 165.897C327.586 165.862 327.457 165.931 327.422 166.052C327.388 166.173 327.457 166.302 327.578 166.336C328.897 166.724 330.371 167.759 330.793 168.069C332.035 168.983 332.81 170.052 333.379 170.828C333.491 170.983 333.595 171.121 333.69 171.25C333.767 171.354 333.905 171.371 334.009 171.293C334.069 171.25 334.095 171.19 334.095 171.121H334.103Z" fill="black"/>
<path d="M331.491 171.853C331.491 171.853 331.491 171.784 331.474 171.75C331.439 171.681 330.698 170.034 329.569 168.707C328.413 167.353 326.06 166.569 325.957 166.534C325.836 166.491 325.707 166.56 325.672 166.681C325.629 166.802 325.698 166.931 325.819 166.965C325.845 166.965 328.155 167.741 329.224 169C330.31 170.276 331.051 171.922 331.06 171.94C331.112 172.052 331.25 172.103 331.362 172.052C331.439 172.017 331.491 171.94 331.491 171.853Z" fill="black"/>
<path d="M145.224 114.828C145.224 114.828 145.319 108.974 147.707 105.724C149.491 103.293 151.991 100.207 153.5 98.8708C153.957 98.4656 155.362 98.6294 155.784 99.0691C156.422 99.7242 156.517 100.75 156 101.526L151.017 107.595L148.715 124.06L143.465 128.078L145.224 114.836V114.828Z" fill="#F4A592"/>
<path d="M146.853 118.112C146.853 118.112 146.948 112.259 149.336 109.009C151.069 106.647 153 103.207 154.551 101.828C155.086 101.354 157.043 101.974 157.534 102.474C158.103 103.061 158.189 103.974 157.724 104.664L154.232 109.897L147.741 123.19L146.853 118.112Z" fill="#F4A592"/>
<path d="M149.56 118.966C149.56 118.966 147.328 111.164 155.078 106.586C155.862 106.129 156.862 106.431 157.233 107.25C157.233 107.25 157.629 108.354 156.733 109.371C155.44 110.845 154.715 112.423 153.629 117.655C153.112 120.147 154.086 125.095 154.034 128.035C153.922 134.138 145.198 123.621 145.198 123.621L149.56 118.957V118.966Z" fill="#F4A592"/>
<path d="M150.388 114.397C150.388 114.397 150.336 114.397 150.31 114.397C150.103 114.354 149.957 114.155 150 113.94C150.034 113.75 150.939 109.198 154.836 106.276C156.56 104.992 157.448 106 157.491 106.043C157.629 106.207 157.612 106.448 157.448 106.595C157.284 106.733 157.043 106.716 156.896 106.552C156.888 106.543 156.414 106.078 155.301 106.905C151.655 109.638 150.776 114.043 150.767 114.086C150.732 114.276 150.569 114.405 150.388 114.405V114.397Z" fill="black"/>
<path d="M148.293 112.724C148.293 112.724 148.215 112.724 148.172 112.707C147.965 112.638 147.853 112.423 147.922 112.216C148.017 111.923 150.327 104.905 155.784 101.198C155.957 101.078 156.207 101.121 156.327 101.302C156.448 101.483 156.405 101.724 156.224 101.845C150.991 105.405 148.689 112.388 148.672 112.457C148.62 112.621 148.465 112.724 148.302 112.724H148.293Z" fill="black"/>
<path d="M145.776 110.819C145.776 110.819 145.699 110.819 145.664 110.802C145.457 110.741 145.345 110.526 145.405 110.319C145.492 110.017 147.681 102.81 152.638 98.8277C152.811 98.6898 153.052 98.7156 153.181 98.888C153.319 99.0518 153.293 99.3018 153.121 99.4311C148.354 103.259 146.173 110.466 146.147 110.535C146.095 110.707 145.94 110.81 145.776 110.81V110.819Z" fill="black"/>
<path d="M247.189 110.948L317.31 159.414L308.5 167.621L251.543 139.242L247.181 110.948H247.189Z" fill="#F4A592"/>
<path d="M183.25 144.94C183.25 144.94 175.612 164.293 166.086 167.603C156.56 170.914 146.293 161.853 144.121 149.216C141.483 133.793 144.655 119.112 144.655 119.112L153.474 120.284L160.112 142.707L167.207 131.793L183.258 144.94H183.25Z" fill="#F4A592"/>
<path d="M198.853 300.741L195.638 339.276L179.845 336.509L180.56 301.224L198.862 300.741H198.853Z" fill="#F4A592"/>
<path d="M180.543 306.517L180.56 301.224L198.862 300.741L198.043 310.604L180.552 306.517H180.543Z" fill="black"/>
<path d="M243.853 297.129L246.284 330.897L230.991 333.897L225.871 300.578L243.845 297.121L243.853 297.129Z" fill="#F4A592"/>
<path d="M244.405 304.707L227.258 309.535L225.879 300.578L243.853 297.121L244.396 304.707H244.405Z" fill="black"/>
<path d="M249.017 324.94L252.43 320.293C253.474 318.879 252.56 316.923 250.741 316.69L245.698 316.043C244.068 315.836 242.689 317.155 242.939 318.673L244.068 325.673L249.025 324.94H249.017Z" fill="black"/>
<path d="M228.198 320.181L225.896 340.379H265.086L265.517 335.509C266.06 329.336 261.284 324.698 254.767 323.724H248.284L239.94 325.457L228.198 320.181Z" fill="black"/>
<path d="M265.517 336.354H227.776C227.56 336.354 227.388 336.181 227.388 335.966C227.388 335.75 227.56 335.578 227.776 335.578H265.517C265.733 335.578 265.905 335.75 265.905 335.966C265.905 336.181 265.733 336.354 265.517 336.354Z" fill="#D7E2F4"/>
<path d="M249.931 326.569C249.776 326.569 249.63 326.474 249.569 326.328C249.492 326.147 249.569 325.94 249.742 325.836L255.862 322.414L245.569 325.733C245.362 325.802 245.147 325.69 245.078 325.483C245.009 325.276 245.121 325.06 245.328 324.991L259.345 320.474C259.535 320.414 259.742 320.509 259.819 320.69C259.897 320.871 259.819 321.086 259.656 321.181L252.975 324.922L259.362 323.138C259.569 323.078 259.785 323.198 259.845 323.405C259.906 323.612 259.785 323.828 259.578 323.888L250.043 326.552C250.043 326.552 249.975 326.569 249.94 326.569H249.931Z" fill="#D7E2F4"/>
<path d="M199.75 320.181L201.422 340.267L154.112 340.379L154.026 334.233C153.965 330.026 157.06 326.362 161.44 325.466L179.707 321.724L190.621 324.612L199.75 320.19V320.181Z" fill="black"/>
<path d="M184.095 323.043L185.112 317.388C185.422 315.664 183.689 314.233 181.905 314.759L176.965 316.199C175.37 316.664 174.707 318.431 175.629 319.742L179.87 325.733L184.095 323.052V323.043Z" fill="black"/>
<path d="M200.147 336.017H154.043C153.828 336.017 153.655 335.845 153.655 335.629C153.655 335.414 153.828 335.241 154.043 335.241H200.147C200.362 335.241 200.535 335.414 200.535 335.629C200.535 335.845 200.362 336.017 200.147 336.017Z" fill="#D7E2F4"/>
<path d="M172.138 326.698C172.034 326.698 171.931 326.655 171.853 326.569L169.293 323.767C169.189 323.655 169.164 323.483 169.224 323.345C169.284 323.207 169.422 323.121 169.577 323.121H169.586L175.043 323.259L171.586 322.664C171.37 322.629 171.233 322.422 171.267 322.216C171.302 322 171.508 321.862 171.715 321.897L180.388 323.397C180.586 323.431 180.733 323.612 180.707 323.819C180.689 324.026 180.543 324.173 180.31 324.173L170.465 323.931L172.405 326.06C172.552 326.224 172.543 326.466 172.379 326.612C172.302 326.681 172.207 326.716 172.112 326.716L172.138 326.698Z" fill="#D7E2F4"/>
<path d="M209.19 95.5259L212.483 110.793L201.854 113.534L198.914 100.767L209.19 95.5259Z" fill="#F4A592"/>
<path d="M209.19 95.5259L198.914 100.767L200.638 108.233L209.793 98.2845L209.199 95.5259H209.19Z" fill="black"/>
<path d="M187.388 90.3965L184.362 91.1982C182.741 91.6292 182.345 93.7327 183.69 94.7327L186.81 97.0344L187.396 90.3965H187.388Z" fill="#F4A592"/>
<path d="M186.008 90.138C186.008 81.6639 189.25 75.1553 197.37 75.1553C207.595 75.1553 212.491 81.7415 212.491 90.2242C212.491 98.707 207.069 102.414 199.681 104.078C188.784 106.526 186.017 98.6208 186.017 90.1467L186.008 90.138Z" fill="#F4A592"/>
<path d="M185.449 161.526L177 302.871L202.923 303.948L208.492 195.423L210.897 194.741L221.578 304.129L248.794 301.966L231.768 161.974L185.449 161.517V161.526Z" fill="#3A3D74"/>
<path d="M310.362 150.242L302.802 166.078L232.759 136.457L233.957 172.259H184.095L183.802 146.69L172.5 164.414C172.5 164.414 168.776 170.552 158.992 169.423C151.25 168.535 146 159.578 144.698 154.604C142.517 146.285 143.069 124.716 143.069 124.716L155.828 124.302L160.379 141.466C160.379 141.466 173.897 113.759 180.483 111.276C184.94 109.595 202.06 107.44 202.06 107.44L210.604 106.181C210.604 106.181 230.474 102.655 239.647 106.767C245.612 109.44 310.354 150.259 310.354 150.259L310.362 150.242Z" fill="#09B770"/>
<path d="M183.785 147.681C183.569 147.681 183.397 147.5 183.397 147.285L183.63 128.293C183.63 128.078 183.794 127.905 184.026 127.905C184.242 127.905 184.414 128.086 184.414 128.302L184.181 147.293C184.181 147.509 184.009 147.681 183.794 147.681H183.785Z" fill="#12897B"/>
<path d="M207.465 164.612C207.25 164.612 207.077 164.431 207.077 164.216L205.655 109.129C205.655 108.914 205.819 108.741 206.051 108.741C206.267 108.741 206.439 108.922 206.439 109.138L207.862 164.224C207.862 164.44 207.689 164.612 207.474 164.612H207.465Z" fill="black"/>
<path d="M182.638 124.716C182.466 124.716 182.302 124.595 182.259 124.414L179.854 114.414C179.802 114.207 179.931 113.992 180.138 113.948C180.354 113.897 180.561 114.026 180.612 114.233L183.017 124.233C183.069 124.44 182.94 124.655 182.733 124.698C182.699 124.698 182.673 124.707 182.638 124.707V124.716Z" fill="#12897B"/>
<path d="M205.819 108.009C212.009 107.449 211.5 106.026 211.5 106.026C208.767 106.362 210.612 106.173 210.612 106.173L202.069 107.431C202.069 107.431 202.604 107.328 199.672 107.75C199.672 107.75 199.569 108.578 205.828 108.009H205.819Z" fill="#F4A592"/>
<path d="M231.034 122.388C231.034 122.388 230.965 122.388 230.931 122.371C230.724 122.31 230.603 122.095 230.664 121.888L235.164 106.224C235.224 106.017 235.439 105.897 235.646 105.957C235.853 106.017 235.974 106.233 235.914 106.44L231.414 122.104C231.362 122.276 231.207 122.388 231.043 122.388H231.034Z" fill="#12897B"/>
<path d="M232.663 138.276C232.457 138.276 232.284 138.112 232.275 137.905L231.888 130C231.879 129.785 232.043 129.604 232.258 129.595C232.474 129.586 232.655 129.75 232.663 129.966L233.051 137.871C233.06 138.086 232.896 138.267 232.681 138.276C232.681 138.276 232.672 138.276 232.663 138.276Z" fill="#12897B"/>
<path d="M162.353 152.233C162.172 152.233 162.017 152.112 161.974 151.931L159.629 141.629C159.577 141.423 159.715 141.207 159.922 141.164C160.138 141.112 160.336 141.25 160.388 141.457L162.733 151.759C162.784 151.966 162.646 152.181 162.439 152.224C162.405 152.224 162.379 152.233 162.353 152.233Z" fill="#12897B"/>
<path d="M206.284 90.026C206.284 90.026 197.491 90.276 197.491 80.5088C197.491 80.5088 191.759 83.6122 190.345 80.5088C190.345 80.5088 184.534 82.207 186.362 79.5346C188.19 76.8622 194.164 73.345 202.233 74.1812C209.465 74.9312 215.259 81.4484 215.259 88.1898C215.259 94.9312 210.25 100.431 210.25 100.431L206.284 90.026Z" fill="#E95427"/>
<path d="M232.276 173.043H184.094C183.879 173.043 183.707 172.871 183.707 172.655C183.707 172.44 183.879 172.267 184.094 172.267H232.276C232.491 172.267 232.663 172.44 232.663 172.655C232.663 172.871 232.491 173.043 232.276 173.043Z" fill="black"/>
<path d="M204.991 172.474V185.302C204.991 185.517 205.164 185.69 205.379 185.69C205.595 185.69 205.767 185.517 205.767 185.302V172.509C205.508 172.491 205.25 172.483 204.991 172.474Z" fill="black"/>
<path d="M209.638 172.741V180.888C209.638 181.104 209.81 181.276 210.026 181.276C210.241 181.276 210.414 181.104 210.414 180.888V172.776C210.155 172.776 209.896 172.759 209.638 172.75V172.741Z" fill="black"/>
<path d="M203.569 197.009C203.397 197.009 203.233 196.888 203.19 196.715C203.138 196.509 203.267 196.293 203.474 196.241L215.25 193.302C215.457 193.25 215.672 193.379 215.724 193.586C215.776 193.793 215.647 194.009 215.44 194.06L203.664 197C203.664 197 203.603 197.009 203.569 197.009Z" fill="black"/>
<path d="M220.776 296.104C220.578 296.104 220.405 295.948 220.388 295.741C220.371 295.526 220.535 295.345 220.75 295.328L247.767 293.354C247.966 293.336 248.164 293.5 248.181 293.716C248.198 293.931 248.035 294.112 247.819 294.129L220.802 296.104C220.802 296.104 220.785 296.104 220.776 296.104Z" fill="black"/>
<path d="M203.681 296.604H203.664L177.439 295.56C177.224 295.552 177.06 295.371 177.069 295.155C177.077 294.94 177.276 294.767 177.474 294.785L203.698 295.828C203.914 295.836 204.077 296.017 204.069 296.233C204.069 296.44 203.888 296.604 203.681 296.604Z" fill="black"/>
<path d="M203.363 89.9483C204.604 87.7586 207.164 86.888 209.07 87.9914C210.975 89.1035 211.509 91.7759 210.268 93.9569C209.026 96.1466 206.466 97.0173 204.561 95.9138C202.656 94.8018 202.121 92.1293 203.363 89.9483Z" fill="#F4A592"/>
<path d="M188.698 84.1467C190.344 83.0778 192.499 82.845 194.344 83.5347" stroke="black" stroke-width="0.862069" stroke-miterlimit="10" stroke-linecap="round"/>
<path d="M188.362 99.4396C190.052 99.7068 191.854 99.1293 193.061 97.9224" stroke="black" stroke-width="0.862069" stroke-miterlimit="10" stroke-linecap="round"/>
<path d="M190.871 87C190.871 88.4828 190.879 89.9655 190.888 91.4483" stroke="black" stroke-width="0.862069" stroke-miterlimit="10" stroke-linecap="round"/>
<path d="M208.086 89.8364C208.095 91.2502 207.664 92.664 206.854 93.8278" stroke="black" stroke-width="0.862069" stroke-miterlimit="10" stroke-linecap="round"/>
<path d="M209.595 91C209.216 91.7069 208.638 92.3017 207.931 92.6983" stroke="black" stroke-width="0.862069" stroke-miterlimit="10" stroke-linecap="round"/>
<path d="M199.672 105.319L198.215 107.948L201.405 116.285L204.983 108.233L199.672 105.319Z" fill="black"/>
<path d="M212.483 114.724L207.043 107.871L211.25 103.534L212.871 105.819L212.483 114.724Z" fill="black"/>
<path d="M143.077 118.422L155.025 119.319L155.836 124.293L143.077 124.715V118.422Z" fill="black"/>
<path d="M302.802 166.078L310.362 150.241L315.741 154.638L309.776 169.302L302.802 166.078Z" fill="black"/>
</g>
<path d="M358.957 167.784H324.207V179.388H358.957V167.784Z" fill="#8E3C33"/>
<path d="M327.284 173.517C327.344 173.448 327.405 173.371 327.465 173.293C328.784 171.595 326.586 169.215 324.827 167.31C324.706 167.181 324.594 167.06 324.482 166.94C322.887 165.198 322.543 164.448 322.543 164.44C322.491 164.328 322.362 164.276 322.241 164.328C322.129 164.379 322.077 164.509 322.12 164.629C322.137 164.664 322.482 165.44 324.146 167.259C324.258 167.379 312.715 164.896 312.646 164.845C312.543 164.776 312.405 164.802 312.327 164.905C312.258 165.009 312.284 165.155 312.387 165.224C312.456 165.267 319.077 169.664 322.198 172.345C323.862 173.776 325.06 174.396 325.974 174.302C326.551 174.241 326.948 173.914 327.275 173.526L327.284 173.517Z" fill="#F4A592"/>
<path d="M327.284 173.517C327.344 173.448 327.405 173.371 327.465 173.293C328.784 171.595 326.586 169.215 324.827 167.31C324.706 167.181 324.594 167.06 324.482 166.94C322.887 165.198 322.543 164.448 322.543 164.44C322.491 164.328 322.362 164.276 322.241 164.328C322.129 164.379 322.077 164.509 322.12 164.629C322.137 164.664 322.482 165.44 324.146 167.259C324.258 167.379 324.379 167.509 324.491 167.638C326.051 169.328 328.189 171.638 327.103 173.034C326.749 173.491 326.413 173.802 325.931 173.853C325.163 173.931 324.043 173.328 322.499 172C319.353 169.302 312.715 164.896 312.646 164.853C312.543 164.784 312.405 164.81 312.327 164.914C312.258 165.017 312.284 165.164 312.387 165.233C312.456 165.276 319.077 169.672 322.198 172.353C323.862 173.784 325.06 174.405 325.974 174.31C326.551 174.25 326.948 173.922 327.275 173.534L327.284 173.517Z" fill="black"/>
</g>
<defs>
<clipPath id="clip0_90_4026">
<rect width="375" height="357.784" fill="white"/>
</clipPath>
<clipPath id="clip1_90_4026">
<rect width="6.23302" height="8.26905" fill="white" transform="translate(63.4048 178.086) rotate(-77.14)"/>
</clipPath>
<clipPath id="clip2_90_4026">
<rect width="26.2746" height="4.55043" fill="white" transform="translate(46.4136 138.836)"/>
</clipPath>
</defs>
</svg>
