<svg width="39" height="31" viewBox="0 0 39 31" fill="none" xmlns="http://www.w3.org/2000/svg">
<path id="twitter" d="M38.0919 4.08417C36.725 4.68985 35.2566 5.0991 33.713 5.28407C35.3058 4.33102 36.4974 2.83102 37.0655 1.06397C35.5691 1.95282 33.9313 2.57848 32.2233 2.91374C31.0748 1.68743 29.5535 0.874612 27.8957 0.60148C26.2379 0.328348 24.5363 0.610184 23.0551 1.40323C21.5738 2.19628 20.3959 3.45617 19.7041 4.9873C19.0122 6.51842 18.8453 8.23512 19.2291 9.87086C16.1969 9.71862 13.2306 8.9305 10.5227 7.55767C7.81485 6.18483 5.42589 4.25796 3.5109 1.90209C2.85611 3.0316 2.47961 4.34118 2.47961 5.73588C2.47888 6.99142 2.78807 8.22774 3.37974 9.33513C3.97142 10.4425 4.82729 11.3868 5.87141 12.084C4.6605 12.0455 3.47632 11.7183 2.4174 11.1297V11.2279C2.41728 12.9889 3.02641 14.6956 4.14143 16.0586C5.25645 17.4216 6.80869 18.3568 8.53476 18.7056C7.41144 19.0096 6.23373 19.0544 5.09058 18.8365C5.57757 20.3517 6.52619 21.6767 7.80363 22.626C9.08108 23.5753 10.6234 24.1013 12.2147 24.1305C9.51339 26.2511 6.17734 27.4013 2.74316 27.3963C2.13483 27.3964 1.52702 27.3609 0.922852 27.2899C4.40874 29.5312 8.46656 30.7206 12.6108 30.716C26.6396 30.716 34.3088 19.0968 34.3088 9.01964C34.3088 8.69224 34.3007 8.36158 34.2859 8.03418C35.7777 6.95538 37.0653 5.61948 38.0886 4.08909L38.0919 4.08417Z" fill="white"/>
</svg>
