<svg width="19" height="16" viewBox="0 0 19 16" fill="none" xmlns="http://www.w3.org/2000/svg">
<path id="Ellipse 19" d="M17.2961 6.92261C17.2961 8.46145 16.4664 9.91894 14.9976 11.0206C13.5285 12.1224 11.4602 12.8289 9.13986 12.8289C8.52338 12.8289 7.92369 12.7789 7.34763 12.6846C6.98264 12.6248 6.68633 12.7659 6.52027 12.8687C6.34411 12.9778 6.19287 13.1193 6.07361 13.244C5.84408 13.4839 5.60952 13.7957 5.4145 14.055L5.39279 14.0838C5.33425 14.1616 5.27907 14.2347 5.22689 14.3029C5.18803 14.1504 5.14887 13.981 5.10752 13.7972C5.09859 13.7575 5.08954 13.717 5.08036 13.676C5.00567 13.3421 4.92228 12.9693 4.82533 12.6577C4.77044 12.4813 4.70093 12.2896 4.60907 12.1163C4.52711 11.9617 4.37224 11.7135 4.09555 11.5547C2.12736 10.4252 0.983612 8.72404 0.983612 6.92261C0.983612 5.38377 1.8133 3.92628 3.28215 2.82464C4.75126 1.7228 6.81949 1.01636 9.13986 1.01636C11.4602 1.01636 13.5285 1.7228 14.9976 2.82464C16.4664 3.92628 17.2961 5.38377 17.2961 6.92261Z" stroke="white" stroke-width="1.6875"/>
</svg>
