<svg width="31" height="31" viewBox="0 0 31 31" fill="none" xmlns="http://www.w3.org/2000/svg">
<path id="Insta" fill-rule="evenodd" clip-rule="evenodd" d="M9.37957 0.48209C10.9791 0.408453 11.4891 0.39209 15.5637 0.39209C19.6382 0.39209 20.1482 0.409817 21.7464 0.48209C23.3446 0.554363 24.4355 0.809363 25.39 1.17891C26.3896 1.55664 27.2964 2.14709 28.0464 2.91073C28.81 3.65936 29.3991 4.56482 29.7755 5.56573C30.1464 6.52027 30.4 7.61118 30.4737 9.20664C30.5473 10.8089 30.5637 11.3189 30.5637 15.3921C30.5637 19.4666 30.5459 19.9766 30.4737 21.5762C30.4014 23.1716 30.1464 24.2625 29.7755 25.2171C29.3991 26.2181 28.809 27.1251 28.0464 27.8748C27.2964 28.6385 26.3896 29.2275 25.39 29.6039C24.4355 29.9748 23.3446 30.2285 21.7491 30.3021C20.1482 30.3757 19.6382 30.3921 15.5637 30.3921C11.4891 30.3921 10.9791 30.3744 9.37957 30.3021C7.78411 30.2298 6.69321 29.9748 5.73866 29.6039C4.73764 29.2275 3.83069 28.6374 3.08093 27.8748C2.31781 27.1257 1.72727 26.2192 1.35048 25.2185C0.980932 24.2639 0.727296 23.173 0.65366 21.5775C0.580023 19.9753 0.56366 19.4653 0.56366 15.3921C0.56366 11.3175 0.581387 10.8075 0.65366 9.20936C0.725932 7.61118 0.980932 6.52027 1.35048 5.56573C1.72783 4.56493 2.31882 3.65843 3.0823 2.90936C3.83099 2.14641 4.73703 1.55588 5.7373 1.17891C6.69184 0.809363 7.78275 0.555726 9.37821 0.48209H9.37957ZM21.625 3.18209C20.0432 3.10982 19.5687 3.09482 15.5637 3.09482C11.5587 3.09482 11.0841 3.10982 9.5023 3.18209C8.03911 3.24891 7.24548 3.493 6.71639 3.69891C6.01684 3.97164 5.51639 4.29482 4.99139 4.81982C4.49372 5.30398 4.11072 5.89338 3.87048 6.54482C3.66457 7.07391 3.42048 7.86755 3.35366 9.33073C3.28139 10.9125 3.26639 11.3871 3.26639 15.3921C3.26639 19.3971 3.28139 19.8716 3.35366 21.4535C3.42048 22.9166 3.66457 23.7103 3.87048 24.2394C4.11048 24.8898 4.49366 25.4803 4.99139 25.9644C5.47548 26.4621 6.06593 26.8453 6.71639 27.0853C7.24548 27.2912 8.03911 27.5353 9.5023 27.6021C11.0841 27.6744 11.5573 27.6894 15.5637 27.6894C19.57 27.6894 20.0432 27.6744 21.625 27.6021C23.0882 27.5353 23.8818 27.2912 24.4109 27.0853C25.1105 26.8125 25.6109 26.4894 26.1359 25.9644C26.6337 25.4803 27.0168 24.8898 27.2568 24.2394C27.4628 23.7103 27.7068 22.9166 27.7737 21.4535C27.8459 19.8716 27.8609 19.3971 27.8609 15.3921C27.8609 11.3871 27.8459 10.9125 27.7737 9.33073C27.7068 7.86755 27.4628 7.07391 27.2568 6.54482C26.9841 5.84527 26.6609 5.34482 26.1359 4.81982C25.6517 4.32219 25.0623 3.9392 24.4109 3.69891C23.8818 3.493 23.0882 3.24891 21.625 3.18209ZM13.6478 20.0162C14.7177 20.4616 15.9092 20.5217 17.0186 20.1863C18.128 19.8508 19.0865 19.1406 19.7304 18.177C20.3743 17.2133 20.6637 16.056 20.5492 14.9027C20.4346 13.7494 19.9232 12.6716 19.1023 11.8535C18.579 11.3305 17.9462 10.93 17.2496 10.6809C16.5529 10.4318 15.8097 10.3403 15.0734 10.4129C14.3372 10.4856 13.6261 10.7205 12.9916 11.1009C12.357 11.4813 11.8147 11.9977 11.4036 12.6128C10.9926 13.2279 10.723 13.9266 10.6144 14.6584C10.5057 15.3902 10.5607 16.137 10.7753 16.8451C10.9899 17.5531 11.3589 18.2047 11.8556 18.7531C12.3522 19.3014 12.9643 19.7328 13.6478 20.0162ZM10.1118 9.94027C10.8278 9.22433 11.6777 8.65641 12.6132 8.26895C13.5486 7.88148 14.5512 7.68205 15.5637 7.68205C16.5762 7.68205 17.5787 7.88148 18.5142 8.26895C19.4496 8.65641 20.2995 9.22433 21.0155 9.94027C21.7314 10.6562 22.2993 11.5062 22.6868 12.4416C23.0743 13.377 23.2737 14.3796 23.2737 15.3921C23.2737 16.4046 23.0743 17.4072 22.6868 18.3426C22.2993 19.278 21.7314 20.128 21.0155 20.8439C19.5696 22.2898 17.6085 23.1021 15.5637 23.1021C13.5188 23.1021 11.5578 22.2898 10.1118 20.8439C8.66593 19.398 7.85362 17.4369 7.85362 15.3921C7.85362 13.3473 8.66593 11.3862 10.1118 9.94027ZM24.9837 8.83027C25.1611 8.66291 25.3031 8.46166 25.4013 8.23842C25.4996 8.01518 25.552 7.7745 25.5556 7.53063C25.5591 7.28676 25.5137 7.04466 25.422 6.81865C25.3304 6.59264 25.1943 6.38733 25.0218 6.21487C24.8493 6.04241 24.644 5.9063 24.418 5.81461C24.192 5.72292 23.9499 5.67751 23.706 5.68107C23.4622 5.68462 23.2215 5.73707 22.9982 5.83531C22.775 5.93355 22.5737 6.07558 22.4064 6.253C22.0809 6.59804 21.9027 7.05635 21.9096 7.53063C21.9165 8.00492 22.108 8.45783 22.4434 8.79324C22.7788 9.12865 23.2317 9.32013 23.706 9.32704C24.1803 9.33396 24.6386 9.15576 24.9837 8.83027Z" fill="white"/>
</svg>
