<svg width="31" height="31" viewBox="0 0 31 31" fill="none" xmlns="http://www.w3.org/2000/svg">
<path id="linkedin" fill-rule="evenodd" clip-rule="evenodd" d="M0.56366 2.89957C0.56366 2.23455 0.82784 1.59676 1.29808 1.12652C1.76833 0.656273 2.40611 0.392093 3.07114 0.392093H28.0668C28.3963 0.391555 28.7228 0.456026 29.0274 0.581814C29.332 0.707602 29.6088 0.892238 29.842 1.12515C30.0752 1.35806 30.2601 1.63468 30.3862 1.93916C30.5123 2.24364 30.5772 2.57 30.577 2.89957V27.8952C30.5773 28.2248 30.5127 28.5513 30.3868 28.8559C30.2608 29.1606 30.0761 29.4374 29.843 29.6705C29.61 29.9037 29.3333 30.0886 29.0288 30.2147C28.7242 30.3408 28.3978 30.4056 28.0681 30.4054H3.07114C2.74174 30.4054 2.41556 30.3405 2.11125 30.2144C1.80694 30.0883 1.53046 29.9035 1.2976 29.6705C1.06474 29.4375 0.880071 29.1609 0.754139 28.8566C0.628206 28.5522 0.563481 28.226 0.56366 27.8966V2.89957ZM12.4435 11.8354H16.5076V13.8763C17.0942 12.703 18.5948 11.6471 20.8499 11.6471C25.1732 11.6471 26.1978 13.984 26.1978 18.2719V26.2145H21.8226V19.2486C21.8226 16.8067 21.236 15.4288 19.7463 15.4288C17.6794 15.4288 16.82 16.9144 16.82 19.2486V26.2145H12.4435V11.8354ZM4.94015 26.0276H9.31664V11.6471H4.94015V26.0262V26.0276ZM9.94282 6.95683C9.95108 7.33155 9.8844 7.70414 9.7467 8.05274C9.609 8.40134 9.40306 8.71893 9.14097 8.98686C8.87887 9.2548 8.56589 9.46768 8.22041 9.61301C7.87492 9.75835 7.50389 9.83322 7.12908 9.83322C6.75426 9.83322 6.38323 9.75835 6.03774 9.61301C5.69226 9.46768 5.37928 9.2548 5.11718 8.98686C4.85509 8.71893 4.64915 8.40134 4.51145 8.05274C4.37375 7.70414 4.30707 7.33155 4.31533 6.95683C4.33152 6.2213 4.63508 5.52136 5.161 5.0069C5.68692 4.49243 6.39337 4.20436 7.12908 4.20436C7.86478 4.20436 8.57123 4.49243 9.09715 5.0069C9.62307 5.52136 9.92663 6.2213 9.94282 6.95683Z" fill="white"/>
</svg>
