<svg width="19" height="19" viewBox="0 0 19 19" fill="none" xmlns="http://www.w3.org/2000/svg">
<g id="cajita">
<path id="Vector" d="M12.1421 9.65081C12.1421 11.1187 10.8829 12.3049 9.32481 12.3049C7.76667 12.3049 6.50757 11.1187 6.50757 9.65081C6.50757 8.1829 7.76667 6.9967 9.32481 6.9967C10.8829 6.9967 12.1421 8.1829 12.1421 9.65081Z" stroke="white" stroke-width="1.44379" stroke-linecap="round" stroke-linejoin="round"/>
<path id="Vector_2" d="M9.32495 15.7815C12.1028 15.7815 14.6919 14.2394 16.494 11.5705C17.2022 10.5252 17.2022 8.7681 16.494 7.72277C14.6919 5.05383 12.1028 3.51178 9.32495 3.51178C6.54706 3.51178 3.95803 5.05383 2.15594 7.72277C1.44769 8.7681 1.44769 10.5252 2.15594 11.5705C3.95803 14.2394 6.54706 15.7815 9.32495 15.7815Z" stroke="white" stroke-width="1.44379" stroke-linecap="round" stroke-linejoin="round"/>
<path id="Line 233" d="M16.5437 2.25909L2.88553 16.6964" stroke="white" stroke-width="1.15503"/>
</g>
</svg>
