<svg width="19" height="19" viewBox="0 0 19 19" fill="none" xmlns="http://www.w3.org/2000/svg">
<g id="cajita">
<path id="Vector" d="M17 17L15.5 15.5M9.125 16.25C10.0607 16.25 10.9872 16.0657 11.8516 15.7076C12.7161 15.3496 13.5015 14.8248 14.1631 14.1631C14.8248 13.5015 15.3496 12.7161 15.7076 11.8516C16.0657 10.9872 16.25 10.0607 16.25 9.125C16.25 8.18933 16.0657 7.26282 15.7076 6.39838C15.3496 5.53394 14.8248 4.74848 14.1631 4.08686C13.5015 3.42525 12.7161 2.90042 11.8516 2.54236C10.9872 2.18429 10.0607 2 9.125 2C7.23533 2 5.42306 2.75067 4.08686 4.08686C2.75067 5.42306 2 7.23533 2 9.125C2 11.0147 2.75067 12.8269 4.08686 14.1631C5.42306 15.4993 7.23533 16.25 9.125 16.25Z" stroke="#C8C5C0" stroke-width="1.6875" stroke-linecap="round" stroke-linejoin="round"/>
</g>
</svg>
