<svg width="21" height="21" viewBox="0 0 21 21" fill="none" xmlns="http://www.w3.org/2000/svg">
<path id="phone" d="M18.0133 2.57335L17.9972 2.56896L17.981 2.56521L14.7976 1.82963C14.0311 1.63071 13.2724 2.05499 12.9656 2.73077L12.9618 2.73911L12.9582 2.74754L11.4829 6.1944L11.4788 6.20385L11.475 6.2134C11.2118 6.87239 11.4185 7.58543 11.9177 8.02275L11.9279 8.03171L11.9384 8.04033L13.2877 9.14775C12.3352 10.8697 10.8851 12.3376 9.12936 13.3121L8.02447 11.9624L8.01586 11.9519L8.00692 11.9417C7.57016 11.4419 6.85691 11.234 6.19727 11.4982L6.18771 11.502L6.17824 11.5061L2.73583 12.9833L2.7274 12.9869L2.71904 12.9907C1.97985 13.3271 1.68779 14.1086 1.80809 14.7711L1.81162 14.7906L1.81607 14.8099L2.55373 18.0105L2.55746 18.0267L2.56183 18.0428C2.75535 18.7533 3.3691 19.2188 4.11358 19.2188C12.4478 19.2188 19.2188 12.4706 19.2188 4.09514C19.2188 3.31029 18.6506 2.74739 18.0133 2.57335Z" stroke="#C8C5C0" stroke-width="1.6875"/>
</svg>
