<svg width="17" height="17" viewBox="0 0 17 17" fill="none" xmlns="http://www.w3.org/2000/svg">
<path d="M12.9675 14.0908C12.943 14.1118 12.9183 14.1324 12.8935 14.1527C12.4388 14.5239 11.8812 14.8179 11.0658 15.1088C9.50712 15.665 7.80029 15.6718 6.23703 15.1282C4.67396 14.5847 3.35366 13.5255 2.49875 12.1341C1.64404 10.7431 1.30644 9.10499 1.54171 7.49832C1.777 5.89153 2.57122 4.41226 3.79233 3.31367C5.01371 2.21484 6.5864 1.56528 8.24291 1.47848C9.89945 1.39169 11.5339 1.87325 12.8677 2.83885C13.9672 3.6348 14.8057 4.7185 15.2944 5.95632L15.1721 5.98701C14.6894 4.76301 13.8619 3.69491 12.7813 2.91259C11.4718 1.96461 9.8709 1.4941 8.25114 1.57897C6.63135 1.66384 5.08956 2.29906 3.88894 3.37921C2.68806 4.4596 1.90263 5.91869 1.66976 7.50898C1.43687 9.09939 1.77158 10.7193 2.61507 12.092C3.45839 13.4645 4.75713 14.5038 6.28769 15.036C7.81806 15.5682 9.48804 15.5615 11.014 15.017C11.7359 14.7594 12.3863 14.4895 12.9675 14.0908Z" stroke="white" stroke-width="1.6875"/>
<path d="M11.875 7.37488H15.8125V2.87488" stroke="white" stroke-width="1.6875" stroke-linecap="round"/>
</svg>
