<svg width="102" height="111" viewBox="0 0 102 111" fill="none" xmlns="http://www.w3.org/2000/svg">
<g id="Frame" clip-path="url(#clip0_350_36925)">
<g id="Group">
<g id="Layer_1">
<path id="Vector" d="M102 53.3276H38.1152V111H102V53.3276Z" fill="#FF7500"/>
<path id="Vector_2" d="M70.0531 43.8667H47.1096L38.1152 53.3276H70.0531H102L93.0056 43.8667H70.0531Z" fill="#FFA970"/>
<path id="Vector_3" d="M70.0532 50.1436H65.7327L64.0298 53.3274H70.0532H76.0767L74.3829 50.1436H70.0532Z" fill="white"/>
<path id="Vector_4" d="M99.9532 94.5093H85.1074V107.744H99.9532V94.5093Z" fill="white"/>
<path id="Vector_5" d="M87.0999 95.625H86.3481V106.628H87.0999V95.625Z" fill="#403036"/>
<path id="Vector_6" d="M89.8353 95.625H88.7393V106.628H89.8353V95.625Z" fill="#403036"/>
<path id="Vector_7" d="M88.4222 95.625H87.3262V106.628H88.4222V95.625Z" fill="#403036"/>
<path id="Vector_8" d="M93.3768 95.625H92.2808V106.628H93.3768V95.625Z" fill="#403036"/>
<path id="Vector_9" d="M91.1395 95.625H90.3877V106.628H91.1395V95.625Z" fill="#403036"/>
<path id="Vector_10" d="M91.1395 95.625H90.3877V106.628H91.1395V95.625Z" fill="#403036"/>
<path id="Vector_11" d="M97.3081 95.625H96.2212V106.628H97.3081V95.625Z" fill="#403036"/>
<path id="Vector_12" d="M98.8389 95.625H97.752V106.628H98.8389V95.625Z" fill="#403036"/>
<path id="Vector_13" d="M94.6361 95.625H93.8843V106.628H94.6361V95.625Z" fill="#403036"/>
<path id="Vector_14" d="M95.9945 95.625H95.2427V106.628H95.9945V95.625Z" fill="#403036"/>
<path id="Vector_15" d="M88.4588 57.6092C86.0675 57.6092 84.1201 59.5503 84.1201 61.9541H87.7795V65.5915C87.5168 65.8818 87.1454 66.1721 86.9099 66.1539C86.7469 66.1358 86.5476 65.909 86.3574 65.528L84.9715 66.1993C85.5331 67.3513 86.2578 67.6415 86.7741 67.6869C86.8284 67.6869 86.8827 67.6869 86.928 67.6869C88.1418 67.6869 89.0657 66.4532 89.1744 66.3081L89.3193 66.1086V61.945H92.7975C92.7975 59.5413 90.8591 57.6001 88.4588 57.6001V57.6092Z" fill="#735A62"/>
<path id="Vector_16" d="M99.7447 57.7178H93.0601C93.0601 59.7043 93.5582 61.9448 95.6325 62.3802V66.4621C94.1923 66.5981 93.83 67.1242 93.83 67.5959H98.9839C98.9839 67.1242 98.6306 66.5981 97.1814 66.4621V62.3802C99.2556 61.9448 99.7538 59.6952 99.7538 57.7178H99.7447Z" fill="#735A62"/>
<path id="Vector_17" d="M102 78.0093H38.1152V86.3907H102V78.0093Z" fill="#FFA970"/>
<path id="Vector_18" d="M76.0767 53.3276H64.0298V59.7317H76.0767V53.3276Z" fill="white"/>
<g id="Group_2" style="mix-blend-mode:multiply">
<path id="Vector_19" d="M76.0767 53.3276H64.0298V59.7317H76.0767V53.3276Z" fill="#F7EAD7"/>
</g>
<g id="Group_3" style="mix-blend-mode:multiply">
<path id="Vector_20" d="M38.1152 53.3276V111H70.0531V43.8667H47.1096L38.1152 53.3276Z" fill="#F7EAD7"/>
</g>
<path id="Vector_21" d="M10.4528 12.0916C9.77349 11.2389 8.52351 11.0938 7.67208 11.7832C6.82064 12.4635 6.67572 13.7153 7.36411 14.5679L13.3604 22.0968C14.0397 22.9494 15.2897 23.0855 16.1411 22.4052C16.9926 21.7249 17.1284 20.4731 16.4491 19.6204L10.4438 12.1007L10.4528 12.0916Z" fill="#403036"/>
<path id="Vector_22" d="M57.5897 11.774C56.7383 11.0937 55.4883 11.2298 54.809 12.0824L48.8037 19.6022C48.1243 20.4548 48.2602 21.7066 49.1116 22.3869C49.9721 23.0672 51.213 22.9312 51.8924 22.0785L57.8886 14.5497C58.568 13.697 58.4321 12.4453 57.5807 11.7649L57.5897 11.774Z" fill="#403036"/>
<path id="Vector_23" d="M32.5264 16.0283C16.639 16.0283 3.74072 28.9361 3.74072 44.8555C3.74072 60.7748 16.63 73.6827 32.5264 73.6827C48.4229 73.6827 61.3122 60.7748 61.3122 44.8555C61.3122 28.9361 48.4229 16.0283 32.5264 16.0283Z" fill="white"/>
<path id="Vector_24" d="M32.5264 12.9712C14.9543 12.9712 0.697266 27.2487 0.697266 44.8462C0.697266 62.4436 14.9452 76.7211 32.5264 76.7211C50.1076 76.7211 64.3556 62.4527 64.3556 44.8462C64.3556 27.2396 50.1076 12.9712 32.5264 12.9712ZM32.5264 71.8682C17.6263 71.8682 5.55225 59.7768 5.55225 44.8462C5.55225 29.9155 17.6354 17.8332 32.5264 17.8332C47.4174 17.8332 59.5096 29.9337 59.5096 44.8462C59.5096 59.7586 47.4265 71.8682 32.5264 71.8682Z" fill="#403036"/>
<path id="Vector_25" d="M32.5266 12.2729C14.565 12.2729 0 26.8589 0 44.8464C0 62.8339 14.565 77.4289 32.5266 77.4289C50.4882 77.4289 65.0622 62.8429 65.0622 44.8464C65.0622 26.8498 50.4973 12.2729 32.5266 12.2729ZM32.5266 73.6735C16.6301 73.6735 3.74088 60.7657 3.74088 44.8464C3.74088 28.927 16.6301 16.0192 32.5266 16.0192C48.423 16.0192 61.3123 28.927 61.3123 44.8464C61.3123 60.7657 48.423 73.6735 32.5266 73.6735Z" fill="#735A62"/>
<path id="Vector_26" d="M35.9144 9.14355H29.3566C27.4907 9.14355 25.978 10.6584 25.978 12.527C25.978 14.3956 27.4907 15.9104 29.3566 15.9104H35.9144C37.7804 15.9104 39.293 14.3956 39.293 12.527C39.293 10.6584 37.7804 9.14355 35.9144 9.14355Z" fill="#735A62"/>
<path id="Vector_27" d="M32.626 0C29.2474 0 26.5029 2.74847 26.5029 6.14097C26.5029 9.53346 29.2474 12.2729 32.626 12.2729C36.0046 12.2729 38.7491 9.52439 38.7491 6.14097C38.7491 2.75754 36.0046 0 32.626 0ZM32.626 10.5766C30.1804 10.5766 28.1967 8.5901 28.1967 6.1319C28.1967 3.67369 30.1804 1.68718 32.626 1.68718C35.0716 1.68718 37.0643 3.67369 37.0643 6.1319C37.0643 8.5901 35.0807 10.5766 32.626 10.5766Z" fill="#735A62"/>
<path id="Vector_28" d="M32.6261 19.6929C32.0012 19.6929 31.4849 20.1283 31.4849 20.6725V25.2533C31.4849 25.7885 32.0012 26.2239 32.6261 26.2239C33.2511 26.2239 33.7674 25.7885 33.7674 25.2533V20.6725C33.7674 20.1283 33.2602 19.6929 32.6261 19.6929Z" fill="#FF7500"/>
<path id="Vector_29" d="M12.9528 43.6035H8.37863C7.83517 43.6035 7.40039 44.1115 7.40039 44.7464C7.40039 45.3814 7.83517 45.8894 8.37863 45.8894H12.9528C13.4963 45.8894 13.9311 45.3814 13.9311 44.7464C13.9311 44.1115 13.4963 43.6035 12.9528 43.6035Z" fill="#FF7500"/>
<path id="Vector_30" d="M32.4272 63.478C31.7932 63.478 31.2769 63.9134 31.2769 64.4486V69.0385C31.2769 69.5736 31.7841 70.009 32.4272 70.009C33.0703 70.009 33.5685 69.5736 33.5685 69.0385V64.4486C33.5685 63.9134 33.0612 63.478 32.4272 63.478Z" fill="#FF7500"/>
<path id="Vector_31" d="M56.6838 43.8032H52.1096C51.5752 43.8032 51.1313 44.3112 51.1313 44.9461C51.1313 45.5811 51.5661 46.0891 52.1096 46.0891H56.6838C57.2182 46.0891 57.662 45.5811 57.662 44.9461C57.662 44.3112 57.2273 43.8032 56.6838 43.8032Z" fill="#FF7500"/>
<path id="Vector_32" d="M16.3311 26.8677C15.9507 26.4867 15.2804 26.5412 14.8366 26.9856C14.3837 27.4392 14.3293 28.1014 14.7188 28.4823L17.9524 31.7206C18.3329 32.1016 19.0031 32.0472 19.456 31.6027C19.8999 31.1492 19.9542 30.487 19.5738 30.106L16.3402 26.8677H16.3311Z" fill="#FF7500"/>
<path id="Vector_33" d="M17.8075 57.8267L14.5739 61.065C14.1935 61.446 14.2478 62.1172 14.6916 62.5617C15.1355 63.0062 15.8058 63.0697 16.1862 62.6887L19.4289 59.4413C19.8093 59.0603 19.7459 58.3891 19.3021 57.9446C18.8582 57.5002 18.188 57.4457 17.8075 57.8267Z" fill="#FF7500"/>
<path id="Vector_34" d="M47.1095 57.9717C46.7291 57.5907 46.0588 57.6452 45.615 58.0896C45.1712 58.5341 45.1168 59.2054 45.4972 59.5863L48.7309 62.8337C49.1113 63.2147 49.7816 63.1602 50.2254 62.7067C50.6783 62.2622 50.7327 61.591 50.3522 61.21L47.1186 57.9717H47.1095Z" fill="#FF7500"/>
<path id="Vector_35" d="M48.8759 27.0132L45.6423 30.2515C45.2618 30.6325 45.3162 31.3037 45.76 31.7482C46.2038 32.1927 46.8741 32.2471 47.2545 31.8752L50.4972 28.6278C50.8777 28.2469 50.8233 27.5756 50.3795 27.1311C49.9266 26.6867 49.2654 26.6323 48.8759 27.0132Z" fill="#FF7500"/>
<path id="Vector_36" d="M32.4272 40.8188C30.2624 40.8188 28.4961 42.5786 28.4961 44.7465C28.4961 46.9145 30.2533 48.6742 32.4272 48.6742C34.6011 48.6742 36.3492 46.9145 36.3492 44.7465C36.3492 42.5786 34.592 40.8188 32.4272 40.8188Z" fill="#403036"/>
<path id="Vector_37" d="M26.6026 25.8793C26.3943 25.3622 25.6153 25.199 24.8635 25.4983C24.1117 25.7976 23.6588 26.4598 23.8672 26.9769L34.5463 53.5726C34.7546 54.0896 35.5336 54.2529 36.2854 53.9536C37.0372 53.6452 37.481 52.983 37.2818 52.475L26.6026 25.8793Z" fill="#403036"/>
<path id="Vector_38" d="M10.5253 9.36122L4.87325 13.8876C3.74102 14.7947 3.55081 16.4546 4.45659 17.5885C5.36237 18.7223 7.01995 18.9128 8.15218 18.0057L13.8133 13.4794C14.9455 12.5723 15.1357 10.9123 14.23 9.77848C13.3242 8.64463 11.6666 8.45414 10.5344 9.36122H10.5253Z" fill="#FFA970"/>
<path id="Vector_39" d="M60.3973 13.8782L54.7362 9.35186C53.6039 8.44477 51.9464 8.62619 51.0406 9.76912C50.1348 10.903 50.325 12.5629 51.4572 13.47L57.1184 17.9964C58.2506 18.9035 59.9082 18.722 60.814 17.5791C61.7197 16.4453 61.5386 14.7853 60.4064 13.8782H60.3973Z" fill="#FF7500"/>
<g id="Group_4" style="mix-blend-mode:multiply">
<path id="Vector_40" d="M26.5032 6.14117C26.5032 7.44737 26.9108 8.6538 27.6082 9.64252C26.63 10.2412 25.9687 11.3025 25.9687 12.5271C25.9687 12.6631 25.9959 12.7901 26.005 12.9171C21.938 13.7516 18.1609 15.339 14.7914 17.5342L12.4273 14.568L13.8041 13.4704C14.9363 12.5633 15.1265 10.9034 14.2208 9.76951C13.315 8.63566 11.6574 8.44517 10.5252 9.35225L4.8731 13.8786C3.74088 14.7857 3.55066 16.4457 4.45644 17.5795C5.36222 18.7134 7.0198 18.9039 8.15203 17.9968L9.34766 17.0443L11.6212 19.8926C4.51079 25.8793 0 34.8323 0 44.8465C0 62.8068 14.5106 77.3655 32.427 77.4199V9.14362H29.3835C28.6499 8.35446 28.197 7.30224 28.197 6.1321C28.197 3.74647 30.0719 1.81438 32.427 1.70553V0.00927734C29.139 0.118128 26.5032 2.81217 26.5032 6.1321V6.14117Z" fill="#E3D8DB"/>
</g>
</g>
</g>
</g>
<defs>
<clipPath id="clip0_350_36925">
<rect width="102" height="111" fill="white"/>
</clipPath>
</defs>
</svg>
