<svg width="19" height="19" viewBox="0 0 19 19" fill="none" xmlns="http://www.w3.org/2000/svg">
<g id="cajita">
<path id="Vector" d="M15.9426 17C15.9426 14.0975 13.0551 11.75 9.50012 11.75C5.94512 11.75 3.05762 14.0975 3.05762 17M9.50012 9.5C10.4947 9.5 11.4485 9.10491 12.1518 8.40165C12.855 7.69839 13.2501 6.74456 13.2501 5.75C13.2501 4.75544 12.855 3.80161 12.1518 3.09835C11.4485 2.39509 10.4947 2 9.50012 2C8.50556 2 7.55173 2.39509 6.84847 3.09835C6.14521 3.80161 5.75012 4.75544 5.75012 5.75C5.75012 6.74456 6.14521 7.69839 6.84847 8.40165C7.55173 9.10491 8.50556 9.5 9.50012 9.5Z" stroke="#FF7500" stroke-width="1.6875" stroke-linecap="round" stroke-linejoin="round"/>
</g>
</svg>
