<svg width="251" height="172" viewBox="0 0 251 172" fill="none" xmlns="http://www.w3.org/2000/svg">
<g filter="url(#filter0_d_247_4038)">
<path d="M211.833 88.4043C211.833 88.4043 217.572 88.0298 219.173 88.6636C220.775 89.2974 221.634 95.4278 220.769 95.4681C219.905 95.5027 219.415 94.1199 219.415 94.1199C219.415 94.1199 219.968 95.6006 219.208 95.7562C218.453 95.9117 217.226 94.575 217.226 94.575C217.226 94.575 210.75 97.0929 207.95 92.063C205.501 87.6668 211.827 88.4043 211.827 88.4043H211.833Z" fill="#F1B2AA"/>
<path d="M187.829 70.0476L187.408 73.5564C187.408 73.5564 187.921 74.6396 189.955 75.0545C191.47 75.3598 192.046 75.0775 192.046 75.0775V73.2741V71.5168L188.434 70.2608L187.829 70.0476Z" fill="#EE7D6E"/>
<path d="M188.434 70.2607C188.434 70.3587 188.457 70.4739 188.497 70.6122C189.073 72.4617 191.176 73.0897 192.046 73.2741V71.5168L188.434 70.2607Z" fill="black"/>
<path d="M193.781 63.6118C193.781 63.6118 195.1 68.2327 194.08 70.5892C193.061 72.9457 190.883 72.26 189.609 71.609C188.336 70.9522 187.829 70.0533 187.829 70.0533C187.829 70.0533 186.527 70.3069 185.847 69.0335C185.167 67.7602 185.864 66.4984 186.619 66.2852C187.374 66.0778 188.152 66.7058 188.152 66.7058L187.656 65.3461C187.656 65.3461 191.321 59.2791 193.781 63.6118Z" fill="#F6BAB3"/>
<path d="M192.853 69.149C192.853 69.149 192.807 69.149 192.784 69.1317C192.704 69.0972 192.669 68.9992 192.709 68.9243C193.067 68.1638 192.594 67.2189 192.588 67.2131C192.548 67.1382 192.583 67.0403 192.657 66.9999C192.738 66.9596 192.83 66.9942 192.871 67.0691C192.894 67.1152 193.418 68.1638 192.997 69.0626C192.969 69.1202 192.911 69.1548 192.853 69.1548V69.149Z" fill="black"/>
<path d="M187.691 68.7399C187.639 68.7399 187.593 68.7168 187.564 68.6765L186.556 67.2534C186.504 67.1843 186.522 67.0863 186.596 67.0344C186.666 66.9826 186.764 66.9999 186.815 67.0748L187.824 68.4979C187.876 68.567 187.858 68.665 187.783 68.7168C187.755 68.7341 187.726 68.7457 187.691 68.7457V68.7399Z" fill="black"/>
<path d="M186.487 68.2269C186.401 68.2269 186.332 68.1578 186.332 68.0713C186.332 67.9849 186.401 67.9158 186.487 67.91H187.323C187.409 67.9042 187.478 67.9734 187.484 68.0598C187.484 68.1462 187.415 68.2154 187.328 68.2211H186.493V68.2269H186.487Z" fill="black"/>
<path d="M191.384 70.3012C191.228 70.3012 191.061 70.2609 190.905 70.1514C190.381 69.7885 190.283 69.1431 190.277 69.1143C190.266 69.0567 190.295 68.9991 190.341 68.9645C190.387 68.93 190.45 68.9242 190.502 68.953L192.127 69.7596C192.173 69.7827 192.208 69.8288 192.213 69.8864C192.213 69.9383 192.196 69.9959 192.15 70.0247C192.133 70.042 191.787 70.3012 191.384 70.3012ZM190.692 69.3967C190.767 69.5637 190.888 69.7539 191.084 69.8922C191.291 70.0362 191.545 69.9844 191.724 69.9095L190.692 69.3967Z" fill="black"/>
<path d="M191.108 67.2416C191.022 67.2416 190.953 67.1667 190.953 67.0803L190.964 66.2564C190.964 66.17 191.033 66.1008 191.12 66.1008C191.206 66.1008 191.275 66.1757 191.275 66.2622L191.264 67.0861C191.264 67.1725 191.195 67.2416 191.108 67.2416Z" fill="black"/>
<path d="M193.545 67.3915C193.459 67.3915 193.39 67.3224 193.39 67.236V66.4063C193.39 66.3199 193.453 66.2507 193.539 66.2507C193.626 66.2507 193.695 66.3199 193.695 66.4063V67.236C193.695 67.3224 193.632 67.3915 193.545 67.3973V67.3915Z" fill="black"/>
<path d="M190.572 65.5767C190.543 65.5767 190.509 65.5652 190.48 65.5479C190.411 65.496 190.393 65.4038 190.445 65.3289C190.825 64.7873 191.546 65.0466 191.574 65.0581C191.655 65.0869 191.695 65.1791 191.667 65.254C191.638 65.3347 191.551 65.375 191.465 65.3462C191.442 65.3404 190.941 65.1618 190.693 65.5075C190.664 65.5479 190.612 65.5709 190.566 65.5709L190.572 65.5767Z" fill="black"/>
<path d="M194 65.5535C193.954 65.5535 193.914 65.5362 193.879 65.5016C193.816 65.4267 193.597 65.2251 193.389 65.2251C193.286 65.2251 193.199 65.2712 193.107 65.3634C193.05 65.4267 192.952 65.4325 192.882 65.3749C192.819 65.3173 192.813 65.2136 192.871 65.1502C193.021 64.9889 193.194 64.8967 193.389 64.9082C193.781 64.914 194.098 65.2769 194.11 65.2942C194.167 65.3576 194.156 65.4613 194.092 65.5132C194.064 65.5362 194.029 65.5535 193.989 65.5535H194Z" fill="black"/>
<path d="M188.146 66.7061C188.146 66.7061 187.899 67.4781 188.924 66.8156C189.944 66.153 190.065 65.064 190.664 63.7849C191.269 62.5059 192.375 61.7396 193.078 62.6729L193.781 63.6121L192.243 61.3305C192.243 61.3305 190.019 59.0834 187.501 60.9041C184.62 62.9898 185.381 64.4994 185.381 64.4994C185.381 64.4994 186.453 65.813 188.146 66.7061Z" fill="black"/>
<path d="M187.737 65.5823C187.737 65.5823 188.123 68.296 188.739 68.0943C189.356 67.8927 188.664 65.1501 188.664 65.1501L187.737 65.5823Z" fill="black"/>
<path d="M185.865 66.8326C185.865 66.8326 195.96 63.6349 196.582 62.7707C197.204 61.9064 193.909 62.6958 193.909 62.6958C193.909 62.6958 192.197 58.5992 187.68 60.5294C183.561 62.2867 185.865 66.8269 185.865 66.8269V66.8326Z" fill="#ED751B"/>
<path d="M192.738 77.2151C192.738 77.2151 196.466 85.2238 200.004 86.4798C202.147 87.2403 209.015 86.1168 209.015 86.1168L211.227 95.2778C211.227 95.2778 201.582 101.598 194.259 97.3923C189.35 94.5749 187.236 89.6948 187.236 89.6948L192.738 77.2151Z" fill="#ED751B"/>
<path d="M197.572 89.8276C197.463 89.8276 197.371 89.7815 197.302 89.695C197.06 89.3954 196.979 89.0728 197.065 88.7271C197.371 87.471 199.837 86.3879 199.946 86.3418C200.01 86.3129 200.079 86.3302 200.125 86.3821C200.171 86.4339 200.177 86.5031 200.148 86.5665C199.854 87.1023 198.356 89.7642 197.613 89.8333C197.601 89.8333 197.59 89.8333 197.578 89.8333L197.572 89.8276ZM199.624 86.843C198.909 87.206 197.567 87.9896 197.371 88.802C197.307 89.0497 197.371 89.2802 197.544 89.4991C197.953 89.4819 198.921 88.053 199.624 86.8488V86.843Z" fill="#D26214"/>
<path d="M191.558 103.235C191.558 103.235 193.28 87.1253 193.493 83.4724C193.632 81.1332 193.626 77.4976 193.626 77.4976C193.626 77.4976 193.787 76.2531 193.689 75.7288C193.591 75.2045 187.305 71.3845 186.562 71.5055C185.819 71.6207 186.666 73.1764 186.666 73.1764C186.666 73.1764 179.666 72.992 175.69 82.0608C172.838 88.5657 172.008 101.293 172.008 101.293L191.558 103.235Z" fill="#E96D07"/>
<path d="M189.154 74.657C189.154 74.657 189.102 74.657 189.079 74.6397L186.59 73.3087C186.515 73.2684 186.486 73.1705 186.527 73.0956C186.567 73.0207 186.665 72.9918 186.74 73.0322L189.229 74.3631C189.304 74.4034 189.332 74.5014 189.292 74.5763C189.263 74.6281 189.211 74.657 189.154 74.657Z" fill="#D26214"/>
<path d="M193.28 86.7104C193.28 86.7104 194.824 80.7471 194.536 79.6524C194.248 78.5577 193.626 77.9988 193.626 77.9988L193.28 86.7046V86.7104Z" fill="#BA5717"/>
<path d="M207.828 91.3371C207.828 91.3371 212.708 88.2892 214.419 88.0933C216.131 87.8974 219.789 92.8869 219.046 93.3306C218.303 93.7742 217.219 92.7832 217.219 92.7832C217.219 92.7832 218.406 93.8261 217.813 94.3216C217.219 94.8171 215.508 94.2179 215.508 94.2179C215.508 94.2179 210.997 99.5013 206.146 96.3958C201.911 93.6821 207.834 91.3428 207.834 91.3428L207.828 91.3371Z" fill="#F6BAB3"/>
<path d="M208.583 89.1707L209.275 98.8387C209.275 98.8387 188.032 104.906 182.328 97.8938C176.624 90.8761 181.244 74.1904 186.511 75.7749C190.273 76.9042 191.218 86.0767 191.218 86.0767L208.583 89.1765V89.1707Z" fill="#ED751B"/>
<path d="M189.011 86.4454C188.365 86.4454 187.789 86.359 187.599 86.094C187.524 85.9903 187.467 85.8174 187.611 85.5639C188.296 84.3309 190.987 85.7713 191.292 85.9384C191.35 85.973 191.385 86.0363 191.373 86.0997C191.362 86.1631 191.31 86.215 191.246 86.2265C190.941 86.2783 189.91 86.4397 189.011 86.4397V86.4454ZM188.625 85.3795C188.291 85.3795 188.02 85.4717 187.887 85.7079C187.812 85.8405 187.847 85.8865 187.858 85.9038C188.077 86.215 189.529 86.1458 190.71 85.9845C190.111 85.7022 189.253 85.3738 188.619 85.3738L188.625 85.3795Z" fill="#D26214"/>
<path d="M46.7325 136.589C46.7325 131.219 48.1902 126.206 50.6907 121.885H22.9023V136.589H46.7267H46.7325Z" fill="#7F7873"/>
<path d="M214.541 136.589C214.541 131.219 213.083 126.206 210.571 121.885H238.411V129.588V136.589H214.541Z" fill="#7F7873"/>
<path d="M158.41 121.885H78.4102C80.7206 126.206 82.063 131.219 82.063 136.589H104.954H180.904C180.904 131.219 182.246 126.206 184.557 121.885H158.416H158.41Z" fill="#7F7873"/>
<path d="M238.348 103.396C238.331 103.217 238.308 103.05 238.285 102.872C238.25 102.555 238.216 102.238 238.164 101.927C238.129 101.719 238.083 101.518 238.043 101.316C237.991 101.051 237.934 100.78 237.87 100.515C237.813 100.296 237.749 100.077 237.686 99.864C237.617 99.6278 237.547 99.3974 237.473 99.1669C237.392 98.9364 237.305 98.7175 237.219 98.4928C237.138 98.2911 237.058 98.0837 236.971 97.8878C236.868 97.6573 236.764 97.4269 236.649 97.2022C236.562 97.0293 236.476 96.8507 236.384 96.6836C236.257 96.4474 236.124 96.2169 235.986 95.9865C235.9 95.8424 235.807 95.6984 235.715 95.5601C235.56 95.3181 235.398 95.0877 235.231 94.8572C235.151 94.7477 235.064 94.6382 234.984 94.5345C234.793 94.2925 234.603 94.0506 234.396 93.8201C234.332 93.751 234.269 93.6818 234.206 93.6127C233.975 93.3592 233.739 93.1114 233.491 92.8809C233.474 92.8637 233.451 92.8464 233.428 92.8291C231.215 90.7837 228.438 89.5507 225.408 89.5507H222.423C220.591 83.1668 217.854 74.5301 214.028 64.5913C205.916 43.4922 192.906 43.4922 192.906 43.4922H162.185V5.10815H22.9092V121.885H49.4415C53.538 117.979 58.9886 115.582 64.9979 115.582C71.0073 115.582 76.4521 117.979 80.5428 121.885H180.749C184.846 117.979 190.296 115.582 196.306 115.582C202.315 115.582 207.76 117.979 211.851 121.885H238.406V104.905C238.406 104.393 238.383 103.891 238.343 103.396H238.348ZM98.9167 96.6202C96.4277 99.1899 92.2447 99.2821 89.6232 96.8334C89.6232 96.8334 65.1305 73.9309 64.9979 48.6777C64.9173 33.7032 77.8752 21.5 93.9387 21.4251C110.002 21.3502 123.093 33.4324 123.173 48.4011C123.3 71.4822 98.9167 96.6202 98.9167 96.6202ZM175.178 89.5507H172.118V55.0097H193.869C193.131 55.0904 198.714 57.0839 203.571 69.7307C206.377 76.9788 208.67 83.6854 210.572 89.5507H175.178Z" fill="#EB6428"/>
<path d="M107.126 40.3925L95.3609 33.5649C94.6695 33.1616 93.8111 33.1616 93.1197 33.5649L81.2219 40.3982C80.5305 40.7958 80.5247 41.7926 81.2104 42.1959L93.0678 49.1617C93.7938 49.5881 94.6868 49.5823 95.4128 49.1617L107.138 42.1959C107.818 41.7926 107.812 40.8016 107.126 40.404V40.3925Z" fill="#EB6428"/>
<path d="M90.7401 52.9299L79.6892 46.3789C79.1246 46.0447 78.4102 46.4538 78.4102 47.1049V58.0808C78.4102 59.2101 79.0094 60.2529 79.9888 60.8176L90.6536 66.9825C91.2874 67.3513 92.0825 66.8903 92.0825 66.1586V55.2749C92.0825 54.3069 91.5755 53.4139 90.7401 52.9241V52.9299Z" fill="#EB6428"/>
<path d="M108.468 46.3788L97.4177 52.9298C96.588 53.4195 96.0752 54.3184 96.0752 55.2806V66.1643C96.0752 66.896 96.8703 67.3569 97.5041 66.9882L108.169 60.8232C109.148 60.2586 109.748 59.2158 109.748 58.0865V47.1105C109.748 46.4537 109.033 46.0504 108.468 46.3846V46.3788Z" fill="#EB6428"/>
<path d="M196.558 159.457C208.946 159.457 218.989 149.218 218.989 136.589C218.989 123.959 208.946 113.721 196.558 113.721C184.171 113.721 174.128 123.959 174.128 136.589C174.128 149.218 184.171 159.457 196.558 159.457Z" fill="black"/>
<path d="M196.559 151.292C204.521 151.292 210.98 144.713 210.98 136.589C210.98 128.465 204.521 121.885 196.559 121.885C188.596 121.885 182.137 128.465 182.137 136.589C182.137 144.713 188.596 151.292 196.559 151.292Z" fill="#A7A7A7"/>
<path d="M192.571 46.2579C192.571 46.2579 199.497 45.8085 205.281 53.6501" stroke="white" stroke-width="0.443646" stroke-linecap="round" stroke-linejoin="round"/>
<path d="M234.805 103.309C236.97 102.327 237.609 99.0691 236.232 96.0319C234.854 92.9947 231.983 91.3283 229.818 92.3099C227.653 93.2914 227.015 96.5493 228.392 99.5865C229.769 102.624 232.64 104.29 234.805 103.309Z" fill="white"/>
<path d="M206.209 55.0097C206.361 55.0097 206.485 54.8858 206.485 54.7331C206.485 54.5804 206.361 54.4565 206.209 54.4565C206.056 54.4565 205.932 54.5804 205.932 54.7331C205.932 54.8858 206.056 55.0097 206.209 55.0097Z" fill="white"/>
<path d="M161.436 5.16016H23.1621V121.332H161.436V5.16016Z" fill="#ED751B"/>
<path d="M65.1122 159.457C77.4997 159.457 87.5422 149.218 87.5422 136.589C87.5422 123.959 77.4997 113.721 65.1122 113.721C52.7247 113.721 42.6821 123.959 42.6821 136.589C42.6821 149.218 52.7247 159.457 65.1122 159.457Z" fill="black"/>
<path d="M65.1128 151.292C73.0754 151.292 79.5342 144.713 79.5342 136.589C79.5342 128.465 73.0754 121.885 65.1128 121.885C57.1502 121.885 50.6914 128.465 50.6914 136.589C50.6914 144.713 57.1502 151.292 65.1128 151.292Z" fill="#A7A7A7"/>
<g clip-path="url(#clip0_247_4038)">
<path d="M52.9932 42.323C53.3334 42.0112 53.6924 42.0679 54.1554 42.3608L54.5381 42.5356C54.9208 42.7152 55.3177 42.8002 55.7192 42.8002C56.1208 42.8002 56.4232 42.7293 56.6642 42.5782C56.9051 42.4317 57.0232 42.2285 57.0232 41.9734C57.0232 41.7183 56.9146 41.5388 56.6925 41.4065C56.4705 41.2742 56.1492 41.1372 55.7192 41.0049C55.2893 40.882 54.9161 40.745 54.5901 40.5938C54.2641 40.4427 53.9948 40.2631 53.7727 40.06C53.5507 39.8568 53.39 39.6253 53.2767 39.3655C53.168 39.1009 53.1113 38.7938 53.1113 38.4395C53.1113 37.9387 53.2247 37.4945 53.4515 37.1024C53.6782 36.7103 53.9759 36.3796 54.3491 36.1055C54.7224 35.8315 55.157 35.6236 55.6578 35.4819C56.1586 35.3402 56.6831 35.2693 57.2358 35.2693C57.9445 35.2693 58.6059 35.3874 59.2249 35.6236C59.8438 35.8646 60.3351 36.2142 60.6989 36.6772L59.4894 37.6977C59.1351 37.9953 58.8185 38.0095 58.4406 37.7922L58.1429 37.6316C57.8453 37.4709 57.4862 37.3953 57.0705 37.3953C56.7539 37.3953 56.461 37.4568 56.2012 37.5796C55.9366 37.7024 55.8043 37.9103 55.8043 38.2032C55.8043 38.4111 55.9035 38.5717 56.0972 38.6899C56.2909 38.808 56.5933 38.9166 56.9949 39.03C57.85 39.2615 58.5256 39.5828 59.0217 39.9938C59.5178 40.4049 59.7635 41.0002 59.7635 41.7797C59.7635 42.3278 59.6453 42.8097 59.4044 43.216C59.1682 43.627 58.8563 43.9624 58.4689 44.227C58.0862 44.4916 57.6421 44.6853 57.1508 44.8129C56.6547 44.9404 56.1539 45.0066 55.6389 45.0066C54.7932 45.0066 54.042 44.8648 53.3853 44.5861C52.7239 44.3026 52.19 43.9199 51.7695 43.4333L52.9837 42.3278L52.9932 42.323Z" fill="white"/>
<path d="M65.4188 44.931C64.7574 44.931 64.1432 44.8412 63.5762 44.657C63.0093 44.4727 62.5179 44.2081 62.1116 43.8585C61.7006 43.5089 61.3793 43.0884 61.1384 42.5923C60.8974 42.0963 60.7793 41.5388 60.7793 40.9151C60.7793 40.1592 60.9069 39.4363 61.162 38.7513C61.4171 38.0662 61.7856 37.4662 62.2723 36.9559C62.7542 36.441 63.34 36.0347 64.0251 35.7276C64.7101 35.4205 65.4849 35.2693 66.3543 35.2693C67.0251 35.2693 67.6488 35.3591 68.2252 35.5433C68.8016 35.7276 69.2929 35.9921 69.7087 36.3418C70.1244 36.6914 70.4504 37.1119 70.6914 37.6079C70.9323 38.104 71.0505 38.6615 71.0505 39.2851C71.0505 40.0552 70.9229 40.7828 70.6678 41.4679C70.4126 42.1529 70.0394 42.753 69.5481 43.2632C69.0567 43.7782 68.4709 44.1845 67.7811 44.4821C67.0913 44.7798 66.307 44.931 65.4235 44.931H65.4188ZM68.1496 39.597C68.1496 39.0489 67.9795 38.5906 67.6441 38.2221C67.3086 37.8536 66.8362 37.6741 66.222 37.6741C65.8298 37.6741 65.4755 37.7544 65.159 37.9103C64.8424 38.0709 64.5731 38.2835 64.3511 38.5528C64.129 38.8221 63.9589 39.134 63.8361 39.4883C63.7132 39.8426 63.6518 40.2159 63.6518 40.608C63.6518 41.1561 63.8172 41.6143 64.1479 41.9734C64.4786 42.3325 64.9463 42.512 65.5605 42.512C65.9527 42.512 66.307 42.4364 66.6236 42.2805C66.9401 42.1293 67.2141 41.9167 67.4409 41.6474C67.6677 41.3781 67.8425 41.0663 67.9653 40.712C68.0882 40.3576 68.1496 39.9844 68.1496 39.5922V39.597Z" fill="white"/>
<path d="M76.7574 45.3232C76.5306 45.7248 76.1526 46.3767 75.9164 46.7736C75.9164 46.7736 75.8078 46.9579 75.5432 47.3358C75.2786 47.7138 74.9951 48.0351 74.6833 48.2902C74.3715 48.5453 74.0124 48.7437 73.6108 48.876C73.2093 49.0083 72.7368 49.0792 72.1982 49.0792C71.6218 49.0792 71.121 49.013 70.6958 48.876L70.984 47.2791C71.0643 46.8256 71.3856 46.5279 71.688 46.6224H71.9951C72.4203 46.6224 72.7557 46.5138 72.9919 46.3012C73.2282 46.0886 73.4597 45.7862 73.677 45.394L73.6959 45.3657C73.9274 44.9688 74.0361 44.2743 73.9321 43.8255L72.2029 36.3654C72.099 35.9166 72.3919 35.5481 72.8502 35.5481H74.3857C74.8439 35.5481 75.2786 35.9213 75.3495 36.3749L76.0109 40.6978C76.0818 41.1514 76.1479 41.5246 76.1574 41.5246C76.1668 41.5246 76.3464 41.1892 76.5542 40.7782L78.822 36.2946C79.0299 35.8835 79.5779 35.5481 80.0362 35.5481H81.4772C81.9402 35.5481 82.1292 35.8741 81.9024 36.2757L76.7527 45.3232H76.7574Z" fill="white"/>
<path d="M90.3168 31.6408C90.3924 31.1872 90.8318 30.814 91.2948 30.814H92.5515C93.0145 30.814 93.3216 31.1872 93.2413 31.6408L91.0774 43.849C90.9971 44.3025 90.553 44.6758 90.0947 44.6758H89.0742C88.616 44.6758 88.2852 44.397 88.3467 44.0521C88.4081 43.7072 88.4459 43.4285 88.427 43.4285C88.4128 43.4285 88.1482 43.7072 87.8364 44.0521C87.8364 44.0521 87.6521 44.2553 87.1135 44.5104C86.575 44.7655 85.9702 44.8931 85.2993 44.8931C84.7135 44.8931 84.1843 44.7939 83.7119 44.6002C83.2394 44.4065 82.8426 44.1325 82.5213 43.7828C82.1953 43.4332 81.9496 43.0222 81.7795 42.545C81.6095 42.0678 81.5244 41.5434 81.5244 40.967C81.5244 40.1827 81.652 39.4504 81.9024 38.7654C82.1528 38.0803 82.5024 37.485 82.9465 36.97C83.3906 36.4551 83.9245 36.0488 84.5434 35.7511C85.1623 35.4535 85.8379 35.3023 86.5702 35.3023C87.2411 35.3023 87.8222 35.4298 88.3089 35.6897C88.8002 35.9448 89.164 36.2897 89.4097 36.7149C89.4097 36.7149 89.5089 36.3417 89.5892 35.8881L90.3168 31.636V31.6408ZM84.4442 40.5843C84.4442 41.1324 84.6048 41.5906 84.9214 41.9592C85.2379 42.3277 85.7104 42.5072 86.334 42.5072C86.7025 42.5072 87.0427 42.4316 87.3592 42.2757C87.6758 42.1245 87.9545 41.9119 88.186 41.6426C88.4175 41.3733 88.5971 41.0615 88.7293 40.7072C88.8569 40.3528 88.9231 39.9796 88.9231 39.5874C88.9231 39.0252 88.753 38.5622 88.4081 38.2032C88.0679 37.8441 87.6002 37.6646 87.0143 37.6646C86.6222 37.6646 86.2679 37.7401 85.9513 37.8913C85.6348 38.0425 85.3655 38.2504 85.1434 38.515C84.9261 38.7795 84.7513 39.0866 84.6284 39.441C84.5056 39.7953 84.4442 40.1733 84.4442 40.5796V40.5843Z" fill="white"/>
<path d="M96.686 40.8962C96.223 40.8962 95.8403 40.9435 95.8309 41.0002V41.0616C95.8309 41.3167 95.8876 41.5482 96.0057 41.7514C96.1191 41.9545 96.275 42.1246 96.464 42.2663C96.653 42.4081 96.8656 42.512 97.1065 42.5876C97.3475 42.6632 97.5931 42.6963 97.8483 42.6963C98.3113 42.6963 98.7223 42.6112 99.0766 42.4411C99.431 42.2711 99.7475 42.0348 100.031 41.7419L101.222 42.6726C101.585 42.9561 101.595 43.4333 101.25 43.7357C101.25 43.7357 100.64 44.2601 99.9223 44.5341C99.1995 44.8081 98.4247 44.9452 97.5931 44.9452C96.96 44.9452 96.3695 44.8554 95.8262 44.6806C95.2828 44.5058 94.8104 44.2412 94.4041 43.8916C94.0025 43.542 93.6812 43.112 93.4497 42.5971C93.2182 42.0821 93.1001 41.4962 93.1001 40.8395C93.1001 40.0552 93.2371 39.3277 93.5111 38.6473C93.7852 37.9717 94.1631 37.3812 94.6497 36.8804C95.1317 36.3796 95.708 35.9874 96.3837 35.6992C97.0545 35.411 97.7963 35.2693 98.6042 35.2693C99.2042 35.2693 99.7475 35.3543 100.244 35.5244C100.74 35.6945 101.165 35.9402 101.519 36.2662C101.874 36.5922 102.148 36.989 102.346 37.4662C102.54 37.9434 102.639 38.4914 102.639 39.1151C102.639 39.3371 102.62 39.6111 102.573 39.9466C102.53 40.282 102.474 40.5986 102.398 40.8915H96.6908L96.686 40.8962ZM99.1711 39.1009C99.6341 39.1009 100.017 39.0442 100.026 38.9781V38.7324C100.026 38.3308 99.8845 37.9906 99.5963 37.726C99.3081 37.4568 98.8971 37.3197 98.3585 37.3197C98.0278 37.3197 97.7349 37.3764 97.4703 37.4945C97.2057 37.6127 96.9789 37.7544 96.7852 37.9245C96.5915 38.0946 96.4309 38.2835 96.3081 38.4914C96.1852 38.6993 96.1002 38.9025 96.0529 39.0962H99.1759L99.1711 39.1009Z" fill="white"/>
<path d="M104.056 44.6758C103.593 44.6758 103.281 44.3025 103.361 43.849L105.511 31.6408C105.591 31.1872 106.035 30.814 106.494 30.814H107.807C108.265 30.814 108.577 31.1872 108.497 31.6408L106.333 43.849C106.253 44.3025 105.809 44.6758 105.35 44.6758H104.056Z" fill="white"/>
<path d="M109.021 44.6757C108.562 44.6757 108.251 44.3025 108.326 43.8489L109.635 36.37C109.715 35.9164 110.155 35.5432 110.618 35.5432H111.893C112.352 35.5432 112.663 35.9164 112.583 36.3653L111.246 43.8442C111.166 44.2978 110.722 44.671 110.263 44.671H109.021V44.6757ZM113.353 32.4864C113.353 32.7321 113.311 32.9542 113.226 33.162C113.141 33.3699 113.022 33.5542 112.871 33.7195C112.715 33.8849 112.536 34.0124 112.328 34.1069C112.12 34.1967 111.893 34.244 111.648 34.244C111.185 34.244 110.802 34.1069 110.504 33.8329C110.207 33.5589 110.055 33.2046 110.055 32.7793C110.055 32.2785 110.226 31.8581 110.561 31.5226C110.896 31.1872 111.307 31.0171 111.799 31.0171C112.252 31.0171 112.626 31.1588 112.918 31.4376C113.211 31.7163 113.358 32.0659 113.358 32.4817L113.353 32.4864Z" fill="white"/>
<path d="M118.712 43.9531C118.48 44.3499 117.908 44.6759 117.45 44.6759H115.934C115.475 44.6759 115.026 44.3074 114.941 43.8538L113.562 36.3702C113.477 35.9166 113.789 35.5481 114.247 35.5481H115.669C116.132 35.5481 116.552 35.9213 116.609 36.3796L117.152 40.712C117.209 41.1703 117.271 41.5435 117.285 41.5435C117.299 41.5435 117.488 41.2128 117.705 40.8018L120.096 36.2898C120.308 35.8835 120.866 35.5481 121.324 35.5481H122.841C123.299 35.5481 123.488 35.8741 123.252 36.271L118.712 43.9578V43.9531Z" fill="white"/>
<path d="M126.563 40.8962C126.105 40.8962 125.718 40.9435 125.708 41.0002V41.0616C125.708 41.3167 125.765 41.5482 125.883 41.7514C126.001 41.9545 126.152 42.1246 126.341 42.2663C126.53 42.4081 126.743 42.512 126.984 42.5876C127.225 42.6632 127.47 42.6963 127.726 42.6963C128.189 42.6963 128.6 42.6112 128.954 42.4411C129.308 42.2711 129.625 42.0348 129.908 41.7419L131.099 42.6726C131.463 42.9561 131.472 43.4333 131.122 43.7357C131.122 43.7357 130.518 44.2601 129.795 44.5341C129.072 44.8081 128.297 44.9452 127.466 44.9452C126.833 44.9452 126.242 44.8554 125.699 44.6806C125.155 44.5058 124.683 44.2412 124.277 43.8916C123.875 43.542 123.554 43.112 123.322 42.5971C123.091 42.0821 122.973 41.4962 122.973 40.8395C122.973 40.0552 123.11 39.3277 123.384 38.6473C123.658 37.9717 124.036 37.3812 124.522 36.8804C125.004 36.3796 125.581 35.9874 126.256 35.6992C126.927 35.411 127.669 35.2693 128.477 35.2693C129.077 35.2693 129.62 35.3543 130.116 35.5244C130.612 35.6945 131.037 35.9402 131.392 36.2662C131.746 36.5922 132.02 36.989 132.219 37.4662C132.412 37.9434 132.512 38.4914 132.512 39.1151C132.512 39.3371 132.493 39.6111 132.445 39.9466C132.403 40.282 132.346 40.5986 132.271 40.8915H126.563V40.8962ZM129.053 39.1009C129.511 39.1009 129.899 39.0442 129.908 38.9781V38.7324C129.908 38.3308 129.767 37.9906 129.478 37.726C129.19 37.4568 128.779 37.3197 128.241 37.3197C127.91 37.3197 127.617 37.3764 127.352 37.4945C127.088 37.6127 126.861 37.7544 126.663 37.9245C126.469 38.0946 126.308 38.2835 126.185 38.4914C126.063 38.6993 125.977 38.9025 125.93 39.0962H129.053V39.1009Z" fill="white"/>
<path d="M136.915 36.8849C136.915 36.8849 137.18 36.5872 137.459 36.2187C137.459 36.2187 137.596 36.0392 138.007 35.7463C138.418 35.4533 138.909 35.3069 139.481 35.3069C139.589 35.3069 139.703 35.3116 139.821 35.3258C139.934 35.34 140.034 35.3541 140.104 35.3825L139.778 37.1636C139.698 37.6172 139.509 37.9574 139.363 37.9243L139.24 37.9101C139.117 37.8959 138.999 37.8912 138.89 37.8912C138.46 37.8912 138.101 37.9621 137.808 38.1133C137.515 38.2597 137.274 38.4393 137.085 38.6519C136.896 38.8645 136.755 39.096 136.665 39.3416C136.575 39.5873 136.509 39.7999 136.471 39.9842L135.791 43.8536C135.711 44.3071 135.271 44.6804 134.808 44.6804H133.552C133.093 44.6804 132.781 44.3071 132.862 43.8536L133.868 38.2597C133.948 37.8062 134.062 37.1967 134.118 36.9038L134.175 36.54C134.232 36.1715 134.27 35.8455 134.293 35.5478H136.245C136.708 35.5478 137.081 35.614 137.076 35.699L137.062 35.8171C137.048 35.9352 137.034 36.0534 137.015 36.1809C136.996 36.3085 136.977 36.4361 136.958 36.5636C136.939 36.6912 136.925 36.7998 136.911 36.8849H136.915Z" fill="white"/>
<path d="M145.646 45.3232C145.419 45.7248 145.041 46.3767 144.805 46.7736C144.805 46.7736 144.696 46.9579 144.432 47.3358C144.167 47.7138 143.884 48.0351 143.572 48.2902C143.26 48.5453 142.901 48.7437 142.5 48.876C142.098 49.0083 141.625 49.0792 141.087 49.0792C140.515 49.0792 140.01 49.013 139.584 48.876L139.873 47.2791C139.958 46.8256 140.274 46.5279 140.577 46.6224H140.884C141.314 46.6224 141.644 46.5138 141.885 46.3012C142.122 46.0886 142.353 45.7862 142.57 45.394L142.589 45.3657C142.821 44.9688 142.925 44.2743 142.821 43.8255L141.092 36.3654C140.988 35.9166 141.281 35.5481 141.739 35.5481H143.27C143.733 35.5481 144.163 35.9213 144.233 36.3749L144.895 40.6978C144.966 41.1514 145.032 41.5246 145.041 41.5246C145.051 41.5246 145.23 41.1892 145.438 40.7782L147.706 36.2946C147.914 35.8835 148.462 35.5481 148.92 35.5481H150.361C150.819 35.5481 151.013 35.8741 150.786 36.2757L145.637 45.3232H145.646Z" fill="white"/>
<path d="M149.699 42.9136C150.38 42.9136 150.937 43.4805 150.937 44.1609C150.937 44.8412 150.38 45.4034 149.699 45.4034C149.019 45.4034 148.452 44.8459 148.452 44.1609C148.452 43.4758 149.014 42.9136 149.699 42.9136ZM149.704 45.2003C150.271 45.2003 150.729 44.7325 150.729 44.1609C150.729 43.5892 150.271 43.1215 149.704 43.1215C149.137 43.1215 148.66 43.5845 148.66 44.1609C148.66 44.7372 149.123 45.2003 149.704 45.2003ZM150.276 43.9341C150.276 44.1467 150.167 44.279 149.988 44.3262L150.233 44.7372C150.257 44.775 150.257 44.8081 150.186 44.8081H150.096C150.035 44.8081 150.03 44.7939 150.011 44.7609L149.775 44.3451H149.383V44.7609C149.383 44.7939 149.373 44.8081 149.331 44.8081H149.241C149.203 44.8081 149.189 44.7939 149.189 44.7609V43.5797C149.189 43.5278 149.203 43.5183 149.26 43.5183H149.827C150.101 43.5183 150.276 43.6695 150.276 43.9388V43.9341ZM149.818 44.1703C149.978 44.1703 150.073 44.0853 150.073 43.9341C150.073 43.7829 149.978 43.6978 149.818 43.6978H149.383V44.1703H149.818Z" fill="white"/>
<path d="M38.2095 28.2296C33.863 28.2485 30.3574 31.5509 30.381 35.5999C30.4188 42.4316 37.0426 48.6254 37.0426 48.6254C37.7513 49.2869 38.8852 49.2632 39.556 48.5687C39.556 48.5687 46.1515 41.7701 46.1184 35.5243C46.0948 31.4753 42.5561 28.2107 38.2095 28.2296ZM37.7087 40.3339C37.7087 40.5323 37.4961 40.6551 37.3213 40.5559L34.4346 38.8881C34.1701 38.737 34.0094 38.4535 34.0094 38.1464V35.1747C34.0094 34.9951 34.2031 34.8865 34.3543 34.9762L37.345 36.7479C37.5717 36.8802 37.7087 37.1212 37.7087 37.3857V40.3291V40.3339ZM37.978 35.7321L34.7701 33.8471C34.5858 33.7384 34.5858 33.4691 34.7701 33.3604L37.9875 31.5131C38.1765 31.4045 38.408 31.4045 38.5922 31.5131L41.7766 33.3604C41.9608 33.4691 41.9656 33.7337 41.7766 33.8471L38.6064 35.7321C38.4127 35.8503 38.167 35.8503 37.9733 35.7321H37.978ZM42.49 38.1464C42.49 38.4535 42.3293 38.7322 42.0648 38.8881L39.1781 40.5559C39.008 40.6551 38.7907 40.5323 38.7907 40.3339V37.3905C38.7907 37.1306 38.9277 36.8897 39.1545 36.7527L42.1451 34.9809C42.2963 34.8912 42.49 34.9998 42.49 35.1794V38.1511V38.1464Z" fill="white"/>
<path d="M110.006 54.0944C109.941 54.1608 109.863 54.194 109.77 54.194C109.678 54.194 109.6 54.1608 109.535 54.0944C109.47 54.0279 109.438 53.9486 109.438 53.8563C109.438 53.7622 109.47 53.6819 109.535 53.6155C109.6 53.549 109.678 53.5158 109.77 53.5158C109.863 53.5158 109.941 53.549 110.006 53.6155C110.07 53.6819 110.102 53.7622 110.102 53.8563C110.102 53.9486 110.07 54.0279 110.006 54.0944ZM111.838 54.194C111.462 54.194 111.181 54.0658 110.997 53.8092C110.827 53.573 110.742 53.298 110.742 52.9843C110.742 52.8662 110.755 52.7435 110.781 52.6161C110.89 52.0828 111.097 51.6869 111.404 51.4285C111.712 51.1683 112.069 51.0382 112.475 51.0382C112.861 51.0382 113.142 51.1711 113.319 51.4368C113.334 51.459 113.341 51.4848 113.341 51.5143C113.341 51.5512 113.316 51.59 113.267 51.6306L113.092 51.7746C113.061 51.8004 113.03 51.8133 113.001 51.8133C112.958 51.8133 112.925 51.7949 112.901 51.7579C112.781 51.5734 112.61 51.4811 112.386 51.4811C112.163 51.4811 111.956 51.5679 111.766 51.7413C111.543 51.9462 111.392 52.2378 111.315 52.6161C111.285 52.7601 111.271 52.8902 111.271 53.0064C111.271 53.1965 111.31 53.3525 111.39 53.4743C111.51 53.6588 111.681 53.7511 111.905 53.7511C112.132 53.7511 112.342 53.6588 112.536 53.4743C112.575 53.4374 112.615 53.4189 112.658 53.4189C112.687 53.4189 112.712 53.4318 112.732 53.4577L112.879 53.6431C112.899 53.669 112.91 53.6967 112.91 53.7262C112.91 53.7631 112.889 53.8 112.849 53.8369C112.572 54.075 112.235 54.194 111.838 54.194ZM114.651 54.194C114.252 54.194 113.958 54.0658 113.768 53.8092C113.605 53.5915 113.524 53.3266 113.524 53.0147C113.524 52.8487 113.547 52.6706 113.593 52.4805C113.704 52.0191 113.902 51.6684 114.188 51.4285C114.497 51.1683 114.837 51.0382 115.21 51.0382C115.609 51.0382 115.903 51.1665 116.093 51.423C116.255 51.6408 116.337 51.9056 116.337 52.2175C116.337 52.3836 116.314 52.5617 116.267 52.7518C116.157 53.2131 115.958 53.5638 115.672 53.8037C115.364 54.0639 115.024 54.194 114.651 54.194ZM114.69 53.7511C114.909 53.7511 115.12 53.6588 115.321 53.4743C115.535 53.2787 115.681 52.9926 115.761 52.6161C115.79 52.474 115.805 52.3439 115.805 52.2258C115.805 52.0283 115.764 51.8668 115.681 51.7413C115.566 51.5679 115.395 51.4811 115.168 51.4811C114.943 51.4811 114.738 51.5679 114.551 51.7413C114.331 51.9425 114.181 52.2341 114.1 52.6161C114.07 52.7601 114.056 52.8902 114.056 53.0064C114.056 53.1965 114.095 53.3525 114.175 53.4743C114.3 53.6588 114.472 53.7511 114.69 53.7511ZM116.94 54.1387C116.863 54.1387 116.824 54.1073 116.824 54.0446C116.824 54.0316 116.826 54.0178 116.829 54.003L117.419 51.2292C117.438 51.1388 117.494 51.0936 117.588 51.0936H117.809C117.885 51.0936 117.923 51.1249 117.923 51.1877C117.923 51.2006 117.921 51.2144 117.917 51.2292L117.906 51.2818C118.082 51.1194 118.305 51.0382 118.576 51.0382C118.905 51.0382 119.156 51.136 119.329 51.3316C119.355 51.363 119.378 51.3971 119.398 51.4341C119.629 51.1701 119.955 51.0382 120.376 51.0382C120.691 51.0382 120.942 51.136 121.129 51.3316C121.274 51.4885 121.347 51.6795 121.347 51.9047C121.347 51.9877 121.337 52.0754 121.317 52.1677L120.926 54.003C120.908 54.0935 120.853 54.1387 120.76 54.1387H120.539C120.461 54.1387 120.423 54.1073 120.423 54.0446C120.423 54.0316 120.424 54.0178 120.428 54.003L120.819 52.1677C120.833 52.1012 120.841 52.0385 120.841 51.9794C120.839 51.8576 120.807 51.7543 120.744 51.6694C120.651 51.5439 120.493 51.4811 120.268 51.4811C120 51.4811 119.762 51.5955 119.553 51.8244C119.553 51.9407 119.541 52.0551 119.517 52.1677L119.127 54.003C119.109 54.0935 119.053 54.1387 118.961 54.1387H118.74C118.662 54.1387 118.623 54.1073 118.623 54.0446C118.623 54.0316 118.625 54.0178 118.629 54.003L119.019 52.1677C119.034 52.1012 119.041 52.0385 119.041 51.9794C119.039 51.8576 119.007 51.7543 118.944 51.6694C118.852 51.5439 118.693 51.4811 118.468 51.4811C118.191 51.4811 117.97 51.578 117.804 51.7718L117.328 54.003C117.309 54.0935 117.254 54.1387 117.162 54.1387H116.94ZM122.219 54.0944C122.155 54.1608 122.076 54.194 121.984 54.194C121.892 54.194 121.813 54.1608 121.749 54.0944C121.684 54.0279 121.652 53.9486 121.652 53.8563C121.652 53.7622 121.684 53.6819 121.749 53.6155C121.813 53.549 121.892 53.5158 121.984 53.5158C122.076 53.5158 122.155 53.549 122.219 53.6155C122.284 53.6819 122.316 53.7622 122.316 53.8563C122.316 53.9486 122.284 54.0279 122.219 54.0944ZM124.968 54.1387H124.747C124.669 54.1387 124.63 54.1073 124.63 54.0446C124.63 54.0316 124.632 54.0178 124.636 54.003L124.647 53.9504C124.479 54.1128 124.256 54.194 123.977 54.194C123.66 54.194 123.409 54.0962 123.224 53.9006C123.078 53.7437 123.005 53.5527 123.005 53.3276C123.005 53.2445 123.016 53.1569 123.036 53.0646L123.426 51.2292C123.445 51.1388 123.5 51.0936 123.592 51.0936H123.814C123.891 51.0936 123.93 51.1249 123.93 51.1877C123.93 51.2006 123.928 51.2144 123.925 51.2292L123.534 53.0646C123.519 53.131 123.512 53.1938 123.512 53.2528C123.514 53.3746 123.546 53.478 123.609 53.5629C123.701 53.6884 123.86 53.7511 124.085 53.7511C124.362 53.7511 124.583 53.6542 124.749 53.4604L125.226 51.2292C125.244 51.1388 125.3 51.0936 125.394 51.0936H125.616C125.692 51.0936 125.729 51.124 125.729 51.1849C125.729 51.1978 125.728 51.2126 125.724 51.2292L125.134 54.003C125.116 54.0935 125.06 54.1387 124.968 54.1387ZM127.385 54.194C127.025 54.194 126.765 54.0962 126.604 53.9006C126.458 53.7234 126.386 53.5241 126.386 53.3026C126.386 53.2251 126.395 53.1458 126.413 53.0646L126.804 51.2292C126.822 51.1388 126.878 51.0936 126.972 51.0936H127.194C127.27 51.0936 127.307 51.124 127.307 51.1849C127.307 51.1978 127.306 51.2126 127.302 51.2292L126.912 53.0646C126.897 53.131 126.889 53.1928 126.889 53.2501C126.889 53.3737 126.922 53.478 126.986 53.5629C127.08 53.6884 127.24 53.7511 127.465 53.7511C127.742 53.7511 127.963 53.6542 128.13 53.4604L128.603 51.2292C128.621 51.1388 128.678 51.0936 128.772 51.0936H128.993C129.069 51.0936 129.107 51.124 129.107 51.1849C129.107 51.1978 129.105 51.2126 129.101 51.2292L128.484 54.1442C128.403 54.5299 128.257 54.8086 128.047 54.9802C127.803 55.1759 127.504 55.2737 127.15 55.2737H126.527C126.449 55.2737 126.41 55.2423 126.41 55.1795C126.41 55.1666 126.412 55.1528 126.416 55.138L126.452 54.9664C126.47 54.876 126.527 54.8307 126.621 54.8307H127.188C127.38 54.8307 127.548 54.7754 127.692 54.6646C127.838 54.5521 127.931 54.3989 127.972 54.2051L128.024 53.9504C127.849 54.1128 127.636 54.194 127.385 54.194Z" fill="white"/>
</g>
</g>
<mask id="mask0_247_4038" style="mask-type:luminance" maskUnits="userSpaceOnUse" x="22" y="43" width="54" height="80">
<path d="M75.4832 43.6653H22.5107V122.675H75.4832V43.6653Z" fill="white"/>
</mask>
<g mask="url(#mask0_247_4038)">
<path d="M16.9566 97.6001C19.5839 97.6001 22.2112 97.6001 24.8385 97.6001C25.6509 97.6001 26.4576 97.6001 27.2699 97.6001C29.1252 97.6001 31.0496 97.6001 32.9394 97.6001C33.4464 97.6001 33.8843 97.8075 34.1378 98.1647C34.3625 98.4874 34.4144 98.8965 34.2761 99.2998C34.1033 99.7953 33.723 100.089 33.1756 100.158C33.0662 100.17 32.9509 100.176 32.8472 100.176C32.8069 100.176 32.7666 100.176 32.732 100.176C32.6974 100.176 32.6571 100.176 32.6225 100.176C27.3967 100.176 22.1767 100.176 16.9509 100.176C15.9368 100.176 15.3261 99.7031 15.3203 98.908C15.3203 98.5565 15.4298 98.2512 15.6487 98.0322C15.931 97.7441 16.3747 97.6001 16.9624 97.6001H16.9566Z" fill="white"/>
<path d="M9.14372 109.371C9.23014 111.163 10.0195 112.603 11.5002 113.652C12.5085 114.366 13.7185 114.666 15.2107 114.574C15.4181 114.562 15.4758 114.585 15.5507 114.827C16.2363 117.143 18.3162 118.699 20.7304 118.699C23.1272 118.699 25.2014 117.132 25.887 114.798C25.9447 114.597 25.985 114.574 26.2039 114.574C31.787 114.585 36.9379 114.585 41.962 114.574H41.9678C42.204 114.574 42.2386 114.603 42.3077 114.827C42.9588 117.028 44.912 118.578 47.1705 118.693C49.4982 118.809 51.5839 117.489 52.4885 115.329C52.5289 115.225 52.5634 115.115 52.598 115.012C52.6441 114.85 52.7132 114.637 52.7881 114.585C52.8803 114.528 53.105 114.545 53.3009 114.556C53.4104 114.568 53.5199 114.574 53.6351 114.574C55.5307 114.562 56.9711 113.128 56.9941 111.244C57.0114 109.538 57.0287 107.873 56.9941 106.202C56.9365 103.632 55.813 101.575 53.6639 100.089C53.203 99.7663 52.7247 99.4552 52.2638 99.1498C51.7914 98.8387 51.3016 98.5161 50.8349 98.1876C50.6563 98.0667 50.5008 97.888 50.4143 97.7152C49.8958 96.6839 49.3715 95.6352 48.8644 94.6212C48.2249 93.3421 47.5681 92.0112 46.8997 90.7148C45.056 87.1138 42.0772 85.2758 38.0441 85.2528C35.388 85.2355 32.6858 85.2412 30.0757 85.247C28.8946 85.247 27.7077 85.247 26.5266 85.247C22.5741 85.247 18.6159 85.247 14.6634 85.247C11.529 85.247 9.15524 87.6035 9.14948 90.7263C9.14948 91.6712 9.14948 92.6161 9.14948 93.5668C9.14948 93.9932 9.14948 94.4195 9.14948 94.8459C9.14948 96.2056 9.14948 97.5712 9.14948 98.9309C9.14948 100.573 9.14948 102.238 9.14948 103.915C5.76164 99.6914 3.73354 94.3274 3.73354 88.4908C3.73354 74.8588 14.7844 63.808 28.4164 63.808C35.8489 63.808 42.5094 67.0921 47.0322 72.2891L46.1853 72.8941C43.1662 76.8293 43.2814 82.2971 46.3178 86.0882C47.3203 87.3385 48.2595 88.6464 49.1525 89.9716C49.6365 90.686 50.0398 90.8473 50.7312 90.2423C51.5263 89.5394 52.379 88.9114 53.347 88.1451C54.4705 89.7123 55.4558 91.0893 56.4468 92.4663C56.6599 92.7659 56.8674 93.0713 57.0978 93.3536C57.7086 94.1027 58.4172 94.2352 59.1086 93.7512C59.8058 93.2672 59.9844 92.3914 59.4543 91.6309C58.4806 90.2308 57.4493 88.8711 56.4468 87.494C56.2336 87.2002 56.0319 86.9006 55.6632 86.3648C57.4147 85.0857 59.1259 83.8412 60.889 82.5563C62.1911 84.3367 63.3492 85.8808 64.467 87.4537C65.118 88.3756 65.988 88.6637 66.7428 88.1278C67.4342 87.6381 67.5149 86.6759 66.8868 85.8232C65.7057 84.2157 64.5073 82.6197 63.1303 80.776C64.2135 80.0558 65.2102 79.4508 66.1321 78.7536C66.3568 78.5866 66.5469 77.9816 66.4259 77.8145C64.9048 75.7461 63.5105 73.5278 61.7071 71.7302C58.7399 68.7687 55.0467 68.1407 51.0712 69.414L50.0744 70.1227C44.8659 63.9808 37.0877 60.0859 28.4049 60.0859C12.7217 60.0802 0 72.7961 0 88.4908C0 96.7472 3.52036 104.18 9.14372 109.371ZM44.6469 113.266C44.6873 111.71 45.9433 110.46 47.4644 110.46C47.4817 110.46 47.4989 110.46 47.5162 110.46C49.0892 110.489 50.351 111.768 50.3279 113.318C50.3164 114.078 50.011 114.798 49.4637 115.329C48.9163 115.864 48.2019 116.147 47.4413 116.141C46.7038 116.129 45.9721 115.807 45.4478 115.254C44.9235 114.701 44.6354 113.998 44.6527 113.266H44.6469ZM17.8841 113.335C17.8841 112.563 18.178 111.837 18.7253 111.29C19.2554 110.754 19.9583 110.466 20.6958 110.466H20.7073C22.2687 110.471 23.5363 111.739 23.5421 113.289C23.5421 114.85 22.286 116.129 20.7361 116.141C19.9814 116.141 19.2727 115.853 18.7311 115.323C18.1895 114.793 17.8899 114.084 17.8841 113.341V113.335ZM11.7019 90.6226C11.7019 89.1937 12.7908 87.9953 14.2312 87.8397C14.4099 87.8225 14.6115 87.8109 14.8593 87.8109C17.7747 87.8109 20.6843 87.8109 23.5997 87.8109C28.3645 87.8109 33.1237 87.8109 37.8885 87.8109H37.8943C41.0574 87.8109 43.2699 89.1765 44.6642 91.9939C45.2404 93.152 45.8281 94.3331 46.3985 95.4682C46.7211 96.1077 47.0438 96.753 47.3607 97.3925C47.3952 97.4617 47.424 97.5251 47.4586 97.6H44.0592C43.1892 97.6 42.3135 97.6 41.4435 97.6C40.8097 97.6 40.5216 97.3119 40.5216 96.6723C40.5216 94.6903 40.5216 92.668 40.5216 90.7206C40.5216 90.1502 40.2623 89.7296 39.7726 89.4933C39.2713 89.2513 38.7643 89.332 38.4128 89.7123C38.2112 89.9312 37.9865 90.2884 37.9865 90.6457C37.9577 93.0137 37.9461 95.0015 37.9865 97.0007C38.021 98.8041 39.5133 100.17 41.455 100.175C42.4229 100.175 43.3909 100.175 44.3588 100.175C45.8165 100.175 47.3261 100.175 48.8126 100.187C49.02 100.187 49.2735 100.268 49.4752 100.394C50.0859 100.78 50.7024 101.189 51.2959 101.587C51.5667 101.766 51.8317 101.944 52.1025 102.123C53.6812 103.166 54.4475 104.589 54.4532 106.461C54.4532 108.103 54.4532 109.596 54.4532 111.013C54.4532 111.745 54.1709 112.021 53.4277 112.021C53.2318 112.021 53.0301 112.021 52.8285 112.021H52.7478C52.4424 110.932 51.9412 110.068 51.2152 109.388C49.8324 108.092 47.9311 107.602 46.1219 108.075C44.3128 108.553 42.9012 109.918 42.3423 111.733C42.2616 111.993 42.2155 112.027 41.9447 112.027H41.939C36.6555 112.016 31.3952 112.016 26.3076 112.027H26.3019C26.0138 112.027 25.9562 111.981 25.8755 111.704C25.2244 109.48 23.1272 107.919 20.7765 107.896C20.7592 107.896 20.7477 107.896 20.7304 107.896C18.3623 107.896 16.3112 109.383 15.614 111.612C15.5046 111.964 15.4181 112.027 15.0148 112.033C13.5744 112.05 12.6468 111.583 12.0937 110.546C11.869 110.12 11.7307 109.607 11.7307 109.175C11.7019 102.912 11.7076 96.5571 11.7192 90.6169L11.7019 90.6226Z" fill="white"/>
</g>
<mask id="mask1_247_4038" style="mask-type:luminance" maskUnits="userSpaceOnUse" x="80" y="44" width="83" height="79">
<path d="M162.968 44.8809H80.3291V122.375H162.968V44.8809Z" fill="white"/>
</mask>
<g mask="url(#mask1_247_4038)">
<g filter="url(#filter1_d_247_4038)">
<path d="M148.782 79.0072C148.782 79.0072 154.481 96.1596 146.426 100.164C138.371 104.174 138.648 89.8218 138.648 89.8218L144.692 78.7998L148.782 79.0015V79.0072Z" fill="#523B8E"/>
<path d="M146.685 136.203C146.685 136.203 132.413 132.855 130.754 122.07C128.709 108.801 132.333 102.302 132.333 102.302L141.655 113.427L144.455 126.875L148.143 129.543L150.194 133.893L146.691 136.209L146.685 136.203Z" fill="#EC6F43"/>
<path d="M136.861 113.427C136.861 113.427 137.679 139.274 138.774 142.011C139.869 144.742 145.861 142.011 145.861 142.011L147.278 114.003L136.867 113.427H136.861Z" fill="#F08456"/>
<path d="M130.443 97.0123C130.443 97.0123 129.4 102.676 129.4 106.899C129.4 111.123 128.887 115.761 129.4 116.17C129.913 116.585 135.029 117.967 141.211 117.656C147.393 117.345 149.249 115.962 149.145 115.467C149.041 114.977 148.321 114.562 148.321 114.562C148.321 114.562 148.16 97.0008 145.849 94.1603C142.179 89.649 138.411 95.0995 138.411 95.0995H130.852L130.448 97.0066L130.443 97.0123Z" fill="#5771B5"/>
<path d="M148.315 114.683C148.367 114.683 148.413 114.649 148.43 114.591C148.447 114.528 148.407 114.465 148.344 114.453L147.376 114.223C147.312 114.205 147.249 114.246 147.237 114.309C147.22 114.372 147.26 114.436 147.324 114.447L148.292 114.678C148.292 114.678 148.309 114.678 148.321 114.678L148.315 114.683Z" fill="#3A3D74"/>
<path d="M140.721 69.8579C140.721 69.8579 145.348 75.85 140.416 78.823C135.484 81.796 135.691 77.492 135.691 77.492L138.791 69.3796L140.721 69.8579Z" fill="#FCC232"/>
<path d="M134.666 77.1406C134.666 77.1406 126.341 78.6732 123.569 85.1954C120.953 91.3546 130.408 94.5292 131.849 89.7413C133.283 84.9592 134.666 77.1406 134.666 77.1406Z" fill="#1D1D1B"/>
<path d="M138.745 74.4094L138.717 77.5207C138.717 77.5207 138.158 78.408 136.366 78.5348C135.029 78.6269 134.614 77.924 134.614 77.924L134.966 75.2045L138.204 74.5247L138.745 74.4094Z" fill="#F08456"/>
<path d="M138.204 74.5247C138.193 74.6111 138.164 74.709 138.112 74.8243C137.415 76.3684 135.537 76.6795 134.765 76.7429L134.961 75.2103L138.199 74.5304L138.204 74.5247Z" fill="black"/>
<path d="M134.32 68.1006C134.32 68.1006 132.851 72.1049 133.467 74.2771C134.084 76.455 135.864 75.9825 137.051 75.5562C138.238 75.1298 138.785 74.3981 138.785 74.3981C138.785 74.3981 139.897 74.7726 140.634 73.7355C141.372 72.6984 140.911 71.5172 140.277 71.2464C139.643 70.9757 138.889 71.4366 138.889 71.4366L139.476 70.3073C139.476 70.3073 136.97 64.5918 134.32 68.0891V68.1006Z" fill="#F08456"/>
<path d="M139.034 73.3205C139.062 73.3205 139.091 73.309 139.114 73.286L140.353 72.0242C140.399 71.9781 140.399 71.9032 140.353 71.8571C140.307 71.811 140.232 71.811 140.186 71.8571L138.947 73.1189C138.901 73.165 138.901 73.2399 138.947 73.286C138.97 73.309 138.999 73.3205 139.028 73.3205H139.034Z" fill="black"/>
<path d="M140.284 73.0787C140.347 73.0787 140.399 73.0326 140.399 72.9692C140.399 72.9059 140.353 72.8482 140.29 72.8482L139.322 72.7964C139.247 72.7964 139.201 72.8425 139.201 72.9059C139.201 72.9692 139.247 73.0269 139.31 73.0269L140.278 73.0787H140.284Z" fill="black"/>
<path d="M138.89 71.4479C138.89 71.4479 137.524 71.3211 136.66 70.2034C135.796 69.0856 135.387 67.9448 135.387 67.9448C135.387 67.9448 134.81 68.0428 134.447 68.5037C134.177 68.8436 133.86 69.3334 133.86 69.3334C133.86 69.3334 133.819 67.7662 134.609 66.9884C135.392 66.2163 136.072 66.4756 136.072 66.4756C136.072 66.4756 137.801 65.4788 139.575 67.0345C141.344 68.5901 140.532 71.4249 140.532 71.4249C140.532 71.4249 139.639 71.0734 138.89 71.4479Z" fill="#FCC232"/>
<path d="M134.39 72.8538C134.39 72.8538 134.407 72.8538 134.419 72.8538C134.482 72.8365 134.517 72.7731 134.499 72.7098C134.303 71.955 134.816 71.3327 134.822 71.327C134.862 71.2751 134.857 71.206 134.81 71.1656C134.759 71.1253 134.689 71.1311 134.649 71.1772C134.626 71.206 134.056 71.8974 134.28 72.7731C134.292 72.825 134.344 72.8596 134.396 72.8596L134.39 72.8538Z" fill="black"/>
<path d="M133.807 69.6102C133.807 69.6102 133.819 69.6102 133.824 69.6102L134.493 69.4949C134.556 69.4834 134.597 69.4258 134.591 69.3624C134.579 69.299 134.522 69.2529 134.458 69.2645L133.79 69.3797C133.727 69.3912 133.686 69.4488 133.692 69.5122C133.703 69.5698 133.75 69.6102 133.807 69.6102Z" fill="black"/>
<path d="M136.487 69.8118C136.539 69.8118 136.585 69.7773 136.602 69.7254C136.62 69.662 136.585 69.5987 136.522 69.5814L135.519 69.3106C135.456 69.2933 135.392 69.3279 135.375 69.3912C135.358 69.4546 135.398 69.518 135.456 69.5353L136.458 69.8061C136.458 69.8061 136.481 69.8061 136.487 69.8061V69.8118Z" fill="black"/>
<path d="M152.671 67.9277C152.671 67.9277 154.82 64.6781 155.396 62.3159C155.972 59.9536 155.615 59.026 155.269 58.8935C154.924 58.7609 154.221 60.161 154.221 60.161C154.221 60.161 154.699 57.9255 153.927 57.6547C153.161 57.3781 152.515 59.2968 152.515 59.2968C152.515 59.2968 152.515 57.6317 151.818 57.8045C151.115 57.9774 150.245 61.5841 150.245 61.5841C150.245 61.5841 150.067 59.6713 149.525 59.798C148.983 59.9248 148.142 62.5291 148.321 63.5719C148.505 64.6148 149.231 65.9687 149.231 65.9687L152.671 67.9277Z" fill="#F08456"/>
<path d="M138.653 76.985C138.653 76.985 142.312 73.7643 144.38 70.2785C146.31 67.0174 147.307 64.7185 147.307 64.7185L154.33 66.9828C154.33 66.9828 153.144 72.4218 150.119 77.7686C147.088 83.1154 146.293 84.3254 146.293 84.3254C146.293 84.3254 146.904 95.1169 146.731 95.3301C146.558 95.5433 141.897 96.4939 136.654 96.2289C131.411 95.9639 130.558 95.4338 130.276 95.2782C130.114 95.186 130.575 89.1248 131.843 84.1122C132.816 80.2749 134.666 77.1521 134.666 77.1521C134.666 77.1521 134.879 79.1687 138.653 76.9966V76.985Z" fill="#1D1D1B"/>
<path d="M151.012 65.6057C151.064 65.6057 151.11 65.5712 151.121 65.5251C151.651 63.8715 150.557 61.9471 150.51 61.8664C150.476 61.8088 150.407 61.7915 150.349 61.8261C150.291 61.8607 150.274 61.9298 150.309 61.9874C150.32 62.0047 151.398 63.906 150.902 65.4617C150.885 65.5251 150.914 65.5884 150.977 65.6057C150.989 65.6057 151 65.6057 151.012 65.6057Z" fill="black"/>
<path d="M154.359 62.9207C154.399 62.9207 154.439 62.8977 154.462 62.8573C154.491 62.7997 154.468 62.7306 154.411 62.7018L150.896 60.9272C150.838 60.8984 150.769 60.9214 150.74 60.9791C150.712 61.0367 150.735 61.1058 150.792 61.1346L154.307 62.9092C154.307 62.9092 154.341 62.9207 154.359 62.9207Z" fill="black"/>
<path d="M153.824 68.5327C153.87 68.5327 153.916 68.5039 153.933 68.452C153.956 68.3886 153.922 68.3253 153.864 68.3022L146.985 65.8881C146.921 65.865 146.858 65.8996 146.835 65.9572C146.812 66.0148 146.846 66.084 146.904 66.107L153.783 68.5211C153.783 68.5211 153.806 68.5269 153.824 68.5269V68.5327Z" fill="#D46100"/>
<path d="M134.24 73.6834C134.229 73.6489 134.229 73.6143 134.24 73.5797C134.257 73.5509 134.286 73.5279 134.327 73.5221L135.669 73.3204C135.709 73.3147 135.75 73.332 135.778 73.3608C135.807 73.3896 135.813 73.4357 135.801 73.476C135.79 73.5106 135.525 74.2538 135.029 74.2942C135.012 74.2942 135.001 74.2942 134.983 74.2942C134.511 74.2942 134.252 73.7122 134.24 73.6834ZM134.528 73.7295C134.62 73.8736 134.793 74.0752 135.012 74.0579C135.225 74.0406 135.398 73.7871 135.502 73.5797L134.528 73.7295Z" fill="black"/>
<path d="M139.16 67.6397C139.16 67.6397 139.027 63.7218 142.029 64.6436C145.031 65.5655 143.02 68.9533 141.245 69.7023C139.471 70.4514 138.733 68.8381 138.733 68.8381L139.16 67.6397Z" fill="#FCC232"/>
<path d="M124.848 89.747C124.918 89.747 124.969 89.6894 124.964 89.626C124.797 86.0941 127.758 85.2875 127.885 85.2529C127.948 85.2356 127.983 85.1723 127.971 85.1089C127.954 85.0455 127.891 85.0109 127.827 85.0225C127.793 85.0282 124.555 85.904 124.727 89.6318C124.727 89.6951 124.779 89.7412 124.843 89.7412L124.848 89.747Z" fill="#D46100"/>
<path d="M128.754 87.6842C128.754 87.6842 129.492 84.4231 130.085 82.6428C130.748 80.6493 131.434 79.036 131.785 78.2467C131.941 77.901 132.252 77.5841 132.569 77.3766C132.88 77.175 133.122 77.0137 133.485 77.0021C134.499 76.9618 134.729 77.0079 134.729 77.0079C134.729 77.0079 131.549 84.1639 130.967 87.5402C130.903 87.9032 128.754 87.6842 128.754 87.6842Z" fill="#523B8E"/>
<path d="M126.254 89.05C126.092 87.7939 126.674 86.5667 127.734 85.8811C127.942 85.7428 128.143 85.6218 128.311 85.5296C129.031 85.1263 132.061 86.0366 132.061 86.0366C132.061 86.0366 134.234 86.705 133.796 87.3387C133.358 87.9725 132.384 87.7881 132.131 87.9898C131.877 88.1915 133.001 90.5422 132.551 90.9282C131.831 91.5505 129.008 91.9365 127.59 91.418C127.579 91.418 127.562 91.4065 127.55 91.4007C126.72 91.0838 126.38 90.0467 126.254 89.05Z" fill="#F08456"/>
<path d="M131.047 88.2204L132.142 88.0994C132.205 88.0936 132.251 88.036 132.245 87.9726C132.24 87.9092 132.176 87.8631 132.119 87.8689L131.035 87.9899C130.972 87.9956 130.926 88.0533 130.932 88.1166C130.937 88.1743 130.989 88.2204 131.047 88.2204Z" fill="black"/>
<path d="M129.498 86.0537C129.498 86.0537 129.515 86.0537 129.521 86.0537L130.76 85.8059C130.823 85.7944 130.864 85.731 130.852 85.6676C130.841 85.6043 130.777 85.5639 130.714 85.5754L129.475 85.8232C129.412 85.8347 129.371 85.8981 129.383 85.9615C129.394 86.0191 129.44 86.0537 129.498 86.0537Z" fill="black"/>
<path d="M135.916 78.1199C137.149 78.1199 138.647 77.0022 138.722 76.9503C138.773 76.91 138.785 76.8409 138.745 76.789C138.704 76.7371 138.629 76.7256 138.583 76.7659C138.566 76.7775 136.699 78.1718 135.53 77.8434C135.178 77.7454 134.93 77.5034 134.775 77.1059C134.752 77.0483 134.683 77.0195 134.625 77.0425C134.567 77.0656 134.539 77.1347 134.562 77.1923C134.746 77.6532 135.051 77.9471 135.466 78.0681C135.61 78.1084 135.76 78.1257 135.921 78.1257L135.916 78.1199Z" fill="#D46100"/>
<path d="M147.376 88.7273C147.376 88.7273 142.34 85.956 139.984 80.7878C139.206 79.0766 138.342 76.576 138.745 76.3628C139.264 76.0863 139.776 75.9192 139.776 75.9192C139.776 75.9192 142.87 82.2224 146.886 85.1493C150.845 88.0359 147.37 88.7273 147.37 88.7273H147.376Z" fill="#523B8E"/>
<path d="M133.872 71.4653C133.923 71.4653 133.97 71.4307 133.987 71.3731L134.154 70.6644C134.165 70.6241 134.154 70.5838 134.125 70.5607L133.895 70.313C133.849 70.2669 133.779 70.2611 133.728 70.3072C133.681 70.3533 133.676 70.4224 133.722 70.4743L133.906 70.676L133.751 71.3213C133.733 71.3846 133.774 71.448 133.837 71.4595C133.849 71.4595 133.854 71.4595 133.866 71.4595L133.872 71.4653Z" fill="black"/>
<path d="M135.777 71.6844C135.835 71.6844 135.881 71.6441 135.893 71.5865L136.019 70.8721C136.025 70.8317 136.014 70.7914 135.985 70.7683L135.651 70.463C135.604 70.4169 135.53 70.4226 135.483 70.4687C135.437 70.5148 135.443 70.5897 135.489 70.6358L135.777 70.8951L135.662 71.5462C135.651 71.6095 135.691 71.6672 135.754 71.6787C135.76 71.6787 135.766 71.6787 135.777 71.6787V71.6844Z" fill="black"/>
</g>
<g filter="url(#filter2_d_247_4038)">
<path d="M111.74 94.6388L101.726 94.9614C99.8764 95.019 98.3266 93.5671 98.2632 91.7176L97.7907 77.0312C97.7331 75.1817 99.185 73.6318 101.035 73.5685L111.048 73.2458C112.898 73.1882 114.448 74.6401 114.511 76.4896L114.983 91.176C115.041 93.0255 113.589 94.5754 111.74 94.6388Z" fill="#A0463A"/>
<path d="M116.125 93.0427C116.125 93.0427 120.349 105.551 121.599 114.349C122.855 123.147 118.914 137.788 118.914 137.788L105.582 137.603C105.582 137.603 107.898 122.859 108.359 118.555C108.699 113.813 106.498 93.8609 106.498 93.8609L116.131 93.0485L116.125 93.0427Z" fill="black"/>
<path d="M101.726 92.1438C101.726 92.1438 98.1135 104.278 93.1009 113.888C88.0882 123.499 85.6914 126.247 85.6914 126.247L96.1603 135.909C96.1603 135.909 107.257 121.079 108.738 111.342C110.219 101.604 110.991 93.4171 110.991 93.4171L101.72 92.1438H101.726Z" fill="black"/>
<path d="M101.778 98.7409C101.49 98.7409 101.185 98.6948 100.851 98.5969C100.787 98.5796 100.753 98.5105 100.776 98.4528C100.793 98.3895 100.856 98.3549 100.92 98.3779C103.432 99.15 104.555 96.419 104.601 96.3038C104.624 96.2461 104.694 96.2173 104.751 96.2404C104.809 96.2634 104.838 96.3326 104.815 96.3902C104.803 96.419 103.847 98.7467 101.772 98.7467L101.778 98.7409Z" fill="white"/>
<path d="M96.7312 112.039C96.6966 112.039 96.6678 112.039 96.6332 112.027C95.9995 111.883 95.2447 110.316 95.1583 110.137C95.1352 110.097 95.1467 110.045 95.1755 110.011C95.2101 109.976 95.2562 109.965 95.3023 109.982C95.4867 110.051 97.1114 110.685 97.2324 111.399C97.2555 111.537 97.2324 111.745 96.9905 111.947C96.9156 112.01 96.8234 112.044 96.7312 112.044V112.039ZM95.5039 110.31C95.792 110.858 96.3106 111.716 96.6793 111.797C96.7427 111.814 96.7888 111.797 96.8349 111.762C96.9617 111.653 97.0193 111.549 96.9962 111.434C96.9271 111.019 96.0571 110.558 95.4982 110.316L95.5039 110.31Z" fill="white"/>
<path d="M108.254 113.6C108.254 113.6 108.225 113.6 108.208 113.588C108.15 113.565 108.122 113.496 108.145 113.439C109.787 109.515 110.737 101.719 110.749 101.639C110.749 101.593 110.784 101.558 110.83 101.541L114.771 100.216C114.834 100.193 114.897 100.227 114.92 100.291C114.943 100.354 114.909 100.417 114.845 100.44L110.974 101.742C110.87 102.549 109.931 109.78 108.364 113.531C108.346 113.577 108.3 113.6 108.254 113.6Z" fill="white"/>
<path d="M120.97 66.6313C120.97 66.6313 120.29 65.6921 120.665 63.9579C120.918 62.7825 122.359 60.8293 123.004 60.8408C123.649 60.8523 123.05 62.6096 123.05 62.6096C123.05 62.6096 124.323 59.9305 125.234 59.458C126.144 58.9856 126.184 60.1782 126.184 60.1782C126.184 60.1782 126.743 59.1354 127.573 59.1757C128.397 59.2103 127.959 60.4778 127.959 60.4778C127.959 60.4778 128.979 59.6597 129.204 60.7602C129.423 61.8606 128.063 64.4706 127.089 65.6057C126.115 66.7407 124.75 68.4058 124.75 68.4058L120.976 66.6255L120.97 66.6313Z" fill="#F08456"/>
<path d="M127.417 64.1595C127.417 64.1595 127.4 64.1595 127.388 64.1595C126.052 63.8369 123.672 63.5603 123.649 63.5603C123.586 63.5545 123.54 63.4969 123.545 63.4335C123.551 63.3702 123.609 63.3241 123.672 63.3298C123.695 63.3298 126.092 63.6122 127.44 63.9348C127.504 63.9521 127.544 64.0155 127.527 64.0731C127.515 64.1249 127.469 64.1595 127.411 64.1595H127.417Z" fill="black"/>
<path d="M122.918 67.0691C122.889 67.0691 122.86 67.0576 122.837 67.0346C122.791 66.9885 122.791 66.9136 122.837 66.8675C123.742 65.9341 122.953 63.9521 122.947 63.929C122.924 63.8714 122.947 63.8023 123.01 63.7792C123.068 63.7562 123.137 63.7792 123.16 63.8426C123.195 63.929 124.013 65.986 123.004 67.0288C122.981 67.0519 122.953 67.0634 122.918 67.0634V67.0691Z" fill="black"/>
<path d="M120.008 66.3317C120.008 66.3317 120.066 71.546 117.974 73.2226C115.871 74.9108 112.022 74.0638 111.135 73.9947C110.248 73.9255 109.055 73.7239 106.624 73.7642C104.855 73.793 102.838 73.5625 101.363 74.2885C97.5837 76.1438 100.107 84.3253 100.107 84.3253C100.107 84.3253 100.505 87.137 100.442 88.9058C100.372 90.8014 100.666 92.9793 100.666 92.9793C100.666 92.9793 105.713 93.8147 110.254 93.7456C114.794 93.6764 117.369 93.204 117.369 93.204C117.369 93.204 117.358 92.2648 117.392 89.7873C117.427 87.3156 116.856 83.9104 116.856 83.9104C116.856 83.9104 125.585 83.3804 127.729 77.9875C129.872 72.5946 127.406 66.0667 127.406 66.0667L120.008 66.3374V66.3317Z" fill="#EE751B"/>
<path d="M120.026 74.8185C119.184 74.8185 118.389 73.067 118.297 72.8538C118.274 72.8077 118.291 72.7501 118.326 72.7155C118.366 72.6809 118.418 72.6752 118.464 72.704C118.942 73.0094 120.504 74.0465 120.435 74.5477C120.423 74.6284 120.371 74.7379 120.187 74.7897C120.135 74.807 120.077 74.8128 120.026 74.8128V74.8185ZM118.689 73.1419C119.029 73.7929 119.634 74.7148 120.124 74.5765C120.152 74.5708 120.198 74.5535 120.204 74.5247C120.233 74.3115 119.496 73.6892 118.695 73.1419H118.689Z" fill="#D46100"/>
<path d="M117.387 89.1188C117.387 89.1188 117.335 84.6593 115.935 81.0064C114.316 76.7831 112.645 74.7378 112.138 73.9427C112.149 73.9427 111.567 73.4299 111.579 73.4299C113.008 73.4126 115.37 74.588 115.975 75.8843C116.511 77.0367 117.098 78.5923 117.513 80.4418C118.631 85.4775 117.387 89.1246 117.387 89.1246V89.1188Z" fill="black"/>
<path d="M101.335 73.9429C101.335 73.9429 101.773 78.7193 101.358 81.6807C100.914 84.8439 98.9438 88.635 98.9438 88.635V91.4582C98.9438 91.4582 104.521 87.477 104.521 79.1687C104.521 75.3199 104.026 73.4819 104.026 73.4819C104.026 73.4819 102.378 73.7643 101.341 73.9486L101.335 73.9429Z" fill="black"/>
<path d="M106.197 71.4883L106.277 74.4094C106.277 74.4094 106.836 75.2391 108.576 75.3486C109.873 75.4292 110.316 75.1354 110.316 75.1354L110.097 73.6604L109.878 72.22L106.727 71.592L106.197 71.4883Z" fill="#F08456"/>
<path d="M106.727 71.5979C106.739 71.6843 106.767 71.7823 106.819 71.8975C107.516 73.4359 109.383 73.7067 110.132 73.7585L109.879 72.2259L106.727 71.6037V71.5979Z" fill="black"/>
<path d="M110.385 65.1389C110.385 65.1389 112.028 69.005 111.457 71.1887C110.887 73.3723 108.997 73.0439 107.862 72.6291C106.727 72.2142 106.197 71.494 106.197 71.494C106.197 71.494 105.142 71.8801 104.428 70.8487C103.713 69.8232 104.14 68.6363 104.745 68.3597C105.35 68.0831 106.07 68.5383 106.07 68.5383L105.5 67.4148C105.5 67.4148 107.833 61.6704 110.391 65.1447L110.385 65.1389Z" fill="#F08456"/>
<path d="M105.909 70.3475C105.874 70.3475 105.845 70.336 105.822 70.3072L104.82 69.1894C104.779 69.1433 104.779 69.0684 104.825 69.0224C104.871 68.982 104.946 68.982 104.992 69.0339L105.995 70.1516C106.035 70.1977 106.035 70.2726 105.989 70.3187C105.966 70.336 105.937 70.3475 105.909 70.3475Z" fill="black"/>
<path d="M104.848 70.0478C104.791 70.0478 104.745 70.0074 104.733 69.9498C104.722 69.8864 104.768 69.8288 104.831 69.8173L105.528 69.7078C105.592 69.6963 105.649 69.7424 105.661 69.8058C105.672 69.8692 105.626 69.9268 105.563 69.9383L104.866 70.0478C104.866 70.0478 104.854 70.0478 104.848 70.0478Z" fill="black"/>
<path d="M106.198 68.7055C106.198 68.7055 107.5 68.1063 107.909 66.954C108.318 65.7959 107.909 65.1218 107.909 65.1218C107.909 65.1218 108.416 64.7185 109.228 64.9317C110.047 65.1391 110.75 66.1186 110.75 66.1186C110.75 66.1186 112.311 64.3094 111.55 63.1052C110.784 61.901 109.401 63.1052 109.401 63.1052C109.401 63.1052 109.499 61.8549 107.471 62.241C105.443 62.627 105.443 65.1333 105.443 65.1333C105.443 65.1333 104.654 64.4131 104.06 66.0955C103.467 67.7837 104.343 68.7171 104.343 68.7171C104.343 68.7171 104.965 68.1927 106.186 68.7171L106.198 68.7055Z" fill="black"/>
<path d="M109.337 71.2003C109.285 71.2003 109.233 71.1887 109.187 71.1714C108.847 71.0274 108.559 70.3936 108.524 70.3187C108.507 70.2784 108.513 70.2265 108.542 70.192C108.57 70.1574 108.617 70.1459 108.663 70.1574L110.034 70.5607C110.074 70.5722 110.103 70.601 110.115 70.6414C110.126 70.6817 110.115 70.722 110.092 70.7508C110.045 70.8027 109.677 71.1945 109.337 71.1945V71.2003ZM108.859 70.457C108.98 70.6702 109.141 70.8949 109.279 70.9525C109.406 71.0044 109.625 70.8661 109.78 70.7278L108.859 70.457Z" fill="black"/>
<path d="M110.133 69.6157C110.133 69.6157 110.104 69.6157 110.092 69.6099C110.035 69.5869 110 69.5178 110.023 69.4601C110.277 68.7745 109.764 68.2675 109.758 68.2617C109.712 68.2156 109.712 68.1407 109.758 68.0946C109.804 68.0485 109.879 68.0485 109.925 68.0946C109.948 68.1177 110.553 68.7111 110.248 69.5408C110.231 69.5869 110.185 69.6157 110.138 69.6157H110.133Z" fill="black"/>
<path d="M108.726 68.5612C108.663 68.5612 108.617 68.5151 108.611 68.4517L108.548 67.6048C108.548 67.5414 108.594 67.4838 108.657 67.478C108.726 67.478 108.778 67.5241 108.784 67.5875L108.847 68.4345C108.847 68.4978 108.801 68.5555 108.738 68.5612C108.738 68.5612 108.738 68.5612 108.732 68.5612H108.726Z" fill="black"/>
<path d="M110.881 68.5096C110.823 68.5096 110.771 68.4635 110.766 68.4058L110.685 67.5589C110.679 67.4955 110.725 67.4379 110.789 67.4321C110.858 67.4321 110.91 67.4725 110.916 67.5358L110.996 68.3828C111.002 68.4462 110.956 68.5038 110.892 68.5096C110.892 68.5096 110.887 68.5096 110.881 68.5096Z" fill="black"/>
<path d="M107.811 68.302C107.811 68.302 107.771 68.302 107.753 68.2847C107.696 68.2501 107.678 68.181 107.713 68.1234C108.001 67.6336 108.635 67.8007 108.664 67.8065C108.727 67.8238 108.762 67.8871 108.744 67.9505C108.727 68.0139 108.664 68.0485 108.6 68.0312C108.583 68.0312 108.111 67.9044 107.915 68.2386C107.892 68.2732 107.851 68.2962 107.817 68.2962L107.811 68.302Z" fill="black"/>
<path d="M110.847 68.1525C110.806 68.1525 110.766 68.1294 110.743 68.0891C110.743 68.0891 110.657 67.9336 110.501 67.8932C110.409 67.8702 110.305 67.8932 110.19 67.9566C110.132 67.9912 110.063 67.9681 110.029 67.9163C109.994 67.8586 110.017 67.7895 110.069 67.7549C110.242 67.657 110.409 67.6282 110.564 67.6743C110.812 67.7434 110.939 67.9739 110.945 67.9854C110.974 68.043 110.956 68.1122 110.899 68.141C110.881 68.1525 110.864 68.1525 110.841 68.1525H110.847Z" fill="black"/>
<path d="M108.64 75.5216C106.906 75.5216 106.215 74.5306 106.18 74.473C106.146 74.4212 106.157 74.3463 106.215 74.3117C106.267 74.2771 106.341 74.2886 106.376 74.3463C106.416 74.4096 107.448 75.8731 110.282 75.0261C110.346 75.0088 110.409 75.0434 110.426 75.1068C110.444 75.1702 110.409 75.2335 110.346 75.2508C109.689 75.4467 109.124 75.5274 108.635 75.5274L108.64 75.5216Z" fill="#D46100"/>
<path d="M103.57 87.9609C103.57 87.9609 95.2268 91.32 92.9798 88.9116C87.1144 82.6372 101.363 74.2886 101.363 74.2886L101.351 81.3235L101.726 81.3639L103.57 87.9609Z" fill="#EE751B"/>
<path d="M97.0765 84.0429C96.9785 84.0429 96.8978 84.0256 96.8402 83.991C96.7711 83.9507 96.6904 83.87 96.6904 83.7087C96.7077 82.8733 99.5655 82.5276 100.136 82.47C100.188 82.47 100.24 82.4988 100.257 82.5506C100.274 82.6025 100.257 82.6601 100.205 82.6889C99.7902 82.9367 97.8773 84.0487 97.0707 84.0487L97.0765 84.0429ZM99.5885 82.7753C98.3383 82.9539 96.9267 83.3169 96.9209 83.7145C96.9209 83.7721 96.9439 83.7894 96.9555 83.7951C97.2378 83.9565 98.5284 83.363 99.5885 82.7753Z" fill="#D46100"/>
<path d="M101.582 82.7984C102.008 82.107 105.056 81.4501 105.056 81.4501C105.056 81.4501 107.246 80.9892 107.171 81.744C107.096 82.4988 106.168 82.8041 106.047 83.098C105.926 83.3918 108.012 84.8841 107.81 85.4314C107.482 86.313 105.241 87.9838 103.772 88.2143C103.754 88.2143 103.743 88.2143 103.725 88.2201C101.905 88.4793 100.562 86.4224 100.672 84.5845C100.672 84.5845 101.162 83.484 101.588 82.7926L101.582 82.7984Z" fill="#F08456"/>
<path d="M105.166 83.8297C105.131 83.8297 105.091 83.8124 105.068 83.7778C105.034 83.7259 105.045 83.651 105.097 83.6165L105.973 83C106.025 82.9654 106.099 82.9769 106.134 83.0288C106.169 83.0806 106.157 83.1556 106.105 83.1901L105.229 83.8066C105.229 83.8066 105.183 83.8297 105.16 83.8297H105.166Z" fill="black"/>
<path d="M102.798 82.7004C102.763 82.7004 102.735 82.6889 102.712 82.6601C102.671 82.6083 102.677 82.5391 102.723 82.493L103.668 81.6864C103.72 81.6461 103.789 81.6518 103.835 81.6979C103.875 81.7498 103.87 81.8189 103.824 81.865L102.879 82.6716C102.879 82.6716 102.833 82.7004 102.804 82.7004H102.798Z" fill="black"/>
</g>
</g>
<defs>
<filter id="filter0_d_247_4038" x="21.2027" y="3.40847" width="226.848" height="165.688" filterUnits="userSpaceOnUse" color-interpolation-filters="sRGB">
<feFlood flood-opacity="0" result="BackgroundImageFix"/>
<feColorMatrix in="SourceAlpha" type="matrix" values="0 0 0 0 0 0 0 0 0 0 0 0 0 0 0 0 0 0 127 0" result="hardAlpha"/>
<feOffset dx="3.96977" dy="3.96977"/>
<feGaussianBlur stdDeviation="2.83473"/>
<feColorMatrix type="matrix" values="0 0 0 0 0.113725 0 0 0 0 0.113725 0 0 0 0 0.105882 0 0 0 0.75 0"/>
<feBlend mode="normal" in2="BackgroundImageFix" result="effect1_dropShadow_247_4038"/>
<feBlend mode="normal" in="SourceGraphic" in2="effect1_dropShadow_247_4038" result="shape"/>
</filter>
<filter id="filter1_d_247_4038" x="122.152" y="56.6652" width="38.9934" height="97.562" filterUnits="userSpaceOnUse" color-interpolation-filters="sRGB">
<feFlood flood-opacity="0" result="BackgroundImageFix"/>
<feColorMatrix in="SourceAlpha" type="matrix" values="0 0 0 0 0 0 0 0 0 0 0 0 0 0 0 0 0 0 127 0" result="hardAlpha"/>
<feOffset dx="2.24128" dy="2.24128"/>
<feGaussianBlur stdDeviation="1.60174"/>
<feColorMatrix type="matrix" values="0 0 0 0 0.113725 0 0 0 0 0.113725 0 0 0 0 0.105882 0 0 0 0.75 0"/>
<feBlend mode="normal" in2="BackgroundImageFix" result="effect1_dropShadow_247_4038"/>
<feBlend mode="normal" in="SourceGraphic" in2="effect1_dropShadow_247_4038" result="shape"/>
</filter>
<filter id="filter2_d_247_4038" x="76.4864" y="58.2124" width="53.7028" height="95.9704" filterUnits="userSpaceOnUse" color-interpolation-filters="sRGB">
<feFlood flood-opacity="0" result="BackgroundImageFix"/>
<feColorMatrix in="SourceAlpha" type="matrix" values="0 0 0 0 0 0 0 0 0 0 0 0 0 0 0 0 0 0 127 0" result="hardAlpha"/>
<feOffset dx="-2.24128" dy="2.24128"/>
<feGaussianBlur stdDeviation="1.60174"/>
<feColorMatrix type="matrix" values="0 0 0 0 0.113725 0 0 0 0 0.113725 0 0 0 0 0.105882 0 0 0 0.75 0"/>
<feBlend mode="normal" in2="BackgroundImageFix" result="effect1_dropShadow_247_4038"/>
<feBlend mode="normal" in="SourceGraphic" in2="effect1_dropShadow_247_4038" result="shape"/>
</filter>
<clipPath id="clip0_247_4038">
<rect width="120.551" height="27.1425" fill="white" transform="translate(30.3809 28.2297)"/>
</clipPath>
</defs>
</svg>
