<svg width="252" height="60" viewBox="0 0 252 60" fill="none" xmlns="http://www.w3.org/2000/svg">
<path d="M47.545 29.8278C48.2557 29.1822 48.9977 29.2915 49.9636 29.9085C49.9636 29.9085 49.9636 29.9085 50.7654 30.2768C51.5672 30.6466 52.3885 30.8302 53.2295 30.8302C54.0443 30.8302 54.6991 30.6792 55.1963 30.3719C55.6937 30.0674 55.9422 29.6469 55.9422 29.1119C55.9422 28.6017 55.7119 28.2086 55.2536 27.9273C54.7955 27.6475 54.1199 27.3676 53.2295 27.0865C52.3378 26.8327 51.5542 26.5462 50.88 26.2274C50.2044 25.9098 49.6381 25.5389 49.18 25.1196C48.7217 24.6992 48.3781 24.2149 48.1489 23.6682C47.9186 23.1188 47.8053 22.4773 47.8053 21.7392C47.8053 20.6939 48.0396 19.7657 48.5121 18.9496C48.982 18.1348 49.6069 17.4409 50.3839 16.8682C51.1597 16.2967 52.0709 15.8633 53.1149 15.5691C54.1588 15.2775 55.2536 15.1305 56.4004 15.1305C57.8765 15.1305 59.2589 15.3777 60.5449 15.8738C61.8311 16.371 62.8568 17.1026 63.6196 18.071L61.0969 20.1941C60.3626 20.8137 59.7014 20.841 58.9139 20.3894C58.9139 20.3894 58.9139 20.3894 58.2902 20.0574C57.6668 19.7268 56.9209 19.5615 56.0554 19.5615C55.3928 19.5615 54.7888 19.6903 54.242 19.9429C53.6941 20.198 53.4193 20.6301 53.4193 21.2433C53.4193 21.6754 53.6237 22.0125 54.0311 22.256C54.4385 22.4981 55.0633 22.7324 55.903 22.9615C57.6863 23.4445 59.0934 24.1135 60.1243 24.9673C61.1552 25.8213 61.6719 27.0617 61.6719 28.6914C61.6719 29.837 61.4234 30.8367 60.9262 31.6893C60.4302 32.5432 59.7807 33.2435 58.9776 33.7915C58.1758 34.3382 57.2594 34.7457 56.2272 35.0138C55.1962 35.2804 54.1457 35.4134 53.0771 35.4134C51.3186 35.4134 49.7539 35.1205 48.3779 34.5348C47.0021 33.949 45.8826 33.1484 45.0156 32.1293L47.545 29.8278Z" fill="white"/>
<path d="M73.4369 35.2623C72.0611 35.2623 70.7814 35.0709 69.5982 34.6882C68.4138 34.3068 67.3945 33.7536 66.5419 33.0273C65.6879 32.301 65.0137 31.4223 64.5178 30.3915C64.0206 29.3593 63.7732 28.1941 63.7732 26.8963C63.7732 25.3174 64.0401 23.8138 64.5751 22.3873C65.1101 20.962 65.8794 19.7136 66.8855 18.6436C67.8904 17.5748 69.1075 16.7211 70.5342 16.0845C71.9595 15.448 73.5762 15.1304 75.3842 15.1304C76.7861 15.1304 78.0852 15.3203 79.2816 15.703C80.4791 16.0845 81.51 16.6376 82.3757 17.3639C83.2413 18.0904 83.9233 18.9689 84.4193 20.0013C84.9165 21.0322 85.1639 22.1958 85.1639 23.4949C85.1639 25.1 84.897 26.6163 84.362 28.0418C83.827 29.4672 83.0498 30.7154 82.032 31.7855C81.0128 32.8542 79.7839 33.7016 78.3455 34.3251C76.9059 34.9485 75.2711 35.2623 73.4369 35.2623ZM79.1293 24.1447C79.1293 22.9992 78.7778 22.0437 78.0776 21.2809C77.3784 20.5169 76.3905 20.1354 75.1187 20.1354C74.3026 20.1354 73.5632 20.2994 72.9019 20.63C72.2395 20.962 71.6797 21.407 71.2214 21.9668C70.762 22.5291 70.4066 23.1774 70.1514 23.9168C69.8963 24.655 69.7699 25.432 69.7699 26.2468C69.7699 27.3923 70.1135 28.3412 70.8009 29.0924C71.4882 29.8434 72.4683 30.2197 73.7427 30.2197C74.5576 30.2197 75.2944 30.0608 75.9582 29.742C76.6208 29.4231 77.187 28.9843 77.6582 28.4234C78.1281 27.8637 78.4913 27.2141 78.7464 26.4761C79.0017 25.7378 79.1293 24.9608 79.1293 24.1447Z" fill="white"/>
<path d="M97.068 36.0745C96.5929 36.9103 95.8041 38.268 95.3159 39.0945C95.3159 39.0945 95.0894 39.4759 94.5426 40.266C93.9947 41.0548 93.3971 41.7187 92.7476 42.2524C92.0967 42.786 91.3521 43.1936 90.5127 43.4746C89.6731 43.7546 88.6903 43.8949 87.5708 43.8949C86.3733 43.8949 85.3306 43.7544 84.4389 43.4746L85.0429 40.1488C85.2147 39.2051 85.8759 38.5867 86.5139 38.7754C86.5139 38.7754 86.5139 38.7754 87.1517 38.7754C88.042 38.7754 88.7359 38.5528 89.2332 38.1064C89.7292 37.6612 90.2069 37.0311 90.665 36.2163L90.7002 36.1564C91.1856 35.3272 91.4044 33.8862 91.1884 32.9503L87.5826 17.4029C87.3665 16.4656 87.9745 15.7028 88.9338 15.7028H92.1295C93.089 15.7028 93.9923 16.4787 94.1394 17.4276L95.5191 26.4314C95.6649 27.3803 95.8015 28.1562 95.8225 28.1562C95.8433 28.1562 96.2155 27.4558 96.6491 26.5995L101.376 17.2598C101.81 16.4033 102.949 15.703 103.909 15.703H106.913C107.874 15.703 108.269 16.3852 107.795 17.2194L97.068 36.0745Z" fill="white"/>
<path d="M125.325 7.56739C125.486 6.62227 126.403 5.84653 127.363 5.84653H129.985C130.946 5.84653 131.593 6.62113 131.426 7.56624L126.916 33.009C126.749 33.9542 125.826 34.7273 124.867 34.7273H122.741C121.782 34.7273 121.098 34.1429 121.225 33.4282C121.351 32.7137 121.429 32.1291 121.397 32.1291C121.367 32.1291 120.814 32.7122 120.171 33.4244C120.171 33.4244 119.787 33.8486 118.666 34.3824C117.545 34.9174 116.283 35.1843 114.883 35.1843C113.662 35.1843 112.559 34.9812 111.579 34.5737C110.599 34.1676 109.773 33.6013 109.097 32.875C108.421 32.1474 107.906 31.2895 107.549 30.2949C107.192 29.3031 107.014 28.2083 107.014 27.0106C107.014 25.381 107.276 23.8541 107.798 22.4248C108.32 21.0009 109.045 19.7524 109.976 18.6824C110.904 17.6125 112.013 16.7663 113.299 16.1414C114.585 15.5194 115.992 15.2056 117.52 15.2056C118.921 15.2056 120.129 15.4738 121.148 16.0087C122.167 16.5438 122.931 17.2572 123.44 18.1487C123.483 18.1487 123.65 17.373 123.811 16.4279L125.325 7.56739ZM113.088 26.2077C113.088 27.3533 113.42 28.3087 114.082 29.0727C114.744 29.8368 115.725 30.2195 117.023 30.2195C117.788 30.2195 118.5 30.0606 119.162 29.7418C119.824 29.4229 120.398 28.9842 120.881 28.4232C121.365 27.8635 121.742 27.2139 122.01 26.476C122.277 25.7378 122.409 24.9608 122.409 24.1447C122.409 22.9743 122.053 22.0124 121.339 21.2613C120.626 20.5102 119.659 20.1352 118.437 20.1352C117.622 20.1352 116.882 20.2941 116.221 20.6117C115.559 20.9305 114.999 21.3628 114.539 21.9108C114.082 22.4587 113.724 23.1017 113.471 23.8398C113.215 24.578 113.088 25.3668 113.088 26.2077Z" fill="white"/>
<path d="M138.594 26.8572C137.634 26.8572 136.831 26.9549 136.811 27.0746C136.811 27.0746 136.811 27.0746 136.811 27.2009C136.811 27.7358 136.931 28.2149 137.174 28.634C137.415 29.0543 137.733 29.411 138.128 29.7041C138.523 29.9968 138.969 30.2195 139.465 30.3718C139.963 30.5255 140.477 30.6009 141.013 30.6009C141.98 30.6009 142.833 30.4239 143.572 30.0672C144.31 29.7094 144.973 29.2251 145.558 28.6133L148.042 30.5567C148.797 31.1488 148.823 32.1461 148.097 32.7734C148.097 32.7734 146.831 33.8668 145.329 34.4396C143.826 35.0136 142.209 35.2999 140.477 35.2999C139.153 35.2999 137.924 35.1151 136.791 34.7454C135.658 34.3769 134.671 33.829 133.83 33.1027C132.989 32.3775 132.328 31.4795 131.844 30.4094C131.361 29.3408 131.119 28.1185 131.119 26.7439C131.119 25.1129 131.405 23.5912 131.978 22.1776C132.55 20.7653 133.339 19.535 134.347 18.4911C135.352 17.4484 136.556 16.6271 137.956 16.0271C139.357 15.4296 140.897 15.1302 142.579 15.1302C143.826 15.1302 144.966 15.3085 145.997 15.6652C147.029 16.0219 147.913 16.536 148.652 17.2117C149.39 17.8871 149.963 18.7216 150.372 19.7135C150.778 20.7067 150.982 21.8535 150.982 23.1526C150.982 23.6109 150.938 24.1888 150.848 24.889C150.76 25.5906 150.64 26.2467 150.487 26.8572H138.594ZM143.775 23.1137C144.736 23.1137 145.538 22.9992 145.559 22.8585C145.559 22.8585 145.559 22.8585 145.559 22.7323C145.559 22.6047 145.559 22.4771 145.559 22.3496C145.559 21.5099 145.259 20.8083 144.662 20.2499C144.062 19.6902 143.203 19.4076 142.082 19.4076C141.394 19.4076 140.777 19.5287 140.229 19.7708C139.682 20.0141 139.204 20.3124 138.798 20.6689C138.39 21.0256 138.058 21.4214 137.804 21.8535C137.549 22.2869 137.371 22.7063 137.269 23.1135L143.775 23.1137Z" fill="white"/>
<path d="M153.951 34.7273C152.99 34.7273 152.34 33.9542 152.507 33.0079L156.983 7.5664C157.149 6.62128 158.072 5.84668 159.031 5.84668H161.769C162.728 5.84668 163.375 6.62128 163.208 7.5664L158.697 33.0092C158.531 33.9543 157.608 34.7275 156.649 34.7275H153.951V34.7273Z" fill="white"/>
<path d="M164.302 34.7274C163.342 34.7274 162.693 33.953 162.858 33.008L165.581 17.4228C165.745 16.4764 166.666 15.7032 167.626 15.7032H170.287C171.246 15.7032 171.893 16.4765 171.724 17.4202L168.938 33.0093C168.769 33.9544 167.846 34.7276 166.887 34.7276H164.302V34.7274ZM173.33 9.32484C173.33 9.83382 173.239 10.3037 173.062 10.7371C172.885 11.1707 172.635 11.5586 172.319 11.9008C171.999 12.2458 171.624 12.5126 171.19 12.7039C170.757 12.8953 170.287 12.9917 169.777 12.9917C168.809 12.9917 168.013 12.7039 167.389 12.1313C166.766 11.5586 166.453 10.8258 166.453 9.93538C166.453 8.89143 166.803 8.01799 167.505 7.31896C168.204 6.61734 169.063 6.26854 170.084 6.26854C171.025 6.26854 171.802 6.56016 172.414 7.14715C173.026 7.73169 173.33 8.45787 173.33 9.32484Z" fill="white"/>
<path d="M184.492 33.2227C184.005 34.0506 182.82 34.7273 181.86 34.7273H178.703C177.744 34.7273 176.816 33.9555 176.64 33.0118L173.761 17.4188C173.588 16.475 174.23 15.7031 175.189 15.7031H178.154C179.115 15.7031 179.999 16.4816 180.117 17.4345L181.25 26.463C181.368 27.4159 181.492 28.1942 181.523 28.1942C181.555 28.1942 181.947 27.5004 182.396 26.6518L187.374 17.2459C187.822 16.3971 188.975 15.7033 189.934 15.7033H193.092C194.052 15.7033 194.437 16.3803 193.949 17.2055L184.492 33.2227Z" fill="white"/>
<path d="M200.858 26.8572C199.899 26.8572 199.096 26.9549 199.076 27.0746C199.076 27.0746 199.076 27.0746 199.076 27.2009C199.076 27.7358 199.196 28.2149 199.438 28.634C199.681 29.0543 199.998 29.411 200.394 29.7041C200.788 29.9968 201.235 30.2195 201.73 30.3718C202.228 30.5255 202.743 30.6009 203.278 30.6009C204.245 30.6009 205.099 30.4239 205.836 30.0672C206.575 29.7094 207.237 29.2251 207.824 28.6133L210.307 30.5567C211.062 31.1488 211.088 32.1461 210.361 32.7734C210.361 32.7734 209.097 33.8668 207.594 34.4396C206.091 35.0136 204.476 35.2999 202.743 35.2999C201.419 35.2999 200.189 35.1151 199.057 34.7454C197.923 34.3769 196.936 33.829 196.095 33.1027C195.256 32.3775 194.593 31.4795 194.11 30.4094C193.626 29.3408 193.384 28.1185 193.384 26.7439C193.384 25.1129 193.67 23.5912 194.243 22.1776C194.816 20.7653 195.606 19.535 196.612 18.4911C197.618 17.4484 198.821 16.6271 200.222 16.0271C201.622 15.4296 203.163 15.1302 204.844 15.1302C206.091 15.1302 207.231 15.3085 208.262 15.6652C209.294 16.0219 210.178 16.536 210.916 17.2117C211.654 17.8871 212.23 18.7216 212.637 19.7135C213.044 20.7067 213.248 21.8535 213.248 23.1526C213.248 23.6109 213.203 24.1888 213.114 24.889C213.024 25.5906 212.904 26.2467 212.75 26.8572H200.858ZM206.04 23.1137C207 23.1137 207.802 22.9992 207.824 22.8585C207.824 22.8585 207.824 22.8585 207.824 22.7323C207.824 22.6047 207.824 22.4771 207.824 22.3496C207.824 21.5099 207.524 20.8083 206.927 20.2499C206.328 19.6902 205.469 19.4076 204.347 19.4076C203.66 19.4076 203.043 19.5287 202.495 19.7708C201.948 20.0141 201.469 20.3124 201.061 20.6689C200.654 21.0256 200.323 21.4214 200.069 21.8535C199.814 22.2869 199.635 22.7063 199.535 23.1135L206.04 23.1137Z" fill="white"/>
<path d="M222.429 18.4912C222.472 18.4912 222.983 17.8677 223.565 17.1049C223.565 17.1049 223.849 16.734 224.703 16.1234C225.556 15.5116 226.58 15.2057 227.777 15.2057C228.008 15.2057 228.242 15.2188 228.486 15.2448C228.727 15.2708 228.924 15.3086 229.077 15.3582L228.397 19.068C228.225 20.0116 227.838 20.7263 227.535 20.6561C227.535 20.6561 227.535 20.6561 227.282 20.6299C227.026 20.6052 226.784 20.5922 226.555 20.5922C225.664 20.5922 224.914 20.7446 224.302 21.0504C223.691 21.3563 223.188 21.7325 222.793 22.1777C222.398 22.6242 222.105 23.1018 221.915 23.611C221.723 24.1212 221.589 24.5664 221.514 24.9477L220.096 33.0077C219.93 33.954 219.009 34.7271 218.049 34.7271H215.426C214.466 34.7271 213.821 33.954 213.99 33.0089L216.086 21.3548C216.256 20.4111 216.489 19.1381 216.604 18.5288C216.604 18.5288 216.604 18.5288 216.72 17.766C216.833 17.002 216.916 16.3146 216.967 15.7028H221.03C221.99 15.7028 222.767 15.8434 222.761 16.0139C222.761 16.0139 222.761 16.0139 222.736 16.2574C222.71 16.4995 222.678 16.7534 222.64 17.0201C222.601 17.2869 222.564 17.5551 222.525 17.822C222.489 18.0904 222.455 18.3142 222.429 18.4912Z" fill="white"/>
<path d="M240.622 36.0745C240.147 36.9103 239.36 38.268 238.87 39.0945C238.87 39.0945 238.645 39.4759 238.097 40.266C237.55 41.0548 236.95 41.7187 236.302 42.2524C235.651 42.786 234.908 43.1936 234.068 43.4746C233.227 43.7546 232.246 43.8949 231.126 43.8949C229.93 43.8949 228.886 43.7544 227.993 43.4746L228.597 40.1488C228.77 39.2051 229.432 38.5867 230.068 38.7754C230.068 38.7754 230.068 38.7754 230.705 38.7754C231.598 38.7754 232.291 38.5528 232.789 38.1064C233.285 37.6612 233.762 37.0311 234.221 36.2163L234.256 36.1564C234.74 35.3272 234.959 33.8862 234.743 32.9503L231.138 17.4029C230.921 16.4656 231.529 15.7028 232.489 15.7028H235.684C236.644 15.7028 237.548 16.4787 237.692 17.4276L239.075 26.4314C239.22 27.3803 239.357 28.1562 239.378 28.1562C239.397 28.1562 239.77 27.4558 240.203 26.5995L244.931 17.2598C245.363 16.4033 246.502 15.703 247.464 15.703H250.468C251.428 15.703 251.824 16.3852 251.351 17.2194L240.622 36.0745Z" fill="white"/>
<path d="M249.064 31.0553C250.479 31.0553 251.639 32.236 251.639 33.6496C251.639 35.0749 250.479 36.2373 249.064 36.2373C247.636 36.2373 246.463 35.0748 246.463 33.6496C246.463 32.236 247.636 31.0553 249.064 31.0553ZM249.076 35.8195C250.254 35.8195 251.211 34.8472 251.211 33.6496C251.211 32.4441 250.254 31.4822 249.076 31.4822C247.861 31.4822 246.899 32.4441 246.899 33.6496C246.899 34.8472 247.861 35.8195 249.076 35.8195ZM250.264 33.1811C250.264 33.6197 250.038 33.9023 249.662 33.9946L250.172 34.8474C250.223 34.9307 250.223 34.9971 250.078 34.9971H249.893C249.77 34.9971 249.759 34.967 249.719 34.9007L249.226 34.0337H248.413V34.9007C248.413 34.967 248.398 34.9971 248.305 34.9971H248.119C248.036 34.9971 248.011 34.967 248.011 34.9007V32.4352C248.011 32.3285 248.036 32.3025 248.156 32.3025H249.334C249.904 32.3024 250.264 32.62 250.264 33.1811ZM249.317 33.6756C249.651 33.6756 249.852 33.5012 249.852 33.1811C249.852 32.8738 249.651 32.6876 249.317 32.6876H248.413V33.6756H249.317Z" fill="white"/>
<path d="M16.7397 0.458235C7.68443 0.50047 0.380189 7.37963 0.425872 15.82C0.502441 30.0552 14.3086 42.9649 14.3086 42.9649C15.7865 44.3466 18.1442 44.2931 19.5485 42.8461C19.5485 42.8461 33.2913 28.6782 33.2205 15.666C33.1754 7.22534 25.796 0.415856 16.7397 0.458235ZM15.697 25.6774C15.697 26.0908 15.2493 26.3491 14.8914 26.1421L8.88066 22.6654C8.32988 22.3468 7.99071 21.7588 7.99071 21.1226V14.9341C7.99071 14.5646 8.3928 14.3355 8.71071 14.5238L14.9417 18.2168C15.41 18.4944 15.6972 18.9985 15.6972 19.5428L15.697 25.6774ZM16.2536 16.0888L9.56907 12.1617C9.18177 11.9341 9.18449 11.3731 9.57409 11.1495L16.2814 7.29832C16.6733 7.07335 17.1554 7.07436 17.5463 7.30133L24.1788 11.1509C24.5653 11.3752 24.568 11.9323 24.1839 12.1604L17.5741 16.086C17.1674 16.3273 16.6614 16.3284 16.2536 16.0888ZM25.6559 21.1224C25.6559 21.7587 25.3167 22.3468 24.766 22.6653L18.7551 26.1419C18.3972 26.349 17.9494 26.0907 17.9494 25.6772V19.5426C17.9494 18.9982 18.2366 18.4942 18.7049 18.2167L24.9358 14.5237C25.2537 14.3354 25.6558 14.5643 25.6558 14.934V21.1224H25.6559Z" fill="white"/>
<path d="M166.477 51.1226C166.332 51.272 166.156 51.3468 165.948 51.3468C165.74 51.3468 165.564 51.272 165.419 51.1226C165.273 50.9731 165.201 50.7946 165.201 50.587C165.201 50.3752 165.273 50.1946 165.419 50.0452C165.564 49.8957 165.74 49.821 165.948 49.821C166.156 49.821 166.332 49.8957 166.477 50.0452C166.623 50.1946 166.695 50.3752 166.695 50.587C166.695 50.7946 166.623 50.9731 166.477 51.1226ZM170.6 51.3468C169.753 51.3468 169.122 51.0582 168.707 50.4811C168.325 49.9497 168.134 49.3311 168.134 48.6253C168.134 48.3595 168.163 48.0834 168.221 47.797C168.466 46.5971 168.933 45.7065 169.622 45.1253C170.316 44.5399 171.119 44.2472 172.032 44.2472C172.9 44.2472 173.533 44.5461 173.932 45.144C173.965 45.1938 173.982 45.2519 173.982 45.3183C173.982 45.4014 173.926 45.4886 173.814 45.5799L173.421 45.9037C173.351 45.9619 173.282 45.9909 173.216 45.9909C173.12 45.9909 173.045 45.9494 172.991 45.8664C172.722 45.4512 172.335 45.2436 171.833 45.2436C171.331 45.2436 170.866 45.4387 170.438 45.829C169.936 46.2899 169.597 46.9458 169.423 47.797C169.357 48.1208 169.323 48.4135 169.323 48.6751C169.323 49.1027 169.413 49.4535 169.591 49.7276C169.861 50.1427 170.247 50.3503 170.749 50.3503C171.26 50.3503 171.733 50.1427 172.169 49.7276C172.257 49.6445 172.348 49.603 172.443 49.603C172.51 49.603 172.566 49.6321 172.612 49.6902L172.942 50.1075C172.987 50.1656 173.01 50.2279 173.01 50.2943C173.01 50.3773 172.964 50.4604 172.873 50.5434C172.25 51.079 171.493 51.3468 170.6 51.3468ZM176.927 51.3468C176.031 51.3468 175.368 51.0582 174.941 50.4811C174.575 49.9912 174.393 49.3954 174.393 48.6938C174.393 48.3201 174.445 47.9194 174.548 47.4918C174.798 46.4539 175.244 45.665 175.887 45.1253C176.581 44.5399 177.347 44.2472 178.185 44.2472C179.082 44.2472 179.744 44.5357 180.172 45.1128C180.537 45.6027 180.72 46.1985 180.72 46.9002C180.72 47.2738 180.668 47.6745 180.564 48.1021C180.315 49.1401 179.869 49.9289 179.225 50.4687C178.532 51.0541 177.766 51.3468 176.927 51.3468ZM177.015 50.3503C177.509 50.3503 177.982 50.1427 178.434 49.7276C178.916 49.2875 179.246 48.6439 179.425 47.797C179.491 47.4773 179.524 47.1846 179.524 46.9189C179.524 46.4746 179.431 46.1113 179.244 45.829C178.987 45.4387 178.603 45.2436 178.092 45.2436C177.585 45.2436 177.123 45.4387 176.703 45.829C176.209 46.2816 175.871 46.9375 175.688 47.797C175.622 48.1208 175.588 48.4135 175.588 48.6751C175.588 49.1027 175.678 49.4535 175.856 49.7276C176.139 50.1427 176.525 50.3503 177.015 50.3503ZM182.078 51.2222C181.903 51.2222 181.816 51.1516 181.816 51.0105C181.816 50.9814 181.82 50.9503 181.829 50.9171L183.155 44.6769C183.197 44.4734 183.323 44.3717 183.535 44.3717H184.033C184.203 44.3717 184.289 44.4423 184.289 44.5835C184.289 44.6125 184.284 44.6437 184.276 44.6769L184.251 44.7952C184.646 44.4298 185.148 44.2472 185.758 44.2472C186.497 44.2472 187.062 44.4672 187.452 44.9073C187.51 44.9779 187.562 45.0547 187.608 45.1377C188.127 44.544 188.86 44.2472 189.806 44.2472C190.516 44.2472 191.081 44.4672 191.5 44.9073C191.828 45.2602 191.992 45.6899 191.992 46.1964C191.992 46.3833 191.969 46.5805 191.924 46.7881L191.046 50.9171C191.004 51.1205 190.88 51.2222 190.672 51.2222H190.174C189.999 51.2222 189.912 51.1516 189.912 51.0105C189.912 50.9814 189.916 50.9503 189.925 50.9171L190.803 46.7881C190.836 46.6386 190.853 46.4975 190.853 46.3646C190.848 46.0906 190.776 45.8581 190.635 45.6671C190.427 45.3848 190.07 45.2436 189.563 45.2436C188.961 45.2436 188.426 45.501 187.957 46.0158C187.957 46.2774 187.93 46.5348 187.876 46.7881L186.998 50.9171C186.956 51.1205 186.832 51.2222 186.624 51.2222H186.126C185.951 51.2222 185.864 51.1516 185.864 51.0105C185.864 50.9814 185.868 50.9503 185.877 50.9171L186.755 46.7881C186.788 46.6386 186.805 46.4975 186.805 46.3646C186.8 46.0906 186.728 45.8581 186.587 45.6671C186.379 45.3848 186.022 45.2436 185.515 45.2436C184.893 45.2436 184.394 45.4616 184.021 45.8975L182.95 50.9171C182.908 51.1205 182.784 51.2222 182.576 51.2222H182.078ZM193.954 51.1226C193.809 51.272 193.632 51.3468 193.425 51.3468C193.217 51.3468 193.041 51.272 192.895 51.1226C192.75 50.9731 192.677 50.7946 192.677 50.587C192.677 50.3752 192.75 50.1946 192.895 50.0452C193.041 49.8957 193.217 49.821 193.425 49.821C193.632 49.821 193.809 49.8957 193.954 50.0452C194.099 50.1946 194.172 50.3752 194.172 50.587C194.172 50.7946 194.099 50.9731 193.954 51.1226ZM196.806 50.7987L196.233 53.4704C196.188 53.6739 196.063 53.7756 195.86 53.7756H195.361C195.187 53.7756 195.1 53.705 195.1 53.5638C195.1 53.5348 195.104 53.5036 195.112 53.4704L196.981 44.6769C197.026 44.4734 197.153 44.3717 197.361 44.3717H197.859C198.025 44.3717 198.108 44.4444 198.108 44.5897C198.108 44.6188 198.106 44.6478 198.102 44.6769L198.083 44.7765C198.482 44.4236 198.961 44.2472 199.522 44.2472C200.256 44.2472 200.856 44.5357 201.321 45.1128C201.724 45.5986 201.925 46.2047 201.925 46.9313C201.925 47.2053 201.896 47.4939 201.838 47.797C201.635 48.9014 201.168 49.7919 200.437 50.4687C199.814 51.0541 199.09 51.3468 198.264 51.3468C197.608 51.3468 197.122 51.1641 196.806 50.7987ZM197.037 49.6964C197.228 50.1324 197.599 50.3503 198.151 50.3503C198.704 50.3503 199.194 50.1552 199.621 49.7649C200.144 49.2958 200.483 48.6398 200.636 47.797C200.694 47.4814 200.723 47.195 200.723 46.9375C200.723 46.4975 200.638 46.1404 200.468 45.8664C200.215 45.4512 199.804 45.2436 199.235 45.2436C198.675 45.2436 198.21 45.4657 197.84 45.91L197.037 49.6964ZM205.675 51.3468C204.865 51.3468 204.28 51.1267 203.918 50.6866C203.59 50.2881 203.426 49.8397 203.426 49.3414C203.426 49.1671 203.447 48.9885 203.489 48.8059L204.367 44.6769C204.408 44.4734 204.535 44.3717 204.747 44.3717H205.245C205.415 44.3717 205.5 44.4402 205.5 44.5772C205.5 44.6063 205.496 44.6395 205.488 44.6769L204.61 48.8059C204.576 48.9553 204.56 49.0944 204.56 49.2231C204.56 49.5013 204.632 49.7359 204.778 49.9268C204.989 50.2092 205.349 50.3503 205.855 50.3503C206.478 50.3503 206.976 50.1324 207.35 49.6964L208.415 44.6769C208.456 44.4734 208.583 44.3717 208.795 44.3717H209.293C209.463 44.3717 209.548 44.4402 209.548 44.5772C209.548 44.6063 209.544 44.6395 209.536 44.6769L208.147 51.2347C207.964 52.1024 207.636 52.7293 207.163 53.1154C206.615 53.5555 205.942 53.7756 205.145 53.7756H203.744C203.57 53.7756 203.482 53.705 203.482 53.5638C203.482 53.5348 203.487 53.5036 203.495 53.4704L203.576 53.0843C203.617 52.8809 203.744 52.7791 203.956 52.7791H205.232C205.664 52.7791 206.042 52.6546 206.366 52.4055C206.694 52.1522 206.903 51.8076 206.995 51.3717L207.113 50.7987C206.719 51.1641 206.239 51.3468 205.675 51.3468Z" fill="white"/>
</svg>
