<svg width="17" height="17" viewBox="0 0 17 17" fill="none" xmlns="http://www.w3.org/2000/svg">
<g id="Cajita" clip-path="url(#clip0_3_12815)">
<g id="Group 1000002394">
<rect id="Rectangle 34624104" x="3.15674" y="0.906433" width="8.4375" height="8.4375" rx="1.40625" fill="#C8C5C0" stroke="white" stroke-width="1.6875"/>
<rect id="Rectangle 34624106" x="1.18774" y="5.68762" width="12.375" height="12.375" fill="#C8C5C0"/>
<path id="Rectangle 34624103" d="M7.65625 9.06268C7.65625 8.28603 8.28585 7.65643 9.0625 7.65643H14.6875C15.4642 7.65643 16.0938 8.28603 16.0938 9.06268V14.6877C16.0938 15.4643 15.4642 16.0939 14.6875 16.0939H9.0625C8.28585 16.0939 7.65625 15.4643 7.65625 14.6877V9.06268Z" fill="#C8C5C0" stroke="white" stroke-width="1.6875"/>
<rect id="Rectangle 34624105" x="-1.06201" y="5.68762" width="12.375" height="12.375" rx="3.375" fill="#C8C5C0"/>
<rect id="Rectangle 34624102" x="0.90625" y="7.65643" width="8.4375" height="8.4375" rx="1.40625" fill="#C8C5C0" stroke="white" stroke-width="1.6875"/>
<path id="Vector 500" d="M7.375 1.18762V3.43762M5.125 7.37512V9.62512" stroke="white" stroke-width="2.25"/>
</g>
</g>
<defs>
<clipPath id="clip0_3_12815">
<rect width="16.875" height="16.875" fill="white" transform="translate(0.0625 0.062561)"/>
</clipPath>
</defs>
</svg>
