<svg width="19" height="17" viewBox="0 0 19 17" fill="none" xmlns="http://www.w3.org/2000/svg">
<path id="Vector" fill-rule="evenodd" clip-rule="evenodd" d="M6.86052 1.40298C6.41271 1.60074 6.19555 1.8857 5.92745 2.62722L5.69099 3.28165L4.14877 3.33355C2.46036 3.39044 2.18313 3.47224 1.68915 4.05971C1.54182 4.23484 1.37311 4.55188 1.31418 4.76417C1.24798 5.00273 1.20762 6.85648 1.20876 9.61411C1.21063 14.5727 1.21395 14.5993 1.91471 15.1893C2.57221 15.7428 2.51898 15.739 9.50628 15.739C15.5221 15.739 16.0263 15.7254 16.4789 15.5505C17.0652 15.3242 17.5497 14.8032 17.7027 14.2346C17.7774 13.9569 17.8049 12.2946 17.7849 9.25918L17.7548 4.70064L17.4421 4.2557C16.905 3.49124 16.6303 3.39304 14.8638 3.33355L13.3216 3.28165L13.0851 2.62722C12.6092 1.31059 12.4656 1.25619 9.48366 1.26138C7.79857 1.26439 7.08743 1.3027 6.86052 1.40298ZM8.9792 6.45442C8.03607 6.60328 7.18994 7.25355 6.69171 8.21266C6.32919 8.91069 6.34444 10.1402 6.72481 10.8664C7.29557 11.9563 8.31921 12.591 9.50628 12.591C10.6933 12.591 11.717 11.9563 12.2877 10.8664C12.5189 10.4251 12.563 10.2076 12.563 9.5103C12.563 8.81394 12.5188 8.59531 12.289 8.15661C11.6321 6.90236 10.3429 6.23932 8.9792 6.45442Z" stroke="#C8C5C0" stroke-width="1.6875"/>
</svg>
