<svg width="19" height="15" viewBox="0 0 19 15" fill="none" xmlns="http://www.w3.org/2000/svg">
<g id="cajita">
<path id="Vector" d="M12.1423 7.65088C12.1423 9.11879 10.8832 10.305 9.32505 10.305C7.76691 10.305 6.50781 9.11879 6.50781 7.65088C6.50781 6.18296 7.76691 4.99677 9.32505 4.99677C10.8832 4.99677 12.1423 6.18296 12.1423 7.65088Z" stroke="#C8C5C0" stroke-width="1.44379" stroke-linecap="round" stroke-linejoin="round"/>
<path id="Vector_2" d="M9.32544 13.7817C12.1033 13.7817 14.6924 12.2396 16.4945 9.57067C17.2027 8.52534 17.2027 6.76829 16.4945 5.72295C14.6924 3.05402 12.1033 1.51196 9.32544 1.51196C6.54755 1.51196 3.95852 3.05402 2.15643 5.72295C1.44818 6.76829 1.44818 8.52534 2.15643 9.57067C3.95852 12.2396 6.54755 13.7817 9.32544 13.7817Z" stroke="#C8C5C0" stroke-width="1.44379" stroke-linecap="round" stroke-linejoin="round"/>
</g>
</svg>
