<svg width="19" height="15" viewBox="0 0 19 15" fill="none" xmlns="http://www.w3.org/2000/svg">
<g id="cajita">
<path id="Vector" d="M12.1423 7.65075C12.1423 9.11867 10.8832 10.3049 9.32505 10.3049C7.76691 10.3049 6.50781 9.11867 6.50781 7.65075C6.50781 6.18284 7.76691 4.99664 9.32505 4.99664C10.8832 4.99664 12.1423 6.18284 12.1423 7.65075Z" stroke="white" stroke-width="1.44379" stroke-linecap="round" stroke-linejoin="round"/>
<path id="Vector_2" d="M9.32544 13.7816C12.1033 13.7816 14.6924 12.2395 16.4945 9.57061C17.2027 8.52528 17.2027 6.76823 16.4945 5.72289C14.6924 3.05395 12.1033 1.5119 9.32544 1.5119C6.54755 1.5119 3.95852 3.05395 2.15643 5.72289C1.44818 6.76823 1.44818 8.52528 2.15643 9.57061C3.95852 12.2395 6.54755 13.7816 9.32544 13.7816Z" stroke="white" stroke-width="1.44379" stroke-linecap="round" stroke-linejoin="round"/>
</g>
</svg>
