<svg width="19" height="19" viewBox="0 0 19 19" fill="none" xmlns="http://www.w3.org/2000/svg">
<g id="cajita">
<path id="Vector" d="M12.1421 9.65069C12.1421 11.1186 10.8829 12.3048 9.32481 12.3048C7.76667 12.3048 6.50757 11.1186 6.50757 9.65069C6.50757 8.18278 7.76667 6.99658 9.32481 6.99658C10.8829 6.99658 12.1421 8.18278 12.1421 9.65069Z" stroke="#FF7500" stroke-width="1.44379" stroke-linecap="round" stroke-linejoin="round"/>
<path id="Vector_2" d="M9.32495 15.7814C12.1028 15.7814 14.6919 14.2393 16.494 11.5704C17.2022 10.525 17.2022 8.76798 16.494 7.72265C14.6919 5.05371 12.1028 3.51166 9.32495 3.51166C6.54706 3.51166 3.95803 5.05371 2.15594 7.72265C1.44769 8.76798 1.44769 10.525 2.15594 11.5704C3.95803 14.2393 6.54706 15.7814 9.32495 15.7814Z" stroke="#FF7500" stroke-width="1.44379" stroke-linecap="round" stroke-linejoin="round"/>
<path id="Line 233" d="M16.5437 2.25897L2.88553 16.6963" stroke="#FF7500" stroke-width="1.15503"/>
</g>
</svg>
