<svg width="19" height="19" viewBox="0 0 19 19" fill="none" xmlns="http://www.w3.org/2000/svg">
<g id="cajita">
<path id="Vector" d="M12.1421 9.65057C12.1421 11.1185 10.8829 12.3047 9.32481 12.3047C7.76667 12.3047 6.50757 11.1185 6.50757 9.65057C6.50757 8.18265 7.76667 6.99646 9.32481 6.99646C10.8829 6.99646 12.1421 8.18265 12.1421 9.65057Z" stroke="#C8C5C0" stroke-width="1.44379" stroke-linecap="round" stroke-linejoin="round"/>
<path id="Vector_2" d="M9.32495 15.7814C12.1028 15.7814 14.6919 14.2394 16.494 11.5704C17.2022 10.5251 17.2022 8.76804 16.494 7.72271C14.6919 5.05377 12.1028 3.51172 9.32495 3.51172C6.54706 3.51172 3.95803 5.05377 2.15594 7.72271C1.44769 8.76804 1.44769 10.5251 2.15594 11.5704C3.95803 14.2394 6.54706 15.7814 9.32495 15.7814Z" stroke="#C8C5C0" stroke-width="1.44379" stroke-linecap="round" stroke-linejoin="round"/>
<path id="Line 233" d="M16.5437 2.25903L2.88553 16.6964" stroke="#C8C5C0" stroke-width="1.15503"/>
</g>
</svg>
