<svg width="109" height="144" viewBox="0 0 109 144" fill="none" xmlns="http://www.w3.org/2000/svg">
<path id="Vector" d="M54.2225 0.000651138C24.1257 0.140434 -0.151127 22.908 0.000708349 50.8428C0.255199 97.9559 46.1423 140.683 46.1423 140.683C51.0545 145.255 58.8907 145.079 63.558 140.289C63.558 140.289 109.234 93.3987 108.999 50.3331C108.849 22.3974 84.3226 -0.139608 54.2225 0.000651138ZM50.757 83.467C50.757 84.8353 49.2688 85.6902 48.0794 85.0051L28.1016 73.4986C26.271 72.444 25.1437 70.498 25.1437 68.3922V47.9107C25.1437 46.6878 26.4801 45.9294 27.5368 46.5528L48.2465 58.7752C49.803 59.6938 50.7575 61.3622 50.7575 63.1637L50.757 83.467ZM52.6067 51.7323L30.3897 38.7349C29.1024 37.9818 29.1115 36.1251 30.4064 35.3848L52.6994 22.6389C54.0019 21.8943 55.6043 21.8977 56.9035 22.6489L78.9477 35.3896C80.2321 36.1318 80.2412 37.9756 78.9644 38.7306L56.9956 51.7228C55.6439 52.5216 53.9623 52.5254 52.6067 51.7323ZM83.857 68.3918C83.857 70.4975 82.7297 72.4441 80.8991 73.4981L60.9209 85.0046C59.7315 85.6897 58.2433 84.8348 58.2433 83.4665V63.1632C58.2433 61.3612 59.1977 59.6933 60.7543 58.7748L81.4635 46.5523C82.5201 45.929 83.8566 46.6868 83.8566 47.9102V68.3918H83.857Z" fill="#414141"/>
</svg>
