<svg width="17" height="17" viewBox="0 0 17 17" fill="none" xmlns="http://www.w3.org/2000/svg">
<path d="M12.9675 14.0911C12.943 14.1121 12.9183 14.1327 12.8935 14.153C12.4388 14.5242 11.8812 14.8181 11.0658 15.1091C9.50712 15.6652 7.80029 15.6721 6.23703 15.1285C4.67396 14.5849 3.35366 13.5257 2.49875 12.1344C1.64404 10.7434 1.30644 9.10523 1.54171 7.49856C1.777 5.89178 2.57122 4.4125 3.79233 3.31392C5.01371 2.21509 6.5864 1.56552 8.24291 1.47873C9.89945 1.39193 11.5339 1.87349 12.8677 2.83909C13.9672 3.63504 14.8057 4.71875 15.2944 5.95656L15.1721 5.98725C14.6894 4.76325 13.8619 3.69515 12.7813 2.91283C11.4718 1.96485 9.8709 1.49435 8.25114 1.57922C6.63135 1.66409 5.08956 2.2993 3.88894 3.37945C2.68806 4.45984 1.90263 5.91893 1.66976 7.50923C1.43687 9.09964 1.77158 10.7195 2.61507 12.0923C3.45839 13.4647 4.75713 14.504 6.28769 15.0363C7.81806 15.5684 9.48804 15.5617 11.014 15.0172C11.7359 14.7597 12.3863 14.4898 12.9675 14.0911Z" stroke="#FF7500" stroke-width="1.6875"/>
<path d="M11.875 7.37488H15.8125V2.87488" stroke="#FF7500" stroke-width="1.6875" stroke-linecap="round"/>
</svg>
