<svg width="19" height="17" viewBox="0 0 19 17" fill="none" xmlns="http://www.w3.org/2000/svg">
<g id="Cajita">
<g id="Group 1000002393">
<path id="Vector 499" d="M1 9.14316V5.47627C1 4.86512 1.48892 3.64282 3.44459 3.64282C5.40027 3.64282 10.3709 3.64282 12.6118 3.64282C13.223 3.64282 14.5675 3.88728 15.0564 4.86512C15.5453 5.84296 16.8899 7.30971 17.501 7.92086C18.1121 8.53201 18.7233 12.81 15.6676 12.81C12.6118 12.81 6.90777 12.81 2.2223 12.81C1.81486 12.6063 1 11.9544 1 10.9766C1 9.99876 1 9.34687 1 9.14316ZM1.26923 4.60947V7.92086H4.79712V4.60947H1.26923ZM7.07143 4.58143V7.89282L9.78459 7.92086V4.60947L7.07143 4.58143ZM11.8743 4.60947L11.9286 7.89282L13.223 7.92086L16.7857 7.89282L14.898 4.60947H11.8743Z" stroke="white" stroke-width="1.21429" stroke-linejoin="round"/>
<circle id="Ellipse 1001" cx="4.66652" cy="12.8101" r="1.83745" fill="#C8C5C0" stroke="white" stroke-width="1.21429"/>
<circle id="Ellipse 1002" cx="14.4446" cy="12.8099" r="1.83745" fill="#C8C5C0" stroke="white" stroke-width="1.21429"/>
</g>
</g>
</svg>
