<svg width="19" height="17" viewBox="0 0 19 17" fill="none" xmlns="http://www.w3.org/2000/svg">
<path id="Vector" fill-rule="evenodd" clip-rule="evenodd" d="M6.86052 1.40286C6.41271 1.60062 6.19555 1.88558 5.92745 2.6271L5.69099 3.28153L4.14877 3.33343C2.46036 3.39032 2.18313 3.47212 1.68915 4.05959C1.54182 4.23472 1.37311 4.55175 1.31418 4.76405C1.24798 5.00261 1.20762 6.85636 1.20876 9.61399C1.21063 14.5726 1.21395 14.5992 1.91471 15.1891C2.57221 15.7427 2.51898 15.7388 9.50628 15.7388C15.5221 15.7388 16.0263 15.7252 16.4789 15.5504C17.0652 15.3241 17.5497 14.8031 17.7027 14.2345C17.7774 13.9568 17.8049 12.2945 17.7849 9.25906L17.7548 4.70052L17.4421 4.25558C16.905 3.49112 16.6303 3.39291 14.8638 3.33343L13.3216 3.28153L13.0851 2.6271C12.6092 1.31047 12.4656 1.25607 9.48366 1.26126C7.79857 1.26427 7.08743 1.30258 6.86052 1.40286ZM8.9792 6.4543C8.03607 6.60316 7.18994 7.25343 6.69171 8.21254C6.32919 8.91057 6.34444 10.1401 6.72481 10.8663C7.29557 11.9562 8.31921 12.5909 9.50628 12.5909C10.6933 12.5909 11.717 11.9562 12.2877 10.8663C12.5189 10.425 12.563 10.2075 12.563 9.51018C12.563 8.81381 12.5188 8.59519 12.289 8.15648C11.6321 6.90224 10.3429 6.2392 8.9792 6.4543Z" stroke="white" stroke-width="1.6875"/>
</svg>
