<svg width="19" height="17" viewBox="0 0 19 17" fill="none" xmlns="http://www.w3.org/2000/svg">
<g id="Cajita">
<g id="Group 1000002393">
<path id="Vector 499" d="M1 9.14322V5.47633C1 4.86518 1.48892 3.64288 3.44459 3.64288C5.40027 3.64288 10.3709 3.64288 12.6118 3.64288C13.223 3.64288 14.5675 3.88734 15.0564 4.86518C15.5453 5.84302 16.8899 7.30977 17.501 7.92092C18.1121 8.53207 18.7233 12.8101 15.6676 12.8101C12.6118 12.8101 6.90777 12.8101 2.2223 12.8101C1.81486 12.6064 1 11.9545 1 10.9767C1 9.99882 1 9.34693 1 9.14322ZM1.26923 4.60953V7.92092H4.79712V4.60953H1.26923ZM7.07143 4.58149V7.89288L9.78459 7.92092V4.60953L7.07143 4.58149ZM11.8743 4.60953L11.9286 7.89288L13.223 7.92092L16.7857 7.89288L14.898 4.60953H11.8743Z" stroke="#FF7500" stroke-width="1.21429" stroke-linejoin="round"/>
<circle id="Ellipse 1001" cx="4.66652" cy="12.81" r="1.83745" fill="white" stroke="#FF7500" stroke-width="1.21429"/>
<circle id="Ellipse 1002" cx="14.4446" cy="12.8099" r="1.83745" fill="white" stroke="#FF7500" stroke-width="1.21429"/>
</g>
</g>
</svg>
