<svg width="38" height="31" viewBox="0 0 38 31" fill="none" xmlns="http://www.w3.org/2000/svg">
<path id="twitter" d="M37.746 3.97626C36.3791 4.58194 34.9108 4.99119 33.3671 5.17616C34.9599 4.22311 36.1515 2.72311 36.7196 0.956056C35.2232 1.84491 33.5854 2.47057 31.8775 2.80583C30.7289 1.57952 29.2077 0.766701 27.5498 0.49357C25.892 0.220438 24.1904 0.502274 22.7092 1.29532C21.228 2.08837 20.05 3.34826 19.3582 4.87939C18.6663 6.41051 18.4994 8.12721 18.8832 9.76295C15.851 9.61071 12.8847 8.82259 10.1768 7.44976C7.46897 6.07692 5.08001 4.15005 3.16501 1.79418C2.51023 2.92369 2.13372 4.23327 2.13372 5.62797C2.13299 6.88351 2.44218 8.11983 3.03386 9.22722C3.62553 10.3346 4.4814 11.2788 5.52552 11.9761C4.31462 11.9376 3.13043 11.6104 2.07152 11.0218V11.12C2.0714 12.881 2.68052 14.5877 3.79555 15.9507C4.91057 17.3137 6.46281 18.2489 8.18887 18.5977C7.06556 18.9017 5.88785 18.9465 4.74469 18.7286C5.23168 20.2438 6.1803 21.5688 7.45775 22.5181C8.73519 23.4674 10.2775 23.9934 11.8688 24.0226C9.16751 26.1431 5.83145 27.2934 2.39728 27.2883C1.78895 27.2885 1.18113 27.253 0.576965 27.1819C4.06285 29.4232 8.12068 30.6127 12.2649 30.6081C26.2938 30.6081 33.963 18.9889 33.963 8.91173C33.963 8.58433 33.9548 8.25367 33.94 7.92627C35.4318 6.84747 36.7195 5.51157 37.7427 3.98118L37.746 3.97626Z" fill="white"/>
</svg>
