<svg width="252" height="59" viewBox="0 0 252 59" fill="none" xmlns="http://www.w3.org/2000/svg">
<path d="M47.545 29.4025C48.2557 28.7569 48.9977 28.8662 49.9636 29.4832C49.9636 29.4832 49.9636 29.4832 50.7654 29.8516C51.5672 30.2213 52.3885 30.4049 53.2295 30.4049C54.0443 30.4049 54.6991 30.2539 55.1963 29.9467C55.6937 29.6421 55.9422 29.2216 55.9422 28.6866C55.9422 28.1764 55.7119 27.7833 55.2536 27.502C54.7955 27.2222 54.1199 26.9424 53.2295 26.6612C52.3378 26.4074 51.5542 26.1209 50.88 25.8021C50.2044 25.4845 49.6381 25.1136 49.18 24.6943C48.7217 24.2739 48.3781 23.7897 48.1489 23.2429C47.9186 22.6936 47.8053 22.052 47.8053 21.3139C47.8053 20.2686 48.0396 19.3405 48.5121 18.5243C48.982 17.7095 49.6069 17.0157 50.3839 16.4429C51.1597 15.8714 52.0709 15.438 53.1149 15.1438C54.1588 14.8522 55.2536 14.7052 56.4004 14.7052C57.8765 14.7052 59.2589 14.9525 60.5449 15.4485C61.8311 15.9457 62.8568 16.6773 63.6196 17.6457L61.0969 19.7688C60.3626 20.3884 59.7014 20.4157 58.9139 19.9641C58.9139 19.9641 58.9139 19.9641 58.2902 19.6321C57.6668 19.3015 56.9209 19.1362 56.0554 19.1362C55.3928 19.1362 54.7888 19.265 54.242 19.5176C53.6941 19.7727 53.4193 20.2048 53.4193 20.818C53.4193 21.2501 53.6237 21.5873 54.0311 21.8308C54.4385 22.0728 55.0633 22.3071 55.903 22.5363C57.6863 23.0192 59.0934 23.6882 60.1243 24.542C61.1552 25.396 61.6719 26.6364 61.6719 28.2662C61.6719 29.4117 61.4234 30.4114 60.9262 31.264C60.4302 32.1179 59.7807 32.8182 58.9776 33.3663C58.1758 33.9129 57.2594 34.3204 56.2272 34.5885C55.1962 34.8551 54.1457 34.9882 53.0771 34.9882C51.3186 34.9882 49.7539 34.6952 48.3779 34.1095C47.0021 33.5237 45.8826 32.7231 45.0156 31.704L47.545 29.4025Z" fill="white"/>
<path d="M73.4369 34.837C72.0611 34.837 70.7814 34.6457 69.5982 34.263C68.4138 33.8816 67.3945 33.3283 66.5419 32.602C65.6879 31.8757 65.0137 30.9971 64.5178 29.9662C64.0206 28.934 63.7732 27.7688 63.7732 26.471C63.7732 24.8921 64.0401 23.3886 64.5751 21.962C65.1101 20.5367 65.8794 19.2883 66.8855 18.2183C67.8904 17.1495 69.1075 16.2958 70.5342 15.6592C71.9595 15.0227 73.5762 14.7051 75.3842 14.7051C76.7861 14.7051 78.0852 14.895 79.2816 15.2777C80.4791 15.6592 81.51 16.2123 82.3757 16.9387C83.2413 17.6651 83.9233 18.5436 84.4193 19.5761C84.9165 20.6069 85.1639 21.7706 85.1639 23.0696C85.1639 24.6747 84.897 26.191 84.362 27.6165C83.827 29.0419 83.0498 30.2901 82.032 31.3602C81.0128 32.4289 79.7839 33.2763 78.3455 33.8998C76.9059 34.5233 75.2711 34.837 73.4369 34.837ZM79.1293 23.7194C79.1293 22.5739 78.7778 21.6184 78.0776 20.8556C77.3784 20.0916 76.3905 19.7101 75.1187 19.7101C74.3026 19.7101 73.5632 19.8741 72.9019 20.2047C72.2395 20.5367 71.6797 20.9817 71.2214 21.5416C70.762 22.1038 70.4066 22.7522 70.1514 23.4916C69.8963 24.2297 69.7699 25.0067 69.7699 25.8215C69.7699 26.9671 70.1135 27.9159 70.8009 28.6671C71.4882 29.4181 72.4683 29.7944 73.7427 29.7944C74.5576 29.7944 75.2944 29.6355 75.9582 29.3167C76.6208 28.9978 77.187 28.5591 77.6582 27.9981C78.1281 27.4384 78.4913 26.7888 78.7464 26.0508C79.0017 25.3126 79.1293 24.5355 79.1293 23.7194Z" fill="white"/>
<path d="M97.068 35.6493C96.5929 36.485 95.8041 37.8427 95.3159 38.6692C95.3159 38.6692 95.0894 39.0506 94.5426 39.8407C93.9947 40.6296 93.3971 41.2934 92.7476 41.8271C92.0967 42.3608 91.3521 42.7683 90.5127 43.0493C89.6731 43.3293 88.6903 43.4696 87.5708 43.4696C86.3733 43.4696 85.3306 43.3292 84.4389 43.0493L85.0429 39.7235C85.2147 38.7798 85.8759 38.1614 86.5139 38.3501C86.5139 38.3501 86.5139 38.3501 87.1517 38.3501C88.042 38.3501 88.7359 38.1275 89.2332 37.6811C89.7292 37.2359 90.2069 36.6059 90.665 35.791L90.7002 35.7311C91.1856 34.9019 91.4044 33.4609 91.1884 32.525L87.5826 16.9776C87.3665 16.0404 87.9745 15.2775 88.9338 15.2775H92.1295C93.089 15.2775 93.9923 16.0534 94.1394 17.0023L95.5191 26.0061C95.6649 26.955 95.8015 27.7309 95.8225 27.7309C95.8433 27.7309 96.2155 27.0305 96.6491 26.1742L101.376 16.8345C101.81 15.978 102.949 15.2777 103.909 15.2777H106.913C107.874 15.2777 108.269 15.9599 107.795 16.7941L97.068 35.6493Z" fill="white"/>
<path d="M125.325 7.14211C125.486 6.19699 126.403 5.42124 127.363 5.42124H129.985C130.946 5.42124 131.593 6.19584 131.426 7.14096L126.916 32.5838C126.749 33.5289 125.826 34.302 124.867 34.302H122.741C121.782 34.302 121.098 33.7176 121.225 33.0029C121.351 32.2884 121.429 31.7039 121.397 31.7039C121.367 31.7039 120.814 32.287 120.171 32.9991C120.171 32.9991 119.787 33.4233 118.666 33.9571C117.545 34.4921 116.283 34.759 114.883 34.759C113.662 34.759 112.559 34.5559 111.579 34.1485C110.599 33.7423 109.773 33.176 109.097 32.4497C108.421 31.7221 107.906 30.8642 107.549 29.8696C107.192 28.8778 107.014 27.783 107.014 26.5854C107.014 24.9557 107.276 23.4288 107.798 21.9995C108.32 20.5756 109.045 19.3271 109.976 18.2571C110.904 17.1872 112.013 16.341 113.299 15.7161C114.585 15.0941 115.992 14.7803 117.52 14.7803C118.921 14.7803 120.129 15.0486 121.148 15.5834C122.167 16.1185 122.931 16.8319 123.44 17.7234C123.483 17.7234 123.65 16.9477 123.811 16.0026L125.325 7.14211ZM113.088 25.7825C113.088 26.928 113.42 27.8834 114.082 28.6474C114.744 29.4115 115.725 29.7942 117.023 29.7942C117.788 29.7942 118.5 29.6353 119.162 29.3166C119.824 28.9976 120.398 28.5589 120.881 27.9979C121.365 27.4382 121.742 26.7886 122.01 26.0507C122.277 25.3126 122.409 24.5355 122.409 23.7194C122.409 22.549 122.053 21.5871 121.339 20.8361C120.626 20.0849 119.659 19.7099 118.437 19.7099C117.622 19.7099 116.882 19.8688 116.221 20.1864C115.559 20.5052 114.999 20.9375 114.539 21.4855C114.082 22.0334 113.724 22.6765 113.471 23.4146C113.215 24.1527 113.088 24.9415 113.088 25.7825Z" fill="white"/>
<path d="M138.594 26.4319C137.634 26.4319 136.831 26.5296 136.811 26.6493C136.811 26.6493 136.811 26.6493 136.811 26.7756C136.811 27.3105 136.931 27.7896 137.174 28.2087C137.415 28.629 137.733 28.9857 138.128 29.2788C138.523 29.5716 138.969 29.7942 139.465 29.9465C139.963 30.1002 140.477 30.1756 141.013 30.1756C141.98 30.1756 142.833 29.9986 143.572 29.6419C144.31 29.2841 144.973 28.7998 145.558 28.188L148.042 30.1314C148.797 30.7235 148.823 31.7208 148.097 32.3482C148.097 32.3482 146.831 33.4415 145.329 34.0143C143.826 34.5883 142.209 34.8747 140.477 34.8747C139.153 34.8747 137.924 34.6898 136.791 34.3201C135.658 33.9517 134.671 33.4037 133.83 32.6774C132.989 31.9522 132.328 31.0542 131.844 29.9841C131.361 28.9155 131.119 27.6932 131.119 26.3186C131.119 24.6876 131.405 23.1659 131.978 21.7523C132.55 20.34 133.339 19.1097 134.347 18.0658C135.352 17.0231 136.556 16.2018 137.956 15.6018C139.357 15.0043 140.897 14.7049 142.579 14.7049C143.826 14.7049 144.966 14.8832 145.997 15.2399C147.029 15.5966 147.913 16.1108 148.652 16.7864C149.39 17.4618 149.963 18.2963 150.372 19.2882C150.778 20.2814 150.982 21.4282 150.982 22.7273C150.982 23.1856 150.938 23.7635 150.848 24.4637C150.76 25.1653 150.64 25.8214 150.487 26.4319H138.594ZM143.775 22.6884C144.736 22.6884 145.538 22.5739 145.559 22.4332C145.559 22.4332 145.559 22.4332 145.559 22.307C145.559 22.1794 145.559 22.0518 145.559 21.9243C145.559 21.0846 145.259 20.383 144.662 19.8246C144.062 19.2649 143.203 18.9823 142.082 18.9823C141.394 18.9823 140.777 19.1034 140.229 19.3455C139.682 19.5888 139.204 19.8871 138.798 20.2436C138.39 20.6003 138.058 20.9961 137.804 21.4282C137.549 21.8616 137.371 22.281 137.269 22.6882L143.775 22.6884Z" fill="white"/>
<path d="M153.951 34.302C152.99 34.302 152.34 33.5289 152.507 32.5826L156.983 7.14111C157.149 6.19599 158.072 5.42139 159.031 5.42139H161.769C162.728 5.42139 163.375 6.19599 163.208 7.14111L158.697 32.5839C158.531 33.529 157.608 34.3022 156.649 34.3022H153.951V34.302Z" fill="white"/>
<path d="M164.302 34.3021C163.342 34.3021 162.693 33.5277 162.858 32.5827L165.581 16.9975C165.745 16.0511 166.666 15.2779 167.626 15.2779H170.287C171.246 15.2779 171.893 16.0512 171.724 16.9949L168.938 32.584C168.769 33.5291 167.846 34.3023 166.887 34.3023H164.302V34.3021ZM173.33 8.89956C173.33 9.40853 173.239 9.87844 173.062 10.3118C172.885 10.7454 172.635 11.1333 172.319 11.4755C171.999 11.8205 171.624 12.0873 171.19 12.2787C170.757 12.47 170.287 12.5664 169.777 12.5664C168.809 12.5664 168.013 12.2787 167.389 11.706C166.766 11.1333 166.453 10.4005 166.453 9.5101C166.453 8.46614 166.803 7.59271 167.505 6.89367C168.204 6.19205 169.063 5.84325 170.084 5.84325C171.025 5.84325 171.802 6.13488 172.414 6.72186C173.026 7.3064 173.33 8.03259 173.33 8.89956Z" fill="white"/>
<path d="M184.492 32.7974C184.005 33.6253 182.82 34.302 181.86 34.302H178.703C177.744 34.302 176.816 33.5302 176.64 32.5865L173.761 16.9935C173.588 16.0497 174.23 15.2778 175.189 15.2778H178.154C179.115 15.2778 179.999 16.0563 180.117 17.0092L181.25 26.0377C181.368 26.9906 181.492 27.769 181.523 27.769C181.555 27.769 181.947 27.0751 182.396 26.2265L187.374 16.8206C187.822 15.9718 188.975 15.278 189.934 15.278H193.092C194.052 15.278 194.437 15.955 193.949 16.7802L184.492 32.7974Z" fill="white"/>
<path d="M200.858 26.4319C199.899 26.4319 199.096 26.5296 199.076 26.6493C199.076 26.6493 199.076 26.6493 199.076 26.7756C199.076 27.3105 199.196 27.7896 199.438 28.2087C199.681 28.629 199.998 28.9857 200.394 29.2788C200.788 29.5716 201.235 29.7942 201.73 29.9465C202.228 30.1002 202.743 30.1756 203.278 30.1756C204.245 30.1756 205.099 29.9986 205.836 29.6419C206.575 29.2841 207.237 28.7998 207.824 28.188L210.307 30.1314C211.062 30.7235 211.088 31.7208 210.361 32.3482C210.361 32.3482 209.097 33.4415 207.594 34.0143C206.091 34.5883 204.476 34.8747 202.743 34.8747C201.419 34.8747 200.189 34.6898 199.057 34.3201C197.923 33.9517 196.936 33.4037 196.095 32.6774C195.256 31.9522 194.593 31.0542 194.11 29.9841C193.626 28.9155 193.384 27.6932 193.384 26.3186C193.384 24.6876 193.67 23.1659 194.243 21.7523C194.816 20.34 195.606 19.1097 196.612 18.0658C197.618 17.0231 198.821 16.2018 200.222 15.6018C201.622 15.0043 203.163 14.7049 204.844 14.7049C206.091 14.7049 207.231 14.8832 208.262 15.2399C209.294 15.5966 210.178 16.1108 210.916 16.7864C211.654 17.4618 212.23 18.2963 212.637 19.2882C213.044 20.2814 213.248 21.4282 213.248 22.7273C213.248 23.1856 213.203 23.7635 213.114 24.4637C213.024 25.1653 212.904 25.8214 212.75 26.4319H200.858ZM206.04 22.6884C207 22.6884 207.802 22.5739 207.824 22.4332C207.824 22.4332 207.824 22.4332 207.824 22.307C207.824 22.1794 207.824 22.0518 207.824 21.9243C207.824 21.0846 207.524 20.383 206.927 19.8246C206.328 19.2649 205.469 18.9823 204.347 18.9823C203.66 18.9823 203.043 19.1034 202.495 19.3455C201.948 19.5888 201.469 19.8871 201.061 20.2436C200.654 20.6003 200.323 20.9961 200.069 21.4282C199.814 21.8616 199.635 22.281 199.535 22.6882L206.04 22.6884Z" fill="white"/>
<path d="M222.429 18.0659C222.472 18.0659 222.983 17.4424 223.565 16.6796C223.565 16.6796 223.849 16.3087 224.703 15.6981C225.556 15.0863 226.58 14.7804 227.777 14.7804C228.008 14.7804 228.242 14.7935 228.486 14.8195C228.727 14.8455 228.924 14.8833 229.077 14.9329L228.397 18.6427C228.225 19.5864 227.838 20.301 227.535 20.2308C227.535 20.2308 227.535 20.2308 227.282 20.2047C227.026 20.1799 226.784 20.1669 226.555 20.1669C225.664 20.1669 224.914 20.3193 224.302 20.6251C223.691 20.931 223.188 21.3072 222.793 21.7524C222.398 22.1989 222.105 22.6766 221.915 23.1857C221.723 23.6959 221.589 24.1411 221.514 24.5224L220.096 32.5824C219.93 33.5287 219.009 34.3019 218.049 34.3019H215.426C214.466 34.3019 213.821 33.5287 213.99 32.5836L216.086 20.9295C216.256 19.9859 216.489 18.7128 216.604 18.1035C216.604 18.1035 216.604 18.1035 216.72 17.3407C216.833 16.5767 216.916 15.8893 216.967 15.2775H221.03C221.99 15.2775 222.767 15.4181 222.761 15.5887C222.761 15.5887 222.761 15.5887 222.736 15.8322C222.71 16.0742 222.678 16.3281 222.64 16.5948C222.601 16.8616 222.564 17.1298 222.525 17.3967C222.489 17.6651 222.455 17.8889 222.429 18.0659Z" fill="white"/>
<path d="M240.622 35.6493C240.147 36.485 239.36 37.8427 238.87 38.6692C238.87 38.6692 238.645 39.0506 238.097 39.8407C237.55 40.6296 236.95 41.2934 236.302 41.8271C235.651 42.3608 234.908 42.7683 234.068 43.0493C233.227 43.3293 232.246 43.4696 231.126 43.4696C229.93 43.4696 228.886 43.3292 227.993 43.0493L228.597 39.7235C228.77 38.7798 229.432 38.1614 230.068 38.3501C230.068 38.3501 230.068 38.3501 230.705 38.3501C231.598 38.3501 232.291 38.1275 232.789 37.6811C233.285 37.2359 233.762 36.6059 234.221 35.791L234.256 35.7311C234.74 34.9019 234.959 33.4609 234.743 32.525L231.138 16.9776C230.921 16.0404 231.529 15.2775 232.489 15.2775H235.684C236.644 15.2775 237.548 16.0534 237.692 17.0023L239.075 26.0061C239.22 26.955 239.357 27.7309 239.378 27.7309C239.397 27.7309 239.77 27.0305 240.203 26.1742L244.931 16.8345C245.363 15.978 246.502 15.2777 247.464 15.2777H250.468C251.428 15.2777 251.824 15.9599 251.351 16.7941L240.622 35.6493Z" fill="white"/>
<path d="M249.064 30.63C250.479 30.63 251.639 31.8107 251.639 33.2243C251.639 34.6496 250.479 35.812 249.064 35.812C247.636 35.812 246.463 34.6495 246.463 33.2243C246.463 31.8107 247.636 30.63 249.064 30.63ZM249.076 35.3942C250.254 35.3942 251.211 34.422 251.211 33.2243C251.211 32.0189 250.254 31.0569 249.076 31.0569C247.861 31.0569 246.899 32.0189 246.899 33.2243C246.899 34.422 247.861 35.3942 249.076 35.3942ZM250.264 32.7558C250.264 33.1944 250.038 33.477 249.662 33.5693L250.172 34.4221C250.223 34.5054 250.223 34.5718 250.078 34.5718H249.893C249.77 34.5718 249.759 34.5418 249.719 34.4754L249.226 33.6084H248.413V34.4754C248.413 34.5418 248.398 34.5718 248.305 34.5718H248.119C248.036 34.5718 248.011 34.5418 248.011 34.4754V32.01C248.011 31.9032 248.036 31.8772 248.156 31.8772H249.334C249.904 31.8771 250.264 32.1947 250.264 32.7558ZM249.317 33.2503C249.651 33.2503 249.852 33.0759 249.852 32.7558C249.852 32.4485 249.651 32.2624 249.317 32.2624H248.413V33.2503H249.317Z" fill="white"/>
<path d="M16.7397 0.0329421C7.68443 0.0751772 0.380189 6.95433 0.425872 15.3948C0.502441 29.6299 14.3086 42.5396 14.3086 42.5396C15.7865 43.9213 18.1442 43.8678 19.5485 42.4208C19.5485 42.4208 33.2913 28.2529 33.2205 15.2408C33.1754 6.80005 25.796 -0.0094367 16.7397 0.0329421ZM15.697 25.2521C15.697 25.6655 15.2493 25.9238 14.8914 25.7168L8.88066 22.2402C8.32988 21.9215 7.99071 21.3335 7.99071 20.6973V14.5088C7.99071 14.1393 8.3928 13.9102 8.71071 14.0985L14.9417 17.7915C15.41 18.0691 15.6972 18.5732 15.6972 19.1175L15.697 25.2521ZM16.2536 15.6635L9.56907 11.7364C9.18177 11.5088 9.18449 10.9479 9.57409 10.7242L16.2814 6.87302C16.6733 6.64806 17.1554 6.64906 17.5463 6.87604L24.1788 10.7256C24.5653 10.9499 24.568 11.507 24.1839 11.7351L17.5741 15.6607C17.1674 15.902 16.6614 15.9032 16.2536 15.6635ZM25.6559 20.6971C25.6559 21.3334 25.3167 21.9215 24.766 22.24L18.7551 25.7167C18.3972 25.9237 17.9494 25.6654 17.9494 25.2519V19.1173C17.9494 18.5729 18.2366 18.0689 18.7049 17.7914L24.9358 14.0984C25.2537 13.9101 25.6558 14.139 25.6558 14.5087V20.6971H25.6559Z" fill="white"/>
<path d="M166.477 50.6973C166.332 50.8467 166.156 50.9215 165.948 50.9215C165.74 50.9215 165.564 50.8467 165.419 50.6973C165.273 50.5478 165.201 50.3693 165.201 50.1617C165.201 49.95 165.273 49.7694 165.419 49.6199C165.564 49.4704 165.74 49.3957 165.948 49.3957C166.156 49.3957 166.332 49.4704 166.477 49.6199C166.623 49.7694 166.695 49.95 166.695 50.1617C166.695 50.3693 166.623 50.5478 166.477 50.6973ZM170.6 50.9215C169.753 50.9215 169.122 50.6329 168.707 50.0558C168.325 49.5244 168.134 48.9058 168.134 48.2C168.134 47.9343 168.163 47.6582 168.221 47.3717C168.466 46.1718 168.933 45.2812 169.622 44.7C170.316 44.1146 171.119 43.8219 172.032 43.8219C172.9 43.8219 173.533 44.1208 173.932 44.7187C173.965 44.7685 173.982 44.8266 173.982 44.893C173.982 44.9761 173.926 45.0633 173.814 45.1546L173.421 45.4785C173.351 45.5366 173.282 45.5656 173.216 45.5656C173.12 45.5656 173.045 45.5241 172.991 45.4411C172.722 45.0259 172.335 44.8183 171.833 44.8183C171.331 44.8183 170.866 45.0135 170.438 45.4037C169.936 45.8646 169.597 46.5206 169.423 47.3717C169.357 47.6955 169.323 47.9882 169.323 48.2498C169.323 48.6774 169.413 49.0283 169.591 49.3023C169.861 49.7175 170.247 49.925 170.749 49.925C171.26 49.925 171.733 49.7175 172.169 49.3023C172.257 49.2192 172.348 49.1777 172.443 49.1777C172.51 49.1777 172.566 49.2068 172.612 49.2649L172.942 49.6822C172.987 49.7403 173.01 49.8026 173.01 49.869C173.01 49.952 172.964 50.0351 172.873 50.1181C172.25 50.6537 171.493 50.9215 170.6 50.9215ZM176.927 50.9215C176.031 50.9215 175.368 50.6329 174.941 50.0558C174.575 49.5659 174.393 48.9701 174.393 48.2685C174.393 47.8948 174.445 47.4942 174.548 47.0665C174.798 46.0286 175.244 45.2397 175.887 44.7C176.581 44.1146 177.347 43.8219 178.185 43.8219C179.082 43.8219 179.744 44.1104 180.172 44.6875C180.537 45.1774 180.72 45.7732 180.72 46.4749C180.72 46.8486 180.668 47.2492 180.564 47.6768C180.315 48.7148 179.869 49.5036 179.225 50.0434C178.532 50.6288 177.766 50.9215 176.927 50.9215ZM177.015 49.925C177.509 49.925 177.982 49.7175 178.434 49.3023C178.916 48.8622 179.246 48.2186 179.425 47.3717C179.491 47.052 179.524 46.7593 179.524 46.4936C179.524 46.0493 179.431 45.686 179.244 45.4037C178.987 45.0135 178.603 44.8183 178.092 44.8183C177.585 44.8183 177.123 45.0135 176.703 45.4037C176.209 45.8563 175.871 46.5123 175.688 47.3717C175.622 47.6955 175.588 47.9882 175.588 48.2498C175.588 48.6774 175.678 49.0283 175.856 49.3023C176.139 49.7175 176.525 49.925 177.015 49.925ZM182.078 50.7969C181.903 50.7969 181.816 50.7263 181.816 50.5852C181.816 50.5561 181.82 50.525 181.829 50.4918L183.155 44.2516C183.197 44.0482 183.323 43.9464 183.535 43.9464H184.033C184.203 43.9464 184.289 44.017 184.289 44.1582C184.289 44.1872 184.284 44.2184 184.276 44.2516L184.251 44.3699C184.646 44.0046 185.148 43.8219 185.758 43.8219C186.497 43.8219 187.062 44.0419 187.452 44.482C187.51 44.5526 187.562 44.6294 187.608 44.7124C188.127 44.1187 188.86 43.8219 189.806 43.8219C190.516 43.8219 191.081 44.0419 191.5 44.482C191.828 44.8349 191.992 45.2646 191.992 45.7712C191.992 45.958 191.969 46.1552 191.924 46.3628L191.046 50.4918C191.004 50.6952 190.88 50.7969 190.672 50.7969H190.174C189.999 50.7969 189.912 50.7263 189.912 50.5852C189.912 50.5561 189.916 50.525 189.925 50.4918L190.803 46.3628C190.836 46.2133 190.853 46.0722 190.853 45.9393C190.848 45.6653 190.776 45.4328 190.635 45.2418C190.427 44.9595 190.07 44.8183 189.563 44.8183C188.961 44.8183 188.426 45.0757 187.957 45.5906C187.957 45.8521 187.93 46.1095 187.876 46.3628L186.998 50.4918C186.956 50.6952 186.832 50.7969 186.624 50.7969H186.126C185.951 50.7969 185.864 50.7263 185.864 50.5852C185.864 50.5561 185.868 50.525 185.877 50.4918L186.755 46.3628C186.788 46.2133 186.805 46.0722 186.805 45.9393C186.8 45.6653 186.728 45.4328 186.587 45.2418C186.379 44.9595 186.022 44.8183 185.515 44.8183C184.893 44.8183 184.394 45.0363 184.021 45.4722L182.95 50.4918C182.908 50.6952 182.784 50.7969 182.576 50.7969H182.078ZM193.954 50.6973C193.809 50.8467 193.632 50.9215 193.425 50.9215C193.217 50.9215 193.041 50.8467 192.895 50.6973C192.75 50.5478 192.677 50.3693 192.677 50.1617C192.677 49.95 192.75 49.7694 192.895 49.6199C193.041 49.4704 193.217 49.3957 193.425 49.3957C193.632 49.3957 193.809 49.4704 193.954 49.6199C194.099 49.7694 194.172 49.95 194.172 50.1617C194.172 50.3693 194.099 50.5478 193.954 50.6973ZM196.806 50.3734L196.233 53.0451C196.188 53.2486 196.063 53.3503 195.86 53.3503H195.361C195.187 53.3503 195.1 53.2797 195.1 53.1385C195.1 53.1095 195.104 53.0783 195.112 53.0451L196.981 44.2516C197.026 44.0482 197.153 43.9464 197.361 43.9464H197.859C198.025 43.9464 198.108 44.0191 198.108 44.1644C198.108 44.1935 198.106 44.2225 198.102 44.2516L198.083 44.3512C198.482 43.9983 198.961 43.8219 199.522 43.8219C200.256 43.8219 200.856 44.1104 201.321 44.6875C201.724 45.1733 201.925 45.7795 201.925 46.506C201.925 46.78 201.896 47.0686 201.838 47.3717C201.635 48.4761 201.168 49.3666 200.437 50.0434C199.814 50.6288 199.09 50.9215 198.264 50.9215C197.608 50.9215 197.122 50.7388 196.806 50.3734ZM197.037 49.2711C197.228 49.7071 197.599 49.925 198.151 49.925C198.704 49.925 199.194 49.7299 199.621 49.3396C200.144 48.8705 200.483 48.2145 200.636 47.3717C200.694 47.0561 200.723 46.7697 200.723 46.5123C200.723 46.0722 200.638 45.7151 200.468 45.4411C200.215 45.0259 199.804 44.8183 199.235 44.8183C198.675 44.8183 198.21 45.0404 197.84 45.4847L197.037 49.2711ZM205.463 50.9215C204.599 50.9215 203.968 50.6329 203.57 50.0558C203.188 49.5036 202.997 48.885 202.997 48.2C202.997 47.9343 203.026 47.6582 203.084 47.3717C203.32 46.176 203.788 45.2854 204.485 44.7C205.178 44.1146 205.982 43.8219 206.895 43.8219C207.742 43.8219 208.352 44.0606 208.726 44.5381C208.959 44.837 209.075 45.1837 209.075 45.5781C209.075 45.6819 209.069 45.7795 209.056 45.8708C208.977 46.4562 208.703 46.9212 208.234 47.2658C207.906 47.5066 207.306 47.7536 206.434 48.0069L204.211 48.6546C204.253 48.9037 204.333 49.1196 204.454 49.3023C204.724 49.7175 205.11 49.925 205.612 49.925C206.123 49.925 206.596 49.7175 207.032 49.3023C207.119 49.2192 207.211 49.1777 207.306 49.1777C207.373 49.1777 207.429 49.2068 207.474 49.2649L207.804 49.6822C207.85 49.7403 207.873 49.8026 207.873 49.869C207.873 49.952 207.827 50.0351 207.736 50.1181C207.113 50.6537 206.355 50.9215 205.463 50.9215ZM204.23 47.6644L206.397 47.0852C206.758 46.9897 207.082 46.8527 207.368 46.6742C207.692 46.4707 207.887 46.2154 207.954 45.9082C207.97 45.821 207.979 45.74 207.979 45.6653C207.979 45.5117 207.943 45.3788 207.873 45.2667C207.678 44.9678 207.323 44.8183 206.808 44.8183C206.231 44.8183 205.729 45.0135 205.301 45.4037C204.807 45.8563 204.468 46.5123 204.286 47.3717C204.265 47.4713 204.246 47.5689 204.23 47.6644Z" fill="white"/>
</svg>
