<svg width="73" height="66" viewBox="0 0 73 66" fill="none" xmlns="http://www.w3.org/2000/svg">
<path d="M72.9652 0.0837402H0V41.8507H72.9652V0.0837402Z" fill="white"/>
<path d="M0.0523682 32.562C0.155808 32.5679 0.259247 32.5791 0.362915 32.5791C24.4352 32.5798 48.5074 32.5798 72.5794 32.5791C72.6828 32.5791 72.7865 32.5679 72.89 32.562V37.1603C72.7763 37.1607 72.6623 37.1614 72.5487 37.1614C48.4969 37.1614 24.4454 37.1614 0.393673 37.1614C0.279981 37.1614 0.16606 37.1605 0.0523682 37.1603C0.0523682 35.6276 0.0523682 34.0947 0.0523682 32.562Z" fill="#1F4294"/>
<path d="M72.8898 27.9146C72.7862 27.9094 72.6825 27.8994 72.5788 27.8994C48.5068 27.8987 24.435 27.8987 0.363004 27.8994C0.259337 27.8994 0.155669 27.9094 0.052002 27.9146C0.052002 26.3819 0.052002 24.849 0.052002 23.3163C0.194174 23.315 0.336347 23.3123 0.478519 23.3123C24.4733 23.3123 48.4683 23.3123 72.4631 23.3123C72.6052 23.3123 72.7474 23.315 72.8896 23.3163V27.9146H72.8898Z" fill="#1F4294"/>
<path d="M72.8895 18.6205C72.7253 18.6168 72.5612 18.6098 72.3969 18.6098C56.1841 18.6093 39.9709 18.6093 23.758 18.6093H23.3049C23.2256 18.4266 23.2058 14.3583 23.2839 14.0329H23.7273C39.9507 14.0329 56.1738 14.0329 72.3972 14.0325C72.5615 14.0325 72.7255 14.0256 72.8898 14.022V18.6203L72.8895 18.6205Z" fill="#1F4294"/>
<path d="M72.8898 9.32605C72.7768 9.32651 72.6636 9.32742 72.5506 9.32742C56.2864 9.32742 40.0223 9.32742 23.7581 9.32697C23.597 9.32697 23.4359 9.31832 23.2589 9.3133V4.76561C23.3555 4.75809 23.4346 4.7492 23.5141 4.74646C23.6064 4.74327 23.6991 4.74578 23.7916 4.74578C40.0043 4.74578 56.2172 4.74579 72.4298 4.7451C72.5832 4.7451 72.7365 4.73393 72.8898 4.72778V9.32605Z" fill="#1F4294"/>
<path d="M17.8201 5.55353C16.9924 6.74924 16.1649 7.94516 15.3371 9.14087C15.3401 9.14679 15.3431 9.15272 15.3458 9.15865C15.4709 9.14634 15.5962 9.13722 15.7208 9.1215C16.2907 9.04882 16.8099 8.84035 17.3004 8.54644C17.4816 8.43798 17.6746 8.34798 17.8675 8.2614C18.1286 8.14429 18.402 8.12448 18.6823 8.18576C19.0243 8.2605 19.338 8.40221 19.6376 8.58516C19.5595 8.58106 19.4816 8.57697 19.4034 8.57309C19.1826 8.56216 18.9634 8.57241 18.7465 8.61798C18.4376 8.68269 18.2063 8.86313 18.0163 9.10624C17.8564 9.31084 17.7026 9.52091 17.5324 9.7164C17.189 10.1108 16.7666 10.4031 16.3004 10.6341C16.1553 10.7061 16.0063 10.7706 15.8416 10.8467C17.3585 11.1226 18.8605 11.396 20.3624 11.6692C20.3628 11.6735 20.3633 11.6779 20.3638 11.6822C18.929 11.9433 17.4941 12.2044 16.0594 12.4655L16.0466 12.4831C16.0667 12.4976 16.0881 12.5109 16.1066 12.5273C16.5693 12.9308 17.0906 13.2233 17.6875 13.3805C17.9398 13.4471 18.1888 13.5288 18.4346 13.6166C18.7625 13.7334 18.9992 13.9599 19.1678 14.2623C19.3075 14.5131 19.4102 14.7781 19.4868 15.054C19.49 15.0654 19.4918 15.0773 19.4936 15.0889C19.4941 15.0921 19.4916 15.0955 19.4879 15.1055C19.4251 15.0362 19.3649 14.9688 19.3032 14.9029C19.1439 14.7332 18.9726 14.5776 18.7677 14.4628C18.57 14.3518 18.3565 14.3053 18.1323 14.3245C17.9104 14.3434 17.6894 14.3741 17.4681 14.4017C16.9616 14.4646 16.4618 14.4263 15.9724 14.2857C15.7368 14.2181 15.5078 14.1276 15.2761 14.0474C15.2601 14.0419 15.244 14.0365 15.22 14.0403C16.087 15.2928 16.9539 16.5452 17.8208 17.7974C17.817 17.8015 17.8129 17.8056 17.809 17.8097C16.6128 16.982 15.4169 16.154 14.2041 15.3147C14.2127 15.4227 14.218 15.5124 14.2271 15.6017C14.2902 16.2124 14.5023 16.7696 14.8188 17.2932C14.932 17.4805 15.0248 17.6815 15.112 17.8829C15.2421 18.1829 15.2328 18.4928 15.1448 18.8034C15.0628 19.0929 14.9393 19.3643 14.7776 19.6231C14.781 19.5557 14.7842 19.4885 14.788 19.421C14.8001 19.2085 14.7921 18.9968 14.7552 18.7867C14.6987 18.4634 14.5238 18.2146 14.2695 18.0157C14.079 17.8669 13.8844 17.7229 13.6992 17.5678C13.3392 17.2661 13.0567 16.8993 12.8343 16.4878C12.7291 16.293 12.6411 16.0886 12.5456 15.8886C12.539 15.8745 12.5331 15.8601 12.519 15.828C12.5019 15.9155 12.4871 15.9854 12.4743 16.0558C12.3479 16.7496 12.2217 17.4434 12.0957 18.1374C12.0305 18.496 11.966 18.8548 11.8999 19.2132C11.8956 19.2362 11.8794 19.2572 11.8649 19.2873C11.866 19.2939 11.8749 19.3153 11.8719 19.3351C11.8548 19.4509 11.8364 19.5664 11.8159 19.6814C11.776 19.9054 11.7343 20.1292 11.6817 20.354C11.4201 18.9193 11.1588 17.4846 10.8952 16.0383C10.8767 16.0554 10.8626 16.0668 10.851 16.08C10.47 16.5099 10.1816 16.9923 10.0203 17.547C9.94393 17.8095 9.86715 18.0718 9.78399 18.3322C9.65138 18.7475 9.37388 19.0387 8.98267 19.2178C8.77283 19.3139 8.55183 19.3864 8.33561 19.4686C8.31396 19.4768 8.29004 19.4796 8.25996 19.4748C8.28753 19.4495 8.31647 19.4256 8.34221 19.3987C8.48758 19.2474 8.64069 19.103 8.77488 18.9423C9.01298 18.6573 9.07449 18.3217 9.02824 17.959C8.98769 17.6427 8.93141 17.3281 8.93141 17.0073C8.93141 16.4994 9.03553 16.0119 9.20869 15.5373C9.24264 15.4443 9.28069 15.3527 9.31646 15.2604C9.32193 15.2465 9.32535 15.232 9.33469 15.2017C8.06926 16.0775 6.81751 16.944 5.56552 17.8104C5.56119 17.8063 5.55687 17.8024 5.55254 17.7983C6.38096 16.6026 7.20916 15.4067 8.04944 14.1939C7.94554 14.2012 7.85828 14.2042 7.77193 14.214C7.39007 14.2573 7.01709 14.3411 6.66599 14.4994C6.46413 14.5906 6.27297 14.7045 6.07543 14.8057C5.87994 14.9057 5.68651 15.0109 5.48555 15.0984C5.17774 15.2324 4.86081 15.221 4.54252 15.1287C4.26091 15.0469 3.99753 14.9248 3.74348 14.7806C3.74098 14.7792 3.74052 14.7742 3.73733 14.7662C3.81571 14.7701 3.89226 14.7738 3.96859 14.7776C4.19324 14.7888 4.4163 14.7779 4.63707 14.7309C4.97154 14.6596 5.20599 14.4491 5.4049 14.1864C5.59856 13.9305 5.78653 13.6697 6.01984 13.4461C6.33061 13.1488 6.68194 12.9107 7.06676 12.7209C7.20347 12.6535 7.34427 12.5945 7.48303 12.5314C7.49465 12.5261 7.50536 12.5191 7.52996 12.5054C6.01369 12.2295 4.51222 11.9563 3.01098 11.6833C3.01029 11.6792 3.00961 11.6749 3.00916 11.6706C4.44478 11.4095 5.88017 11.1481 7.33379 10.8838C7.26544 10.8244 7.20802 10.7724 7.14833 10.723C6.68012 10.3368 6.14857 10.0793 5.55914 9.93489C5.29371 9.86996 5.03215 9.78976 4.78608 9.66627C4.53181 9.53891 4.35182 9.3391 4.21238 9.0969C4.06588 8.84286 3.96426 8.57081 3.88543 8.28943C3.88224 8.27826 3.88178 8.26642 3.877 8.23544C3.90206 8.26209 3.91596 8.27599 3.92895 8.2908C4.1094 8.49722 4.29896 8.69362 4.53158 8.84376C4.74735 8.98275 4.98362 9.04837 5.23789 9.02673C5.49831 9.0044 5.75714 8.96498 6.0171 8.93855C6.58078 8.88136 7.12828 8.9627 7.66257 9.14201C7.81271 9.19237 7.95944 9.25206 8.10799 9.30742C8.12007 9.31198 8.1326 9.3154 8.16268 9.3252C7.28617 8.05886 6.4197 6.8071 5.55299 5.55512C5.55664 5.55147 5.56028 5.5476 5.5637 5.54395C5.59719 5.56628 5.63091 5.58793 5.66372 5.61095C6.2716 6.03177 6.87948 6.45281 7.48713 6.87409C7.51174 6.89118 7.5491 6.90348 7.52974 6.93879C7.55639 6.94768 7.58715 6.95155 7.61039 6.96682C7.79813 7.09236 7.98473 7.21904 8.17065 7.34708C8.49054 7.5674 8.80974 7.78909 9.12917 8.0101C9.13715 8.01557 9.14558 8.02013 9.16836 8.0338C9.16267 7.94927 9.15971 7.87591 9.15241 7.803C9.11026 7.37785 9.01024 6.96705 8.83116 6.57835C8.76759 6.44074 8.69035 6.30927 8.61813 6.17553C8.48735 5.93379 8.34335 5.69889 8.24903 5.4387C8.15949 5.19149 8.14263 4.94132 8.19776 4.68409C8.27113 4.34164 8.41376 4.02836 8.59671 3.72875C8.59329 3.79482 8.59056 3.8609 8.58669 3.92697C8.57393 4.1416 8.58236 4.35508 8.61972 4.56697C8.67691 4.89028 8.85212 5.13885 9.10707 5.33685C9.27454 5.46694 9.44496 5.59317 9.60969 5.72691C10.0335 6.07095 10.3561 6.49701 10.6035 6.98071C10.6865 7.14271 10.7573 7.31108 10.8336 7.47627C10.8382 7.48629 10.8441 7.49564 10.8573 7.51979C11.1337 6.00283 11.4076 4.50113 11.6812 2.99944C11.6846 2.99898 11.6883 2.99875 11.6917 2.99829C11.9535 4.43369 12.2153 5.86886 12.4796 7.31838C12.5074 7.28853 12.5286 7.26666 12.5486 7.24388C12.9692 6.7645 13.256 6.21632 13.4158 5.59773C13.4818 5.34164 13.5705 5.09009 13.6664 4.84334C13.781 4.54806 14.0063 4.34688 14.2775 4.19332C14.529 4.05069 14.7976 3.9509 15.0749 3.87275C15.0861 3.86956 15.0981 3.86979 15.1262 3.8666C15.0476 3.93814 14.9787 3.99897 14.912 4.06185C14.74 4.22453 14.5814 4.39837 14.4675 4.60867C14.3606 4.80598 14.3153 5.01765 14.3365 5.23979C14.3608 5.49816 14.3989 5.75516 14.4249 6.0133C14.4827 6.58746 14.3952 7.14385 14.2098 7.6868C14.1624 7.82532 14.1068 7.96088 14.0551 8.09804C14.0505 8.11012 14.048 8.12311 14.0405 8.15045C15.3046 7.27555 16.5565 6.40884 17.8085 5.54236C17.8124 5.54646 17.8163 5.55034 17.8201 5.55444V5.55353ZM11.6869 14.3611C13.166 14.3614 14.3754 13.1572 14.3729 11.6786C14.3702 10.1787 13.1772 8.99346 11.6869 8.98913C10.2073 8.98503 9.00204 10.1928 9.0009 11.6717C8.99976 13.154 10.205 14.3607 11.6869 14.3611ZM14.3684 12.6243C15.9573 12.3352 17.5408 12.0472 19.1245 11.7592C18.1553 11.7501 17.1874 11.7501 16.2196 11.7501C15.6762 11.7501 15.1328 11.7503 14.5894 11.7496C14.55 11.7496 14.5258 11.7515 14.5203 11.8039C14.5019 11.975 14.48 12.1459 14.4504 12.3151C14.4324 12.4172 14.3975 12.5163 14.3684 12.6241V12.6243ZM9.12507 12.898C9.11004 12.9171 9.10115 12.9274 9.09318 12.9385C8.83025 13.3181 8.56778 13.6981 8.30394 14.0775C8.25427 14.1488 8.19731 14.2149 8.14832 14.2864C8.08521 14.3789 8.02825 14.4757 7.96514 14.5683C7.95215 14.5874 7.90499 14.5945 7.9043 14.6088C7.89975 14.7043 7.82342 14.758 7.78036 14.8294C7.71497 14.9378 7.63112 15.0349 7.55913 15.1395C7.48166 15.2518 7.4108 15.3689 7.33334 15.4812C7.08271 15.8453 6.83027 16.208 6.5785 16.5717C6.50947 16.6715 6.44089 16.7715 6.39623 16.8364C7.44999 15.7829 8.53269 14.7006 9.61744 13.6163C9.42104 13.4083 9.25676 13.1691 9.12507 12.8982V12.898ZM11.6033 19.1121C11.6065 19.1125 11.6094 19.1128 11.6126 19.1132C11.6126 18.1652 11.6126 17.2169 11.6126 16.2689C11.6126 15.7054 11.6124 15.1422 11.6131 14.5787C11.6131 14.5357 11.6097 14.5097 11.5541 14.5081C11.2968 14.5004 11.0467 14.4511 10.8018 14.3728C10.7824 14.3666 10.7628 14.3618 10.738 14.355C11.0275 15.9476 11.3155 17.5297 11.6033 19.1121ZM11.771 4.23843C11.7682 4.23775 11.7655 4.23706 11.7628 4.23661C11.7626 4.24253 11.7621 4.24823 11.7621 4.25415C11.7621 5.30746 11.7616 6.36077 11.7616 7.41384C11.7616 7.86611 11.7619 8.31837 11.7616 8.77063C11.7616 8.80777 11.7578 8.83922 11.8136 8.84104C12.0788 8.84947 12.3369 8.89891 12.5885 8.98253C12.6021 8.98708 12.6167 8.98821 12.6356 8.99186C12.3467 7.4029 12.059 5.82079 11.7712 4.23866L11.771 4.23843ZM6.48372 6.35415C6.48099 6.3562 6.47825 6.35803 6.47552 6.36008C7.56027 7.4446 8.64501 8.52889 9.73295 9.6166C9.95304 9.40858 10.1939 9.24385 10.4661 9.11148C9.13373 8.18872 7.80884 7.27144 6.48395 6.35415H6.48372ZM4.24975 11.592C4.24975 11.5947 4.24929 11.5974 4.24906 11.6002C4.25499 11.6004 4.26091 11.6011 4.26661 11.6011C5.76602 11.6011 7.26544 11.6011 8.76486 11.6009C8.77671 11.6009 8.78878 11.5997 8.80063 11.6009C8.83959 11.6047 8.85144 11.5863 8.8528 11.5487C8.86192 11.2855 8.9109 11.0297 8.99338 10.7797C8.99839 10.7645 8.99976 10.7478 9.00386 10.7273C7.41422 11.0164 5.83187 11.3042 4.24975 11.592ZM17.004 6.47901C17.0008 6.47696 16.9976 6.47491 16.9944 6.47286C16.7985 6.66925 16.6028 6.86566 16.4069 7.06206C15.8746 7.59475 15.3426 8.12789 14.8097 8.65967C14.4675 9.0012 14.1239 9.34091 13.7805 9.68108C13.7489 9.71252 13.7489 9.74078 13.7801 9.77245C13.8227 9.81528 13.871 9.85493 13.9043 9.90437C14.0141 10.0686 14.1184 10.237 14.2246 10.4036C14.2333 10.4172 14.2417 10.4314 14.2538 10.4505C15.1736 9.12241 16.089 7.80071 17.0042 6.47901H17.004ZM16.8933 16.9982C16.8511 16.9531 16.811 16.9075 16.768 16.8644C16.2123 16.3076 15.6561 15.751 15.1 15.1944C14.6279 14.7218 14.1556 14.25 13.6846 13.7765C13.6495 13.7412 13.6274 13.7439 13.5928 13.7761C13.4012 13.9538 13.1866 14.0987 12.9528 14.2153C12.94 14.2217 12.9286 14.2308 12.9116 14.242C14.2426 15.1634 15.5677 16.0807 16.8933 16.9982ZM8.49897 4.72305C8.50056 4.74219 8.49897 4.76224 8.50466 4.78001C8.54955 4.91489 8.58281 5.05546 8.64456 5.18214C8.76941 5.43824 8.93916 5.66721 9.11118 5.89414C9.23808 6.06138 9.35815 6.23385 9.47868 6.40587C9.89836 7.00464 10.2303 7.6492 10.475 8.33819C10.5265 8.48309 10.5714 8.63028 10.6218 8.78384C10.627 8.76311 10.6311 8.75036 10.6334 8.73714C10.6869 8.44095 10.7409 8.14475 10.7931 7.84833C10.7983 7.81848 10.802 7.78362 10.7917 7.75674C10.609 7.2744 10.3734 6.82009 10.0604 6.40839C9.81634 6.08736 9.53063 5.81053 9.19365 5.58542C8.87422 5.37194 8.61517 5.10446 8.49897 4.72282V4.72305ZM14.8708 18.6254C14.8755 18.6238 14.8805 18.6224 14.8853 18.6209C14.8594 18.5258 14.8402 18.4283 14.8063 18.3363C14.6987 18.0442 14.514 17.7974 14.3317 17.5502C14.0166 17.1226 13.7031 16.694 13.4477 16.2267C13.1809 15.7387 12.9544 15.2335 12.7988 14.6983C12.786 14.6544 12.7707 14.6113 12.7521 14.5532C12.6974 14.854 12.6504 15.1392 12.5917 15.4222C12.5698 15.5277 12.5819 15.6197 12.6274 15.7134C12.6552 15.7701 12.6766 15.8303 12.7024 15.8881C12.9282 16.3946 13.2109 16.8644 13.5928 17.2709C13.7937 17.4848 14.0284 17.6557 14.2656 17.8259C14.5484 18.0287 14.7703 18.2825 14.8705 18.6256L14.8708 18.6254ZM14.4846 12.9643C14.4941 12.9807 14.4982 12.9889 14.5035 12.9962C14.6816 13.2536 14.8591 13.5113 15.0389 13.7679C15.0546 13.7904 15.0817 13.8086 15.1075 13.82C15.657 14.0625 16.2259 14.2361 16.8281 14.273C17.0626 14.2873 17.2991 14.2707 17.5344 14.2625C17.5982 14.2602 17.6629 14.2415 17.724 14.2213C17.7846 14.2012 17.8473 14.2231 17.909 14.1969C17.953 14.1782 18.0099 14.188 18.061 14.1882C18.1767 14.1887 18.2929 14.185 18.4082 14.1944C18.5563 14.2062 18.6953 14.2566 18.8322 14.3179C18.8292 14.3085 18.822 14.3051 18.8151 14.3008C18.7748 14.2755 18.7361 14.2477 18.6944 14.2249C18.4674 14.1005 18.2191 14.0435 17.9673 14.0007C17.6627 13.949 17.3567 13.905 17.0521 13.8533C16.2836 13.723 15.547 13.4915 14.8459 13.1495C14.7274 13.0916 14.6112 13.0294 14.4843 12.9645L14.4846 12.9643ZM14.5768 10.6118C14.8929 10.6695 15.1991 10.7241 15.5044 10.7822C15.5584 10.7925 15.6046 10.7829 15.6532 10.7636C16.0371 10.6102 16.4053 10.4266 16.7482 10.1946C17.1307 9.93603 17.4706 9.63163 17.7301 9.24636C17.9596 8.90551 18.2275 8.6141 18.6363 8.48765C18.6139 8.48811 18.5925 8.49061 18.5711 8.49426C18.3203 8.53504 18.1027 8.65421 17.8983 8.79547C17.5513 9.03561 17.2125 9.28783 16.8653 9.52752C16.3294 9.8973 15.7536 10.1924 15.1432 10.4186C14.9598 10.4865 14.773 10.5451 14.5768 10.6116V10.6118ZM8.77055 12.7346C8.48097 12.6817 8.17384 12.6239 7.8658 12.5708C7.82228 12.5633 7.77079 12.5687 7.72955 12.5849C7.36136 12.7287 7.00866 12.9032 6.67784 13.121C6.25474 13.3999 5.88837 13.735 5.60471 14.1595C5.38963 14.4814 5.12215 14.746 4.72343 14.8622C4.74439 14.8622 4.75213 14.8628 4.75988 14.8622C4.77355 14.8606 4.78722 14.8581 4.80089 14.8558C5.05174 14.815 5.26956 14.6965 5.47393 14.5553C5.78835 14.3379 6.09571 14.1098 6.40831 13.8895C6.84872 13.5794 7.3142 13.3117 7.81066 13.1028C8.12964 12.9686 8.45682 12.854 8.77033 12.7344L8.77055 12.7346ZM14.3276 4.52916C14.3132 4.54898 14.298 4.56812 14.2845 4.58862C14.1656 4.76862 14.0968 4.96912 14.0585 5.1785C13.9899 5.55239 13.9314 5.92809 13.8671 6.30289C13.7202 7.16071 13.4534 7.9782 13.043 8.74717C13.0218 8.78658 13.0015 8.82668 12.9808 8.86633C13.2442 8.69636 13.4989 8.52138 13.7511 8.34275C13.7876 8.317 13.8218 8.27827 13.8395 8.23794C14.0482 7.76426 14.2014 7.27417 14.2658 6.75902C14.3068 6.43116 14.3103 6.10308 14.2597 5.77522C14.2333 5.6032 14.2011 5.43118 14.1902 5.25779C14.1742 5.00603 14.218 4.76155 14.3276 4.52938V4.52916ZM10.3802 14.4858C10.3668 14.4938 10.3534 14.5006 10.3408 14.5092C10.1077 14.6703 9.87581 14.8335 9.6409 14.9916C9.58189 15.0312 9.54498 15.0802 9.51787 15.1442C9.32124 15.6077 9.17224 16.0848 9.10935 16.5858C9.06242 16.9597 9.06287 17.3329 9.13829 17.704C9.19456 17.9804 9.21325 18.2581 9.14171 18.5347C9.11687 18.6304 9.07882 18.7229 9.04556 18.82C9.05513 18.8077 9.06356 18.7972 9.0713 18.7863C9.17338 18.6441 9.24492 18.486 9.27887 18.3165C9.34927 17.9654 9.41375 17.6127 9.47002 17.2588C9.58053 16.5655 9.75141 15.8891 10.0287 15.2429C10.1378 14.9886 10.2613 14.7407 10.38 14.4855L10.3802 14.4858ZM4.5432 9.03264C4.5546 9.04199 4.5653 9.05224 4.57738 9.0609C4.76261 9.19168 4.97314 9.26299 5.19209 9.30377C5.5678 9.37349 5.94602 9.4316 6.32264 9.49608C7.18068 9.64326 7.99795 9.91211 8.76736 10.3224C8.80131 10.3404 8.83526 10.3585 8.86944 10.3767C8.86693 10.3525 8.85782 10.3361 8.84711 10.3209C8.67919 10.078 8.51196 9.83464 8.34199 9.59313C8.32285 9.56579 8.29254 9.54142 8.26201 9.52797C7.78492 9.31654 7.29096 9.16183 6.77171 9.09667C6.44385 9.05543 6.11576 9.05178 5.7879 9.10282C5.61588 9.12948 5.44363 9.16138 5.27024 9.17209C5.01871 9.18758 4.77423 9.14474 4.54343 9.0331L4.5432 9.03264Z" fill="#7B4111"/>
<path d="M11.6867 14.361C10.2049 14.3608 8.99959 13.1539 9.00073 11.6716C9.00187 10.1927 10.2071 8.98492 11.6867 8.98902C13.177 8.99313 14.37 10.1783 14.3728 11.6784C14.3755 13.1571 13.1659 14.3615 11.6867 14.361ZM9.83326 11.0298C9.83736 11.0364 9.84124 11.043 9.84534 11.0496C9.9367 10.9993 10.0281 10.9487 10.1146 10.9008V11.0963C10.0907 11.0817 10.0723 11.0706 10.0538 11.0594C10.0354 11.0482 10.0167 11.0373 9.99002 11.0214C9.99457 11.0389 9.99434 11.0437 9.99662 11.0462C10.2087 11.2717 10.4559 11.4009 10.7765 11.3305C10.8959 11.3043 11.011 11.2695 11.1021 11.1829C11.1509 11.1366 11.1454 11.1013 11.0925 11.0621C11.0609 11.0387 11.0392 11.0519 11.0142 11.0722C10.9276 11.1417 10.8344 11.1991 10.72 11.218C10.8528 11.1237 10.9326 11.0022 10.9217 10.832C10.9271 10.8293 10.9326 10.8263 10.9381 10.8236C11.024 10.8935 11.1096 10.9633 11.1987 11.0359C11.2012 11.0243 11.2037 11.017 11.2039 11.0097C11.2044 10.9958 11.2046 10.9819 11.2028 10.9683C11.1846 10.8359 11.0966 10.7605 10.9802 10.7229C10.7239 10.6399 10.466 10.6322 10.2147 10.7452C10.0668 10.8117 9.94695 10.9175 9.83349 11.0298H9.83326ZM13.2543 10.9017C13.3434 10.951 13.4329 11.0004 13.5225 11.0498C13.5268 11.0432 13.5313 11.0364 13.5357 11.0298C13.4912 10.9892 13.4468 10.9484 13.4022 10.9079C13.2053 10.7302 12.9724 10.6543 12.71 10.6643C12.6633 10.6662 12.6163 10.675 12.5703 10.6848C12.4956 10.7008 12.4167 10.7094 12.3482 10.7402C12.2058 10.8035 12.1595 10.8935 12.191 11.0229C12.2648 10.9418 12.3379 10.8648 12.4489 10.8325C12.4466 11.0113 12.5181 11.1437 12.6744 11.228C12.5503 11.2089 12.4468 11.1464 12.3495 11.0769C12.3181 11.0544 12.3019 11.0412 12.2714 11.0667C12.2415 11.0918 12.2181 11.1177 12.2563 11.1542C12.2912 11.1877 12.3211 11.2326 12.3625 11.2517C12.64 11.3793 12.9159 11.4023 13.1789 11.2136C13.2493 11.1631 13.3126 11.1032 13.3794 11.0473L13.3662 11.0298C13.3295 11.0514 13.2928 11.0731 13.255 11.0954V10.902L13.2543 10.9017ZM10.5555 12.9074C10.7018 12.9528 10.856 12.9988 11.0226 12.9828C11.4655 12.9402 11.9089 12.9404 12.352 12.9828C12.5195 12.9988 12.674 12.9532 12.8187 12.9067C12.6585 12.8568 12.4926 12.8079 12.3286 12.7532C12.1862 12.7058 12.0442 12.6885 11.8964 12.7233C11.7576 12.7561 11.6168 12.7552 11.4778 12.7233C11.3491 12.6939 11.2226 12.6974 11.0966 12.737C10.9148 12.7942 10.7328 12.8514 10.5553 12.907L10.5555 12.9074ZM13.0057 12.8887C13.0415 12.9457 13.0754 13.0004 13.1119 13.0582C13.1176 12.943 12.9706 12.7479 12.8615 12.7254C12.9039 12.7741 12.9442 12.8206 12.9886 12.8716C12.957 12.8885 12.9344 12.9004 12.9118 12.9124C12.7868 12.9796 12.6491 12.9915 12.512 13.014C12.3117 13.0473 12.1221 13.1314 11.9157 13.1435C11.6332 13.1599 11.3543 13.1537 11.08 13.0708C10.9747 13.0389 10.8649 13.0197 10.756 13.0031C10.6255 12.9833 10.5045 12.9425 10.3874 12.8696C10.4297 12.8195 10.4676 12.7746 10.5054 12.7297C10.3701 12.7978 10.2878 12.9045 10.2637 13.0532C10.2983 12.9988 10.3329 12.9446 10.3682 12.889C10.5858 12.9981 10.7975 13.1047 11.0094 13.2104C11.0518 13.2316 11.0944 13.2535 11.1386 13.2701C11.3564 13.3526 11.584 13.3604 11.8123 13.3499C11.9952 13.3415 12.1736 13.3102 12.3395 13.2241C12.5571 13.1113 12.777 13.0033 13.0055 12.8885L13.0057 12.8887ZM11.4085 10.7053C11.3785 10.6634 11.3593 10.6308 11.3345 10.6035C11.2058 10.4613 11.0529 10.3501 10.8875 10.2538C10.7462 10.1713 10.5977 10.1521 10.4407 10.1875C10.1805 10.246 9.94262 10.3558 9.72595 10.5105C9.70408 10.5263 9.69063 10.5538 9.67332 10.5759C9.6977 10.5946 9.7198 10.619 9.74714 10.6299C9.76833 10.6383 9.79795 10.6347 9.82073 10.6272C9.85422 10.616 9.8843 10.5955 9.91688 10.5812C10.3794 10.3779 10.8317 10.3278 11.2579 10.6714C11.2851 10.6933 11.319 10.7083 11.3518 10.7211C11.3637 10.7256 11.3817 10.7135 11.4081 10.7058L11.4085 10.7053ZM12.7792 10.1681C12.7483 10.1717 12.7056 10.1676 12.6708 10.1824C12.571 10.2246 12.4694 10.2661 12.3778 10.3228C12.2345 10.4114 12.1028 10.5174 12.0021 10.6554C11.9909 10.6707 11.9918 10.6946 11.9873 10.7147C12.0075 10.7142 12.0319 10.7208 12.0476 10.7119C12.0991 10.6828 12.1497 10.6511 12.1966 10.6151C12.3354 10.5083 12.4912 10.4438 12.6655 10.4328C12.779 10.4258 12.8957 10.4185 13.0071 10.4354C13.1973 10.4643 13.3785 10.5299 13.5475 10.6247C13.5956 10.6516 13.6393 10.6349 13.6801 10.6055C13.7116 10.5828 13.7145 10.5575 13.6815 10.5342C13.6232 10.4934 13.5671 10.4474 13.5042 10.4158C13.399 10.3629 13.2862 10.3244 13.1814 10.2706C13.057 10.2066 12.9251 10.1818 12.7795 10.1685L12.7792 10.1681ZM12.0877 11.8559C12.1178 11.9129 12.154 11.9678 12.1768 12.0277C12.206 12.104 12.1401 12.1815 12.0609 12.1658C12.028 12.1592 11.9984 12.1348 11.9684 12.1166C11.9517 12.1066 11.9371 12.0929 11.9134 12.0747C11.9134 12.1047 11.913 12.1202 11.9134 12.1359C11.9159 12.2034 11.8957 12.2367 11.8321 12.2556C11.7348 12.2847 11.6366 12.2836 11.5393 12.2547C11.486 12.2389 11.4566 12.2029 11.4598 12.1446C11.461 12.1248 11.4598 12.105 11.4598 12.074C11.4227 12.1034 11.3992 12.1305 11.3698 12.1426C11.3375 12.1558 11.2965 12.1662 11.2641 12.1583C11.1942 12.141 11.1705 12.0783 11.203 12.0068C11.227 11.9544 11.2586 11.9054 11.2869 11.855C11.2593 11.8534 11.2397 11.8603 11.2224 11.871C11.1372 11.9227 11.1062 12.0068 11.0859 12.0981C11.0679 12.1802 11.0162 12.2271 10.9335 12.2444C10.8326 12.2654 10.7517 12.3207 10.6893 12.4021C10.676 12.4194 10.6692 12.4413 10.6594 12.4611C10.6913 12.4577 10.7123 12.4451 10.7341 12.4337C10.9962 12.2975 11.262 12.2462 11.5402 12.3893C11.6357 12.4385 11.7344 12.4344 11.8328 12.3909C11.8923 12.3645 11.9519 12.3323 12.0148 12.3205C12.1964 12.2859 12.3737 12.3105 12.5427 12.3859C12.5981 12.4105 12.651 12.4408 12.7214 12.4768C12.705 12.4428 12.6988 12.4207 12.6856 12.4041C12.6211 12.3223 12.5407 12.2647 12.4366 12.2437C12.3596 12.2282 12.3094 12.1836 12.2898 12.1059C12.2812 12.0712 12.273 12.0364 12.26 12.0033C12.2297 11.9263 12.1748 11.8744 12.0875 11.8559H12.0877ZM11.9132 13.6452C11.7915 13.5613 11.5439 13.5647 11.471 13.6452H11.9132Z" fill="#FDD218"/>
<path d="M14.3683 12.6242C14.3974 12.5165 14.4323 12.4173 14.4503 12.3153C14.4799 12.146 14.5018 11.9749 14.5203 11.804C14.526 11.7514 14.5499 11.7495 14.5893 11.7498C15.1327 11.7505 15.6761 11.7502 16.2195 11.7502C17.1874 11.7502 18.155 11.7502 19.1245 11.7593C17.541 12.0473 15.9572 12.3355 14.3683 12.6244V12.6242Z" fill="#FDD218"/>
<path d="M9.12496 12.8979C9.25665 13.1688 9.42093 13.4081 9.61732 13.6161C8.5328 14.7004 7.45011 15.7826 6.39612 16.8361C6.44077 16.7712 6.50935 16.6712 6.57839 16.5714C6.82993 16.208 7.08237 15.845 7.33323 15.481C7.41069 15.3684 7.48155 15.2515 7.55901 15.1392C7.63101 15.0346 7.71486 14.9376 7.78025 14.8291C7.82331 14.7578 7.89964 14.704 7.90419 14.6086C7.90488 14.5944 7.95204 14.5871 7.96503 14.568C8.02837 14.4755 8.0851 14.3787 8.14821 14.2862C8.1972 14.2144 8.25416 14.1485 8.30382 14.0772C8.56744 13.6981 8.82991 13.3181 9.09306 12.9383C9.10081 12.9271 9.10992 12.9166 9.12496 12.8977V12.8979Z" fill="#FDD218"/>
<path d="M11.603 19.1121C11.3152 17.5297 11.0273 15.9474 10.7377 14.355C10.7625 14.3618 10.7823 14.3666 10.8015 14.3727C11.0462 14.4514 11.2966 14.5003 11.5538 14.5081C11.6092 14.5097 11.6128 14.5357 11.6128 14.5787C11.6119 15.1422 11.6123 15.7054 11.6123 16.2688C11.6123 17.2169 11.6123 18.1652 11.6123 19.1132C11.6092 19.1127 11.6062 19.1125 11.603 19.1121Z" fill="#FDD218"/>
<path d="M11.7709 4.23838C12.0586 5.8205 12.3464 7.40262 12.6353 8.99158C12.6164 8.98794 12.6018 8.98679 12.5881 8.98224C12.3364 8.89862 12.0782 8.84918 11.8132 8.84075C11.7574 8.83893 11.7613 8.80749 11.7613 8.77035C11.7613 8.31809 11.7613 7.86582 11.7613 7.41355C11.7613 6.36025 11.7615 5.30695 11.7617 4.25387C11.7617 4.24795 11.7622 4.24225 11.7624 4.23633C11.7652 4.23701 11.7679 4.2377 11.7706 4.23815L11.7709 4.23838Z" fill="#FDD218"/>
<path d="M6.48353 6.354C7.80842 7.27129 9.13331 8.18857 10.4657 9.11133C10.1935 9.2437 9.95285 9.40866 9.73253 9.61645C8.64459 8.52874 7.55985 7.44423 6.4751 6.35993C6.47783 6.35788 6.48057 6.35605 6.4833 6.354H6.48353Z" fill="#FDD218"/>
<path d="M4.24983 11.592C5.83218 11.3042 7.4143 11.0164 9.00395 10.7273C8.99984 10.748 8.99848 10.7644 8.99346 10.7797C8.91099 11.0296 8.862 11.2855 8.85289 11.5487C8.85152 11.5863 8.83967 11.6047 8.80071 11.6008C8.78886 11.5997 8.77702 11.6008 8.76494 11.6008C7.26552 11.6008 5.76611 11.6011 4.26669 11.6011C4.26077 11.6011 4.25484 11.6004 4.24915 11.6002C4.24915 11.5974 4.2496 11.5947 4.24983 11.592Z" fill="#FDD218"/>
<path d="M17.0039 6.47905C16.0886 7.80075 15.1732 9.12246 14.2534 10.4505C14.2415 10.4314 14.2331 10.4175 14.2242 10.4036C14.1178 10.2368 14.0137 10.0687 13.9039 9.90441C13.8708 9.85497 13.8223 9.81533 13.7797 9.77249C13.7485 9.74105 13.7485 9.71256 13.7802 9.68112C14.1235 9.34096 14.4671 9.00102 14.8093 8.65971C15.3422 8.1277 15.8742 7.59479 16.4065 7.0621C16.6024 6.86593 16.7981 6.6693 16.9941 6.4729C16.9973 6.47495 17.0005 6.477 17.0036 6.47905H17.0039Z" fill="#FDD218"/>
<path d="M16.8934 16.9982C15.568 16.0806 14.2427 15.1634 12.9116 14.242C12.9287 14.2308 12.9401 14.2217 12.9529 14.2153C13.1866 14.0987 13.401 13.9535 13.5929 13.776C13.6275 13.7439 13.6496 13.7412 13.6847 13.7765C14.1556 14.25 14.6282 14.722 15.1 15.1944C15.6562 15.751 16.2121 16.3076 16.768 16.8644C16.8109 16.9075 16.8512 16.953 16.8934 16.9982Z" fill="#FDD218"/>
<path d="M8.49902 4.72314C8.61499 5.10478 8.87428 5.37226 9.19371 5.58574C9.53068 5.81108 9.81617 6.08791 10.0604 6.40871C10.3735 6.82019 10.6091 7.27473 10.7918 7.75707C10.802 7.78395 10.7984 7.81881 10.7931 7.84866C10.741 8.14508 10.687 8.44127 10.6334 8.73746C10.6312 8.75045 10.6271 8.76321 10.6218 8.78418C10.5715 8.63061 10.5266 8.48343 10.4751 8.33852C10.2304 7.64953 9.89842 7.00497 9.47874 6.4062C9.35821 6.23418 9.23814 6.06171 9.11123 5.89448C8.93921 5.66755 8.76947 5.43857 8.64461 5.18247C8.58287 5.05579 8.5496 4.91498 8.50472 4.78033C8.4988 4.76256 8.50062 4.74251 8.49902 4.72337V4.72314Z" fill="#FDD218"/>
<path d="M14.8708 18.6254C14.7707 18.282 14.5486 18.0285 14.2659 17.8257C14.0287 17.6555 13.794 17.4844 13.593 17.2707C13.211 16.8642 12.9284 16.3946 12.7026 15.8879C12.6769 15.83 12.6555 15.7701 12.6277 15.7131C12.5819 15.6197 12.5698 15.5277 12.5919 15.422C12.6507 15.1392 12.6976 14.854 12.7523 14.553C12.771 14.6108 12.7863 14.6541 12.799 14.6981C12.9546 15.2333 13.1811 15.7384 13.4479 16.2265C13.7033 16.6938 14.0168 17.1223 14.3319 17.55C14.514 17.7972 14.699 18.0442 14.8065 18.336C14.8405 18.4281 14.8596 18.5256 14.8856 18.6206C14.8808 18.6222 14.8758 18.6236 14.871 18.6252L14.8708 18.6254Z" fill="#FDD218"/>
<path d="M14.4845 12.9641C14.6112 13.029 14.7276 13.0915 14.8461 13.1491C15.5471 13.4911 16.2838 13.7226 17.0523 13.8529C17.3569 13.9046 17.6629 13.9486 17.9675 14.0003C18.2193 14.0431 18.4676 14.1001 18.6945 14.2245C18.7362 14.2473 18.775 14.2751 18.8153 14.3004C18.8219 14.3047 18.8292 14.3079 18.8324 14.3175C18.6954 14.2562 18.5565 14.206 18.4084 14.194C18.2933 14.1846 18.1769 14.1883 18.0611 14.1878C18.0101 14.1878 17.9531 14.1778 17.9092 14.1965C17.8474 14.2227 17.7848 14.2008 17.7242 14.2209C17.6629 14.2411 17.5982 14.2598 17.5346 14.2621C17.2992 14.2705 17.0627 14.2872 16.8283 14.2726C16.2261 14.2357 15.6572 14.0618 15.1076 13.8196C15.0819 13.8082 15.055 13.79 15.0391 13.7675C14.8593 13.5111 14.6818 13.2532 14.5036 12.9958C14.4986 12.9885 14.4945 12.9803 14.4847 12.9639L14.4845 12.9641Z" fill="#FDD218"/>
<path d="M14.5769 10.6117C14.7731 10.5452 14.9599 10.4866 15.1433 10.4187C15.7537 10.1923 16.3295 9.89743 16.8653 9.52765C17.2126 9.28796 17.5514 9.03552 17.8984 8.7956C18.1027 8.65411 18.3203 8.53517 18.5712 8.49439C18.5924 8.49097 18.6138 8.48825 18.6363 8.48779C18.2276 8.61402 17.9597 8.90565 17.7302 9.2465C17.4707 9.63177 17.1308 9.93617 16.7482 10.1948C16.4053 10.4267 16.0371 10.6103 15.6532 10.7637C15.6045 10.783 15.5584 10.7929 15.5044 10.7824C15.1991 10.7243 14.8931 10.6696 14.5769 10.6119V10.6117Z" fill="#FDD218"/>
<path d="M8.77066 12.7345C8.45692 12.8541 8.12997 12.9688 7.81099 13.1029C7.31453 13.3119 6.84905 13.5794 6.40863 13.8897C6.09604 14.11 5.78891 14.3381 5.47426 14.5554C5.26989 14.6967 5.05207 14.8152 4.80122 14.856C4.78755 14.8582 4.77388 14.8607 4.76021 14.8623C4.75246 14.8632 4.74472 14.8623 4.72375 14.8623C5.12248 14.7459 5.38996 14.4816 5.60504 14.1597C5.88847 13.735 6.25484 13.3998 6.67817 13.1212C7.00877 12.9034 7.36169 12.7288 7.72988 12.5851C7.77112 12.5689 7.82261 12.5634 7.86613 12.571C8.17417 12.624 8.4813 12.6817 8.77088 12.7348L8.77066 12.7345Z" fill="#FDD218"/>
<path d="M14.3275 4.52904C14.2179 4.76144 14.1741 5.00568 14.1901 5.25744C14.201 5.4306 14.2332 5.60285 14.2596 5.77487C14.3102 6.10273 14.3067 6.43082 14.2657 6.75868C14.2013 7.27383 14.0479 7.76391 13.8394 8.23759C13.8217 8.27792 13.7873 8.31665 13.751 8.3424C13.4988 8.52102 13.2441 8.696 12.9807 8.86597C13.0014 8.82633 13.022 8.78646 13.0429 8.74681C13.4533 7.97785 13.7201 7.16037 13.867 6.30255C13.9313 5.92775 13.9898 5.55204 14.0584 5.17815C14.0967 4.96877 14.1655 4.76804 14.2844 4.58827C14.2979 4.56799 14.3131 4.54863 14.3275 4.52881V4.52904Z" fill="#FDD218"/>
<path d="M10.3802 14.4858C10.2613 14.7408 10.138 14.9889 10.0289 15.2432C9.75163 15.8896 9.58052 16.5658 9.47024 17.2591C9.41397 17.6129 9.34949 17.9654 9.27909 18.3167C9.24514 18.4863 9.17359 18.6446 9.07152 18.7865C9.06378 18.7975 9.05535 18.8077 9.04578 18.8203C9.07904 18.7232 9.11709 18.6307 9.14193 18.535C9.21347 18.2584 9.19478 17.9809 9.13851 17.7043C9.06309 17.3332 9.06264 16.96 9.10957 16.5861C9.17246 16.085 9.32169 15.6082 9.51809 15.1445C9.5452 15.0805 9.58211 15.0315 9.64112 14.9919C9.87603 14.8335 10.108 14.6706 10.341 14.5095C10.3536 14.5009 10.3673 14.4938 10.3805 14.4861L10.3802 14.4858Z" fill="#FDD218"/>
<path d="M4.5432 9.03268C4.774 9.14432 5.01847 9.18739 5.27001 9.17167C5.44339 9.16096 5.61564 9.12906 5.78766 9.1024C6.11552 9.05137 6.44361 9.05524 6.77148 9.09625C7.29072 9.16141 7.78468 9.31612 8.26178 9.52756C8.29231 9.541 8.32261 9.56538 8.34175 9.59272C8.51149 9.83423 8.67895 10.0776 8.84687 10.3204C8.85758 10.3357 8.86669 10.3521 8.8692 10.3763C8.83525 10.3583 8.80108 10.3403 8.76713 10.322C7.99771 9.91193 7.18045 9.64307 6.3224 9.49566C5.94555 9.43095 5.56757 9.37307 5.19186 9.30335C4.9729 9.26257 4.76238 9.19149 4.57714 9.06048C4.56507 9.05205 4.55436 9.0418 4.54297 9.03223L4.5432 9.03268Z" fill="#FDD218"/>
<path d="M9.83348 11.0298C9.94694 10.9175 10.0668 10.8118 10.2147 10.7452C10.466 10.6322 10.7237 10.6397 10.9802 10.7229C11.0966 10.7605 11.1846 10.8361 11.2028 10.9683C11.2046 10.982 11.2044 10.9959 11.2039 11.0098C11.2039 11.0171 11.2012 11.0243 11.1987 11.036C11.1096 10.9635 11.0239 10.8936 10.938 10.8236C10.9326 10.8263 10.9271 10.8293 10.9216 10.832C10.9326 11.0025 10.8528 11.1239 10.72 11.218C10.8344 11.1991 10.9276 11.1417 11.0141 11.0722C11.0392 11.0519 11.0609 11.0389 11.0925 11.0622C11.1456 11.1014 11.1511 11.1367 11.1021 11.1829C11.011 11.2695 10.8959 11.3044 10.7765 11.3306C10.4559 11.4007 10.209 11.2715 9.99661 11.0462C9.99433 11.0437 9.99456 11.0389 9.99001 11.0214C10.0167 11.0373 10.0353 11.0483 10.0538 11.0594C10.0723 11.0706 10.0907 11.0818 10.1146 11.0963V10.9009C10.0278 10.9487 9.93669 10.9993 9.84533 11.0496C9.84123 11.043 9.83735 11.0364 9.83325 11.0298H9.83348ZM10.3937 11.2358C10.3623 11.1661 10.316 11.1 10.3049 11.0287C10.2939 10.9585 10.3183 10.8826 10.327 10.8118C10.1857 10.8346 10.1623 10.8667 10.1554 11.0328C10.1545 11.0521 10.1568 11.0733 10.1641 11.0911C10.1723 11.1114 10.1832 11.1367 10.2003 11.1458C10.2659 11.1802 10.3347 11.2089 10.394 11.236L10.3937 11.2358Z" fill="#7B4111"/>
<path d="M13.2546 10.9018V11.0953C13.2924 11.073 13.3291 11.0513 13.3658 11.0297L13.379 11.0472C13.3125 11.1028 13.2489 11.163 13.1785 11.2135C12.9156 11.4022 12.6397 11.3792 12.3621 11.2516C12.3207 11.2324 12.2908 11.1873 12.256 11.1541C12.2179 11.1176 12.2414 11.0916 12.271 11.0666C12.3015 11.0408 12.3177 11.0543 12.3492 11.0768C12.4464 11.1463 12.5501 11.2087 12.6741 11.2279C12.518 11.1438 12.4462 11.0112 12.4485 10.8324C12.3375 10.8649 12.2644 10.9417 12.1906 11.0228C12.1594 10.8934 12.2054 10.8034 12.3478 10.7401C12.4166 10.7095 12.4952 10.7007 12.5699 10.6847C12.616 10.6749 12.6629 10.6658 12.7096 10.6642C12.9721 10.6542 13.2052 10.7303 13.4018 10.9078C13.4464 10.9481 13.4909 10.9889 13.5353 11.0297C13.531 11.0363 13.5264 11.0431 13.5221 11.0497C13.4325 11.0003 13.343 10.9508 13.2539 10.9016L13.2546 10.9018ZM13.0242 10.8109C13.1047 10.9697 13.0785 11.1064 12.9627 11.2343C13.0381 11.2062 13.1108 11.173 13.1824 11.1379C13.1915 11.1333 13.1988 11.1208 13.2029 11.1105C13.2589 10.967 13.1835 10.8362 13.0242 10.8109Z" fill="#7B4111"/>
<path d="M10.5557 12.9074C10.7332 12.8516 10.9152 12.7946 11.097 12.7375C11.2228 12.6978 11.3492 12.6944 11.4782 12.7238C11.6172 12.7555 11.7577 12.7566 11.8967 12.7238C12.0446 12.6887 12.1868 12.7063 12.3289 12.7536C12.493 12.8083 12.6589 12.8573 12.819 12.9072C12.6741 12.9535 12.5196 12.9993 12.3524 12.9833C11.9095 12.9409 11.4661 12.9407 11.023 12.9833C10.8564 12.9993 10.7022 12.9532 10.5559 12.9079L10.5557 12.9074Z" fill="#7B4111"/>
<path d="M13.006 12.8887C12.7775 13.0035 12.5576 13.1115 12.34 13.2243C12.1739 13.3104 11.9957 13.3417 11.8128 13.3501C11.5843 13.3606 11.3567 13.3528 11.1391 13.2703C11.0949 13.2535 11.0523 13.2318 11.0099 13.2106C10.798 13.1047 10.5863 12.9983 10.3687 12.8892C10.3334 12.9448 10.2988 12.9992 10.2642 13.0534C10.2881 12.9047 10.3703 12.7978 10.5059 12.7299C10.4681 12.7748 10.4303 12.8197 10.3879 12.8698C10.505 12.9427 10.6257 12.9835 10.7565 13.0033C10.8654 13.02 10.9753 13.0391 11.0805 13.071C11.3548 13.1539 11.6337 13.1603 11.9162 13.1437C12.1227 13.1316 12.3122 13.0475 12.5125 13.0143C12.6496 12.9915 12.7875 12.9799 12.9123 12.9126C12.9347 12.9006 12.9572 12.8887 12.9891 12.8719C12.9447 12.8208 12.9044 12.7743 12.862 12.7256C12.9711 12.7481 13.1183 12.9432 13.1124 13.0585C13.0762 13.0004 13.042 12.9459 13.0062 12.8889L13.006 12.8887Z" fill="#7B4111"/>
<path d="M11.4087 10.7054C11.3823 10.7131 11.3643 10.7252 11.3525 10.7207C11.3196 10.7081 11.2857 10.6931 11.2586 10.671C10.8323 10.3274 10.38 10.3775 9.91751 10.5808C9.88493 10.5951 9.85486 10.6156 9.82136 10.6268C9.79858 10.6343 9.76896 10.638 9.74777 10.6295C9.72043 10.6186 9.69833 10.5942 9.67395 10.5755C9.69127 10.5534 9.70448 10.5259 9.72658 10.5101C9.94349 10.3554 10.1811 10.2456 10.4413 10.1871C10.5983 10.1517 10.7466 10.1709 10.8881 10.2534C11.0535 10.35 11.2062 10.4611 11.3351 10.6031C11.36 10.6304 11.3789 10.663 11.4092 10.7049L11.4087 10.7054Z" fill="#7B4111"/>
<path d="M12.7795 10.1682C12.9249 10.1814 13.0568 10.2062 13.1814 10.2703C13.2862 10.3243 13.3988 10.3625 13.5043 10.4154C13.5674 10.447 13.6234 10.4931 13.6815 10.5339C13.7143 10.5569 13.7114 10.5824 13.6802 10.6052C13.6396 10.6346 13.5956 10.6514 13.5476 10.6243C13.3783 10.5295 13.1974 10.4639 13.0071 10.435C12.8957 10.4181 12.7793 10.4254 12.6656 10.4325C12.4913 10.4434 12.3357 10.5079 12.1967 10.6147C12.1498 10.6507 12.0992 10.6824 12.0477 10.7116C12.032 10.7205 12.0078 10.7139 11.9873 10.7143C11.9921 10.6943 11.9912 10.6703 12.0021 10.6551C12.103 10.517 12.2345 10.411 12.3778 10.3224C12.4694 10.2657 12.571 10.2242 12.6708 10.1821C12.7057 10.1673 12.7485 10.1714 12.7793 10.1677L12.7795 10.1682Z" fill="#7B4111"/>
<path d="M12.0878 11.8559C12.175 11.8743 12.2299 11.9263 12.2602 12.0033C12.2732 12.0363 12.2814 12.0712 12.2901 12.1058C12.3097 12.1835 12.3598 12.2279 12.4368 12.2437C12.5409 12.2648 12.6214 12.3225 12.6859 12.4041C12.6991 12.4207 12.7052 12.4428 12.7216 12.4767C12.6512 12.4407 12.5984 12.4104 12.543 12.3858C12.3739 12.3104 12.1967 12.2858 12.0151 12.3204C11.9522 12.3325 11.8927 12.3646 11.833 12.3908C11.7346 12.4344 11.636 12.4385 11.5405 12.3893C11.2623 12.2462 10.9964 12.2977 10.7344 12.4337C10.7125 12.4451 10.6913 12.4576 10.6597 12.461C10.6695 12.4412 10.6763 12.4191 10.6895 12.402C10.7519 12.3207 10.8328 12.2653 10.9338 12.2443C11.0167 12.227 11.0682 12.1803 11.0862 12.0981C11.1062 12.0067 11.1374 11.9226 11.2227 11.8709C11.24 11.8604 11.2596 11.8534 11.2871 11.855C11.2589 11.9053 11.2272 11.9543 11.2033 12.0067C11.1707 12.0782 11.1944 12.1409 11.2644 12.1582C11.2967 12.1662 11.3375 12.1557 11.3701 12.1425C11.3997 12.1304 11.4229 12.1031 11.4601 12.0739C11.4601 12.1047 11.461 12.1247 11.4601 12.1446C11.4569 12.2031 11.4863 12.2389 11.5396 12.2546C11.6369 12.2833 11.7351 12.2844 11.8324 12.2555C11.8959 12.2364 11.9162 12.2033 11.9137 12.1359C11.913 12.1204 11.9137 12.1047 11.9137 12.0746C11.9374 12.0928 11.952 12.1065 11.9686 12.1165C11.9987 12.1345 12.0283 12.1591 12.0611 12.1657C12.1404 12.1815 12.2065 12.104 12.1771 12.0277C12.1543 11.9677 12.1181 11.9131 12.088 11.8559H12.0878Z" fill="#7B4111"/>
<path d="M11.9133 13.6453H11.4711C11.544 13.5649 11.7916 13.5615 11.9133 13.6453Z" fill="#7B4111"/>
<path d="M10.3936 11.2358C10.3343 11.2087 10.2658 11.1799 10.1999 11.1455C10.1828 11.1367 10.1719 11.1111 10.1637 11.0909C10.1566 11.0731 10.1543 11.0521 10.155 11.0325C10.1619 10.8662 10.1853 10.8341 10.3266 10.8115C10.3179 10.8824 10.2935 10.9583 10.3045 11.0284C10.3157 11.0997 10.3619 11.1658 10.3933 11.2355L10.3936 11.2358Z" fill="#FDD218"/>
<path d="M13.0239 10.811C13.1832 10.8363 13.2586 10.9673 13.2025 11.1106C13.1984 11.1211 13.1914 11.1336 13.182 11.138C13.1103 11.1731 13.0378 11.2063 12.9624 11.2344C13.0781 11.1065 13.1043 10.9698 13.0239 10.811Z" fill="#FDD218"/>
<path d="M8.78754 51.4308H9.95754V57.4458C9.95754 58.3308 10.18 58.9708 10.625 59.3658C11.07 59.7558 11.6525 59.9508 12.3725 59.9508C13.0875 59.9508 13.665 59.7558 14.105 59.3658C14.55 58.9708 14.7725 58.3308 14.7725 57.4458V51.4308H15.9425V57.4458C15.9425 58.2358 15.795 58.8983 15.5 59.4333C15.21 59.9633 14.7975 60.3633 14.2625 60.6333C13.7275 60.8983 13.0975 61.0308 12.3725 61.0308C11.6475 61.0308 11.015 60.8983 10.475 60.6333C9.94004 60.3633 9.52504 59.9633 9.23004 59.4333C8.93504 58.8983 8.78754 58.2358 8.78754 57.4458V51.4308ZM18.7973 60.8508V53.6658H19.9673V60.8508H18.7973ZM19.6073 57.6108C19.6073 56.7008 19.6948 55.9458 19.8698 55.3458C20.0448 54.7408 20.2998 54.2908 20.6348 53.9958C20.9748 53.6958 21.3873 53.5458 21.8723 53.5458C22.0323 53.5458 22.1773 53.5583 22.3073 53.5833C22.4423 53.6033 22.5773 53.6358 22.7123 53.6808L22.6373 54.8358C22.4973 54.7908 22.3448 54.7533 22.1798 54.7233C22.0148 54.6883 21.8673 54.6708 21.7373 54.6708C21.3123 54.6708 20.9698 54.7933 20.7098 55.0383C20.4498 55.2783 20.2598 55.6183 20.1398 56.0583C20.0248 56.4983 19.9673 57.0158 19.9673 57.6108H19.6073ZM29.0923 53.6658H30.2623V60.8508H29.0923V53.6658ZM24.0073 53.6658H25.1773V58.1358C25.1773 58.7358 25.3223 59.1908 25.6123 59.5008C25.9073 59.8108 26.3273 59.9658 26.8723 59.9658C27.3223 59.9658 27.7123 59.8458 28.0423 59.6058C28.3773 59.3658 28.6348 59.0358 28.8148 58.6158C28.9998 58.1908 29.0923 57.7058 29.0923 57.1608H29.5273C29.5273 57.9658 29.4098 58.6533 29.1748 59.2233C28.9448 59.7933 28.6173 60.2308 28.1923 60.5358C27.7723 60.8358 27.2773 60.9858 26.7073 60.9858C26.1673 60.9858 25.6948 60.8858 25.2898 60.6858C24.8848 60.4858 24.5698 60.1833 24.3448 59.7783C24.1198 59.3683 24.0073 58.8508 24.0073 58.2258V53.6658ZM35.8343 64.5408C35.0993 64.5408 34.4618 64.4358 33.9218 64.2258C33.3818 64.0208 32.9618 63.7433 32.6618 63.3933C32.3668 63.0483 32.2193 62.6658 32.2193 62.2458C32.2193 61.6908 32.4218 61.2658 32.8268 60.9708C33.2368 60.6808 33.7643 60.5358 34.4093 60.5358L35.0543 60.9408C34.5143 60.9408 34.0968 61.0533 33.8018 61.2783C33.5068 61.5033 33.3593 61.8108 33.3593 62.2008C33.3593 62.5908 33.5693 62.9208 33.9893 63.1908C34.4093 63.4608 35.0243 63.5958 35.8343 63.5958C36.4343 63.5958 36.9593 63.5083 37.4093 63.3333C37.8643 63.1633 38.2168 62.9383 38.4668 62.6583C38.7218 62.3833 38.8493 62.0858 38.8493 61.7658C38.8493 61.5408 38.7668 61.3458 38.6018 61.1808C38.4368 61.0208 38.1843 60.9408 37.8443 60.9408H35.0543C34.5693 60.9408 34.1493 60.8683 33.7943 60.7233C33.4443 60.5733 33.1743 60.3783 32.9843 60.1383C32.7943 59.8983 32.6993 59.6358 32.6993 59.3508C32.6993 59.0508 32.7843 58.7958 32.9543 58.5858C33.1243 58.3758 33.3443 58.2158 33.6143 58.1058C33.8893 57.9958 34.1843 57.9408 34.4993 57.9408L34.7243 58.3758C34.5743 58.3758 34.4218 58.4108 34.2668 58.4808C34.1168 58.5458 33.9893 58.6458 33.8843 58.7808C33.7843 58.9108 33.7343 59.0758 33.7343 59.2758C33.7343 59.5058 33.8293 59.6983 34.0193 59.8533C34.2093 60.0083 34.5543 60.0858 35.0543 60.0858H37.8443C38.5193 60.0858 39.0493 60.2283 39.4343 60.5133C39.8243 60.7983 40.0193 61.1958 40.0193 61.7058C40.0193 62.1758 39.8518 62.6258 39.5168 63.0558C39.1818 63.4908 38.7018 63.8458 38.0768 64.1208C37.4518 64.4008 36.7043 64.5408 35.8343 64.5408ZM36.0443 58.7508C35.4943 58.7508 34.9968 58.6408 34.5518 58.4208C34.1118 58.2008 33.7618 57.8933 33.5018 57.4983C33.2468 57.1033 33.1193 56.6458 33.1193 56.1258C33.1193 55.6008 33.2468 55.1408 33.5018 54.7458C33.7618 54.3508 34.1118 54.0458 34.5518 53.8308C34.9968 53.6108 35.4943 53.5008 36.0443 53.5008C36.5793 53.5008 37.0643 53.6108 37.4993 53.8308C37.9393 54.0458 38.2893 54.3508 38.5493 54.7458C38.8093 55.1408 38.9393 55.6008 38.9393 56.1258C38.9393 56.6458 38.8093 57.1033 38.5493 57.4983C38.2893 57.8933 37.9393 58.2008 37.4993 58.4208C37.0643 58.6408 36.5793 58.7508 36.0443 58.7508ZM36.0443 57.9108C36.5943 57.9108 37.0218 57.7408 37.3268 57.4008C37.6318 57.0608 37.7843 56.6358 37.7843 56.1258C37.7843 55.6008 37.6318 55.1758 37.3268 54.8508C37.0218 54.5208 36.5943 54.3558 36.0443 54.3558C35.4993 54.3558 35.0693 54.5208 34.7543 54.8508C34.4443 55.1758 34.2893 55.6008 34.2893 56.1258C34.2893 56.6358 34.4443 57.0608 34.7543 57.4008C35.0693 57.7408 35.4993 57.9108 36.0443 57.9108ZM38.3993 54.6408L37.8443 54.4158C37.8443 53.9958 37.9268 53.6283 38.0918 53.3133C38.2568 52.9933 38.4918 52.7458 38.7968 52.5708C39.1018 52.3908 39.4643 52.3008 39.8843 52.3008L39.7943 53.4558C39.3443 53.4558 38.9993 53.5533 38.7593 53.7483C38.5193 53.9383 38.3993 54.2358 38.3993 54.6408ZM46.6411 53.6658H47.8111V60.8508H46.6411V53.6658ZM41.5561 53.6658H42.7261V58.1358C42.7261 58.7358 42.8711 59.1908 43.1611 59.5008C43.4561 59.8108 43.8761 59.9658 44.4211 59.9658C44.8711 59.9658 45.2611 59.8458 45.5911 59.6058C45.9261 59.3658 46.1836 59.0358 46.3636 58.6158C46.5486 58.1908 46.6411 57.7058 46.6411 57.1608H47.0761C47.0761 57.9658 46.9586 58.6533 46.7236 59.2233C46.4936 59.7933 46.1661 60.2308 45.7411 60.5358C45.3211 60.8358 44.8261 60.9858 44.2561 60.9858C43.7161 60.9858 43.2436 60.8858 42.8386 60.6858C42.4336 60.4858 42.1186 60.1833 41.8936 59.7783C41.6686 59.3683 41.5561 58.8508 41.5561 58.2258V53.6658ZM55.2881 60.8508L55.1381 59.2758V56.2008C55.1381 55.5558 55.0006 55.0933 54.7256 54.8133C54.4506 54.5283 54.0381 54.3858 53.4881 54.3858C53.1781 54.3858 52.8956 54.4308 52.6406 54.5208C52.3906 54.6108 52.1906 54.7508 52.0406 54.9408C51.8956 55.1258 51.8231 55.3658 51.8231 55.6608H50.5181C50.5181 55.1408 50.6456 54.7233 50.9006 54.4083C51.1556 54.0883 51.5056 53.8583 51.9506 53.7183C52.4006 53.5733 52.9131 53.5008 53.4881 53.5008C54.0381 53.5008 54.5256 53.5933 54.9506 53.7783C55.3756 53.9633 55.7081 54.2583 55.9481 54.6633C56.1881 55.0633 56.3081 55.5858 56.3081 56.2308V60.8508H55.2881ZM52.8431 61.0308C52.2531 61.0308 51.7656 60.9258 51.3806 60.7158C50.9956 60.5058 50.7081 60.2333 50.5181 59.8983C50.3281 59.5633 50.2331 59.2108 50.2331 58.8408C50.2331 58.3558 50.3531 57.9608 50.5931 57.6558C50.8381 57.3508 51.1706 57.1283 51.5906 56.9883C52.0106 56.8433 52.4831 56.7708 53.0081 56.7708C53.3831 56.7708 53.7581 56.8083 54.1331 56.8833C54.5131 56.9583 54.8831 57.0608 55.2431 57.1908V57.9258C54.9431 57.8058 54.6031 57.7108 54.2231 57.6408C53.8481 57.5708 53.5031 57.5358 53.1881 57.5358C52.7081 57.5358 52.3031 57.6358 51.9731 57.8358C51.6431 58.0308 51.4781 58.3658 51.4781 58.8408C51.4781 59.1908 51.6031 59.4908 51.8531 59.7408C52.1081 59.9908 52.5131 60.1158 53.0681 60.1158C53.4581 60.1158 53.8081 60.0258 54.1181 59.8458C54.4331 59.6608 54.6806 59.4308 54.8606 59.1558C55.0456 58.8808 55.1381 58.6058 55.1381 58.3308H55.4231C55.4231 58.8108 55.3181 59.2558 55.1081 59.6658C54.9031 60.0758 54.6081 60.4058 54.2231 60.6558C53.8381 60.9058 53.3781 61.0308 52.8431 61.0308ZM57.9248 53.6808H59.2298L61.5698 59.8308H61.2998L63.1148 53.6808H64.3148L61.6148 62.2908C61.3898 63.0108 61.0898 63.5658 60.7148 63.9558C60.3398 64.3458 59.8598 64.5408 59.2748 64.5408C58.9598 64.5408 58.6598 64.4958 58.3748 64.4058C58.0948 64.3158 57.8048 64.1858 57.5048 64.0158V62.9358C57.7698 63.1458 58.0248 63.2958 58.2698 63.3858C58.5198 63.4758 58.7798 63.5208 59.0498 63.5208C59.3498 63.5208 59.5998 63.4258 59.7998 63.2358C60.0048 63.0458 60.1748 62.8008 60.3098 62.5008C60.4448 62.2058 60.5598 61.8958 60.6548 61.5708L60.8648 60.8508L57.9248 53.6808Z" fill="black"/>
</svg>
