<svg width="19" height="19" viewBox="0 0 19 19" fill="none" xmlns="http://www.w3.org/2000/svg">
<g id="Cajita" clip-path="url(#clip0_3_12987)">
<path id="Vector" d="M14.9744 12.5279L16.3905 8.27966C17.6276 4.56849 18.2461 2.71291 17.2666 1.73341C16.2871 0.753915 14.4315 1.37244 10.7203 2.6095L6.47214 4.02557C3.47687 5.02399 1.97923 5.5232 1.55365 6.25526C1.14878 6.95168 1.14878 7.81179 1.55365 8.50821C1.97923 9.24027 3.47687 9.73948 6.47214 10.7379C6.95308 10.8982 7.19355 10.9784 7.39454 11.1129C7.58933 11.2433 7.75667 11.4107 7.88707 11.6055C8.02162 11.8065 8.10178 12.0469 8.26209 12.5279C9.26052 15.5231 9.75973 17.0208 10.4918 17.4464C11.1882 17.8512 12.0483 17.8512 12.7447 17.4464C13.4768 17.0208 13.976 15.5231 14.9744 12.5279Z" stroke="#FF7500" stroke-width="1.6875"/>
<path id="Vector_2" d="M13.1326 7.828C13.4639 7.50033 13.4669 6.9661 13.1392 6.63478C12.8115 6.30345 12.2773 6.30049 11.946 6.62817L13.1326 7.828ZM8.55473 12.3554L13.1326 7.828L11.946 6.62817L7.36812 11.1556L8.55473 12.3554Z" fill="#FF7500"/>
</g>
<defs>
<clipPath id="clip0_3_12987">
<rect width="18" height="18" fill="white" transform="translate(0.5 0.5)"/>
</clipPath>
</defs>
</svg>
