<svg width="19" height="19" viewBox="0 0 19 19" fill="none" xmlns="http://www.w3.org/2000/svg">
<g id="cajita" clip-path="url(#clip0_3_11733)">
<path id="Vector 503" d="M2.1875 14L1.55761 13.4386C1.33641 13.6868 1.28157 14.0418 1.41757 14.3451C1.55357 14.6485 1.85504 14.8438 2.1875 14.8438L2.1875 14ZM15.8099 14V14.8438C16.1259 14.8438 16.4155 14.6671 16.5601 14.3861C16.7047 14.1051 16.6802 13.7668 16.4964 13.5096L15.8099 14ZM9.90361 1.625C9.90361 1.15901 9.52585 0.78125 9.05986 0.78125C8.59387 0.78125 8.21611 1.15901 8.21611 1.625H9.90361ZM7.37232 16.8125V15.9688H6.5285L6.52857 16.8126L7.37232 16.8125ZM10.7473 16.8125H11.5911L11.5911 15.9688H10.7473V16.8125ZM9.05986 1.90625C7.75616 1.90625 6.45794 2.34284 5.47078 3.05866C4.49168 3.76863 3.71611 4.8381 3.71611 6.125H5.40361C5.40361 5.55651 5.75302 4.93847 6.46141 4.42479C7.16174 3.91696 8.11352 3.59375 9.05986 3.59375V1.90625ZM3.71611 6.125C3.71611 7.41511 3.39777 9.01226 2.94532 10.4405C2.7208 11.1492 2.46875 11.7989 2.21802 12.3305C1.96054 12.8765 1.72789 13.2476 1.55761 13.4386L2.81739 14.5614C3.14843 14.1899 3.46298 13.6469 3.74432 13.0503C4.0324 12.4394 4.31078 11.718 4.55402 10.9501C5.03709 9.42524 5.40361 7.64739 5.40361 6.125H3.71611ZM2.1875 14C2.1875 14.8438 2.18753 14.8438 2.1876 14.8438C2.18766 14.8438 2.18776 14.8438 2.18788 14.8438C2.18801 14.8438 2.18817 14.8438 2.18836 14.8438C2.18855 14.8438 2.18877 14.8438 2.18903 14.8438C2.18928 14.8438 2.18957 14.8438 2.18988 14.8438C2.1902 14.8438 2.19055 14.8438 2.19093 14.8438C2.19131 14.8438 2.19172 14.8438 2.19217 14.8438C2.19261 14.8438 2.19308 14.8438 2.19359 14.8438C2.19409 14.8438 2.19463 14.8438 2.1952 14.8438C2.19577 14.8438 2.19637 14.8438 2.197 14.8438C2.19763 14.8438 2.19829 14.8438 2.19898 14.8438C2.19967 14.8438 2.2004 14.8438 2.20115 14.8438C2.2019 14.8438 2.20269 14.8438 2.2035 14.8438C2.20432 14.8438 2.20517 14.8438 2.20604 14.8438C2.20692 14.8438 2.20783 14.8438 2.20877 14.8438C2.20971 14.8438 2.21068 14.8438 2.21168 14.8438C2.21268 14.8438 2.21371 14.8438 2.21477 14.8438C2.21583 14.8438 2.21692 14.8438 2.21804 14.8438C2.21917 14.8438 2.22032 14.8438 2.2215 14.8438C2.22268 14.8438 2.2239 14.8438 2.22514 14.8438C2.22638 14.8438 2.22766 14.8438 2.22896 14.8438C2.23026 14.8438 2.2316 14.8438 2.23296 14.8438C2.23433 14.8438 2.23572 14.8438 2.23714 14.8438C2.23857 14.8438 2.24002 14.8438 2.2415 14.8438C2.24299 14.8438 2.2445 14.8438 2.24605 14.8438C2.24759 14.8438 2.24916 14.8438 2.25077 14.8438C2.25237 14.8438 2.254 14.8438 2.25566 14.8438C2.25732 14.8438 2.25902 14.8438 2.26074 14.8438C2.26246 14.8438 2.26421 14.8438 2.26599 14.8438C2.26777 14.8438 2.26958 14.8438 2.27142 14.8438C2.27326 14.8438 2.27513 14.8438 2.27703 14.8438C2.27892 14.8438 2.28085 14.8438 2.28281 14.8438C2.28476 14.8438 2.28675 14.8438 2.28876 14.8438C2.29078 14.8438 2.29282 14.8438 2.29489 14.8438C2.29697 14.8438 2.29907 14.8438 2.3012 14.8438C2.30333 14.8438 2.30549 14.8438 2.30768 14.8438C2.30987 14.8438 2.31209 14.8438 2.31433 14.8438C2.31658 14.8438 2.31885 14.8438 2.32116 14.8438C2.32346 14.8438 2.32579 14.8438 2.32815 14.8438C2.33051 14.8438 2.3329 14.8438 2.33532 14.8438C2.33774 14.8438 2.34019 14.8438 2.34266 14.8438C2.34514 14.8438 2.34764 14.8438 2.35017 14.8438C2.3527 14.8438 2.35526 14.8438 2.35785 14.8438C2.36044 14.8438 2.36306 14.8438 2.3657 14.8438C2.36835 14.8438 2.37102 14.8438 2.37372 14.8438C2.37642 14.8438 2.37915 14.8438 2.38191 14.8438C2.38466 14.8438 2.38745 14.8438 2.39026 14.8438C2.39307 14.8438 2.39592 14.8438 2.39878 14.8438C2.40165 14.8438 2.40455 14.8438 2.40747 14.8438C2.4104 14.8438 2.41335 14.8438 2.41633 14.8438C2.41931 14.8438 2.42232 14.8438 2.42535 14.8438C2.42839 14.8438 2.43145 14.8438 2.43454 14.8438C2.43763 14.8438 2.44075 14.8438 2.44389 14.8438C2.44704 14.8438 2.45021 14.8438 2.45341 14.8438C2.45661 14.8438 2.45983 14.8438 2.46309 14.8438C2.46634 14.8438 2.46962 14.8438 2.47293 14.8438C2.47624 14.8438 2.47958 14.8438 2.48294 14.8438C2.4863 14.8438 2.48969 14.8438 2.49311 14.8438C2.49653 14.8438 2.49997 14.8438 2.50344 14.8438C2.50691 14.8438 2.51041 14.8438 2.51393 14.8438C2.51746 14.8438 2.52101 14.8438 2.52458 14.8438C2.52816 14.8438 2.53177 14.8438 2.5354 14.8438C2.53903 14.8438 2.54269 14.8438 2.54637 14.8438C2.55006 14.8438 2.55377 14.8438 2.5575 14.8438C2.56124 14.8438 2.565 14.8438 2.56879 14.8438C2.57258 14.8438 2.5764 14.8438 2.58024 14.8438C2.58409 14.8438 2.58796 14.8438 2.59185 14.8438C2.59575 14.8438 2.59967 14.8438 2.60362 14.8438C2.60756 14.8438 2.61154 14.8438 2.61554 14.8438C2.61954 14.8438 2.62356 14.8438 2.62761 14.8438C2.63167 14.8438 2.63574 14.8438 2.63985 14.8438C2.64395 14.8438 2.64808 14.8438 2.65223 14.8438C2.65639 14.8438 2.66057 14.8438 2.66478 14.8438C2.66898 14.8438 2.67322 14.8438 2.67747 14.8438C2.68173 14.8438 2.68601 14.8438 2.69032 14.8438C2.69463 14.8438 2.69897 14.8438 2.70333 14.8438C2.70769 14.8438 2.71207 14.8438 2.71648 14.8438C2.72089 14.8438 2.72533 14.8438 2.72979 14.8438C2.73425 14.8438 2.73874 14.8438 2.74325 14.8438C2.74776 14.8438 2.7523 14.8438 2.75686 14.8438C2.76142 14.8438 2.76601 14.8438 2.77062 14.8438C2.77523 14.8438 2.77987 14.8438 2.78453 14.8438C2.7892 14.8438 2.79388 14.8438 2.79859 14.8438C2.80331 14.8438 2.80804 14.8438 2.8128 14.8438C2.81756 14.8438 2.82235 14.8438 2.82716 14.8438C2.83197 14.8438 2.83681 14.8438 2.84167 14.8438C2.84653 14.8438 2.85141 14.8438 2.85632 14.8438C2.86123 14.8438 2.86616 14.8438 2.87112 14.8438C2.87608 14.8438 2.88106 14.8438 2.88607 14.8438C2.89107 14.8438 2.89611 14.8438 2.90116 14.8438C2.90622 14.8438 2.9113 14.8438 2.9164 14.8438C2.9215 14.8438 2.92663 14.8438 2.93178 14.8438C2.93693 14.8438 2.94211 14.8438 2.94731 14.8438C2.95251 14.8438 2.95773 14.8438 2.96298 14.8438C2.96823 14.8438 2.9735 14.8438 2.97879 14.8438C2.98409 14.8438 2.98941 14.8438 2.99475 14.8438C3.00009 14.8438 3.00546 14.8438 3.01085 14.8438C3.01624 14.8438 3.02166 14.8438 3.02709 14.8438C3.03253 14.8438 3.03799 14.8438 3.04347 14.8438C3.04896 14.8438 3.05447 14.8438 3.06 14.8438C3.06553 14.8438 3.07108 14.8438 3.07666 14.8438C3.08224 14.8438 3.08784 14.8438 3.09347 14.8438C3.09909 14.8438 3.10474 14.8438 3.11041 14.8438C3.11608 14.8438 3.12177 14.8438 3.12749 14.8438C3.13321 14.8438 3.13895 14.8438 3.14471 14.8438C3.15047 14.8438 3.15626 14.8438 3.16207 14.8438C3.16787 14.8438 3.17371 14.8438 3.17956 14.8438C3.18541 14.8438 3.19129 14.8438 3.19719 14.8438C3.20309 14.8438 3.20901 14.8438 3.21496 14.8438C3.2209 14.8438 3.22687 14.8438 3.23286 14.8438C3.23885 14.8438 3.24486 14.8438 3.2509 14.8438C3.25693 14.8438 3.26299 14.8438 3.26907 14.8438C3.27515 14.8438 3.28125 14.8438 3.28738 14.8438C3.2935 14.8438 3.29965 14.8438 3.30582 14.8438C3.31199 14.8438 3.31818 14.8438 3.32439 14.8438C3.3306 14.8438 3.33684 14.8438 3.3431 14.8438C3.34935 14.8438 3.35563 14.8438 3.36193 14.8438C3.36823 14.8438 3.37456 14.8438 3.3809 14.8438C3.38725 14.8438 3.39361 14.8438 3.4 14.8438C3.40639 14.8438 3.4128 14.8438 3.41923 14.8438C3.42566 14.8438 3.43212 14.8438 3.43859 14.8438C3.44507 14.8438 3.45156 14.8438 3.45808 14.8438C3.4646 14.8438 3.47114 14.8438 3.4777 14.8438C3.48426 14.8438 3.49085 14.8438 3.49745 14.8438C3.50405 14.8438 3.51068 14.8438 3.51732 14.8438C3.52397 14.8438 3.53064 14.8438 3.53733 14.8438C3.54402 14.8438 3.55073 14.8438 3.55746 14.8438C3.56419 14.8438 3.57094 14.8438 3.57771 14.8438C3.58449 14.8438 3.59128 14.8438 3.59809 14.8438C3.60491 14.8438 3.61174 14.8438 3.6186 14.8438C3.62546 14.8438 3.63234 14.8438 3.63923 14.8438C3.64613 14.8438 3.65305 14.8438 3.65999 14.8438C3.66693 14.8438 3.67389 14.8438 3.68087 14.8438C3.68785 14.8438 3.69485 14.8438 3.70187 14.8438C3.70889 14.8438 3.71594 14.8438 3.723 14.8438C3.73006 14.8438 3.73714 14.8438 3.74425 14.8438C3.75135 14.8438 3.75847 14.8438 3.76562 14.8438C3.77276 14.8438 3.77992 14.8438 3.78711 14.8438C3.79429 14.8438 3.8015 14.8438 3.80872 14.8438C3.81594 14.8438 3.82319 14.8438 3.83045 14.8438C3.83772 14.8438 3.845 14.8438 3.8523 14.8438C3.85961 14.8438 3.86693 14.8438 3.87428 14.8438C3.88162 14.8438 3.88898 14.8438 3.89637 14.8438C3.90375 14.8438 3.91115 14.8438 3.91857 14.8438C3.926 14.8438 3.93344 14.8438 3.9409 14.8438C3.94836 14.8438 3.95584 14.8438 3.96334 14.8438C3.97084 14.8438 3.97836 14.8438 3.9859 14.8438C3.99344 14.8438 4.001 14.8438 4.00858 14.8438C4.01615 14.8438 4.02375 14.8438 4.03137 14.8438C4.03898 14.8438 4.04662 14.8438 4.05427 14.8438C4.06193 14.8438 4.0696 14.8438 4.07729 14.8438C4.08499 14.8438 4.0927 14.8438 4.10043 14.8438C4.10816 14.8438 4.11591 14.8438 4.12368 14.8438C4.13144 14.8438 4.13923 14.8438 4.14704 14.8438C4.15484 14.8438 4.16267 14.8438 4.17051 14.8438C4.17835 14.8438 4.18622 14.8438 4.1941 14.8438C4.20198 14.8438 4.20988 14.8438 4.21779 14.8438C4.22571 14.8438 4.23365 14.8438 4.2416 14.8438C4.24956 14.8438 4.25753 14.8438 4.26552 14.8438C4.27351 14.8438 4.28152 14.8438 4.28955 14.8438C4.29758 14.8438 4.30562 14.8438 4.31369 14.8438C4.32175 14.8438 4.32983 14.8438 4.33793 14.8438C4.34603 14.8438 4.35415 14.8438 4.36229 14.8438C4.37042 14.8438 4.37858 14.8438 4.38675 14.8438C4.39492 14.8438 4.40311 14.8438 4.41132 14.8438C4.41953 14.8438 4.42776 14.8438 4.436 14.8438C4.44424 14.8438 4.4525 14.8438 4.46078 14.8438C4.46906 14.8438 4.47736 14.8438 4.48567 14.8438C4.49399 14.8438 4.50232 14.8438 4.51067 14.8438C4.51902 14.8438 4.52738 14.8438 4.53577 14.8438C4.54415 14.8438 4.55255 14.8438 4.56097 14.8438C4.56939 14.8438 4.57782 14.8438 4.58628 14.8438C4.59473 14.8438 4.6032 14.8438 4.61169 14.8438C4.62017 14.8438 4.62868 14.8438 4.6372 14.8438C4.64572 14.8438 4.65426 14.8438 4.66282 14.8438C4.67137 14.8438 4.67994 14.8438 4.68853 14.8438C4.69712 14.8438 4.70573 14.8438 4.71435 14.8438C4.72298 14.8438 4.73161 14.8438 4.74027 14.8438C4.74893 14.8438 4.7576 14.8438 4.76629 14.8438C4.77498 14.8438 4.78369 14.8438 4.79241 14.8438C4.80113 14.8438 4.80987 14.8438 4.81863 14.8438C4.82738 14.8438 4.83616 14.8438 4.84494 14.8438C4.85373 14.8438 4.86254 14.8438 4.87136 14.8438C4.88018 14.8438 4.88902 14.8438 4.89787 14.8438C4.90673 14.8438 4.9156 14.8438 4.92448 14.8438C4.93337 14.8438 4.94227 14.8438 4.95119 14.8438C4.96011 14.8438 4.96904 14.8438 4.97799 14.8438C4.98694 14.8438 4.99591 14.8438 5.00489 14.8438C5.01387 14.8438 5.02287 14.8438 5.03188 14.8438C5.04089 14.8438 5.04992 14.8438 5.05897 14.8438C5.06801 14.8438 5.07707 14.8438 5.08615 14.8438C5.09522 14.8438 5.10432 14.8438 5.11342 14.8438C5.12253 14.8438 5.13165 14.8438 5.14079 14.8438C5.14993 14.8438 5.15908 14.8438 5.16825 14.8438C5.17742 14.8438 5.1866 14.8438 5.1958 14.8438C5.205 14.8438 5.21422 14.8438 5.22345 14.8438C5.23268 14.8438 5.24192 14.8438 5.25118 14.8438C5.26044 14.8438 5.26972 14.8438 5.27901 14.8438C5.2883 14.8438 5.2976 14.8438 5.30692 14.8438C5.31624 14.8438 5.32557 14.8438 5.33492 14.8438C5.34427 14.8438 5.35364 14.8438 5.36302 14.8438C5.3724 14.8438 5.38179 14.8438 5.3912 14.8438C5.40061 14.8438 5.41003 14.8438 5.41947 14.8438C5.4289 14.8438 5.43836 14.8438 5.44782 14.8438C5.45729 14.8438 5.46677 14.8438 5.47627 14.8438C5.48576 14.8438 5.49527 14.8438 5.5048 14.8438C5.51432 14.8438 5.52386 14.8438 5.53341 14.8438C5.54296 14.8438 5.55253 14.8438 5.56211 14.8438C5.57169 14.8438 5.58129 14.8438 5.5909 14.8438C5.60051 14.8438 5.61013 14.8438 5.61977 14.8438C5.6294 14.8438 5.63905 14.8438 5.64872 14.8438C5.65838 14.8438 5.66806 14.8438 5.67776 14.8438C5.68745 14.8438 5.69715 14.8438 5.70688 14.8438C5.7166 14.8438 5.72633 14.8438 5.73608 14.8438C5.74582 14.8438 5.75558 14.8438 5.76536 14.8438C5.77513 14.8438 5.78492 14.8438 5.79472 14.8438C5.80452 14.8438 5.81434 14.8438 5.82417 14.8438C5.834 14.8438 5.84384 14.8438 5.85369 14.8438C5.86355 14.8438 5.87342 14.8438 5.8833 14.8438C5.89318 14.8438 5.90307 14.8438 5.91298 14.8438C5.92289 14.8438 5.93281 14.8438 5.94274 14.8438C5.95268 14.8438 5.96262 14.8438 5.97258 14.8438C5.98254 14.8438 5.99252 14.8438 6.0025 14.8438C6.01249 14.8438 6.02248 14.8438 6.0325 14.8438C6.04251 14.8438 6.05253 14.8438 6.06257 14.8438C6.0726 14.8438 6.08265 14.8438 6.09271 14.8438C6.10278 14.8438 6.11285 14.8438 6.12294 14.8438C6.13302 14.8438 6.14312 14.8438 6.15323 14.8438C6.16335 14.8438 6.17347 14.8438 6.18361 14.8438C6.19374 14.8438 6.20389 14.8438 6.21405 14.8438C6.22421 14.8438 6.23439 14.8438 6.24457 14.8438C6.25476 14.8438 6.26496 14.8438 6.27517 14.8438C6.28538 14.8438 6.2956 14.8438 6.30583 14.8438C6.31606 14.8438 6.32631 14.8438 6.33657 14.8438C6.34683 14.8438 6.35709 14.8438 6.36738 14.8438C6.37766 14.8438 6.38795 14.8438 6.39825 14.8438C6.40856 14.8438 6.41888 14.8438 6.4292 14.8438C6.43953 14.8438 6.44987 14.8438 6.46022 14.8438C6.47058 14.8438 6.48094 14.8438 6.49131 14.8438C6.50169 14.8438 6.51207 14.8438 6.52247 14.8438C6.53287 14.8438 6.54328 14.8438 6.5537 14.8438C6.56412 14.8438 6.57455 14.8438 6.58499 14.8438C6.59543 14.8438 6.60589 14.8438 6.61635 14.8438C6.62682 14.8438 6.63729 14.8438 6.64778 14.8438C6.65827 14.8438 6.66876 14.8438 6.67927 14.8438C6.68978 14.8438 6.7003 14.8438 6.71083 14.8438C6.72136 14.8438 6.7319 14.8438 6.74246 14.8438C6.75301 14.8438 6.76357 14.8438 6.77415 14.8438C6.78472 14.8438 6.7953 14.8438 6.8059 14.8438C6.81649 14.8438 6.8271 14.8438 6.83772 14.8438C6.84833 14.8438 6.85896 14.8438 6.8696 14.8438C6.88024 14.8438 6.89088 14.8438 6.90154 14.8438C6.9122 14.8438 6.92287 14.8438 6.93355 14.8438C6.94423 14.8438 6.95491 14.8438 6.96561 14.8438C6.97631 14.8438 6.98702 14.8438 6.99774 14.8438C7.00846 14.8438 7.01919 14.8438 7.02993 14.8438C7.04067 14.8438 7.05142 14.8438 7.06218 14.8438C7.07294 14.8438 7.08371 14.8438 7.09449 14.8438C7.10527 14.8438 7.11606 14.8438 7.12685 14.8438C7.13765 14.8438 7.14846 14.8438 7.15928 14.8438C7.1701 14.8438 7.18093 14.8438 7.19176 14.8438C7.2026 14.8438 7.21345 14.8438 7.22431 14.8438C7.23516 14.8438 7.24603 14.8438 7.2569 14.8438C7.26778 14.8438 7.27867 14.8438 7.28956 14.8438C7.30045 14.8438 7.31136 14.8438 7.32227 14.8438C7.33318 14.8438 7.34411 14.8438 7.35504 14.8438C7.36597 14.8438 7.37691 14.8438 7.38786 14.8438C7.39881 14.8438 7.40977 14.8438 7.42073 14.8438C7.4317 14.8438 7.44268 14.8438 7.45366 14.8438C7.46465 14.8438 7.47564 14.8438 7.48665 14.8438C7.49765 14.8438 7.50866 14.8438 7.51968 14.8438C7.5307 14.8438 7.54173 14.8438 7.55277 14.8438C7.56381 14.8438 7.57486 14.8438 7.58591 14.8438C7.59697 14.8438 7.60803 14.8438 7.6191 14.8438C7.63018 14.8438 7.64126 14.8438 7.65235 14.8438C7.66343 14.8438 7.67453 14.8438 7.68564 14.8438C7.69674 14.8438 7.70786 14.8438 7.71898 14.8438C7.7301 14.8438 7.74123 14.8438 7.75237 14.8438C7.76351 14.8438 7.77466 14.8438 7.78581 14.8438C7.79697 14.8438 7.80813 14.8438 7.8193 14.8438C7.83047 14.8438 7.84165 14.8438 7.85284 14.8438C7.86403 14.8438 7.87522 14.8438 7.88642 14.8438C7.89762 14.8438 7.90883 14.8438 7.92005 14.8438C7.93127 14.8438 7.9425 14.8438 7.95373 14.8438C7.96496 14.8438 7.9762 14.8438 7.98745 14.8438C7.9987 14.8438 8.00996 14.8438 8.02122 14.8438C8.03248 14.8438 8.04375 14.8438 8.05503 14.8438C8.06631 14.8438 8.0776 14.8438 8.08889 14.8438C8.10018 14.8438 8.11148 14.8438 8.12279 14.8438C8.1341 14.8438 8.14541 14.8438 8.15673 14.8438C8.16805 14.8438 8.17938 14.8438 8.19072 14.8438C8.20205 14.8438 8.2134 14.8438 8.22475 14.8438C8.23609 14.8438 8.24745 14.8438 8.25881 14.8438C8.27018 14.8438 8.28155 14.8438 8.29293 14.8438C8.3043 14.8438 8.31569 14.8438 8.32708 14.8438C8.33847 14.8438 8.34986 14.8438 8.36127 14.8438C8.37267 14.8438 8.38408 14.8438 8.3955 14.8438C8.40691 14.8438 8.41834 14.8438 8.42977 14.8438C8.4412 14.8438 8.45263 14.8438 8.46408 14.8438C8.47552 14.8438 8.48697 14.8438 8.49842 14.8438C8.50988 14.8438 8.52134 14.8438 8.53281 14.8438C8.54427 14.8438 8.55575 14.8438 8.56723 14.8438C8.57871 14.8438 8.59019 14.8438 8.60168 14.8438C8.61318 14.8438 8.62467 14.8438 8.63618 14.8438C8.64768 14.8438 8.65919 14.8438 8.6707 14.8438C8.68222 14.8438 8.69374 14.8438 8.70527 14.8438C8.71679 14.8438 8.72833 14.8438 8.73987 14.8438C8.7514 14.8438 8.76295 14.8438 8.7745 14.8438C8.78605 14.8438 8.7976 14.8438 8.80916 14.8438C8.82072 14.8438 8.83229 14.8438 8.84386 14.8438C8.85543 14.8438 8.86701 14.8438 8.87859 14.8438C8.89017 14.8438 8.90176 14.8438 8.91335 14.8438C8.92494 14.8438 8.93654 14.8438 8.94815 14.8438C8.95975 14.8438 8.97136 14.8438 8.98297 14.8438C8.99458 14.8438 9.0062 14.8438 9.01782 14.8438C9.02945 14.8438 9.04107 14.8438 9.05271 14.8438C9.06434 14.8438 9.07598 14.8438 9.08762 14.8438C9.09926 14.8438 9.11091 14.8438 9.12256 14.8438C9.13422 14.8438 9.14587 14.8438 9.15753 14.8438C9.16919 14.8438 9.18086 14.8438 9.19253 14.8438C9.2042 14.8438 9.21588 14.8438 9.22756 14.8438C9.23924 14.8438 9.25092 14.8438 9.26261 14.8438C9.2743 14.8438 9.28599 14.8438 9.29769 14.8438C9.30938 14.8438 9.32108 14.8438 9.33279 14.8438C9.3445 14.8438 9.35621 14.8438 9.36792 14.8438C9.37963 14.8438 9.39135 14.8438 9.40307 14.8438C9.41479 14.8438 9.42652 14.8438 9.43825 14.8438C9.44998 14.8438 9.46171 14.8438 9.47345 14.8438C9.48519 14.8438 9.49693 14.8438 9.50868 14.8438C9.52042 14.8438 9.53217 14.8438 9.54392 14.8438C9.55568 14.8438 9.56743 14.8438 9.57919 14.8438C9.59095 14.8438 9.60271 14.8438 9.61448 14.8438C9.62625 14.8438 9.63802 14.8438 9.64979 14.8438C9.66157 14.8438 9.67334 14.8438 9.68512 14.8438C9.69691 14.8438 9.70869 14.8438 9.72048 14.8438C9.73226 14.8438 9.74405 14.8438 9.75585 14.8438C9.76764 14.8438 9.77944 14.8438 9.79124 14.8438C9.80304 14.8438 9.81484 14.8438 9.82665 14.8438C9.83845 14.8438 9.85026 14.8438 9.86207 14.8438C9.87389 14.8438 9.8857 14.8438 9.89752 14.8438C9.90934 14.8438 9.92116 14.8438 9.93298 14.8438C9.9448 14.8438 9.95663 14.8438 9.96846 14.8438C9.98029 14.8438 9.99212 14.8438 10.004 14.8438C10.0158 14.8438 10.0276 14.8438 10.0395 14.8438C10.0513 14.8438 10.0631 14.8438 10.075 14.8438C10.0868 14.8438 10.0987 14.8438 10.1105 14.8438C10.1224 14.8438 10.1342 14.8438 10.1461 14.8438C10.1579 14.8438 10.1698 14.8438 10.1816 14.8438C10.1935 14.8438 10.2054 14.8438 10.2172 14.8438C10.2291 14.8438 10.2409 14.8438 10.2528 14.8438C10.2647 14.8438 10.2765 14.8438 10.2884 14.8438C10.3003 14.8438 10.3121 14.8438 10.324 14.8438C10.3359 14.8438 10.3478 14.8438 10.3596 14.8438C10.3715 14.8438 10.3834 14.8438 10.3953 14.8438C10.4072 14.8438 10.419 14.8438 10.4309 14.8438C10.4428 14.8438 10.4547 14.8438 10.4666 14.8438C10.4785 14.8438 10.4904 14.8438 10.5022 14.8438C10.5141 14.8438 10.526 14.8438 10.5379 14.8438C10.5498 14.8438 10.5617 14.8438 10.5736 14.8438C10.5855 14.8438 10.5974 14.8438 10.6093 14.8438C10.6212 14.8438 10.6331 14.8438 10.645 14.8438C10.6569 14.8438 10.6688 14.8438 10.6807 14.8438C10.6926 14.8438 10.7045 14.8438 10.7164 14.8438C10.7283 14.8438 10.7402 14.8438 10.7521 14.8438C10.764 14.8438 10.7759 14.8438 10.7878 14.8438C10.7997 14.8438 10.8116 14.8438 10.8235 14.8438C10.8354 14.8438 10.8473 14.8438 10.8592 14.8438C10.8711 14.8438 10.883 14.8438 10.8949 14.8438C10.9069 14.8438 10.9188 14.8438 10.9307 14.8438C10.9426 14.8438 10.9545 14.8438 10.9664 14.8438C10.9783 14.8438 10.9902 14.8438 11.0021 14.8438C11.014 14.8438 11.026 14.8438 11.0379 14.8438C11.0498 14.8438 11.0617 14.8438 11.0736 14.8438C11.0855 14.8438 11.0974 14.8438 11.1093 14.8438C11.1212 14.8438 11.1331 14.8438 11.1451 14.8438C11.157 14.8438 11.1689 14.8438 11.1808 14.8438C11.1927 14.8438 11.2046 14.8438 11.2165 14.8438C11.2284 14.8438 11.2403 14.8438 11.2522 14.8438C11.2641 14.8438 11.2761 14.8438 11.288 14.8438C11.2999 14.8438 11.3118 14.8438 11.3237 14.8438C11.3356 14.8438 11.3475 14.8438 11.3594 14.8438C11.3713 14.8438 11.3832 14.8438 11.3951 14.8438C11.407 14.8438 11.4189 14.8438 11.4308 14.8438C11.4427 14.8438 11.4546 14.8438 11.4665 14.8438C11.4784 14.8438 11.4903 14.8438 11.5022 14.8438C11.5141 14.8438 11.526 14.8438 11.5379 14.8438C11.5498 14.8438 11.5617 14.8438 11.5736 14.8438C11.5855 14.8438 11.5974 14.8438 11.6093 14.8438C11.6212 14.8438 11.6331 14.8438 11.6449 14.8438C11.6568 14.8438 11.6687 14.8438 11.6806 14.8438C11.6925 14.8438 11.7044 14.8438 11.7163 14.8438C11.7281 14.8438 11.74 14.8438 11.7519 14.8438C11.7638 14.8438 11.7757 14.8438 11.7875 14.8438C11.7994 14.8438 11.8113 14.8438 11.8232 14.8438C11.835 14.8438 11.8469 14.8438 11.8588 14.8438C11.8706 14.8438 11.8825 14.8438 11.8944 14.8438C11.9062 14.8438 11.9181 14.8438 11.93 14.8438C11.9418 14.8438 11.9537 14.8438 11.9655 14.8438C11.9774 14.8438 11.9892 14.8438 12.0011 14.8438C12.0129 14.8438 12.0248 14.8438 12.0366 14.8438C12.0485 14.8438 12.0603 14.8438 12.0722 14.8438C12.084 14.8438 12.0959 14.8438 12.1077 14.8438C12.1195 14.8438 12.1314 14.8438 12.1432 14.8438C12.155 14.8438 12.1669 14.8438 12.1787 14.8438C12.1905 14.8438 12.2023 14.8438 12.2142 14.8438C12.226 14.8438 12.2378 14.8438 12.2496 14.8438C12.2614 14.8438 12.2733 14.8438 12.2851 14.8438C12.2969 14.8438 12.3087 14.8438 12.3205 14.8438C12.3323 14.8438 12.3441 14.8438 12.3559 14.8438C12.3677 14.8438 12.3795 14.8438 12.3913 14.8438C12.4031 14.8438 12.4149 14.8438 12.4267 14.8438C12.4384 14.8438 12.4502 14.8438 12.462 14.8438C12.4738 14.8438 12.4856 14.8438 12.4973 14.8438C12.5091 14.8438 12.5209 14.8438 12.5326 14.8438C12.5444 14.8438 12.5562 14.8438 12.5679 14.8438C12.5797 14.8438 12.5914 14.8438 12.6032 14.8438C12.6149 14.8438 12.6267 14.8438 12.6384 14.8438C12.6502 14.8438 12.6619 14.8438 12.6737 14.8438C12.6854 14.8438 12.6971 14.8438 12.7089 14.8438C12.7206 14.8438 12.7323 14.8438 12.744 14.8438C12.7558 14.8438 12.7675 14.8438 12.7792 14.8438C12.7909 14.8438 12.8026 14.8438 12.8143 14.8438C12.826 14.8438 12.8377 14.8438 12.8494 14.8438C12.8611 14.8438 12.8728 14.8438 12.8845 14.8438C12.8962 14.8438 12.9078 14.8438 12.9195 14.8438C12.9312 14.8438 12.9429 14.8438 12.9545 14.8438C12.9662 14.8438 12.9779 14.8438 12.9895 14.8438C13.0012 14.8438 13.0129 14.8438 13.0245 14.8438C13.0362 14.8438 13.0478 14.8438 13.0594 14.8438C13.0711 14.8438 13.0827 14.8438 13.0944 14.8438C13.106 14.8438 13.1176 14.8438 13.1292 14.8438C13.1409 14.8438 13.1525 14.8438 13.1641 14.8438C13.1757 14.8438 13.1873 14.8438 13.1989 14.8438C13.2105 14.8438 13.2221 14.8438 13.2337 14.8438C13.2453 14.8438 13.2569 14.8438 13.2684 14.8438C13.28 14.8438 13.2916 14.8438 13.3032 14.8438C13.3147 14.8438 13.3263 14.8438 13.3379 14.8438C13.3494 14.8438 13.361 14.8438 13.3725 14.8438C13.3841 14.8438 13.3956 14.8438 13.4072 14.8438C13.4187 14.8438 13.4302 14.8438 13.4417 14.8438C13.4533 14.8438 13.4648 14.8438 13.4763 14.8438C13.4878 14.8438 13.4993 14.8438 13.5108 14.8438C13.5223 14.8438 13.5338 14.8438 13.5453 14.8438C13.5568 14.8438 13.5683 14.8438 13.5798 14.8438C13.5912 14.8438 13.6027 14.8438 13.6142 14.8438C13.6256 14.8438 13.6371 14.8438 13.6486 14.8438C13.66 14.8438 13.6715 14.8438 13.6829 14.8438C13.6943 14.8438 13.7058 14.8438 13.7172 14.8438C13.7286 14.8438 13.74 14.8438 13.7515 14.8438C13.7629 14.8438 13.7743 14.8438 13.7857 14.8438C13.7971 14.8438 13.8085 14.8438 13.8199 14.8438C13.8313 14.8438 13.8426 14.8438 13.854 14.8438C13.8654 14.8438 13.8768 14.8438 13.8881 14.8438C13.8995 14.8438 13.9108 14.8438 13.9222 14.8438C13.9335 14.8438 13.9449 14.8438 13.9562 14.8438C13.9675 14.8438 13.9789 14.8438 13.9902 14.8438C14.0015 14.8438 14.0128 14.8438 14.0241 14.8438C14.0354 14.8438 14.0467 14.8438 14.058 14.8438C14.0693 14.8438 14.0806 14.8438 14.0919 14.8438C14.1031 14.8438 14.1144 14.8438 14.1257 14.8438C14.1369 14.8438 14.1482 14.8438 14.1594 14.8438C14.1707 14.8438 14.1819 14.8438 14.1931 14.8438C14.2044 14.8438 14.2156 14.8438 14.2268 14.8438C14.238 14.8438 14.2492 14.8438 14.2604 14.8438C14.2716 14.8438 14.2828 14.8438 14.294 14.8438C14.3052 14.8438 14.3164 14.8438 14.3275 14.8438C14.3387 14.8438 14.3499 14.8438 14.361 14.8438C14.3722 14.8438 14.3833 14.8438 14.3945 14.8438C14.4056 14.8438 14.4167 14.8438 14.4278 14.8438C14.439 14.8438 14.4501 14.8438 14.4612 14.8438C14.4723 14.8438 14.4834 14.8438 14.4945 14.8438C14.5056 14.8438 14.5166 14.8438 14.5277 14.8438C14.5388 14.8438 14.5498 14.8438 14.5609 14.8438C14.5719 14.8438 14.583 14.8438 14.594 14.8438C14.6051 14.8438 14.6161 14.8438 14.6271 14.8438C14.6381 14.8438 14.6491 14.8438 14.6601 14.8438C14.6711 14.8438 14.6821 14.8438 14.6931 14.8438C14.7041 14.8438 14.7151 14.8438 14.726 14.8438C14.737 14.8438 14.7479 14.8438 14.7589 14.8438C14.7698 14.8438 14.7808 14.8438 14.7917 14.8438C14.8026 14.8438 14.8135 14.8438 14.8245 14.8438C14.8354 14.8438 14.8463 14.8438 14.8572 14.8438C14.8681 14.8438 14.8789 14.8438 14.8898 14.8438C14.9007 14.8438 14.9115 14.8438 14.9224 14.8438C14.9333 14.8438 14.9441 14.8438 14.9549 14.8438C14.9658 14.8438 14.9766 14.8438 14.9874 14.8438C14.9982 14.8438 15.009 14.8438 15.0198 14.8438C15.0306 14.8438 15.0414 14.8438 15.0522 14.8438C15.063 14.8438 15.0737 14.8438 15.0845 14.8438C15.0952 14.8438 15.106 14.8438 15.1167 14.8438C15.1275 14.8438 15.1382 14.8438 15.1489 14.8438C15.1596 14.8438 15.1703 14.8438 15.181 14.8438C15.1917 14.8438 15.2024 14.8438 15.2131 14.8438C15.2238 14.8438 15.2344 14.8438 15.2451 14.8438C15.2557 14.8438 15.2664 14.8438 15.277 14.8438C15.2876 14.8438 15.2983 14.8438 15.3089 14.8438C15.3195 14.8438 15.3301 14.8438 15.3407 14.8438C15.3513 14.8438 15.3619 14.8438 15.3724 14.8438C15.383 14.8438 15.3936 14.8438 15.4041 14.8438C15.4147 14.8438 15.4252 14.8438 15.4357 14.8438C15.4462 14.8438 15.4568 14.8438 15.4673 14.8438C15.4778 14.8438 15.4883 14.8438 15.4988 14.8438C15.5092 14.8438 15.5197 14.8438 15.5302 14.8438C15.5406 14.8438 15.5511 14.8438 15.5615 14.8438C15.572 14.8438 15.5824 14.8438 15.5928 14.8438C15.6032 14.8438 15.6136 14.8438 15.624 14.8438C15.6344 14.8438 15.6448 14.8438 15.6552 14.8438C15.6655 14.8438 15.6759 14.8438 15.6862 14.8438C15.6966 14.8438 15.7069 14.8438 15.7173 14.8438C15.7276 14.8438 15.7379 14.8438 15.7482 14.8438C15.7585 14.8438 15.7688 14.8438 15.7791 14.8438C15.7893 14.8438 15.7996 14.8438 15.8099 14.8438V13.1562C15.7996 13.1562 15.7893 13.1562 15.7791 13.1562C15.7688 13.1562 15.7585 13.1562 15.7482 13.1562C15.7379 13.1562 15.7276 13.1562 15.7173 13.1562C15.7069 13.1562 15.6966 13.1562 15.6862 13.1562C15.6759 13.1562 15.6655 13.1562 15.6552 13.1562C15.6448 13.1562 15.6344 13.1562 15.624 13.1562C15.6136 13.1562 15.6032 13.1562 15.5928 13.1562C15.5824 13.1562 15.572 13.1562 15.5615 13.1562C15.5511 13.1562 15.5406 13.1562 15.5302 13.1562C15.5197 13.1562 15.5092 13.1562 15.4988 13.1562C15.4883 13.1562 15.4778 13.1562 15.4673 13.1562C15.4568 13.1562 15.4462 13.1562 15.4357 13.1562C15.4252 13.1562 15.4147 13.1562 15.4041 13.1562C15.3936 13.1562 15.383 13.1562 15.3724 13.1562C15.3619 13.1562 15.3513 13.1562 15.3407 13.1562C15.3301 13.1562 15.3195 13.1562 15.3089 13.1562C15.2983 13.1562 15.2876 13.1562 15.277 13.1562C15.2664 13.1562 15.2557 13.1562 15.2451 13.1562C15.2344 13.1562 15.2238 13.1562 15.2131 13.1562C15.2024 13.1562 15.1917 13.1562 15.181 13.1562C15.1703 13.1562 15.1596 13.1562 15.1489 13.1562C15.1382 13.1562 15.1275 13.1562 15.1167 13.1562C15.106 13.1562 15.0952 13.1562 15.0845 13.1562C15.0737 13.1562 15.063 13.1562 15.0522 13.1562C15.0414 13.1562 15.0306 13.1562 15.0198 13.1562C15.009 13.1562 14.9982 13.1562 14.9874 13.1562C14.9766 13.1562 14.9658 13.1562 14.9549 13.1562C14.9441 13.1562 14.9333 13.1562 14.9224 13.1562C14.9115 13.1562 14.9007 13.1562 14.8898 13.1562C14.8789 13.1562 14.8681 13.1562 14.8572 13.1562C14.8463 13.1562 14.8354 13.1562 14.8245 13.1562C14.8135 13.1562 14.8026 13.1562 14.7917 13.1562C14.7808 13.1562 14.7698 13.1562 14.7589 13.1562C14.7479 13.1562 14.737 13.1562 14.726 13.1562C14.7151 13.1562 14.7041 13.1562 14.6931 13.1562C14.6821 13.1562 14.6711 13.1562 14.6601 13.1562C14.6491 13.1562 14.6381 13.1562 14.6271 13.1562C14.6161 13.1562 14.6051 13.1562 14.594 13.1562C14.583 13.1562 14.5719 13.1562 14.5609 13.1562C14.5498 13.1562 14.5388 13.1562 14.5277 13.1562C14.5166 13.1562 14.5056 13.1562 14.4945 13.1562C14.4834 13.1562 14.4723 13.1562 14.4612 13.1562C14.4501 13.1562 14.439 13.1562 14.4278 13.1562C14.4167 13.1562 14.4056 13.1562 14.3945 13.1562C14.3833 13.1562 14.3722 13.1562 14.361 13.1562C14.3499 13.1562 14.3387 13.1562 14.3275 13.1562C14.3164 13.1562 14.3052 13.1562 14.294 13.1562C14.2828 13.1562 14.2716 13.1562 14.2604 13.1562C14.2492 13.1562 14.238 13.1562 14.2268 13.1562C14.2156 13.1562 14.2044 13.1562 14.1931 13.1562C14.1819 13.1562 14.1707 13.1562 14.1594 13.1562C14.1482 13.1562 14.1369 13.1562 14.1257 13.1562C14.1144 13.1562 14.1031 13.1562 14.0919 13.1562C14.0806 13.1562 14.0693 13.1562 14.058 13.1562C14.0467 13.1562 14.0354 13.1562 14.0241 13.1562C14.0128 13.1562 14.0015 13.1562 13.9902 13.1562C13.9789 13.1562 13.9675 13.1562 13.9562 13.1562C13.9449 13.1562 13.9335 13.1562 13.9222 13.1562C13.9108 13.1562 13.8995 13.1562 13.8881 13.1562C13.8768 13.1562 13.8654 13.1562 13.854 13.1562C13.8426 13.1562 13.8313 13.1562 13.8199 13.1562C13.8085 13.1562 13.7971 13.1562 13.7857 13.1562C13.7743 13.1562 13.7629 13.1562 13.7515 13.1562C13.74 13.1562 13.7286 13.1562 13.7172 13.1562C13.7058 13.1562 13.6943 13.1562 13.6829 13.1562C13.6715 13.1562 13.66 13.1562 13.6486 13.1562C13.6371 13.1562 13.6256 13.1562 13.6142 13.1562C13.6027 13.1562 13.5912 13.1562 13.5798 13.1562C13.5683 13.1562 13.5568 13.1562 13.5453 13.1562C13.5338 13.1562 13.5223 13.1562 13.5108 13.1562C13.4993 13.1562 13.4878 13.1562 13.4763 13.1562C13.4648 13.1562 13.4533 13.1562 13.4417 13.1562C13.4302 13.1562 13.4187 13.1562 13.4072 13.1562C13.3956 13.1562 13.3841 13.1562 13.3725 13.1562C13.361 13.1562 13.3494 13.1562 13.3379 13.1562C13.3263 13.1562 13.3147 13.1562 13.3032 13.1562C13.2916 13.1562 13.28 13.1562 13.2684 13.1562C13.2569 13.1562 13.2453 13.1562 13.2337 13.1562C13.2221 13.1562 13.2105 13.1562 13.1989 13.1562C13.1873 13.1562 13.1757 13.1562 13.1641 13.1562C13.1525 13.1562 13.1409 13.1562 13.1292 13.1562C13.1176 13.1562 13.106 13.1562 13.0944 13.1562C13.0827 13.1562 13.0711 13.1562 13.0594 13.1562C13.0478 13.1562 13.0362 13.1562 13.0245 13.1562C13.0129 13.1562 13.0012 13.1562 12.9895 13.1562C12.9779 13.1562 12.9662 13.1562 12.9545 13.1562C12.9429 13.1562 12.9312 13.1562 12.9195 13.1562C12.9078 13.1562 12.8962 13.1562 12.8845 13.1562C12.8728 13.1562 12.8611 13.1562 12.8494 13.1562C12.8377 13.1562 12.826 13.1562 12.8143 13.1562C12.8026 13.1562 12.7909 13.1562 12.7792 13.1562C12.7675 13.1562 12.7558 13.1562 12.744 13.1562C12.7323 13.1562 12.7206 13.1562 12.7089 13.1562C12.6971 13.1562 12.6854 13.1562 12.6737 13.1562C12.6619 13.1562 12.6502 13.1562 12.6384 13.1562C12.6267 13.1562 12.6149 13.1562 12.6032 13.1562C12.5914 13.1562 12.5797 13.1562 12.5679 13.1562C12.5562 13.1562 12.5444 13.1562 12.5326 13.1562C12.5209 13.1562 12.5091 13.1562 12.4973 13.1562C12.4856 13.1562 12.4738 13.1562 12.462 13.1562C12.4502 13.1562 12.4384 13.1562 12.4267 13.1562C12.4149 13.1562 12.4031 13.1562 12.3913 13.1562C12.3795 13.1562 12.3677 13.1562 12.3559 13.1562C12.3441 13.1562 12.3323 13.1562 12.3205 13.1562C12.3087 13.1562 12.2969 13.1562 12.2851 13.1562C12.2733 13.1562 12.2614 13.1562 12.2496 13.1562C12.2378 13.1562 12.226 13.1562 12.2142 13.1562C12.2023 13.1562 12.1905 13.1562 12.1787 13.1562C12.1669 13.1562 12.155 13.1562 12.1432 13.1562C12.1314 13.1562 12.1195 13.1562 12.1077 13.1562C12.0959 13.1562 12.084 13.1562 12.0722 13.1562C12.0603 13.1562 12.0485 13.1562 12.0366 13.1562C12.0248 13.1562 12.0129 13.1562 12.0011 13.1562C11.9892 13.1562 11.9774 13.1562 11.9655 13.1562C11.9537 13.1562 11.9418 13.1562 11.93 13.1562C11.9181 13.1562 11.9062 13.1562 11.8944 13.1562C11.8825 13.1562 11.8706 13.1562 11.8588 13.1562C11.8469 13.1562 11.835 13.1562 11.8232 13.1562C11.8113 13.1562 11.7994 13.1562 11.7875 13.1562C11.7757 13.1562 11.7638 13.1562 11.7519 13.1562C11.74 13.1562 11.7281 13.1562 11.7163 13.1562C11.7044 13.1562 11.6925 13.1562 11.6806 13.1562C11.6687 13.1562 11.6568 13.1562 11.6449 13.1562C11.6331 13.1562 11.6212 13.1562 11.6093 13.1562C11.5974 13.1562 11.5855 13.1562 11.5736 13.1562C11.5617 13.1562 11.5498 13.1562 11.5379 13.1562C11.526 13.1562 11.5141 13.1562 11.5022 13.1562C11.4903 13.1562 11.4784 13.1562 11.4665 13.1562C11.4546 13.1562 11.4427 13.1562 11.4308 13.1562C11.4189 13.1562 11.407 13.1562 11.3951 13.1562C11.3832 13.1562 11.3713 13.1562 11.3594 13.1562C11.3475 13.1562 11.3356 13.1562 11.3237 13.1562C11.3118 13.1562 11.2999 13.1562 11.288 13.1562C11.2761 13.1562 11.2641 13.1562 11.2522 13.1562C11.2403 13.1562 11.2284 13.1562 11.2165 13.1562C11.2046 13.1562 11.1927 13.1562 11.1808 13.1562C11.1689 13.1562 11.157 13.1562 11.1451 13.1562C11.1331 13.1562 11.1212 13.1562 11.1093 13.1562C11.0974 13.1562 11.0855 13.1562 11.0736 13.1562C11.0617 13.1562 11.0498 13.1562 11.0379 13.1562C11.026 13.1562 11.014 13.1562 11.0021 13.1562C10.9902 13.1562 10.9783 13.1562 10.9664 13.1562C10.9545 13.1562 10.9426 13.1562 10.9307 13.1562C10.9188 13.1562 10.9069 13.1562 10.8949 13.1562C10.883 13.1562 10.8711 13.1562 10.8592 13.1562C10.8473 13.1562 10.8354 13.1562 10.8235 13.1562C10.8116 13.1562 10.7997 13.1562 10.7878 13.1562C10.7759 13.1562 10.764 13.1562 10.7521 13.1562C10.7402 13.1562 10.7283 13.1562 10.7164 13.1562C10.7045 13.1562 10.6926 13.1562 10.6807 13.1562C10.6688 13.1562 10.6569 13.1562 10.645 13.1562C10.6331 13.1562 10.6212 13.1562 10.6093 13.1562C10.5974 13.1562 10.5855 13.1562 10.5736 13.1562C10.5617 13.1562 10.5498 13.1562 10.5379 13.1562C10.526 13.1562 10.5141 13.1562 10.5022 13.1562C10.4904 13.1562 10.4785 13.1562 10.4666 13.1562C10.4547 13.1562 10.4428 13.1562 10.4309 13.1562C10.419 13.1562 10.4072 13.1562 10.3953 13.1562C10.3834 13.1562 10.3715 13.1562 10.3596 13.1562C10.3478 13.1562 10.3359 13.1562 10.324 13.1562C10.3121 13.1562 10.3003 13.1562 10.2884 13.1562C10.2765 13.1562 10.2647 13.1562 10.2528 13.1562C10.2409 13.1562 10.2291 13.1562 10.2172 13.1562C10.2054 13.1562 10.1935 13.1562 10.1816 13.1562C10.1698 13.1562 10.1579 13.1562 10.1461 13.1562C10.1342 13.1562 10.1224 13.1562 10.1105 13.1562C10.0987 13.1562 10.0868 13.1562 10.075 13.1562C10.0631 13.1562 10.0513 13.1562 10.0395 13.1562C10.0276 13.1562 10.0158 13.1562 10.004 13.1562C9.99212 13.1562 9.98029 13.1562 9.96846 13.1562C9.95663 13.1562 9.9448 13.1562 9.93298 13.1562C9.92116 13.1562 9.90934 13.1562 9.89752 13.1562C9.8857 13.1562 9.87389 13.1562 9.86207 13.1562C9.85026 13.1562 9.83845 13.1562 9.82665 13.1562C9.81484 13.1562 9.80304 13.1562 9.79124 13.1562C9.77944 13.1562 9.76764 13.1562 9.75585 13.1562C9.74405 13.1562 9.73226 13.1562 9.72048 13.1562C9.70869 13.1562 9.69691 13.1562 9.68512 13.1562C9.67334 13.1562 9.66157 13.1562 9.64979 13.1562C9.63802 13.1562 9.62625 13.1562 9.61448 13.1562C9.60271 13.1562 9.59095 13.1562 9.57919 13.1562C9.56743 13.1562 9.55568 13.1562 9.54392 13.1562C9.53217 13.1562 9.52042 13.1562 9.50868 13.1562C9.49693 13.1562 9.48519 13.1562 9.47345 13.1562C9.46171 13.1562 9.44998 13.1562 9.43825 13.1562C9.42652 13.1562 9.41479 13.1562 9.40307 13.1562C9.39135 13.1562 9.37963 13.1562 9.36792 13.1562C9.35621 13.1562 9.3445 13.1562 9.33279 13.1562C9.32108 13.1562 9.30938 13.1562 9.29769 13.1562C9.28599 13.1562 9.2743 13.1562 9.26261 13.1562C9.25092 13.1562 9.23924 13.1562 9.22756 13.1562C9.21588 13.1562 9.2042 13.1562 9.19253 13.1562C9.18086 13.1562 9.16919 13.1562 9.15753 13.1562C9.14587 13.1562 9.13422 13.1562 9.12256 13.1562C9.11091 13.1562 9.09926 13.1562 9.08762 13.1562C9.07598 13.1562 9.06434 13.1562 9.05271 13.1562C9.04107 13.1562 9.02945 13.1562 9.01782 13.1562C9.0062 13.1562 8.99458 13.1562 8.98297 13.1562C8.97136 13.1562 8.95975 13.1562 8.94815 13.1562C8.93654 13.1562 8.92494 13.1562 8.91335 13.1562C8.90176 13.1562 8.89017 13.1562 8.87859 13.1562C8.86701 13.1562 8.85543 13.1562 8.84386 13.1562C8.83229 13.1562 8.82072 13.1562 8.80916 13.1562C8.7976 13.1562 8.78605 13.1562 8.7745 13.1562C8.76295 13.1562 8.7514 13.1562 8.73987 13.1562C8.72833 13.1562 8.71679 13.1562 8.70527 13.1562C8.69374 13.1562 8.68222 13.1562 8.6707 13.1562C8.65919 13.1562 8.64768 13.1562 8.63618 13.1562C8.62467 13.1562 8.61318 13.1562 8.60168 13.1562C8.59019 13.1562 8.57871 13.1562 8.56723 13.1562C8.55575 13.1562 8.54427 13.1562 8.53281 13.1562C8.52134 13.1562 8.50988 13.1562 8.49842 13.1562C8.48697 13.1562 8.47552 13.1562 8.46408 13.1562C8.45263 13.1562 8.4412 13.1562 8.42977 13.1562C8.41834 13.1562 8.40691 13.1562 8.3955 13.1562C8.38408 13.1562 8.37267 13.1562 8.36127 13.1562C8.34986 13.1562 8.33847 13.1562 8.32708 13.1562C8.31569 13.1562 8.3043 13.1562 8.29293 13.1562C8.28155 13.1562 8.27018 13.1562 8.25881 13.1562C8.24745 13.1562 8.23609 13.1562 8.22475 13.1562C8.2134 13.1562 8.20205 13.1562 8.19072 13.1562C8.17938 13.1562 8.16805 13.1562 8.15673 13.1562C8.14541 13.1562 8.1341 13.1562 8.12279 13.1562C8.11148 13.1562 8.10018 13.1562 8.08889 13.1562C8.0776 13.1562 8.06631 13.1562 8.05503 13.1562C8.04375 13.1562 8.03248 13.1562 8.02122 13.1562C8.00996 13.1562 7.9987 13.1562 7.98745 13.1562C7.9762 13.1562 7.96496 13.1562 7.95373 13.1562C7.9425 13.1562 7.93127 13.1562 7.92005 13.1562C7.90883 13.1562 7.89762 13.1562 7.88642 13.1562C7.87522 13.1562 7.86403 13.1562 7.85284 13.1562C7.84165 13.1562 7.83047 13.1562 7.8193 13.1562C7.80813 13.1562 7.79697 13.1562 7.78581 13.1562C7.77466 13.1562 7.76351 13.1562 7.75237 13.1562C7.74123 13.1562 7.7301 13.1562 7.71898 13.1562C7.70786 13.1562 7.69674 13.1562 7.68564 13.1562C7.67453 13.1562 7.66343 13.1562 7.65235 13.1562C7.64126 13.1562 7.63018 13.1562 7.6191 13.1562C7.60803 13.1562 7.59697 13.1562 7.58591 13.1562C7.57486 13.1562 7.56381 13.1562 7.55277 13.1562C7.54173 13.1562 7.5307 13.1562 7.51968 13.1562C7.50866 13.1562 7.49765 13.1562 7.48665 13.1562C7.47564 13.1562 7.46465 13.1562 7.45366 13.1562C7.44268 13.1562 7.4317 13.1562 7.42073 13.1562C7.40977 13.1562 7.39881 13.1562 7.38786 13.1562C7.37691 13.1562 7.36597 13.1562 7.35504 13.1562C7.34411 13.1562 7.33318 13.1562 7.32227 13.1562C7.31136 13.1562 7.30045 13.1562 7.28956 13.1562C7.27867 13.1562 7.26778 13.1562 7.2569 13.1562C7.24603 13.1562 7.23516 13.1562 7.22431 13.1562C7.21345 13.1562 7.2026 13.1562 7.19176 13.1562C7.18093 13.1562 7.1701 13.1562 7.15928 13.1562C7.14846 13.1562 7.13765 13.1562 7.12685 13.1562C7.11606 13.1562 7.10527 13.1562 7.09449 13.1562C7.08371 13.1562 7.07294 13.1562 7.06218 13.1562C7.05142 13.1562 7.04067 13.1562 7.02993 13.1562C7.01919 13.1562 7.00846 13.1562 6.99774 13.1562C6.98702 13.1562 6.97631 13.1562 6.96561 13.1562C6.95491 13.1562 6.94423 13.1562 6.93355 13.1562C6.92287 13.1562 6.9122 13.1562 6.90154 13.1562C6.89088 13.1562 6.88024 13.1562 6.8696 13.1562C6.85896 13.1562 6.84833 13.1562 6.83772 13.1562C6.8271 13.1562 6.81649 13.1562 6.8059 13.1562C6.7953 13.1562 6.78472 13.1562 6.77415 13.1562C6.76357 13.1562 6.75301 13.1562 6.74246 13.1562C6.7319 13.1562 6.72136 13.1562 6.71083 13.1562C6.7003 13.1562 6.68978 13.1562 6.67927 13.1562C6.66876 13.1562 6.65827 13.1562 6.64778 13.1562C6.63729 13.1562 6.62682 13.1562 6.61635 13.1562C6.60589 13.1562 6.59543 13.1562 6.58499 13.1562C6.57455 13.1562 6.56412 13.1562 6.5537 13.1562C6.54328 13.1562 6.53287 13.1562 6.52247 13.1562C6.51207 13.1562 6.50169 13.1562 6.49131 13.1562C6.48094 13.1562 6.47058 13.1562 6.46022 13.1562C6.44987 13.1562 6.43953 13.1562 6.4292 13.1562C6.41888 13.1562 6.40856 13.1562 6.39825 13.1562C6.38795 13.1562 6.37766 13.1562 6.36738 13.1562C6.35709 13.1562 6.34683 13.1562 6.33657 13.1562C6.32631 13.1562 6.31606 13.1562 6.30583 13.1562C6.2956 13.1562 6.28538 13.1562 6.27517 13.1562C6.26496 13.1562 6.25476 13.1562 6.24457 13.1562C6.23439 13.1562 6.22421 13.1562 6.21405 13.1562C6.20389 13.1562 6.19374 13.1562 6.18361 13.1562C6.17347 13.1562 6.16335 13.1562 6.15323 13.1562C6.14312 13.1562 6.13302 13.1562 6.12294 13.1562C6.11285 13.1562 6.10278 13.1562 6.09271 13.1562C6.08265 13.1562 6.0726 13.1562 6.06257 13.1562C6.05253 13.1562 6.04251 13.1562 6.0325 13.1562C6.02248 13.1562 6.01249 13.1562 6.0025 13.1562C5.99252 13.1562 5.98254 13.1562 5.97258 13.1562C5.96262 13.1562 5.95268 13.1562 5.94274 13.1562C5.93281 13.1562 5.92289 13.1562 5.91298 13.1562C5.90307 13.1562 5.89318 13.1562 5.8833 13.1562C5.87342 13.1562 5.86355 13.1562 5.85369 13.1562C5.84384 13.1562 5.834 13.1562 5.82417 13.1562C5.81434 13.1562 5.80452 13.1562 5.79472 13.1562C5.78492 13.1562 5.77513 13.1562 5.76536 13.1562C5.75558 13.1562 5.74582 13.1562 5.73608 13.1562C5.72633 13.1562 5.7166 13.1562 5.70688 13.1562C5.69715 13.1562 5.68745 13.1562 5.67776 13.1562C5.66806 13.1562 5.65838 13.1562 5.64872 13.1562C5.63905 13.1562 5.6294 13.1562 5.61977 13.1562C5.61013 13.1562 5.60051 13.1562 5.5909 13.1562C5.58129 13.1562 5.57169 13.1562 5.56211 13.1562C5.55253 13.1562 5.54296 13.1562 5.53341 13.1562C5.52386 13.1562 5.51432 13.1562 5.5048 13.1562C5.49527 13.1562 5.48576 13.1562 5.47627 13.1562C5.46677 13.1562 5.45729 13.1562 5.44782 13.1562C5.43836 13.1562 5.4289 13.1562 5.41947 13.1562C5.41003 13.1562 5.40061 13.1562 5.3912 13.1562C5.38179 13.1562 5.3724 13.1562 5.36302 13.1562C5.35364 13.1562 5.34427 13.1562 5.33492 13.1562C5.32557 13.1562 5.31624 13.1562 5.30692 13.1562C5.2976 13.1562 5.2883 13.1562 5.27901 13.1562C5.26972 13.1562 5.26044 13.1562 5.25118 13.1562C5.24192 13.1562 5.23268 13.1562 5.22345 13.1562C5.21422 13.1562 5.205 13.1562 5.1958 13.1562C5.1866 13.1562 5.17742 13.1562 5.16825 13.1562C5.15908 13.1562 5.14993 13.1562 5.14079 13.1562C5.13165 13.1562 5.12253 13.1562 5.11342 13.1562C5.10432 13.1562 5.09522 13.1562 5.08615 13.1562C5.07707 13.1562 5.06801 13.1562 5.05897 13.1562C5.04992 13.1562 5.04089 13.1562 5.03188 13.1562C5.02287 13.1562 5.01387 13.1562 5.00489 13.1562C4.99591 13.1562 4.98694 13.1562 4.97799 13.1562C4.96904 13.1562 4.96011 13.1562 4.95119 13.1562C4.94227 13.1562 4.93337 13.1562 4.92448 13.1562C4.9156 13.1562 4.90673 13.1562 4.89787 13.1562C4.88902 13.1562 4.88018 13.1562 4.87136 13.1562C4.86254 13.1562 4.85373 13.1562 4.84494 13.1562C4.83616 13.1562 4.82738 13.1562 4.81863 13.1562C4.80987 13.1562 4.80113 13.1562 4.79241 13.1562C4.78369 13.1562 4.77498 13.1562 4.76629 13.1562C4.7576 13.1562 4.74893 13.1562 4.74027 13.1562C4.73161 13.1562 4.72298 13.1562 4.71435 13.1562C4.70573 13.1562 4.69712 13.1562 4.68853 13.1562C4.67994 13.1562 4.67137 13.1562 4.66282 13.1562C4.65426 13.1562 4.64572 13.1562 4.6372 13.1562C4.62868 13.1562 4.62017 13.1562 4.61169 13.1562C4.6032 13.1562 4.59473 13.1562 4.58628 13.1562C4.57782 13.1562 4.56939 13.1562 4.56097 13.1562C4.55255 13.1562 4.54415 13.1562 4.53577 13.1562C4.52738 13.1562 4.51902 13.1562 4.51067 13.1562C4.50232 13.1562 4.49399 13.1562 4.48567 13.1562C4.47736 13.1562 4.46906 13.1562 4.46078 13.1562C4.4525 13.1562 4.44424 13.1562 4.436 13.1562C4.42776 13.1562 4.41953 13.1562 4.41132 13.1562C4.40311 13.1562 4.39492 13.1562 4.38675 13.1562C4.37858 13.1562 4.37042 13.1562 4.36229 13.1562C4.35415 13.1562 4.34603 13.1562 4.33793 13.1562C4.32983 13.1562 4.32175 13.1562 4.31369 13.1562C4.30562 13.1562 4.29758 13.1562 4.28955 13.1562C4.28152 13.1562 4.27351 13.1562 4.26552 13.1562C4.25753 13.1562 4.24956 13.1562 4.2416 13.1562C4.23365 13.1562 4.22571 13.1562 4.21779 13.1562C4.20988 13.1562 4.20198 13.1562 4.1941 13.1562C4.18622 13.1562 4.17835 13.1562 4.17051 13.1562C4.16267 13.1562 4.15484 13.1562 4.14704 13.1562C4.13923 13.1562 4.13144 13.1562 4.12368 13.1562C4.11591 13.1562 4.10816 13.1562 4.10043 13.1562C4.0927 13.1562 4.08499 13.1562 4.07729 13.1562C4.0696 13.1562 4.06193 13.1562 4.05427 13.1562C4.04662 13.1562 4.03898 13.1562 4.03137 13.1562C4.02375 13.1562 4.01615 13.1562 4.00858 13.1562C4.001 13.1562 3.99344 13.1562 3.9859 13.1562C3.97836 13.1562 3.97084 13.1562 3.96334 13.1562C3.95584 13.1562 3.94836 13.1562 3.9409 13.1562C3.93344 13.1562 3.926 13.1562 3.91857 13.1562C3.91115 13.1562 3.90375 13.1562 3.89637 13.1562C3.88898 13.1562 3.88162 13.1562 3.87428 13.1562C3.86693 13.1562 3.85961 13.1562 3.8523 13.1562C3.845 13.1562 3.83772 13.1562 3.83045 13.1562C3.82319 13.1562 3.81594 13.1562 3.80872 13.1562C3.8015 13.1562 3.79429 13.1562 3.78711 13.1562C3.77992 13.1562 3.77276 13.1562 3.76562 13.1562C3.75847 13.1562 3.75135 13.1562 3.74425 13.1562C3.73714 13.1562 3.73006 13.1562 3.723 13.1562C3.71594 13.1562 3.70889 13.1562 3.70187 13.1562C3.69485 13.1562 3.68785 13.1562 3.68087 13.1562C3.67389 13.1562 3.66693 13.1562 3.65999 13.1562C3.65305 13.1562 3.64613 13.1562 3.63923 13.1562C3.63234 13.1562 3.62546 13.1562 3.6186 13.1562C3.61174 13.1562 3.60491 13.1562 3.59809 13.1562C3.59128 13.1562 3.58449 13.1562 3.57771 13.1562C3.57094 13.1562 3.56419 13.1562 3.55746 13.1562C3.55073 13.1562 3.54402 13.1562 3.53733 13.1562C3.53064 13.1562 3.52397 13.1562 3.51732 13.1562C3.51068 13.1562 3.50405 13.1562 3.49745 13.1562C3.49085 13.1562 3.48426 13.1562 3.4777 13.1562C3.47114 13.1562 3.4646 13.1562 3.45808 13.1562C3.45156 13.1562 3.44507 13.1562 3.43859 13.1562C3.43212 13.1562 3.42566 13.1562 3.41923 13.1562C3.4128 13.1562 3.40639 13.1562 3.4 13.1562C3.39361 13.1562 3.38725 13.1562 3.3809 13.1562C3.37456 13.1562 3.36823 13.1562 3.36193 13.1562C3.35563 13.1562 3.34935 13.1562 3.3431 13.1562C3.33684 13.1562 3.3306 13.1562 3.32439 13.1562C3.31818 13.1562 3.31199 13.1562 3.30582 13.1562C3.29965 13.1562 3.2935 13.1562 3.28738 13.1562C3.28125 13.1562 3.27515 13.1562 3.26907 13.1562C3.26299 13.1562 3.25693 13.1562 3.2509 13.1562C3.24486 13.1562 3.23885 13.1562 3.23286 13.1562C3.22687 13.1562 3.2209 13.1562 3.21496 13.1562C3.20901 13.1562 3.20309 13.1562 3.19719 13.1562C3.19129 13.1562 3.18541 13.1562 3.17956 13.1562C3.17371 13.1562 3.16787 13.1562 3.16207 13.1562C3.15626 13.1562 3.15047 13.1562 3.14471 13.1562C3.13895 13.1562 3.13321 13.1562 3.12749 13.1562C3.12177 13.1562 3.11608 13.1562 3.11041 13.1562C3.10474 13.1562 3.09909 13.1562 3.09347 13.1562C3.08784 13.1562 3.08224 13.1562 3.07666 13.1562C3.07108 13.1562 3.06553 13.1562 3.06 13.1562C3.05447 13.1562 3.04896 13.1562 3.04347 13.1562C3.03799 13.1562 3.03253 13.1562 3.02709 13.1562C3.02166 13.1562 3.01624 13.1562 3.01085 13.1562C3.00546 13.1562 3.00009 13.1562 2.99475 13.1562C2.98941 13.1562 2.98409 13.1562 2.97879 13.1562C2.9735 13.1562 2.96823 13.1562 2.96298 13.1562C2.95773 13.1562 2.95251 13.1562 2.94731 13.1562C2.94211 13.1562 2.93693 13.1562 2.93178 13.1562C2.92663 13.1562 2.9215 13.1562 2.9164 13.1562C2.9113 13.1562 2.90622 13.1562 2.90116 13.1562C2.89611 13.1562 2.89107 13.1562 2.88607 13.1562C2.88106 13.1562 2.87608 13.1562 2.87112 13.1562C2.86616 13.1562 2.86123 13.1562 2.85632 13.1562C2.85141 13.1562 2.84653 13.1562 2.84167 13.1562C2.83681 13.1562 2.83197 13.1562 2.82716 13.1562C2.82235 13.1562 2.81756 13.1562 2.8128 13.1562C2.80804 13.1562 2.80331 13.1562 2.79859 13.1562C2.79388 13.1562 2.7892 13.1562 2.78453 13.1562C2.77987 13.1562 2.77523 13.1562 2.77062 13.1562C2.76601 13.1562 2.76142 13.1562 2.75686 13.1562C2.7523 13.1562 2.74776 13.1562 2.74325 13.1562C2.73874 13.1562 2.73425 13.1562 2.72979 13.1562C2.72533 13.1562 2.72089 13.1562 2.71648 13.1562C2.71207 13.1562 2.70769 13.1562 2.70333 13.1562C2.69897 13.1562 2.69463 13.1562 2.69032 13.1562C2.68601 13.1562 2.68173 13.1562 2.67747 13.1562C2.67322 13.1562 2.66898 13.1562 2.66478 13.1562C2.66057 13.1562 2.65639 13.1562 2.65223 13.1562C2.64808 13.1562 2.64395 13.1562 2.63985 13.1562C2.63574 13.1562 2.63167 13.1562 2.62761 13.1562C2.62356 13.1562 2.61954 13.1562 2.61554 13.1562C2.61154 13.1562 2.60756 13.1562 2.60362 13.1562C2.59967 13.1562 2.59575 13.1562 2.59185 13.1562C2.58796 13.1562 2.58409 13.1562 2.58024 13.1562C2.5764 13.1562 2.57258 13.1562 2.56879 13.1562C2.565 13.1562 2.56124 13.1562 2.5575 13.1562C2.55377 13.1562 2.55006 13.1562 2.54637 13.1562C2.54269 13.1562 2.53903 13.1562 2.5354 13.1562C2.53177 13.1562 2.52816 13.1562 2.52458 13.1562C2.52101 13.1562 2.51746 13.1562 2.51393 13.1562C2.51041 13.1562 2.50691 13.1562 2.50344 13.1562C2.49997 13.1562 2.49653 13.1562 2.49311 13.1562C2.48969 13.1562 2.4863 13.1562 2.48294 13.1562C2.47958 13.1562 2.47624 13.1562 2.47293 13.1562C2.46962 13.1562 2.46634 13.1562 2.46309 13.1562C2.45983 13.1562 2.45661 13.1562 2.45341 13.1562C2.45021 13.1562 2.44704 13.1562 2.44389 13.1562C2.44075 13.1562 2.43763 13.1562 2.43454 13.1562C2.43145 13.1562 2.42839 13.1562 2.42535 13.1562C2.42232 13.1562 2.41931 13.1562 2.41633 13.1562C2.41335 13.1562 2.4104 13.1562 2.40747 13.1562C2.40455 13.1562 2.40165 13.1562 2.39878 13.1562C2.39592 13.1562 2.39307 13.1562 2.39026 13.1562C2.38745 13.1562 2.38466 13.1562 2.38191 13.1562C2.37915 13.1562 2.37642 13.1562 2.37372 13.1562C2.37102 13.1562 2.36835 13.1562 2.3657 13.1562C2.36306 13.1562 2.36044 13.1562 2.35785 13.1562C2.35526 13.1562 2.3527 13.1562 2.35017 13.1562C2.34764 13.1562 2.34514 13.1562 2.34266 13.1562C2.34019 13.1562 2.33774 13.1562 2.33532 13.1562C2.3329 13.1562 2.33051 13.1562 2.32815 13.1562C2.32579 13.1562 2.32346 13.1562 2.32116 13.1562C2.31885 13.1562 2.31658 13.1562 2.31433 13.1562C2.31209 13.1562 2.30987 13.1562 2.30768 13.1562C2.30549 13.1562 2.30333 13.1562 2.3012 13.1562C2.29907 13.1562 2.29697 13.1562 2.29489 13.1562C2.29282 13.1562 2.29078 13.1562 2.28876 13.1562C2.28675 13.1562 2.28476 13.1562 2.28281 13.1562C2.28085 13.1562 2.27892 13.1562 2.27703 13.1562C2.27513 13.1562 2.27326 13.1562 2.27142 13.1562C2.26958 13.1562 2.26777 13.1562 2.26599 13.1562C2.26421 13.1562 2.26246 13.1562 2.26074 13.1562C2.25902 13.1562 2.25732 13.1562 2.25566 13.1562C2.254 13.1562 2.25237 13.1562 2.25077 13.1562C2.24916 13.1562 2.24759 13.1562 2.24605 13.1562C2.2445 13.1562 2.24299 13.1562 2.2415 13.1562C2.24002 13.1562 2.23857 13.1562 2.23714 13.1562C2.23572 13.1562 2.23433 13.1562 2.23296 13.1562C2.2316 13.1562 2.23026 13.1562 2.22896 13.1562C2.22766 13.1562 2.22638 13.1562 2.22514 13.1562C2.2239 13.1562 2.22268 13.1562 2.2215 13.1562C2.22032 13.1562 2.21917 13.1562 2.21804 13.1562C2.21692 13.1562 2.21583 13.1562 2.21477 13.1562C2.21371 13.1562 2.21268 13.1562 2.21168 13.1562C2.21068 13.1562 2.20971 13.1562 2.20877 13.1562C2.20783 13.1562 2.20692 13.1562 2.20604 13.1562C2.20517 13.1562 2.20432 13.1562 2.2035 13.1562C2.20269 13.1562 2.2019 13.1562 2.20115 13.1562C2.2004 13.1562 2.19967 13.1562 2.19898 13.1562C2.19829 13.1562 2.19763 13.1562 2.197 13.1562C2.19637 13.1562 2.19577 13.1562 2.1952 13.1562C2.19463 13.1562 2.19409 13.1562 2.19359 13.1562C2.19308 13.1562 2.19261 13.1562 2.19217 13.1562C2.19172 13.1562 2.19131 13.1562 2.19093 13.1562C2.19055 13.1562 2.1902 13.1562 2.18988 13.1562C2.18957 13.1562 2.18928 13.1562 2.18903 13.1562C2.18877 13.1562 2.18855 13.1562 2.18836 13.1562C2.18817 13.1562 2.18801 13.1562 2.18788 13.1562C2.18776 13.1562 2.18766 13.1562 2.1876 13.1562C2.18753 13.1562 2.1875 13.1562 2.1875 14ZM16.4964 13.5096C16.1062 12.9632 15.5757 11.7994 15.14 10.3778C14.7087 8.97041 14.4036 7.41783 14.4036 6.125H12.7161C12.7161 7.64467 13.0672 9.37334 13.5266 10.8722C13.9815 12.3568 14.576 13.7243 15.1233 14.4904L16.4964 13.5096ZM14.4036 6.125C14.4036 4.9098 13.614 3.8453 12.6599 3.12969C11.6845 2.39819 10.3847 1.90625 9.05986 1.90625V3.59375C9.98502 3.59375 10.9352 3.94556 11.6473 4.47968C12.3807 5.0297 12.7161 5.6527 12.7161 6.125H14.4036ZM9.90361 2.75V1.625H8.21611V2.75H9.90361ZM7.37232 17.6562H10.7473V15.9688H7.37232V17.6562ZM10.7473 16.8125C9.90357 16.8125 9.90357 16.8119 9.90357 16.8113C9.90357 16.8111 9.90357 16.8105 9.90357 16.8101C9.90357 16.8093 9.90357 16.8085 9.90358 16.8077C9.90359 16.8062 9.9036 16.8047 9.90362 16.8033C9.90365 16.8004 9.9037 16.7978 9.90376 16.7953C9.90388 16.7904 9.90404 16.7863 9.90421 16.783C9.90454 16.7763 9.90491 16.7725 9.90507 16.771C9.90536 16.7682 9.90496 16.7734 9.90239 16.7836C9.89703 16.8051 9.88543 16.8367 9.86138 16.8687C9.8425 16.8939 9.6977 17.0937 9.05984 17.0938L9.05988 18.7812C10.1095 18.7812 10.8084 18.4185 11.2114 17.8812C11.3983 17.6321 11.4921 17.3824 11.5395 17.1929C11.5633 17.0977 11.5761 17.015 11.583 16.9507C11.5864 16.9185 11.5884 16.8904 11.5896 16.8673C11.5902 16.8557 11.5905 16.8453 11.5908 16.8361C11.5909 16.8316 11.591 16.8273 11.591 16.8234C11.591 16.8214 11.591 16.8195 11.591 16.8177C11.5911 16.8168 11.5911 16.8159 11.5911 16.815C11.5911 16.8146 11.5911 16.814 11.5911 16.8138C11.5911 16.8131 11.5911 16.8125 10.7473 16.8125ZM9.05984 17.0938C8.422 17.0938 8.27718 16.8939 8.25828 16.8687C8.23422 16.8367 8.22261 16.805 8.21724 16.7836C8.21467 16.7733 8.21426 16.7682 8.21456 16.7709C8.21472 16.7724 8.21509 16.7763 8.21542 16.7829C8.21559 16.7863 8.21575 16.7904 8.21587 16.7953C8.21593 16.7977 8.21598 16.8003 8.21601 16.8032C8.21603 16.8046 8.21604 16.8061 8.21605 16.8077C8.21606 16.8084 8.21606 16.8092 8.21606 16.81C8.21606 16.8104 8.21606 16.811 8.21606 16.8112C8.21607 16.8118 8.21607 16.8124 7.37232 16.8125C6.52857 16.8126 6.52857 16.8132 6.52857 16.8138C6.52857 16.814 6.52857 16.8147 6.52857 16.8151C6.52857 16.816 6.52858 16.8168 6.52858 16.8178C6.52859 16.8196 6.52861 16.8215 6.52863 16.8234C6.52868 16.8274 6.52875 16.8316 6.52887 16.8362C6.52909 16.8453 6.52945 16.8557 6.53003 16.8673C6.53119 16.8905 6.53321 16.9185 6.53667 16.9508C6.54356 17.015 6.55634 17.0978 6.58015 17.193C6.62754 17.3825 6.72141 17.6321 6.90831 17.8813C7.31131 18.4186 8.01026 18.7813 9.05988 18.7812L9.05984 17.0938Z" fill="#FF560E"/>
</g>
<defs>
<clipPath id="clip0_3_11733">
<rect width="18" height="18" fill="white" transform="translate(0.5 0.5)"/>
</clipPath>
</defs>
</svg>
