<svg width="19" height="18" viewBox="0 0 19 18" fill="none" xmlns="http://www.w3.org/2000/svg">
<g id="cajita">
<path id="Vector" d="M4.0625 4.8125H11.375M4.0625 8.375H11.375M4.0625 11.75H11.375M15.125 5.375V11.75C15.125 14 14 15.5 11.375 15.5H5.375C2.75 15.5 1.625 14 1.625 11.75V5.375C1.625 3.125 2.75 1.625 5.375 1.625H11.375C14 1.625 15.125 3.125 15.125 5.375Z" stroke="#FF7500" stroke-width="1.6875" stroke-miterlimit="10" stroke-linecap="round" stroke-linejoin="round"/>
<circle id="Ellipse 997" cx="14" cy="11.75" r="3.9375" fill="white" stroke="#FF7500" stroke-width="1.125"/>
<path id="i" d="M12.9441 14C12.9249 14 12.9076 13.992 12.8923 13.9759C12.8808 13.9638 12.875 13.9457 12.875 13.9216V13.4511C12.875 13.431 12.8808 13.4149 12.8923 13.4028C12.9076 13.3867 12.9249 13.3787 12.9441 13.3787H13.7267V11.5208H13.0476C13.0285 11.5208 13.0112 11.5147 12.9958 11.5027C12.9843 11.4866 12.9786 11.4665 12.9786 11.4424V10.9718C12.9786 10.9517 12.9843 10.9357 12.9958 10.9236C13.0112 10.9075 13.0285 10.8995 13.0476 10.8995H14.2791C14.2983 10.8995 14.3136 10.9075 14.3251 10.9236C14.3405 10.9357 14.3481 10.9517 14.3481 10.9718V13.3787H15.0559C15.0751 13.3787 15.0905 13.3867 15.102 13.4028C15.1173 13.4149 15.125 13.431 15.125 13.4511V13.9216C15.125 13.9739 15.102 14 15.0559 14H12.9441ZM13.9568 10.4229C13.8341 10.4229 13.7305 10.3787 13.6461 10.2902C13.5617 10.2017 13.5195 10.0952 13.5195 9.97051C13.5195 9.8378 13.5617 9.72721 13.6461 9.63874C13.7305 9.54625 13.8341 9.5 13.9568 9.5C14.0834 9.5 14.1889 9.54625 14.2733 9.63874C14.3616 9.72721 14.4057 9.8378 14.4057 9.97051C14.4057 10.0952 14.3616 10.2017 14.2733 10.2902C14.1889 10.3787 14.0834 10.4229 13.9568 10.4229Z" fill="#FF7500"/>
</g>
</svg>
