<svg width="19" height="19" viewBox="0 0 19 19" fill="none" xmlns="http://www.w3.org/2000/svg">
<g id="cajita">
<path id="Vector" d="M4.25 8H5.75C7.25 8 8 7.25 8 5.75V4.25C8 2.75 7.25 2 5.75 2H4.25C2.75 2 2 2.75 2 4.25V5.75C2 7.25 2.75 8 4.25 8ZM13.25 8H14.75C16.25 8 17 7.25 17 5.75V4.25C17 2.75 16.25 2 14.75 2H13.25C11.75 2 11 2.75 11 4.25V5.75C11 7.25 11.75 8 13.25 8ZM13.25 17H14.75C16.25 17 17 16.25 17 14.75V13.25C17 11.75 16.25 11 14.75 11H13.25C11.75 11 11 11.75 11 13.25V14.75C11 16.25 11.75 17 13.25 17ZM4.25 17H5.75C7.25 17 8 16.25 8 14.75V13.25C8 11.75 7.25 11 5.75 11H4.25C2.75 11 2 11.75 2 13.25V14.75C2 16.25 2.75 17 4.25 17Z" stroke="white" stroke-width="1.6875" stroke-miterlimit="10" stroke-linecap="round" stroke-linejoin="round"/>
</g>
</svg>
