<svg width="21" height="21" viewBox="0 0 21 21" fill="none" xmlns="http://www.w3.org/2000/svg">
<path id="phone" d="M18.0133 2.57329L17.9972 2.5689L17.981 2.56515L14.7976 1.82957C14.0311 1.63065 13.2724 2.05493 12.9656 2.73071L12.9618 2.73905L12.9582 2.74748L11.4829 6.19434L11.4788 6.20379L11.475 6.21333C11.2118 6.87233 11.4185 7.58536 11.9177 8.02269L11.9279 8.03165L11.9384 8.04027L13.2877 9.14769C12.3352 10.8696 10.8851 12.3376 9.12936 13.3121L8.02447 11.9623L8.01586 11.9518L8.00692 11.9416C7.57016 11.4418 6.85691 11.2339 6.19727 11.4981L6.18771 11.5019L6.17824 11.506L2.73583 12.9832L2.7274 12.9868L2.71904 12.9907C1.97985 13.3271 1.68779 14.1086 1.80809 14.7711L1.81162 14.7905L1.81607 14.8098L2.55373 18.0105L2.55746 18.0267L2.56183 18.0427C2.75535 18.7532 3.3691 19.2187 4.11358 19.2187C12.4478 19.2187 19.2188 12.4705 19.2188 4.09508C19.2188 3.31023 18.6506 2.74733 18.0133 2.57329Z" stroke="#FF7500" stroke-width="1.6875"/>
</svg>
